<svg id="Layer_1" data-name="Layer 1" xmlns="http://www.w3.org/2000/svg" viewBox="0 0 116.5 147"><defs><style>.egcore-1,.egcore-11,.egcore-13,.egcore-5{fill:#fff}.egcore-1,.egcore-11,.egcore-15{stroke:#ffc60a}.egcore-1,.egcore-15,.egcore-2,.egcore-4{stroke-linecap:round}.egcore-1,.egcore-11{stroke-miterlimit:10}.egcore-1{stroke-width:1.15px}.egcore-15,.egcore-2,.egcore-4{fill:none;stroke-linejoin:round}.egcore-2,.egcore-4{stroke:#136d7c}.egcore-11,.egcore-2{stroke-width:.57px}.egcore-3{opacity:.4}.egcore-4{stroke-width:.96px}.egcore-6{opacity:.63}.egcore-7{fill:#136d7c}.egcore-8{fill:#ffc60a}.egcore-9{fill:#37403f}.egcore-10{fill:#74cfe8}.egcore-12{fill:#35a9c5}.egcore-13{opacity:.8}.egcore-14{fill:#f1f0f1}.egcore-15{stroke-width:.76px}</style></defs><title>Untitled-3</title><path class="egcore-1" d="M115.93 48.23v91.7c-.61 3.67-3.35 6.51-6.71 6.51H6.67a6.22 6.22 0 0 1-6.1-6.3V6.91a6.22 6.22 0 0 1 6.1-6.3h103.16a6.22 6.22 0 0 1 6.1 6.3v41.32z"/><rect class="egcore-2" x="6.28" y="6.48" width="103.73" height="97.99" rx="3.14" ry="3.14"/><g class="egcore-3"><path class="egcore-4" d="M100.09 33.26h-5a1.2 1.2 0 0 1-.76-1.35 1.2 1.2 0 0 1 .76-1.35h10.2a1.2 1.2 0 0 0 .76-1.35 1.2 1.2 0 0 0-.76-1.35h-9.78M100.09 38.67h-5a1.2 1.2 0 0 1-.76-1.35 1.2 1.2 0 0 1 .76-1.32h10.2a1.2 1.2 0 0 0 .76-1.35 1.2 1.2 0 0 0-.76-1.35H100"/><path class="egcore-4" d="M100.09 44.07h-5a1.2 1.2 0 0 1-.76-1.35 1.2 1.2 0 0 1 .76-1.35h10.2a1.2 1.2 0 0 0 .76-1.35 1.2 1.2 0 0 0-.76-1.35H100M100.09 49.48h-5a1.2 1.2 0 0 1-.76-1.35 1.2 1.2 0 0 1 .76-1.35h10.2a1.2 1.2 0 0 0 .76-1.35 1.2 1.2 0 0 0-.76-1.35H100M100.09 54.89h-5a1.2 1.2 0 0 1-.76-1.35 1.2 1.2 0 0 1 .76-1.35h10.2a1.2 1.2 0 0 0 .76-1.35 1.2 1.2 0 0 0-.76-1.35H100M100.09 60.3h-5a1.2 1.2 0 0 1-.76-1.3 1.2 1.2 0 0 1 .76-1.35h10.2a1.2 1.2 0 0 0 .76-1.35 1.2 1.2 0 0 0-.76-1.35H100M100.09 65.66h-5a1.2 1.2 0 0 1-.76-1.35 1.2 1.2 0 0 1 .76-1.31h10.2a1.2 1.2 0 0 0 .76-1.35 1.2 1.2 0 0 0-.76-1.35H100M100.09 71.07h-5a1.2 1.2 0 0 1-.76-1.35 1.2 1.2 0 0 1 .76-1.35h10.2a1.2 1.2 0 0 0 .76-1.35 1.2 1.2 0 0 0-.76-1.35H100M100.09 76.47h-5a1.2 1.2 0 0 1-.76-1.35 1.2 1.2 0 0 1 .76-1.35h10.2a1.2 1.2 0 0 0 .76-1.35 1.2 1.2 0 0 0-.76-1.35H100M100.09 81.88h-5a1.2 1.2 0 0 1-.76-1.35 1.2 1.2 0 0 1 .76-1.35h10.2a1.2 1.2 0 0 0 .76-1.35 1.2 1.2 0 0 0-.76-1.35H100M100.09 22.43h-5a1.2 1.2 0 0 1-.76-1.35 1.2 1.2 0 0 1 .76-1.35h10.2a1.2 1.2 0 0 0 .76-1.35 1.2 1.2 0 0 0-.76-1.35H100M100.12 17h-5a1.2 1.2 0 0 1-.76-1.35 1.2 1.2 0 0 1 .76-1.35h10.2a1.2 1.2 0 0 0 .76-1.35 1.2 1.2 0 0 0-.76-1.35h-5.25M100.09 27.84h-5a1.2 1.2 0 0 1-.76-1.35 1.2 1.2 0 0 1 .76-1.35h10.2a1.2 1.2 0 0 0 .76-1.35 1.2 1.2 0 0 0-.76-1.35H100"/><path class="egcore-4" d="M100.09 87.26h-5a1.2 1.2 0 0 1-.76-1.35 1.2 1.2 0 0 1 .76-1.35h10.2a1.2 1.2 0 0 0 .76-1.35 1.2 1.2 0 0 0-.76-1.35H100M95.09 90h10.2a1.2 1.2 0 0 0 .76-1.35 1.2 1.2 0 0 0-.76-1.35H100"/></g><path class="egcore-5" d="M92.83 88.09h14.88v5.55H92.83z"/><g class="egcore-6"><path class="egcore-7" d="M94.15 90.54h1.43a1.11 1.11 0 0 1 .75.21.75.75 0 0 1 .25.6.88.88 0 0 1-.06.36.8.8 0 0 1-.15.23.58.58 0 0 1-.17.12l-.12.05h.14a.42.42 0 0 1 .15.11.59.59 0 0 1 .11.19.84.84 0 0 1 0 .29 2.69 2.69 0 0 0 0 .48.65.65 0 0 0 .12.31h-.47a.49.49 0 0 1-.07-.21v-.23a2.2 2.2 0 0 0 0-.36.64.64 0 0 0-.09-.25.39.39 0 0 0-.18-.14.8.8 0 0 0-.3 0h-.81v1.24h-.53v-3zm.53 1.37h.86a.55.55 0 0 0 .38-.12.46.46 0 0 0 .13-.36.57.57 0 0 0 0-.23.34.34 0 0 0-.12-.14.41.41 0 0 0-.2-.06h-1.05v.94zM98 93.61a1.19 1.19 0 0 1-.47-.09 1 1 0 0 1-.34-.24 1 1 0 0 1-.19-.36 1.48 1.48 0 0 1 0-.92 1 1 0 0 1 .21-.36 1 1 0 0 1 .34-.24 1.29 1.29 0 0 1 .93 0 1 1 0 0 1 .34.24 1 1 0 0 1 .21.36 1.48 1.48 0 0 1 0 .92 1 1 0 0 1-.21.36 1 1 0 0 1-.34.24 1.18 1.18 0 0 1-.48.09zm0-.38a.55.55 0 0 0 .28-.07.6.6 0 0 0 .24-.16.76.76 0 0 0 .11-.25 1.09 1.09 0 0 0 0-.56.73.73 0 0 0-.11-.25.6.6 0 0 0-.19-.17.61.61 0 0 0-.56 0 .6.6 0 0 0-.19.17.73.73 0 0 0-.11.25 1.09 1.09 0 0 0 0 .56.76.76 0 0 0 .11.25.6.6 0 0 0 .19.18.55.55 0 0 0 .23.05zM101.45 93.55H101v-.3a.65.65 0 0 1-.26.26.71.71 0 0 1-.36.1.8.8 0 0 1-.62-.21.93.93 0 0 1-.19-.64v-1.39h.43v1.33a.59.59 0 0 0 .11.4.4.4 0 0 0 .31.12.6.6 0 0 0 .25 0 .44.44 0 0 0 .16-.12.47.47 0 0 0 .09-.19 1 1 0 0 0 0-.24v-1.3h.48v2.17zM101.74 91.37h.36v-.65h.48v.65h.42v.36h-.43v1.16a1 1 0 0 0 0 .13.22.22 0 0 0 0 .09.13.13 0 0 0 .07.06h.36v.37H102.7a1.07 1.07 0 0 1-.3 0 .4.4 0 0 1-.18-.11.37.37 0 0 1-.09-.17 1.29 1.29 0 0 1 0-.24v-1.29h-.36v-.36zM103.73 92.58a.81.81 0 0 0 0 .24.6.6 0 0 0 .11.21.51.51 0 0 0 .18.14.59.59 0 0 0 .26.05.58.58 0 0 0 .34-.09.54.54 0 0 0 .19-.27h.45a.91.91 0 0 1-.13.32.89.89 0 0 1-.22.23 1 1 0 0 1-.29.14 1.18 1.18 0 0 1-.34 0 1.15 1.15 0 0 1-.46-.08.93.93 0 0 1-.33-.24 1 1 0 0 1-.21-.36 1.45 1.45 0 0 1-.07-.46 1.32 1.32 0 0 1 .07-.44 1.1 1.1 0 0 1 .21-.37 1 1 0 0 1 .77-.34 1 1 0 0 1 .46.11 1 1 0 0 1 .34.28 1.16 1.16 0 0 1 .2.41 1.26 1.26 0 0 1 0 .47h-1.6zm1.12-.32a.76.76 0 0 0 0-.22.57.57 0 0 0-.11-.18.54.54 0 0 0-.17-.13.5.5 0 0 0-.22 0 .58.58 0 0 0-.23 0 .54.54 0 0 0-.18.12.62.62 0 0 0-.12.18.64.64 0 0 0 0 .23h1.12zM105.7 91.37h.45v.42a.47.47 0 0 1 .08-.17.78.78 0 0 1 .15-.15.74.74 0 0 1 .19-.11.59.59 0 0 1 .21 0h.22v.46h-.21a.55.55 0 0 0-.23 0 .53.53 0 0 0-.19.14.71.71 0 0 0-.13.23 1 1 0 0 0 0 .32v1h-.54v-2.14z"/></g><rect class="egcore-8" x="40.17" y="120.36" width="33.1" height="12.53" rx="3.14" ry="3.14"/><rect class="egcore-8" x="6.06" y="120.36" width="33.1" height="12.53" rx="3.14" ry="3.14"/><rect class="egcore-8" x="74.27" y="120.36" width="33.1" height="12.53" rx="3.14" ry="3.14"/><path class="egcore-9" d="M10.09 122.07h1.47a1.66 1.66 0 0 1 .71.14 1.31 1.31 0 0 1 .49.38 1.62 1.62 0 0 1 .28.56 2.63 2.63 0 0 1 0 1.38 1.63 1.63 0 0 1-.28.56 1.31 1.31 0 0 1-.49.38 1.64 1.64 0 0 1-.71.14h-1.47v-3.55zm.62 3h.61a1.54 1.54 0 0 0 .59-.1.86.86 0 0 0 .36-.27 1 1 0 0 0 .18-.4 2.66 2.66 0 0 0 0-1 1 1 0 0 0-.18-.4.88.88 0 0 0-.36-.27 1.56 1.56 0 0 0-.59-.1h-.61v2.54zM13.49 122.07h.57v.54h-.57v-.54zm0 1h.57v2.57h-.57V123zM15 124.79a.43.43 0 0 0 .19.35.74.74 0 0 0 .39.1h.37a.37.37 0 0 0 .15-.1.24.24 0 0 0 .05-.18.25.25 0 0 0-.08-.18.55.55 0 0 0-.19-.11l-.27-.07-.3-.06-.31-.15a1 1 0 0 1-.26-.13.63.63 0 0 1-.19-.22.69.69 0 0 1-.07-.33.58.58 0 0 1 .1-.35.77.77 0 0 1 .26-.23 1.14 1.14 0 0 1 .35-.12 2 2 0 0 1 .37 0 1.66 1.66 0 0 1 .38 0 1 1 0 0 1 .33.14.79.79 0 0 1 .24.25.84.84 0 0 1 .12.37H16a.35.35 0 0 0-.19-.27.77.77 0 0 0-.34-.07h-.26a.32.32 0 0 0-.12.08.19.19 0 0 0 0 .14.22.22 0 0 0 .07.17.58.58 0 0 0 .19.11l.21.07.31.06.3.08a1 1 0 0 1 .27.13.65.65 0 0 1 .19.21.64.64 0 0 1 .07.32.69.69 0 0 1-.1.39.82.82 0 0 1-.27.26 1.21 1.21 0 0 1-.37.14 1.84 1.84 0 0 1-.4 0 1.73 1.73 0 0 1-.45-.05 1 1 0 0 1-.36-.17.82.82 0 0 1-.24-.28.89.89 0 0 1-.09-.4H15zM16.75 123h.43v-.77h.57v.77h.51v.42h-.52v1.37a1.4 1.4 0 0 0 0 .15.26.26 0 0 0 0 .11.17.17 0 0 0 .08.07.39.39 0 0 0 .15 0h.24v.44h-.32a1.25 1.25 0 0 1-.36 0 .48.48 0 0 1-.21-.12.44.44 0 0 1-.1-.21 1.58 1.58 0 0 1 0-.28v-1.52h-.47V123zM18.54 123h.53v.5a.58.58 0 0 1 .1-.2 1 1 0 0 1 .17-.18.88.88 0 0 1 .23-.13.7.7 0 0 1 .25 0H20v.55h-.2a.65.65 0 0 0-.27.06.63.63 0 0 0-.22.17.82.82 0 0 0-.15.28 1.19 1.19 0 0 0-.05.38v1.22h-.57V123zM20.18 122.07h.57v.54h-.57v-.54zm0 1h.57v2.57h-.57V123zM21.25 122.07h.57v1.31a.76.76 0 0 1 .14-.17.91.91 0 0 1 .19-.13l.21-.08h.22a1.23 1.23 0 0 1 .53.11 1 1 0 0 1 .38.29 1.27 1.27 0 0 1 .22.44 1.84 1.84 0 0 1 .07.53 1.89 1.89 0 0 1-.07.5 1.31 1.31 0 0 1-.2.43 1 1 0 0 1-.35.3 1 1 0 0 1-.49.11h-.26a.94.94 0 0 1-.25-.07.84.84 0 0 1-.22-.13.62.62 0 0 1-.16-.21v.35h-.53v-3.55zm2 2.27a1.28 1.28 0 0 0 0-.34.93.93 0 0 0-.13-.29.69.69 0 0 0-.22-.2.6.6 0 0 0-.31-.08.63.63 0 0 0-.54.25 1.1 1.1 0 0 0-.18.66 1.33 1.33 0 0 0 0 .36.81.81 0 0 0 .13.3.7.7 0 0 0 .23.19.65.65 0 0 0 .31.07.64.64 0 0 0 .33-.08.7.7 0 0 0 .22-.21.83.83 0 0 0 .12-.29 1.46 1.46 0 0 0 .02-.34zM26.41 125.62h-.56v-.36a.78.78 0 0 1-.31.31.85.85 0 0 1-.42.12.94.94 0 0 1-.73-.25 1.1 1.1 0 0 1-.23-.76V123h.57v1.58a.69.69 0 0 0 .13.48.47.47 0 0 0 .36.14.72.72 0 0 0 .3-.05.52.52 0 0 0 .18-.15.56.56 0 0 0 .11-.22 1.15 1.15 0 0 0 0-.28V123h.57v2.57zM26.62 123H27v-.77h.57v.77h.51v.42h-.46v1.37a1.4 1.4 0 0 0 0 .15.26.26 0 0 0 0 .11.17.17 0 0 0 .08.07.39.39 0 0 0 .15 0h.27v.44h-.36a1.25 1.25 0 0 1-.36 0 .48.48 0 0 1-.21-.12.44.44 0 0 1-.1-.21 1.58 1.58 0 0 1 0-.28v-1.52h-.47V123zM28.85 124.48a1 1 0 0 0 0 .29.71.71 0 0 0 .15.23.61.61 0 0 0 .21.17.7.7 0 0 0 .31.06.68.68 0 0 0 .4-.11.63.63 0 0 0 .23-.32h.54a1.07 1.07 0 0 1-.15.37 1.09 1.09 0 0 1-.26.28 1.14 1.14 0 0 1-.35.17 1.39 1.39 0 0 1-.4.06 1.36 1.36 0 0 1-.54-.1 1.09 1.09 0 0 1-.4-.28 1.18 1.18 0 0 1-.24-.43 1.73 1.73 0 0 1-.08-.55 1.55 1.55 0 0 1 .09-.52 1.33 1.33 0 0 1 .25-.43 1.17 1.17 0 0 1 .91-.41 1.16 1.16 0 0 1 .54.13 1.2 1.2 0 0 1 .4.34 1.36 1.36 0 0 1 .23.48 1.47 1.47 0 0 1 0 .56h-1.84zm1.32-.37a.94.94 0 0 0-.06-.26.7.7 0 0 0-.13-.22.64.64 0 0 0-.2-.15.59.59 0 0 0-.26-.06.69.69 0 0 0-.27.05.63.63 0 0 0-.21.14.73.73 0 0 0-.14.22.76.76 0 0 0-.06.27h1.32zM33.47 125.62h-.53v-.35a.68.68 0 0 1-.33.32 1.13 1.13 0 0 1-.46.1 1.23 1.23 0 0 1-.53-.11 1.05 1.05 0 0 1-.38-.29 1.25 1.25 0 0 1-.22-.44 1.88 1.88 0 0 1-.07-.54 1.72 1.72 0 0 1 .09-.6 1.21 1.21 0 0 1 .25-.42 1 1 0 0 1 .36-.24A1.15 1.15 0 0 1 32 123h.24a1.11 1.11 0 0 1 .24.07.94.94 0 0 1 .21.13.73.73 0 0 1 .16.18v-1.31h.57v3.55zm-2-1.26a1.25 1.25 0 0 0 0 .32.88.88 0 0 0 .13.28.63.63 0 0 0 .54.27.64.64 0 0 0 .33-.08.69.69 0 0 0 .22-.21 1 1 0 0 0 .13-.29 1.29 1.29 0 0 0 0-.33 1 1 0 0 0-.19-.67.63.63 0 0 0-.52-.24.64.64 0 0 0-.34.08.69.69 0 0 0-.22.21.88.88 0 0 0-.12.3 1.55 1.55 0 0 0 .06.36zM10.48 127H12a1.66 1.66 0 0 1 .71.14 1.31 1.31 0 0 1 .49.38 1.62 1.62 0 0 1 .28.56 2.63 2.63 0 0 1 0 1.38 1.63 1.63 0 0 1-.28.56 1.31 1.31 0 0 1-.49.38 1.64 1.64 0 0 1-.71.14h-1.52V127zm.62 3h.61a1.54 1.54 0 0 0 .59-.1.86.86 0 0 0 .36-.27 1 1 0 0 0 .18-.4 2.66 2.66 0 0 0 0-1 1 1 0 0 0-.18-.4.88.88 0 0 0-.36-.27 1.56 1.56 0 0 0-.59-.1h-.6V130zM16 130a.3.3 0 0 0 0 .15.11.11 0 0 0 .11 0h.19v.39h-.36a.55.55 0 0 1-.29-.07.35.35 0 0 1-.15-.24 1 1 0 0 1-.42.24 1.63 1.63 0 0 1-.48.07 1.17 1.17 0 0 1-.33 0 .86.86 0 0 1-.28-.14.66.66 0 0 1-.19-.23.72.72 0 0 1-.07-.33.76.76 0 0 1 .09-.39.65.65 0 0 1 .23-.23 1 1 0 0 1 .32-.12l.36-.06h.54a.37.37 0 0 0 .17-.09.25.25 0 0 0 .06-.19.29.29 0 0 0-.05-.18.36.36 0 0 0-.13-.11H15a.71.71 0 0 0-.39.1.39.39 0 0 0-.17.31h-.61a.85.85 0 0 1 .12-.41.83.83 0 0 1 .27-.26 1.08 1.08 0 0 1 .37-.14 2.18 2.18 0 0 1 .42 0 1.77 1.77 0 0 1 .37 0 1 1 0 0 1 .33.13.72.72 0 0 1 .24.23.64.64 0 0 1 .09.35V130zm-.57-.72a.69.69 0 0 1-.32.1l-.38.05h-.17l-.15.08a.33.33 0 0 0-.1.12.42.42 0 0 0 0 .19.24.24 0 0 0 .05.16.39.39 0 0 0 .13.1l.17.05h.37a.67.67 0 0 0 .21-.08.54.54 0 0 0 .16-.15.39.39 0 0 0 .06-.23v-.37zM16.25 128h.43v-.77h.57v.77h.51v.42h-.51v1.37a1.4 1.4 0 0 0 0 .15.26.26 0 0 0 0 .11.17.17 0 0 0 .08.07.39.39 0 0 0 .15 0h.24v.44H17.39a1.25 1.25 0 0 1-.36 0 .48.48 0 0 1-.21-.12.44.44 0 0 1-.1-.21 1.58 1.58 0 0 1 0-.28v-1.52h-.47V128zM20.19 130a.3.3 0 0 0 0 .15.11.11 0 0 0 .11 0h.14v.39H20.11a.55.55 0 0 1-.29-.07.35.35 0 0 1-.15-.24 1 1 0 0 1-.42.24 1.63 1.63 0 0 1-.48.07 1.17 1.17 0 0 1-.33 0 .86.86 0 0 1-.28-.14.66.66 0 0 1-.19-.23.72.72 0 0 1-.07-.33.76.76 0 0 1 .09-.39.65.65 0 0 1 .23-.23 1 1 0 0 1 .32-.12l.36-.06h.54a.37.37 0 0 0 .17-.09.25.25 0 0 0 .06-.19.29.29 0 0 0-.05-.18.36.36 0 0 0-.13-.11h-.36a.71.71 0 0 0-.39.1.39.39 0 0 0-.17.31H18a.85.85 0 0 1 .12-.41.83.83 0 0 1 .27-.26 1.08 1.08 0 0 1 .37-.14 2.18 2.18 0 0 1 .42 0 1.77 1.77 0 0 1 .37 0 1 1 0 0 1 .33.13.72.72 0 0 1 .24.23.64.64 0 0 1 .09.35V130zm-.57-.72a.69.69 0 0 1-.32.1l-.38.05h-.17l-.15.08a.33.33 0 0 0-.1.12.42.42 0 0 0 0 .19.24.24 0 0 0 .05.16.39.39 0 0 0 .13.1l.17.05h.35a.67.67 0 0 0 .21-.08.54.54 0 0 0 .16-.15.39.39 0 0 0 .06-.23v-.37zM22.43 129.41a.8.8 0 0 0 .07.35.62.62 0 0 0 .19.24.82.82 0 0 0 .29.13 1.38 1.38 0 0 0 .35 0 1.14 1.14 0 0 0 .35 0 .7.7 0 0 0 .23-.12.43.43 0 0 0 .13-.17.51.51 0 0 0 0-.2.42.42 0 0 0-.09-.3.54.54 0 0 0-.2-.14l-.44-.13-.62-.16a1.34 1.34 0 0 1-.38-.16.91.91 0 0 1-.24-.22.76.76 0 0 1-.13-.25 1 1 0 0 1 0-.27.92.92 0 0 1 .11-.46 1 1 0 0 1 .3-.33 1.3 1.3 0 0 1 .42-.19 1.81 1.81 0 0 1 .47-.06 1.86 1.86 0 0 1 .52.07 1.28 1.28 0 0 1 .43.22 1 1 0 0 1 .41.84H24a.6.6 0 0 0-.23-.48.93.93 0 0 0-.53-.14h-.22a.72.72 0 0 0-.21.08.45.45 0 0 0-.16.14.43.43 0 0 0 .05.52.75.75 0 0 0 .31.16h.16l.31.08.33.09.19.11a1.06 1.06 0 0 1 .3.15 1 1 0 0 1 .22.22.89.89 0 0 1 .13.26 1 1 0 0 1 0 .28 1 1 0 0 1-.12.51 1 1 0 0 1-.32.35 1.39 1.39 0 0 1-.45.2 2.18 2.18 0 0 1-.52.06 2.13 2.13 0 0 1-.57-.08 1.35 1.35 0 0 1-.47-.23 1.12 1.12 0 0 1-.32-.4 1.32 1.32 0 0 1-.12-.57h.62zM24.78 128h.43v-.77h.57v.77h.51v.42h-.52v1.37a1.4 1.4 0 0 0 0 .15.26.26 0 0 0 0 .11.17.17 0 0 0 .08.07.39.39 0 0 0 .15 0h.24v.44h-.32a1.25 1.25 0 0 1-.36 0 .48.48 0 0 1-.21-.12.44.44 0 0 1-.1-.21 1.58 1.58 0 0 1 0-.28v-1.52h-.47V128zM27.75 130.66a1.41 1.41 0 0 1-.55-.1 1.18 1.18 0 0 1-.41-.28 1.19 1.19 0 0 1-.25-.43 1.75 1.75 0 0 1 0-1.09 1.2 1.2 0 0 1 .25-.43 1.15 1.15 0 0 1 .41-.28 1.52 1.52 0 0 1 1.1 0 1.15 1.15 0 0 1 .41.28 1.2 1.2 0 0 1 .25.43 1.75 1.75 0 0 1 0 1.09 1.2 1.2 0 0 1-.25.43 1.18 1.18 0 0 1-.41.28 1.41 1.41 0 0 1-.55.1zm0-.45a.65.65 0 0 0 .33-.08.7.7 0 0 0 .23-.21.92.92 0 0 0 .13-.29 1.31 1.31 0 0 0 0-.66.89.89 0 0 0-.13-.29.72.72 0 0 0-.23-.21.72.72 0 0 0-.66 0 .71.71 0 0 0-.23.21.89.89 0 0 0-.13.29 1.3 1.3 0 0 0 0 .66.92.92 0 0 0 .13.29.7.7 0 0 0 .23.21.65.65 0 0 0 .33.08zM29.39 128h.53v.5a.58.58 0 0 1 .1-.2 1 1 0 0 1 .17-.18.88.88 0 0 1 .23-.13.7.7 0 0 1 .25 0h.23v.55h-.24a.65.65 0 0 0-.27.06.63.63 0 0 0-.22.17.82.82 0 0 0-.17.23 1.19 1.19 0 0 0-.05.38v1.22h-.56V128zM31.37 129.45a1 1 0 0 0 0 .29.71.71 0 0 0 .13.24.61.61 0 0 0 .21.17.7.7 0 0 0 .31.06.68.68 0 0 0 .4-.11.63.63 0 0 0 .23-.32h.54a1.07 1.07 0 0 1-.15.37 1.09 1.09 0 0 1-.26.28 1.14 1.14 0 0 1-.35.17 1.39 1.39 0 0 1-.4.06 1.36 1.36 0 0 1-.54-.1 1.09 1.09 0 0 1-.4-.28 1.18 1.18 0 0 1-.24-.43 1.73 1.73 0 0 1-.08-.55 1.55 1.55 0 0 1 .09-.52 1.33 1.33 0 0 1 .25-.43A1.17 1.17 0 0 1 32 128a1.16 1.16 0 0 1 .54.13 1.2 1.2 0 0 1 .4.34 1.36 1.36 0 0 1 .23.48 1.47 1.47 0 0 1 0 .56h-1.8zm1.32-.37a.94.94 0 0 0-.06-.26.7.7 0 0 0-.13-.22.64.64 0 0 0-.2-.15.59.59 0 0 0-.3-.05.69.69 0 0 0-.27.05.63.63 0 0 0-.21.14.73.73 0 0 0-.14.22.76.76 0 0 0-.06.27h1.32zM48 123.2a1.26 1.26 0 0 0-.11-.28.79.79 0 0 0-.18-.22.81.81 0 0 0-.26-.15 1 1 0 0 0-.34-.05 1 1 0 0 0-.49.11 1 1 0 0 0-.34.31 1.37 1.37 0 0 0-.19.43 2 2 0 0 0 0 1 1.38 1.38 0 0 0 .19.43 1 1 0 0 0 .34.31 1 1 0 0 0 .49.11.87.87 0 0 0 .37-.07.82.82 0 0 0 .27-.2 1 1 0 0 0 .18-.3 1.44 1.44 0 0 0 .08-.36h.61a1.69 1.69 0 0 1-.14.58 1.43 1.43 0 0 1-.32.46 1.41 1.41 0 0 1-.47.3 1.62 1.62 0 0 1-.59.1 1.68 1.68 0 0 1-.71-.15 1.56 1.56 0 0 1-.53-.4 1.81 1.81 0 0 1-.34-.59 2.27 2.27 0 0 1 0-1.44 1.79 1.79 0 0 1 .34-.59 1.6 1.6 0 0 1 .53-.4 1.65 1.65 0 0 1 .71-.15 1.88 1.88 0 0 1 .56.08 1.45 1.45 0 0 1 .46.24 1.24 1.24 0 0 1 .33.38 1.33 1.33 0 0 1 .15.51H48zM50.16 125.69a1.41 1.41 0 0 1-.55-.1 1.18 1.18 0 0 1-.41-.28 1.2 1.2 0 0 1-.25-.43 1.75 1.75 0 0 1 0-1.09 1.2 1.2 0 0 1 .25-.43 1.15 1.15 0 0 1 .41-.28 1.52 1.52 0 0 1 1.1 0 1.15 1.15 0 0 1 .41.28 1.2 1.2 0 0 1 .25.43 1.75 1.75 0 0 1 0 1.09 1.2 1.2 0 0 1-.25.43 1.18 1.18 0 0 1-.41.28 1.41 1.41 0 0 1-.55.1zm0-.45a.65.65 0 0 0 .33-.08.7.7 0 0 0 .23-.21.92.92 0 0 0 .13-.29 1.31 1.31 0 0 0 0-.66.89.89 0 0 0-.13-.29.72.72 0 0 0-.23-.21.72.72 0 0 0-.66 0 .71.71 0 0 0-.23.21.89.89 0 0 0-.13.29 1.3 1.3 0 0 0 0 .66.92.92 0 0 0 .13.29.7.7 0 0 0 .23.21.65.65 0 0 0 .33.08zM51.81 123h.54v.38a1 1 0 0 1 .34-.34.9.9 0 0 1 .46-.12 1 1 0 0 1 .67.22.84.84 0 0 1 .24.66v1.76h-.56V124a.7.7 0 0 0-.13-.44.47.47 0 0 0-.37-.14.63.63 0 0 0-.26.05.57.57 0 0 0-.19.14.68.68 0 0 0-.12.22.77.77 0 0 0 0 .26v1.52h-.62V123zM55 124.79a.43.43 0 0 0 .19.35.74.74 0 0 0 .39.1h.37a.37.37 0 0 0 .15-.1.24.24 0 0 0 .05-.18.25.25 0 0 0-.08-.18.55.55 0 0 0-.19-.11l-.27-.07-.3-.06-.31-.15a1 1 0 0 1-.26-.13.63.63 0 0 1-.19-.22.69.69 0 0 1-.07-.33.58.58 0 0 1 .1-.35.77.77 0 0 1 .26-.23 1.14 1.14 0 0 1 .35-.12 2 2 0 0 1 .37 0 1.66 1.66 0 0 1 .38 0 1 1 0 0 1 .33.14.79.79 0 0 1 .24.25.84.84 0 0 1 .12.37H56a.35.35 0 0 0-.19-.27.77.77 0 0 0-.34-.07h-.27a.32.32 0 0 0-.12.08.19.19 0 0 0 0 .14.22.22 0 0 0 .07.17.58.58 0 0 0 .19.11l.21.07.31.06.3.08a1 1 0 0 1 .27.13.65.65 0 0 1 .19.21.64.64 0 0 1 .07.32.69.69 0 0 1-.1.39.82.82 0 0 1-.27.26 1.21 1.21 0 0 1-.37.14 1.84 1.84 0 0 1-.4 0 1.73 1.73 0 0 1-.45-.05 1 1 0 0 1-.36-.17.82.82 0 0 1-.24-.28.89.89 0 0 1-.09-.4H55zM59.25 125.62h-.56v-.36a.78.78 0 0 1-.31.31.85.85 0 0 1-.42.12.94.94 0 0 1-.73-.25 1.1 1.1 0 0 1-.23-.76V123h.57v1.58a.69.69 0 0 0 .13.48.47.47 0 0 0 .36.14.72.72 0 0 0 .3-.05.52.52 0 0 0 .19-.15.57.57 0 0 0 .11-.22 1.15 1.15 0 0 0 0-.28V123h.57v2.57zM59.72 123h.54v.36l.14-.17a.76.76 0 0 1 .17-.13.82.82 0 0 1 .21-.09 1.05 1.05 0 0 1 .27 0 .94.94 0 0 1 .44.1.59.59 0 0 1 .29.32 1.15 1.15 0 0 1 .33-.31.9.9 0 0 1 .47-.12.93.93 0 0 1 .63.2.85.85 0 0 1 .23.67v1.78h-.55v-1.5-.28a.56.56 0 0 0-.06-.22.33.33 0 0 0-.14-.14.56.56 0 0 0-.26 0 .48.48 0 0 0-.42.18.86.86 0 0 0-.13.51v1.51h-.57V124a.7.7 0 0 0-.1-.41.41.41 0 0 0-.36-.14.51.51 0 0 0-.21 0 .5.5 0 0 0-.18.13.64.64 0 0 0-.12.21.8.8 0 0 0 0 .28v1.53h-.62V123zM64.37 124.48a1 1 0 0 0 0 .29.71.71 0 0 0 .13.24.6.6 0 0 0 .21.17.69.69 0 0 0 .31.06.68.68 0 0 0 .4-.11.63.63 0 0 0 .23-.32h.54a1.07 1.07 0 0 1-.42.65 1.14 1.14 0 0 1-.35.17 1.39 1.39 0 0 1-.4.06 1.36 1.36 0 0 1-.54-.1 1.09 1.09 0 0 1-.39-.28 1.17 1.17 0 0 1-.24-.43 1.73 1.73 0 0 1-.08-.55 1.56 1.56 0 0 1 .09-.52 1.36 1.36 0 0 1 .25-.43A1.17 1.17 0 0 1 65 123a1.16 1.16 0 0 1 .54.13 1.19 1.19 0 0 1 .4.34 1.35 1.35 0 0 1 .23.48 1.47 1.47 0 0 1 0 .56h-1.8zm1.32-.37a.9.9 0 0 0-.06-.26.69.69 0 0 0-.13-.22.64.64 0 0 0-.2-.15.58.58 0 0 0-.26-.06.69.69 0 0 0-.27.05.61.61 0 0 0-.21.14.71.71 0 0 0-.14.22.76.76 0 0 0-.06.27h1.32zM66.56 123h.54v.5a.57.57 0 0 1 .1-.2.92.92 0 0 1 .17-.18.87.87 0 0 1 .23-.12.69.69 0 0 1 .25 0h.21v.55H67.83a.65.65 0 0 0-.27.06.62.62 0 0 0-.22.17.81.81 0 0 0-.15.28 1.2 1.2 0 0 0-.05.38v1.22h-.58V123zM42.49 127h.88l1 2.78 1-2.78h.87v3.55h-.66v-2.74l-1 2.74h-.51l-1-2.74v2.74h-.58V127zM48.87 130a.3.3 0 0 0 0 .15.11.11 0 0 0 .11 0h.14v.39H48.78a.55.55 0 0 1-.29-.07.35.35 0 0 1-.15-.24 1 1 0 0 1-.42.24 1.63 1.63 0 0 1-.48.07 1.17 1.17 0 0 1-.33 0 .86.86 0 0 1-.28-.14.66.66 0 0 1-.19-.23.72.72 0 0 1-.07-.33.76.76 0 0 1 .09-.39.65.65 0 0 1 .23-.23 1 1 0 0 1 .32-.12l.36-.06h.54a.37.37 0 0 0 .17-.09.25.25 0 0 0 .06-.19.29.29 0 0 0-.05-.18.36.36 0 0 0-.13-.11h-.36a.71.71 0 0 0-.39.1.39.39 0 0 0-.17.31h-.57a.85.85 0 0 1 .12-.41.83.83 0 0 1 .27-.26 1.08 1.08 0 0 1 .37-.14 2.18 2.18 0 0 1 .42 0 1.77 1.77 0 0 1 .37 0 1 1 0 0 1 .33.13.72.72 0 0 1 .24.23.64.64 0 0 1 .09.35V130zm-.57-.72a.69.69 0 0 1-.32.1l-.38.05h-.17l-.15.08a.33.33 0 0 0-.1.12.42.42 0 0 0 0 .19.24.24 0 0 0 .05.16.39.39 0 0 0 .13.1l.17.05h.37a.67.67 0 0 0 .21-.08.54.54 0 0 0 .16-.15.39.39 0 0 0 .06-.23v-.37zM49.35 128h.54v.38a1 1 0 0 1 .34-.34.9.9 0 0 1 .47-.04 1 1 0 0 1 .67.22.84.84 0 0 1 .24.66v1.76H51V129a.7.7 0 0 0-.13-.44.47.47 0 0 0-.37-.14.63.63 0 0 0-.26.05.57.57 0 0 0-.19.14.68.68 0 0 0-.12.22.77.77 0 0 0 0 .26v1.52h-.58V128zM54.24 130a.3.3 0 0 0 0 .15.11.11 0 0 0 .11 0h.14v.39H54.15a.55.55 0 0 1-.29-.07.35.35 0 0 1-.15-.24 1 1 0 0 1-.42.24 1.63 1.63 0 0 1-.48.07 1.17 1.17 0 0 1-.33 0 .86.86 0 0 1-.28-.14.66.66 0 0 1-.19-.23.72.72 0 0 1-.07-.33.76.76 0 0 1 .09-.39.65.65 0 0 1 .23-.23 1 1 0 0 1 .32-.12l.36-.06h.54a.37.37 0 0 0 .17-.09.25.25 0 0 0 .06-.19.29.29 0 0 0-.05-.18.36.36 0 0 0-.13-.11h-.36a.71.71 0 0 0-.39.1.39.39 0 0 0-.17.31H52a.85.85 0 0 1 .12-.41.83.83 0 0 1 .27-.26 1.08 1.08 0 0 1 .37-.14 2.18 2.18 0 0 1 .42 0 1.77 1.77 0 0 1 .37 0 1 1 0 0 1 .33.13.72.72 0 0 1 .24.23.64.64 0 0 1 .09.35V130zm-.57-.72a.69.69 0 0 1-.32.1l-.38.05h-.17l-.15.08a.33.33 0 0 0-.1.12.42.42 0 0 0 0 .19.24.24 0 0 0 .05.16.39.39 0 0 0 .13.1l.17.05H53.2a.67.67 0 0 0 .21-.08.54.54 0 0 0 .16-.15.39.39 0 0 0 .06-.23v-.37zM57.1 130.46a1.09 1.09 0 0 1-.33.87 1.38 1.38 0 0 1-.94.29 2 2 0 0 1-.39 0 1.17 1.17 0 0 1-.36-.13.88.88 0 0 1-.27-.25.76.76 0 0 1-.13-.38h.57a.45.45 0 0 0 .08.19.44.44 0 0 0 .14.12.53.53 0 0 0 .18.05h.21a.66.66 0 0 0 .5-.17.69.69 0 0 0 .16-.49v-.39a.86.86 0 0 1-.33.33.88.88 0 0 1-.44.12 1.17 1.17 0 0 1-.52-.11 1 1 0 0 1-.36-.29 1.22 1.22 0 0 1-.21-.43 2 2 0 0 1-.06-.52 1.53 1.53 0 0 1 .08-.49 1.27 1.27 0 0 1 .23-.41 1.09 1.09 0 0 1 .85-.39 1 1 0 0 1 .45.1.69.69 0 0 1 .31.32v-.4h.58v2.44zm-1.26-.31a.62.62 0 0 0 .32-.08.63.63 0 0 0 .21-.2.89.89 0 0 0 .12-.29 1.44 1.44 0 0 0 0-.33 1.28 1.28 0 0 0 0-.32.86.86 0 0 0-.12-.27.6.6 0 0 0-.21-.19.66.66 0 0 0-.32-.07.6.6 0 0 0-.32.08.65.65 0 0 0-.21.21.88.88 0 0 0-.11.29 1.5 1.5 0 0 0 0 .32 1.2 1.2 0 0 0 0 .31.86.86 0 0 0 .12.27.66.66 0 0 0 .21.19.59.59 0 0 0 .31.08zM58 129.45a1 1 0 0 0 0 .29.71.71 0 0 0 .13.24.61.61 0 0 0 .21.17.7.7 0 0 0 .31.06.68.68 0 0 0 .4-.11.64.64 0 0 0 .23-.32h.54a1.07 1.07 0 0 1-.42.65 1.14 1.14 0 0 1-.35.17 1.39 1.39 0 0 1-.4.06 1.36 1.36 0 0 1-.54-.1 1.09 1.09 0 0 1-.4-.28 1.18 1.18 0 0 1-.24-.43 1.73 1.73 0 0 1-.08-.55 1.55 1.55 0 0 1 .09-.52 1.33 1.33 0 0 1 .25-.43 1.17 1.17 0 0 1 .91-.41 1.16 1.16 0 0 1 .54.13 1.19 1.19 0 0 1 .4.34 1.35 1.35 0 0 1 .23.48 1.47 1.47 0 0 1 0 .56H58zm1.32-.37a.9.9 0 0 0-.06-.26.69.69 0 0 0-.13-.22.64.64 0 0 0-.2-.15.59.59 0 0 0-.26-.06.69.69 0 0 0-.27.05.63.63 0 0 0-.21.14.73.73 0 0 0-.14.22.76.76 0 0 0-.06.27h1.32zM60.19 128h.54v.36l.14-.17a.76.76 0 0 1 .17-.13.82.82 0 0 1 .21-.09 1.05 1.05 0 0 1 .27 0 .94.94 0 0 1 .44.1.59.59 0 0 1 .29.32 1.15 1.15 0 0 1 .33-.31.9.9 0 0 1 .47-.12.93.93 0 0 1 .63.2.85.85 0 0 1 .23.67v1.78h-.56v-1.5-.28a.56.56 0 0 0-.06-.22.33.33 0 0 0-.14-.14.56.56 0 0 0-.26 0 .48.48 0 0 0-.42.18.86.86 0 0 0-.13.51v1.51h-.57v-1.65a.7.7 0 0 0-.1-.41.41.41 0 0 0-.36-.14.51.51 0 0 0-.21 0 .5.5 0 0 0-.18.13.64.64 0 0 0-.12.21.8.8 0 0 0 0 .28v1.53h-.61V128zM64.83 129.45a1 1 0 0 0 0 .29.71.71 0 0 0 .17.26.6.6 0 0 0 .21.17.69.69 0 0 0 .31.06.68.68 0 0 0 .4-.11.63.63 0 0 0 .23-.32h.54a1.07 1.07 0 0 1-.42.65 1.14 1.14 0 0 1-.35.17 1.39 1.39 0 0 1-.4.06 1.36 1.36 0 0 1-.54-.1 1.09 1.09 0 0 1-.39-.28 1.17 1.17 0 0 1-.24-.43 1.73 1.73 0 0 1-.08-.55 1.56 1.56 0 0 1 .09-.52 1.36 1.36 0 0 1 .25-.43 1.17 1.17 0 0 1 .91-.41 1.16 1.16 0 0 1 .54.13 1.19 1.19 0 0 1 .4.34 1.35 1.35 0 0 1 .23.48 1.47 1.47 0 0 1 0 .56h-1.86zm1.32-.37a.9.9 0 0 0-.06-.26.69.69 0 0 0-.13-.22.64.64 0 0 0-.2-.15.58.58 0 0 0-.26-.06.69.69 0 0 0-.27.05.61.61 0 0 0-.21.14.71.71 0 0 0-.14.22.76.76 0 0 0-.06.27h1.32zM67 128h.54v.38a.94.94 0 0 1 .34-.34.9.9 0 0 1 .46-.12 1 1 0 0 1 .67.22.83.83 0 0 1 .24.66v1.76h-.53V129a.69.69 0 0 0-.13-.44.47.47 0 0 0-.37-.14.62.62 0 0 0-.26.05.55.55 0 0 0-.19.14.67.67 0 0 0-.12.22.76.76 0 0 0 0 .26v1.52H67V128zM69.5 128h.43v-.77h.57v.77h.5v.42h-.51v1.37a1.38 1.38 0 0 0 0 .15.28.28 0 0 0 0 .11.17.17 0 0 0 .08.07.39.39 0 0 0 .15 0h.24v.44h-.32a1.25 1.25 0 0 1-.36 0 .48.48 0 0 1-.21-.12.42.42 0 0 1-.1-.21 1.5 1.5 0 0 1 0-.28v-1.52h-.47V128zM83.73 124.13h1.57a1.48 1.48 0 0 1 .62.11 1 1 0 0 1 .37.27.94.94 0 0 1 .18.36 1.54 1.54 0 0 1 0 .36 1.5 1.5 0 0 1 0 .36.91.91 0 0 1-.54.63 1.52 1.52 0 0 1-.62.11h-.96v1.36h-.62v-3.55zm.62 1.68h1.12a.6.6 0 0 0 .2-.1.5.5 0 0 0 .15-.18.62.62 0 0 0 .06-.28.74.74 0 0 0 0-.29.46.46 0 0 0-.13-.18.48.48 0 0 0-.19-.09h-1.21v1.17zM86.85 124.13h.57v3.55h-.57v-3.55zM90.17 127.68h-.56v-.36a.78.78 0 0 1-.31.31.85.85 0 0 1-.42.12.94.94 0 0 1-.73-.25 1.1 1.1 0 0 1-.23-.76v-1.63h.57v1.58a.69.69 0 0 0 .13.48.47.47 0 0 0 .36.14.72.72 0 0 0 .3-.05.52.52 0 0 0 .19-.15.56.56 0 0 0 .11-.22 1.14 1.14 0 0 0 0-.28v-1.49h.57v2.57zM93 127.54a1.09 1.09 0 0 1-.33.87 1.38 1.38 0 0 1-.94.29 2 2 0 0 1-.39 0 1.16 1.16 0 0 1-.36-.13.87.87 0 0 1-.27-.25.76.76 0 0 1-.13-.38h.57a.46.46 0 0 0 .08.19.45.45 0 0 0 .14.12.53.53 0 0 0 .18.05h.21a.66.66 0 0 0 .5-.17.69.69 0 0 0 .16-.49v-.39a.87.87 0 0 1-.33.33.88.88 0 0 1-.45.12 1.18 1.18 0 0 1-.52-.11 1 1 0 0 1-.36-.29 1.21 1.21 0 0 1-.21-.43 2 2 0 0 1-.06-.52 1.5 1.5 0 0 1 .08-.49 1.26 1.26 0 0 1 .23-.41 1.09 1.09 0 0 1 .86-.39 1 1 0 0 1 .45.1.69.69 0 0 1 .31.32v-.35H93v2.44zm-1.26-.31a.62.62 0 0 0 .32-.08.63.63 0 0 0 .21-.2.91.91 0 0 0 .12-.29 1.47 1.47 0 0 0 0-.33 1.28 1.28 0 0 0 0-.32.86.86 0 0 0-.12-.27.6.6 0 0 0-.21-.19.66.66 0 0 0-.32-.07.6.6 0 0 0-.32.08.66.66 0 0 0-.21.21.9.9 0 0 0-.11.29 1.5 1.5 0 0 0 0 .32 1.22 1.22 0 0 0 0 .31.86.86 0 0 0 .12.27.65.65 0 0 0 .21.19.59.59 0 0 0 .33.08zM93.48 124.13H94v.54h-.52v-.54zm0 1H94v2.57h-.52v-2.57zM94.54 125.11h.54v.38a.94.94 0 0 1 .34-.34.9.9 0 0 1 .46-.12 1 1 0 0 1 .67.22.83.83 0 0 1 .24.66v1.76h-.56v-1.62a.69.69 0 0 0-.13-.44.47.47 0 0 0-.37-.14.62.62 0 0 0-.26.05.55.55 0 0 0-.19.14.67.67 0 0 0-.12.22.76.76 0 0 0 0 .26v1.52h-.62v-2.57zM97.7 126.85a.43.43 0 0 0 .19.35.74.74 0 0 0 .39.1h.37a.37.37 0 0 0 .15-.1.25.25 0 0 0 .05-.18.25.25 0 0 0-.08-.18.55.55 0 0 0-.19-.11l-.27-.07-.3-.06-.31-.08a1 1 0 0 1-.26-.13.63.63 0 0 1-.19-.22.69.69 0 0 1-.07-.33.59.59 0 0 1 .1-.35.78.78 0 0 1 .26-.23 1.15 1.15 0 0 1 .35-.12 2 2 0 0 1 .37 0 1.67 1.67 0 0 1 .38 0 1 1 0 0 1 .33.14.8.8 0 0 1 .24.25.85.85 0 0 1 .12.37h-.59a.36.36 0 0 0-.19-.27.77.77 0 0 0-.34-.07h-.28a.33.33 0 0 0-.12.08.19.19 0 0 0 0 .14.22.22 0 0 0 .07.17.57.57 0 0 0 .12.05l.27.07.31.06.3.08a1 1 0 0 1 .27.13.66.66 0 0 1 .19.21.65.65 0 0 1 .07.32.69.69 0 0 1-.1.39.83.83 0 0 1-.27.26 1.22 1.22 0 0 1-.37.14 1.84 1.84 0 0 1-.4 0 1.73 1.73 0 0 1-.45-.05 1.05 1.05 0 0 1-.36-.17.82.82 0 0 1-.24-.28.89.89 0 0 1-.09-.4h.57z"/><rect class="egcore-8" x="6.07" y="108.78" width="101.3" height="9.75" rx="3.14" ry="3.14"/><path class="egcore-9" d="M30.7 112.92a1.26 1.26 0 0 0-.11-.28.79.79 0 0 0-.18-.22.81.81 0 0 0-.26-.15 1 1 0 0 0-.34-.05 1 1 0 0 0-.49.11 1 1 0 0 0-.34.31 1.37 1.37 0 0 0-.19.43 2 2 0 0 0 0 1 1.38 1.38 0 0 0 .19.43 1 1 0 0 0 .34.31 1 1 0 0 0 .49.11.87.87 0 0 0 .37-.07.82.82 0 0 0 .27-.2 1 1 0 0 0 .18-.3 1.44 1.44 0 0 0 .08-.36h.61a1.69 1.69 0 0 1-.14.58 1.43 1.43 0 0 1-.32.46 1.41 1.41 0 0 1-.47.3 1.62 1.62 0 0 1-.59.1 1.68 1.68 0 0 1-.71-.15 1.56 1.56 0 0 1-.53-.4 1.81 1.81 0 0 1-.34-.59 2.27 2.27 0 0 1 0-1.44 1.79 1.79 0 0 1 .34-.59 1.6 1.6 0 0 1 .53-.4 1.65 1.65 0 0 1 .71-.15 1.88 1.88 0 0 1 .56.08 1.45 1.45 0 0 1 .46.24 1.24 1.24 0 0 1 .33.38 1.33 1.33 0 0 1 .15.51h-.6zM32.21 114.2a1 1 0 0 0 0 .29.71.71 0 0 0 .13.24.61.61 0 0 0 .21.17.7.7 0 0 0 .31.06.68.68 0 0 0 .4-.11.63.63 0 0 0 .23-.32h.54a1.07 1.07 0 0 1-.15.37 1.09 1.09 0 0 1-.26.28 1.14 1.14 0 0 1-.35.17 1.39 1.39 0 0 1-.4.06 1.36 1.36 0 0 1-.54-.1A1.09 1.09 0 0 1 32 115a1.18 1.18 0 0 1-.24-.43 1.73 1.73 0 0 1-.08-.55 1.55 1.55 0 0 1 .09-.52 1.33 1.33 0 0 1 .25-.43 1.17 1.17 0 0 1 .91-.41 1.16 1.16 0 0 1 .54.13 1.2 1.2 0 0 1 .4.34 1.36 1.36 0 0 1 .23.48 1.47 1.47 0 0 1 0 .56h-1.89zm1.32-.37a.94.94 0 0 0-.06-.26.7.7 0 0 0-.13-.22.64.64 0 0 0-.2-.15.59.59 0 0 0-.26-.06.69.69 0 0 0-.27.05.63.63 0 0 0-.21.14.73.73 0 0 0-.14.22.76.76 0 0 0-.06.27h1.32zM34.48 112.77H35v.38a1 1 0 0 1 .34-.34.9.9 0 0 1 .46-.12 1 1 0 0 1 .67.22.84.84 0 0 1 .24.66v1.76h-.54v-1.62a.7.7 0 0 0-.13-.44.47.47 0 0 0-.37-.14.63.63 0 0 0-.26.05.57.57 0 0 0-.19.14.68.68 0 0 0-.12.22.77.77 0 0 0 0 .26v1.52h-.62v-2.57zM37 112.77h.43V112H38v.77h.51v.42H38v1.37a1.4 1.4 0 0 0 0 .15.26.26 0 0 0 0 .11.17.17 0 0 0 .08.07.39.39 0 0 0 .15 0h.24v.44h-.3a1.25 1.25 0 0 1-.36 0 .48.48 0 0 1-.21-.12.44.44 0 0 1-.1-.21 1.58 1.58 0 0 1 0-.28v-1.52H37v-.42zM38.89 112.77h.53v.5a.58.58 0 0 1 .1-.2 1 1 0 0 1 .17-.18.88.88 0 0 1 .23-.13.7.7 0 0 1 .25 0h.23v.55h-.25a.65.65 0 0 0-.27.06.63.63 0 0 0-.22.17.82.82 0 0 0-.15.28 1.19 1.19 0 0 0-.05.38v1.22h-.57v-2.57zM42.75 114.77a.3.3 0 0 0 0 .15.11.11 0 0 0 .11 0H43v.39H42.66a.55.55 0 0 1-.29-.07.35.35 0 0 1-.15-.24 1 1 0 0 1-.42.24 1.63 1.63 0 0 1-.48.07 1.17 1.17 0 0 1-.33 0 .86.86 0 0 1-.28-.14.66.66 0 0 1-.19-.23.72.72 0 0 1-.07-.33.76.76 0 0 1 .09-.39.65.65 0 0 1 .23-.23 1 1 0 0 1 .32-.12l.36-.06h.54a.37.37 0 0 0 .17-.09.25.25 0 0 0 .06-.19.29.29 0 0 0-.05-.18.36.36 0 0 0-.13-.11h-.36a.71.71 0 0 0-.39.1.39.39 0 0 0-.17.31h-.57a.85.85 0 0 1 .12-.41.83.83 0 0 1 .27-.26 1.08 1.08 0 0 1 .37-.14 2.18 2.18 0 0 1 .42 0 1.77 1.77 0 0 1 .37 0 1 1 0 0 1 .33.13.72.72 0 0 1 .24.23.64.64 0 0 1 .09.35v1.32zm-.57-.72a.69.69 0 0 1-.32.1l-.38.05h-.17l-.15.08a.33.33 0 0 0-.1.12.42.42 0 0 0 0 .19.24.24 0 0 0 .05.16.39.39 0 0 0 .13.1l.17.05h.37a.67.67 0 0 0 .21-.08.54.54 0 0 0 .16-.15.39.39 0 0 0 .06-.23v-.42zM43.32 111.79h.57v3.55h-.57v-3.55zM44.47 111.79H45v.54h-.53v-.54zm0 1H45v2.57h-.53v-2.57zM45.51 112.77h2.09v.4l-1.47 1.73h1.55v.45h-2.26v-.4l1.42-1.73h-1.33v-.45zM48.48 114.2a1 1 0 0 0 0 .29.71.71 0 0 0 .13.24.61.61 0 0 0 .21.17.7.7 0 0 0 .31.06.68.68 0 0 0 .4-.11.63.63 0 0 0 .23-.32h.54a1.07 1.07 0 0 1-.15.37 1.09 1.09 0 0 1-.26.28 1.14 1.14 0 0 1-.35.17 1.39 1.39 0 0 1-.4.06 1.36 1.36 0 0 1-.54-.1 1.09 1.09 0 0 1-.4-.28 1.18 1.18 0 0 1-.24-.43 1.73 1.73 0 0 1-.08-.55 1.55 1.55 0 0 1 .09-.52 1.33 1.33 0 0 1 .25-.43 1.17 1.17 0 0 1 .91-.41 1.16 1.16 0 0 1 .54.13 1.2 1.2 0 0 1 .4.34 1.36 1.36 0 0 1 .23.48 1.47 1.47 0 0 1 0 .56h-1.82zm1.32-.37a.94.94 0 0 0-.06-.26.7.7 0 0 0-.13-.22.64.64 0 0 0-.2-.15.59.59 0 0 0-.26-.06.69.69 0 0 0-.27.05.63.63 0 0 0-.21.14.73.73 0 0 0-.14.22.76.76 0 0 0-.06.27h1.32zM53.18 115.34h-.54V115a.68.68 0 0 1-.33.32 1.13 1.13 0 0 1-.46.1 1.23 1.23 0 0 1-.53-.11 1.05 1.05 0 0 1-.38-.29 1.25 1.25 0 0 1-.22-.44 1.88 1.88 0 0 1-.07-.54 1.72 1.72 0 0 1 .09-.6A1.21 1.21 0 0 1 51 113a1 1 0 0 1 .36-.24 1.15 1.15 0 0 1 .41-.08h.24a1.11 1.11 0 0 1 .24.07.94.94 0 0 1 .21.13.73.73 0 0 1 .16.18v-1.31h.57v3.55zm-2-1.26a1.25 1.25 0 0 0 0 .32.88.88 0 0 0 .13.28.63.63 0 0 0 .54.27.64.64 0 0 0 .33-.08.69.69 0 0 0 .22-.21 1 1 0 0 0 .13-.29 1.29 1.29 0 0 0 0-.33 1 1 0 0 0-.19-.67.63.63 0 0 0-.52-.24.64.64 0 0 0-.34.08.69.69 0 0 0-.22.21.88.88 0 0 0-.12.3 1.55 1.55 0 0 0 .06.36zM57.55 112.92a1.26 1.26 0 0 0-.11-.28.79.79 0 0 0-.18-.22.81.81 0 0 0-.26-.15 1 1 0 0 0-.34-.05 1 1 0 0 0-.49.11 1 1 0 0 0-.34.31 1.37 1.37 0 0 0-.19.43 2 2 0 0 0 0 1 1.38 1.38 0 0 0 .19.43 1 1 0 0 0 .34.31 1 1 0 0 0 .49.11.87.87 0 0 0 .37-.07.82.82 0 0 0 .27-.2 1 1 0 0 0 .18-.3 1.44 1.44 0 0 0 .08-.36h.61a1.69 1.69 0 0 1-.14.58 1.43 1.43 0 0 1-.32.46 1.41 1.41 0 0 1-.47.3 1.62 1.62 0 0 1-.59.1 1.68 1.68 0 0 1-.71-.15 1.56 1.56 0 0 1-.53-.4 1.81 1.81 0 0 1-.34-.59 2.27 2.27 0 0 1 0-1.44 1.79 1.79 0 0 1 .34-.59 1.6 1.6 0 0 1 .53-.4 1.65 1.65 0 0 1 .71-.15 1.88 1.88 0 0 1 .56.08 1.45 1.45 0 0 1 .46.24 1.24 1.24 0 0 1 .33.38 1.33 1.33 0 0 1 .15.51h-.6zM59.79 115.41a1.41 1.41 0 0 1-.55-.1 1.18 1.18 0 0 1-.41-.28 1.2 1.2 0 0 1-.25-.43 1.76 1.76 0 0 1 0-1.09 1.21 1.21 0 0 1 .25-.43 1.16 1.16 0 0 1 .41-.28 1.52 1.52 0 0 1 1.1 0 1.16 1.16 0 0 1 .41.28 1.21 1.21 0 0 1 .25.43 1.75 1.75 0 0 1 0 1.09 1.2 1.2 0 0 1-.25.43 1.19 1.19 0 0 1-.41.28 1.41 1.41 0 0 1-.55.1zm0-.45a.65.65 0 0 0 .33-.08.7.7 0 0 0 .23-.21.92.92 0 0 0 .13-.29 1.29 1.29 0 0 0 0-.66.89.89 0 0 0-.13-.29.71.71 0 0 0-.23-.21.72.72 0 0 0-.66 0 .71.71 0 0 0-.23.21.89.89 0 0 0-.13.29 1.31 1.31 0 0 0 0 .66.92.92 0 0 0 .13.29.7.7 0 0 0 .23.21.65.65 0 0 0 .33.12zM61.51 112.77h.54v.38a.94.94 0 0 1 .34-.34.9.9 0 0 1 .46-.12 1 1 0 0 1 .67.22.83.83 0 0 1 .24.66v1.76h-.55v-1.62a.69.69 0 0 0-.13-.44.47.47 0 0 0-.37-.14.62.62 0 0 0-.26.05.55.55 0 0 0-.19.14.67.67 0 0 0-.12.22.76.76 0 0 0 0 .26v1.52h-.63v-2.57zM64.06 112.77h.42v-.21a1.1 1.1 0 0 1 .06-.4.56.56 0 0 1 .16-.23.51.51 0 0 1 .23-.11h.27a1.67 1.67 0 0 1 .4 0v.44h-.27a.35.35 0 0 0-.2.05.24.24 0 0 0-.08.21v.26h.48v.42h-.48v2.15h-.56v-2.15h-.43v-.42zM65.85 111.79h.57v.54h-.57v-.54zm0 1h.57v2.57h-.57v-2.57zM69.36 115.21a1.09 1.09 0 0 1-.33.87 1.38 1.38 0 0 1-.94.29 2 2 0 0 1-.39 0 1.16 1.16 0 0 1-.36-.13.87.87 0 0 1-.27-.25.76.76 0 0 1-.13-.38h.57a.46.46 0 0 0 .08.19.45.45 0 0 0 .14.12.53.53 0 0 0 .18.05h.21a.66.66 0 0 0 .5-.17.69.69 0 0 0 .16-.49v-.39a.87.87 0 0 1-.33.33.88.88 0 0 1-.45.12 1.18 1.18 0 0 1-.52-.11 1 1 0 0 1-.36-.29 1.21 1.21 0 0 1-.21-.43 2 2 0 0 1-.06-.52 1.5 1.5 0 0 1 .08-.49 1.26 1.26 0 0 1 .23-.41 1.09 1.09 0 0 1 .84-.42 1 1 0 0 1 .45.1.69.69 0 0 1 .31.32v-.35h.57v2.44zm-1.26-.31a.62.62 0 0 0 .32-.08.63.63 0 0 0 .21-.2.91.91 0 0 0 .12-.29 1.47 1.47 0 0 0 0-.33 1.28 1.28 0 0 0 0-.32.86.86 0 0 0-.12-.27.6.6 0 0 0-.21-.19.66.66 0 0 0-.32-.07.6.6 0 0 0-.32.08.66.66 0 0 0-.21.21.9.9 0 0 0-.11.29 1.5 1.5 0 0 0 0 .32 1.22 1.22 0 0 0 0 .31.86.86 0 0 0 .12.27.65.65 0 0 0 .21.19.59.59 0 0 0 .31.08zM72.14 115.34h-.56V115a.78.78 0 0 1-.31.31.85.85 0 0 1-.42.12.94.94 0 0 1-.73-.25 1.1 1.1 0 0 1-.23-.76v-1.63h.57v1.58a.69.69 0 0 0 .13.48.47.47 0 0 0 .36.14.72.72 0 0 0 .3-.05.52.52 0 0 0 .19-.15.56.56 0 0 0 .11-.22 1.14 1.14 0 0 0 0-.28v-1.49h.57v2.57zM72.69 112.77h.53v.5a.57.57 0 0 1 .1-.2.92.92 0 0 1 .17-.18.87.87 0 0 1 .23-.13.69.69 0 0 1 .25 0h.21v.55H73.95a.65.65 0 0 0-.27.06.62.62 0 0 0-.22.17.81.81 0 0 0-.15.28 1.2 1.2 0 0 0-.05.38v1.22h-.57v-2.57zM76.54 114.77a.3.3 0 0 0 0 .15.12.12 0 0 0 .11 0h.14v.39H76.45a.55.55 0 0 1-.29-.07.35.35 0 0 1-.16-.14 1 1 0 0 1-.42.24 1.63 1.63 0 0 1-.47.07 1.17 1.17 0 0 1-.33 0 .86.86 0 0 1-.28-.14.66.66 0 0 1-.19-.23.72.72 0 0 1-.07-.33.77.77 0 0 1 .09-.39.65.65 0 0 1 .23-.23 1 1 0 0 1 .32-.12l.36-.06h.54a.38.38 0 0 0 .17-.09.25.25 0 0 0 .05-.32.29.29 0 0 0-.05-.18.35.35 0 0 0-.13-.11h-.34a.71.71 0 0 0-.39.1.39.39 0 0 0-.17.31h-.58a.85.85 0 0 1 .12-.41.83.83 0 0 1 .27-.26 1.09 1.09 0 0 1 .37-.14 2.2 2.2 0 0 1 .42 0 1.77 1.77 0 0 1 .37 0 1 1 0 0 1 .33.13.72.72 0 0 1 .24.23.64.64 0 0 1 .09.35v1.32zm-.54-.72a.69.69 0 0 1-.32.1l-.38.05h-.17l-.15.08a.33.33 0 0 0-.1.12.42.42 0 0 0 0 .19.24.24 0 0 0 .05.16.4.4 0 0 0 .13.1l.17.05h.37a.68.68 0 0 0 .21-.08.54.54 0 0 0 .16-.15.38.38 0 0 0 .07-.23v-.42zM76.84 112.77h.43V112h.57v.77h.51v.42h-.51v1.37a1.38 1.38 0 0 0 0 .15.28.28 0 0 0 0 .11.17.17 0 0 0 .08.07.39.39 0 0 0 .15 0h.24v.44H78a1.25 1.25 0 0 1-.36 0 .48.48 0 0 1-.21-.12.42.42 0 0 1-.1-.21 1.5 1.5 0 0 1 0-.28v-1.52h-.49v-.42zM78.72 111.79h.57v.54h-.57v-.54zm0 1h.57v2.57h-.57v-2.57zM81 115.41a1.41 1.41 0 0 1-.55-.1 1.18 1.18 0 0 1-.41-.28 1.2 1.2 0 0 1-.25-.43 1.75 1.75 0 0 1 0-1.09 1.21 1.21 0 0 1 .25-.43 1.16 1.16 0 0 1 .41-.28 1.52 1.52 0 0 1 1.1 0 1.16 1.16 0 0 1 .41.28 1.21 1.21 0 0 1 .25.43 1.75 1.75 0 0 1 0 1.09 1.2 1.2 0 0 1-.21.4 1.19 1.19 0 0 1-.41.28 1.41 1.41 0 0 1-.59.13zm0-.45a.65.65 0 0 0 .33-.08.7.7 0 0 0 .23-.21.92.92 0 0 0 .13-.29 1.29 1.29 0 0 0 0-.66.89.89 0 0 0-.13-.29.71.71 0 0 0-.23-.21.72.72 0 0 0-.66 0 .71.71 0 0 0-.23.21.89.89 0 0 0-.13.29 1.31 1.31 0 0 0 0 .66.92.92 0 0 0 .13.29.7.7 0 0 0 .23.21.65.65 0 0 0 .33.12zM82.75 112.77h.54v.38a.94.94 0 0 1 .34-.34.9.9 0 0 1 .46-.12 1 1 0 0 1 .67.22.83.83 0 0 1 .24.66v1.76h-.56v-1.62a.69.69 0 0 0-.13-.44.47.47 0 0 0-.37-.14.62.62 0 0 0-.26.05.55.55 0 0 0-.19.14.67.67 0 0 0-.12.22.76.76 0 0 0 0 .26v1.52h-.62v-2.57z"/><path class="egcore-8" d="M23.91 136.43h4.52v1H25V139h3.17v.9H25v1.84h3.5v1h-4.59v-6.28zM30.45 140.32l-1.57-2.16h1.21l1 1.4 1-1.4h1.16l-1.55 2.1 1.74 2.45h-1.26L31 141l-1.12 1.68h-1.15zM33.89 138.17h1v.62a1.23 1.23 0 0 1 .59-.57 1.94 1.94 0 0 1 .82-.17 2.16 2.16 0 0 1 .94.19 1.85 1.85 0 0 1 .66.52 2.26 2.26 0 0 1 .4.77 3.27 3.27 0 0 1 .13.94 3.33 3.33 0 0 1-.12.89 2.31 2.31 0 0 1-.36.76 1.76 1.76 0 0 1-1.48.73 2.48 2.48 0 0 1-.44 0 1.89 1.89 0 0 1-.42-.13 1.68 1.68 0 0 1-.37-.22 1.23 1.23 0 0 1-.29-.32v2.27h-1v-6.23zm3.5 2.28a2.27 2.27 0 0 0-.08-.6 1.64 1.64 0 0 0-.24-.51 1.23 1.23 0 0 0-.4-.36 1.08 1.08 0 0 0-.55-.14 1.11 1.11 0 0 0-1 .44 1.94 1.94 0 0 0-.32 1.17 2.33 2.33 0 0 0 .08.64 1.44 1.44 0 0 0 .25.51 1.25 1.25 0 0 0 .4.33 1.14 1.14 0 0 0 .54.12 1.12 1.12 0 0 0 .58-.14 1.22 1.22 0 0 0 .39-.37 1.48 1.48 0 0 0 .22-.51 2.6 2.6 0 0 0 .13-.59zM39.15 138.17h.94v.83a1 1 0 0 1 .17-.36 1.67 1.67 0 0 1 .31-.32 1.57 1.57 0 0 1 .4-.23 1.2 1.2 0 0 1 .45-.09h.38v1H41.38a1.15 1.15 0 0 0-.48.1 1.09 1.09 0 0 0-.39.3 1.46 1.46 0 0 0-.26.49 2.12 2.12 0 0 0-.1.67v2.16h-1v-4.55zM42.78 140.7a1.75 1.75 0 0 0 .07.51 1.25 1.25 0 0 0 .22.43 1.08 1.08 0 0 0 .38.29 1.25 1.25 0 0 0 .55.07 1.21 1.21 0 0 0 .71-.19 1.12 1.12 0 0 0 .4-.57h1a1.88 1.88 0 0 1-.74 1.15 2 2 0 0 1-.61.3 2.5 2.5 0 0 1-.71.1 2.41 2.41 0 0 1-.95-.18 2 2 0 0 1-.7-.49 2.09 2.09 0 0 1-.43-.76 3.08 3.08 0 0 1-.15-1 2.74 2.74 0 0 1 .15-.92 2.34 2.34 0 0 1 .44-.77A2.06 2.06 0 0 1 44 138a2 2 0 0 1 1 .22 2.1 2.1 0 0 1 .71.59 2.4 2.4 0 0 1 .41.85 2.6 2.6 0 0 1 .07 1h-3.41zm2.34-.66a1.61 1.61 0 0 0-.1-.46 1.23 1.23 0 0 0-.23-.38 1.13 1.13 0 0 0-.35-.26 1 1 0 0 0-.46-.1 1.2 1.2 0 0 0-.48.09 1.09 1.09 0 0 0-.37.25 1.28 1.28 0 0 0-.25.38 1.33 1.33 0 0 0-.1.48h2.34zM47.56 141.25a.76.76 0 0 0 .33.62 1.32 1.32 0 0 0 .69.18h.32a1.4 1.4 0 0 0 .34-.08.64.64 0 0 0 .26-.18.43.43 0 0 0 .09-.31.44.44 0 0 0-.14-.32 1 1 0 0 0-.34-.2 3.27 3.27 0 0 0-.47-.13l-.54-.11a5 5 0 0 1-.54-.15 1.75 1.75 0 0 1-.47-.24 1.1 1.1 0 0 1-.33-.38 1.22 1.22 0 0 1-.12-.58 1 1 0 0 1 .18-.62 1.38 1.38 0 0 1 .46-.4 2 2 0 0 1 .62-.22 3.62 3.62 0 0 1 .65-.06 3 3 0 0 1 .67.07 1.85 1.85 0 0 1 .58.24 1.42 1.42 0 0 1 .43.44 1.51 1.51 0 0 1 .22.65h-1a.63.63 0 0 0-.33-.48 1.37 1.37 0 0 0-.59-.12h-.25a1.16 1.16 0 0 0-.27.07.57.57 0 0 0-.22.14.34.34 0 0 0-.09.24.38.38 0 0 0 .13.3 1 1 0 0 0 .33.19 3.42 3.42 0 0 0 .47.13l.5.06.54.15a1.73 1.73 0 0 1 .47.24 1.09 1.09 0 0 1 .46.94 1.22 1.22 0 0 1-.19.69 1.45 1.45 0 0 1-.48.46 2.18 2.18 0 0 1-.66.25 3.32 3.32 0 0 1-.71.08 3.1 3.1 0 0 1-.8-.1 1.85 1.85 0 0 1-.63-.29 1.42 1.42 0 0 1-.42-.49 1.57 1.57 0 0 1-.16-.7h1zM52 141.25a.76.76 0 0 0 .33.62 1.32 1.32 0 0 0 .69.18h.32a1.4 1.4 0 0 0 .34-.08.64.64 0 0 0 .26-.18.43.43 0 0 0 .09-.31.44.44 0 0 0-.14-.32 1 1 0 0 0-.34-.2 3.27 3.27 0 0 0-.47-.13l-.54-.11a5 5 0 0 1-.54-.15 1.75 1.75 0 0 1-.47-.24 1.1 1.1 0 0 1-.33-.38 1.22 1.22 0 0 1-.12-.58 1 1 0 0 1 .18-.62 1.38 1.38 0 0 1 .46-.4 2 2 0 0 1 .62-.22A3.62 3.62 0 0 1 53 138a3 3 0 0 1 .67.07 1.85 1.85 0 0 1 .58.24 1.42 1.42 0 0 1 .43.44 1.51 1.51 0 0 1 .22.65h-1a.63.63 0 0 0-.33-.48 1.37 1.37 0 0 0-.59-.12h-.25a1.16 1.16 0 0 0-.27.07.57.57 0 0 0-.22.14.34.34 0 0 0-.09.24.38.38 0 0 0 .13.3 1 1 0 0 0 .33.19 3.42 3.42 0 0 0 .47.13l.53.13.54.15a1.73 1.73 0 0 1 .47.24 1.09 1.09 0 0 1 .46.94 1.22 1.22 0 0 1-.19.69 1.45 1.45 0 0 1-.48.46 2.18 2.18 0 0 1-.66.25 3.32 3.32 0 0 1-.71.08 3.1 3.1 0 0 1-.8-.1 1.85 1.85 0 0 1-.63-.29 1.42 1.42 0 0 1-.41-.42 1.57 1.57 0 0 1-.16-.7h1zM63.74 142.71H63l-.14-.71a2.6 2.6 0 0 1-.88.7 2.49 2.49 0 0 1-1 .19 3 3 0 0 1-1.26-.26 2.77 2.77 0 0 1-.95-.71 3.16 3.16 0 0 1-.59-1 4 4 0 0 1 0-2.54 3.17 3.17 0 0 1 .59-1 2.84 2.84 0 0 1 .95-.71 2.91 2.91 0 0 1 1.26-.26 3.4 3.4 0 0 1 1 .14 2.62 2.62 0 0 1 .82.4 2.25 2.25 0 0 1 .6.67 2.37 2.37 0 0 1 .3.93h-1.11a1.34 1.34 0 0 0-.59-1.05 1.6 1.6 0 0 0-.49-.24 2.06 2.06 0 0 0-.57-.08 1.77 1.77 0 0 0-.87.2 1.69 1.69 0 0 0-.59.54 2.42 2.42 0 0 0-.34.77 3.53 3.53 0 0 0 0 1.76 2.42 2.42 0 0 0 .34.77 1.69 1.69 0 0 0 .59.54 1.77 1.77 0 0 0 .87.2 2.06 2.06 0 0 0 .75-.11 1.46 1.46 0 0 0 .55-.34 1.42 1.42 0 0 0 .34-.55 2.32 2.32 0 0 0 .13-.72h-1.65v-.84h2.67v3.31zM68.51 141.7a.53.53 0 0 0 0 .26.2.2 0 0 0 .19.08h.11L69 142v.7h-.64a1 1 0 0 1-.51-.12.61.61 0 0 1-.26-.43 1.77 1.77 0 0 1-.73.42 2.89 2.89 0 0 1-.84.13 2.06 2.06 0 0 1-.59-.08 1.53 1.53 0 0 1-.5-.25 1.18 1.18 0 0 1-.34-.41 1.27 1.27 0 0 1-.13-.58 1.35 1.35 0 0 1 .15-.69 1.14 1.14 0 0 1 .4-.41 1.83 1.83 0 0 1 .56-.22q.31-.07.63-.1l.52-.08a2.44 2.44 0 0 0 .44-.07.67.67 0 0 0 .3-.16.45.45 0 0 0 .11-.33.51.51 0 0 0-.09-.32.62.62 0 0 0-.23-.19 1 1 0 0 0-.3-.09h-.32a1.26 1.26 0 0 0-.69.18.68.68 0 0 0-.31.54h-1a1.5 1.5 0 0 1 .21-.73 1.44 1.44 0 0 1 .47-.47 1.92 1.92 0 0 1 .65-.25 3.85 3.85 0 0 1 .74-.07 3.12 3.12 0 0 1 .66.07 1.88 1.88 0 0 1 .58.23 1.27 1.27 0 0 1 .42.41 1.12 1.12 0 0 1 .16.61v2.34zm-1-1.27a1.22 1.22 0 0 1-.56.18q-.33 0-.67.09l-.31.08a.92.92 0 0 0-.26.13.58.58 0 0 0-.18.22.75.75 0 0 0-.07.33.42.42 0 0 0 .1.28.71.71 0 0 0 .23.18 1.08 1.08 0 0 0 .3.09h.29a1.63 1.63 0 0 0 .36 0 1.2 1.2 0 0 0 .37-.15 1 1 0 0 0 .29-.27.68.68 0 0 0 .11-.4v-.75zM69 138.17h.76v-1.37h1v1.36h.91v.75h-.86v2.43a2.43 2.43 0 0 0 0 .27.47.47 0 0 0 .06.19.3.3 0 0 0 .15.12.71.71 0 0 0 .26 0h.43v.77h-.66a2.22 2.22 0 0 1-.64-.08.85.85 0 0 1-.38-.22.76.76 0 0 1-.18-.37 2.75 2.75 0 0 1-.06-.5v-2.68H69v-.75zM73.13 140.7a1.75 1.75 0 0 0 .08.51 1.26 1.26 0 0 0 .22.43 1.09 1.09 0 0 0 .38.29 1.25 1.25 0 0 0 .54.11 1.21 1.21 0 0 0 .71-.19 1.12 1.12 0 0 0 .4-.57h1a1.88 1.88 0 0 1-.74 1.15 2 2 0 0 1-.61.3 2.5 2.5 0 0 1-.71.1 2.41 2.41 0 0 1-1-.18 2 2 0 0 1-.7-.49 2.1 2.1 0 0 1-.43-.76 3.08 3.08 0 0 1-.15-1 2.74 2.74 0 0 1 .15-.92 2.35 2.35 0 0 1 .44-.77 2.06 2.06 0 0 1 1.61-.72 2 2 0 0 1 1 .22 2.11 2.11 0 0 1 .71.59 2.42 2.42 0 0 1 .41.85 2.6 2.6 0 0 1 .07 1h-3.38zm2.34-.66a1.61 1.61 0 0 0-.1-.46 1.22 1.22 0 0 0-.23-.38 1.13 1.13 0 0 0-.35-.26 1 1 0 0 0-.46-.1 1.21 1.21 0 0 0-.48.09 1.1 1.1 0 0 0-.37.25 1.28 1.28 0 0 0-.25.38 1.34 1.34 0 0 0-.1.48h2.34zM76.74 138.17h1.06l.89 3.4.85-3.4h1l.82 3.4.92-3.4h1l-1.42 4.55h-1l-.84-3.38-.84 3.38h-1.04zM87.72 141.7a.53.53 0 0 0 0 .26.2.2 0 0 0 .28.04h.25v.7h-.68a1 1 0 0 1-.51-.12.61.61 0 0 1-.26-.43 1.77 1.77 0 0 1-.73.42 2.89 2.89 0 0 1-.84.13 2.06 2.06 0 0 1-.59-.08 1.53 1.53 0 0 1-.5-.25 1.18 1.18 0 0 1-.34-.41 1.27 1.27 0 0 1-.13-.58 1.35 1.35 0 0 1 .15-.69 1.14 1.14 0 0 1 .4-.41 1.83 1.83 0 0 1 .56-.22q.31-.07.63-.1l.52-.08a2.44 2.44 0 0 0 .44-.07.67.67 0 0 0 .3-.16.45.45 0 0 0 .11-.33.51.51 0 0 0-.09-.32.62.62 0 0 0-.23-.19 1 1 0 0 0-.3-.09h-.32a1.26 1.26 0 0 0-.69.18.68.68 0 0 0-.31.54h-1a1.5 1.5 0 0 1 .21-.73 1.44 1.44 0 0 1 .47-.47 1.92 1.92 0 0 1 .65-.25 3.85 3.85 0 0 1 .74-.07 3.12 3.12 0 0 1 .66.07 1.88 1.88 0 0 1 .58.23 1.27 1.27 0 0 1 .42.41 1.12 1.12 0 0 1 .16.61v2.34zm-1-1.27a1.22 1.22 0 0 1-.56.18q-.33 0-.67.09l-.31.08a.92.92 0 0 0-.26.13.58.58 0 0 0-.18.22.75.75 0 0 0-.07.33.42.42 0 0 0 .1.28.71.71 0 0 0 .23.18 1.08 1.08 0 0 0 .3.09h.29a1.63 1.63 0 0 0 .36 0 1.2 1.2 0 0 0 .37-.15 1 1 0 0 0 .29-.27.68.68 0 0 0 .11-.4v-.75zM88.21 138.17h1.1l1.19 3.4 1.15-3.4h1L90.94 143l-.24.59a2.1 2.1 0 0 1-.29.5 1.25 1.25 0 0 1-.43.34 1.46 1.46 0 0 1-.65.13 4.58 4.58 0 0 1-.7-.05v-.84h.48a.82.82 0 0 0 .29 0 .48.48 0 0 0 .19-.13.79.79 0 0 0 .13-.2 2 2 0 0 0 .1-.26l.12-.35z"/><path class="egcore-5" d="M10.21 94.43h4.54v.8h-4.54z"/><path class="egcore-7" d="M11 97.19h2.95v.62H11.7v1.07h2.06v.58H11.7v1.2H14v.62h-3v-4.1zM15.16 99.73l-1-1.41h.79l.62.91.65-.91H17l-1 1.37 1.14 1.59h-.85l-.75-1.1-.73 1.1H14zM17.32 98.33h.62v.4a.81.81 0 0 1 .38-.37 1.28 1.28 0 0 1 .53-.11 1.42 1.42 0 0 1 .61.12 1.21 1.21 0 0 1 .43.34 1.48 1.48 0 0 1 .26.5 2.22 2.22 0 0 1 0 1.19 1.52 1.52 0 0 1-.23.5 1.15 1.15 0 0 1-1 .47h-.29a1.26 1.26 0 0 1-.28-.08 1.07 1.07 0 0 1-.24-.15.81.81 0 0 1-.19-.21v1.48h-.6v-4.08zm2.28 1.49a1.48 1.48 0 0 0-.05-.39 1.07 1.07 0 0 0-.16-.34.8.8 0 0 0-.26-.24.71.71 0 0 0-.36-.09.72.72 0 0 0-.62.29 1.26 1.26 0 0 0-.21.76 1.53 1.53 0 0 0 .05.42.93.93 0 0 0 .16.33.82.82 0 0 0 .26.22.82.82 0 0 0 .73 0 .81.81 0 0 0 .26-.24 1 1 0 0 0 .14-.33 1.68 1.68 0 0 0 .06-.4zM20.66 98.33h.61v.57a.66.66 0 0 1 .11-.24 1.09 1.09 0 0 1 .2-.21 1 1 0 0 1 .26-.15.78.78 0 0 1 .29-.06h.27v.63h-.28a.75.75 0 0 0-.31.07.72.72 0 0 0-.26.19 1 1 0 0 0-.17.32 1.37 1.37 0 0 0-.06.44v1.41h-.66v-3zM22.95 100a1.13 1.13 0 0 0 0 .33.81.81 0 0 0 .15.28.7.7 0 0 0 .25.19.81.81 0 0 0 .36.07.79.79 0 0 0 .46-.12.73.73 0 0 0 .26-.37h.62a1.23 1.23 0 0 1-.48.75 1.32 1.32 0 0 1-.4.2 1.61 1.61 0 0 1-.46.07 1.58 1.58 0 0 1-.62-.11 1.29 1.29 0 0 1-.46-.32 1.36 1.36 0 0 1-.28-.49 2 2 0 0 1-.09-.63 1.79 1.79 0 0 1 .1-.6 1.55 1.55 0 0 1 .29-.5 1.35 1.35 0 0 1 1-.47 1.33 1.33 0 0 1 .63.15 1.38 1.38 0 0 1 .46.39 1.55 1.55 0 0 1 .27.55 1.69 1.69 0 0 1 0 .65h-2.06zm1.53-.43a1.06 1.06 0 0 0-.07-.3.8.8 0 0 0-.15-.27.74.74 0 0 0-.26-.17.68.68 0 0 0-.3-.07.79.79 0 0 0-.31.06.72.72 0 0 0-.24.17.83.83 0 0 0-.16.25.87.87 0 0 0-.07.31h1.53zM26 100.34a.49.49 0 0 0 .22.4.86.86 0 0 0 .45.12h.21l.22-.05a.42.42 0 0 0 .17-.12.32.32 0 0 0 0-.41.64.64 0 0 0-.22-.13l-.36-.15h-.35l-.34-.13a1.12 1.12 0 0 1-.3-.16.7.7 0 0 1-.21-.25.8.8 0 0 1-.08-.38.67.67 0 0 1 .12-.4.89.89 0 0 1 .3-.26 1.28 1.28 0 0 1 .4-.14 2.31 2.31 0 0 1 .42 0 2 2 0 0 1 .44 0 1.22 1.22 0 0 1 .38.16.92.92 0 0 1 .28.28 1 1 0 0 1 .14.42h-.71a.41.41 0 0 0-.18-.3.89.89 0 0 0-.39-.08h-.38a.38.38 0 0 0-.14.09.22.22 0 0 0-.06.16.25.25 0 0 0 .08.19.67.67 0 0 0 .22.12l.31.08.36.14.35.1a1.11 1.11 0 0 1 .31.16.71.71 0 0 1 .3.61.8.8 0 0 1-.12.45 1 1 0 0 1-.31.3 1.43 1.43 0 0 1-.43.17 2.11 2.11 0 0 1-.46.05 2 2 0 0 1-.52-.06 1.21 1.21 0 0 1-.41-.19.93.93 0 0 1-.28-.32 1 1 0 0 1-.11-.46H26zM28.81 100.34a.49.49 0 0 0 .22.4.86.86 0 0 0 .45.12h.21l.22-.05a.42.42 0 0 0 .17-.12.32.32 0 0 0 0-.41.64.64 0 0 0-.22-.13l-.34-.15h-.35l-.35-.1a1.12 1.12 0 0 1-.3-.16.7.7 0 0 1-.21-.25.8.8 0 0 1-.08-.38.67.67 0 0 1 .12-.4.89.89 0 0 1 .3-.26 1.28 1.28 0 0 1 .4-.14 2.31 2.31 0 0 1 .42 0 2 2 0 0 1 .44 0 1.22 1.22 0 0 1 .38.16.92.92 0 0 1 .28.28 1 1 0 0 1 .14.42H30a.41.41 0 0 0-.22-.32.89.89 0 0 0-.39-.08h-.32a.38.38 0 0 0-.14.09.22.22 0 0 0-.06.16.25.25 0 0 0 .08.19.67.67 0 0 0 .22.12l.31.08.36.07.35.1a1.11 1.11 0 0 1 .31.16.71.71 0 0 1 .3.61.8.8 0 0 1-.12.45 1 1 0 0 1-.31.3 1.43 1.43 0 0 1-.43.17 2.11 2.11 0 0 1-.46.05 2 2 0 0 1-.52-.06 1.21 1.21 0 0 1-.41-.19.93.93 0 0 1-.28-.32 1 1 0 0 1-.11-.46h.65zM32.69 97.19h2a1.52 1.52 0 0 1 1 .29 1 1 0 0 1 .34.81 1.19 1.19 0 0 1-.09.49 1.06 1.06 0 0 1-.2.31.79.79 0 0 1-.23.17l-.16.07.2.06a.6.6 0 0 1 .2.15.81.81 0 0 1 .15.26 1.16 1.16 0 0 1 .06.4 3.6 3.6 0 0 0 .05.66.86.86 0 0 0 .17.42h-.79a.67.67 0 0 1-.09-.29v-.31a2.94 2.94 0 0 0 0-.48.85.85 0 0 0-.13-.34.54.54 0 0 0-.25-.2 1.11 1.11 0 0 0-.4-.06h-1.11v1.69h-.72v-4.1zm.72 1.87h1.18a.74.74 0 0 0 .52-.16.63.63 0 0 0 .18-.49.76.76 0 0 0-.06-.32.46.46 0 0 0-.16-.19.59.59 0 0 0-.23-.09h-1.43v1.28zM39.1 101.29h-.64v-.41a.9.9 0 0 1-.36.36 1 1 0 0 1-.48.13 1.09 1.09 0 0 1-.85-.29 1.27 1.27 0 0 1-.26-.87v-1.88h.65v1.82a.8.8 0 0 0 .15.55.54.54 0 0 0 .42.16.83.83 0 0 0 .34-.06.61.61 0 0 0 .22-.17.66.66 0 0 0 .12-.26 1.32 1.32 0 0 0 0-.32v-1.72h.69v3zM39.65 98.33h.62v.44a1.1 1.1 0 0 1 .39-.39 1 1 0 0 1 .53-.14 1.11 1.11 0 0 1 .77.25 1 1 0 0 1 .28.76v2h-.64v-1.82a.81.81 0 0 0-.15-.51.54.54 0 0 0-.45-.16.71.71 0 0 0-.3.06.65.65 0 0 0-.22.17.79.79 0 0 0-.14.25.9.9 0 0 0-.05.3v1.75h-.64v-3zM42.5 98.33h.5v-.89h.65v.89h.59v.49h-.6v1.58a1.68 1.68 0 0 0 0 .18.31.31 0 0 0 0 .13.19.19 0 0 0 .09.08.46.46 0 0 0 .17 0h.34v.5h-.43a1.42 1.42 0 0 1-.42 0 .55.55 0 0 1-.25-.14.49.49 0 0 1-.12-.24 1.81 1.81 0 0 1 0-.33v-1.77h-.52v-.48zM44.58 97.19h.65v.62h-.65v-.62zm0 1.13h.65v3h-.65v-3zM45.8 98.33h.62v.41a1.7 1.7 0 0 1 .16-.2.9.9 0 0 1 .19-.15.92.92 0 0 1 .24-.1 1.19 1.19 0 0 1 .32 0 1.08 1.08 0 0 1 .5.12.68.68 0 0 1 .33.37 1.31 1.31 0 0 1 .38-.36 1 1 0 0 1 .54-.13 1.07 1.07 0 0 1 .73.23 1 1 0 0 1 .26.77v2h-.62v-1.73-.32a.67.67 0 0 0-.08-.24.38.38 0 0 0-.16-.16.65.65 0 0 0-.3-.06.55.55 0 0 0-.48.21 1 1 0 0 0-.15.58v1.74h-.65v-1.9a.81.81 0 0 0-.11-.47.47.47 0 0 0-.41-.16.6.6 0 0 0-.24.05.6.6 0 0 0-.21.15.74.74 0 0 0-.14.24.91.91 0 0 0-.05.33v1.76h-.67v-3zM51.16 100a1.13 1.13 0 0 0 0 .33.81.81 0 0 0 .15.28.7.7 0 0 0 .25.19.81.81 0 0 0 .36.07.79.79 0 0 0 .46-.12.73.73 0 0 0 .26-.37h.66a1.23 1.23 0 0 1-.48.75 1.32 1.32 0 0 1-.4.2 1.61 1.61 0 0 1-.46.07 1.58 1.58 0 0 1-.62-.11 1.29 1.29 0 0 1-.46-.32 1.36 1.36 0 0 1-.28-.49 2 2 0 0 1-.09-.63 1.79 1.79 0 0 1 .1-.6 1.55 1.55 0 0 1 .29-.5 1.35 1.35 0 0 1 1-.47 1.33 1.33 0 0 1 .63.15 1.38 1.38 0 0 1 .46.39 1.55 1.55 0 0 1 .27.55 1.69 1.69 0 0 1 0 .65h-2.1zm1.53-.43a1.06 1.06 0 0 0-.07-.3.8.8 0 0 0-.15-.27.74.74 0 0 0-.23-.17.68.68 0 0 0-.3-.07.79.79 0 0 0-.31.06.72.72 0 0 0-.24.17.83.83 0 0 0-.16.25.87.87 0 0 0-.07.31h1.53z"/><rect class="egcore-10" x="19.27" y="32.63" width="72.24" height="34.15" rx="2.9" ry="2.9" transform="rotate(90 55.39 49.71)"/><rect class="egcore-11" x="48.84" y="14.33" width="13.1" height="29.9" rx="2.9" ry="2.9" transform="rotate(90 55.39 29.28)"/><rect class="egcore-11" x="37.97" y="40.46" width="34.83" height="30.24" rx="2.9" ry="2.9" transform="rotate(90 55.385 55.585)"/><rect class="egcore-11" x="51.53" y="64.42" width="7.72" height="30.26" rx="2.9" ry="2.9" transform="rotate(90 55.39 79.55)"/><path class="egcore-7" d="M49.56 16.36H51a1.37 1.37 0 0 1 .57.1.89.89 0 0 1 .34.25.86.86 0 0 1 .16.33 1.42 1.42 0 0 1 0 .33 1.39 1.39 0 0 1 0 .33.86.86 0 0 1-.16.33.87.87 0 0 1-.34.25 1.4 1.4 0 0 1-.57.1h-.87v1.26h-.57v-3.28zm.57 1.55h1.07a.56.56 0 0 0 .19-.09.45.45 0 0 0 .14-.17.57.57 0 0 0 .05-.26.67.67 0 0 0 0-.27.42.42 0 0 0-.12-.17.44.44 0 0 0-.18-.08H50.13v1.08zM53.52 19.7a1.3 1.3 0 0 1-.52-.09 1.08 1.08 0 0 1-.38-.26 1.1 1.1 0 0 1-.22-.35 1.61 1.61 0 0 1 0-1 1.1 1.1 0 0 1 .23-.39 1.08 1.08 0 0 1 .37-.31 1.41 1.41 0 0 1 1 0 1.08 1.08 0 0 1 .38.26 1.1 1.1 0 0 1 .23.39 1.61 1.61 0 0 1 0 1 1.1 1.1 0 0 1-.23.4 1.08 1.08 0 0 1-.38.26 1.3 1.3 0 0 1-.48.09zm0-.41a.6.6 0 0 0 .3-.07A.63.63 0 0 0 54 19a.83.83 0 0 0 .12-.27 1.2 1.2 0 0 0 0-.61.81.81 0 0 0-.12-.24.65.65 0 0 0-.21-.19.66.66 0 0 0-.61 0 .66.66 0 0 0-.21.19.81.81 0 0 0-.12.27 1.2 1.2 0 0 0 0 .61.83.83 0 0 0 .15.24.64.64 0 0 0 .21.19.6.6 0 0 0 .31.1zM55.05 16.36h.52v3.28h-.52v-3.28zM56 16.36h.52v.5H56v-.5zm0 .9h.52v2.37H56v-2.36zM58.62 18.06a.49.49 0 0 0-.18-.33.58.58 0 0 0-.36-.11.75.75 0 0 0-.22 0 .51.51 0 0 0-.21.13.72.72 0 0 0-.16.26 1.24 1.24 0 0 0-.06.44 1.28 1.28 0 0 0 0 .29.79.79 0 0 0 .11.26.59.59 0 0 0 .19.19.56.56 0 0 0 .29.07.53.53 0 0 0 .38-.14.66.66 0 0 0 .19-.4h.52a1.15 1.15 0 0 1-.35.71 1.07 1.07 0 0 1-.74.25 1.22 1.22 0 0 1-.49-.09 1 1 0 0 1-.36-.26A1.09 1.09 0 0 1 57 19a1.52 1.52 0 0 1-.08-.49A1.67 1.67 0 0 1 57 18a1.15 1.15 0 0 1 .22-.41 1 1 0 0 1 .36-.27 1.23 1.23 0 0 1 .51-.1 1.43 1.43 0 0 1 .39.05 1 1 0 0 1 .33.16.84.84 0 0 1 .24.27.92.92 0 0 1 .11.38h-.54zM59.2 17.27h.57l.62 1.73.61-1.73h.55l-.92 2.5-.13.31a1.1 1.1 0 0 1-.15.26.66.66 0 0 1-.22.18.76.76 0 0 1-.34.07h-.36v-.48h.39a.24.24 0 0 0 .1-.07A.38.38 0 0 0 60 20a1 1 0 0 0 0-.19l.06-.18z"/><path class="egcore-9" d="M47.69 25.62a1.05 1.05 0 0 0-.09-.24.66.66 0 0 0-.37-.31.86.86 0 0 0-.29 0 .84.84 0 0 0-.41.1.81.81 0 0 0-.28.26 1.17 1.17 0 0 0-.16.37 1.71 1.71 0 0 0 0 .84 1.16 1.16 0 0 0 .16.37.81.81 0 0 0 .28.26.84.84 0 0 0 .41.1.75.75 0 0 0 .31-.06.7.7 0 0 0 .23-.17.79.79 0 0 0 .15-.25 1.21 1.21 0 0 0 .07-.31h.51a1.43 1.43 0 0 1-.12.49 1.21 1.21 0 0 1-.27.39 1.18 1.18 0 0 1-.4.25 1.38 1.38 0 0 1-.5.09 1.41 1.41 0 0 1-.6-.12 1.33 1.33 0 0 1-.45-.34 1.52 1.52 0 0 1-.28-.5 1.91 1.91 0 0 1 0-1.22 1.52 1.52 0 0 1 .28-.5 1.35 1.35 0 0 1 .45-.34 1.4 1.4 0 0 1 .6-.13 1.59 1.59 0 0 1 .48.07 1.23 1.23 0 0 1 .39.2 1.05 1.05 0 0 1 .28.32 1.13 1.13 0 0 1 .13.43h-.51zM49.52 27.72a1.18 1.18 0 0 1-.46-.09 1 1 0 0 1-.35-.24 1 1 0 0 1-.21-.39 1.48 1.48 0 0 1 0-.92 1 1 0 0 1 .21-.36 1 1 0 0 1 .35-.24 1.3 1.3 0 0 1 .93 0 1 1 0 0 1 .35.24 1 1 0 0 1 .21.36 1.48 1.48 0 0 1 0 .92 1 1 0 0 1-.21.36 1 1 0 0 1-.35.24 1.18 1.18 0 0 1-.47.12zm0-.38a.55.55 0 0 0 .28-.07.58.58 0 0 0 .2-.17.77.77 0 0 0 .11-.25 1.09 1.09 0 0 0 0-.56.75.75 0 0 0-.11-.24.59.59 0 0 0-.19-.17.61.61 0 0 0-.56 0 .59.59 0 0 0-.19.17.74.74 0 0 0-.11.25 1.09 1.09 0 0 0 0 .56.76.76 0 0 0 .11.25.58.58 0 0 0 .19.18.55.55 0 0 0 .27.06zM50.92 25.49h.45v.32a.8.8 0 0 1 .29-.28.76.76 0 0 1 .39-.1.81.81 0 0 1 .56.19.71.71 0 0 1 .21.56v1.49h-.47V26.3a.59.59 0 0 0-.11-.37.4.4 0 0 0-.32-.12.52.52 0 0 0-.22 0 .47.47 0 0 0-.16.12.57.57 0 0 0-.1.18.65.65 0 0 0 0 .22v1.28h-.52v-2.12zM55.27 27.67h-.45v-.3a.57.57 0 0 1-.28.27 1 1 0 0 1-.39.08 1 1 0 0 1-.45-.09.89.89 0 0 1-.32-.25 1 1 0 0 1-.2-.38 1.6 1.6 0 0 1-.06-.46 1.46 1.46 0 0 1 .08-.51 1 1 0 0 1 .21-.35.82.82 0 0 1 .3-.2 1 1 0 0 1 .35-.06h.21l.2.06a.79.79 0 0 1 .18.11.6.6 0 0 1 .14.15v-1.08h.48v3zM53.6 26.6a1.06 1.06 0 0 0 0 .27.74.74 0 0 0 .11.24.53.53 0 0 0 .46.23.54.54 0 0 0 .28-.07.57.57 0 0 0 .19-.18.8.8 0 0 0 .11-.25 1.09 1.09 0 0 0 0-.28.88.88 0 0 0-.1-.56.53.53 0 0 0-.44-.2.54.54 0 0 0-.28.07.58.58 0 0 0-.19.18.76.76 0 0 0-.11.25 1.32 1.32 0 0 0-.03.3zM55.7 24.66h.48v.45h-.48v-.45zm0 .83h.48v2.18h-.48v-2.18zM56.38 25.49h.36v-.65h.48v.65h.43v.36h-.43V27a1.12 1.12 0 0 0 0 .13.23.23 0 0 0 0 .09.14.14 0 0 0 .07.06h.33v.37h-.28a1.06 1.06 0 0 1-.31 0 .41.41 0 0 1-.18-.11.36.36 0 0 1-.09-.17 1.31 1.31 0 0 1 0-.24v-1.28h-.38v-.36zM57.91 24.66h.48v.45h-.48v-.45zm0 .83h.48v2.18h-.48v-2.18zM59.8 27.72a1.19 1.19 0 0 1-.47-.09 1 1 0 0 1-.33-.23 1 1 0 0 1-.22-.4 1.47 1.47 0 0 1 0-.92 1 1 0 0 1 .22-.32 1 1 0 0 1 .34-.24 1.3 1.3 0 0 1 .93 0 1 1 0 0 1 .34.24 1 1 0 0 1 .21.36 1.49 1.49 0 0 1 0 .92 1 1 0 0 1-.21.36 1 1 0 0 1-.34.24 1.18 1.18 0 0 1-.47.08zm0-.38a.55.55 0 0 0 .28-.07.59.59 0 0 0 .19-.18.75.75 0 0 0 .11-.25 1.09 1.09 0 0 0 0-.56.73.73 0 0 0-.11-.25.6.6 0 0 0-.19-.17.61.61 0 0 0-.56 0 .6.6 0 0 0-.19.17.73.73 0 0 0-.11.25 1.09 1.09 0 0 0 0 .56.75.75 0 0 0 .11.25.59.59 0 0 0 .19.18.55.55 0 0 0 .28.08zM61.19 25.49h.46v.32a.81.81 0 0 1 .29-.28.76.76 0 0 1 .39-.1.81.81 0 0 1 .56.19.71.71 0 0 1 .21.56v1.49h-.48V26.3a.59.59 0 0 0-.11-.37.4.4 0 0 0-.32-.12.52.52 0 0 0-.22 0 .47.47 0 0 0-.16.12.58.58 0 0 0-.11.18.67.67 0 0 0 0 .22v1.28h-.51v-2.12zM63.87 27a.36.36 0 0 0 .16.29.63.63 0 0 0 .33.08h.31a.3.3 0 0 0 .12-.09.21.21 0 0 0 0-.15.21.21 0 0 0-.07-.15.49.49 0 0 0-.16-.09l-.23-.06-.26-.05-.26-.07a.85.85 0 0 1-.22-.11.52.52 0 0 1-.16-.18.57.57 0 0 1-.06-.28.49.49 0 0 1 .09-.3.65.65 0 0 1 .22-.19 1 1 0 0 1 .29-.1h.31a1.41 1.41 0 0 1 .32 0 .88.88 0 0 1 .28.12.69.69 0 0 1 .21.21.72.72 0 0 1 .1.31h-.5a.3.3 0 0 0-.16-.23.66.66 0 0 0-.28-.06h-.19a.28.28 0 0 0-.1.07.16.16 0 0 0 0 .12.18.18 0 0 0 .06.14.47.47 0 0 0 .16.09l.22.06.26.05.26.07a.82.82 0 0 1 .22.11.55.55 0 0 1 .16.18.54.54 0 0 1 .06.27.59.59 0 0 1-.09.33.69.69 0 0 1-.23.22 1 1 0 0 1-.31.12 1.57 1.57 0 0 1-.34 0 1.48 1.48 0 0 1-.38 0 .89.89 0 0 1-.3-.14.68.68 0 0 1-.2-.24.74.74 0 0 1-.12-.35h.48z"/><path class="egcore-7" d="M13.47 21.76v.32h-.32v-.32h.32zM14.19 21.76v.32h-.32v-.32h.32zM14.91 21.76v.32h-.32v-.32h.32z"/><rect class="egcore-12" x="44.2" y="45.42" width="22.37" height="27.04" rx="4.72" ry="4.72" transform="rotate(90 55.39 58.94)"/><path class="egcore-13" d="M42.67 76.91h24.99v4.88H42.67z"/><path class="egcore-9" d="M45 78.15h1.33a1.26 1.26 0 0 1 .52.09.82.82 0 0 1 .31.23.79.79 0 0 1 .15.3 1.3 1.3 0 0 1 0 .3 1.27 1.27 0 0 1 0 .3.79.79 0 0 1-.15.3.81.81 0 0 1-.31.23 1.28 1.28 0 0 1-.52.09h-.8v1.15H45v-3zm.53 1.42h.95a.51.51 0 0 0 .17-.08.42.42 0 0 0 .13-.15.52.52 0 0 0 0-.24.61.61 0 0 0 0-.24.38.38 0 0 0-.11-.15.4.4 0 0 0-.16-.08h-.99v1zM49.45 80.67a.26.26 0 0 0 0 .13.1.1 0 0 0 .09 0h.12v.33h-.28a.46.46 0 0 1-.24-.06A.29.29 0 0 1 49 81a.84.84 0 0 1-.35.2 1.39 1.39 0 0 1-.4.06 1 1 0 0 1-.28 0 .73.73 0 0 1-.24-.12.56.56 0 0 1-.16-.2.6.6 0 0 1-.06-.28.64.64 0 0 1 .07-.33.55.55 0 0 1 .19-.2A.86.86 0 0 1 48 80h.76a.32.32 0 0 0 .14-.08.21.21 0 0 0 .1-.32.24.24 0 0 0 0-.15.29.29 0 0 0-.11-.09H48.55a.61.61 0 0 0-.33.08.33.33 0 0 0-.15.26h-.48a.73.73 0 0 1 .1-.35.7.7 0 0 1 .23-.22.93.93 0 0 1 .31-.13 1.84 1.84 0 0 1 .35 0 1.49 1.49 0 0 1 .32 0 .89.89 0 0 1 .28.11.61.61 0 0 1 .2.2.54.54 0 0 1 .08.29v1.12zm-.45-.6a.59.59 0 0 1-.27.09h-.47l-.13.06a.27.27 0 0 0-.09.11.36.36 0 0 0 0 .16.2.2 0 0 0 0 .13.33.33 0 0 0 .11.09H48.6a.58.58 0 0 0 .17-.07.46.46 0 0 0 .14-.13.33.33 0 0 0 .09-.08v-.36zM49.86 79h.45v.4a.48.48 0 0 1 .08-.17.77.77 0 0 1 .15-.15.73.73 0 0 1 .2-.08.59.59 0 0 1 .21 0h.18v.4h-.2a.55.55 0 0 0-.23 0 .53.53 0 0 0-.19.14.69.69 0 0 0-.13.23 1 1 0 0 0 0 .32v1h-.52V79zM53.06 80.67a.26.26 0 0 0 0 .13.1.1 0 0 0 .09 0h.12v.33H53a.46.46 0 0 1-.24-.06.29.29 0 0 1-.14-.07.84.84 0 0 1-.35.2 1.39 1.39 0 0 1-.4.06 1 1 0 0 1-.28 0 .73.73 0 0 1-.24-.12.56.56 0 0 1-.16-.2.6.6 0 0 1-.06-.28.64.64 0 0 1 .07-.33.55.55 0 0 1 .19-.2.86.86 0 0 1 .27-.1h.76a.32.32 0 0 0 .14-.08.21.21 0 0 0 .05-.16.24.24 0 0 0 0-.15.29.29 0 0 0-.11-.09H52.16a.61.61 0 0 0-.33.08.33.33 0 0 0-.15.26h-.48a.73.73 0 0 1 .1-.35.7.7 0 0 1 .23-.22.93.93 0 0 1 .31-.32 1.84 1.84 0 0 1 .35 0 1.49 1.49 0 0 1 .32 0 .89.89 0 0 1 .28.11.61.61 0 0 1 .2.2.54.54 0 0 1 .08.29v1.12zm-.48-.61a.59.59 0 0 1-.27.09l-.31.05h-.15l-.13.06a.27.27 0 0 0-.09.11.36.36 0 0 0 0 .16.2.2 0 0 0 0 .13.33.33 0 0 0 .11.09H52.17a.58.58 0 0 0 .17-.07.46.46 0 0 0 .14-.13.33.33 0 0 0 .05-.19v-.29zM53.47 79h.45v.3l.12-.15a.62.62 0 0 1 .16-.15h.18a.92.92 0 0 1 .23 0 .79.79 0 0 1 .39 0 .5.5 0 0 1 .24.27 1 1 0 0 1 .26-.27.76.76 0 0 1 .4-.1.79.79 0 0 1 .54.17.72.72 0 0 1 .19.56v1.5h-.48v-1.24-.24a.49.49 0 0 0 0-.19.28.28 0 0 0-.15-.12.48.48 0 0 0-.22 0 .41.41 0 0 0-.35.15.73.73 0 0 0-.11.43v1.27h-.51v-1.4a.59.59 0 0 0-.08-.34.35.35 0 0 0-.3-.12.44.44 0 0 0-.18 0 .45.45 0 0 0-.15.11.55.55 0 0 0-.1.18.67.67 0 0 0 0 .24v1.29h-.53V79zM57.4 80.19a.83.83 0 0 0 0 .24.59.59 0 0 0 .11.21.51.51 0 0 0 .18.14.6.6 0 0 0 .26.05.57.57 0 0 0 .34-.09.53.53 0 0 0 .19-.27H59a.91.91 0 0 1-.13.32.89.89 0 0 1-.22.23 1 1 0 0 1-.29.14 1.18 1.18 0 0 1-.34 0 1.14 1.14 0 0 1-.45-.08.94.94 0 0 1-.33-.24 1 1 0 0 1-.24-.31 1.46 1.46 0 0 1-.07-.46 1.32 1.32 0 0 1 .07-.44 1.12 1.12 0 0 1 .21-.37 1 1 0 0 1 .79-.34 1 1 0 0 1 .46.11 1 1 0 0 1 .34.28 1.16 1.16 0 0 1 .2.41 1.26 1.26 0 0 1 0 .47h-1.6zm1.12-.32a.8.8 0 0 0 0-.22.6.6 0 0 0-.11-.18.54.54 0 0 0-.17-.13.5.5 0 0 0-.22 0 .58.58 0 0 0-.23 0 .54.54 0 0 0-.18.12.6.6 0 0 0-.12.18.63.63 0 0 0 0 .23h1.12zM59 79h.36v-.67h.48V79h.43v.36h-.38v1.14a1 1 0 0 0 0 .13.22.22 0 0 0 0 .09.13.13 0 0 0 .07.06h.33v.37H60a1.07 1.07 0 0 1-.3 0 .4.4 0 0 1-.18-.15.37.37 0 0 1-.09-.17 1.29 1.29 0 0 1 0-.24v-1.25H59V79zM60.93 80.19a.81.81 0 0 0 0 .24.6.6 0 0 0 .11.21.51.51 0 0 0 .18.14.59.59 0 0 0 .26.05.58.58 0 0 0 .34-.09.54.54 0 0 0 .18-.26h.5a.91.91 0 0 1-.13.32.89.89 0 0 1-.22.23 1 1 0 0 1-.29.14 1.18 1.18 0 0 1-.34 0 1.15 1.15 0 0 1-.46-.08.93.93 0 0 1-.33-.24 1 1 0 0 1-.21-.36 1.45 1.45 0 0 1-.07-.46 1.32 1.32 0 0 1 .07-.44 1.1 1.1 0 0 1 .21-.37 1 1 0 0 1 .77-.34 1 1 0 0 1 .5.12 1 1 0 0 1 .34.28 1.16 1.16 0 0 1 .2.41 1.26 1.26 0 0 1 0 .47h-1.6zm1.12-.32a.76.76 0 0 0 0-.22.57.57 0 0 0-.11-.18.54.54 0 0 0-.17-.13.5.5 0 0 0-.22 0 .58.58 0 0 0-.23 0 .54.54 0 0 0-.18.12.62.62 0 0 0-.12.18.64.64 0 0 0 0 .23h1.12zM62.79 79h.45v.4a.47.47 0 0 1 .08-.17.78.78 0 0 1 .15-.15.74.74 0 0 1 .2-.08.59.59 0 0 1 .21 0h.18v.4h-.2a.55.55 0 0 0-.23 0 .53.53 0 0 0-.19.14.71.71 0 0 0-.13.23 1 1 0 0 0 0 .32v1h-.52V79zM64.53 80.46a.36.36 0 0 0 .16.29.62.62 0 0 0 .33.08h.31a.31.31 0 0 0 .12-.09.23.23 0 0 0 0-.3.46.46 0 0 0-.16-.09l-.23-.06-.26-.05-.26-.07a.88.88 0 0 1-.23-.17.53.53 0 0 1-.16-.18.57.57 0 0 1-.06-.28.49.49 0 0 1 .09-.3.64.64 0 0 1 .22-.19 1 1 0 0 1 .3-.05h.31a1.43 1.43 0 0 1 .32 0 .88.88 0 0 1 .28.12.69.69 0 0 1 .21.21.71.71 0 0 1 .1.31h-.5a.3.3 0 0 0-.16-.23.66.66 0 0 0-.26-.11h-.28a.28.28 0 0 0-.1.07.16.16 0 0 0 0 .12.18.18 0 0 0 .06.14.49.49 0 0 0 .16.09l.16.1.26.05.26.07a.82.82 0 0 1 .22.11.52.52 0 0 1 .22.45.59.59 0 0 1-.09.33.69.69 0 0 1-.23.22 1.05 1.05 0 0 1-.31.12 1.63 1.63 0 0 1-.34 0 1.51 1.51 0 0 1-.38 0 .91.91 0 0 1-.3-.14.68.68 0 0 1-.2-.24.74.74 0 0 1-.08-.33h.48z"/><path class="egcore-13" d="M46.12 39.33h17.57v4.01H46.12z"/><path class="egcore-9" d="M49.5 40.18h.56l1.16 3h-.57l-.28-.79h-1.2l-.28.79h-.54zM49.31 42h.92l-.45-1.3zM52.8 41.74a.45.45 0 0 0-.16-.31.53.53 0 0 0-.33-.1h-.2a.47.47 0 0 0-.19.12.67.67 0 0 0-.15.24 1.15 1.15 0 0 0-.06.4 1.18 1.18 0 0 0 0 .27.75.75 0 0 0 .1.24.55.55 0 0 0 .18.17.51.51 0 0 0 .27.06.48.48 0 0 0 .35-.13.61.61 0 0 0 .17-.37h.48A1.05 1.05 0 0 1 53 43a1 1 0 0 1-.68.23 1.11 1.11 0 0 1-.45-.09 1 1 0 0 1-.33-.24 1 1 0 0 1-.2-.36 1.38 1.38 0 0 1-.07-.45 1.52 1.52 0 0 1 .07-.46 1.05 1.05 0 0 1 .2-.37 1 1 0 0 1 .29-.26 1.13 1.13 0 0 1 .47 0 1.31 1.31 0 0 1 .36 0 1 1 0 0 1 .3.15.77.77 0 0 1 .22.24.83.83 0 0 1 .1.35h-.48zM53.35 41h.36v-.64h.48V41h.43v.36h-.43v1.16a1.12 1.12 0 0 0 0 .13.23.23 0 0 0 0 .09.14.14 0 0 0 .07.06h.33v.37h-.28a1.06 1.06 0 0 1-.31 0 .41.41 0 0 1-.18-.11.36.36 0 0 1-.09-.17 1.31 1.31 0 0 1 0-.24v-1.28h-.38V41zM54.87 40.18h.48v.45h-.48v-.45zm0 .83h.48v2.18h-.48V41zM56.77 43.25a1.18 1.18 0 0 1-.46-.09 1 1 0 0 1-.31-.24 1 1 0 0 1-.21-.36 1.48 1.48 0 0 1 0-.92 1 1 0 0 1 .21-.36 1 1 0 0 1 .3-.28 1.3 1.3 0 0 1 .93 0 1 1 0 0 1 .35.24 1 1 0 0 1 .21.36 1.48 1.48 0 0 1 0 .92 1 1 0 0 1-.21.36 1 1 0 0 1-.35.24 1.18 1.18 0 0 1-.46.13zm0-.38a.55.55 0 0 0 .23-.07.58.58 0 0 0 .19-.18.77.77 0 0 0 .11-.25 1.09 1.09 0 0 0 0-.56.75.75 0 0 0-.11-.25.59.59 0 0 0-.19-.16.61.61 0 0 0-.56 0 .59.59 0 0 0-.19.17.74.74 0 0 0-.11.25 1.09 1.09 0 0 0 0 .56.76.76 0 0 0 .11.25.58.58 0 0 0 .19.18.55.55 0 0 0 .33.06zM58.16 41h.46v.32a.8.8 0 0 1 .29-.28.77.77 0 0 1 .39-.04.81.81 0 0 1 .56.19.7.7 0 0 1 .21.56v1.49h-.48v-1.42a.59.59 0 0 0-.11-.37.39.39 0 0 0-.31-.12.51.51 0 0 0-.22 0 .47.47 0 0 0-.16.12.58.58 0 0 0-.11.18.65.65 0 0 0 0 .22v1.28h-.52V41zM60.83 42.49a.36.36 0 0 0 .16.29.63.63 0 0 0 .33.08h.31a.3.3 0 0 0 .12-.09.21.21 0 0 0 0-.15.21.21 0 0 0-.07-.15.49.49 0 0 0-.16-.09l-.23-.06-.26-.05-.26-.07a.85.85 0 0 1-.16-.2.52.52 0 0 1-.16-.18.57.57 0 0 1-.06-.28.49.49 0 0 1 .09-.3.65.65 0 0 1 .22-.19A1 1 0 0 1 61 41h.31a1.41 1.41 0 0 1 .32 0 .88.88 0 0 1 .28.12.69.69 0 0 1 .21.21.72.72 0 0 1 .1.31h-.5a.3.3 0 0 0-.16-.23.66.66 0 0 0-.28-.06h-.26a.28.28 0 0 0-.1.07.16.16 0 0 0 0 .12.18.18 0 0 0 .06.14.47.47 0 0 0 .16.09l.22.06.26.05.22.12a.82.82 0 0 1 .22.11.55.55 0 0 1 .16.18.54.54 0 0 1 .06.27.59.59 0 0 1-.09.33.69.69 0 0 1-.23.22 1 1 0 0 1-.31.12 1.57 1.57 0 0 1-.34 0 1.48 1.48 0 0 1-.38 0 .89.89 0 0 1-.3-.14.68.68 0 0 1-.2-.24.74.74 0 0 1-.08-.33h.48z"/><path class="egcore-14" d="M47.47 54.84h2.36v.5H48v.86h1.7v.47H48v1h1.82v.5h-2.35v-3.33zM50.88 56.87l-.82-1.12h.64l.5.73.52-.73h.61l-.81 1.1.91 1.28h-.64l-.6-.88-.58.88H50zM52.68 55.74h.5v.32a.64.64 0 0 1 .31-.3 1 1 0 0 1 .43-.09 1.13 1.13 0 0 1 .49.1 1 1 0 0 1 .35.27 1.18 1.18 0 0 1 .21.4 1.7 1.7 0 0 1 .07.49 1.75 1.75 0 0 1-.06.46 1.2 1.2 0 0 1-.19.4.92.92 0 0 1-.77.38h-.23l-.22-.07a.86.86 0 0 1-.21-.1.64.64 0 0 1-.15-.17V59h-.53v-3.26zm1.83 1.19a1.19 1.19 0 0 0 0-.31.85.85 0 0 0-.12-.27.64.64 0 0 0-.21-.19.56.56 0 0 0-.28-.07.58.58 0 0 0-.5.23 1 1 0 0 0-.17.61 1.22 1.22 0 0 0 0 .33.76.76 0 0 0 .13.26.66.66 0 0 0 .21.17.59.59 0 0 0 .28.06.58.58 0 0 0 .3-.07.64.64 0 0 0 .2-.19.78.78 0 0 0 .11-.27 1.35 1.35 0 0 0 .05-.29zM55.42 55.74h.49v.46A.53.53 0 0 1 56 56a.87.87 0 0 1 .16-.17.82.82 0 0 1 .21-.12.62.62 0 0 1 .23 0h.2v.5H56.59a.6.6 0 0 0-.25.05.57.57 0 0 0-.2.16.77.77 0 0 0-.14.25 1.1 1.1 0 0 0-.05.35v1.13h-.53v-2.41zM57.32 57.07a.92.92 0 0 0 0 .27.66.66 0 0 0 .12.22.56.56 0 0 0 .2.15.65.65 0 0 0 .28.06.63.63 0 0 0 .37-.1.58.58 0 0 0 .21-.3h.5a1 1 0 0 1-.38.6 1 1 0 0 1-.32.16 1.29 1.29 0 0 1-.37.05 1.26 1.26 0 0 1-.5-.09 1 1 0 0 1-.36-.26 1.08 1.08 0 0 1-.23-.39 1.61 1.61 0 0 1-.08-.5 1.43 1.43 0 0 1 .08-.48 1.24 1.24 0 0 1 .23-.4 1.08 1.08 0 0 1 .84-.37 1.06 1.06 0 0 1 .5.12 1.09 1.09 0 0 1 .37.31 1.27 1.27 0 0 1 .21.44 1.35 1.35 0 0 1 0 .52h-1.67zm1.22-.34a.86.86 0 0 0-.05-.24.63.63 0 0 0-.12-.2.59.59 0 0 0-.18-.14.54.54 0 0 0-.24-.05.63.63 0 0 0-.25 0 .56.56 0 0 0-.19.13.65.65 0 0 0-.13.2.69.69 0 0 0-.05.25h1.22zM59.81 57.36a.39.39 0 0 0 .17.32.69.69 0 0 0 .36.09h.35a.33.33 0 0 0 .13-.09.22.22 0 0 0 0-.16.23.23 0 0 0-.07-.17.5.5 0 0 0-.18-.1l-.25-.07-.28-.06-.22-.12a.92.92 0 0 1-.24-.12.57.57 0 0 1-.17-.2.64.64 0 0 1-.06-.3.54.54 0 0 1 .08-.38.73.73 0 0 1 .24-.21 1 1 0 0 1 .33-.08 1.88 1.88 0 0 1 .34 0 1.55 1.55 0 0 1 .35 0 1 1 0 0 1 .3.13.74.74 0 0 1 .22.23.78.78 0 0 1 .11.34h-.55a.33.33 0 0 0-.17-.25.72.72 0 0 0-.31-.06h-.27a.3.3 0 0 0-.11.07.17.17 0 0 0 0 .13.2.2 0 0 0 .07.16.52.52 0 0 0 .17.1l.25.07.28.06.28.08a.91.91 0 0 1 .25.12.6.6 0 0 1 .17.2.59.59 0 0 1 .07.29.65.65 0 0 1-.1.36.77.77 0 0 1-.25.24 1.12 1.12 0 0 1-.34.13 1.74 1.74 0 0 1-.37 0 1.62 1.62 0 0 1-.42-.05 1 1 0 0 1-.38-.06.74.74 0 0 1-.22-.26.81.81 0 0 1-.08-.36h.52zM62.15 57.36a.39.39 0 0 0 .17.32.69.69 0 0 0 .36.09h.35a.33.33 0 0 0 .13-.09.22.22 0 0 0 0-.16.23.23 0 0 0-.07-.17.5.5 0 0 0-.18-.1l-.25-.07-.28-.06-.23-.12a.92.92 0 0 1-.24-.12.57.57 0 0 1-.17-.2.64.64 0 0 1-.06-.3.54.54 0 0 1 .09-.38.73.73 0 0 1 .23-.18 1 1 0 0 1 .32-.11 1.88 1.88 0 0 1 .34 0 1.55 1.55 0 0 1 .35 0 1 1 0 0 1 .3.13.74.74 0 0 1 .22.23.78.78 0 0 1 .11.34h-.53a.33.33 0 0 0-.17-.25.72.72 0 0 0-.31-.06h-.27a.3.3 0 0 0-.11.07.17.17 0 0 0 0 .13.2.2 0 0 0 .07.16.52.52 0 0 0 .17.1l.25.07.26.09.28.08a.91.91 0 0 1 .25.12.6.6 0 0 1 .17.2.59.59 0 0 1 .07.29.65.65 0 0 1-.1.36.77.77 0 0 1-.25.24 1.12 1.12 0 0 1-.34.13 1.74 1.74 0 0 1-.37 0 1.62 1.62 0 0 1-.42-.05 1 1 0 0 1-.36-.09.74.74 0 0 1-.22-.26.81.81 0 0 1-.08-.36h.52zM43.71 60.19h.81l.9 2.57.88-2.57h.8v3.28h-.54v-2.53l-.91 2.53h-.48l-.91-2.53v2.53h-.55v-3.28zM47.69 60.19h.52v.5h-.52v-.5zm0 .9h.52v2.37h-.52V61.1zM51 63.47h-.5v-.32a.62.62 0 0 1-.31.3 1 1 0 0 1-.43.09 1.14 1.14 0 0 1-.49-.1 1 1 0 0 1-.35-.27 1.15 1.15 0 0 1-.21-.4 1.74 1.74 0 0 1-.07-.5 1.58 1.58 0 0 1 .09-.56 1.11 1.11 0 0 1 .23-.39.9.9 0 0 1 .33-.22 1.05 1.05 0 0 1 .36-.1h.23l.22.07a.89.89 0 0 1 .2.12.65.65 0 0 1 .15.17v-1.17H51v3.28zm-1.83-1.16a1.16 1.16 0 0 0 0 .3.82.82 0 0 0 .12.26.6.6 0 0 0 .2.18.6.6 0 0 0 .29.07.58.58 0 0 0 .32-.12.62.62 0 0 0 .21-.19.87.87 0 0 0 .12-.27 1.21 1.21 0 0 0 0-.31 1 1 0 0 0-.18-.62.58.58 0 0 0-.48-.22.59.59 0 0 0-.31.08.64.64 0 0 0-.21.2.82.82 0 0 0-.11.28 1.44 1.44 0 0 0 .01.36zM53.73 63.47h-.5v-.32a.62.62 0 0 1-.31.3 1 1 0 0 1-.43.09 1.14 1.14 0 0 1-.49-.1 1 1 0 0 1-.35-.27 1.15 1.15 0 0 1-.21-.4 1.74 1.74 0 0 1-.07-.5 1.58 1.58 0 0 1 .09-.56 1.11 1.11 0 0 1 .23-.39.9.9 0 0 1 .31-.21 1.05 1.05 0 0 1 .41-.11h.23l.22.07a.89.89 0 0 1 .2.12.65.65 0 0 1 .15.17v-1.17h.52v3.28zm-1.83-1.16a1.16 1.16 0 0 0 0 .3.82.82 0 0 0 .12.26.6.6 0 0 0 .2.18.6.6 0 0 0 .29.07.58.58 0 0 0 .3-.07.62.62 0 0 0 .21-.19.87.87 0 0 0 .12-.27 1.21 1.21 0 0 0 0-.31 1 1 0 0 0-.18-.62.58.58 0 0 0-.48-.22.59.59 0 0 0-.31.08.64.64 0 0 0-.21.2.82.82 0 0 0-.11.28 1.44 1.44 0 0 0 .06.31zM54.27 60.19h.52v3.28h-.52v-3.28zM55.72 62.42a.92.92 0 0 0 0 .27.66.66 0 0 0 .12.22.56.56 0 0 0 .2.15.65.65 0 0 0 .28.06.63.63 0 0 0 .37-.1.58.58 0 0 0 .21-.3h.5a1 1 0 0 1-.39.6 1 1 0 0 1-.32.16 1.29 1.29 0 0 1-.37.05 1.26 1.26 0 0 1-.5-.09 1 1 0 0 1-.36-.26 1.08 1.08 0 0 1-.23-.39 1.61 1.61 0 0 1-.08-.5 1.43 1.43 0 0 1 .08-.48 1.24 1.24 0 0 1 .23-.4 1.08 1.08 0 0 1 .89-.41 1.06 1.06 0 0 1 .5.12 1.1 1.1 0 0 1 .37.31 1.26 1.26 0 0 1 .21.44 1.36 1.36 0 0 1 0 .52h-1.71zm1.22-.34a.86.86 0 0 0-.05-.24.63.63 0 0 0-.12-.2.59.59 0 0 0-.18-.14.54.54 0 0 0-.24-.05.63.63 0 0 0-.25 0 .56.56 0 0 0-.19.13.65.65 0 0 0-.13.2.69.69 0 0 0-.05.25h1.22zM57.61 61.1h.56l.46 1.77.45-1.77h.53l.39 1.77.48-1.77h.53l-.74 2.37h-.49l-.44-1.76-.44 1.76h-.56zM63.33 62.94a.28.28 0 0 0 0 .14.11.11 0 0 0 .1 0h.13v.36H63.26a.51.51 0 0 1-.26.03.32.32 0 0 1-.14-.23.92.92 0 0 1-.38.22 1.51 1.51 0 0 1-.44.07 1.07 1.07 0 0 1-.31 0 .8.8 0 0 1-.26-.13.61.61 0 0 1-.18-.22.66.66 0 0 1-.07-.31.7.7 0 0 1 .08-.36.59.59 0 0 1 .21-.22 1 1 0 0 1 .29-.11l.33-.05h.5a.34.34 0 0 0 .16-.08.23.23 0 0 0 .06-.17.27.27 0 0 0 0-.17.33.33 0 0 0-.12-.1h-.38a.66.66 0 0 0-.36.09.36.36 0 0 0-.16.28h-.52a.79.79 0 0 1 .11-.38.77.77 0 0 1 .25-.24 1 1 0 0 1 .33-.29 2 2 0 0 1 .39 0 1.63 1.63 0 0 1 .34 0 1 1 0 0 1 .3.12.65.65 0 0 1 .22.21.58.58 0 0 1 .08.32v1.22zm-.52-.66a.64.64 0 0 1-.29.09h-.51l-.14.07a.3.3 0 0 0-.09.11.4.4 0 0 0 0 .17.22.22 0 0 0 .05.15.36.36 0 0 0 .12.09h.5a.63.63 0 0 0 .15.04.51.51 0 0 0 .15-.14.35.35 0 0 0 .06-.21v-.37zM63.85 61.1h.49v.46a.53.53 0 0 1 .09-.19.86.86 0 0 1 .16-.17.84.84 0 0 1 .21-.12.62.62 0 0 1 .2-.08h.2v.5H65a.6.6 0 0 0-.25.05.58.58 0 0 0-.21.16.79.79 0 0 0-.14.25 1.12 1.12 0 0 0 0 .35v1.13h-.55V61.1zM65.75 62.42a.93.93 0 0 0 0 .27.67.67 0 0 0 .12.22.56.56 0 0 0 .2.15.65.65 0 0 0 .29.06.63.63 0 0 0 .37-.1.59.59 0 0 0 .21-.3h.5a1 1 0 0 1-.14.34 1 1 0 0 1-.24.25 1 1 0 0 1-.32.16 1.29 1.29 0 0 1-.37.05 1.26 1.26 0 0 1-.5-.09 1 1 0 0 1-.37-.26 1.09 1.09 0 0 1-.22-.39 1.59 1.59 0 0 1-.08-.5 1.42 1.42 0 0 1 .08-.48 1.23 1.23 0 0 1 .23-.4 1.1 1.1 0 0 1 .36-.27 1.09 1.09 0 0 1 .48-.1 1.06 1.06 0 0 1 .5.12 1.09 1.09 0 0 1 .37.31 1.25 1.25 0 0 1 .21.44 1.37 1.37 0 0 1 0 .52h-1.68zm1.25-.34a.83.83 0 0 0-.05-.24.62.62 0 0 0-.12-.2.59.59 0 0 0-.18-.14.54.54 0 0 0-.24-.05.63.63 0 0 0-.25 0 .56.56 0 0 0-.19.13.66.66 0 0 0-.13.2.69.69 0 0 0-.05.25H67z"/><path class="egcore-15" d="M88.38 93.72h-.11c.1.27.2 0 .31 0 1.2 0 2.18-18 2.18-40.62s-1-41-2.18-41a.27.27 0 0 0-.2.17"/><path class="egcore-15" d="M88.38 12.31v-.58H12.61v.05c-1 3.51-1.79 21.26-1.79 41.35s.77 38.35 1.79 40.31a.67.67 0 0 0 .7.27h75c-1.06-2.81-1.87-19.91-1.87-40.58-.04-21.38.83-38.93 1.94-40.82zM12.6 16.85h2.74"/><path class="egcore-5" d="M11.4 15.38h4.37v1.08H11.4z"/><path class="egcore-15" d="M12.85 93.73h2.64"/><path class="egcore-8" d="M14.85 11.76h3.37c-.34-.04-1.96-.03-3.37 0zM18.28 11.81h70.11-70.17.07zM12.61 11.76v.05l2.24-.05h-2.24zM31.54 93.73H31a4.35 4.35 0 0 0 .54 0zM88.4 93.59L87.13 86H38.56c-5.48 0-12.62-.68-17.47-7.61-4.53-6.48-6.37-18.88-6.37-28.25 0-13.06-.8-34.33 13.92-38.3h-16C11.6 15.32 10.83 30 10.83 50s.77 41.44 1.79 43.41a.67.67 0 0 0 .7.27H31a7.56 7.56 0 0 1-1.05-.14H88.4z"/><path class="egcore-9" d="M16 88.13h1.57a1.48 1.48 0 0 1 .62.11 1 1 0 0 1 .37.27.93.93 0 0 1 .18.36 1.52 1.52 0 0 1 0 .36 1.48 1.48 0 0 1 0 .36.93.93 0 0 1-.18.36 1 1 0 0 1-.37.27 1.52 1.52 0 0 1-.62.11h-.97v1.36H16v-3.56zm.62 1.68h1.12a.6.6 0 0 0 .2-.1.5.5 0 0 0 .15-.18.62.62 0 0 0 .06-.28.72.72 0 0 0 0-.29.46.46 0 0 0-.15-.21.48.48 0 0 0-.19-.09H16.6v1.17zM19.11 88.13h.57v.54h-.57v-.54zm0 1h.57v2.57h-.57v-2.59zM20.18 89.11h.54v.35a.7.7 0 0 1 .33-.32 1.11 1.11 0 0 1 .46-.1 1.23 1.23 0 0 1 .53.11 1 1 0 0 1 .38.29 1.27 1.27 0 0 1 .22.44 1.84 1.84 0 0 1 .07.53 1.89 1.89 0 0 1-.07.5 1.31 1.31 0 0 1-.2.43 1 1 0 0 1-.35.3 1 1 0 0 1-.49.11h-.25a1.1 1.1 0 0 1-.24-.07 1 1 0 0 1-.21-.13.71.71 0 0 1-.16-.18v1.28h-.56v-3.54zm2 1.29a1.28 1.28 0 0 0 0-.34.93.93 0 0 0-.18-.29.69.69 0 0 0-.22-.2.6.6 0 0 0-.31-.08.63.63 0 0 0-.54.25 1.1 1.1 0 0 0-.18.66 1.33 1.33 0 0 0 0 .36.81.81 0 0 0 .14.29.7.7 0 0 0 .23.19.65.65 0 0 0 .31.07.64.64 0 0 0 .33-.08A.7.7 0 0 0 22 91a.83.83 0 0 0 .12-.29 1.46 1.46 0 0 0 .04-.32zM23.53 90.54a1 1 0 0 0 0 .29.71.71 0 0 0 .13.24.61.61 0 0 0 .21.17.7.7 0 0 0 .31.06.68.68 0 0 0 .4-.11.63.63 0 0 0 .23-.32h.54a1.07 1.07 0 0 1-.15.37 1.09 1.09 0 0 1-.26.28 1.14 1.14 0 0 1-.35.17 1.39 1.39 0 0 1-.4.06 1.36 1.36 0 0 1-.54-.1 1.09 1.09 0 0 1-.4-.28 1.18 1.18 0 0 1-.25-.43 1.73 1.73 0 0 1 0-.55 1.55 1.55 0 0 1 0-.52 1.33 1.33 0 0 1 .25-.43 1.17 1.17 0 0 1 .95-.44 1.16 1.16 0 0 1 .54.13 1.2 1.2 0 0 1 .4.34 1.36 1.36 0 0 1 .23.48 1.47 1.47 0 0 1 0 .56h-1.84zm1.32-.37a.94.94 0 0 0-.06-.26.7.7 0 0 0-.13-.22.64.64 0 0 0-.2-.15.59.59 0 0 0-.26-.06.69.69 0 0 0-.27.05.63.63 0 0 0-.21.14.73.73 0 0 0-.14.22.76.76 0 0 0-.06.27h1.32zM25.74 88.13h.57v3.55h-.57v-3.55zM26.81 88.13h.57v.54h-.57v-.54zm0 1h.57v2.57h-.57v-2.59zM27.87 89.11h.54v.38a1 1 0 0 1 .34-.34.9.9 0 0 1 .47-.15 1 1 0 0 1 .67.22.84.84 0 0 1 .24.66v1.76h-.57v-1.58a.7.7 0 0 0-.13-.44.47.47 0 0 0-.37-.14.63.63 0 0 0-.26.05.57.57 0 0 0-.19.14.68.68 0 0 0-.12.22.77.77 0 0 0 0 .26v1.52h-.62v-2.56zM31 90.54a1 1 0 0 0 0 .29.71.71 0 0 0 .13.24.61.61 0 0 0 .21.17.7.7 0 0 0 .31.06.68.68 0 0 0 .4-.11.63.63 0 0 0 .23-.32h.62a1.07 1.07 0 0 1-.15.37 1.09 1.09 0 0 1-.26.28 1.14 1.14 0 0 1-.35.17 1.39 1.39 0 0 1-.4.06 1.36 1.36 0 0 1-.54-.1 1.09 1.09 0 0 1-.4-.28 1.18 1.18 0 0 1-.24-.43 1.73 1.73 0 0 1-.08-.55 1.55 1.55 0 0 1 .09-.52 1.33 1.33 0 0 1 .25-.43 1.17 1.17 0 0 1 .9-.44 1.16 1.16 0 0 1 .54.13 1.2 1.2 0 0 1 .4.34 1.36 1.36 0 0 1 .23.48 1.47 1.47 0 0 1 0 .56H31zm1.32-.37a.94.94 0 0 0-.06-.26.7.7 0 0 0-.13-.22.64.64 0 0 0-.2-.15.59.59 0 0 0-.26-.06.69.69 0 0 0-.27.05.63.63 0 0 0-.21.14.73.73 0 0 0-.14.22.76.76 0 0 0-.06.27h1.32z"/></svg>