<svg id="Layer_1" data-name="Layer 1" xmlns="http://www.w3.org/2000/svg" viewBox="0 0 116.5 147"><defs><style>.egcore-1,.egcore-11,.egcore-13,.egcore-5{fill:#fff;}.egcore-1,.egcore-11,.egcore-15{stroke:#ffc60a;}.egcore-1,.egcore-15,.egcore-2,.egcore-4{stroke-linecap:round;}.egcore-1,.egcore-11{stroke-miterlimit:10;}.egcore-1{stroke-width:1.15px;}.egcore-15,.egcore-2,.egcore-4{fill:none;stroke-linejoin:round;}.egcore-2,.egcore-4{stroke:#136d7c;}.egcore-11,.egcore-2{stroke-width:0.57px;}.egcore-3{opacity:0.4;}.egcore-4{stroke-width:0.96px;}.egcore-6{opacity:0.63;}.egcore-7{fill:#136d7c;}.egcore-8{fill:#ffc60a;}.egcore-9{fill:#37403f;}.egcore-10{fill:#74cfe8;}.egcore-12{fill:#35a9c5;}.egcore-13{opacity:0.8;}.egcore-14{fill:#f1f0f1;}.egcore-15{stroke-width:0.76px;}</style></defs><title>Untitled-3</title><path class="egcore-1" d="M115.93,48.23l0,91.7c-0.61,3.67-3.35,6.51-6.71,6.51H6.67a6.22,6.22,0,0,1-6.1-6.3V6.91A6.22,6.22,0,0,1,6.67.61l103.16,0a6.22,6.22,0,0,1,6.1,6.3V48.23Z"/><rect class="egcore-2" x="6.28" y="6.48" width="103.73" height="97.99" rx="3.14" ry="3.14"/><g class="egcore-3"><path class="egcore-4" d="M100.09,33.26h-5a1.2,1.2,0,0,1-.76-1.35h0a1.2,1.2,0,0,1,.76-1.35h10.2a1.2,1.2,0,0,0,.76-1.35h0a1.2,1.2,0,0,0-.76-1.35H95.51"/><path class="egcore-4" d="M100.09,38.67h-5a1.2,1.2,0,0,1-.76-1.35h0A1.2,1.2,0,0,1,95.09,36h10.2a1.2,1.2,0,0,0,.76-1.35h0a1.2,1.2,0,0,0-.76-1.35H100"/><path class="egcore-4" d="M100.09,44.07h-5a1.2,1.2,0,0,1-.76-1.35h0a1.2,1.2,0,0,1,.76-1.35h10.2a1.2,1.2,0,0,0,.76-1.35h0a1.2,1.2,0,0,0-.76-1.35H100"/><path class="egcore-4" d="M100.09,49.48h-5a1.2,1.2,0,0,1-.76-1.35h0a1.2,1.2,0,0,1,.76-1.35h10.2a1.2,1.2,0,0,0,.76-1.35h0a1.2,1.2,0,0,0-.76-1.35H100"/><path class="egcore-4" d="M100.09,54.89h-5a1.2,1.2,0,0,1-.76-1.35h0a1.2,1.2,0,0,1,.76-1.35h10.2a1.2,1.2,0,0,0,.76-1.35h0a1.2,1.2,0,0,0-.76-1.35H100"/><path class="egcore-4" d="M100.09,60.3h-5A1.2,1.2,0,0,1,94.33,59h0a1.2,1.2,0,0,1,.76-1.35h10.2a1.2,1.2,0,0,0,.76-1.35h0a1.2,1.2,0,0,0-.76-1.35H100"/><path class="egcore-4" d="M100.09,65.66h-5a1.2,1.2,0,0,1-.76-1.35h0A1.2,1.2,0,0,1,95.09,63h10.2a1.2,1.2,0,0,0,.76-1.35h0a1.2,1.2,0,0,0-.76-1.35H100"/><path class="egcore-4" d="M100.09,71.07h-5a1.2,1.2,0,0,1-.76-1.35h0a1.2,1.2,0,0,1,.76-1.35h10.2a1.2,1.2,0,0,0,.76-1.35h0a1.2,1.2,0,0,0-.76-1.35H100"/><path class="egcore-4" d="M100.09,76.47h-5a1.2,1.2,0,0,1-.76-1.35h0a1.2,1.2,0,0,1,.76-1.35h10.2a1.2,1.2,0,0,0,.76-1.35h0a1.2,1.2,0,0,0-.76-1.35H100"/><path class="egcore-4" d="M100.09,81.88h-5a1.2,1.2,0,0,1-.76-1.35h0a1.2,1.2,0,0,1,.76-1.35h10.2a1.2,1.2,0,0,0,.76-1.35h0a1.2,1.2,0,0,0-.76-1.35H100"/><path class="egcore-4" d="M100.09,22.43h-5a1.2,1.2,0,0,1-.76-1.35h0a1.2,1.2,0,0,1,.76-1.35h10.2a1.2,1.2,0,0,0,.76-1.35h0a1.2,1.2,0,0,0-.76-1.35H100"/><path class="egcore-4" d="M100.12,17h-5a1.2,1.2,0,0,1-.76-1.35h0a1.2,1.2,0,0,1,.76-1.35h10.2a1.2,1.2,0,0,0,.76-1.35h0a1.2,1.2,0,0,0-.76-1.35h-5.25"/><path class="egcore-4" d="M100.09,27.84h-5a1.2,1.2,0,0,1-.76-1.35h0a1.2,1.2,0,0,1,.76-1.35h10.2a1.2,1.2,0,0,0,.76-1.35h0a1.2,1.2,0,0,0-.76-1.35H100"/><path class="egcore-4" d="M100.09,87.26h-5a1.2,1.2,0,0,1-.76-1.35h0a1.2,1.2,0,0,1,.76-1.35h10.2a1.2,1.2,0,0,0,.76-1.35h0a1.2,1.2,0,0,0-.76-1.35H100"/><path class="egcore-4" d="M95.09,90h10.2a1.2,1.2,0,0,0,.76-1.35h0a1.2,1.2,0,0,0-.76-1.35H100"/></g><rect class="egcore-5" x="92.83" y="88.09" width="14.88" height="5.55"/><g class="egcore-6"><path class="egcore-7" d="M94.15,90.54h1.43a1.11,1.11,0,0,1,.75.21,0.75,0.75,0,0,1,.25.6,0.88,0.88,0,0,1-.06.36,0.8,0.8,0,0,1-.15.23,0.58,0.58,0,0,1-.17.12l-0.12.05h0l0.14,0a0.42,0.42,0,0,1,.15.11,0.59,0.59,0,0,1,.11.19,0.84,0.84,0,0,1,0,.29,2.69,2.69,0,0,0,0,.48,0.65,0.65,0,0,0,.12.31H96.13a0.49,0.49,0,0,1-.07-0.21c0-.08,0-0.15,0-0.23a2.2,2.2,0,0,0,0-.36,0.64,0.64,0,0,0-.09-0.25,0.39,0.39,0,0,0-.18-0.14,0.8,0.8,0,0,0-.3,0H94.68v1.24H94.15v-3Zm0.53,1.37h0.86a0.55,0.55,0,0,0,.38-0.12,0.46,0.46,0,0,0,.13-0.36,0.57,0.57,0,0,0,0-.23,0.34,0.34,0,0,0-.12-0.14A0.41,0.41,0,0,0,95.73,91l-0.2,0H94.68v0.94Z"/><path class="egcore-7" d="M98,93.61a1.19,1.19,0,0,1-.47-0.09,1,1,0,0,1-.34-0.24A1,1,0,0,1,97,92.92,1.48,1.48,0,0,1,97,92a1,1,0,0,1,.21-0.36,1,1,0,0,1,.34-0.24,1.29,1.29,0,0,1,.93,0,1,1,0,0,1,.34.24,1,1,0,0,1,.21.36,1.48,1.48,0,0,1,0,.92,1,1,0,0,1-.21.36,1,1,0,0,1-.34.24A1.18,1.18,0,0,1,98,93.61Zm0-.38a0.55,0.55,0,0,0,.28-0.07A0.6,0.6,0,0,0,98.52,93a0.76,0.76,0,0,0,.11-0.25,1.09,1.09,0,0,0,0-.56,0.73,0.73,0,0,0-.11-0.25,0.6,0.6,0,0,0-.19-0.17,0.61,0.61,0,0,0-.56,0,0.6,0.6,0,0,0-.19.17,0.73,0.73,0,0,0-.11.25,1.09,1.09,0,0,0,0,.56,0.76,0.76,0,0,0,.11.25,0.6,0.6,0,0,0,.19.18A0.55,0.55,0,0,0,98,93.23Z"/><path class="egcore-7" d="M101.45,93.55H101v-0.3h0a0.65,0.65,0,0,1-.26.26,0.71,0.71,0,0,1-.36.1,0.8,0.8,0,0,1-.62-0.21,0.93,0.93,0,0,1-.19-0.64V91.37H100V92.7a0.59,0.59,0,0,0,.11.4,0.4,0.4,0,0,0,.31.12,0.6,0.6,0,0,0,.25,0,0.44,0.44,0,0,0,.16-0.12,0.47,0.47,0,0,0,.09-0.19,1,1,0,0,0,0-.24V91.37h0.48v2.17Z"/><path class="egcore-7" d="M101.74,91.37h0.36V90.72h0.48v0.65H103v0.36h-0.43v1.16a1,1,0,0,0,0,.13,0.22,0.22,0,0,0,0,.09,0.13,0.13,0,0,0,.07.06l0.13,0H103v0.37l-0.16,0H102.7a1.07,1.07,0,0,1-.3,0,0.4,0.4,0,0,1-.18-0.11,0.37,0.37,0,0,1-.09-0.17,1.29,1.29,0,0,1,0-.24V91.73h-0.36V91.37Z"/><path class="egcore-7" d="M103.73,92.58a0.81,0.81,0,0,0,0,.24,0.6,0.6,0,0,0,.11.21,0.51,0.51,0,0,0,.18.14,0.59,0.59,0,0,0,.26.05,0.58,0.58,0,0,0,.34-0.09,0.54,0.54,0,0,0,.19-0.27h0.45a0.91,0.91,0,0,1-.13.32,0.89,0.89,0,0,1-.22.23,1,1,0,0,1-.29.14,1.18,1.18,0,0,1-.34,0,1.15,1.15,0,0,1-.46-0.08,0.93,0.93,0,0,1-.33-0.24,1,1,0,0,1-.21-0.36,1.45,1.45,0,0,1-.07-0.46,1.32,1.32,0,0,1,.07-0.44,1.1,1.1,0,0,1,.21-0.37,1,1,0,0,1,.77-0.34,1,1,0,0,1,.46.11,1,1,0,0,1,.34.28,1.16,1.16,0,0,1,.2.41,1.26,1.26,0,0,1,0,.47h-1.6Zm1.12-.32a0.76,0.76,0,0,0,0-.22,0.57,0.57,0,0,0-.11-0.18,0.54,0.54,0,0,0-.17-0.13,0.5,0.5,0,0,0-.22,0,0.58,0.58,0,0,0-.23,0,0.54,0.54,0,0,0-.18.12,0.62,0.62,0,0,0-.12.18,0.64,0.64,0,0,0,0,.23h1.12Z"/><path class="egcore-7" d="M105.7,91.37h0.45v0.42h0a0.47,0.47,0,0,1,.08-0.17,0.78,0.78,0,0,1,.15-0.15,0.74,0.74,0,0,1,.19-0.11,0.59,0.59,0,0,1,.21,0H107v0.46h-0.21a0.55,0.55,0,0,0-.23,0,0.53,0.53,0,0,0-.19.14,0.71,0.71,0,0,0-.13.23,1,1,0,0,0,0,.32v1H105.7V91.37Z"/></g><rect class="egcore-8" x="40.17" y="120.36" width="33.1" height="12.53" rx="3.14" ry="3.14"/><rect class="egcore-8" x="6.06" y="120.36" width="33.1" height="12.53" rx="3.14" ry="3.14"/><rect class="egcore-8" x="74.27" y="120.36" width="33.1" height="12.53" rx="3.14" ry="3.14"/><path class="egcore-9" d="M10.09,122.07h1.47a1.66,1.66,0,0,1,.71.14,1.31,1.31,0,0,1,.49.38,1.62,1.62,0,0,1,.28.56,2.63,2.63,0,0,1,0,1.38,1.63,1.63,0,0,1-.28.56,1.31,1.31,0,0,1-.49.38,1.64,1.64,0,0,1-.71.14H10.09v-3.55Zm0.62,3h0.61a1.54,1.54,0,0,0,.59-0.1,0.86,0.86,0,0,0,.36-0.27,1,1,0,0,0,.18-0.4,2.66,2.66,0,0,0,0-1,1,1,0,0,0-.18-0.4,0.88,0.88,0,0,0-.36-0.27,1.56,1.56,0,0,0-.59-0.1H10.71v2.54Z"/><path class="egcore-9" d="M13.49,122.07h0.57v0.54H13.49v-0.54Zm0,1h0.57v2.57H13.49V123Z"/><path class="egcore-9" d="M15,124.79a0.43,0.43,0,0,0,.19.35,0.74,0.74,0,0,0,.39.1h0.18l0.19,0a0.37,0.37,0,0,0,.15-0.1,0.24,0.24,0,0,0,.05-0.18,0.25,0.25,0,0,0-.08-0.18,0.55,0.55,0,0,0-.19-0.11l-0.27-.07-0.3-.06L15,124.39a1,1,0,0,1-.26-0.13,0.63,0.63,0,0,1-.19-0.22,0.69,0.69,0,0,1-.07-0.33,0.58,0.58,0,0,1,.1-0.35,0.77,0.77,0,0,1,.26-0.23,1.14,1.14,0,0,1,.35-0.12,2,2,0,0,1,.37,0,1.66,1.66,0,0,1,.38,0,1,1,0,0,1,.33.14,0.79,0.79,0,0,1,.24.25,0.84,0.84,0,0,1,.12.37H16a0.35,0.35,0,0,0-.19-0.27,0.77,0.77,0,0,0-.34-0.07H15.36l-0.15,0a0.32,0.32,0,0,0-.12.08,0.19,0.19,0,0,0,0,.14,0.22,0.22,0,0,0,.07.17,0.58,0.58,0,0,0,.19.11L15.56,124l0.31,0.06,0.3,0.08a1,1,0,0,1,.27.13,0.65,0.65,0,0,1,.19.21,0.64,0.64,0,0,1,.07.32,0.69,0.69,0,0,1-.1.39,0.82,0.82,0,0,1-.27.26,1.21,1.21,0,0,1-.37.14,1.84,1.84,0,0,1-.4,0,1.73,1.73,0,0,1-.45-0.05,1,1,0,0,1-.36-0.17,0.82,0.82,0,0,1-.24-0.28,0.89,0.89,0,0,1-.09-0.4H15Z"/><path class="egcore-9" d="M16.75,123h0.43v-0.77h0.57V123h0.51v0.42H17.74v1.37a1.4,1.4,0,0,0,0,.15,0.26,0.26,0,0,0,0,.11,0.17,0.17,0,0,0,.08.07,0.39,0.39,0,0,0,.15,0h0.12l0.12,0v0.44l-0.18,0H17.89a1.25,1.25,0,0,1-.36,0,0.48,0.48,0,0,1-.21-0.12,0.44,0.44,0,0,1-.1-0.21,1.58,1.58,0,0,1,0-.28v-1.52H16.75V123Z"/><path class="egcore-9" d="M18.54,123h0.53v0.5h0a0.58,0.58,0,0,1,.1-0.2,1,1,0,0,1,.17-0.18,0.88,0.88,0,0,1,.23-0.13,0.7,0.7,0,0,1,.25,0H20v0.55l-0.12,0H19.8a0.65,0.65,0,0,0-.27.06,0.63,0.63,0,0,0-.22.17,0.82,0.82,0,0,0-.15.28,1.19,1.19,0,0,0-.05.38v1.22H18.54V123Z"/><path class="egcore-9" d="M20.18,122.07h0.57v0.54H20.18v-0.54Zm0,1h0.57v2.57H20.18V123Z"/><path class="egcore-9" d="M21.25,122.07h0.57v1.31h0a0.76,0.76,0,0,1,.14-0.17,0.91,0.91,0,0,1,.19-0.13l0.21-.08,0.22,0a1.23,1.23,0,0,1,.53.11,1,1,0,0,1,.38.29,1.27,1.27,0,0,1,.22.44,1.84,1.84,0,0,1,.07.53,1.89,1.89,0,0,1-.07.5,1.31,1.31,0,0,1-.2.43,1,1,0,0,1-.35.3,1,1,0,0,1-.49.11l-0.26,0a0.94,0.94,0,0,1-.25-0.07,0.84,0.84,0,0,1-.22-0.13,0.62,0.62,0,0,1-.16-0.21h0v0.35H21.25v-3.55Zm2,2.27a1.28,1.28,0,0,0,0-.34,0.93,0.93,0,0,0-.13-0.29,0.69,0.69,0,0,0-.22-0.2,0.6,0.6,0,0,0-.31-0.08,0.63,0.63,0,0,0-.54.25,1.1,1.1,0,0,0-.18.66,1.33,1.33,0,0,0,0,.36A0.81,0.81,0,0,0,22,125a0.7,0.7,0,0,0,.23.19,0.65,0.65,0,0,0,.31.07,0.64,0.64,0,0,0,.33-0.08,0.7,0.7,0,0,0,.22-0.21,0.83,0.83,0,0,0,.12-0.29A1.46,1.46,0,0,0,23.23,124.34Z"/><path class="egcore-9" d="M26.41,125.62H25.85v-0.36h0a0.78,0.78,0,0,1-.31.31,0.85,0.85,0,0,1-.42.12,0.94,0.94,0,0,1-.73-0.25,1.1,1.1,0,0,1-.23-0.76V123h0.57v1.58a0.69,0.69,0,0,0,.13.48,0.47,0.47,0,0,0,.36.14,0.72,0.72,0,0,0,.3-0.05A0.52,0.52,0,0,0,25.7,125a0.56,0.56,0,0,0,.11-0.22,1.15,1.15,0,0,0,0-.28V123h0.57v2.57Z"/><path class="egcore-9" d="M26.62,123H27v-0.77h0.57V123h0.51v0.42H27.62v1.37a1.4,1.4,0,0,0,0,.15,0.26,0.26,0,0,0,0,.11,0.17,0.17,0,0,0,.08.07,0.39,0.39,0,0,0,.15,0H28l0.12,0v0.44l-0.18,0H27.76a1.25,1.25,0,0,1-.36,0,0.48,0.48,0,0,1-.21-0.12,0.44,0.44,0,0,1-.1-0.21,1.58,1.58,0,0,1,0-.28v-1.52H26.62V123Z"/><path class="egcore-9" d="M28.85,124.48a1,1,0,0,0,0,.29A0.71,0.71,0,0,0,29,125a0.61,0.61,0,0,0,.21.17,0.7,0.7,0,0,0,.31.06,0.68,0.68,0,0,0,.4-0.11,0.63,0.63,0,0,0,.23-0.32h0.54a1.07,1.07,0,0,1-.15.37,1.09,1.09,0,0,1-.26.28,1.14,1.14,0,0,1-.35.17,1.39,1.39,0,0,1-.4.06,1.36,1.36,0,0,1-.54-0.1,1.09,1.09,0,0,1-.4-0.28,1.18,1.18,0,0,1-.24-0.43,1.73,1.73,0,0,1-.08-0.55,1.55,1.55,0,0,1,.09-0.52,1.33,1.33,0,0,1,.25-0.43,1.17,1.17,0,0,1,.91-0.41,1.16,1.16,0,0,1,.54.13,1.2,1.2,0,0,1,.4.34,1.36,1.36,0,0,1,.23.48,1.47,1.47,0,0,1,0,.56H28.85Zm1.32-.37a0.94,0.94,0,0,0-.06-0.26,0.7,0.7,0,0,0-.13-0.22,0.64,0.64,0,0,0-.2-0.15,0.59,0.59,0,0,0-.26-0.06,0.69,0.69,0,0,0-.27.05,0.63,0.63,0,0,0-.21.14,0.73,0.73,0,0,0-.14.22,0.76,0.76,0,0,0-.06.27h1.32Z"/><path class="egcore-9" d="M33.47,125.62H32.94v-0.35h0a0.68,0.68,0,0,1-.33.32,1.13,1.13,0,0,1-.46.1,1.23,1.23,0,0,1-.53-0.11,1.05,1.05,0,0,1-.38-0.29,1.25,1.25,0,0,1-.22-0.44,1.88,1.88,0,0,1-.07-0.54,1.72,1.72,0,0,1,.09-0.6,1.21,1.21,0,0,1,.25-0.42,1,1,0,0,1,.36-0.24A1.15,1.15,0,0,1,32,123l0.24,0a1.11,1.11,0,0,1,.24.07,0.94,0.94,0,0,1,.21.13,0.73,0.73,0,0,1,.16.18h0v-1.31h0.57v3.55Zm-2-1.26a1.25,1.25,0,0,0,0,.32,0.88,0.88,0,0,0,.13.28,0.63,0.63,0,0,0,.54.27,0.64,0.64,0,0,0,.33-0.08,0.69,0.69,0,0,0,.22-0.21,1,1,0,0,0,.13-0.29,1.29,1.29,0,0,0,0-.33,1,1,0,0,0-.19-0.67,0.63,0.63,0,0,0-.52-0.24,0.64,0.64,0,0,0-.34.08,0.69,0.69,0,0,0-.22.21,0.88,0.88,0,0,0-.12.3A1.55,1.55,0,0,0,31.49,124.36Z"/><path class="egcore-9" d="M10.48,127H12a1.66,1.66,0,0,1,.71.14,1.31,1.31,0,0,1,.49.38,1.62,1.62,0,0,1,.28.56,2.63,2.63,0,0,1,0,1.38,1.63,1.63,0,0,1-.28.56,1.31,1.31,0,0,1-.49.38,1.64,1.64,0,0,1-.71.14H10.48V127Zm0.62,3h0.61a1.54,1.54,0,0,0,.59-0.1,0.86,0.86,0,0,0,.36-0.27,1,1,0,0,0,.18-0.4,2.66,2.66,0,0,0,0-1,1,1,0,0,0-.18-0.4,0.88,0.88,0,0,0-.36-0.27,1.56,1.56,0,0,0-.59-0.1H11.11v2.54Z"/><path class="egcore-9" d="M16,130a0.3,0.3,0,0,0,0,.15,0.11,0.11,0,0,0,.11,0H16.3v0.39l-0.08,0-0.1,0H15.94a0.55,0.55,0,0,1-.29-0.07,0.35,0.35,0,0,1-.15-0.24,1,1,0,0,1-.42.24,1.63,1.63,0,0,1-.48.07,1.17,1.17,0,0,1-.33,0,0.86,0.86,0,0,1-.28-0.14,0.66,0.66,0,0,1-.19-0.23,0.72,0.72,0,0,1-.07-0.33,0.76,0.76,0,0,1,.09-0.39,0.65,0.65,0,0,1,.23-0.23,1,1,0,0,1,.32-0.12l0.36-.06,0.29,0,0.25,0a0.37,0.37,0,0,0,.17-0.09,0.25,0.25,0,0,0,.06-0.19,0.29,0.29,0,0,0-.05-0.18,0.36,0.36,0,0,0-.13-0.11l-0.17,0H15a0.71,0.71,0,0,0-.39.1,0.39,0.39,0,0,0-.17.31H13.83a0.85,0.85,0,0,1,.12-0.41,0.83,0.83,0,0,1,.27-0.26,1.08,1.08,0,0,1,.37-0.14,2.18,2.18,0,0,1,.42,0,1.77,1.77,0,0,1,.37,0,1,1,0,0,1,.33.13,0.72,0.72,0,0,1,.24.23,0.64,0.64,0,0,1,.09.35V130Zm-0.57-.72a0.69,0.69,0,0,1-.32.1l-0.38.05-0.17,0-0.15.08a0.33,0.33,0,0,0-.1.12,0.42,0.42,0,0,0,0,.19,0.24,0.24,0,0,0,.05.16,0.39,0.39,0,0,0,.13.1l0.17,0.05h0.17l0.2,0a0.67,0.67,0,0,0,.21-0.08,0.54,0.54,0,0,0,.16-0.15,0.39,0.39,0,0,0,.06-0.23V129.3Z"/><path class="egcore-9" d="M16.25,128h0.43v-0.77h0.57V128h0.51v0.42H17.25v1.37a1.4,1.4,0,0,0,0,.15,0.26,0.26,0,0,0,0,.11,0.17,0.17,0,0,0,.08.07,0.39,0.39,0,0,0,.15,0h0.12l0.12,0v0.44l-0.18,0H17.39a1.25,1.25,0,0,1-.36,0,0.48,0.48,0,0,1-.21-0.12,0.44,0.44,0,0,1-.1-0.21,1.58,1.58,0,0,1,0-.28v-1.52H16.25V128Z"/><path class="egcore-9" d="M20.19,130a0.3,0.3,0,0,0,0,.15,0.11,0.11,0,0,0,.11,0h0.14v0.39l-0.08,0-0.1,0H20.11a0.55,0.55,0,0,1-.29-0.07,0.35,0.35,0,0,1-.15-0.24,1,1,0,0,1-.42.24,1.63,1.63,0,0,1-.48.07,1.17,1.17,0,0,1-.33,0,0.86,0.86,0,0,1-.28-0.14,0.66,0.66,0,0,1-.19-0.23,0.72,0.72,0,0,1-.07-0.33,0.76,0.76,0,0,1,.09-0.39,0.65,0.65,0,0,1,.23-0.23,1,1,0,0,1,.32-0.12l0.36-.06,0.29,0,0.25,0a0.37,0.37,0,0,0,.17-0.09,0.25,0.25,0,0,0,.06-0.19,0.29,0.29,0,0,0-.05-0.18,0.36,0.36,0,0,0-.13-0.11l-0.17,0H19.13a0.71,0.71,0,0,0-.39.1,0.39,0.39,0,0,0-.17.31H18a0.85,0.85,0,0,1,.12-0.41,0.83,0.83,0,0,1,.27-0.26,1.08,1.08,0,0,1,.37-0.14,2.18,2.18,0,0,1,.42,0,1.77,1.77,0,0,1,.37,0,1,1,0,0,1,.33.13,0.72,0.72,0,0,1,.24.23,0.64,0.64,0,0,1,.09.35V130Zm-0.57-.72a0.69,0.69,0,0,1-.32.1l-0.38.05-0.17,0-0.15.08a0.33,0.33,0,0,0-.1.12,0.42,0.42,0,0,0,0,.19,0.24,0.24,0,0,0,.05.16,0.39,0.39,0,0,0,.13.1l0.17,0.05H19l0.2,0a0.67,0.67,0,0,0,.21-0.08,0.54,0.54,0,0,0,.16-0.15,0.39,0.39,0,0,0,.06-0.23V129.3Z"/><path class="egcore-9" d="M22.43,129.41a0.8,0.8,0,0,0,.07.35,0.62,0.62,0,0,0,.19.24,0.82,0.82,0,0,0,.29.13,1.38,1.38,0,0,0,.35,0,1.14,1.14,0,0,0,.35,0,0.7,0.7,0,0,0,.23-0.12,0.43,0.43,0,0,0,.13-0.17,0.51,0.51,0,0,0,0-.2,0.42,0.42,0,0,0-.09-0.3,0.54,0.54,0,0,0-.2-0.14l-0.44-.13-0.62-.16a1.34,1.34,0,0,1-.38-0.16,0.91,0.91,0,0,1-.24-0.22,0.76,0.76,0,0,1-.13-0.25,1,1,0,0,1,0-.27,0.92,0.92,0,0,1,.11-0.46,1,1,0,0,1,.3-0.33,1.3,1.3,0,0,1,.42-0.19,1.81,1.81,0,0,1,.47-0.06,1.86,1.86,0,0,1,.52.07,1.28,1.28,0,0,1,.43.22,1,1,0,0,1,.41.84H24a0.6,0.6,0,0,0-.23-0.48,0.93,0.93,0,0,0-.53-0.14l-0.22,0a0.72,0.72,0,0,0-.21.08,0.45,0.45,0,0,0-.16.14,0.43,0.43,0,0,0,.05.52,0.75,0.75,0,0,0,.31.16l0.16,0,0.31,0.08,0.33,0.09L24,128.66a1.06,1.06,0,0,1,.3.15,1,1,0,0,1,.22.22,0.89,0.89,0,0,1,.13.26,1,1,0,0,1,0,.28,1,1,0,0,1-.12.51,1,1,0,0,1-.32.35,1.39,1.39,0,0,1-.45.2,2.18,2.18,0,0,1-.52.06,2.13,2.13,0,0,1-.57-0.08,1.35,1.35,0,0,1-.47-0.23,1.12,1.12,0,0,1-.32-0.4,1.32,1.32,0,0,1-.12-0.57h0.62Z"/><path class="egcore-9" d="M24.78,128h0.43v-0.77h0.57V128h0.51v0.42H25.77v1.37a1.4,1.4,0,0,0,0,.15,0.26,0.26,0,0,0,0,.11,0.17,0.17,0,0,0,.08.07,0.39,0.39,0,0,0,.15,0h0.12l0.12,0v0.44l-0.18,0H25.92a1.25,1.25,0,0,1-.36,0,0.48,0.48,0,0,1-.21-0.12,0.44,0.44,0,0,1-.1-0.21,1.58,1.58,0,0,1,0-.28v-1.52H24.78V128Z"/><path class="egcore-9" d="M27.75,130.66a1.41,1.41,0,0,1-.55-0.1,1.18,1.18,0,0,1-.41-0.28,1.19,1.19,0,0,1-.25-0.43,1.75,1.75,0,0,1,0-1.09,1.2,1.2,0,0,1,.25-0.43,1.15,1.15,0,0,1,.41-0.28,1.52,1.52,0,0,1,1.1,0,1.15,1.15,0,0,1,.41.28,1.2,1.2,0,0,1,.25.43,1.75,1.75,0,0,1,0,1.09,1.2,1.2,0,0,1-.25.43,1.18,1.18,0,0,1-.41.28A1.41,1.41,0,0,1,27.75,130.66Zm0-.45a0.65,0.65,0,0,0,.33-0.08,0.7,0.7,0,0,0,.23-0.21,0.92,0.92,0,0,0,.13-0.29,1.31,1.31,0,0,0,0-.66,0.89,0.89,0,0,0-.13-0.29,0.72,0.72,0,0,0-.23-0.21,0.72,0.72,0,0,0-.66,0,0.71,0.71,0,0,0-.23.21,0.89,0.89,0,0,0-.13.29,1.3,1.3,0,0,0,0,.66,0.92,0.92,0,0,0,.13.29,0.7,0.7,0,0,0,.23.21A0.65,0.65,0,0,0,27.75,130.21Z"/><path class="egcore-9" d="M29.39,128h0.53v0.5h0a0.58,0.58,0,0,1,.1-0.2,1,1,0,0,1,.17-0.18,0.88,0.88,0,0,1,.23-0.13,0.7,0.7,0,0,1,.25,0H30.9v0.55l-0.12,0H30.66a0.65,0.65,0,0,0-.27.06,0.63,0.63,0,0,0-.22.17A0.82,0.82,0,0,0,30,129a1.19,1.19,0,0,0-.05.38v1.22H29.39V128Z"/><path class="egcore-9" d="M31.37,129.45a1,1,0,0,0,0,.29,0.71,0.71,0,0,0,.13.24,0.61,0.61,0,0,0,.21.17,0.7,0.7,0,0,0,.31.06,0.68,0.68,0,0,0,.4-0.11,0.63,0.63,0,0,0,.23-0.32h0.54a1.07,1.07,0,0,1-.15.37,1.09,1.09,0,0,1-.26.28,1.14,1.14,0,0,1-.35.17,1.39,1.39,0,0,1-.4.06,1.36,1.36,0,0,1-.54-0.1,1.09,1.09,0,0,1-.4-0.28,1.18,1.18,0,0,1-.24-0.43,1.73,1.73,0,0,1-.08-0.55,1.55,1.55,0,0,1,.09-0.52,1.33,1.33,0,0,1,.25-0.43A1.17,1.17,0,0,1,32,128a1.16,1.16,0,0,1,.54.13,1.2,1.2,0,0,1,.4.34,1.36,1.36,0,0,1,.23.48,1.47,1.47,0,0,1,0,.56H31.37Zm1.32-.37a0.94,0.94,0,0,0-.06-0.26,0.7,0.7,0,0,0-.13-0.22,0.64,0.64,0,0,0-.2-0.15A0.59,0.59,0,0,0,32,128.4a0.69,0.69,0,0,0-.27.05,0.63,0.63,0,0,0-.21.14,0.73,0.73,0,0,0-.14.22,0.76,0.76,0,0,0-.06.27h1.32Z"/><path class="egcore-9" d="M48,123.2a1.26,1.26,0,0,0-.11-0.28,0.79,0.79,0,0,0-.18-0.22,0.81,0.81,0,0,0-.26-0.15,1,1,0,0,0-.34-0.05,1,1,0,0,0-.49.11,1,1,0,0,0-.34.31,1.37,1.37,0,0,0-.19.43,2,2,0,0,0,0,1,1.38,1.38,0,0,0,.19.43,1,1,0,0,0,.34.31,1,1,0,0,0,.49.11,0.87,0.87,0,0,0,.37-0.07,0.82,0.82,0,0,0,.27-0.2,1,1,0,0,0,.18-0.3,1.44,1.44,0,0,0,.08-0.36h0.61a1.69,1.69,0,0,1-.14.58,1.43,1.43,0,0,1-.32.46,1.41,1.41,0,0,1-.47.3,1.62,1.62,0,0,1-.59.1,1.68,1.68,0,0,1-.71-0.15,1.56,1.56,0,0,1-.53-0.4,1.81,1.81,0,0,1-.34-0.59,2.27,2.27,0,0,1,0-1.44,1.79,1.79,0,0,1,.34-0.59,1.6,1.6,0,0,1,.53-0.4,1.65,1.65,0,0,1,.71-0.15,1.88,1.88,0,0,1,.56.08,1.45,1.45,0,0,1,.46.24,1.24,1.24,0,0,1,.33.38,1.33,1.33,0,0,1,.15.51H48Z"/><path class="egcore-9" d="M50.16,125.69a1.41,1.41,0,0,1-.55-0.1,1.18,1.18,0,0,1-.41-0.28,1.2,1.2,0,0,1-.25-0.43,1.75,1.75,0,0,1,0-1.09,1.2,1.2,0,0,1,.25-0.43,1.15,1.15,0,0,1,.41-0.28,1.52,1.52,0,0,1,1.1,0,1.15,1.15,0,0,1,.41.28,1.2,1.2,0,0,1,.25.43,1.75,1.75,0,0,1,0,1.09,1.2,1.2,0,0,1-.25.43,1.18,1.18,0,0,1-.41.28A1.41,1.41,0,0,1,50.16,125.69Zm0-.45a0.65,0.65,0,0,0,.33-0.08,0.7,0.7,0,0,0,.23-0.21,0.92,0.92,0,0,0,.13-0.29,1.31,1.31,0,0,0,0-.66,0.89,0.89,0,0,0-.13-0.29,0.72,0.72,0,0,0-.23-0.21,0.72,0.72,0,0,0-.66,0,0.71,0.71,0,0,0-.23.21,0.89,0.89,0,0,0-.13.29,1.3,1.3,0,0,0,0,.66,0.92,0.92,0,0,0,.13.29,0.7,0.7,0,0,0,.23.21A0.65,0.65,0,0,0,50.16,125.24Z"/><path class="egcore-9" d="M51.81,123h0.54v0.38h0a1,1,0,0,1,.34-0.34,0.9,0.9,0,0,1,.46-0.12,1,1,0,0,1,.67.22,0.84,0.84,0,0,1,.24.66v1.76H53.5V124a0.7,0.7,0,0,0-.13-0.44,0.47,0.47,0,0,0-.37-0.14,0.63,0.63,0,0,0-.26.05,0.57,0.57,0,0,0-.19.14,0.68,0.68,0,0,0-.12.22,0.77,0.77,0,0,0,0,.26v1.52H51.81V123Z"/><path class="egcore-9" d="M55,124.79a0.43,0.43,0,0,0,.19.35,0.74,0.74,0,0,0,.39.1h0.18l0.19,0a0.37,0.37,0,0,0,.15-0.1,0.24,0.24,0,0,0,.05-0.18,0.25,0.25,0,0,0-.08-0.18,0.55,0.55,0,0,0-.19-0.11l-0.27-.07-0.3-.06L55,124.39a1,1,0,0,1-.26-0.13,0.63,0.63,0,0,1-.19-0.22,0.69,0.69,0,0,1-.07-0.33,0.58,0.58,0,0,1,.1-0.35,0.77,0.77,0,0,1,.26-0.23,1.14,1.14,0,0,1,.35-0.12,2,2,0,0,1,.37,0,1.66,1.66,0,0,1,.38,0,1,1,0,0,1,.33.14,0.79,0.79,0,0,1,.24.25,0.84,0.84,0,0,1,.12.37H56a0.35,0.35,0,0,0-.19-0.27,0.77,0.77,0,0,0-.34-0.07H55.35l-0.15,0a0.32,0.32,0,0,0-.12.08,0.19,0.19,0,0,0,0,.14,0.22,0.22,0,0,0,.07.17,0.58,0.58,0,0,0,.19.11L55.55,124l0.31,0.06,0.3,0.08a1,1,0,0,1,.27.13,0.65,0.65,0,0,1,.19.21,0.64,0.64,0,0,1,.07.32,0.69,0.69,0,0,1-.1.39,0.82,0.82,0,0,1-.27.26,1.21,1.21,0,0,1-.37.14,1.84,1.84,0,0,1-.4,0,1.73,1.73,0,0,1-.45-0.05,1,1,0,0,1-.36-0.17,0.82,0.82,0,0,1-.24-0.28,0.89,0.89,0,0,1-.09-0.4H55Z"/><path class="egcore-9" d="M59.25,125.62H58.69v-0.36h0a0.78,0.78,0,0,1-.31.31,0.85,0.85,0,0,1-.42.12,0.94,0.94,0,0,1-.73-0.25,1.1,1.1,0,0,1-.23-0.76V123h0.57v1.58a0.69,0.69,0,0,0,.13.48,0.47,0.47,0,0,0,.36.14,0.72,0.72,0,0,0,.3-0.05,0.52,0.52,0,0,0,.19-0.15,0.57,0.57,0,0,0,.11-0.22,1.15,1.15,0,0,0,0-.28V123h0.57v2.57Z"/><path class="egcore-9" d="M59.72,123h0.54v0.36h0l0.14-.17a0.76,0.76,0,0,1,.17-0.13,0.82,0.82,0,0,1,.21-0.09,1.05,1.05,0,0,1,.27,0,0.94,0.94,0,0,1,.44.1,0.59,0.59,0,0,1,.29.32,1.15,1.15,0,0,1,.33-0.31,0.9,0.9,0,0,1,.47-0.12,0.93,0.93,0,0,1,.63.2,0.85,0.85,0,0,1,.23.67v1.78H62.89v-1.5c0-.1,0-0.2,0-0.28a0.56,0.56,0,0,0-.06-0.22,0.33,0.33,0,0,0-.14-0.14,0.56,0.56,0,0,0-.26,0,0.48,0.48,0,0,0-.42.18,0.86,0.86,0,0,0-.13.51v1.51H61.31V124a0.7,0.7,0,0,0-.1-0.41,0.41,0.41,0,0,0-.36-0.14,0.51,0.51,0,0,0-.21,0,0.5,0.5,0,0,0-.18.13,0.64,0.64,0,0,0-.12.21,0.8,0.8,0,0,0,0,.28v1.53H59.72V123Z"/><path class="egcore-9" d="M64.37,124.48a1,1,0,0,0,0,.29,0.71,0.71,0,0,0,.13.24,0.6,0.6,0,0,0,.21.17,0.69,0.69,0,0,0,.31.06,0.68,0.68,0,0,0,.4-0.11,0.63,0.63,0,0,0,.23-0.32h0.54a1.07,1.07,0,0,1-.42.65,1.14,1.14,0,0,1-.35.17,1.39,1.39,0,0,1-.4.06,1.36,1.36,0,0,1-.54-0.1,1.09,1.09,0,0,1-.39-0.28,1.17,1.17,0,0,1-.24-0.43,1.73,1.73,0,0,1-.08-0.55,1.56,1.56,0,0,1,.09-0.52,1.36,1.36,0,0,1,.25-0.43A1.17,1.17,0,0,1,65,123a1.16,1.16,0,0,1,.54.13,1.19,1.19,0,0,1,.4.34,1.35,1.35,0,0,1,.23.48,1.47,1.47,0,0,1,0,.56H64.37Zm1.32-.37a0.9,0.9,0,0,0-.06-0.26,0.69,0.69,0,0,0-.13-0.22,0.64,0.64,0,0,0-.2-0.15,0.58,0.58,0,0,0-.26-0.06,0.69,0.69,0,0,0-.27.05,0.61,0.61,0,0,0-.21.14,0.71,0.71,0,0,0-.14.22,0.76,0.76,0,0,0-.06.27h1.32Z"/><path class="egcore-9" d="M66.56,123H67.1v0.5h0a0.57,0.57,0,0,1,.1-0.2,0.92,0.92,0,0,1,.17-0.18A0.87,0.87,0,0,1,67.6,123a0.69,0.69,0,0,1,.25,0h0.21v0.55l-0.12,0H67.83a0.65,0.65,0,0,0-.27.06,0.62,0.62,0,0,0-.22.17,0.81,0.81,0,0,0-.15.28,1.2,1.2,0,0,0-.05.38v1.22H66.56V123Z"/><path class="egcore-9" d="M42.49,127h0.88l1,2.78h0l1-2.78h0.87v3.55H45.58v-2.74h0l-1,2.74H44.07l-1-2.74h0v2.74H42.49V127Z"/><path class="egcore-9" d="M48.87,130a0.3,0.3,0,0,0,0,.15,0.11,0.11,0,0,0,.11,0h0.14v0.39l-0.08,0-0.1,0H48.78a0.55,0.55,0,0,1-.29-0.07,0.35,0.35,0,0,1-.15-0.24,1,1,0,0,1-.42.24,1.63,1.63,0,0,1-.48.07,1.17,1.17,0,0,1-.33,0,0.86,0.86,0,0,1-.28-0.14,0.66,0.66,0,0,1-.19-0.23,0.72,0.72,0,0,1-.07-0.33,0.76,0.76,0,0,1,.09-0.39,0.65,0.65,0,0,1,.23-0.23,1,1,0,0,1,.32-0.12l0.36-.06,0.29,0,0.25,0a0.37,0.37,0,0,0,.17-0.09,0.25,0.25,0,0,0,.06-0.19,0.29,0.29,0,0,0-.05-0.18,0.36,0.36,0,0,0-.13-0.11l-0.17,0H47.8a0.71,0.71,0,0,0-.39.1,0.39,0.39,0,0,0-.17.31H46.67a0.85,0.85,0,0,1,.12-0.41,0.83,0.83,0,0,1,.27-0.26,1.08,1.08,0,0,1,.37-0.14,2.18,2.18,0,0,1,.42,0,1.77,1.77,0,0,1,.37,0,1,1,0,0,1,.33.13,0.72,0.72,0,0,1,.24.23,0.64,0.64,0,0,1,.09.35V130Zm-0.57-.72a0.69,0.69,0,0,1-.32.1l-0.38.05-0.17,0-0.15.08a0.33,0.33,0,0,0-.1.12,0.42,0.42,0,0,0,0,.19,0.24,0.24,0,0,0,.05.16,0.39,0.39,0,0,0,.13.1l0.17,0.05h0.17l0.2,0a0.67,0.67,0,0,0,.21-0.08,0.54,0.54,0,0,0,.16-0.15,0.39,0.39,0,0,0,.06-0.23V129.3Z"/><path class="egcore-9" d="M49.35,128h0.54v0.38h0a1,1,0,0,1,.34-0.34A0.9,0.9,0,0,1,50.7,128a1,1,0,0,1,.67.22,0.84,0.84,0,0,1,.24.66v1.76H51V129a0.7,0.7,0,0,0-.13-0.44,0.47,0.47,0,0,0-.37-0.14,0.63,0.63,0,0,0-.26.05,0.57,0.57,0,0,0-.19.14,0.68,0.68,0,0,0-.12.22,0.77,0.77,0,0,0,0,.26v1.52H49.35V128Z"/><path class="egcore-9" d="M54.24,130a0.3,0.3,0,0,0,0,.15,0.11,0.11,0,0,0,.11,0h0.14v0.39l-0.08,0-0.1,0H54.15a0.55,0.55,0,0,1-.29-0.07,0.35,0.35,0,0,1-.15-0.24,1,1,0,0,1-.42.24,1.63,1.63,0,0,1-.48.07,1.17,1.17,0,0,1-.33,0,0.86,0.86,0,0,1-.28-0.14,0.66,0.66,0,0,1-.19-0.23,0.72,0.72,0,0,1-.07-0.33,0.76,0.76,0,0,1,.09-0.39,0.65,0.65,0,0,1,.23-0.23,1,1,0,0,1,.32-0.12l0.36-.06,0.29,0,0.25,0a0.37,0.37,0,0,0,.17-0.09,0.25,0.25,0,0,0,.06-0.19,0.29,0.29,0,0,0-.05-0.18,0.36,0.36,0,0,0-.13-0.11l-0.17,0H53.17a0.71,0.71,0,0,0-.39.1,0.39,0.39,0,0,0-.17.31H52a0.85,0.85,0,0,1,.12-0.41,0.83,0.83,0,0,1,.27-0.26,1.08,1.08,0,0,1,.37-0.14,2.18,2.18,0,0,1,.42,0,1.77,1.77,0,0,1,.37,0,1,1,0,0,1,.33.13,0.72,0.72,0,0,1,.24.23,0.64,0.64,0,0,1,.09.35V130Zm-0.57-.72a0.69,0.69,0,0,1-.32.1l-0.38.05-0.17,0-0.15.08a0.33,0.33,0,0,0-.1.12,0.42,0.42,0,0,0,0,.19,0.24,0.24,0,0,0,.05.16,0.39,0.39,0,0,0,.13.1l0.17,0.05H53l0.2,0a0.67,0.67,0,0,0,.21-0.08,0.54,0.54,0,0,0,.16-0.15,0.39,0.39,0,0,0,.06-0.23V129.3Z"/><path class="egcore-9" d="M57.1,130.46a1.09,1.09,0,0,1-.33.87,1.38,1.38,0,0,1-.94.29,2,2,0,0,1-.39,0,1.17,1.17,0,0,1-.36-0.13,0.88,0.88,0,0,1-.27-0.25,0.76,0.76,0,0,1-.13-0.38h0.57a0.45,0.45,0,0,0,.08.19,0.44,0.44,0,0,0,.14.12,0.53,0.53,0,0,0,.18.05h0.21a0.66,0.66,0,0,0,.5-0.17,0.69,0.69,0,0,0,.16-0.49v-0.39h0a0.86,0.86,0,0,1-.33.33,0.88,0.88,0,0,1-.44.12,1.17,1.17,0,0,1-.52-0.11,1,1,0,0,1-.36-0.29,1.22,1.22,0,0,1-.21-0.43,2,2,0,0,1-.06-0.52,1.53,1.53,0,0,1,.08-0.49,1.27,1.27,0,0,1,.23-0.41,1.09,1.09,0,0,1,.85-0.39,1,1,0,0,1,.45.1,0.69,0.69,0,0,1,.31.32h0V128H57.1v2.44Zm-1.26-.31a0.62,0.62,0,0,0,.32-0.08,0.63,0.63,0,0,0,.21-0.2,0.89,0.89,0,0,0,.12-0.29,1.44,1.44,0,0,0,0-.33,1.28,1.28,0,0,0,0-.32,0.86,0.86,0,0,0-.12-0.27,0.6,0.6,0,0,0-.21-0.19,0.66,0.66,0,0,0-.32-0.07,0.6,0.6,0,0,0-.32.08,0.65,0.65,0,0,0-.21.21,0.88,0.88,0,0,0-.11.29,1.5,1.5,0,0,0,0,.32,1.2,1.2,0,0,0,0,.31,0.86,0.86,0,0,0,.12.27,0.66,0.66,0,0,0,.21.19A0.59,0.59,0,0,0,55.84,130.15Z"/><path class="egcore-9" d="M58,129.45a1,1,0,0,0,0,.29,0.71,0.71,0,0,0,.13.24,0.61,0.61,0,0,0,.21.17,0.7,0.7,0,0,0,.31.06,0.68,0.68,0,0,0,.4-0.11,0.64,0.64,0,0,0,.23-0.32h0.54a1.07,1.07,0,0,1-.42.65,1.14,1.14,0,0,1-.35.17,1.39,1.39,0,0,1-.4.06,1.36,1.36,0,0,1-.54-0.1,1.09,1.09,0,0,1-.4-0.28,1.18,1.18,0,0,1-.24-0.43,1.73,1.73,0,0,1-.08-0.55,1.55,1.55,0,0,1,.09-0.52,1.33,1.33,0,0,1,.25-0.43,1.17,1.17,0,0,1,.91-0.41,1.16,1.16,0,0,1,.54.13,1.19,1.19,0,0,1,.4.34,1.35,1.35,0,0,1,.23.48,1.47,1.47,0,0,1,0,.56H58Zm1.32-.37a0.9,0.9,0,0,0-.06-0.26,0.69,0.69,0,0,0-.13-0.22,0.64,0.64,0,0,0-.2-0.15,0.59,0.59,0,0,0-.26-0.06,0.69,0.69,0,0,0-.27.05,0.63,0.63,0,0,0-.21.14,0.73,0.73,0,0,0-.14.22,0.76,0.76,0,0,0-.06.27h1.32Z"/><path class="egcore-9" d="M60.19,128h0.54v0.36h0l0.14-.17a0.76,0.76,0,0,1,.17-0.13,0.82,0.82,0,0,1,.21-0.09,1.05,1.05,0,0,1,.27,0,0.94,0.94,0,0,1,.44.1,0.59,0.59,0,0,1,.29.32,1.15,1.15,0,0,1,.33-0.31,0.9,0.9,0,0,1,.47-0.12,0.93,0.93,0,0,1,.63.2,0.85,0.85,0,0,1,.23.67v1.78H63.35v-1.5c0-.1,0-0.2,0-0.28a0.56,0.56,0,0,0-.06-0.22,0.33,0.33,0,0,0-.14-0.14,0.56,0.56,0,0,0-.26,0,0.48,0.48,0,0,0-.42.18,0.86,0.86,0,0,0-.13.51v1.51H61.77v-1.65a0.7,0.7,0,0,0-.1-0.41,0.41,0.41,0,0,0-.36-0.14,0.51,0.51,0,0,0-.21,0,0.5,0.5,0,0,0-.18.13,0.64,0.64,0,0,0-.12.21,0.8,0.8,0,0,0,0,.28v1.53H60.19V128Z"/><path class="egcore-9" d="M64.83,129.45a1,1,0,0,0,0,.29A0.71,0.71,0,0,0,65,130a0.6,0.6,0,0,0,.21.17,0.69,0.69,0,0,0,.31.06,0.68,0.68,0,0,0,.4-0.11,0.63,0.63,0,0,0,.23-0.32h0.54a1.07,1.07,0,0,1-.42.65,1.14,1.14,0,0,1-.35.17,1.39,1.39,0,0,1-.4.06,1.36,1.36,0,0,1-.54-0.1,1.09,1.09,0,0,1-.39-0.28,1.17,1.17,0,0,1-.24-0.43,1.73,1.73,0,0,1-.08-0.55,1.56,1.56,0,0,1,.09-0.52,1.36,1.36,0,0,1,.25-0.43,1.17,1.17,0,0,1,.91-0.41,1.16,1.16,0,0,1,.54.13,1.19,1.19,0,0,1,.4.34,1.35,1.35,0,0,1,.23.48,1.47,1.47,0,0,1,0,.56H64.83Zm1.32-.37a0.9,0.9,0,0,0-.06-0.26,0.69,0.69,0,0,0-.13-0.22,0.64,0.64,0,0,0-.2-0.15,0.58,0.58,0,0,0-.26-0.06,0.69,0.69,0,0,0-.27.05,0.61,0.61,0,0,0-.21.14,0.71,0.71,0,0,0-.14.22,0.76,0.76,0,0,0-.06.27h1.32Z"/><path class="egcore-9" d="M67,128h0.54v0.38h0a0.94,0.94,0,0,1,.34-0.34,0.9,0.9,0,0,1,.46-0.12,1,1,0,0,1,.67.22,0.83,0.83,0,0,1,.24.66v1.76H68.72V129a0.69,0.69,0,0,0-.13-0.44,0.47,0.47,0,0,0-.37-0.14,0.62,0.62,0,0,0-.26.05,0.55,0.55,0,0,0-.19.14,0.67,0.67,0,0,0-.12.22,0.76,0.76,0,0,0,0,.26v1.52H67V128Z"/><path class="egcore-9" d="M69.5,128h0.43v-0.77h0.57V128H71v0.42H70.49v1.37a1.38,1.38,0,0,0,0,.15,0.28,0.28,0,0,0,0,.11,0.17,0.17,0,0,0,.08.07,0.39,0.39,0,0,0,.15,0h0.12l0.12,0v0.44l-0.18,0H70.64a1.25,1.25,0,0,1-.36,0,0.48,0.48,0,0,1-.21-0.12,0.42,0.42,0,0,1-.1-0.21,1.5,1.5,0,0,1,0-.28v-1.52H69.5V128Z"/><path class="egcore-9" d="M83.73,124.13h1.57a1.48,1.48,0,0,1,.62.11,1,1,0,0,1,.37.27,0.94,0.94,0,0,1,.18.36,1.54,1.54,0,0,1,0,.36,1.5,1.5,0,0,1,0,.36,0.91,0.91,0,0,1-.54.63,1.52,1.52,0,0,1-.62.11H84.35v1.36H83.73v-3.55Zm0.62,1.68h0.91l0.21,0a0.6,0.6,0,0,0,.2-0.1,0.5,0.5,0,0,0,.15-0.18,0.62,0.62,0,0,0,.06-0.28,0.74,0.74,0,0,0,0-.29,0.46,0.46,0,0,0-.13-0.18,0.48,0.48,0,0,0-.19-0.09l-0.23,0H84.35v1.17Z"/><path class="egcore-9" d="M86.85,124.13h0.57v3.55H86.85v-3.55Z"/><path class="egcore-9" d="M90.17,127.68H89.61v-0.36h0a0.78,0.78,0,0,1-.31.31,0.85,0.85,0,0,1-.42.12,0.94,0.94,0,0,1-.73-0.25,1.1,1.1,0,0,1-.23-0.76v-1.63h0.57v1.58a0.69,0.69,0,0,0,.13.48,0.47,0.47,0,0,0,.36.14,0.72,0.72,0,0,0,.3-0.05,0.52,0.52,0,0,0,.19-0.15,0.56,0.56,0,0,0,.11-0.22,1.14,1.14,0,0,0,0-.28v-1.49h0.57v2.57Z"/><path class="egcore-9" d="M93,127.54a1.09,1.09,0,0,1-.33.87,1.38,1.38,0,0,1-.94.29,2,2,0,0,1-.39,0,1.16,1.16,0,0,1-.36-0.13,0.87,0.87,0,0,1-.27-0.25,0.76,0.76,0,0,1-.13-0.38h0.57a0.46,0.46,0,0,0,.08.19,0.45,0.45,0,0,0,.14.12,0.53,0.53,0,0,0,.18.05h0.21a0.66,0.66,0,0,0,.5-0.17,0.69,0.69,0,0,0,.16-0.49v-0.39h0a0.87,0.87,0,0,1-.33.33,0.88,0.88,0,0,1-.45.12,1.18,1.18,0,0,1-.52-0.11,1,1,0,0,1-.36-0.29,1.21,1.21,0,0,1-.21-0.43,2,2,0,0,1-.06-0.52,1.5,1.5,0,0,1,.08-0.49,1.26,1.26,0,0,1,.23-0.41,1.09,1.09,0,0,1,.86-0.39,1,1,0,0,1,.45.1,0.69,0.69,0,0,1,.31.32h0v-0.35H93v2.44Zm-1.26-.31a0.62,0.62,0,0,0,.32-0.08,0.63,0.63,0,0,0,.21-0.2,0.91,0.91,0,0,0,.12-0.29,1.47,1.47,0,0,0,0-.33,1.28,1.28,0,0,0,0-.32,0.86,0.86,0,0,0-.12-0.27,0.6,0.6,0,0,0-.21-0.19,0.66,0.66,0,0,0-.32-0.07,0.6,0.6,0,0,0-.32.08,0.66,0.66,0,0,0-.21.21,0.9,0.9,0,0,0-.11.29,1.5,1.5,0,0,0,0,.32,1.22,1.22,0,0,0,0,.31,0.86,0.86,0,0,0,.12.27,0.65,0.65,0,0,0,.21.19A0.59,0.59,0,0,0,91.76,127.23Z"/><path class="egcore-9" d="M93.48,124.13H94v0.54H93.48v-0.54Zm0,1H94v2.57H93.48v-2.57Z"/><path class="egcore-9" d="M94.54,125.11h0.54v0.38h0a0.94,0.94,0,0,1,.34-0.34,0.9,0.9,0,0,1,.46-0.12,1,1,0,0,1,.67.22,0.83,0.83,0,0,1,.24.66v1.76H96.23v-1.62a0.69,0.69,0,0,0-.13-0.44,0.47,0.47,0,0,0-.37-0.14,0.62,0.62,0,0,0-.26.05,0.55,0.55,0,0,0-.19.14,0.67,0.67,0,0,0-.12.22,0.76,0.76,0,0,0,0,.26v1.52H94.54v-2.57Z"/><path class="egcore-9" d="M97.7,126.85a0.43,0.43,0,0,0,.19.35,0.74,0.74,0,0,0,.39.1h0.18l0.19,0a0.37,0.37,0,0,0,.15-0.1,0.25,0.25,0,0,0,.05-0.18,0.25,0.25,0,0,0-.08-0.18,0.55,0.55,0,0,0-.19-0.11l-0.27-.07-0.3-.06-0.31-.08a1,1,0,0,1-.26-0.13,0.63,0.63,0,0,1-.19-0.22,0.69,0.69,0,0,1-.07-0.33,0.59,0.59,0,0,1,.1-0.35,0.78,0.78,0,0,1,.26-0.23,1.15,1.15,0,0,1,.35-0.12,2,2,0,0,1,.37,0,1.67,1.67,0,0,1,.38,0,1,1,0,0,1,.33.14,0.8,0.8,0,0,1,.24.25,0.85,0.85,0,0,1,.12.37H98.74a0.36,0.36,0,0,0-.19-0.27,0.77,0.77,0,0,0-.34-0.07H98.08l-0.15,0a0.33,0.33,0,0,0-.12.08,0.19,0.19,0,0,0,0,.14,0.22,0.22,0,0,0,.07.17A0.57,0.57,0,0,0,98,126l0.27,0.07,0.31,0.06,0.3,0.08a1,1,0,0,1,.27.13,0.66,0.66,0,0,1,.19.21,0.65,0.65,0,0,1,.07.32,0.69,0.69,0,0,1-.1.39,0.83,0.83,0,0,1-.27.26,1.22,1.22,0,0,1-.37.14,1.84,1.84,0,0,1-.4,0,1.73,1.73,0,0,1-.45-0.05,1.05,1.05,0,0,1-.36-0.17,0.82,0.82,0,0,1-.24-0.28,0.89,0.89,0,0,1-.09-0.4H97.7Z"/><rect class="egcore-8" x="6.07" y="108.78" width="101.3" height="9.75" rx="3.14" ry="3.14"/><path class="egcore-9" d="M30.7,112.92a1.26,1.26,0,0,0-.11-0.28,0.79,0.79,0,0,0-.18-0.22,0.81,0.81,0,0,0-.26-0.15,1,1,0,0,0-.34-0.05,1,1,0,0,0-.49.11,1,1,0,0,0-.34.31,1.37,1.37,0,0,0-.19.43,2,2,0,0,0,0,1,1.38,1.38,0,0,0,.19.43,1,1,0,0,0,.34.31,1,1,0,0,0,.49.11,0.87,0.87,0,0,0,.37-0.07,0.82,0.82,0,0,0,.27-0.2,1,1,0,0,0,.18-0.3,1.44,1.44,0,0,0,.08-0.36h0.61a1.69,1.69,0,0,1-.14.58,1.43,1.43,0,0,1-.32.46,1.41,1.41,0,0,1-.47.3,1.62,1.62,0,0,1-.59.1,1.68,1.68,0,0,1-.71-0.15,1.56,1.56,0,0,1-.53-0.4,1.81,1.81,0,0,1-.34-0.59,2.27,2.27,0,0,1,0-1.44,1.79,1.79,0,0,1,.34-0.59,1.6,1.6,0,0,1,.53-0.4,1.65,1.65,0,0,1,.71-0.15,1.88,1.88,0,0,1,.56.08,1.45,1.45,0,0,1,.46.24,1.24,1.24,0,0,1,.33.38,1.33,1.33,0,0,1,.15.51H30.7Z"/><path class="egcore-9" d="M32.21,114.2a1,1,0,0,0,0,.29,0.71,0.71,0,0,0,.13.24,0.61,0.61,0,0,0,.21.17,0.7,0.7,0,0,0,.31.06,0.68,0.68,0,0,0,.4-0.11,0.63,0.63,0,0,0,.23-0.32h0.54a1.07,1.07,0,0,1-.15.37,1.09,1.09,0,0,1-.26.28,1.14,1.14,0,0,1-.35.17,1.39,1.39,0,0,1-.4.06,1.36,1.36,0,0,1-.54-0.1A1.09,1.09,0,0,1,32,115a1.18,1.18,0,0,1-.24-0.43,1.73,1.73,0,0,1-.08-0.55,1.55,1.55,0,0,1,.09-0.52,1.33,1.33,0,0,1,.25-0.43,1.17,1.17,0,0,1,.91-0.41,1.16,1.16,0,0,1,.54.13,1.2,1.2,0,0,1,.4.34,1.36,1.36,0,0,1,.23.48,1.47,1.47,0,0,1,0,.56H32.21Zm1.32-.37a0.94,0.94,0,0,0-.06-0.26,0.7,0.7,0,0,0-.13-0.22,0.64,0.64,0,0,0-.2-0.15,0.59,0.59,0,0,0-.26-0.06,0.69,0.69,0,0,0-.27.05,0.63,0.63,0,0,0-.21.14,0.73,0.73,0,0,0-.14.22,0.76,0.76,0,0,0-.06.27h1.32Z"/><path class="egcore-9" d="M34.48,112.77H35v0.38h0a1,1,0,0,1,.34-0.34,0.9,0.9,0,0,1,.46-0.12,1,1,0,0,1,.67.22,0.84,0.84,0,0,1,.24.66v1.76H36.17v-1.62a0.7,0.7,0,0,0-.13-0.44,0.47,0.47,0,0,0-.37-0.14,0.63,0.63,0,0,0-.26.05,0.57,0.57,0,0,0-.19.14,0.68,0.68,0,0,0-.12.22,0.77,0.77,0,0,0,0,.26v1.52H34.48v-2.57Z"/><path class="egcore-9" d="M37,112.77h0.43V112H38v0.77h0.51v0.42H38v1.37a1.4,1.4,0,0,0,0,.15,0.26,0.26,0,0,0,0,.11,0.17,0.17,0,0,0,.08.07,0.39,0.39,0,0,0,.15,0h0.12l0.12,0v0.44l-0.18,0H38.17a1.25,1.25,0,0,1-.36,0,0.48,0.48,0,0,1-.21-0.12,0.44,0.44,0,0,1-.1-0.21,1.58,1.58,0,0,1,0-.28v-1.52H37v-0.42Z"/><path class="egcore-9" d="M38.89,112.77h0.53v0.5h0a0.58,0.58,0,0,1,.1-0.2,1,1,0,0,1,.17-0.18,0.88,0.88,0,0,1,.23-0.13,0.7,0.7,0,0,1,.25,0H40.4v0.55l-0.12,0H40.15a0.65,0.65,0,0,0-.27.06,0.63,0.63,0,0,0-.22.17,0.82,0.82,0,0,0-.15.28,1.19,1.19,0,0,0-.05.38v1.22H38.89v-2.57Z"/><path class="egcore-9" d="M42.75,114.77a0.3,0.3,0,0,0,0,.15,0.11,0.11,0,0,0,.11,0H43v0.39l-0.08,0-0.1,0H42.66a0.55,0.55,0,0,1-.29-0.07,0.35,0.35,0,0,1-.15-0.24,1,1,0,0,1-.42.24,1.63,1.63,0,0,1-.48.07,1.17,1.17,0,0,1-.33,0,0.86,0.86,0,0,1-.28-0.14,0.66,0.66,0,0,1-.19-0.23,0.72,0.72,0,0,1-.07-0.33,0.76,0.76,0,0,1,.09-0.39,0.65,0.65,0,0,1,.23-0.23,1,1,0,0,1,.32-0.12l0.36-.06,0.29,0,0.25,0a0.37,0.37,0,0,0,.17-0.09,0.25,0.25,0,0,0,.06-0.19,0.29,0.29,0,0,0-.05-0.18,0.36,0.36,0,0,0-.13-0.11l-0.17,0H41.68a0.71,0.71,0,0,0-.39.1,0.39,0.39,0,0,0-.17.31H40.55a0.85,0.85,0,0,1,.12-0.41,0.83,0.83,0,0,1,.27-0.26,1.08,1.08,0,0,1,.37-0.14,2.18,2.18,0,0,1,.42,0,1.77,1.77,0,0,1,.37,0,1,1,0,0,1,.33.13,0.72,0.72,0,0,1,.24.23,0.64,0.64,0,0,1,.09.35v1.32Zm-0.57-.72a0.69,0.69,0,0,1-.32.1l-0.38.05-0.17,0-0.15.08a0.33,0.33,0,0,0-.1.12,0.42,0.42,0,0,0,0,.19,0.24,0.24,0,0,0,.05.16,0.39,0.39,0,0,0,.13.1l0.17,0.05h0.17l0.2,0a0.67,0.67,0,0,0,.21-0.08,0.54,0.54,0,0,0,.16-0.15,0.39,0.39,0,0,0,.06-0.23v-0.42Z"/><path class="egcore-9" d="M43.32,111.79h0.57v3.55H43.32v-3.55Z"/><path class="egcore-9" d="M44.47,111.79H45v0.54H44.47v-0.54Zm0,1H45v2.57H44.47v-2.57Z"/><path class="egcore-9" d="M45.51,112.77H47.6v0.4l-1.47,1.73h1.55v0.45H45.42v-0.4l1.42-1.73H45.51v-0.45Z"/><path class="egcore-9" d="M48.48,114.2a1,1,0,0,0,0,.29,0.71,0.71,0,0,0,.13.24,0.61,0.61,0,0,0,.21.17,0.7,0.7,0,0,0,.31.06,0.68,0.68,0,0,0,.4-0.11,0.63,0.63,0,0,0,.23-0.32h0.54a1.07,1.07,0,0,1-.15.37,1.09,1.09,0,0,1-.26.28,1.14,1.14,0,0,1-.35.17,1.39,1.39,0,0,1-.4.06,1.36,1.36,0,0,1-.54-0.1,1.09,1.09,0,0,1-.4-0.28,1.18,1.18,0,0,1-.24-0.43,1.73,1.73,0,0,1-.08-0.55,1.55,1.55,0,0,1,.09-0.52,1.33,1.33,0,0,1,.25-0.43,1.17,1.17,0,0,1,.91-0.41,1.16,1.16,0,0,1,.54.13,1.2,1.2,0,0,1,.4.34,1.36,1.36,0,0,1,.23.48,1.47,1.47,0,0,1,0,.56H48.48Zm1.32-.37a0.94,0.94,0,0,0-.06-0.26,0.7,0.7,0,0,0-.13-0.22,0.64,0.64,0,0,0-.2-0.15,0.59,0.59,0,0,0-.26-0.06,0.69,0.69,0,0,0-.27.05,0.63,0.63,0,0,0-.21.14,0.73,0.73,0,0,0-.14.22,0.76,0.76,0,0,0-.06.27h1.32Z"/><path class="egcore-9" d="M53.18,115.34H52.64V115h0a0.68,0.68,0,0,1-.33.32,1.13,1.13,0,0,1-.46.1,1.23,1.23,0,0,1-.53-0.11,1.05,1.05,0,0,1-.38-0.29,1.25,1.25,0,0,1-.22-0.44,1.88,1.88,0,0,1-.07-0.54,1.72,1.72,0,0,1,.09-0.6A1.21,1.21,0,0,1,51,113a1,1,0,0,1,.36-0.24,1.15,1.15,0,0,1,.41-0.08l0.24,0a1.11,1.11,0,0,1,.24.07,0.94,0.94,0,0,1,.21.13,0.73,0.73,0,0,1,.16.18h0v-1.31h0.57v3.55Zm-2-1.26a1.25,1.25,0,0,0,0,.32,0.88,0.88,0,0,0,.13.28,0.63,0.63,0,0,0,.54.27,0.64,0.64,0,0,0,.33-0.08,0.69,0.69,0,0,0,.22-0.21,1,1,0,0,0,.13-0.29,1.29,1.29,0,0,0,0-.33,1,1,0,0,0-.19-0.67,0.63,0.63,0,0,0-.52-0.24,0.64,0.64,0,0,0-.34.08,0.69,0.69,0,0,0-.22.21,0.88,0.88,0,0,0-.12.3A1.55,1.55,0,0,0,51.2,114.08Z"/><path class="egcore-9" d="M57.55,112.92a1.26,1.26,0,0,0-.11-0.28,0.79,0.79,0,0,0-.18-0.22,0.81,0.81,0,0,0-.26-0.15,1,1,0,0,0-.34-0.05,1,1,0,0,0-.49.11,1,1,0,0,0-.34.31,1.37,1.37,0,0,0-.19.43,2,2,0,0,0,0,1,1.38,1.38,0,0,0,.19.43,1,1,0,0,0,.34.31,1,1,0,0,0,.49.11,0.87,0.87,0,0,0,.37-0.07,0.82,0.82,0,0,0,.27-0.2,1,1,0,0,0,.18-0.3,1.44,1.44,0,0,0,.08-0.36h0.61a1.69,1.69,0,0,1-.14.58,1.43,1.43,0,0,1-.32.46,1.41,1.41,0,0,1-.47.3,1.62,1.62,0,0,1-.59.1,1.68,1.68,0,0,1-.71-0.15,1.56,1.56,0,0,1-.53-0.4,1.81,1.81,0,0,1-.34-0.59,2.27,2.27,0,0,1,0-1.44,1.79,1.79,0,0,1,.34-0.59,1.6,1.6,0,0,1,.53-0.4,1.65,1.65,0,0,1,.71-0.15,1.88,1.88,0,0,1,.56.08,1.45,1.45,0,0,1,.46.24,1.24,1.24,0,0,1,.33.38,1.33,1.33,0,0,1,.15.51H57.55Z"/><path class="egcore-9" d="M59.79,115.41a1.41,1.41,0,0,1-.55-0.1,1.18,1.18,0,0,1-.41-0.28,1.2,1.2,0,0,1-.25-0.43,1.76,1.76,0,0,1,0-1.09,1.21,1.21,0,0,1,.25-0.43,1.16,1.16,0,0,1,.41-0.28,1.52,1.52,0,0,1,1.1,0,1.16,1.16,0,0,1,.41.28,1.21,1.21,0,0,1,.25.43,1.75,1.75,0,0,1,0,1.09,1.2,1.2,0,0,1-.25.43,1.19,1.19,0,0,1-.41.28A1.41,1.41,0,0,1,59.79,115.41Zm0-.45a0.65,0.65,0,0,0,.33-0.08,0.7,0.7,0,0,0,.23-0.21,0.92,0.92,0,0,0,.13-0.29,1.29,1.29,0,0,0,0-.66,0.89,0.89,0,0,0-.13-0.29,0.71,0.71,0,0,0-.23-0.21,0.72,0.72,0,0,0-.66,0,0.71,0.71,0,0,0-.23.21,0.89,0.89,0,0,0-.13.29,1.31,1.31,0,0,0,0,.66,0.92,0.92,0,0,0,.13.29,0.7,0.7,0,0,0,.23.21A0.65,0.65,0,0,0,59.79,115Z"/><path class="egcore-9" d="M61.51,112.77h0.54v0.38h0a0.94,0.94,0,0,1,.34-0.34,0.9,0.9,0,0,1,.46-0.12,1,1,0,0,1,.67.22,0.83,0.83,0,0,1,.24.66v1.76H63.21v-1.62a0.69,0.69,0,0,0-.13-0.44,0.47,0.47,0,0,0-.37-0.14,0.62,0.62,0,0,0-.26.05,0.55,0.55,0,0,0-.19.14,0.67,0.67,0,0,0-.12.22,0.76,0.76,0,0,0,0,.26v1.52H61.51v-2.57Z"/><path class="egcore-9" d="M64.06,112.77h0.42v-0.21a1.1,1.1,0,0,1,.06-0.4,0.56,0.56,0,0,1,.16-0.23,0.51,0.51,0,0,1,.23-0.11l0.27,0a1.67,1.67,0,0,1,.4,0v0.44l-0.12,0H65.33a0.35,0.35,0,0,0-.2.05,0.24,0.24,0,0,0-.08.21v0.26h0.48v0.42H65.05v2.15H64.49v-2.15H64.06v-0.42Z"/><path class="egcore-9" d="M65.85,111.79h0.57v0.54H65.85v-0.54Zm0,1h0.57v2.57H65.85v-2.57Z"/><path class="egcore-9" d="M69.36,115.21a1.09,1.09,0,0,1-.33.87,1.38,1.38,0,0,1-.94.29,2,2,0,0,1-.39,0,1.16,1.16,0,0,1-.36-0.13,0.87,0.87,0,0,1-.27-0.25,0.76,0.76,0,0,1-.13-0.38h0.57a0.46,0.46,0,0,0,.08.19,0.45,0.45,0,0,0,.14.12,0.53,0.53,0,0,0,.18.05h0.21a0.66,0.66,0,0,0,.5-0.17,0.69,0.69,0,0,0,.16-0.49v-0.39h0a0.87,0.87,0,0,1-.33.33,0.88,0.88,0,0,1-.45.12,1.18,1.18,0,0,1-.52-0.11,1,1,0,0,1-.36-0.29,1.21,1.21,0,0,1-.21-0.43,2,2,0,0,1-.06-0.52,1.5,1.5,0,0,1,.08-0.49,1.26,1.26,0,0,1,.23-0.41A1.09,1.09,0,0,1,68,112.7a1,1,0,0,1,.45.1,0.69,0.69,0,0,1,.31.32h0v-0.35h0.57v2.44Zm-1.26-.31a0.62,0.62,0,0,0,.32-0.08,0.63,0.63,0,0,0,.21-0.2,0.91,0.91,0,0,0,.12-0.29,1.47,1.47,0,0,0,0-.33,1.28,1.28,0,0,0,0-.32,0.86,0.86,0,0,0-.12-0.27,0.6,0.6,0,0,0-.21-0.19,0.66,0.66,0,0,0-.32-0.07,0.6,0.6,0,0,0-.32.08,0.66,0.66,0,0,0-.21.21,0.9,0.9,0,0,0-.11.29,1.5,1.5,0,0,0,0,.32,1.22,1.22,0,0,0,0,.31,0.86,0.86,0,0,0,.12.27,0.65,0.65,0,0,0,.21.19A0.59,0.59,0,0,0,68.1,114.9Z"/><path class="egcore-9" d="M72.14,115.34H71.58V115h0a0.78,0.78,0,0,1-.31.31,0.85,0.85,0,0,1-.42.12,0.94,0.94,0,0,1-.73-0.25,1.1,1.1,0,0,1-.23-0.76v-1.63h0.57v1.58a0.69,0.69,0,0,0,.13.48,0.47,0.47,0,0,0,.36.14,0.72,0.72,0,0,0,.3-0.05,0.52,0.52,0,0,0,.19-0.15,0.56,0.56,0,0,0,.11-0.22,1.14,1.14,0,0,0,0-.28v-1.49h0.57v2.57Z"/><path class="egcore-9" d="M72.69,112.77h0.53v0.5h0a0.57,0.57,0,0,1,.1-0.2,0.92,0.92,0,0,1,.17-0.18,0.87,0.87,0,0,1,.23-0.13,0.69,0.69,0,0,1,.25,0h0.21v0.55l-0.12,0H73.95a0.65,0.65,0,0,0-.27.06,0.62,0.62,0,0,0-.22.17,0.81,0.81,0,0,0-.15.28,1.2,1.2,0,0,0-.05.38v1.22H72.69v-2.57Z"/><path class="egcore-9" d="M76.54,114.77a0.3,0.3,0,0,0,0,.15,0.12,0.12,0,0,0,.11,0h0.14v0.39l-0.08,0-0.1,0H76.45a0.55,0.55,0,0,1-.29-0.07A0.35,0.35,0,0,1,76,115.1a1,1,0,0,1-.42.24,1.63,1.63,0,0,1-.47.07,1.17,1.17,0,0,1-.33,0,0.86,0.86,0,0,1-.28-0.14,0.66,0.66,0,0,1-.19-0.23,0.72,0.72,0,0,1-.07-0.33,0.77,0.77,0,0,1,.09-0.39,0.65,0.65,0,0,1,.23-0.23,1,1,0,0,1,.32-0.12l0.36-.06,0.29,0,0.25,0a0.38,0.38,0,0,0,.17-0.09A0.25,0.25,0,0,0,76,113.5a0.29,0.29,0,0,0-.05-0.18,0.35,0.35,0,0,0-.13-0.11l-0.17,0H75.48a0.71,0.71,0,0,0-.39.1,0.39,0.39,0,0,0-.17.31H74.34a0.85,0.85,0,0,1,.12-0.41,0.83,0.83,0,0,1,.27-0.26,1.09,1.09,0,0,1,.37-0.14,2.2,2.2,0,0,1,.42,0,1.77,1.77,0,0,1,.37,0,1,1,0,0,1,.33.13,0.72,0.72,0,0,1,.24.23,0.64,0.64,0,0,1,.09.35v1.32ZM76,114.05a0.69,0.69,0,0,1-.32.1l-0.38.05-0.17,0-0.15.08a0.33,0.33,0,0,0-.1.12,0.42,0.42,0,0,0,0,.19,0.24,0.24,0,0,0,.05.16,0.4,0.4,0,0,0,.13.1l0.17,0.05h0.17l0.2,0a0.68,0.68,0,0,0,.21-0.08,0.54,0.54,0,0,0,.16-0.15,0.38,0.38,0,0,0,.07-0.23v-0.42Z"/><path class="egcore-9" d="M76.84,112.77h0.43V112h0.57v0.77h0.51v0.42H77.84v1.37a1.38,1.38,0,0,0,0,.15,0.28,0.28,0,0,0,0,.11,0.17,0.17,0,0,0,.08.07,0.39,0.39,0,0,0,.15,0h0.12l0.12,0v0.44l-0.18,0H78a1.25,1.25,0,0,1-.36,0,0.48,0.48,0,0,1-.21-0.12,0.42,0.42,0,0,1-.1-0.21,1.5,1.5,0,0,1,0-.28v-1.52H76.84v-0.42Z"/><path class="egcore-9" d="M78.72,111.79h0.57v0.54H78.72v-0.54Zm0,1h0.57v2.57H78.72v-2.57Z"/><path class="egcore-9" d="M81,115.41a1.41,1.41,0,0,1-.55-0.1,1.18,1.18,0,0,1-.41-0.28,1.2,1.2,0,0,1-.25-0.43,1.75,1.75,0,0,1,0-1.09,1.21,1.21,0,0,1,.25-0.43,1.16,1.16,0,0,1,.41-0.28,1.52,1.52,0,0,1,1.1,0,1.16,1.16,0,0,1,.41.28,1.21,1.21,0,0,1,.25.43,1.75,1.75,0,0,1,0,1.09A1.2,1.2,0,0,1,82,115a1.19,1.19,0,0,1-.41.28A1.41,1.41,0,0,1,81,115.41Zm0-.45a0.65,0.65,0,0,0,.33-0.08,0.7,0.7,0,0,0,.23-0.21,0.92,0.92,0,0,0,.13-0.29,1.29,1.29,0,0,0,0-.66,0.89,0.89,0,0,0-.13-0.29,0.71,0.71,0,0,0-.23-0.21,0.72,0.72,0,0,0-.66,0,0.71,0.71,0,0,0-.23.21,0.89,0.89,0,0,0-.13.29,1.31,1.31,0,0,0,0,.66,0.92,0.92,0,0,0,.13.29,0.7,0.7,0,0,0,.23.21A0.65,0.65,0,0,0,81,115Z"/><path class="egcore-9" d="M82.75,112.77h0.54v0.38h0a0.94,0.94,0,0,1,.34-0.34,0.9,0.9,0,0,1,.46-0.12,1,1,0,0,1,.67.22,0.83,0.83,0,0,1,.24.66v1.76H84.44v-1.62a0.69,0.69,0,0,0-.13-0.44,0.47,0.47,0,0,0-.37-0.14,0.62,0.62,0,0,0-.26.05,0.55,0.55,0,0,0-.19.14,0.67,0.67,0,0,0-.12.22,0.76,0.76,0,0,0,0,.26v1.52H82.75v-2.57Z"/><path class="egcore-8" d="M23.91,136.43h4.52v1H25V139h3.17v0.9H25v1.84H28.5v1H23.91v-6.28Z"/><path class="egcore-8" d="M30.45,140.32l-1.57-2.16h1.21l1,1.4,1-1.4h1.16l-1.55,2.1,1.74,2.45H32.18L31,141l-1.12,1.68H28.73Z"/><path class="egcore-8" d="M33.89,138.17h1v0.62h0a1.23,1.23,0,0,1,.59-0.57,1.94,1.94,0,0,1,.82-0.17,2.16,2.16,0,0,1,.94.19,1.85,1.85,0,0,1,.66.52,2.26,2.26,0,0,1,.4.77,3.27,3.27,0,0,1,.13.94,3.33,3.33,0,0,1-.12.89,2.31,2.31,0,0,1-.36.76,1.76,1.76,0,0,1-1.48.73,2.48,2.48,0,0,1-.44,0,1.89,1.89,0,0,1-.42-0.13,1.68,1.68,0,0,1-.37-0.22,1.23,1.23,0,0,1-.29-0.32h0v2.27h-1v-6.23Zm3.5,2.28a2.27,2.27,0,0,0-.08-0.6,1.64,1.64,0,0,0-.24-0.51,1.23,1.23,0,0,0-.4-0.36,1.08,1.08,0,0,0-.55-0.14,1.11,1.11,0,0,0-1,.44,1.94,1.94,0,0,0-.32,1.17,2.33,2.33,0,0,0,.08.64,1.44,1.44,0,0,0,.25.51,1.25,1.25,0,0,0,.4.33,1.14,1.14,0,0,0,.54.12,1.12,1.12,0,0,0,.58-0.14,1.22,1.22,0,0,0,.39-0.37,1.48,1.48,0,0,0,.22-0.51A2.6,2.6,0,0,0,37.39,140.44Z"/><path class="egcore-8" d="M39.15,138.17h0.94V139h0a1,1,0,0,1,.17-0.36,1.67,1.67,0,0,1,.31-0.32,1.57,1.57,0,0,1,.4-0.23,1.2,1.2,0,0,1,.45-0.09h0.24l0.14,0v1l-0.22,0H41.38a1.15,1.15,0,0,0-.48.1,1.09,1.09,0,0,0-.39.3,1.46,1.46,0,0,0-.26.49,2.12,2.12,0,0,0-.1.67v2.16h-1v-4.55Z"/><path class="egcore-8" d="M42.78,140.7a1.75,1.75,0,0,0,.07.51,1.25,1.25,0,0,0,.22.43,1.08,1.08,0,0,0,.38.29A1.25,1.25,0,0,0,44,142a1.21,1.21,0,0,0,.71-0.19,1.12,1.12,0,0,0,.4-0.57h1a1.88,1.88,0,0,1-.74,1.15,2,2,0,0,1-.61.3,2.5,2.5,0,0,1-.71.1,2.41,2.41,0,0,1-.95-0.18,2,2,0,0,1-.7-0.49,2.09,2.09,0,0,1-.43-0.76,3.08,3.08,0,0,1-.15-1,2.74,2.74,0,0,1,.15-0.92,2.34,2.34,0,0,1,.44-0.77A2.06,2.06,0,0,1,44,138a2,2,0,0,1,1,.22,2.1,2.1,0,0,1,.71.59,2.4,2.4,0,0,1,.41.85,2.6,2.6,0,0,1,.07,1H42.78Zm2.34-.66a1.61,1.61,0,0,0-.1-0.46,1.23,1.23,0,0,0-.23-0.38,1.13,1.13,0,0,0-.35-0.26,1,1,0,0,0-.46-0.1,1.2,1.2,0,0,0-.48.09,1.09,1.09,0,0,0-.37.25,1.28,1.28,0,0,0-.25.38,1.33,1.33,0,0,0-.1.48h2.34Z"/><path class="egcore-8" d="M47.56,141.25a0.76,0.76,0,0,0,.33.62,1.32,1.32,0,0,0,.69.18l0.32,0a1.4,1.4,0,0,0,.34-0.08,0.64,0.64,0,0,0,.26-0.18,0.43,0.43,0,0,0,.09-0.31,0.44,0.44,0,0,0-.14-0.32,1,1,0,0,0-.34-0.2,3.27,3.27,0,0,0-.47-0.13l-0.54-.11a5,5,0,0,1-.54-0.15,1.75,1.75,0,0,1-.47-0.24,1.1,1.1,0,0,1-.33-0.38,1.22,1.22,0,0,1-.12-0.58,1,1,0,0,1,.18-0.62,1.38,1.38,0,0,1,.46-0.4,2,2,0,0,1,.62-0.22,3.62,3.62,0,0,1,.65-0.06,3,3,0,0,1,.67.07,1.85,1.85,0,0,1,.58.24,1.42,1.42,0,0,1,.43.44,1.51,1.51,0,0,1,.22.65h-1a0.63,0.63,0,0,0-.33-0.48,1.37,1.37,0,0,0-.59-0.12l-0.25,0a1.16,1.16,0,0,0-.27.07,0.57,0.57,0,0,0-.22.14,0.34,0.34,0,0,0-.09.24,0.38,0.38,0,0,0,.13.3,1,1,0,0,0,.33.19,3.42,3.42,0,0,0,.47.13L49.13,140l0.54,0.15a1.73,1.73,0,0,1,.47.24,1.09,1.09,0,0,1,.46.94,1.22,1.22,0,0,1-.19.69,1.45,1.45,0,0,1-.48.46,2.18,2.18,0,0,1-.66.25,3.32,3.32,0,0,1-.71.08,3.1,3.1,0,0,1-.8-0.1,1.85,1.85,0,0,1-.63-0.29,1.42,1.42,0,0,1-.42-0.49,1.57,1.57,0,0,1-.16-0.7h1Z"/><path class="egcore-8" d="M52,141.25a0.76,0.76,0,0,0,.33.62,1.32,1.32,0,0,0,.69.18l0.32,0a1.4,1.4,0,0,0,.34-0.08,0.64,0.64,0,0,0,.26-0.18,0.43,0.43,0,0,0,.09-0.31,0.44,0.44,0,0,0-.14-0.32,1,1,0,0,0-.34-0.2,3.27,3.27,0,0,0-.47-0.13l-0.54-.11a5,5,0,0,1-.54-0.15,1.75,1.75,0,0,1-.47-0.24,1.1,1.1,0,0,1-.33-0.38,1.22,1.22,0,0,1-.12-0.58,1,1,0,0,1,.18-0.62,1.38,1.38,0,0,1,.46-0.4,2,2,0,0,1,.62-0.22A3.62,3.62,0,0,1,53,138a3,3,0,0,1,.67.07,1.85,1.85,0,0,1,.58.24,1.42,1.42,0,0,1,.43.44,1.51,1.51,0,0,1,.22.65h-1a0.63,0.63,0,0,0-.33-0.48,1.37,1.37,0,0,0-.59-0.12l-0.25,0a1.16,1.16,0,0,0-.27.07,0.57,0.57,0,0,0-.22.14,0.34,0.34,0,0,0-.09.24,0.38,0.38,0,0,0,.13.3,1,1,0,0,0,.33.19,3.42,3.42,0,0,0,.47.13L53.61,140l0.54,0.15a1.73,1.73,0,0,1,.47.24,1.09,1.09,0,0,1,.46.94,1.22,1.22,0,0,1-.19.69,1.45,1.45,0,0,1-.48.46,2.18,2.18,0,0,1-.66.25,3.32,3.32,0,0,1-.71.08,3.1,3.1,0,0,1-.8-0.1,1.85,1.85,0,0,1-.63-0.29A1.42,1.42,0,0,1,51.2,142a1.57,1.57,0,0,1-.16-0.7h1Z"/><path class="egcore-8" d="M63.74,142.71H63L62.86,142a2.6,2.6,0,0,1-.88.7,2.49,2.49,0,0,1-1,.19,3,3,0,0,1-1.26-.26,2.77,2.77,0,0,1-.95-0.71,3.16,3.16,0,0,1-.59-1,4,4,0,0,1,0-2.54,3.17,3.17,0,0,1,.59-1,2.84,2.84,0,0,1,.95-0.71,2.91,2.91,0,0,1,1.26-.26,3.4,3.4,0,0,1,1,.14,2.62,2.62,0,0,1,.82.4,2.25,2.25,0,0,1,.6.67,2.37,2.37,0,0,1,.3.93H62.59A1.34,1.34,0,0,0,62,137.5a1.6,1.6,0,0,0-.49-0.24,2.06,2.06,0,0,0-.57-0.08,1.77,1.77,0,0,0-.87.2,1.69,1.69,0,0,0-.59.54,2.42,2.42,0,0,0-.34.77,3.53,3.53,0,0,0,0,1.76,2.42,2.42,0,0,0,.34.77,1.69,1.69,0,0,0,.59.54,1.77,1.77,0,0,0,.87.2,2.06,2.06,0,0,0,.75-0.11,1.46,1.46,0,0,0,.55-0.34,1.42,1.42,0,0,0,.34-0.55,2.32,2.32,0,0,0,.13-0.72H61.06v-0.84h2.67v3.31Z"/><path class="egcore-8" d="M68.51,141.7a0.53,0.53,0,0,0,0,.26,0.2,0.2,0,0,0,.19.08h0.11L69,142v0.7l-0.14,0-0.17,0-0.18,0H68.36a1,1,0,0,1-.51-0.12,0.61,0.61,0,0,1-.26-0.43,1.77,1.77,0,0,1-.73.42,2.89,2.89,0,0,1-.84.13,2.06,2.06,0,0,1-.59-0.08,1.53,1.53,0,0,1-.5-0.25,1.18,1.18,0,0,1-.34-0.41,1.27,1.27,0,0,1-.13-0.58,1.35,1.35,0,0,1,.15-0.69,1.14,1.14,0,0,1,.4-0.41,1.83,1.83,0,0,1,.56-0.22q0.31-.07.63-0.1l0.52-.08a2.44,2.44,0,0,0,.44-0.07,0.67,0.67,0,0,0,.3-0.16,0.45,0.45,0,0,0,.11-0.33,0.51,0.51,0,0,0-.09-0.32,0.62,0.62,0,0,0-.23-0.19,1,1,0,0,0-.3-0.09l-0.32,0a1.26,1.26,0,0,0-.69.18,0.68,0.68,0,0,0-.31.54h-1a1.5,1.5,0,0,1,.21-0.73,1.44,1.44,0,0,1,.47-0.47,1.92,1.92,0,0,1,.65-0.25,3.85,3.85,0,0,1,.74-0.07,3.12,3.12,0,0,1,.66.07,1.88,1.88,0,0,1,.58.23,1.27,1.27,0,0,1,.42.41,1.12,1.12,0,0,1,.16.61v2.34Zm-1-1.27a1.22,1.22,0,0,1-.56.18q-0.33,0-.67.09l-0.31.08a0.92,0.92,0,0,0-.26.13,0.58,0.58,0,0,0-.18.22,0.75,0.75,0,0,0-.07.33,0.42,0.42,0,0,0,.1.28,0.71,0.71,0,0,0,.23.18,1.08,1.08,0,0,0,.3.09l0.29,0a1.63,1.63,0,0,0,.36,0,1.2,1.2,0,0,0,.37-0.15,1,1,0,0,0,.29-0.27,0.68,0.68,0,0,0,.11-0.4v-0.75Z"/><path class="egcore-8" d="M69,138.17h0.76V136.8h1v1.36h0.91v0.75H70.81v2.43a2.43,2.43,0,0,0,0,.27,0.47,0.47,0,0,0,.06.19,0.3,0.3,0,0,0,.15.12,0.71,0.71,0,0,0,.26,0H71.5l0.21,0v0.77l-0.33,0-0.33,0a2.22,2.22,0,0,1-.64-0.08,0.85,0.85,0,0,1-.38-0.22,0.76,0.76,0,0,1-.18-0.37,2.75,2.75,0,0,1-.06-0.5v-2.68H69v-0.75Z"/><path class="egcore-8" d="M73.13,140.7a1.75,1.75,0,0,0,.08.51,1.26,1.26,0,0,0,.22.43,1.09,1.09,0,0,0,.38.29,1.25,1.25,0,0,0,.54.11,1.21,1.21,0,0,0,.71-0.19,1.12,1.12,0,0,0,.4-0.57h1a1.88,1.88,0,0,1-.74,1.15,2,2,0,0,1-.61.3,2.5,2.5,0,0,1-.71.1,2.41,2.41,0,0,1-1-.18,2,2,0,0,1-.7-0.49,2.1,2.1,0,0,1-.43-0.76,3.08,3.08,0,0,1-.15-1,2.74,2.74,0,0,1,.15-0.92,2.35,2.35,0,0,1,.44-0.77,2.06,2.06,0,0,1,1.61-.72,2,2,0,0,1,1,.22,2.11,2.11,0,0,1,.71.59,2.42,2.42,0,0,1,.41.85,2.6,2.6,0,0,1,.07,1H73.13Zm2.34-.66a1.61,1.61,0,0,0-.1-0.46,1.22,1.22,0,0,0-.23-0.38,1.13,1.13,0,0,0-.35-0.26,1,1,0,0,0-.46-0.1,1.21,1.21,0,0,0-.48.09,1.1,1.1,0,0,0-.37.25,1.28,1.28,0,0,0-.25.38,1.34,1.34,0,0,0-.1.48h2.34Z"/><path class="egcore-8" d="M76.74,138.17H77.8l0.89,3.4h0l0.85-3.4h1l0.82,3.4h0l0.92-3.4h1l-1.42,4.55h-1l-0.84-3.38h0l-0.84,3.38H78.14Z"/><path class="egcore-8" d="M87.72,141.7a0.53,0.53,0,0,0,0,.26A0.2,0.2,0,0,0,88,142h0.11l0.14,0v0.7l-0.14,0-0.17,0-0.18,0H87.57a1,1,0,0,1-.51-0.12,0.61,0.61,0,0,1-.26-0.43,1.77,1.77,0,0,1-.73.42,2.89,2.89,0,0,1-.84.13,2.06,2.06,0,0,1-.59-0.08,1.53,1.53,0,0,1-.5-0.25,1.18,1.18,0,0,1-.34-0.41,1.27,1.27,0,0,1-.13-0.58,1.35,1.35,0,0,1,.15-0.69,1.14,1.14,0,0,1,.4-0.41,1.83,1.83,0,0,1,.56-0.22q0.31-.07.63-0.1l0.52-.08a2.44,2.44,0,0,0,.44-0.07,0.67,0.67,0,0,0,.3-0.16,0.45,0.45,0,0,0,.11-0.33,0.51,0.51,0,0,0-.09-0.32,0.62,0.62,0,0,0-.23-0.19,1,1,0,0,0-.3-0.09l-0.32,0a1.26,1.26,0,0,0-.69.18,0.68,0.68,0,0,0-.31.54h-1a1.5,1.5,0,0,1,.21-0.73,1.44,1.44,0,0,1,.47-0.47,1.92,1.92,0,0,1,.65-0.25,3.85,3.85,0,0,1,.74-0.07,3.12,3.12,0,0,1,.66.07,1.88,1.88,0,0,1,.58.23,1.27,1.27,0,0,1,.42.41,1.12,1.12,0,0,1,.16.61v2.34Zm-1-1.27a1.22,1.22,0,0,1-.56.18q-0.33,0-.67.09l-0.31.08a0.92,0.92,0,0,0-.26.13,0.58,0.58,0,0,0-.18.22,0.75,0.75,0,0,0-.07.33,0.42,0.42,0,0,0,.1.28,0.71,0.71,0,0,0,.23.18,1.08,1.08,0,0,0,.3.09l0.29,0a1.63,1.63,0,0,0,.36,0,1.2,1.2,0,0,0,.37-0.15,1,1,0,0,0,.29-0.27,0.68,0.68,0,0,0,.11-0.4v-0.75Z"/><path class="egcore-8" d="M88.21,138.17h1.1l1.19,3.4h0l1.15-3.4h1L90.94,143l-0.24.59a2.1,2.1,0,0,1-.29.5,1.25,1.25,0,0,1-.43.34,1.46,1.46,0,0,1-.65.13,4.58,4.58,0,0,1-.7-0.05v-0.84l0.24,0,0.24,0a0.82,0.82,0,0,0,.29,0,0.48,0.48,0,0,0,.19-0.13,0.79,0.79,0,0,0,.13-0.2,2,2,0,0,0,.1-0.26l0.12-.35Z"/><rect class="egcore-5" x="10.21" y="94.43" width="4.54" height="0.8"/><path class="egcore-7" d="M11,97.19h2.95v0.62H11.7v1.07h2.06v0.58H11.7v1.2H14v0.62H11v-4.1Z"/><path class="egcore-7" d="M15.16,99.73l-1-1.41h0.79l0.62,0.91,0.65-.91H17l-1,1.37,1.14,1.59H16.29l-0.75-1.1-0.73,1.1H14Z"/><path class="egcore-7" d="M17.32,98.33h0.62v0.4h0a0.81,0.81,0,0,1,.38-0.37,1.28,1.28,0,0,1,.53-0.11,1.42,1.42,0,0,1,.61.12,1.21,1.21,0,0,1,.43.34,1.48,1.48,0,0,1,.26.5,2.22,2.22,0,0,1,0,1.19,1.52,1.52,0,0,1-.23.5,1.15,1.15,0,0,1-1,.47l-0.29,0a1.26,1.26,0,0,1-.28-0.08,1.07,1.07,0,0,1-.24-0.15,0.81,0.81,0,0,1-.19-0.21h0v1.48H17.32V98.33Zm2.28,1.49a1.48,1.48,0,0,0-.05-0.39,1.07,1.07,0,0,0-.16-0.34,0.8,0.8,0,0,0-.26-0.24,0.71,0.71,0,0,0-.36-0.09,0.72,0.72,0,0,0-.62.29,1.26,1.26,0,0,0-.21.76,1.53,1.53,0,0,0,.05.42,0.93,0.93,0,0,0,.16.33,0.82,0.82,0,0,0,.26.22,0.82,0.82,0,0,0,.73,0,0.81,0.81,0,0,0,.26-0.24,1,1,0,0,0,.14-0.33A1.68,1.68,0,0,0,19.6,99.81Z"/><path class="egcore-7" d="M20.66,98.33h0.61V98.9h0a0.66,0.66,0,0,1,.11-0.24,1.09,1.09,0,0,1,.2-0.21,1,1,0,0,1,.26-0.15,0.78,0.78,0,0,1,.29-0.06H22.4v0.63l-0.14,0H22.12a0.75,0.75,0,0,0-.31.07,0.72,0.72,0,0,0-.26.19,1,1,0,0,0-.17.32,1.37,1.37,0,0,0-.06.44v1.41H20.66v-3Z"/><path class="egcore-7" d="M22.95,100a1.13,1.13,0,0,0,0,.33,0.81,0.81,0,0,0,.15.28,0.7,0.7,0,0,0,.25.19,0.81,0.81,0,0,0,.36.07,0.79,0.79,0,0,0,.46-0.12,0.73,0.73,0,0,0,.26-0.37h0.62a1.23,1.23,0,0,1-.48.75,1.32,1.32,0,0,1-.4.2,1.61,1.61,0,0,1-.46.07,1.58,1.58,0,0,1-.62-0.11,1.29,1.29,0,0,1-.46-0.32,1.36,1.36,0,0,1-.28-0.49,2,2,0,0,1-.09-0.63,1.79,1.79,0,0,1,.1-0.6,1.55,1.55,0,0,1,.29-0.5,1.35,1.35,0,0,1,1-.47,1.33,1.33,0,0,1,.63.15,1.38,1.38,0,0,1,.46.39,1.55,1.55,0,0,1,.27.55,1.69,1.69,0,0,1,0,.65H22.95Zm1.53-.43a1.06,1.06,0,0,0-.07-0.3A0.8,0.8,0,0,0,24.26,99,0.74,0.74,0,0,0,24,98.83a0.68,0.68,0,0,0-.3-0.07,0.79,0.79,0,0,0-.31.06,0.72,0.72,0,0,0-.24.17,0.83,0.83,0,0,0-.16.25,0.87,0.87,0,0,0-.07.31h1.53Z"/><path class="egcore-7" d="M26,100.34a0.49,0.49,0,0,0,.22.4,0.86,0.86,0,0,0,.45.12h0.21l0.22-.05a0.42,0.42,0,0,0,.17-0.12,0.32,0.32,0,0,0,0-.41,0.64,0.64,0,0,0-.22-0.13L26.69,100,26.34,100,26,99.87a1.12,1.12,0,0,1-.3-0.16,0.7,0.7,0,0,1-.21-0.25,0.8,0.8,0,0,1-.08-0.38,0.67,0.67,0,0,1,.12-0.4,0.89,0.89,0,0,1,.3-0.26,1.28,1.28,0,0,1,.4-0.14,2.31,2.31,0,0,1,.42,0,2,2,0,0,1,.44,0,1.22,1.22,0,0,1,.38.16,0.92,0.92,0,0,1,.28.28,1,1,0,0,1,.14.42H27.18A0.41,0.41,0,0,0,27,98.84a0.89,0.89,0,0,0-.39-0.08H26.41l-0.18,0a0.38,0.38,0,0,0-.14.09,0.22,0.22,0,0,0-.06.16,0.25,0.25,0,0,0,.08.19,0.67,0.67,0,0,0,.22.12l0.31,0.08L27,99.54l0.35,0.1a1.11,1.11,0,0,1,.31.16,0.71,0.71,0,0,1,.3.61,0.8,0.8,0,0,1-.12.45,1,1,0,0,1-.31.3,1.43,1.43,0,0,1-.43.17,2.11,2.11,0,0,1-.46.05,2,2,0,0,1-.52-0.06,1.21,1.21,0,0,1-.41-0.19,0.93,0.93,0,0,1-.28-0.32,1,1,0,0,1-.11-0.46H26Z"/><path class="egcore-7" d="M28.81,100.34a0.49,0.49,0,0,0,.22.4,0.86,0.86,0,0,0,.45.12h0.21l0.22-.05a0.42,0.42,0,0,0,.17-0.12,0.32,0.32,0,0,0,0-.41,0.64,0.64,0,0,0-.22-0.13L29.52,100,29.17,100l-0.35-.1a1.12,1.12,0,0,1-.3-0.16,0.7,0.7,0,0,1-.21-0.25,0.8,0.8,0,0,1-.08-0.38,0.67,0.67,0,0,1,.12-0.4,0.89,0.89,0,0,1,.3-0.26,1.28,1.28,0,0,1,.4-0.14,2.31,2.31,0,0,1,.42,0,2,2,0,0,1,.44,0,1.22,1.22,0,0,1,.38.16,0.92,0.92,0,0,1,.28.28,1,1,0,0,1,.14.42H30a0.41,0.41,0,0,0-.22-0.32,0.89,0.89,0,0,0-.39-0.08H29.25l-0.18,0a0.38,0.38,0,0,0-.14.09,0.22,0.22,0,0,0-.06.16,0.25,0.25,0,0,0,.08.19,0.67,0.67,0,0,0,.22.12l0.31,0.08,0.36,0.07,0.35,0.1a1.11,1.11,0,0,1,.31.16,0.71,0.71,0,0,1,.3.61,0.8,0.8,0,0,1-.12.45,1,1,0,0,1-.31.3,1.43,1.43,0,0,1-.43.17,2.11,2.11,0,0,1-.46.05,2,2,0,0,1-.52-0.06,1.21,1.21,0,0,1-.41-0.19,0.93,0.93,0,0,1-.28-0.32,1,1,0,0,1-.11-0.46h0.65Z"/><path class="egcore-7" d="M32.69,97.19h2a1.52,1.52,0,0,1,1,.29,1,1,0,0,1,.34.81,1.19,1.19,0,0,1-.09.49,1.06,1.06,0,0,1-.2.31,0.79,0.79,0,0,1-.23.17l-0.16.07h0l0.2,0.06a0.6,0.6,0,0,1,.2.15,0.81,0.81,0,0,1,.15.26,1.16,1.16,0,0,1,.06.4,3.6,3.6,0,0,0,.05.66,0.86,0.86,0,0,0,.17.42H35.39a0.67,0.67,0,0,1-.09-0.29c0-.11,0-0.21,0-0.31a2.94,2.94,0,0,0,0-.48,0.85,0.85,0,0,0-.13-0.34,0.54,0.54,0,0,0-.25-0.2,1.11,1.11,0,0,0-.4-0.06H33.41v1.69H32.69v-4.1Zm0.72,1.87h1.18a0.74,0.74,0,0,0,.52-0.16,0.63,0.63,0,0,0,.18-0.49,0.76,0.76,0,0,0-.06-0.32,0.46,0.46,0,0,0-.16-0.19,0.59,0.59,0,0,0-.23-0.09l-0.27,0H33.41v1.28Z"/><path class="egcore-7" d="M39.1,101.29H38.46v-0.41h0a0.9,0.9,0,0,1-.36.36,1,1,0,0,1-.48.13,1.09,1.09,0,0,1-.85-0.29,1.27,1.27,0,0,1-.26-0.87V98.33h0.65v1.82a0.8,0.8,0,0,0,.15.55,0.54,0.54,0,0,0,.42.16,0.83,0.83,0,0,0,.34-0.06,0.61,0.61,0,0,0,.22-0.17,0.66,0.66,0,0,0,.12-0.26,1.32,1.32,0,0,0,0-.32V98.33H39.1v3Z"/><path class="egcore-7" d="M39.65,98.33h0.62v0.44h0a1.1,1.1,0,0,1,.39-0.39,1,1,0,0,1,.53-0.14,1.11,1.11,0,0,1,.77.25,1,1,0,0,1,.28.76v2H41.6V99.43a0.81,0.81,0,0,0-.15-0.51A0.54,0.54,0,0,0,41,98.76a0.71,0.71,0,0,0-.3.06,0.65,0.65,0,0,0-.22.17,0.79,0.79,0,0,0-.14.25,0.9,0.9,0,0,0-.05.3v1.75H39.65v-3Z"/><path class="egcore-7" d="M42.5,98.33H43V97.44h0.65v0.89h0.59v0.49H43.64v1.58a1.68,1.68,0,0,0,0,.18,0.31,0.31,0,0,0,0,.13,0.19,0.19,0,0,0,.09.08,0.46,0.46,0,0,0,.17,0H44.1l0.14,0v0.5l-0.21,0H43.81a1.42,1.42,0,0,1-.42,0,0.55,0.55,0,0,1-.25-0.14,0.49,0.49,0,0,1-.12-0.24,1.81,1.81,0,0,1,0-.33V98.81H42.5V98.33Z"/><path class="egcore-7" d="M44.58,97.19h0.65v0.62H44.58V97.19Zm0,1.13h0.65v3H44.58v-3Z"/><path class="egcore-7" d="M45.8,98.33h0.62v0.41h0a1.7,1.7,0,0,1,.16-0.2,0.9,0.9,0,0,1,.19-0.15,0.92,0.92,0,0,1,.24-0.1,1.19,1.19,0,0,1,.32,0,1.08,1.08,0,0,1,.5.12,0.68,0.68,0,0,1,.33.37,1.31,1.31,0,0,1,.38-0.36,1,1,0,0,1,.54-0.13,1.07,1.07,0,0,1,.73.23,1,1,0,0,1,.26.77v2H49.45V99.56c0-.12,0-0.23,0-0.32A0.67,0.67,0,0,0,49.37,99a0.38,0.38,0,0,0-.16-0.16,0.65,0.65,0,0,0-.3-0.06,0.55,0.55,0,0,0-.48.21,1,1,0,0,0-.15.58v1.74H47.63v-1.9a0.81,0.81,0,0,0-.11-0.47,0.47,0.47,0,0,0-.41-0.16,0.6,0.6,0,0,0-.24.05,0.6,0.6,0,0,0-.21.15,0.74,0.74,0,0,0-.14.24,0.91,0.91,0,0,0-.05.33v1.76H45.8v-3Z"/><path class="egcore-7" d="M51.16,100a1.13,1.13,0,0,0,0,.33,0.81,0.81,0,0,0,.15.28,0.7,0.7,0,0,0,.25.19,0.81,0.81,0,0,0,.36.07,0.79,0.79,0,0,0,.46-0.12,0.73,0.73,0,0,0,.26-0.37H53.3a1.23,1.23,0,0,1-.48.75,1.32,1.32,0,0,1-.4.2,1.61,1.61,0,0,1-.46.07,1.58,1.58,0,0,1-.62-0.11,1.29,1.29,0,0,1-.46-0.32,1.36,1.36,0,0,1-.28-0.49,2,2,0,0,1-.09-0.63,1.79,1.79,0,0,1,.1-0.6,1.55,1.55,0,0,1,.29-0.5,1.35,1.35,0,0,1,1-.47,1.33,1.33,0,0,1,.63.15,1.38,1.38,0,0,1,.46.39,1.55,1.55,0,0,1,.27.55,1.69,1.69,0,0,1,0,.65H51.16Zm1.53-.43a1.06,1.06,0,0,0-.07-0.3A0.8,0.8,0,0,0,52.47,99a0.74,0.74,0,0,0-.23-0.17,0.68,0.68,0,0,0-.3-0.07,0.79,0.79,0,0,0-.31.06,0.72,0.72,0,0,0-.24.17,0.83,0.83,0,0,0-.16.25,0.87,0.87,0,0,0-.07.31h1.53Z"/><rect class="egcore-10" x="19.27" y="32.63" width="72.24" height="34.15" rx="2.9" ry="2.9" transform="translate(105.1 -5.68) rotate(90)"/><rect class="egcore-11" x="48.84" y="14.33" width="13.1" height="29.9" rx="2.9" ry="2.9" transform="translate(84.67 -26.11) rotate(90)"/><rect class="egcore-11" x="37.97" y="40.46" width="34.83" height="30.24" rx="2.9" ry="2.9" transform="translate(110.97 0.2) rotate(90)"/><rect class="egcore-11" x="51.53" y="64.42" width="7.72" height="30.26" rx="2.9" ry="2.9" transform="translate(134.94 24.16) rotate(90)"/><path class="egcore-7" d="M49.56,16.36H51a1.37,1.37,0,0,1,.57.1,0.89,0.89,0,0,1,.34.25,0.86,0.86,0,0,1,.16.33,1.42,1.42,0,0,1,0,.33,1.39,1.39,0,0,1,0,.33,0.86,0.86,0,0,1-.16.33,0.87,0.87,0,0,1-.34.25,1.4,1.4,0,0,1-.57.1H50.13v1.26H49.56V16.36Zm0.57,1.55H51l0.2,0a0.56,0.56,0,0,0,.19-0.09,0.45,0.45,0,0,0,.14-0.17,0.57,0.57,0,0,0,.05-0.26,0.67,0.67,0,0,0,0-.27,0.42,0.42,0,0,0-.12-0.17,0.44,0.44,0,0,0-.18-0.08l-0.22,0H50.13v1.08Z"/><path class="egcore-7" d="M53.52,19.7A1.3,1.3,0,0,1,53,19.61a1.08,1.08,0,0,1-.38-0.26A1.1,1.1,0,0,1,52.4,19a1.61,1.61,0,0,1,0-1,1.1,1.1,0,0,1,.23-0.39A1.08,1.08,0,0,1,53,17.3a1.41,1.41,0,0,1,1,0,1.08,1.08,0,0,1,.38.26,1.1,1.1,0,0,1,.23.39,1.61,1.61,0,0,1,0,1,1.1,1.1,0,0,1-.23.4,1.08,1.08,0,0,1-.38.26A1.3,1.3,0,0,1,53.52,19.7Zm0-.41a0.6,0.6,0,0,0,.3-0.07A0.63,0.63,0,0,0,54,19a0.83,0.83,0,0,0,.12-0.27,1.2,1.2,0,0,0,0-.61A0.81,0.81,0,0,0,54,17.88a0.65,0.65,0,0,0-.21-0.19,0.66,0.66,0,0,0-.61,0,0.66,0.66,0,0,0-.21.19,0.81,0.81,0,0,0-.12.27,1.2,1.2,0,0,0,0,.61A0.83,0.83,0,0,0,53,19a0.64,0.64,0,0,0,.21.19A0.6,0.6,0,0,0,53.52,19.29Z"/><path class="egcore-7" d="M55.05,16.36h0.52v3.28H55.05V16.36Z"/><path class="egcore-7" d="M56,16.36h0.52v0.5H56v-0.5Zm0,0.9h0.52v2.37H56V17.27Z"/><path class="egcore-7" d="M58.62,18.06a0.49,0.49,0,0,0-.18-0.33,0.58,0.58,0,0,0-.36-0.11,0.75,0.75,0,0,0-.22,0,0.51,0.51,0,0,0-.21.13,0.72,0.72,0,0,0-.16.26,1.24,1.24,0,0,0-.06.44,1.28,1.28,0,0,0,0,.29,0.79,0.79,0,0,0,.11.26,0.59,0.59,0,0,0,.19.19,0.56,0.56,0,0,0,.29.07,0.53,0.53,0,0,0,.38-0.14,0.66,0.66,0,0,0,.19-0.4h0.52a1.15,1.15,0,0,1-.35.71,1.07,1.07,0,0,1-.74.25,1.22,1.22,0,0,1-.49-0.09,1,1,0,0,1-.36-0.26A1.09,1.09,0,0,1,57,19a1.52,1.52,0,0,1-.08-0.49A1.67,1.67,0,0,1,57,18a1.15,1.15,0,0,1,.22-0.41,1,1,0,0,1,.36-0.27,1.23,1.23,0,0,1,.51-0.1,1.43,1.43,0,0,1,.39.05,1,1,0,0,1,.33.16,0.84,0.84,0,0,1,.24.27,0.92,0.92,0,0,1,.11.38H58.62Z"/><path class="egcore-7" d="M59.2,17.27h0.57L60.39,19h0L61,17.27h0.55l-0.92,2.5-0.13.31a1.1,1.1,0,0,1-.15.26,0.66,0.66,0,0,1-.22.18,0.76,0.76,0,0,1-.34.07l-0.36,0V20.11l0.12,0h0.12l0.15,0a0.24,0.24,0,0,0,.1-0.07A0.38,0.38,0,0,0,60,20,1,1,0,0,0,60,19.81l0.06-.18Z"/><path class="egcore-9" d="M47.69,25.62a1.05,1.05,0,0,0-.09-0.24,0.66,0.66,0,0,0-.37-0.31,0.86,0.86,0,0,0-.29,0,0.84,0.84,0,0,0-.41.1,0.81,0.81,0,0,0-.28.26,1.17,1.17,0,0,0-.16.37,1.71,1.71,0,0,0,0,.84,1.16,1.16,0,0,0,.16.37,0.81,0.81,0,0,0,.28.26,0.84,0.84,0,0,0,.41.1,0.75,0.75,0,0,0,.31-0.06,0.7,0.7,0,0,0,.23-0.17,0.79,0.79,0,0,0,.15-0.25,1.21,1.21,0,0,0,.07-0.31h0.51a1.43,1.43,0,0,1-.12.49,1.21,1.21,0,0,1-.27.39,1.18,1.18,0,0,1-.4.25,1.38,1.38,0,0,1-.5.09,1.41,1.41,0,0,1-.6-0.12,1.33,1.33,0,0,1-.45-0.34,1.52,1.52,0,0,1-.28-0.5,1.91,1.91,0,0,1,0-1.22,1.52,1.52,0,0,1,.28-0.5,1.35,1.35,0,0,1,.45-0.34,1.4,1.4,0,0,1,.6-0.13,1.59,1.59,0,0,1,.48.07,1.23,1.23,0,0,1,.39.2,1.05,1.05,0,0,1,.28.32,1.13,1.13,0,0,1,.13.43H47.69Z"/><path class="egcore-9" d="M49.52,27.72a1.18,1.18,0,0,1-.46-0.09,1,1,0,0,1-.35-0.24A1,1,0,0,1,48.5,27a1.48,1.48,0,0,1,0-.92,1,1,0,0,1,.21-0.36,1,1,0,0,1,.35-0.24,1.3,1.3,0,0,1,.93,0,1,1,0,0,1,.35.24,1,1,0,0,1,.21.36,1.48,1.48,0,0,1,0,.92,1,1,0,0,1-.21.36,1,1,0,0,1-.35.24A1.18,1.18,0,0,1,49.52,27.72Zm0-.38a0.55,0.55,0,0,0,.28-0.07A0.58,0.58,0,0,0,50,27.1a0.77,0.77,0,0,0,.11-0.25,1.09,1.09,0,0,0,0-.56A0.75,0.75,0,0,0,50,26.05a0.59,0.59,0,0,0-.19-0.17,0.61,0.61,0,0,0-.56,0,0.59,0.59,0,0,0-.19.17,0.74,0.74,0,0,0-.11.25,1.09,1.09,0,0,0,0,.56,0.76,0.76,0,0,0,.11.25,0.58,0.58,0,0,0,.19.18A0.55,0.55,0,0,0,49.52,27.35Z"/><path class="egcore-9" d="M50.92,25.49h0.45v0.32h0a0.8,0.8,0,0,1,.29-0.28,0.76,0.76,0,0,1,.39-0.1,0.81,0.81,0,0,1,.56.19,0.71,0.71,0,0,1,.21.56v1.49H52.35V26.3a0.59,0.59,0,0,0-.11-0.37,0.4,0.4,0,0,0-.32-0.12,0.52,0.52,0,0,0-.22,0,0.47,0.47,0,0,0-.16.12,0.57,0.57,0,0,0-.1.18,0.65,0.65,0,0,0,0,.22v1.28H50.92V25.49Z"/><path class="egcore-9" d="M55.27,27.67H54.82V27.37h0a0.57,0.57,0,0,1-.28.27,1,1,0,0,1-.39.08,1,1,0,0,1-.45-0.09,0.89,0.89,0,0,1-.32-0.25A1,1,0,0,1,53.18,27a1.6,1.6,0,0,1-.06-0.46,1.46,1.46,0,0,1,.08-0.51,1,1,0,0,1,.21-0.35,0.82,0.82,0,0,1,.3-0.2,1,1,0,0,1,.35-0.06l0.21,0,0.2,0.06a0.79,0.79,0,0,1,.18.11,0.6,0.6,0,0,1,.14.15h0V24.66h0.48v3ZM53.6,26.6a1.06,1.06,0,0,0,0,.27,0.74,0.74,0,0,0,.11.24,0.53,0.53,0,0,0,.46.23,0.54,0.54,0,0,0,.28-0.07,0.57,0.57,0,0,0,.19-0.18,0.8,0.8,0,0,0,.11-0.25,1.09,1.09,0,0,0,0-.28A0.88,0.88,0,0,0,54.65,26a0.53,0.53,0,0,0-.44-0.2,0.54,0.54,0,0,0-.28.07,0.58,0.58,0,0,0-.19.18,0.76,0.76,0,0,0-.11.25A1.32,1.32,0,0,0,53.6,26.6Z"/><path class="egcore-9" d="M55.7,24.66h0.48v0.45H55.7V24.66Zm0,0.83h0.48v2.18H55.7V25.49Z"/><path class="egcore-9" d="M56.38,25.49h0.36V24.84h0.48v0.65h0.43v0.36H57.22V27a1.12,1.12,0,0,0,0,.13,0.23,0.23,0,0,0,0,.09,0.14,0.14,0,0,0,.07.06l0.13,0h0.2v0.37l-0.16,0H57.34a1.06,1.06,0,0,1-.31,0,0.41,0.41,0,0,1-.18-0.11,0.36,0.36,0,0,1-.09-0.17,1.31,1.31,0,0,1,0-.24V25.85H56.38V25.49Z"/><path class="egcore-9" d="M57.91,24.66h0.48v0.45H57.91V24.66Zm0,0.83h0.48v2.18H57.91V25.49Z"/><path class="egcore-9" d="M59.8,27.72a1.19,1.19,0,0,1-.47-0.09A1,1,0,0,1,59,27.4,1,1,0,0,1,58.78,27a1.47,1.47,0,0,1,0-.92A1,1,0,0,1,59,25.76a1,1,0,0,1,.34-0.24,1.3,1.3,0,0,1,.93,0,1,1,0,0,1,.34.24,1,1,0,0,1,.21.36,1.49,1.49,0,0,1,0,.92,1,1,0,0,1-.21.36,1,1,0,0,1-.34.24A1.18,1.18,0,0,1,59.8,27.72Zm0-.38a0.55,0.55,0,0,0,.28-0.07,0.59,0.59,0,0,0,.19-0.18,0.75,0.75,0,0,0,.11-0.25,1.09,1.09,0,0,0,0-.56,0.73,0.73,0,0,0-.11-0.25,0.6,0.6,0,0,0-.19-0.17,0.61,0.61,0,0,0-.56,0,0.6,0.6,0,0,0-.19.17,0.73,0.73,0,0,0-.11.25,1.09,1.09,0,0,0,0,.56,0.75,0.75,0,0,0,.11.25,0.59,0.59,0,0,0,.19.18A0.55,0.55,0,0,0,59.8,27.35Z"/><path class="egcore-9" d="M61.19,25.49h0.46v0.32h0a0.81,0.81,0,0,1,.29-0.28,0.76,0.76,0,0,1,.39-0.1,0.81,0.81,0,0,1,.56.19,0.71,0.71,0,0,1,.21.56v1.49H62.62V26.3a0.59,0.59,0,0,0-.11-0.37,0.4,0.4,0,0,0-.32-0.12,0.52,0.52,0,0,0-.22,0,0.47,0.47,0,0,0-.16.12,0.58,0.58,0,0,0-.11.18,0.67,0.67,0,0,0,0,.22v1.28H61.19V25.49Z"/><path class="egcore-9" d="M63.87,27a0.36,0.36,0,0,0,.16.29,0.63,0.63,0,0,0,.33.08h0.15l0.16,0a0.3,0.3,0,0,0,.12-0.09,0.21,0.21,0,0,0,0-.15,0.21,0.21,0,0,0-.07-0.15,0.49,0.49,0,0,0-.16-0.09l-0.23-.06-0.26-.05-0.26-.07a0.85,0.85,0,0,1-.22-0.11,0.52,0.52,0,0,1-.16-0.18,0.57,0.57,0,0,1-.06-0.28,0.49,0.49,0,0,1,.09-0.3,0.65,0.65,0,0,1,.22-0.19,1,1,0,0,1,.29-0.1l0.31,0a1.41,1.41,0,0,1,.32,0,0.88,0.88,0,0,1,.28.12,0.69,0.69,0,0,1,.21.21,0.72,0.72,0,0,1,.1.31h-0.5a0.3,0.3,0,0,0-.16-0.23,0.66,0.66,0,0,0-.28-0.06H64.19l-0.13,0a0.28,0.28,0,0,0-.1.07,0.16,0.16,0,0,0,0,.12,0.18,0.18,0,0,0,.06.14,0.47,0.47,0,0,0,.16.09l0.22,0.06,0.26,0.05,0.26,0.07a0.82,0.82,0,0,1,.22.11,0.55,0.55,0,0,1,.16.18,0.54,0.54,0,0,1,.06.27,0.59,0.59,0,0,1-.09.33,0.69,0.69,0,0,1-.23.22,1,1,0,0,1-.31.12,1.57,1.57,0,0,1-.34,0,1.48,1.48,0,0,1-.38,0,0.89,0.89,0,0,1-.3-0.14,0.68,0.68,0,0,1-.2-0.24A0.74,0.74,0,0,1,63.39,27h0.48Z"/><path class="egcore-7" d="M13.47,21.76v0.32H13.15V21.76h0.32Z"/><path class="egcore-7" d="M14.19,21.76v0.32H13.87V21.76h0.32Z"/><path class="egcore-7" d="M14.91,21.76v0.32H14.59V21.76h0.32Z"/><rect class="egcore-12" x="44.2" y="45.42" width="22.37" height="27.04" rx="4.72" ry="4.72" transform="translate(114.33 3.55) rotate(90)"/><rect class="egcore-13" x="42.67" y="76.91" width="24.99" height="4.88"/><path class="egcore-9" d="M45,78.15h1.33a1.26,1.26,0,0,1,.52.09,0.82,0.82,0,0,1,.31.23,0.79,0.79,0,0,1,.15.3,1.3,1.3,0,0,1,0,.3,1.27,1.27,0,0,1,0,.3,0.79,0.79,0,0,1-.15.3,0.81,0.81,0,0,1-.31.23,1.28,1.28,0,0,1-.52.09h-0.8v1.15H45v-3Zm0.53,1.42h0.77l0.18,0a0.51,0.51,0,0,0,.17-0.08,0.42,0.42,0,0,0,.13-0.15,0.52,0.52,0,0,0,0-.24,0.61,0.61,0,0,0,0-.24,0.38,0.38,0,0,0-.11-0.15,0.4,0.4,0,0,0-.16-0.08l-0.2,0H45.52v1Z"/><path class="egcore-9" d="M49.45,80.67a0.26,0.26,0,0,0,0,.13,0.1,0.1,0,0,0,.09,0h0.12v0.33l-0.07,0-0.08,0H49.38a0.46,0.46,0,0,1-.24-0.06A0.29,0.29,0,0,1,49,81a0.84,0.84,0,0,1-.35.2,1.39,1.39,0,0,1-.4.06,1,1,0,0,1-.28,0,0.73,0.73,0,0,1-.24-0.12,0.56,0.56,0,0,1-.16-0.2,0.6,0.6,0,0,1-.06-0.28,0.64,0.64,0,0,1,.07-0.33,0.55,0.55,0,0,1,.19-0.2A0.86,0.86,0,0,1,48,80l0.3,0,0.25,0,0.21,0a0.32,0.32,0,0,0,.14-0.08A0.21,0.21,0,0,0,49,79.6a0.24,0.24,0,0,0,0-.15,0.29,0.29,0,0,0-.11-0.09l-0.15,0H48.55a0.61,0.61,0,0,0-.33.08,0.33,0.33,0,0,0-.15.26H47.59a0.73,0.73,0,0,1,.1-0.35,0.7,0.7,0,0,1,.23-0.22A0.93,0.93,0,0,1,48.23,79a1.84,1.84,0,0,1,.35,0,1.49,1.49,0,0,1,.32,0,0.89,0.89,0,0,1,.28.11,0.61,0.61,0,0,1,.2.2,0.54,0.54,0,0,1,.08.29v1.12ZM49,80.07a0.59,0.59,0,0,1-.27.09l-0.32,0-0.15,0-0.13.06a0.27,0.27,0,0,0-.09.11,0.36,0.36,0,0,0,0,.16,0.2,0.2,0,0,0,0,.13,0.33,0.33,0,0,0,.11.09l0.14,0h0.14l0.17,0a0.58,0.58,0,0,0,.17-0.07,0.46,0.46,0,0,0,.14-0.13A0.33,0.33,0,0,0,49,80.43V80.07Z"/><path class="egcore-9" d="M49.86,79h0.45V79.4h0a0.48,0.48,0,0,1,.08-0.17,0.77,0.77,0,0,1,.15-0.15A0.73,0.73,0,0,1,50.74,79a0.59,0.59,0,0,1,.21,0h0.18V79.4H50.93a0.55,0.55,0,0,0-.23,0,0.53,0.53,0,0,0-.19.14,0.69,0.69,0,0,0-.13.23,1,1,0,0,0,0,.32v1H49.86V79Z"/><path class="egcore-9" d="M53.06,80.67a0.26,0.26,0,0,0,0,.13,0.1,0.1,0,0,0,.09,0h0.12v0.33l-0.07,0-0.08,0H53a0.46,0.46,0,0,1-.24-0.06A0.29,0.29,0,0,1,52.62,81a0.84,0.84,0,0,1-.35.2,1.39,1.39,0,0,1-.4.06,1,1,0,0,1-.28,0,0.73,0.73,0,0,1-.24-0.12,0.56,0.56,0,0,1-.16-0.2,0.6,0.6,0,0,1-.06-0.28,0.64,0.64,0,0,1,.07-0.33,0.55,0.55,0,0,1,.19-0.2,0.86,0.86,0,0,1,.27-0.1l0.3,0,0.25,0,0.21,0a0.32,0.32,0,0,0,.14-0.08,0.21,0.21,0,0,0,.05-0.16,0.24,0.24,0,0,0,0-.15,0.29,0.29,0,0,0-.11-0.09l-0.15,0H52.16a0.61,0.61,0,0,0-.33.08,0.33,0.33,0,0,0-.15.26H51.2a0.73,0.73,0,0,1,.1-0.35,0.7,0.7,0,0,1,.23-0.22A0.93,0.93,0,0,1,51.84,79a1.84,1.84,0,0,1,.35,0,1.49,1.49,0,0,1,.32,0,0.89,0.89,0,0,1,.28.11,0.61,0.61,0,0,1,.2.2,0.54,0.54,0,0,1,.08.29v1.12Zm-0.48-.61a0.59,0.59,0,0,1-.27.09L52,80.2l-0.15,0-0.13.06a0.27,0.27,0,0,0-.09.11,0.36,0.36,0,0,0,0,.16,0.2,0.2,0,0,0,0,.13,0.33,0.33,0,0,0,.11.09l0.14,0H52l0.17,0a0.58,0.58,0,0,0,.17-0.07,0.46,0.46,0,0,0,.14-0.13,0.33,0.33,0,0,0,.05-0.19V80.07Z"/><path class="egcore-9" d="M53.47,79h0.45v0.3h0l0.12-.15A0.62,0.62,0,0,1,54.2,79L54.38,79a0.92,0.92,0,0,1,.23,0A0.79,0.79,0,0,1,55,79a0.5,0.5,0,0,1,.24.27A1,1,0,0,1,55.5,79a0.76,0.76,0,0,1,.4-0.1,0.79,0.79,0,0,1,.54.17,0.72,0.72,0,0,1,.19.56v1.5H56.15V79.89c0-.09,0-0.17,0-0.24a0.49,0.49,0,0,0,0-.19A0.28,0.28,0,0,0,56,79.34a0.48,0.48,0,0,0-.22,0,0.41,0.41,0,0,0-.35.15,0.73,0.73,0,0,0-.11.43v1.27H54.81v-1.4a0.59,0.59,0,0,0-.08-0.34,0.35,0.35,0,0,0-.3-0.12,0.44,0.44,0,0,0-.18,0,0.45,0.45,0,0,0-.15.11,0.55,0.55,0,0,0-.1.18,0.67,0.67,0,0,0,0,.24v1.29H53.47V79Z"/><path class="egcore-9" d="M57.4,80.19a0.83,0.83,0,0,0,0,.24,0.59,0.59,0,0,0,.11.21,0.51,0.51,0,0,0,.18.14,0.6,0.6,0,0,0,.26.05,0.57,0.57,0,0,0,.34-0.09,0.53,0.53,0,0,0,.19-0.27H59a0.91,0.91,0,0,1-.13.32,0.89,0.89,0,0,1-.22.23,1,1,0,0,1-.29.14,1.18,1.18,0,0,1-.34,0,1.14,1.14,0,0,1-.45-0.08,0.94,0.94,0,0,1-.33-0.24A1,1,0,0,1,57,80.53a1.46,1.46,0,0,1-.07-0.46A1.32,1.32,0,0,1,57,79.63a1.12,1.12,0,0,1,.21-0.37A1,1,0,0,1,58,78.92a1,1,0,0,1,.46.11,1,1,0,0,1,.34.28,1.16,1.16,0,0,1,.2.41,1.26,1.26,0,0,1,0,.47H57.4Zm1.12-.32a0.8,0.8,0,0,0,0-.22,0.6,0.6,0,0,0-.11-0.18,0.54,0.54,0,0,0-.17-0.13,0.5,0.5,0,0,0-.22,0,0.58,0.58,0,0,0-.23,0,0.54,0.54,0,0,0-.18.12,0.6,0.6,0,0,0-.12.18,0.63,0.63,0,0,0,0,.23h1.12Z"/><path class="egcore-9" d="M59,79h0.36V78.33h0.48V79h0.43v0.36H59.89V80.5a1,1,0,0,0,0,.13,0.22,0.22,0,0,0,0,.09,0.13,0.13,0,0,0,.07.06l0.13,0h0.2v0.37l-0.16,0H60a1.07,1.07,0,0,1-.3,0A0.4,0.4,0,0,1,59.52,81a0.37,0.37,0,0,1-.09-0.17,1.29,1.29,0,0,1,0-.24V79.34H59V79Z"/><path class="egcore-9" d="M60.93,80.19a0.81,0.81,0,0,0,0,.24,0.6,0.6,0,0,0,.11.21,0.51,0.51,0,0,0,.18.14,0.59,0.59,0,0,0,.26.05,0.58,0.58,0,0,0,.34-0.09A0.54,0.54,0,0,0,62,80.48H62.5a0.91,0.91,0,0,1-.13.32,0.89,0.89,0,0,1-.22.23,1,1,0,0,1-.29.14,1.18,1.18,0,0,1-.34,0,1.15,1.15,0,0,1-.46-0.08,0.93,0.93,0,0,1-.33-0.24,1,1,0,0,1-.21-0.36,1.45,1.45,0,0,1-.07-0.46,1.32,1.32,0,0,1,.07-0.44,1.1,1.1,0,0,1,.21-0.37,1,1,0,0,1,.77-0.34A1,1,0,0,1,62,79a1,1,0,0,1,.34.28,1.16,1.16,0,0,1,.2.41,1.26,1.26,0,0,1,0,.47h-1.6Zm1.12-.32a0.76,0.76,0,0,0,0-.22,0.57,0.57,0,0,0-.11-0.18,0.54,0.54,0,0,0-.17-0.13,0.5,0.5,0,0,0-.22,0,0.58,0.58,0,0,0-.23,0,0.54,0.54,0,0,0-.18.12,0.62,0.62,0,0,0-.12.18,0.64,0.64,0,0,0,0,.23h1.12Z"/><path class="egcore-9" d="M62.79,79h0.45V79.4h0a0.47,0.47,0,0,1,.08-0.17,0.78,0.78,0,0,1,.15-0.15A0.74,0.74,0,0,1,63.67,79a0.59,0.59,0,0,1,.21,0h0.18V79.4H63.86a0.55,0.55,0,0,0-.23,0,0.53,0.53,0,0,0-.19.14,0.71,0.71,0,0,0-.13.23,1,1,0,0,0,0,.32v1H62.79V79Z"/><path class="egcore-9" d="M64.53,80.46a0.36,0.36,0,0,0,.16.29,0.62,0.62,0,0,0,.33.08h0.15l0.16,0a0.31,0.31,0,0,0,.12-0.09,0.23,0.23,0,0,0,0-.3,0.46,0.46,0,0,0-.16-0.09l-0.23-.06-0.26-.05-0.26-.07A0.88,0.88,0,0,1,64.31,80a0.53,0.53,0,0,1-.16-0.18,0.57,0.57,0,0,1-.06-0.28,0.49,0.49,0,0,1,.09-0.3,0.64,0.64,0,0,1,.22-0.19A1,1,0,0,1,64.7,79l0.31,0a1.43,1.43,0,0,1,.32,0,0.88,0.88,0,0,1,.28.12,0.69,0.69,0,0,1,.21.21,0.71,0.71,0,0,1,.1.31h-0.5a0.3,0.3,0,0,0-.16-0.23A0.66,0.66,0,0,0,65,79.3H64.85l-0.13,0a0.28,0.28,0,0,0-.1.07,0.16,0.16,0,0,0,0,.12,0.18,0.18,0,0,0,.06.14,0.49,0.49,0,0,0,.16.09L65,79.82l0.26,0.05,0.26,0.07a0.82,0.82,0,0,1,.22.11,0.52,0.52,0,0,1,.22.45,0.59,0.59,0,0,1-.09.33,0.69,0.69,0,0,1-.23.22,1.05,1.05,0,0,1-.31.12,1.63,1.63,0,0,1-.34,0,1.51,1.51,0,0,1-.38,0,0.91,0.91,0,0,1-.3-0.14,0.68,0.68,0,0,1-.2-0.24,0.74,0.74,0,0,1-.08-0.33h0.48Z"/><rect class="egcore-13" x="46.12" y="39.33" width="17.57" height="4.01"/><path class="egcore-9" d="M49.5,40.18h0.56l1.16,3H50.65l-0.28-.79h-1.2l-0.28.79H48.35ZM49.31,42h0.92L49.78,40.7h0Z"/><path class="egcore-9" d="M52.8,41.74a0.45,0.45,0,0,0-.16-0.31,0.53,0.53,0,0,0-.33-0.1l-0.2,0a0.47,0.47,0,0,0-.19.12,0.67,0.67,0,0,0-.15.24,1.15,1.15,0,0,0-.06.4,1.18,1.18,0,0,0,0,.27,0.75,0.75,0,0,0,.1.24,0.55,0.55,0,0,0,.18.17,0.51,0.51,0,0,0,.27.06,0.48,0.48,0,0,0,.35-0.13,0.61,0.61,0,0,0,.17-0.37h0.48A1.05,1.05,0,0,1,53,43a1,1,0,0,1-.68.23,1.11,1.11,0,0,1-.45-0.09,1,1,0,0,1-.33-0.24,1,1,0,0,1-.2-0.36,1.38,1.38,0,0,1-.07-0.45,1.52,1.52,0,0,1,.07-0.46,1.05,1.05,0,0,1,.2-0.37A1,1,0,0,1,51.83,41,1.13,1.13,0,0,1,52.3,41a1.31,1.31,0,0,1,.36,0,1,1,0,0,1,.3.15,0.77,0.77,0,0,1,.22.24,0.83,0.83,0,0,1,.1.35H52.8Z"/><path class="egcore-9" d="M53.35,41h0.36V40.36h0.48V41h0.43v0.36H54.19v1.16a1.12,1.12,0,0,0,0,.13,0.23,0.23,0,0,0,0,.09,0.14,0.14,0,0,0,.07.06l0.13,0h0.2v0.37l-0.16,0H54.31a1.06,1.06,0,0,1-.31,0,0.41,0.41,0,0,1-.18-0.11,0.36,0.36,0,0,1-.09-0.17,1.31,1.31,0,0,1,0-.24V41.37H53.35V41Z"/><path class="egcore-9" d="M54.87,40.18h0.48v0.45H54.87V40.18Zm0,0.83h0.48v2.18H54.87V41Z"/><path class="egcore-9" d="M56.77,43.25a1.18,1.18,0,0,1-.46-0.09A1,1,0,0,1,56,42.92a1,1,0,0,1-.21-0.36,1.48,1.48,0,0,1,0-.92A1,1,0,0,1,56,41.28,1,1,0,0,1,56.3,41a1.3,1.3,0,0,1,.93,0,1,1,0,0,1,.35.24,1,1,0,0,1,.21.36,1.48,1.48,0,0,1,0,.92,1,1,0,0,1-.21.36,1,1,0,0,1-.35.24A1.18,1.18,0,0,1,56.77,43.25Zm0-.38A0.55,0.55,0,0,0,57,42.8a0.58,0.58,0,0,0,.19-0.18,0.77,0.77,0,0,0,.11-0.25,1.09,1.09,0,0,0,0-.56,0.75,0.75,0,0,0-.11-0.25A0.59,0.59,0,0,0,57,41.4a0.61,0.61,0,0,0-.56,0,0.59,0.59,0,0,0-.19.17,0.74,0.74,0,0,0-.11.25,1.09,1.09,0,0,0,0,.56,0.76,0.76,0,0,0,.11.25,0.58,0.58,0,0,0,.19.18A0.55,0.55,0,0,0,56.77,42.87Z"/><path class="egcore-9" d="M58.16,41h0.46v0.32h0a0.8,0.8,0,0,1,.29-0.28A0.77,0.77,0,0,1,59.3,41a0.81,0.81,0,0,1,.56.19,0.7,0.7,0,0,1,.21.56v1.49H59.59V41.82a0.59,0.59,0,0,0-.11-0.37,0.39,0.39,0,0,0-.31-0.12,0.51,0.51,0,0,0-.22,0,0.47,0.47,0,0,0-.16.12,0.58,0.58,0,0,0-.11.18,0.65,0.65,0,0,0,0,.22v1.28H58.16V41Z"/><path class="egcore-9" d="M60.83,42.49a0.36,0.36,0,0,0,.16.29,0.63,0.63,0,0,0,.33.08h0.15l0.16,0a0.3,0.3,0,0,0,.12-0.09,0.21,0.21,0,0,0,0-.15,0.21,0.21,0,0,0-.07-0.15,0.49,0.49,0,0,0-.16-0.09l-0.23-.06-0.26-.05-0.26-.07A0.85,0.85,0,0,1,60.61,42a0.52,0.52,0,0,1-.16-0.18,0.57,0.57,0,0,1-.06-0.28,0.49,0.49,0,0,1,.09-0.3,0.65,0.65,0,0,1,.22-0.19A1,1,0,0,1,61,41l0.31,0a1.41,1.41,0,0,1,.32,0,0.88,0.88,0,0,1,.28.12,0.69,0.69,0,0,1,.21.21,0.72,0.72,0,0,1,.1.31h-0.5a0.3,0.3,0,0,0-.16-0.23,0.66,0.66,0,0,0-.28-0.06H61.15l-0.13,0a0.28,0.28,0,0,0-.1.07,0.16,0.16,0,0,0,0,.12,0.18,0.18,0,0,0,.06.14,0.47,0.47,0,0,0,.16.09l0.22,0.06,0.26,0.05L61.84,42a0.82,0.82,0,0,1,.22.11,0.55,0.55,0,0,1,.16.18,0.54,0.54,0,0,1,.06.27,0.59,0.59,0,0,1-.09.33,0.69,0.69,0,0,1-.23.22,1,1,0,0,1-.31.12,1.57,1.57,0,0,1-.34,0,1.48,1.48,0,0,1-.38,0,0.89,0.89,0,0,1-.3-0.14,0.68,0.68,0,0,1-.2-0.24,0.74,0.74,0,0,1-.08-0.33h0.48Z"/><path class="egcore-14" d="M47.47,54.84h2.36v0.5H48v0.86H49.7v0.47H48v1h1.82v0.5H47.47V54.84Z"/><path class="egcore-14" d="M50.88,56.87l-0.82-1.12H50.7l0.5,0.73,0.52-.73h0.61l-0.81,1.1,0.91,1.28H51.79l-0.6-.88-0.58.88H50Z"/><path class="egcore-14" d="M52.68,55.74h0.5v0.32h0a0.64,0.64,0,0,1,.31-0.3,1,1,0,0,1,.43-0.09,1.13,1.13,0,0,1,.49.1,1,1,0,0,1,.35.27,1.18,1.18,0,0,1,.21.4,1.7,1.7,0,0,1,.07.49,1.75,1.75,0,0,1-.06.46,1.2,1.2,0,0,1-.19.4,0.92,0.92,0,0,1-.77.38l-0.23,0-0.22-.07A0.86,0.86,0,0,1,53.36,58a0.64,0.64,0,0,1-.15-0.17h0V59H52.68V55.74Zm1.83,1.19a1.19,1.19,0,0,0,0-.31,0.85,0.85,0,0,0-.12-0.27,0.64,0.64,0,0,0-.21-0.19,0.56,0.56,0,0,0-.28-0.07,0.58,0.58,0,0,0-.5.23,1,1,0,0,0-.17.61,1.22,1.22,0,0,0,0,.33,0.76,0.76,0,0,0,.13.26,0.66,0.66,0,0,0,.21.17,0.59,0.59,0,0,0,.28.06,0.58,0.58,0,0,0,.3-0.07,0.64,0.64,0,0,0,.2-0.19,0.78,0.78,0,0,0,.11-0.27A1.35,1.35,0,0,0,54.51,56.93Z"/><path class="egcore-14" d="M55.42,55.74h0.49V56.2h0A0.53,0.53,0,0,1,56,56a0.87,0.87,0,0,1,.16-0.17,0.82,0.82,0,0,1,.21-0.12,0.62,0.62,0,0,1,.23,0h0.2v0.5l-0.11,0H56.59a0.6,0.6,0,0,0-.25.05,0.57,0.57,0,0,0-.2.16,0.77,0.77,0,0,0-.14.25,1.1,1.1,0,0,0-.05.35v1.13H55.42V55.74Z"/><path class="egcore-14" d="M57.32,57.07a0.92,0.92,0,0,0,0,.27,0.66,0.66,0,0,0,.12.22,0.56,0.56,0,0,0,.2.15,0.65,0.65,0,0,0,.28.06,0.63,0.63,0,0,0,.37-0.1,0.58,0.58,0,0,0,.21-0.3H59a1,1,0,0,1-.38.6,1,1,0,0,1-.32.16,1.29,1.29,0,0,1-.37.05,1.26,1.26,0,0,1-.5-0.09,1,1,0,0,1-.36-0.26,1.08,1.08,0,0,1-.23-0.39,1.61,1.61,0,0,1-.08-0.5,1.43,1.43,0,0,1,.08-0.48,1.24,1.24,0,0,1,.23-0.4,1.08,1.08,0,0,1,.84-0.37,1.06,1.06,0,0,1,.5.12,1.09,1.09,0,0,1,.37.31,1.27,1.27,0,0,1,.21.44,1.35,1.35,0,0,1,0,.52H57.32Zm1.22-.34a0.86,0.86,0,0,0-.05-0.24,0.63,0.63,0,0,0-.12-0.2,0.59,0.59,0,0,0-.18-0.14,0.54,0.54,0,0,0-.24-0.05,0.63,0.63,0,0,0-.25,0,0.56,0.56,0,0,0-.19.13,0.65,0.65,0,0,0-.13.2,0.69,0.69,0,0,0-.05.25h1.22Z"/><path class="egcore-14" d="M59.81,57.36a0.39,0.39,0,0,0,.17.32,0.69,0.69,0,0,0,.36.09h0.17l0.18,0a0.33,0.33,0,0,0,.13-0.09,0.22,0.22,0,0,0,0-.16,0.23,0.23,0,0,0-.07-0.17,0.5,0.5,0,0,0-.18-0.1l-0.25-.07-0.28-.06L59.82,57a0.92,0.92,0,0,1-.24-0.12,0.57,0.57,0,0,1-.17-0.2,0.64,0.64,0,0,1-.06-0.3A0.54,0.54,0,0,1,59.43,56a0.73,0.73,0,0,1,.24-0.21A1,1,0,0,1,60,55.71a1.88,1.88,0,0,1,.34,0,1.55,1.55,0,0,1,.35,0,1,1,0,0,1,.3.13,0.74,0.74,0,0,1,.22.23,0.78,0.78,0,0,1,.11.34H60.77a0.33,0.33,0,0,0-.17-0.25,0.72,0.72,0,0,0-.31-0.06H60.16l-0.14,0a0.3,0.3,0,0,0-.11.07,0.17,0.17,0,0,0,0,.13,0.2,0.2,0,0,0,.07.16,0.52,0.52,0,0,0,.17.1l0.25,0.07,0.28,0.06,0.28,0.08a0.91,0.91,0,0,1,.25.12,0.6,0.6,0,0,1,.17.2,0.59,0.59,0,0,1,.07.29,0.65,0.65,0,0,1-.1.36,0.77,0.77,0,0,1-.25.24,1.12,1.12,0,0,1-.34.13,1.74,1.74,0,0,1-.37,0,1.62,1.62,0,0,1-.42-0.05A1,1,0,0,1,59.59,58a0.74,0.74,0,0,1-.22-0.26,0.81,0.81,0,0,1-.08-0.36h0.52Z"/><path class="egcore-14" d="M62.15,57.36a0.39,0.39,0,0,0,.17.32,0.69,0.69,0,0,0,.36.09h0.17l0.18,0a0.33,0.33,0,0,0,.13-0.09,0.22,0.22,0,0,0,0-.16,0.23,0.23,0,0,0-.07-0.17,0.5,0.5,0,0,0-.18-0.1l-0.25-.07-0.28-.06L62.15,57a0.92,0.92,0,0,1-.24-0.12,0.57,0.57,0,0,1-.17-0.2,0.64,0.64,0,0,1-.06-0.3A0.54,0.54,0,0,1,61.77,56,0.73,0.73,0,0,1,62,55.82a1,1,0,0,1,.32-0.11,1.88,1.88,0,0,1,.34,0,1.55,1.55,0,0,1,.35,0,1,1,0,0,1,.3.13,0.74,0.74,0,0,1,.22.23,0.78,0.78,0,0,1,.11.34H63.11a0.33,0.33,0,0,0-.17-0.25,0.72,0.72,0,0,0-.31-0.06H62.5l-0.14,0a0.3,0.3,0,0,0-.11.07,0.17,0.17,0,0,0,0,.13,0.2,0.2,0,0,0,.07.16,0.52,0.52,0,0,0,.17.1l0.25,0.07L63,56.72l0.28,0.08a0.91,0.91,0,0,1,.25.12,0.6,0.6,0,0,1,.17.2,0.59,0.59,0,0,1,.07.29,0.65,0.65,0,0,1-.1.36,0.77,0.77,0,0,1-.25.24,1.12,1.12,0,0,1-.34.13,1.74,1.74,0,0,1-.37,0,1.62,1.62,0,0,1-.42-0.05A1,1,0,0,1,61.93,58a0.74,0.74,0,0,1-.22-0.26,0.81,0.81,0,0,1-.08-0.36h0.52Z"/><path class="egcore-14" d="M43.71,60.19h0.81l0.9,2.57h0l0.88-2.57h0.8v3.28H46.56V60.94h0l-0.91,2.53H45.17l-0.91-2.53h0v2.53H43.71V60.19Z"/><path class="egcore-14" d="M47.69,60.19h0.52v0.5H47.69v-0.5Zm0,0.9h0.52v2.37H47.69V61.1Z"/><path class="egcore-14" d="M51,63.47h-0.5V63.15h0a0.62,0.62,0,0,1-.31.3,1,1,0,0,1-.43.09,1.14,1.14,0,0,1-.49-0.1,1,1,0,0,1-.35-0.27,1.15,1.15,0,0,1-.21-0.4,1.74,1.74,0,0,1-.07-0.5,1.58,1.58,0,0,1,.09-0.56,1.11,1.11,0,0,1,.23-0.39,0.9,0.9,0,0,1,.33-0.22A1.05,1.05,0,0,1,49.65,61l0.23,0,0.22,0.07a0.89,0.89,0,0,1,.2.12,0.65,0.65,0,0,1,.15.17h0V60.19H51v3.28Zm-1.83-1.16a1.16,1.16,0,0,0,0,.3,0.82,0.82,0,0,0,.12.26,0.6,0.6,0,0,0,.2.18,0.6,0.6,0,0,0,.29.07A0.58,0.58,0,0,0,50.1,63a0.62,0.62,0,0,0,.21-0.19,0.87,0.87,0,0,0,.12-0.27,1.21,1.21,0,0,0,0-.31,1,1,0,0,0-.18-0.62,0.58,0.58,0,0,0-.48-0.22,0.59,0.59,0,0,0-.31.08,0.64,0.64,0,0,0-.21.2,0.82,0.82,0,0,0-.11.28A1.44,1.44,0,0,0,49.15,62.31Z"/><path class="egcore-14" d="M53.73,63.47h-0.5V63.15h0a0.62,0.62,0,0,1-.31.3,1,1,0,0,1-.43.09,1.14,1.14,0,0,1-.49-0.1,1,1,0,0,1-.35-0.27,1.15,1.15,0,0,1-.21-0.4,1.74,1.74,0,0,1-.07-0.5,1.58,1.58,0,0,1,.09-0.56,1.11,1.11,0,0,1,.23-0.39A0.9,0.9,0,0,1,52,61.11,1.05,1.05,0,0,1,52.41,61l0.23,0,0.22,0.07a0.89,0.89,0,0,1,.2.12,0.65,0.65,0,0,1,.15.17h0V60.19h0.52v3.28Zm-1.83-1.16a1.16,1.16,0,0,0,0,.3,0.82,0.82,0,0,0,.12.26,0.6,0.6,0,0,0,.2.18,0.6,0.6,0,0,0,.29.07,0.58,0.58,0,0,0,.3-0.07,0.62,0.62,0,0,0,.21-0.19,0.87,0.87,0,0,0,.12-0.27,1.21,1.21,0,0,0,0-.31,1,1,0,0,0-.18-0.62,0.58,0.58,0,0,0-.48-0.22,0.59,0.59,0,0,0-.31.08,0.64,0.64,0,0,0-.21.2,0.82,0.82,0,0,0-.11.28A1.44,1.44,0,0,0,51.91,62.31Z"/><path class="egcore-14" d="M54.27,60.19h0.52v3.28H54.27V60.19Z"/><path class="egcore-14" d="M55.72,62.42a0.92,0.92,0,0,0,0,.27,0.66,0.66,0,0,0,.12.22,0.56,0.56,0,0,0,.2.15,0.65,0.65,0,0,0,.28.06,0.63,0.63,0,0,0,.37-0.1,0.58,0.58,0,0,0,.21-0.3h0.5a1,1,0,0,1-.39.6,1,1,0,0,1-.32.16,1.29,1.29,0,0,1-.37.05,1.26,1.26,0,0,1-.5-0.09,1,1,0,0,1-.36-0.26,1.08,1.08,0,0,1-.23-0.39,1.61,1.61,0,0,1-.08-0.5,1.43,1.43,0,0,1,.08-0.48,1.24,1.24,0,0,1,.23-0.4A1.08,1.08,0,0,1,56.35,61a1.06,1.06,0,0,1,.5.12,1.1,1.1,0,0,1,.37.31,1.26,1.26,0,0,1,.21.44,1.36,1.36,0,0,1,0,.52H55.72Zm1.22-.34a0.86,0.86,0,0,0-.05-0.24,0.63,0.63,0,0,0-.12-0.2,0.59,0.59,0,0,0-.18-0.14,0.54,0.54,0,0,0-.24-0.05,0.63,0.63,0,0,0-.25,0,0.56,0.56,0,0,0-.19.13,0.65,0.65,0,0,0-.13.2,0.69,0.69,0,0,0-.05.25h1.22Z"/><path class="egcore-14" d="M57.61,61.1h0.56l0.46,1.77h0l0.45-1.77h0.53L60,62.87h0l0.48-1.77h0.53l-0.74,2.37H59.78l-0.44-1.76h0l-0.44,1.76H58.34Z"/><path class="egcore-14" d="M63.33,62.94a0.28,0.28,0,0,0,0,.14,0.11,0.11,0,0,0,.1,0h0.13v0.36l-0.07,0-0.09,0H63.26A0.51,0.51,0,0,1,63,63.47a0.32,0.32,0,0,1-.14-0.23,0.92,0.92,0,0,1-.38.22,1.51,1.51,0,0,1-.44.07,1.07,1.07,0,0,1-.31,0,0.8,0.8,0,0,1-.26-0.13,0.61,0.61,0,0,1-.18-0.22,0.66,0.66,0,0,1-.07-0.31,0.7,0.7,0,0,1,.08-0.36,0.59,0.59,0,0,1,.21-0.22,1,1,0,0,1,.29-0.11l0.33-.05,0.27,0,0.23,0a0.34,0.34,0,0,0,.16-0.08,0.23,0.23,0,0,0,.06-0.17,0.27,0.27,0,0,0,0-.17,0.33,0.33,0,0,0-.12-0.1l-0.16,0H62.35a0.66,0.66,0,0,0-.36.09,0.36,0.36,0,0,0-.16.28H61.31a0.79,0.79,0,0,1,.11-0.38,0.77,0.77,0,0,1,.25-0.24A1,1,0,0,1,62,61.07a2,2,0,0,1,.39,0,1.63,1.63,0,0,1,.34,0,1,1,0,0,1,.3.12,0.65,0.65,0,0,1,.22.21,0.58,0.58,0,0,1,.08.32v1.22Zm-0.52-.66a0.64,0.64,0,0,1-.29.09l-0.35,0-0.16,0-0.14.07a0.3,0.3,0,0,0-.09.11,0.4,0.4,0,0,0,0,.17,0.22,0.22,0,0,0,.05.15,0.36,0.36,0,0,0,.12.09l0.16,0h0.15l0.19,0A0.63,0.63,0,0,0,62.6,63a0.51,0.51,0,0,0,.15-0.14,0.35,0.35,0,0,0,.06-0.21V62.28Z"/><path class="egcore-14" d="M63.85,61.1h0.49v0.46h0a0.53,0.53,0,0,1,.09-0.19,0.86,0.86,0,0,1,.16-0.17,0.84,0.84,0,0,1,.21-0.12A0.62,0.62,0,0,1,65,61h0.2v0.5l-0.11,0H65a0.6,0.6,0,0,0-.25.05,0.58,0.58,0,0,0-.21.16,0.79,0.79,0,0,0-.14.25,1.12,1.12,0,0,0,0,.35v1.13H63.85V61.1Z"/><path class="egcore-14" d="M65.75,62.42a0.93,0.93,0,0,0,0,.27,0.67,0.67,0,0,0,.12.22,0.56,0.56,0,0,0,.2.15,0.65,0.65,0,0,0,.29.06,0.63,0.63,0,0,0,.37-0.1,0.59,0.59,0,0,0,.21-0.3h0.5a1,1,0,0,1-.14.34,1,1,0,0,1-.24.25,1,1,0,0,1-.32.16,1.29,1.29,0,0,1-.37.05,1.26,1.26,0,0,1-.5-0.09,1,1,0,0,1-.37-0.26,1.09,1.09,0,0,1-.22-0.39,1.59,1.59,0,0,1-.08-0.5,1.42,1.42,0,0,1,.08-0.48,1.23,1.23,0,0,1,.23-0.4,1.1,1.1,0,0,1,.36-0.27,1.09,1.09,0,0,1,.48-0.1,1.06,1.06,0,0,1,.5.12,1.09,1.09,0,0,1,.37.31,1.25,1.25,0,0,1,.21.44,1.37,1.37,0,0,1,0,.52H65.75ZM67,62.08a0.83,0.83,0,0,0-.05-0.24,0.62,0.62,0,0,0-.12-0.2,0.59,0.59,0,0,0-.18-0.14,0.54,0.54,0,0,0-.24-0.05,0.63,0.63,0,0,0-.25,0,0.56,0.56,0,0,0-.19.13,0.66,0.66,0,0,0-.13.2,0.69,0.69,0,0,0-.05.25H67Z"/><path class="egcore-15" d="M88.38,93.72H88.27c0.1,0.27.2,0,.31,0,1.2,0,2.18-18,2.18-40.62s-1-41-2.18-41a0.27,0.27,0,0,0-.2.17"/><path class="egcore-15" d="M88.38,12.31V11.73H12.61v0.05c-1,3.51-1.79,21.26-1.79,41.35s0.77,38.35,1.79,40.31a0.67,0.67,0,0,0,.7.27h75c-1.06-2.81-1.87-19.91-1.87-40.58C86.4,31.75,87.27,14.2,88.38,12.31Z"/><line class="egcore-15" x1="12.6" y1="16.85" x2="15.34" y2="16.85"/><rect class="egcore-5" x="11.4" y="15.38" width="4.37" height="1.08"/><line class="egcore-15" x1="12.85" y1="93.73" x2="15.49" y2="93.73"/><path class="egcore-8" d="M14.85,11.76h3.37C17.88,11.72,16.26,11.73,14.85,11.76Z"/><path class="egcore-8" d="M18.28,11.81l70.11,0H18.22l0.07,0v0Z"/><path class="egcore-8" d="M12.61,11.76v0.05l2.24-.05H12.61Z"/><path class="egcore-8" d="M31.54,93.73H31A4.35,4.35,0,0,0,31.54,93.73Z"/><path class="egcore-8" d="M88.4,93.59L87.13,86H38.56c-5.48,0-12.62-.68-17.47-7.61-4.53-6.48-6.37-18.88-6.37-28.25,0-13.06-.8-34.33,13.92-38.3h-16C11.6,15.32,10.83,30,10.83,50s0.77,41.44,1.79,43.41a0.67,0.67,0,0,0,.7.27H31a7.56,7.56,0,0,1-1.05-.14H88.4Z"/><path class="egcore-9" d="M16,88.13h1.57a1.48,1.48,0,0,1,.62.11,1,1,0,0,1,.37.27,0.93,0.93,0,0,1,.18.36,1.52,1.52,0,0,1,0,.36,1.48,1.48,0,0,1,0,.36,0.93,0.93,0,0,1-.18.36,1,1,0,0,1-.37.27,1.52,1.52,0,0,1-.62.11H16.6v1.36H16V88.13Zm0.62,1.68h0.91l0.21,0a0.6,0.6,0,0,0,.2-0.1,0.5,0.5,0,0,0,.15-0.18,0.62,0.62,0,0,0,.06-0.28,0.72,0.72,0,0,0,0-.29A0.46,0.46,0,0,0,18,88.75a0.48,0.48,0,0,0-.19-0.09l-0.23,0H16.6v1.17Z"/><path class="egcore-9" d="M19.11,88.13h0.57v0.54H19.11V88.13Zm0,1h0.57v2.57H19.11V89.11Z"/><path class="egcore-9" d="M20.18,89.11h0.54v0.35h0a0.7,0.7,0,0,1,.33-0.32,1.11,1.11,0,0,1,.46-0.1,1.23,1.23,0,0,1,.53.11,1,1,0,0,1,.38.29,1.27,1.27,0,0,1,.22.44,1.84,1.84,0,0,1,.07.53,1.89,1.89,0,0,1-.07.5,1.31,1.31,0,0,1-.2.43,1,1,0,0,1-.35.3,1,1,0,0,1-.49.11l-0.25,0a1.1,1.1,0,0,1-.24-0.07,1,1,0,0,1-.21-0.13,0.71,0.71,0,0,1-.16-0.18h0v1.28H20.18V89.11Zm2,1.29a1.28,1.28,0,0,0,0-.34A0.93,0.93,0,0,0,22,89.77a0.69,0.69,0,0,0-.22-0.2,0.6,0.6,0,0,0-.31-0.08,0.63,0.63,0,0,0-.54.25,1.1,1.1,0,0,0-.18.66,1.33,1.33,0,0,0,0,.36,0.81,0.81,0,0,0,.14.29,0.7,0.7,0,0,0,.23.19,0.65,0.65,0,0,0,.31.07,0.64,0.64,0,0,0,.33-0.08A0.7,0.7,0,0,0,22,91a0.83,0.83,0,0,0,.12-0.29A1.46,1.46,0,0,0,22.16,90.39Z"/><path class="egcore-9" d="M23.53,90.54a1,1,0,0,0,0,.29,0.71,0.71,0,0,0,.13.24,0.61,0.61,0,0,0,.21.17,0.7,0.7,0,0,0,.31.06,0.68,0.68,0,0,0,.4-0.11,0.63,0.63,0,0,0,.23-0.32h0.54a1.07,1.07,0,0,1-.15.37,1.09,1.09,0,0,1-.26.28,1.14,1.14,0,0,1-.35.17,1.39,1.39,0,0,1-.4.06,1.36,1.36,0,0,1-.54-0.1,1.09,1.09,0,0,1-.4-0.28A1.18,1.18,0,0,1,23,90.94,1.73,1.73,0,0,1,23,90.39,1.55,1.55,0,0,1,23,89.87a1.33,1.33,0,0,1,.25-0.43A1.17,1.17,0,0,1,24.2,89a1.16,1.16,0,0,1,.54.13,1.2,1.2,0,0,1,.4.34,1.36,1.36,0,0,1,.23.48,1.47,1.47,0,0,1,0,.56H23.53Zm1.32-.37a0.94,0.94,0,0,0-.06-0.26,0.7,0.7,0,0,0-.13-0.22,0.64,0.64,0,0,0-.2-0.15,0.59,0.59,0,0,0-.26-0.06,0.69,0.69,0,0,0-.27.05,0.63,0.63,0,0,0-.21.14,0.73,0.73,0,0,0-.14.22,0.76,0.76,0,0,0-.06.27h1.32Z"/><path class="egcore-9" d="M25.74,88.13h0.57v3.55H25.74V88.13Z"/><path class="egcore-9" d="M26.81,88.13h0.57v0.54H26.81V88.13Zm0,1h0.57v2.57H26.81V89.11Z"/><path class="egcore-9" d="M27.87,89.11h0.54v0.38h0a1,1,0,0,1,.34-0.34A0.9,0.9,0,0,1,29.22,89a1,1,0,0,1,.67.22,0.84,0.84,0,0,1,.24.66v1.76H29.56V90.06a0.7,0.7,0,0,0-.13-0.44,0.47,0.47,0,0,0-.37-0.14,0.63,0.63,0,0,0-.26.05,0.57,0.57,0,0,0-.19.14,0.68,0.68,0,0,0-.12.22,0.77,0.77,0,0,0,0,.26v1.52H27.87V89.11Z"/><path class="egcore-9" d="M31,90.54a1,1,0,0,0,0,.29,0.71,0.71,0,0,0,.13.24,0.61,0.61,0,0,0,.21.17,0.7,0.7,0,0,0,.31.06,0.68,0.68,0,0,0,.4-0.11,0.63,0.63,0,0,0,.23-0.32H32.9a1.07,1.07,0,0,1-.15.37,1.09,1.09,0,0,1-.26.28,1.14,1.14,0,0,1-.35.17,1.39,1.39,0,0,1-.4.06,1.36,1.36,0,0,1-.54-0.1,1.09,1.09,0,0,1-.4-0.28,1.18,1.18,0,0,1-.24-0.43,1.73,1.73,0,0,1-.08-0.55,1.55,1.55,0,0,1,.09-0.52,1.33,1.33,0,0,1,.25-0.43A1.17,1.17,0,0,1,31.72,89a1.16,1.16,0,0,1,.54.13,1.2,1.2,0,0,1,.4.34,1.36,1.36,0,0,1,.23.48,1.47,1.47,0,0,1,0,.56H31Zm1.32-.37a0.94,0.94,0,0,0-.06-0.26,0.7,0.7,0,0,0-.13-0.22,0.64,0.64,0,0,0-.2-0.15,0.59,0.59,0,0,0-.26-0.06,0.69,0.69,0,0,0-.27.05,0.63,0.63,0,0,0-.21.14,0.73,0.73,0,0,0-.14.22,0.76,0.76,0,0,0-.06.27h1.32Z"/></svg>
