<svg id="Layer_1" data-name="Layer 1" xmlns="http://www.w3.org/2000/svg" viewBox="0 0 194.9 184.17"><defs><style>.wieg-1,.wieg-4,.wieg-7{fill:#fff;}.wieg-1,.wieg-3{stroke:#136d7c;stroke-linecap:round;stroke-linejoin:round;}.wieg-1{stroke-width:1.07px;}.wieg-2{opacity:0.4;}.wieg-3{fill:none;stroke-width:1.79px;}.wieg-5{opacity:0.63;}.wieg-6{fill:#136d7c;}.wieg-7{opacity:0.8;}.wieg-8{fill:#35a9c5;}.wieg-9{fill:#f1f0f1;}</style></defs><title>Untitled-2</title><rect class="wieg-1" x="0.54" y="0.54" rx="3.14" ry="3.14"/><g class="wieg-2"><path class="wieg-3" d="M175.84,50.56h-9.34c-0.78,0-1.43-1.14-1.43-2.52h0c0-1.39.64-2.52,1.43-2.52h19.06c0.78,0,1.43-1.14,1.43-2.52h0c0-1.39-.64-2.52-1.43-2.52H167.28"/><path class="wieg-3" d="M175.84,60.67h-9.34c-0.78,0-1.43-1.14-1.43-2.52h0c0-1.39.64-2.52,1.43-2.52h19.06c0.78,0,1.43-1.14,1.43-2.52h0c0-1.39-.64-2.52-1.43-2.52h-9.8"/><path class="wieg-3" d="M175.84,70.78h-9.34c-0.78,0-1.43-1.14-1.43-2.52h0c0-1.39.64-2.52,1.43-2.52h19.06c0.78,0,1.43-1.14,1.43-2.52h0c0-1.39-.64-2.52-1.43-2.52h-9.8"/><path class="wieg-3" d="M175.84,80.89h-9.34c-0.78,0-1.43-1.14-1.43-2.52h0c0-1.39.64-2.52,1.43-2.52h19.06c0.78,0,1.43-1.14,1.43-2.52h0c0-1.39-.64-2.52-1.43-2.52h-9.8"/><path class="wieg-3" d="M175.84,91h-9.34c-0.78,0-1.43-1.14-1.43-2.52h0c0-1.39.64-2.52,1.43-2.52h19.06c0.78,0,1.43-1.14,1.43-2.52h0c0-1.39-.64-2.52-1.43-2.52h-9.8"/><path class="wieg-3" d="M175.84,101.1h-9.34c-0.78,0-1.43-1.14-1.43-2.52h0c0-1.39.64-2.52,1.43-2.52h19.06c0.78,0,1.43-1.14,1.43-2.52h0c0-1.39-.64-2.52-1.43-2.52h-9.8"/><path class="wieg-3" d="M175.84,111.1h-9.34c-0.78,0-1.43-1.14-1.43-2.52h0c0-1.39.64-2.52,1.43-2.52h19.06c0.78,0,1.43-1.14,1.43-2.52h0c0-1.39-.64-2.52-1.43-2.52h-9.8"/><path class="wieg-3" d="M175.84,121.21h-9.34c-0.78,0-1.43-1.14-1.43-2.52h0c0-1.39.64-2.52,1.43-2.52h19.06c0.78,0,1.43-1.14,1.43-2.52h0c0-1.39-.64-2.52-1.43-2.52h-9.8"/><path class="wieg-3" d="M175.84,131.32h-9.34c-0.78,0-1.43-1.14-1.43-2.52h0c0-1.39.64-2.52,1.43-2.52h19.06c0.78,0,1.43-1.14,1.43-2.52h0c0-1.39-.64-2.52-1.43-2.52h-9.8"/><path class="wieg-3" d="M175.84,141.43h-9.34c-0.78,0-1.43-1.14-1.43-2.52h0c0-1.39.64-2.52,1.43-2.52h19.06c0.78,0,1.43-1.14,1.43-2.52h0c0-1.39-.64-2.52-1.43-2.52h-9.8"/><path class="wieg-3" d="M175.84,30.33h-9.34c-0.78,0-1.43-1.14-1.43-2.52h0c0-1.39.64-2.52,1.43-2.52h19.06c0.78,0,1.43-1.14,1.43-2.52h0c0-1.39-.64-2.52-1.43-2.52h-9.8"/><path class="wieg-3" d="M175.9,20.22h-9.34c-0.78,0-1.43-1.14-1.43-2.52h0c0-1.39.64-2.52,1.43-2.52h19.06c0.78,0,1.43-1.14,1.43-2.52h0c0-1.39-.64-2.52-1.43-2.52h-9.8"/><path class="wieg-3" d="M175.84,40.44h-9.34c-0.78,0-1.43-1.14-1.43-2.52h0c0-1.39.64-2.52,1.43-2.52h19.06c0.78,0,1.43-1.14,1.43-2.52h0c0-1.39-.64-2.52-1.43-2.52h-9.8"/><path class="wieg-3" d="M175.84,151.48h-9.34c-0.78,0-1.43-1.14-1.43-2.52h0c0-1.39.64-2.52,1.43-2.52h19.06c0.78,0,1.43-1.14,1.43-2.52h0c0-1.39-.64-2.52-1.43-2.52h-9.8"/><path class="wieg-3" d="M166.49,156.54h19.06c0.78,0,1.43-1.14,1.43-2.52h0c0-1.39-.64-2.52-1.43-2.52h-9.8"/></g><rect class="wieg-4" x="162.26" y="153.02" width="27.81" height="10.36"/><g class="wieg-5"><path class="wieg-6" d="M164.74,157.61h2.68a2.08,2.08,0,0,1,1.39.4,1.4,1.4,0,0,1,.46,1.12,1.64,1.64,0,0,1-.12.66,1.47,1.47,0,0,1-.28.42,1.06,1.06,0,0,1-.31.23l-0.22.09v0a1,1,0,0,1,.27.08,0.79,0.79,0,0,1,.27.2,1.1,1.1,0,0,1,.21.36,1.59,1.59,0,0,1,.08.55,5,5,0,0,0,.07.9,1.19,1.19,0,0,0,.23.58h-1.05a0.92,0.92,0,0,1-.13-0.4c0-.15,0-0.29,0-0.42a4.06,4.06,0,0,0,0-.66,1.15,1.15,0,0,0-.17-0.46,0.74,0.74,0,0,0-.34-0.27,1.51,1.51,0,0,0-.55-0.09h-1.45v2.31h-1v-5.61Zm1,2.56h1.61a1,1,0,0,0,.72-0.22,0.87,0.87,0,0,0,.24-0.67,1.05,1.05,0,0,0-.08-0.44,0.65,0.65,0,0,0-.22-0.26,0.8,0.8,0,0,0-.31-0.12,2,2,0,0,0-.37,0h-1.6v1.75Z"/><path class="wieg-6" d="M172,163.33a2.22,2.22,0,0,1-.87-0.16,1.86,1.86,0,0,1-.64-0.44,1.9,1.9,0,0,1-.4-0.68,2.61,2.61,0,0,1-.14-0.87,2.57,2.57,0,0,1,.14-0.86,1.9,1.9,0,0,1,.4-0.68,1.87,1.87,0,0,1,.64-0.44,2.42,2.42,0,0,1,1.74,0,1.85,1.85,0,0,1,.64.44,1.9,1.9,0,0,1,.4.68,2.57,2.57,0,0,1,.14.86,2.61,2.61,0,0,1-.14.87,1.9,1.9,0,0,1-.4.68,1.84,1.84,0,0,1-.64.44A2.21,2.21,0,0,1,172,163.33Zm0-.71a1,1,0,0,0,.52-0.13,1.08,1.08,0,0,0,.36-0.33,1.43,1.43,0,0,0,.21-0.46,2.08,2.08,0,0,0,.07-0.52,2.1,2.1,0,0,0-.07-0.52,1.39,1.39,0,0,0-.21-0.46,1.11,1.11,0,0,0-.36-0.33,1.13,1.13,0,0,0-1,0,1.11,1.11,0,0,0-.36.33,1.39,1.39,0,0,0-.21.46,2.05,2.05,0,0,0-.07.52,2,2,0,0,0,.07.52,1.43,1.43,0,0,0,.21.46,1.08,1.08,0,0,0,.36.33A1,1,0,0,0,172,162.62Z"/><path class="wieg-6" d="M178.38,163.22H177.5v-0.57h0a1.24,1.24,0,0,1-.49.49,1.34,1.34,0,0,1-.66.18,1.49,1.49,0,0,1-1.16-.4,1.74,1.74,0,0,1-.36-1.2v-2.58h0.9v2.49a1.1,1.1,0,0,0,.2.75,0.74,0.74,0,0,0,.57.22,1.13,1.13,0,0,0,.47-0.09,0.84,0.84,0,0,0,.31-0.23,0.89,0.89,0,0,0,.17-0.35,1.81,1.81,0,0,0,.05-0.44v-2.36h0.9v4.06Z"/><path class="wieg-6" d="M178.91,159.16h0.68v-1.22h0.9v1.22h0.81v0.67h-0.81V162a2.18,2.18,0,0,0,0,.24,0.42,0.42,0,0,0,.06.17,0.27,0.27,0,0,0,.13.11,0.64,0.64,0,0,0,.24,0h0.19l0.19,0v0.69l-0.29,0-0.29,0a2,2,0,0,1-.57-0.07,0.77,0.77,0,0,1-.34-0.2,0.68,0.68,0,0,1-.17-0.33,2.4,2.4,0,0,1-.05-0.45v-2.4h-0.68v-0.67Z"/><path class="wieg-6" d="M182.64,161.42a1.54,1.54,0,0,0,.07.46,1.12,1.12,0,0,0,.2.39,1,1,0,0,0,.34.26,1.12,1.12,0,0,0,.49.1,1.07,1.07,0,0,0,.63-0.17,1,1,0,0,0,.36-0.51h0.85a1.67,1.67,0,0,1-.66,1,1.81,1.81,0,0,1-.55.27,2.18,2.18,0,0,1-.63.09,2.16,2.16,0,0,1-.85-0.16,1.76,1.76,0,0,1-.62-0.44,1.87,1.87,0,0,1-.38-0.68,2.74,2.74,0,0,1-.13-0.87,2.45,2.45,0,0,1,.14-0.82,2.09,2.09,0,0,1,.39-0.68,1.85,1.85,0,0,1,1.43-.64,1.82,1.82,0,0,1,.86.2,1.9,1.9,0,0,1,.63.53,2.16,2.16,0,0,1,.37.76,2.31,2.31,0,0,1,.06.88h-3Zm2.09-.59a1.45,1.45,0,0,0-.09-0.41,1.1,1.1,0,0,0-.2-0.34,1,1,0,0,0-.31-0.24,0.92,0.92,0,0,0-.41-0.09,1.08,1.08,0,0,0-.43.08,1,1,0,0,0-.33.23,1.12,1.12,0,0,0-.22.34,1.21,1.21,0,0,0-.09.42h2.09Z"/><path class="wieg-6" d="M186.31,159.16h0.84v0.79h0a0.93,0.93,0,0,1,.15-0.32,1.53,1.53,0,0,1,.28-0.29,1.42,1.42,0,0,1,.36-0.21,1.07,1.07,0,0,1,.4-0.08h0.22l0.12,0v0.86l-0.19,0h-0.19a1,1,0,0,0-.43.09,1,1,0,0,0-.35.27,1.31,1.31,0,0,0-.24.44,1.89,1.89,0,0,0-.09.6v1.93h-0.9v-4.06Z"/></g><path class="wieg-6" d="M9.33,170h5.51v1.16H10.67v2h3.86v1.09H10.67v2.24h4.25v1.16H9.33V170Z"/><path class="wieg-6" d="M17.13,174.78l-1.92-2.63H16.7l1.16,1.7,1.21-1.7h1.42l-1.89,2.56,2.12,3H19.25l-1.4-2-1.36,2H15Z"/><path class="wieg-6" d="M21.17,172.15h1.16v0.75h0a1.51,1.51,0,0,1,.72-0.69,2.38,2.38,0,0,1,1-.21,2.65,2.65,0,0,1,1.14.23,2.26,2.26,0,0,1,.81.63,2.74,2.74,0,0,1,.48.94,4,4,0,0,1,.16,1.15,4.06,4.06,0,0,1-.15,1.08,2.8,2.8,0,0,1-.44.93,2.14,2.14,0,0,1-1.81.88,3,3,0,0,1-.54,0,2.33,2.33,0,0,1-.51-0.16,2,2,0,0,1-.46-0.27,1.52,1.52,0,0,1-.35-0.39h0v2.77H21.17v-7.59Zm4.27,2.78a2.76,2.76,0,0,0-.1-0.73,2,2,0,0,0-.29-0.63,1.51,1.51,0,0,0-.48-0.44A1.31,1.31,0,0,0,23.9,173a1.35,1.35,0,0,0-1.16.54,2.37,2.37,0,0,0-.39,1.43,2.82,2.82,0,0,0,.1.78,1.75,1.75,0,0,0,.31.62,1.51,1.51,0,0,0,.49.41,1.39,1.39,0,0,0,.66.15,1.37,1.37,0,0,0,.71-0.17,1.5,1.5,0,0,0,.48-0.44,1.8,1.8,0,0,0,.27-0.62A3.15,3.15,0,0,0,25.43,174.93Z"/><path class="wieg-6" d="M27.41,172.15h1.15v1.07h0a1.25,1.25,0,0,1,.21-0.44,2.05,2.05,0,0,1,.38-0.39,1.88,1.88,0,0,1,.49-0.28A1.46,1.46,0,0,1,30.2,172H30.5l0.17,0v1.18l-0.26,0-0.26,0a1.41,1.41,0,0,0-.58.12,1.34,1.34,0,0,0-.48.36,1.78,1.78,0,0,0-.32.59,2.57,2.57,0,0,0-.12.82v2.64H27.41v-5.54Z"/><path class="wieg-6" d="M31.68,175.24a2.12,2.12,0,0,0,.09.62,1.53,1.53,0,0,0,.27.53,1.33,1.33,0,0,0,.46.36,1.53,1.53,0,0,0,.66.13,1.47,1.47,0,0,0,.86-0.23,1.36,1.36,0,0,0,.49-0.69h1.16a2.29,2.29,0,0,1-.9,1.4,2.45,2.45,0,0,1-.75.36,3,3,0,0,1-.86.12,2.94,2.94,0,0,1-1.16-.21,2.39,2.39,0,0,1-.85-0.6,2.54,2.54,0,0,1-.52-0.92,3.73,3.73,0,0,1-.18-1.18,3.32,3.32,0,0,1,.19-1.12,2.87,2.87,0,0,1,.54-0.93,2.52,2.52,0,0,1,2-.87,2.48,2.48,0,0,1,1.17.27,2.58,2.58,0,0,1,.86.72,2.92,2.92,0,0,1,.5,1,3.18,3.18,0,0,1,.08,1.21H31.68Zm2.85-.8a2,2,0,0,0-.12-0.56,1.49,1.49,0,0,0-.28-0.47,1.39,1.39,0,0,0-.43-0.32,1.27,1.27,0,0,0-.56-0.12,1.47,1.47,0,0,0-.58.11,1.33,1.33,0,0,0-.45.31,1.52,1.52,0,0,0-.3.47,1.63,1.63,0,0,0-.12.58h2.85Z"/><path class="wieg-6" d="M37.34,175.91a0.92,0.92,0,0,0,.41.75,1.6,1.6,0,0,0,.85.21l0.39,0a1.71,1.71,0,0,0,.41-0.1,0.77,0.77,0,0,0,.32-0.22,0.53,0.53,0,0,0,.11-0.38,0.54,0.54,0,0,0-.17-0.39,1.2,1.2,0,0,0-.41-0.24,4,4,0,0,0-.57-0.16L38,175.23a6.14,6.14,0,0,1-.66-0.18,2.1,2.1,0,0,1-.57-0.29,1.33,1.33,0,0,1-.4-0.47,1.49,1.49,0,0,1-.15-0.7,1.26,1.26,0,0,1,.22-0.76,1.68,1.68,0,0,1,.56-0.49,2.42,2.42,0,0,1,.75-0.26,4.42,4.42,0,0,1,.79-0.08,3.62,3.62,0,0,1,.82.09,2.25,2.25,0,0,1,.71.29,1.74,1.74,0,0,1,.52.53,1.83,1.83,0,0,1,.26.79H39.59a0.76,0.76,0,0,0-.4-0.59,1.66,1.66,0,0,0-.72-0.15l-0.31,0a1.44,1.44,0,0,0-.33.08,0.71,0.71,0,0,0-.26.17,0.41,0.41,0,0,0-.11.29,0.47,0.47,0,0,0,.16.36,1.23,1.23,0,0,0,.41.23,4,4,0,0,0,.57.16l0.66,0.14a6.51,6.51,0,0,1,.65.18,2.11,2.11,0,0,1,.57.29,1.33,1.33,0,0,1,.56,1.15,1.49,1.49,0,0,1-.23.84,1.79,1.79,0,0,1-.58.56,2.67,2.67,0,0,1-.8.31,4,4,0,0,1-.87.1,3.8,3.8,0,0,1-1-.12,2.26,2.26,0,0,1-.77-0.36,1.72,1.72,0,0,1-.51-0.6,1.9,1.9,0,0,1-.2-0.85h1.22Z"/><path class="wieg-6" d="M42.64,175.91a0.92,0.92,0,0,0,.41.75,1.6,1.6,0,0,0,.85.21l0.39,0a1.71,1.71,0,0,0,.41-0.1,0.77,0.77,0,0,0,.32-0.22,0.53,0.53,0,0,0,.11-0.38,0.54,0.54,0,0,0-.17-0.39,1.2,1.2,0,0,0-.41-0.24,4,4,0,0,0-.57-0.16l-0.65-.14a6.14,6.14,0,0,1-.66-0.18,2.1,2.1,0,0,1-.57-0.29,1.33,1.33,0,0,1-.4-0.47,1.49,1.49,0,0,1-.15-0.7,1.26,1.26,0,0,1,.22-0.76,1.68,1.68,0,0,1,.56-0.49,2.42,2.42,0,0,1,.75-0.26,4.42,4.42,0,0,1,.79-0.08,3.62,3.62,0,0,1,.82.09,2.25,2.25,0,0,1,.71.29,1.74,1.74,0,0,1,.52.53,1.83,1.83,0,0,1,.26.79H44.89a0.76,0.76,0,0,0-.4-0.59,1.66,1.66,0,0,0-.72-0.15l-0.31,0a1.44,1.44,0,0,0-.33.08,0.71,0.71,0,0,0-.26.17,0.41,0.41,0,0,0-.11.29,0.47,0.47,0,0,0,.16.36,1.23,1.23,0,0,0,.41.23,4,4,0,0,0,.57.16l0.66,0.14a6.51,6.51,0,0,1,.65.18,2.11,2.11,0,0,1,.57.29,1.33,1.33,0,0,1,.56,1.15,1.49,1.49,0,0,1-.23.84,1.79,1.79,0,0,1-.58.56,2.67,2.67,0,0,1-.8.31,4,4,0,0,1-.87.1,3.8,3.8,0,0,1-1-.12,2.26,2.26,0,0,1-.77-0.36,1.72,1.72,0,0,1-.51-0.6,1.9,1.9,0,0,1-.2-0.85h1.22Z"/><path class="wieg-6" d="M49.89,170h3.66a2.84,2.84,0,0,1,1.9.55,1.91,1.91,0,0,1,.63,1.52,2.22,2.22,0,0,1-.16.91,2,2,0,0,1-.37.58,1.47,1.47,0,0,1-.42.32l-0.31.13v0a1.36,1.36,0,0,1,.37.11,1.1,1.1,0,0,1,.37.27,1.5,1.5,0,0,1,.28.49,2.15,2.15,0,0,1,.11.75,6.8,6.8,0,0,0,.1,1.23,1.61,1.61,0,0,0,.32.79H54.93a1.25,1.25,0,0,1-.18-0.55c0-.2,0-0.39,0-0.58a5.51,5.51,0,0,0-.06-0.91,1.58,1.58,0,0,0-.24-0.63,1,1,0,0,0-.47-0.37,2.07,2.07,0,0,0-.76-0.12h-2v3.15H49.89V170Zm1.34,3.48h2.2a1.39,1.39,0,0,0,1-.31,1.18,1.18,0,0,0,.33-0.92,1.42,1.42,0,0,0-.11-0.59,0.87,0.87,0,0,0-.29-0.36,1.09,1.09,0,0,0-.43-0.17,2.86,2.86,0,0,0-.5,0H51.23v2.39Z"/><path class="wieg-6" d="M61.87,177.69h-1.2v-0.77h0a1.68,1.68,0,0,1-.67.67,1.82,1.82,0,0,1-.91.25,2,2,0,0,1-1.58-.54,2.38,2.38,0,0,1-.49-1.63v-3.52h1.22v3.4a1.5,1.5,0,0,0,.28,1,1,1,0,0,0,.78.3,1.54,1.54,0,0,0,.64-0.12,1.13,1.13,0,0,0,.42-0.32,1.21,1.21,0,0,0,.23-0.48,2.48,2.48,0,0,0,.07-0.6v-3.22h1.22v5.54Z"/><path class="wieg-6" d="M62.89,172.15H64V173l0,0a2,2,0,0,1,.73-0.72,2,2,0,0,1,1-.26,2.07,2.07,0,0,1,1.44.47,1.81,1.81,0,0,1,.53,1.42v3.81H66.53v-3.48a1.51,1.51,0,0,0-.28-0.95,1,1,0,0,0-.8-0.29,1.32,1.32,0,0,0-.56.11,1.2,1.2,0,0,0-.42.31,1.44,1.44,0,0,0-.27.47,1.66,1.66,0,0,0-.1.57v3.27H62.89v-5.54Z"/><path class="wieg-6" d="M68.22,172.15h0.92v-1.66h1.22v1.66h1.1v0.91h-1.1v3a3.08,3.08,0,0,0,0,.33,0.58,0.58,0,0,0,.08.24,0.36,0.36,0,0,0,.18.15,0.89,0.89,0,0,0,.32,0h0.26l0.26,0v0.94l-0.4,0-0.4,0a2.71,2.71,0,0,1-.78-0.09,1,1,0,0,1-.46-0.27,0.93,0.93,0,0,1-.23-0.44,3.35,3.35,0,0,1-.07-0.61v-3.27H68.22v-0.91Z"/><path class="wieg-6" d="M72.11,170h1.22v1.16H72.11V170Zm0,2.11h1.22v5.54H72.11v-5.54Z"/><path class="wieg-6" d="M74.39,172.15h1.16v0.77h0a3.1,3.1,0,0,1,.3-0.37,1.61,1.61,0,0,1,.36-0.29,1.82,1.82,0,0,1,.46-0.19,2.29,2.29,0,0,1,.59-0.07,2,2,0,0,1,.94.23,1.27,1.27,0,0,1,.62.7,2.47,2.47,0,0,1,.72-0.67,1.93,1.93,0,0,1,1-.25,2,2,0,0,1,1.37.43,1.83,1.83,0,0,1,.49,1.44v3.83H81.21v-3.24q0-.33,0-0.61a1.23,1.23,0,0,0-.12-0.47,0.7,0.7,0,0,0-.31-0.31A1.21,1.21,0,0,0,80.2,173a1,1,0,0,0-.9.39,1.85,1.85,0,0,0-.28,1.09v3.25H77.8v-3.56a1.51,1.51,0,0,0-.21-0.87,0.88,0.88,0,0,0-.77-0.29,1.12,1.12,0,0,0-.46.1,1.14,1.14,0,0,0-.39.28,1.39,1.39,0,0,0-.27.45,1.7,1.7,0,0,0-.1.61v3.29H74.39v-5.54Z"/><path class="wieg-6" d="M84.4,175.24a2.12,2.12,0,0,0,.09.62,1.53,1.53,0,0,0,.27.53,1.33,1.33,0,0,0,.46.36,1.53,1.53,0,0,0,.66.13,1.47,1.47,0,0,0,.86-0.23,1.36,1.36,0,0,0,.49-0.69H88.4a2.29,2.29,0,0,1-.9,1.4,2.45,2.45,0,0,1-.75.36,3,3,0,0,1-.86.12,2.94,2.94,0,0,1-1.16-.21,2.39,2.39,0,0,1-.85-0.6,2.54,2.54,0,0,1-.52-0.92,3.73,3.73,0,0,1-.18-1.18,3.32,3.32,0,0,1,.19-1.12,2.87,2.87,0,0,1,.54-0.93,2.52,2.52,0,0,1,2-.87,2.48,2.48,0,0,1,1.17.27,2.58,2.58,0,0,1,.86.72,2.92,2.92,0,0,1,.5,1,3.18,3.18,0,0,1,.08,1.21H84.4Zm2.85-.8a2,2,0,0,0-.12-0.56,1.49,1.49,0,0,0-.28-0.47,1.39,1.39,0,0,0-.43-0.32,1.27,1.27,0,0,0-.56-0.12,1.47,1.47,0,0,0-.58.11,1.33,1.33,0,0,0-.45.31,1.52,1.52,0,0,0-.3.47,1.63,1.63,0,0,0-.12.58h2.85Z"/><rect class="wieg-7" x="74.98" y="61.91" width="32.84" height="7.49"/><rect class="wieg-8" x="74.61" y="75.1" width="41.81" height="50.53" rx="4.72" ry="4.72" transform="translate(195.88 4.84) rotate(90)"/><path class="wieg-9" d="M80.73,92.7h4.41v0.93H81.81v1.6h3.09V96.1H81.81V97.9h3.4v0.93H80.73V92.7Z"/><path class="wieg-9" d="M87.11,96.49l-1.54-2.1h1.18l0.93,1.36,1-1.36h1.13l-1.51,2L90,98.82H88.79l-1.12-1.64-1.09,1.64H85.43Z"/><path class="wieg-9" d="M90.46,94.39h0.93V95h0A1.21,1.21,0,0,1,92,94.44a1.91,1.91,0,0,1,.8-0.17,2.12,2.12,0,0,1,.91.18,1.8,1.8,0,0,1,.65.51,2.19,2.19,0,0,1,.39.75,3.19,3.19,0,0,1,.13.92,3.25,3.25,0,0,1-.12.87,2.24,2.24,0,0,1-.35.74,1.75,1.75,0,0,1-.6.51,1.77,1.77,0,0,1-.85.19,2.36,2.36,0,0,1-.43,0,1.81,1.81,0,0,1-.41-0.12,1.59,1.59,0,0,1-.36-0.22,1.21,1.21,0,0,1-.28-0.31h0v2.21h-1V94.39Zm3.41,2.22A2.21,2.21,0,0,0,93.79,96a1.61,1.61,0,0,0-.23-0.5,1.2,1.2,0,0,0-.39-0.35A1.05,1.05,0,0,0,92.65,95a1.07,1.07,0,0,0-.93.43,1.89,1.89,0,0,0-.31,1.14,2.27,2.27,0,0,0,.08.62,1.4,1.4,0,0,0,.24.49,1.23,1.23,0,0,0,.39.33,1.11,1.11,0,0,0,.53.12A1.09,1.09,0,0,0,93.21,98a1.2,1.2,0,0,0,.38-0.36,1.45,1.45,0,0,0,.21-0.5A2.52,2.52,0,0,0,93.87,96.61Z"/><path class="wieg-9" d="M95.59,94.39H96.5v0.86h0a1,1,0,0,1,.17-0.35,1.62,1.62,0,0,1,.3-0.31,1.53,1.53,0,0,1,.39-0.23,1.17,1.17,0,0,1,.44-0.09h0.24l0.13,0v0.94l-0.21,0H97.76a1.11,1.11,0,0,0-.47.1,1.05,1.05,0,0,0-.38.29,1.44,1.44,0,0,0-.26.48,2.06,2.06,0,0,0-.09.65v2.11h-1V94.39Z"/><path class="wieg-9" d="M99.13,96.86a1.69,1.69,0,0,0,.07.5,1.22,1.22,0,0,0,.22.42,1,1,0,0,0,.37.29,1.21,1.21,0,0,0,.53.11A1.17,1.17,0,0,0,101,98a1.08,1.08,0,0,0,.39-0.55h0.93a1.83,1.83,0,0,1-.72,1.12,1.93,1.93,0,0,1-.6.29,2.4,2.4,0,0,1-.69.1,2.34,2.34,0,0,1-.93-0.17,1.92,1.92,0,0,1-.68-0.48,2,2,0,0,1-.42-0.74,3,3,0,0,1-.14-0.94,2.66,2.66,0,0,1,.15-0.9A2.3,2.3,0,0,1,98.73,95a2,2,0,0,1,1.57-.7,2,2,0,0,1,.94.22,2.06,2.06,0,0,1,.69.58,2.32,2.32,0,0,1,.4.83,2.57,2.57,0,0,1,.06,1H99.13Zm2.28-.64a1.52,1.52,0,0,0-.1-0.45,1.22,1.22,0,0,0-.22-0.37,1.09,1.09,0,0,0-.34-0.26,1,1,0,0,0-.45-0.1,1.18,1.18,0,0,0-.47.09,1.08,1.08,0,0,0-.36.25,1.26,1.26,0,0,0-.24.37,1.3,1.3,0,0,0-.1.46h2.28Z"/><path class="wieg-9" d="M103.79,97.4a0.74,0.74,0,0,0,.33.6,1.28,1.28,0,0,0,.68.17l0.31,0a1.37,1.37,0,0,0,.33-0.08,0.62,0.62,0,0,0,.25-0.18,0.42,0.42,0,0,0,.09-0.3,0.43,0.43,0,0,0-.14-0.31,0.94,0.94,0,0,0-.33-0.19,3.15,3.15,0,0,0-.46-0.12l-0.52-.11a5.08,5.08,0,0,1-.53-0.15,1.73,1.73,0,0,1-.45-0.23A1.06,1.06,0,0,1,103,96.1a1.19,1.19,0,0,1-.12-0.56,1,1,0,0,1,.18-0.6,1.35,1.35,0,0,1,.45-0.39,2,2,0,0,1,.6-0.21,3.52,3.52,0,0,1,.63-0.06,2.89,2.89,0,0,1,.66.07,1.8,1.8,0,0,1,.57.24,1.39,1.39,0,0,1,.42.42,1.47,1.47,0,0,1,.21.63h-1a0.61,0.61,0,0,0-.32-0.47,1.34,1.34,0,0,0-.58-0.12l-0.24,0a1.12,1.12,0,0,0-.27.06,0.55,0.55,0,0,0-.21.14,0.33,0.33,0,0,0-.09.24,0.37,0.37,0,0,0,.12.29,1,1,0,0,0,.33.18,3.13,3.13,0,0,0,.46.12l0.53,0.11,0.52,0.15a1.67,1.67,0,0,1,.46.23,1.13,1.13,0,0,1,.33.37,1.11,1.11,0,0,1,.13.55,1.19,1.19,0,0,1-.18.67,1.42,1.42,0,0,1-.47.45,2.15,2.15,0,0,1-.64.25,3.21,3.21,0,0,1-.69.08,3,3,0,0,1-.78-0.09,1.8,1.8,0,0,1-.62-0.29,1.39,1.39,0,0,1-.41-0.48,1.53,1.53,0,0,1-.16-0.68h1Z"/><path class="wieg-9" d="M108.15,97.4a0.74,0.74,0,0,0,.33.6,1.28,1.28,0,0,0,.68.17l0.31,0a1.37,1.37,0,0,0,.33-0.08,0.62,0.62,0,0,0,.25-0.18,0.42,0.42,0,0,0,.09-0.3,0.43,0.43,0,0,0-.14-0.31,0.94,0.94,0,0,0-.33-0.19,3.15,3.15,0,0,0-.46-0.12l-0.52-.11a5.08,5.08,0,0,1-.53-0.15,1.73,1.73,0,0,1-.45-0.23,1.06,1.06,0,0,1-.32-0.37,1.19,1.19,0,0,1-.12-0.56,1,1,0,0,1,.18-0.6,1.35,1.35,0,0,1,.45-0.39,2,2,0,0,1,.6-0.21,3.52,3.52,0,0,1,.63-0.06,2.89,2.89,0,0,1,.66.07,1.8,1.8,0,0,1,.57.24,1.39,1.39,0,0,1,.42.42,1.47,1.47,0,0,1,.21.63h-1a0.61,0.61,0,0,0-.32-0.47,1.34,1.34,0,0,0-.58-0.12l-0.24,0a1.12,1.12,0,0,0-.27.06,0.55,0.55,0,0,0-.21.14,0.33,0.33,0,0,0-.09.24,0.37,0.37,0,0,0,.12.29,1,1,0,0,0,.33.18,3.13,3.13,0,0,0,.46.12l0.53,0.11,0.52,0.15a1.67,1.67,0,0,1,.46.23A1.13,1.13,0,0,1,111,97a1.11,1.11,0,0,1,.13.55,1.19,1.19,0,0,1-.18.67,1.42,1.42,0,0,1-.47.45,2.15,2.15,0,0,1-.64.25,3.21,3.21,0,0,1-.69.08,3,3,0,0,1-.78-0.09,1.8,1.8,0,0,1-.62-0.29,1.39,1.39,0,0,1-.41-0.48,1.53,1.53,0,0,1-.16-0.68h1Z"/><path class="wieg-9" d="M73.7,102.7h1.51l1.69,4.79h0l1.65-4.79h1.49v6.12H79V104.1h0l-1.7,4.73H76.43l-1.7-4.73h0v4.73h-1V102.7Z"/><path class="wieg-9" d="M81.14,102.7h1v0.93h-1V102.7Zm0,1.69h1v4.43h-1v-4.43Z"/><path class="wieg-9" d="M87.27,108.83H86.35v-0.6h0a1.16,1.16,0,0,1-.57.55,2,2,0,0,1-.8.17,2.11,2.11,0,0,1-.91-0.18,1.82,1.82,0,0,1-.65-0.5,2.13,2.13,0,0,1-.39-0.75,3.27,3.27,0,0,1-.13-0.93,3,3,0,0,1,.16-1,2.08,2.08,0,0,1,.43-0.72,1.68,1.68,0,0,1,.62-0.42,2,2,0,0,1,.71-0.13,2.4,2.4,0,0,1,.42,0,1.87,1.87,0,0,1,.41.13,1.59,1.59,0,0,1,.36.22,1.21,1.21,0,0,1,.28.31h0V102.7h1v6.12Zm-3.41-2.17a2.17,2.17,0,0,0,.07.56,1.54,1.54,0,0,0,.22.49,1.13,1.13,0,0,0,.38.34,1.11,1.11,0,0,0,.55.13,1.1,1.1,0,0,0,.56-0.14,1.16,1.16,0,0,0,.39-0.36,1.63,1.63,0,0,0,.22-0.5,2.26,2.26,0,0,0,.07-0.57,1.79,1.79,0,0,0-.33-1.15,1.09,1.09,0,0,0-.9-0.41,1.11,1.11,0,0,0-.58.14,1.2,1.2,0,0,0-.39.37,1.53,1.53,0,0,0-.21.51A2.67,2.67,0,0,0,83.86,106.66Z"/><path class="wieg-9" d="M92.43,108.83H91.5v-0.6h0a1.16,1.16,0,0,1-.57.55,2,2,0,0,1-.8.17,2.11,2.11,0,0,1-.91-0.18,1.82,1.82,0,0,1-.65-0.5,2.13,2.13,0,0,1-.39-0.75,3.27,3.27,0,0,1-.13-0.93,3,3,0,0,1,.16-1,2.08,2.08,0,0,1,.43-0.72,1.68,1.68,0,0,1,.62-0.42,2,2,0,0,1,.71-0.13,2.4,2.4,0,0,1,.42,0,1.87,1.87,0,0,1,.41.13,1.59,1.59,0,0,1,.36.22,1.21,1.21,0,0,1,.28.31h0V102.7h1v6.12ZM89,106.66a2.17,2.17,0,0,0,.07.56,1.54,1.54,0,0,0,.22.49,1.13,1.13,0,0,0,.38.34,1.11,1.11,0,0,0,.55.13A1.1,1.1,0,0,0,90.8,108a1.16,1.16,0,0,0,.39-0.36,1.63,1.63,0,0,0,.22-0.5,2.26,2.26,0,0,0,.07-0.57,1.79,1.79,0,0,0-.33-1.15,1.09,1.09,0,0,0-.9-0.41,1.11,1.11,0,0,0-.58.14,1.2,1.2,0,0,0-.39.37,1.53,1.53,0,0,0-.21.51A2.67,2.67,0,0,0,89,106.66Z"/><path class="wieg-9" d="M93.43,102.7h1v6.12h-1V102.7Z"/><path class="wieg-9" d="M96.15,106.86a1.71,1.71,0,0,0,.07.5,1.23,1.23,0,0,0,.22.42,1.05,1.05,0,0,0,.37.29,1.22,1.22,0,0,0,.53.11A1.17,1.17,0,0,0,98,108a1.09,1.09,0,0,0,.39-0.55h0.93a1.83,1.83,0,0,1-.72,1.12,1.94,1.94,0,0,1-.6.29,2.41,2.41,0,0,1-.69.1,2.35,2.35,0,0,1-.93-0.17,1.92,1.92,0,0,1-.68-0.48,2,2,0,0,1-.42-0.74,3,3,0,0,1-.14-0.94,2.66,2.66,0,0,1,.15-0.9,2.29,2.29,0,0,1,.43-0.75,2,2,0,0,1,1.57-.7,2,2,0,0,1,.94.22,2.06,2.06,0,0,1,.69.58,2.33,2.33,0,0,1,.4.83,2.57,2.57,0,0,1,.06,1H96.15Zm2.28-.64a1.58,1.58,0,0,0-.1-0.45,1.19,1.19,0,0,0-.22-0.37,1.1,1.1,0,0,0-.34-0.26,1,1,0,0,0-.45-0.1,1.18,1.18,0,0,0-.47.09,1.08,1.08,0,0,0-.36.25,1.24,1.24,0,0,0-.24.37,1.3,1.3,0,0,0-.1.46h2.28Z"/><path class="wieg-9" d="M99.67,104.39h1l0.87,3.31h0l0.83-3.31h1l0.8,3.31h0l0.9-3.31h1l-1.39,4.43h-1l-0.82-3.29h0l-0.81,3.29h-1Z"/><path class="wieg-9" d="M110.37,107.84a0.51,0.51,0,0,0,0,.26,0.2,0.2,0,0,0,.18.08h0.1l0.14,0v0.68l-0.13,0-0.17,0-0.17,0h-0.15a0.94,0.94,0,0,1-.5-0.12,0.6,0.6,0,0,1-.26-0.42,1.73,1.73,0,0,1-.72.41,2.81,2.81,0,0,1-.82.13,2,2,0,0,1-.57-0.08,1.52,1.52,0,0,1-.48-0.24,1.15,1.15,0,0,1-.33-0.4,1.24,1.24,0,0,1-.12-0.57,1.31,1.31,0,0,1,.15-0.67,1.11,1.11,0,0,1,.39-0.4,1.8,1.8,0,0,1,.55-0.21,6.17,6.17,0,0,1,.61-0.1l0.51-.07a2.33,2.33,0,0,0,.42-0.07,0.64,0.64,0,0,0,.29-0.16,0.44,0.44,0,0,0,.11-0.32,0.5,0.5,0,0,0-.09-0.31,0.61,0.61,0,0,0-.22-0.18,1,1,0,0,0-.3-0.09l-0.31,0a1.23,1.23,0,0,0-.68.17,0.67,0.67,0,0,0-.3.53h-1a1.47,1.47,0,0,1,.21-0.71,1.42,1.42,0,0,1,.46-0.45,1.89,1.89,0,0,1,.63-0.24,3.74,3.74,0,0,1,.72-0.07,3,3,0,0,1,.64.07,1.84,1.84,0,0,1,.57.22,1.23,1.23,0,0,1,.41.4,1.09,1.09,0,0,1,.15.6v2.28Zm-1-1.23a1.2,1.2,0,0,1-.55.18c-0.22,0-.43,0-0.65.09l-0.3.07a1,1,0,0,0-.26.13,0.57,0.57,0,0,0-.18.21,0.73,0.73,0,0,0-.06.32,0.41,0.41,0,0,0,.09.27,0.69,0.69,0,0,0,.23.18,1,1,0,0,0,.29.09l0.29,0a1.61,1.61,0,0,0,.35,0A1.17,1.17,0,0,0,109,108a0.93,0.93,0,0,0,.28-0.26,0.67,0.67,0,0,0,.11-0.39v-0.73Z"/><path class="wieg-9" d="M111.34,104.39h0.92v0.86h0a1,1,0,0,1,.17-0.35,1.65,1.65,0,0,1,.3-0.31,1.52,1.52,0,0,1,.39-0.23,1.16,1.16,0,0,1,.44-0.09h0.24l0.13,0v0.94l-0.21,0h-0.21a1.13,1.13,0,0,0-.47.1,1.08,1.08,0,0,0-.38.29,1.43,1.43,0,0,0-.26.48,2,2,0,0,0-.09.65v2.11h-1v-4.43Z"/><path class="wieg-9" d="M114.88,106.86a1.69,1.69,0,0,0,.07.5,1.22,1.22,0,0,0,.22.42,1,1,0,0,0,.37.29,1.22,1.22,0,0,0,.53.11,1.17,1.17,0,0,0,.69-0.18,1.09,1.09,0,0,0,.39-0.55h0.93a1.83,1.83,0,0,1-.72,1.12,2,2,0,0,1-.6.29,2.41,2.41,0,0,1-.69.1,2.35,2.35,0,0,1-.93-0.17,1.91,1.91,0,0,1-.68-0.48,2,2,0,0,1-.42-0.74,3,3,0,0,1-.14-0.94,2.67,2.67,0,0,1,.15-0.9,2.28,2.28,0,0,1,.43-0.75,2,2,0,0,1,1.57-.7,2,2,0,0,1,.94.22,2.05,2.05,0,0,1,.69.58,2.33,2.33,0,0,1,.4.83,2.57,2.57,0,0,1,.06,1h-3.26Zm2.28-.64a1.53,1.53,0,0,0-.1-0.45,1.16,1.16,0,0,0-.22-0.37,1.1,1.1,0,0,0-.34-0.26A1,1,0,0,0,116,105a1.19,1.19,0,0,0-.47.09,1.09,1.09,0,0,0-.36.25,1.26,1.26,0,0,0-.24.37,1.32,1.32,0,0,0-.1.46h2.28Z"/></svg>
