<svg id="Layer_1" data-name="Layer 1" xmlns="http://www.w3.org/2000/svg" viewBox="0 0 194.89 184.17"><defs><style>.wieg-1,.wieg-4,.wieg-7{fill:#fff}.wieg-1,.wieg-3{stroke:#136d7c;stroke-linecap:round;stroke-linejoin:round}.wieg-1{stroke-width:1.07px}.wieg-2{opacity:.4}.wieg-3{fill:none;stroke-width:1.79px}.wieg-5{opacity:.63}.wieg-6{fill:#136d7c}.wieg-7{opacity:.8;isolation:isolate}.wieg-8{fill:#35a9c5}.wieg-9{fill:#f1f0f1}</style></defs><title>whatiseg</title><rect class="wieg-1" x=".54" y=".54" width="193.82" height="183.1" rx="3.14" ry="3.14"/><g class="wieg-2"><path class="wieg-3" d="M175.84 50.56h-9.34c-.78 0-1.43-1.14-1.43-2.52 0-1.39.64-2.52 1.43-2.52h19.06c.78 0 1.43-1.14 1.43-2.52 0-1.39-.64-2.52-1.43-2.52h-18.28M175.84 60.67h-9.34c-.78 0-1.43-1.14-1.43-2.52 0-1.39.64-2.52 1.43-2.52h19.06c.78 0 1.43-1.14 1.43-2.52 0-1.39-.64-2.52-1.43-2.52h-9.8M175.84 70.78h-9.34c-.78 0-1.43-1.14-1.43-2.52 0-1.39.64-2.52 1.43-2.52h19.06c.78 0 1.43-1.14 1.43-2.52 0-1.39-.64-2.52-1.43-2.52h-9.8M175.84 80.89h-9.34c-.78 0-1.43-1.14-1.43-2.52 0-1.39.64-2.52 1.43-2.52h19.06c.78 0 1.43-1.14 1.43-2.52 0-1.39-.64-2.52-1.43-2.52h-9.8M175.84 91h-9.34c-.78 0-1.43-1.14-1.43-2.52 0-1.39.64-2.52 1.43-2.52h19.06c.78 0 1.43-1.14 1.43-2.52 0-1.39-.64-2.52-1.43-2.52h-9.8M175.84 101.1h-9.34c-.78 0-1.43-1.14-1.43-2.52 0-1.39.64-2.52 1.43-2.52h19.06c.78 0 1.43-1.14 1.43-2.52 0-1.39-.64-2.52-1.43-2.52h-9.8"/><path class="wieg-3" d="M175.84 111.1h-9.34c-.78 0-1.43-1.14-1.43-2.52 0-1.39.64-2.52 1.43-2.52h19.06c.78 0 1.43-1.14 1.43-2.52 0-1.39-.64-2.52-1.43-2.52h-9.8M175.84 121.21h-9.34c-.78 0-1.43-1.14-1.43-2.52 0-1.39.64-2.52 1.43-2.52h19.06c.78 0 1.43-1.14 1.43-2.52 0-1.39-.64-2.52-1.43-2.52h-9.8M175.84 131.32h-9.34c-.78 0-1.43-1.14-1.43-2.52 0-1.39.64-2.52 1.43-2.52h19.06c.78 0 1.43-1.14 1.43-2.52 0-1.39-.64-2.52-1.43-2.52h-9.8M175.84 141.43h-9.34c-.78 0-1.43-1.14-1.43-2.52 0-1.39.64-2.52 1.43-2.52h19.06c.78 0 1.43-1.14 1.43-2.52 0-1.39-.64-2.52-1.43-2.52h-9.8M175.84 30.33h-9.34c-.78 0-1.43-1.14-1.43-2.52 0-1.39.64-2.52 1.43-2.52h19.06c.78 0 1.43-1.14 1.43-2.52 0-1.39-.64-2.52-1.43-2.52h-9.8M175.9 20.22h-9.34c-.78 0-1.43-1.14-1.43-2.52 0-1.39.64-2.52 1.43-2.52h19.06c.78 0 1.43-1.14 1.43-2.52 0-1.39-.64-2.52-1.43-2.52h-9.8M175.84 40.44h-9.34c-.78 0-1.43-1.14-1.43-2.52 0-1.39.64-2.52 1.43-2.52h19.06c.78 0 1.43-1.14 1.43-2.52 0-1.39-.64-2.52-1.43-2.52h-9.8"/><path class="wieg-3" d="M175.84 151.48h-9.34c-.78 0-1.43-1.14-1.43-2.52 0-1.39.64-2.52 1.43-2.52h19.06c.78 0 1.43-1.14 1.43-2.52 0-1.39-.64-2.52-1.43-2.52h-9.8M166.49 156.54h19.06c.78 0 1.43-1.14 1.43-2.52 0-1.39-.64-2.52-1.43-2.52h-9.8"/></g><path class="wieg-4" d="M162.25 153.02h27.81v10.36h-27.81z"/><g class="wieg-5"><path class="wieg-6" d="M164.74 157.61h2.68a2.08 2.08 0 0 1 1.39.4 1.4 1.4 0 0 1 .46 1.12 1.64 1.64 0 0 1-.12.66 1.47 1.47 0 0 1-.28.42 1.06 1.06 0 0 1-.31.23l-.22.09a1 1 0 0 1 .27.08.79.79 0 0 1 .27.2 1.1 1.1 0 0 1 .21.36 1.59 1.59 0 0 1 .08.55 5 5 0 0 0 .07.9 1.19 1.19 0 0 0 .23.58h-1.05a.92.92 0 0 1-.13-.4v-.42a4.06 4.06 0 0 0 0-.66 1.15 1.15 0 0 0-.17-.46.74.74 0 0 0-.34-.27 1.51 1.51 0 0 0-.55-.09h-1.45v2.31h-1v-5.61zm1 2.56h1.61a1 1 0 0 0 .72-.22.87.87 0 0 0 .24-.67 1.05 1.05 0 0 0-.08-.44.65.65 0 0 0-.22-.26.8.8 0 0 0-.31-.12 2 2 0 0 0-.37 0h-1.6v1.71zM172 163.33a2.22 2.22 0 0 1-.87-.16 1.86 1.86 0 0 1-.64-.44 1.9 1.9 0 0 1-.4-.68 2.61 2.61 0 0 1-.14-.87 2.57 2.57 0 0 1 .14-.86 1.9 1.9 0 0 1 .4-.68 1.87 1.87 0 0 1 .64-.44 2.42 2.42 0 0 1 1.74 0 1.85 1.85 0 0 1 .64.44 1.9 1.9 0 0 1 .4.68 2.57 2.57 0 0 1 .14.86 2.61 2.61 0 0 1-.14.87 1.9 1.9 0 0 1-.4.68 1.84 1.84 0 0 1-.64.44 2.21 2.21 0 0 1-.87.16zm0-.71a1 1 0 0 0 .52-.13 1.08 1.08 0 0 0 .36-.33 1.43 1.43 0 0 0 .21-.46 2 2 0 0 0 0-1 1.39 1.39 0 0 0-.21-.46 1.11 1.11 0 0 0-.36-.33 1.13 1.13 0 0 0-1 0 1.11 1.11 0 0 0-.36.33 1.39 1.39 0 0 0-.21.46 2 2 0 0 0 0 1 1.43 1.43 0 0 0 .21.46 1.08 1.08 0 0 0 .36.33 1 1 0 0 0 .48.13zM178.38 163.22h-.88v-.57a1.24 1.24 0 0 1-.49.49 1.34 1.34 0 0 1-.66.18 1.49 1.49 0 0 1-1.16-.4 1.74 1.74 0 0 1-.36-1.2v-2.58h.9v2.49a1.1 1.1 0 0 0 .2.75.74.74 0 0 0 .57.22 1.13 1.13 0 0 0 .47-.09.84.84 0 0 0 .31-.23.89.89 0 0 0 .17-.35 1.81 1.81 0 0 0 .05-.44v-2.36h.9v4.06zM178.91 159.16h.68v-1.22h.9v1.22h.81v.67h-.81V162a2.18 2.18 0 0 0 0 .24.42.42 0 0 0 .06.17.27.27 0 0 0 .13.11.64.64 0 0 0 .24 0h.38v.69h-.58a2 2 0 0 1-.57-.07.77.77 0 0 1-.34-.2.68.68 0 0 1-.17-.33 2.4 2.4 0 0 1-.05-.45v-2.4h-.68v-.6zM182.64 161.42a1.54 1.54 0 0 0 .07.46 1.12 1.12 0 0 0 .2.39 1 1 0 0 0 .34.26 1.12 1.12 0 0 0 .49.1 1.07 1.07 0 0 0 .63-.17 1 1 0 0 0 .36-.51h.85a1.67 1.67 0 0 1-.66 1 1.81 1.81 0 0 1-.55.27 2.3 2.3 0 0 1-1.48-.07 1.76 1.76 0 0 1-.62-.44 1.87 1.87 0 0 1-.38-.68 2.74 2.74 0 0 1-.13-.87 2.45 2.45 0 0 1 .14-.82 2.09 2.09 0 0 1 .39-.68 1.85 1.85 0 0 1 1.43-.64 1.82 1.82 0 0 1 .86.2 1.9 1.9 0 0 1 .63.53 2.16 2.16 0 0 1 .37.76 2.31 2.31 0 0 1 .06.88h-3zm2.09-.59a1.45 1.45 0 0 0-.09-.41 1.1 1.1 0 0 0-.2-.34 1 1 0 0 0-.31-.24.92.92 0 0 0-.41-.09 1.08 1.08 0 0 0-.43.08 1 1 0 0 0-.33.23 1.12 1.12 0 0 0-.22.34 1.21 1.21 0 0 0-.09.42h2.08zM186.31 159.16h.84v.79a.93.93 0 0 1 .15-.32 1.53 1.53 0 0 1 .28-.29 1.42 1.42 0 0 1 .36-.21 1.07 1.07 0 0 1 .4-.08h.34v.86h-.38a1 1 0 0 0-.78.36 1.31 1.31 0 0 0-.24.44 1.89 1.89 0 0 0-.09.6v1.93h-.9v-4.06z"/></g><path class="wieg-6" d="M9.33 170h5.51v1.16h-4.17v2h3.86v1.09h-3.86v2.24h4.25v1.16H9.33V170zM17.13 174.78l-1.92-2.63h1.49l1.16 1.7 1.21-1.7h1.42l-1.89 2.56 2.12 3h-1.47l-1.4-2-1.36 2H15zM21.17 172.15h1.16v.75a1.51 1.51 0 0 1 .72-.69 2.38 2.38 0 0 1 1-.21 2.65 2.65 0 0 1 1.14.23 2.26 2.26 0 0 1 .81.63 2.74 2.74 0 0 1 .48.94 4 4 0 0 1 .16 1.15 4.06 4.06 0 0 1-.15 1.08 2.8 2.8 0 0 1-.49 1 2.14 2.14 0 0 1-1.81.88 3 3 0 0 1-.54 0 2.33 2.33 0 0 1-.51-.16 2 2 0 0 1-.46-.27 1.52 1.52 0 0 1-.35-.39v2.77h-1.16v-7.68zm4.27 2.78a2.76 2.76 0 0 0-.1-.73 2 2 0 0 0-.29-.63 1.51 1.51 0 0 0-.48-.44 1.31 1.31 0 0 0-.67-.13 1.35 1.35 0 0 0-1.16.54 2.37 2.37 0 0 0-.39 1.43 2.82 2.82 0 0 0 .1.78 1.75 1.75 0 0 0 .31.62 1.51 1.51 0 0 0 .49.41 1.39 1.39 0 0 0 .66.15 1.37 1.37 0 0 0 .71-.17 1.5 1.5 0 0 0 .48-.44 1.8 1.8 0 0 0 .27-.62 3.15 3.15 0 0 0 .06-.77zM27.41 172.15h1.15v1.07a1.25 1.25 0 0 1 .21-.44 2 2 0 0 1 .38-.39 1.88 1.88 0 0 1 .49-.28 1.46 1.46 0 0 1 .56-.11h.47v1.18h-.52a1.41 1.41 0 0 0-.58.12 1.34 1.34 0 0 0-.48.36 1.78 1.78 0 0 0-.32.59 2.57 2.57 0 0 0-.12.82v2.64h-1.24v-5.56zM31.68 175.24a2.12 2.12 0 0 0 .09.62 1.53 1.53 0 0 0 .27.53 1.33 1.33 0 0 0 .46.36 1.53 1.53 0 0 0 .66.13 1.47 1.47 0 0 0 .86-.23 1.36 1.36 0 0 0 .49-.69h1.16a2.29 2.29 0 0 1-.9 1.4 2.45 2.45 0 0 1-.75.36 3 3 0 0 1-.86.12 2.94 2.94 0 0 1-1.16-.21 2.39 2.39 0 0 1-.85-.6 2.54 2.54 0 0 1-.52-.92 3.73 3.73 0 0 1-.18-1.18 3.32 3.32 0 0 1 .19-1.12 2.87 2.87 0 0 1 .54-.93 2.52 2.52 0 0 1 2-.87 2.48 2.48 0 0 1 1.17.27 2.58 2.58 0 0 1 .86.72 2.92 2.92 0 0 1 .5 1 3.18 3.18 0 0 1 .08 1.21h-4.11zm2.85-.8a2 2 0 0 0-.12-.56 1.49 1.49 0 0 0-.28-.47 1.39 1.39 0 0 0-.43-.32 1.27 1.27 0 0 0-.56-.12 1.47 1.47 0 0 0-.58.11 1.33 1.33 0 0 0-.45.31 1.52 1.52 0 0 0-.3.47 1.63 1.63 0 0 0-.12.58h2.84zM37.34 175.91a.92.92 0 0 0 .41.75 1.6 1.6 0 0 0 .85.21h.4a1.71 1.71 0 0 0 .41-.1.77.77 0 0 0 .32-.22.53.53 0 0 0 .11-.38.54.54 0 0 0-.17-.39 1.2 1.2 0 0 0-.41-.24 4 4 0 0 0-.57-.16l-.69-.15a6.14 6.14 0 0 1-.66-.18 2.1 2.1 0 0 1-.57-.29 1.33 1.33 0 0 1-.4-.47 1.49 1.49 0 0 1-.15-.7 1.26 1.26 0 0 1 .22-.76 1.68 1.68 0 0 1 .56-.49 2.42 2.42 0 0 1 .75-.26 4.42 4.42 0 0 1 .79-.08 3.62 3.62 0 0 1 .82.09 2.25 2.25 0 0 1 .71.29 1.74 1.74 0 0 1 .52.53 1.83 1.83 0 0 1 .26.79h-1.26a.76.76 0 0 0-.4-.59 1.66 1.66 0 0 0-.72-.15h-.31a1.44 1.44 0 0 0-.33.08.71.71 0 0 0-.26.17.41.41 0 0 0-.11.29.47.47 0 0 0 .16.36 1.23 1.23 0 0 0 .41.23 4 4 0 0 0 .57.16l.66.14a6.51 6.51 0 0 1 .65.18 2.11 2.11 0 0 1 .57.29A1.33 1.33 0 0 1 41 176a1.49 1.49 0 0 1-.23.84 1.79 1.79 0 0 1-.58.56 2.67 2.67 0 0 1-.8.31 4 4 0 0 1-.87.1 3.8 3.8 0 0 1-1-.12 2.26 2.26 0 0 1-.77-.36 1.72 1.72 0 0 1-.51-.6 1.9 1.9 0 0 1-.2-.85h1.26zM42.64 175.91a.92.92 0 0 0 .41.75 1.6 1.6 0 0 0 .85.21h.39a1.71 1.71 0 0 0 .41-.1.77.77 0 0 0 .32-.22.53.53 0 0 0 .11-.38.54.54 0 0 0-.17-.39 1.2 1.2 0 0 0-.41-.24 4 4 0 0 0-.57-.16l-.65-.14a6.14 6.14 0 0 1-.66-.18 2.1 2.1 0 0 1-.57-.29 1.33 1.33 0 0 1-.4-.47 1.49 1.49 0 0 1-.15-.7 1.26 1.26 0 0 1 .22-.76 1.68 1.68 0 0 1 .56-.49 2.42 2.42 0 0 1 .75-.26 4.42 4.42 0 0 1 .79-.08 3.62 3.62 0 0 1 .82.09 2.25 2.25 0 0 1 .71.29 1.74 1.74 0 0 1 .52.53 1.83 1.83 0 0 1 .26.79h-1.29a.76.76 0 0 0-.4-.59 1.66 1.66 0 0 0-.72-.15h-.31a1.44 1.44 0 0 0-.33.08.71.71 0 0 0-.26.17.41.41 0 0 0-.11.29.47.47 0 0 0 .16.36 1.23 1.23 0 0 0 .41.23 4 4 0 0 0 .57.16l.66.14a6.51 6.51 0 0 1 .65.18 2.11 2.11 0 0 1 .57.29 1.33 1.33 0 0 1 .56 1.15 1.49 1.49 0 0 1-.23.84 1.79 1.79 0 0 1-.58.56 2.67 2.67 0 0 1-.8.31 4 4 0 0 1-.87.1 3.8 3.8 0 0 1-1-.12 2.26 2.26 0 0 1-.77-.36 1.72 1.72 0 0 1-.51-.6 1.9 1.9 0 0 1-.2-.85h1.26zM49.89 170h3.66a2.84 2.84 0 0 1 1.9.55 1.91 1.91 0 0 1 .63 1.52 2.22 2.22 0 0 1-.16.91 2 2 0 0 1-.37.58 1.47 1.47 0 0 1-.42.32l-.31.13a1.36 1.36 0 0 1 .37.11 1.1 1.1 0 0 1 .37.27 1.5 1.5 0 0 1 .28.49 2.15 2.15 0 0 1 .11.75 6.8 6.8 0 0 0 .1 1.23 1.61 1.61 0 0 0 .32.79h-1.44a1.25 1.25 0 0 1-.18-.55v-.58a5.51 5.51 0 0 0-.06-.91 1.58 1.58 0 0 0-.24-.63 1 1 0 0 0-.47-.37 2.07 2.07 0 0 0-.76-.12h-2v3.15h-1.33V170zm1.34 3.48h2.2a1.39 1.39 0 0 0 1-.31 1.18 1.18 0 0 0 .33-.92 1.42 1.42 0 0 0-.11-.59.87.87 0 0 0-.29-.36 1.09 1.09 0 0 0-.43-.17 2.86 2.86 0 0 0-.5 0h-2.2v2.35zM61.87 177.69h-1.2v-.77a1.68 1.68 0 0 1-.67.67 1.82 1.82 0 0 1-.91.25 2 2 0 0 1-1.58-.54 2.38 2.38 0 0 1-.49-1.63v-3.52h1.22v3.4a1.5 1.5 0 0 0 .28 1 1 1 0 0 0 .78.3 1.54 1.54 0 0 0 .64-.12 1.13 1.13 0 0 0 .42-.32 1.21 1.21 0 0 0 .23-.48 2.48 2.48 0 0 0 .07-.6v-3.22h1.22v5.58zM62.89 172.15H64v.85a2 2 0 0 1 1.73-1 2.07 2.07 0 0 1 1.44.47 1.81 1.81 0 0 1 .53 1.42v3.81h-1.17v-3.48a1.51 1.51 0 0 0-.28-.95 1 1 0 0 0-.8-.29 1.32 1.32 0 0 0-.56.11 1.2 1.2 0 0 0-.42.31 1.44 1.44 0 0 0-.27.47 1.66 1.66 0 0 0-.1.57v3.27h-1.21v-5.56zM68.22 172.15h.92v-1.66h1.22v1.66h1.1v.91h-1.1v3a3.08 3.08 0 0 0 0 .33.58.58 0 0 0 .08.24.36.36 0 0 0 .18.15.89.89 0 0 0 .32 0h.52v.94h-.8a2.71 2.71 0 0 1-.78-.09 1 1 0 0 1-.46-.27.93.93 0 0 1-.23-.44 3.35 3.35 0 0 1-.07-.61V173h-.9v-.85zM72.11 170h1.22v1.16h-1.22V170zm0 2.11h1.22v5.54h-1.22v-5.54zM74.39 172.15h1.16v.77a3.1 3.1 0 0 1 .3-.37 1.61 1.61 0 0 1 .36-.29 1.82 1.82 0 0 1 .46-.19 2.29 2.29 0 0 1 .59-.07 2 2 0 0 1 .94.23 1.27 1.27 0 0 1 .62.7 2.47 2.47 0 0 1 .72-.67 1.93 1.93 0 0 1 1-.25 2 2 0 0 1 1.37.43 1.83 1.83 0 0 1 .49 1.44v3.83h-1.19v-3.85a1.23 1.23 0 0 0-.12-.47.7.7 0 0 0-.31-.31 1.21 1.21 0 0 0-.58-.08 1 1 0 0 0-.9.39 1.85 1.85 0 0 0-.28 1.09v3.25H77.8v-3.56a1.51 1.51 0 0 0-.21-.87.88.88 0 0 0-.77-.29 1.12 1.12 0 0 0-.46.1 1.14 1.14 0 0 0-.39.28 1.39 1.39 0 0 0-.27.45 1.7 1.7 0 0 0-.1.61v3.29h-1.21v-5.59zM84.4 175.24a2.12 2.12 0 0 0 .09.62 1.53 1.53 0 0 0 .27.53 1.33 1.33 0 0 0 .46.36 1.53 1.53 0 0 0 .66.13 1.47 1.47 0 0 0 .86-.23 1.36 1.36 0 0 0 .49-.69h1.17a2.29 2.29 0 0 1-.9 1.4 2.45 2.45 0 0 1-.75.36 3 3 0 0 1-.86.12 2.94 2.94 0 0 1-1.16-.21 2.39 2.39 0 0 1-.85-.6 2.54 2.54 0 0 1-.52-.92 3.73 3.73 0 0 1-.18-1.18 3.32 3.32 0 0 1 .19-1.12 2.87 2.87 0 0 1 .54-.93 2.52 2.52 0 0 1 2-.87 2.48 2.48 0 0 1 1.17.27 2.58 2.58 0 0 1 .86.72 2.92 2.92 0 0 1 .5 1 3.18 3.18 0 0 1 .08 1.21H84.4zm2.85-.8a2 2 0 0 0-.12-.56 1.49 1.49 0 0 0-.28-.47 1.39 1.39 0 0 0-.43-.32 1.27 1.27 0 0 0-.56-.12 1.47 1.47 0 0 0-.58.11 1.33 1.33 0 0 0-.45.31 1.52 1.52 0 0 0-.3.47 1.63 1.63 0 0 0-.12.58h2.84z"/><path class="wieg-7" d="M74.98 61.9h32.84v7.49H74.98z"/><rect class="wieg-8" x="70.25" y="79.44" width="50.53" height="41.81" rx="4.72" ry="4.72"/><path class="wieg-9" d="M80.73 92.7h4.41v.93h-3.33v1.6h3.09v.87h-3.09v1.8h3.4v.93h-4.48V92.7zM87.11 96.49l-1.54-2.1h1.18l.93 1.36 1-1.36h1.13l-1.51 2 1.7 2.43h-1.21l-1.12-1.64-1.09 1.64h-1.15zM90.46 94.39h.93V95a1.21 1.21 0 0 1 .61-.56 1.91 1.91 0 0 1 .8-.17 2.12 2.12 0 0 1 .91.18 1.8 1.8 0 0 1 .65.51 2.19 2.19 0 0 1 .39.75 3.19 3.19 0 0 1 .13.92 3.25 3.25 0 0 1-.12.87 2.24 2.24 0 0 1-.35.74 1.75 1.75 0 0 1-.6.51 1.77 1.77 0 0 1-.85.19 2.36 2.36 0 0 1-.43 0 1.81 1.81 0 0 1-.41-.12 1.59 1.59 0 0 1-.36-.22 1.21 1.21 0 0 1-.28-.31v2.21h-1v-6.11zm3.41 2.22a2.21 2.21 0 0 0-.08-.61 1.61 1.61 0 0 0-.23-.5 1.2 1.2 0 0 0-.39-.35 1 1 0 0 0-.52-.15 1.07 1.07 0 0 0-.93.43 1.89 1.89 0 0 0-.31 1.14 2.27 2.27 0 0 0 .08.62 1.4 1.4 0 0 0 .24.49 1.23 1.23 0 0 0 .39.33 1.11 1.11 0 0 0 .53.12 1.09 1.09 0 0 0 .56-.13 1.2 1.2 0 0 0 .38-.36 1.45 1.45 0 0 0 .21-.5 2.52 2.52 0 0 0 .07-.53zM95.59 94.39h.91v.86a1 1 0 0 1 .17-.35 1.62 1.62 0 0 1 .3-.31 1.53 1.53 0 0 1 .39-.23 1.17 1.17 0 0 1 .44-.09h.37v.94h-.41a1.11 1.11 0 0 0-.47.1 1 1 0 0 0-.38.29 1.44 1.44 0 0 0-.26.48 2.06 2.06 0 0 0-.09.65v2.11h-1v-4.45zM99.13 96.86a1.69 1.69 0 0 0 .07.5 1.22 1.22 0 0 0 .22.42 1 1 0 0 0 .37.29 1.21 1.21 0 0 0 .53.11A1.17 1.17 0 0 0 101 98a1.08 1.08 0 0 0 .39-.55h.93a1.83 1.83 0 0 1-.72 1.12 1.93 1.93 0 0 1-.6.29 2.4 2.4 0 0 1-.69.1 2.34 2.34 0 0 1-.93-.17 1.92 1.92 0 0 1-.68-.48 2 2 0 0 1-.42-.74 3 3 0 0 1-.14-.94 2.66 2.66 0 0 1 .15-.9 2.3 2.3 0 0 1 .44-.73 2.11 2.11 0 0 1 2.51-.48 2.06 2.06 0 0 1 .69.58 2.32 2.32 0 0 1 .4.83 2.57 2.57 0 0 1 .06 1h-3.26v-.07zm2.28-.64a1.52 1.52 0 0 0-.1-.45 1.22 1.22 0 0 0-.22-.37 1.09 1.09 0 0 0-.34-.26 1 1 0 0 0-.45-.1 1.18 1.18 0 0 0-.47.09 1.08 1.08 0 0 0-.36.25 1.26 1.26 0 0 0-.24.37 1.3 1.3 0 0 0-.1.46h2.28zM103.79 97.4a.74.74 0 0 0 .33.6 1.28 1.28 0 0 0 .68.17h.31a1.37 1.37 0 0 0 .33-.08.62.62 0 0 0 .25-.18.42.42 0 0 0 .09-.3.43.43 0 0 0-.14-.31.94.94 0 0 0-.33-.19 3.15 3.15 0 0 0-.46-.12l-.52-.11a5.08 5.08 0 0 1-.53-.15 1.73 1.73 0 0 1-.45-.23 1.06 1.06 0 0 1-.35-.4 1.19 1.19 0 0 1-.12-.56 1 1 0 0 1 .18-.6 1.35 1.35 0 0 1 .45-.39 2 2 0 0 1 .6-.21 3.52 3.52 0 0 1 .63-.06 2.89 2.89 0 0 1 .66.07 1.8 1.8 0 0 1 .57.24 1.39 1.39 0 0 1 .42.42 1.47 1.47 0 0 1 .21.63h-1a.61.61 0 0 0-.32-.47 1.34 1.34 0 0 0-.58-.17h-.24a1.12 1.12 0 0 0-.27.06.55.55 0 0 0-.21.14.33.33 0 0 0-.09.24.37.37 0 0 0 .12.29 1 1 0 0 0 .33.18 3.13 3.13 0 0 0 .46.12l.53.11.52.15a1.67 1.67 0 0 1 .46.23 1.13 1.13 0 0 1 .33.37 1.11 1.11 0 0 1 .13.55 1.19 1.19 0 0 1-.18.67 1.42 1.42 0 0 1-.47.45 2.15 2.15 0 0 1-.64.25 3.21 3.21 0 0 1-.69.08 3 3 0 0 1-.79-.09 1.8 1.8 0 0 1-.62-.29A1.39 1.39 0 0 1 103 98a1.53 1.53 0 0 1-.16-.68h1zM108.15 97.4a.74.74 0 0 0 .33.6 1.28 1.28 0 0 0 .68.17h.31a1.37 1.37 0 0 0 .33-.08.62.62 0 0 0 .25-.18.42.42 0 0 0 .09-.3.43.43 0 0 0-.14-.31.94.94 0 0 0-.33-.19 3.15 3.15 0 0 0-.46-.12l-.52-.11a5.08 5.08 0 0 1-.53-.15 1.73 1.73 0 0 1-.45-.23 1.06 1.06 0 0 1-.32-.37 1.19 1.19 0 0 1-.12-.56 1 1 0 0 1 .18-.6 1.35 1.35 0 0 1 .45-.39 2 2 0 0 1 .6-.21 3.52 3.52 0 0 1 .63-.06 2.89 2.89 0 0 1 .66.07 1.8 1.8 0 0 1 .57.24 1.39 1.39 0 0 1 .42.42 1.47 1.47 0 0 1 .21.63h-1a.61.61 0 0 0-.32-.47 1.34 1.34 0 0 0-.58-.12h-.24a1.12 1.12 0 0 0-.27.06.55.55 0 0 0-.21.14.33.33 0 0 0-.09.24.37.37 0 0 0 .12.29 1 1 0 0 0 .33.18 3.13 3.13 0 0 0 .46.12l.53.11.52.15a1.67 1.67 0 0 1 .46.23 1.13 1.13 0 0 1 .3.4 1.11 1.11 0 0 1 .13.55 1.19 1.19 0 0 1-.18.67 1.42 1.42 0 0 1-.47.45 2.15 2.15 0 0 1-.64.25 3.21 3.21 0 0 1-.69.08 3 3 0 0 1-.78-.09 1.8 1.8 0 0 1-.62-.29 1.39 1.39 0 0 1-.41-.48 1.53 1.53 0 0 1-.16-.68h1zM73.7 102.7h1.51l1.69 4.79 1.65-4.79H80v6.12h-1v-4.72l-1.7 4.73h-.87l-1.7-4.73v4.73h-1v-6.13zM81.14 102.7h1v.93h-1v-.93zm0 1.69h1v4.43h-1v-4.43zM87.27 108.83h-.92v-.6a1.16 1.16 0 0 1-.57.55 2 2 0 0 1-.8.17 2.11 2.11 0 0 1-.91-.18 1.82 1.82 0 0 1-.65-.5 2.13 2.13 0 0 1-.39-.75 3.27 3.27 0 0 1-.13-.93 3 3 0 0 1 .16-1 2.08 2.08 0 0 1 .43-.72 1.68 1.68 0 0 1 .62-.42 2 2 0 0 1 .71-.13 2.4 2.4 0 0 1 .42 0 1.87 1.87 0 0 1 .41.13 1.59 1.59 0 0 1 .36.22 1.21 1.21 0 0 1 .28.31v-2.28h1v6.12zm-3.41-2.17a2.17 2.17 0 0 0 .07.56 1.54 1.54 0 0 0 .22.49 1.13 1.13 0 0 0 .38.34 1.21 1.21 0 0 0 1.11 0 1.16 1.16 0 0 0 .39-.36 1.63 1.63 0 0 0 .22-.5 2.26 2.26 0 0 0 .07-.57 1.79 1.79 0 0 0-.33-1.15 1.09 1.09 0 0 0-.9-.41 1.11 1.11 0 0 0-.58.14 1.2 1.2 0 0 0-.39.37 1.53 1.53 0 0 0-.21.51 2.67 2.67 0 0 0-.05.58zM92.43 108.83h-.93v-.6a1.16 1.16 0 0 1-.57.55 2 2 0 0 1-.8.17 2.11 2.11 0 0 1-.91-.18 1.82 1.82 0 0 1-.65-.5 2.13 2.13 0 0 1-.39-.75 3.27 3.27 0 0 1-.13-.93 3 3 0 0 1 .16-1 2.08 2.08 0 0 1 .43-.72 1.68 1.68 0 0 1 .62-.42 2 2 0 0 1 .71-.13 2.4 2.4 0 0 1 .42 0 1.87 1.87 0 0 1 .41.13 1.59 1.59 0 0 1 .36.22 1.21 1.21 0 0 1 .28.31v-2.28h1v6.12zM89 106.66a2.17 2.17 0 0 0 .07.56 1.54 1.54 0 0 0 .22.49 1.13 1.13 0 0 0 .38.34 1.11 1.11 0 0 0 1.13 0 1.16 1.16 0 0 0 .39-.36 1.63 1.63 0 0 0 .22-.5 2.26 2.26 0 0 0 .07-.57 1.79 1.79 0 0 0-.33-1.15 1.09 1.09 0 0 0-.9-.41 1.11 1.11 0 0 0-.58.14 1.2 1.2 0 0 0-.39.37 1.53 1.53 0 0 0-.21.51 2.67 2.67 0 0 0-.07.58zM93.43 102.7h1v6.12h-1v-6.12zM96.15 106.86a1.71 1.71 0 0 0 .07.5 1.23 1.23 0 0 0 .22.42 1 1 0 0 0 .37.29 1.22 1.22 0 0 0 .53.11A1.17 1.17 0 0 0 98 108a1.09 1.09 0 0 0 .39-.55h.93a1.83 1.83 0 0 1-.72 1.12 1.94 1.94 0 0 1-.6.29 2.41 2.41 0 0 1-.69.1 2.35 2.35 0 0 1-.93-.17 1.92 1.92 0 0 1-.68-.48 2 2 0 0 1-.42-.74 3 3 0 0 1-.14-.94 2.66 2.66 0 0 1 .15-.9 2.29 2.29 0 0 1 .43-.75 2.11 2.11 0 0 1 2.51-.48 2.06 2.06 0 0 1 .69.58 2.33 2.33 0 0 1 .4.83 2.57 2.57 0 0 1 .06 1h-3.23zm2.28-.64a1.58 1.58 0 0 0-.1-.45 1.19 1.19 0 0 0-.22-.37 1.1 1.1 0 0 0-.34-.26 1 1 0 0 0-.45-.1 1.18 1.18 0 0 0-.47.09 1.08 1.08 0 0 0-.36.25 1.24 1.24 0 0 0-.24.37 1.3 1.3 0 0 0-.1.46h2.28zM99.67 104.39h1l.87 3.31.83-3.31h1l.8 3.31.9-3.31h1l-1.39 4.43h-1l-.82-3.29-.81 3.29h-1zM110.37 107.84a.51.51 0 0 0 0 .26.2.2 0 0 0 .18.08h.24v.68h-.62a.94.94 0 0 1-.5-.12.6.6 0 0 1-.26-.42 1.73 1.73 0 0 1-.72.41 2.81 2.81 0 0 1-.82.13 2 2 0 0 1-.57-.08 1.52 1.52 0 0 1-.48-.24 1.15 1.15 0 0 1-.33-.4 1.24 1.24 0 0 1-.12-.57 1.31 1.31 0 0 1 .15-.67 1.11 1.11 0 0 1 .39-.4 1.8 1.8 0 0 1 .55-.21 6.17 6.17 0 0 1 .61-.1l.51-.07a2.33 2.33 0 0 0 .42-.07.64.64 0 0 0 .29-.16.44.44 0 0 0 .11-.32.5.5 0 0 0-.09-.31.61.61 0 0 0-.22-.18 1 1 0 0 0-.3-.09h-.31a1.23 1.23 0 0 0-.68.17.67.67 0 0 0-.3.53h-1a1.47 1.47 0 0 1 .21-.71 1.42 1.42 0 0 1 .46-.45 1.89 1.89 0 0 1 .63-.24 3.74 3.74 0 0 1 .72-.07 3 3 0 0 1 .64.07 1.84 1.84 0 0 1 .57.22 1.23 1.23 0 0 1 .41.4 1.09 1.09 0 0 1 .15.6v2.28zm-1-1.23a1.2 1.2 0 0 1-.55.18 1.63 1.63 0 0 0-.65.09l-.3.07a1 1 0 0 0-.26.13.57.57 0 0 0-.18.21.73.73 0 0 0-.06.32.41.41 0 0 0 .09.27.69.69 0 0 0 .23.18 1 1 0 0 0 .29.09h.29a1.61 1.61 0 0 0 .35 0 1.17 1.17 0 0 0 .38-.15.93.93 0 0 0 .28-.26.67.67 0 0 0 .11-.39v-.73zM111.34 104.39h.92v.86a1 1 0 0 1 .17-.35 1.65 1.65 0 0 1 .3-.31 1.52 1.52 0 0 1 .39-.23 1.16 1.16 0 0 1 .44-.09h.37v.94h-.42a1.13 1.13 0 0 0-.47.1 1.08 1.08 0 0 0-.38.29 1.43 1.43 0 0 0-.26.48 2 2 0 0 0-.09.65v2.11h-1v-4.43zM114.88 106.86a1.69 1.69 0 0 0 .07.5 1.22 1.22 0 0 0 .22.42 1 1 0 0 0 .37.29 1.22 1.22 0 0 0 .53.11 1.17 1.17 0 0 0 .69-.18 1.09 1.09 0 0 0 .39-.55h.93a1.83 1.83 0 0 1-.72 1.12 2 2 0 0 1-.6.29 2.41 2.41 0 0 1-.69.1 2.35 2.35 0 0 1-.93-.17 1.91 1.91 0 0 1-.68-.48 2 2 0 0 1-.42-.74 3 3 0 0 1-.14-.94 2.67 2.67 0 0 1 .15-.9 2.28 2.28 0 0 1 .43-.75 2.11 2.11 0 0 1 2.51-.48 2.05 2.05 0 0 1 .69.58 2.33 2.33 0 0 1 .4.83 2.57 2.57 0 0 1 .06 1h-3.26zm2.28-.64a1.53 1.53 0 0 0-.1-.45 1.16 1.16 0 0 0-.22-.37 1.1 1.1 0 0 0-.34-.26 1 1 0 0 0-.5-.14 1.19 1.19 0 0 0-.47.09 1.09 1.09 0 0 0-.36.25 1.26 1.26 0 0 0-.24.37 1.32 1.32 0 0 0-.1.46h2.28z"/></svg>