<svg id="agnostic" xmlns="http://www.w3.org/2000/svg" viewBox="0 0 52.9 64.56"><defs><style>.agnostic-1{fill:#32a4b3;opacity:0.2;}.agnostic-2{fill:none;}.agnostic-2,.agnostic-3,.agnostic-4{stroke:#35a8c3;stroke-width:2px;}.agnostic-2,.agnostic-4{stroke-linecap:round;stroke-linejoin:round;}.agnostic-3{fill:#fec40d;stroke-miterlimit:10;}.agnostic-4{fill:#fff;}</style></defs><title>icons</title><path class="agnostic-1" d="M19.09,23a36.62,36.62,0,0,0,0,6.54c0.5,5.6,1.71,11,4.55,15.83a6.18,6.18,0,0,1,.95,2.16,5.78,5.78,0,0,1-.53,2.76,131.94,131.94,0,0,0-4.77,16.3,1.11,1.11,0,0,0,0,.84,1.13,1.13,0,0,0,1,.34c1.93,0,2.36,0,3.77,0a1.18,1.18,0,0,0,1.16-1C26.15,61,27.55,51,29.07,43.45a5.29,5.29,0,0,0,.13-2.25c-0.24-1-2.12-1.1-2.84-1.86-2.81-3-4.11-7.37-4.67-11.4-0.39-2.83-.31-4.44-0.82-4.79L19,23h0" transform="translate(-16.79 -3.23)"/><path class="agnostic-1" d="M42.44,52.92c0.48,1.74,1.71,2.22,3.44,2.72a15.9,15.9,0,0,0,5.37.29l9.14-.55a30.32,30.32,0,0,1-21,2.29c-1.22-.31-2.6-1-2.93-2.1a2.5,2.5,0,0,1,1.76-2.84A5.91,5.91,0,0,1,42.44,52.92Z" transform="translate(-16.79 -3.23)"/><path class="agnostic-2" d="M43.1,5.6a20.7,20.7,0,0,1,20.7,20.7c0,0.44,0,.89,0,1.32h0v0.77c0,3,2.82,7.84,4.68,10.7,0.65,1,.08,2-1.27,2.33l-3.41.71v9.35A3.72,3.72,0,0,1,60,55.2H49.66l-1,8.54" transform="translate(-16.79 -3.23)"/><path class="agnostic-2" d="M26.33,63.74l2.9-22.08a20.73,20.73,0,0,1-5.61-8.34" transform="translate(-16.79 -3.23)"/><path class="agnostic-2" d="M42.31,52.68s0.93,2.52,7.35,2.52" transform="translate(-16.79 -3.23)"/><path class="agnostic-3" d="M38.29,19a1.18,1.18,0,0,1-.4-1.08,8.73,8.73,0,0,0,.1-2.21,1.18,1.18,0,0,1,.49-1l1.68-1.21a1.21,1.21,0,0,0,.36-1.53L39.43,9.75A1.21,1.21,0,0,0,38,9.16l-2,.67a1.22,1.22,0,0,1-1.17-.24,8.77,8.77,0,0,0-1.75-1.12,1.24,1.24,0,0,1-.72-1L32.15,5.43A1.21,1.21,0,0,0,31,4.35l-2.41-.11a1.21,1.21,0,0,0-1.24,1l-0.41,2a1.24,1.24,0,0,1-.8.91,8.77,8.77,0,0,0-1.84,1,1.22,1.22,0,0,1-1.19.13l-1.91-.85a1.21,1.21,0,0,0-1.51.45l-1.3,2a1.21,1.21,0,0,0,.22,1.56l1.55,1.37a1.18,1.18,0,0,1,.4,1.08,8.74,8.74,0,0,0-.1,2.21,1.18,1.18,0,0,1-.49,1l-1.68,1.21a1.21,1.21,0,0,0-.36,1.53L19,23a1.21,1.21,0,0,0,1.46.59l2-.67a1.22,1.22,0,0,1,1.17.24,8.77,8.77,0,0,0,1.75,1.12,1.24,1.24,0,0,1,.72,1l0.21,2.06a1.21,1.21,0,0,0,1.14,1.08l2.41,0.11a1.21,1.21,0,0,0,1.24-1l0.41-2a1.24,1.24,0,0,1,.8-0.91,8.78,8.78,0,0,0,1.84-1,1.22,1.22,0,0,1,1.19-.13l1.91,0.85a1.21,1.21,0,0,0,1.51-.45l1.3-2a1.21,1.21,0,0,0-.22-1.56Z" transform="translate(-16.79 -3.23)"/><circle class="agnostic-4" cx="29.23" cy="16.38" r="3.08" transform="translate(-5.29 41.58) rotate(-87.32)"/></svg>
