<svg id="agnostic" xmlns="http://www.w3.org/2000/svg" viewBox="0 0 121.78 150.18"><defs><style>.cls-1{fill:#32a4b3;opacity:0.2;}.cls-2{fill:none;}.cls-2,.cls-3,.cls-4{stroke:#35a8c3;}.cls-2,.cls-4{stroke-linecap:round;stroke-linejoin:round;stroke-width:2.5px;}.cls-3{fill:#fec40d;stroke-miterlimit:10;}.cls-4{fill:#fff;}</style></defs><title>icons</title><path class="cls-1" d="M97.94,127l4.79,10.39c4,8.67,8.11,17.51,14.69,24.43,1.69,1.77,3.61,3.55,4.17,5.93a12.4,12.4,0,0,1-.31,5.28c-3.78,18.66-7.24,44-9.24,57-5.44.07-5.78,0-11.22,0.07a2.65,2.65,0,0,1-2.38-.79,2.61,2.61,0,0,1-.08-2,309.17,309.17,0,0,1,11.18-38.19c0.76-2.08,1.55-4.27,1.23-6.46a14.48,14.48,0,0,0-2.22-5.05A76.91,76.91,0,0,1,98,140C98,134.31,95.31,129.7,94.87,124" transform="translate(-93.59 -79.92)"/><path class="cls-1" d="M151.27,194.8c-2.81-.56-5.79-1-8.47,0s-4.86,3.89-4.12,6.65,4,4.19,6.87,4.92A71,71,0,0,0,194.66,201l-21.43,1.28c-4.21.25-8.52,0.49-12.58-.68s-7.87-4-9-8.12" transform="translate(-93.59 -79.92)"/><path class="cls-2" d="M154.14,84.38a48.49,48.49,0,0,1,48.49,48.49c0,1,0,2.07-.11,3.1h0v1.79c0,7,6.61,18.37,11,25.07,1.52,2.35.19,4.58-3,5.45l-8,1.67v21.92a8.72,8.72,0,0,1-8.72,8.72H169.5l-2.4,20" transform="translate(-93.59 -79.92)"/><path class="cls-2" d="M114.84,220.62l6.8-51.75a48.57,48.57,0,0,1-13.14-19.55" transform="translate(-93.59 -79.92)"/><path class="cls-2" d="M152.28,194.69s2.19,5.92,17.22,5.92" transform="translate(-93.59 -79.92)"/><path class="cls-3" d="M142.88,115.71a2.76,2.76,0,0,1-.93-2.54,20.46,20.46,0,0,0,.24-5.17,2.76,2.76,0,0,1,1.16-2.44l3.93-2.85a2.83,2.83,0,0,0,.85-3.58l-2.6-5a2.83,2.83,0,0,0-3.42-1.38l-4.64,1.57a2.86,2.86,0,0,1-2.74-.56,20.56,20.56,0,0,0-4.09-2.63A2.92,2.92,0,0,1,129,88.8L128.48,84a2.83,2.83,0,0,0-2.68-2.53l-5.65-.26a2.83,2.83,0,0,0-2.9,2.27l-1,4.77a2.92,2.92,0,0,1-1.88,2.13,20.56,20.56,0,0,0-4.32,2.24,2.86,2.86,0,0,1-2.78.3l-4.47-2a2.83,2.83,0,0,0-3.53,1.05L96.26,96.7a2.83,2.83,0,0,0,.51,3.65l3.64,3.2a2.76,2.76,0,0,1,.93,2.54,20.49,20.49,0,0,0-.24,5.17,2.76,2.76,0,0,1-1.16,2.44L96,116.54a2.83,2.83,0,0,0-.85,3.58l2.6,5a2.82,2.82,0,0,0,3.42,1.38l4.64-1.57a2.86,2.86,0,0,1,2.74.56,20.56,20.56,0,0,0,4.09,2.64,2.91,2.91,0,0,1,1.68,2.3l0.5,4.83a2.83,2.83,0,0,0,2.68,2.53l5.65,0.26a2.83,2.83,0,0,0,2.9-2.27l1-4.77a2.91,2.91,0,0,1,1.88-2.13,20.56,20.56,0,0,0,4.32-2.24,2.86,2.86,0,0,1,2.78-.3l4.47,2a2.82,2.82,0,0,0,3.53-1.05l3.06-4.76a2.83,2.83,0,0,0-.51-3.65Z" transform="translate(-93.59 -79.92)"/><path class="cls-2" d="M142.88,115.71a2.76,2.76,0,0,1-.93-2.54,20.46,20.46,0,0,0,.24-5.17,2.76,2.76,0,0,1,1.16-2.44l3.93-2.85a2.83,2.83,0,0,0,.85-3.58l-2.6-5a2.83,2.83,0,0,0-3.42-1.38l-4.64,1.57a2.86,2.86,0,0,1-2.74-.56,20.56,20.56,0,0,0-4.09-2.63A2.92,2.92,0,0,1,129,88.8L128.48,84a2.83,2.83,0,0,0-2.68-2.53l-5.65-.26a2.83,2.83,0,0,0-2.9,2.27l-1,4.77a2.92,2.92,0,0,1-1.88,2.13,20.56,20.56,0,0,0-4.32,2.24,2.86,2.86,0,0,1-2.78.3l-4.47-2a2.83,2.83,0,0,0-3.53,1.05L96.26,96.7a2.83,2.83,0,0,0,.51,3.65l3.64,3.2a2.76,2.76,0,0,1,.93,2.54,20.49,20.49,0,0,0-.24,5.17,2.76,2.76,0,0,1-1.16,2.44L96,116.54a2.83,2.83,0,0,0-.85,3.58l2.6,5a2.82,2.82,0,0,0,3.42,1.38l4.64-1.57a2.86,2.86,0,0,1,2.74.56,20.56,20.56,0,0,0,4.09,2.64,2.91,2.91,0,0,1,1.68,2.3l0.5,4.83a2.83,2.83,0,0,0,2.68,2.53l5.65,0.26a2.83,2.83,0,0,0,2.9-2.27l1-4.77a2.91,2.91,0,0,1,1.88-2.13,20.56,20.56,0,0,0,4.32-2.24,2.86,2.86,0,0,1,2.78-.3l4.47,2a2.82,2.82,0,0,0,3.53-1.05l3.06-4.76a2.83,2.83,0,0,0-.51-3.65Z" transform="translate(-93.59 -79.92)"/><circle class="cls-4" cx="121.65" cy="109.63" r="7.22" transform="translate(-87.14 146.1) rotate(-87.32)"/><circle class="cls-2" cx="121.65" cy="109.63" r="7.22" transform="translate(-87.14 146.1) rotate(-87.32)"/></svg>