<svg id="Layer_1" data-name="Layer 1" xmlns="http://www.w3.org/2000/svg" xmlns:xlink="http://www.w3.org/1999/xlink" viewBox="0 0 575 88"><defs><style>.eglogo-1{fill:#128595;}.eglogo-2{fill:url(#linear-gradient);}.eglogo-3{fill:url(#linear-gradient-2);}.eglogo-4{fill:url(#linear-gradient-3);}.eglogo-5{fill:url(#linear-gradient-4);}.eglogo-6{fill:#ffc50a;}</style><linearGradient id="linear-gradient" x1="33.87" y1="82.81" x2="219.98" y2="-138.99" gradientTransform="matrix(1, 0, 0, -1, 0, 90)" gradientUnits="userSpaceOnUse"><stop offset="0" stop-color="#116c7b"/><stop offset="0.05" stop-color="#1e7989"/><stop offset="0.17" stop-color="#3d97ab"/><stop offset="0.3" stop-color="#55afc5"/><stop offset="0.43" stop-color="#66c0d8"/><stop offset="0.57" stop-color="#71cbe3"/><stop offset="0.72" stop-color="#74cee7"/><stop offset="0.73" stop-color="#74cee7"/><stop offset="1" stop-color="#74cee7"/></linearGradient><linearGradient id="linear-gradient-2" x1="31.11" y1="80.5" x2="217.22" y2="-141.3" xlink:href="#linear-gradient"/><linearGradient id="linear-gradient-3" x1="10.58" y1="63.27" x2="196.69" y2="-158.52" xlink:href="#linear-gradient"/><linearGradient id="linear-gradient-4" x1="18.88" y1="70.23" x2="204.99" y2="-151.56" xlink:href="#linear-gradient"/></defs><title>Artboard 1</title><path class="eglogo-1" d="M122,28c-9.11,0-15.73,7.45-15.73,17.73v.5c0,10.71,6.33,17.63,16.13,17.63,7.13,0,12.41-3.74,14.12-10l.15-.46h-2l-.14.29c-1.48,5.34-5.92,8.41-12.18,8.41-8.94,0-14.13-6-14.27-16.35h28.6V44.6c.05-5.36-1.46-9.74-4.37-12.68A14.17,14.17,0,0,0,122,28Zm0,1.85c7.83,0,12.63,5.29,12.87,14.15H108.23C108.78,35.51,114.3,29.83,122,29.83Z"/><polygon class="eglogo-1" points="166 28.57 166.15 28.38 163.84 28.38 152.5 43.79 140.96 28.38 138.65 28.38 151.24 45.2 137.85 63.42 140.16 63.42 152.5 46.61 164.97 63.24 164.97 63.42 167.45 63.42 153.76 45.2 166 28.57"/><path class="eglogo-1" d="M187.9,28c-6.85,0-12,4.7-14.27,9.53V28.38h-2v47h2V54.68a15.64,15.64,0,0,0,14.27,9.24c9.14,0,15.52-7.25,15.52-17.62v-.5C203.32,35.47,196.8,28,187.9,28ZM201.48,45.7v.5c0,9.5-5.46,15.88-13.58,15.88-9.27,0-14.27-8.18-14.27-15.87v-.5a16,16,0,0,1,4.48-11.77,13.94,13.94,0,0,1,9.79-4.21C197.23,29.73,201.48,38,201.48,45.7Z"/><path class="eglogo-1" d="M210.83,35.35v-7h-2v35h2V43.9c0-3.15.83-13.48,11.57-13.87h.33V28.27h-.43A12.82,12.82,0,0,0,210.83,35.35Z"/><path class="eglogo-1" d="M239.2,28c-9.11,0-15.73,7.45-15.73,17.73v.5c0,10.71,6.33,17.63,16.13,17.63,7.13,0,12.4-3.74,14.12-10l.15-.46h-2l-.14.29c-1.48,5.34-5.92,8.41-12.18,8.41-8.94,0-14.13-6-14.27-16.35h28.6V44.6c.05-5.33-1.46-9.71-4.39-12.66A14.14,14.14,0,0,0,239.2,28ZM225.43,44c.55-8.47,6.06-14.15,13.77-14.15S251.83,35.11,252.07,44Z"/><path class="eglogo-1" d="M270.72,44.58h0c-8.22-1.49-10.6-3.19-10.6-7.58,0-4.23,3.81-7.08,9.48-7.08s9,2.42,9.88,7.18v.32h1.85V37c-.9-5.83-5-8.91-11.72-8.91S258.17,31.75,258.17,37c0,6.17,4,8,12,9.42,7.78,1.38,9.8,3,9.8,8,0,4.77-4,8-9.87,8-3.75,0-10.21-1.18-11.37-9.08V53h-1.85v.44c.61,6.67,5.71,10.81,13.32,10.81,7,0,11.82-4,11.82-9.72C282,47.79,278.22,45.89,270.72,44.58Z"/><path class="eglogo-1" d="M298.42,44.58h0c-8.22-1.49-10.6-3.19-10.6-7.58,0-4.23,3.81-7.08,9.47-7.08s9,2.42,9.88,7.18v.32H309V37c-.9-5.83-5-8.91-11.72-8.91S285.88,31.75,285.88,37c0,6.17,4,8,12,9.42,7.78,1.38,9.8,3,9.8,8,0,4.77-4,8-9.87,8-3.75,0-10.21-1.18-11.37-9.08V53h-1.85v.44c.61,6.67,5.71,10.81,13.32,10.81,7,0,11.82-4,11.82-9.72C309.72,47.79,305.92,45.89,298.42,44.58Z"/><path class="eglogo-1" d="M355.67,36.53A14.24,14.24,0,0,0,342.1,28c-9.4,0-16.22,7.12-16.22,16.92v.5c0,11.69,7.9,16.92,15.72,16.92a15.41,15.41,0,0,0,14.08-8.83V60.8c0,10.72-7.44,13-13.67,13-3.57,0-12-.86-13.47-8.78v-.33h-2v.44a11.48,11.48,0,0,0,4.22,7.15c2.79,2.22,6.59,3.35,11.3,3.35,10,0,15.53-5.23,15.53-14.72V28.38h-2Zm0,8.37v.5c0,9.9-7.08,15.07-14.08,15.07-8.37,0-13.77-5.92-13.77-15.07v-.5c0-8.93,5.87-15.17,14.27-15.17C350.22,29.73,355.67,35.82,355.67,44.9Z"/><path class="eglogo-1" d="M378.2,28c-7.16,0-12.31,3.93-13.12,10v.42h1.85v-.3c1-5.27,5.11-8.3,11.28-8.3,6.83,0,9.88,3.26,9.88,10.57v3.27H378.7c-10.1,0-15.23,3.54-15.23,10.53,0,6.06,4.68,9.83,12.23,9.83,7.34,0,11-3.83,12.38-5.82v5.32h2V40.4C390,32.16,386,28,378.2,28Zm9.88,17.35V53.1c0,4.78-5.78,9-12.37,9s-10.28-2.83-10.28-8c0-6.07,4.09-8.77,13.28-8.77Z"/><path class="eglogo-1" d="M407,62.08c-3.83,0-5.78-2.31-5.78-6.87v-25h10.1V28.48h-10.2v-7.8h-2v7.8H394v1.75h5.2v25c0,5.63,2.74,8.72,7.73,8.72a14.74,14.74,0,0,0,4.31-.64l.24-.07.27-.13V61.23l-.46.15A14.06,14.06,0,0,1,407,62.08Z"/><path class="eglogo-1" d="M429.6,28c-9.11,0-15.72,7.45-15.72,17.73v.5c0,10.71,6.33,17.63,16.13,17.63,7.13,0,12.41-3.74,14.12-10l.15-.46h-1.95l-.14.29C440.7,59,436.26,62.08,430,62.08c-8.94,0-14.13-6-14.27-16.35h28.6V44.6c.05-5.33-1.46-9.71-4.39-12.66A14.15,14.15,0,0,0,429.6,28ZM415.83,44c.55-8.47,6.06-14.15,13.77-14.15S442.23,35.11,442.47,44Z"/><polygon class="eglogo-1" points="480.5 60.49 470.32 28.46 470.29 28.38 468.81 28.38 458.5 60.49 448.32 28.46 448.29 28.38 446.23 28.38 457.27 63.12 457.27 63.42 459.49 63.42 469.5 32.11 479.29 63.16 479.42 63.42 481.49 63.42 492.62 28.93 492.76 28.38 490.81 28.38 480.5 60.49"/><path class="eglogo-1" d="M509,28c-7.16,0-12.31,3.93-13.12,10v.42h1.85v-.3c1-5.27,5.11-8.3,11.28-8.3,6.83,0,9.88,3.26,9.88,10.57v3.27H509.5c-10.1,0-15.22,3.54-15.22,10.53,0,6.06,4.68,9.83,12.22,9.83,7.34,0,11-3.83,12.38-5.82v5.32h2V40.4C520.83,32.16,516.85,28,509,28Zm-2.5,34.1c-6.63,0-10.28-2.83-10.28-8,0-6.07,4.09-8.77,13.28-8.77h9.38V53.1C518.88,57.88,513.09,62.08,506.5,62.08Z"/><polygon class="eglogo-1" points="551.52 28.38 539.1 58.38 526.33 28.67 526.33 28.38 524.21 28.38 538.06 60.8 532.09 75.15 532.01 75.33 534.08 75.33 553.31 28.96 553.6 28.38 551.52 28.38"/><path class="eglogo-2" d="M85.9,42.8l-1.8-3.1c-6-5.5-13.9-11.2-24.8-11.6-9.1-.3-14.3,3.2-21,7.6-.7.5-1.5,1-2.2,1.5a85.61,85.61,0,0,1,8,4.1c1.1.6,2.2,1.2,3.2,1.7.6.3,1.1.6,1.7.9,13.2-5.1,25.8-3.6,37.1-.5a4.27,4.27,0,0,1,.1,2.5c-10.5-3-22.3-4.6-34.4-.5,1.3.7,2.4,1.4,3.5,2.1,4.1,2.5,7,4.2,11.8,5.4,5.9,1.5,11.4-.3,17-2.9l1.8-3.2A3.63,3.63,0,0,0,85.9,42.8Z"/><path class="eglogo-3" d="M33.8,36.2c1.2-.8,2.3-1.5,3.4-2.2,7-4.6,12.5-8.2,22.2-7.9,9.1.3,16.1,4,21.7,8.4l-11.5-20A4.08,4.08,0,0,0,66,12.4H33.4a4.2,4.2,0,0,0-3.6,2.1L18.1,35c.9-.2,1.8-.4,2.9-.6A26.65,26.65,0,0,1,33.8,36.2Z"/><path class="eglogo-4" d="M21.2,36.4a26.78,26.78,0,0,0-4.7,1.2l-3,5.2a3.58,3.58,0,0,0-.4,1.1,46.36,46.36,0,0,0,18.2-6.1c.1-.1.2-.1.3-.2A23,23,0,0,0,21.2,36.4Z"/><path class="eglogo-5" d="M66.7,54.9c-5.1-1.3-8.1-3.1-12.4-5.7-1.5-.9-3.1-1.8-5-2.9-.9.3-1.7.7-2.6,1-7.6,3-15.4,6.2-23.2,6.2a25.73,25.73,0,0,1-6.7-.9L15,49.5c.7.3,1.4.6,2,.8C26.4,53,36.3,49,45.8,45.2c.2-.1.5-.2.7-.3-.1,0-.1-.1-.2-.1L43,43a96.88,96.88,0,0,0-9.1-4.6c-.6.3-1.1.7-1.7,1A48.15,48.15,0,0,1,13,45.8a3,3,0,0,0,.4,1L29.7,75a4.08,4.08,0,0,0,3.6,2.1H65.9A4.2,4.2,0,0,0,69.5,75L82.4,53a30.36,30.36,0,0,1-11,2.5A19.54,19.54,0,0,1,66.7,54.9Z"/><path class="eglogo-6" d="M86.1,43.4c-11.2-3.1-23.9-4.6-37.1.5,0,.1-.1.1-.2.1-.7.3-1.4.6-2.2.9-.2.1-.5.2-.7.3C36.3,49,26.5,53,17.1,50.3c-.6-.2-1.3-.5-2-.8l1.8,3.2a25.73,25.73,0,0,0,6.7.9c7.8,0,15.6-3.1,23.2-6.2.9-.3,1.7-.7,2.6-1,.1,0,.2-.1.3-.1.7-.3,1.5-.5,2.2-.8,12.2-4.1,23.9-2.5,34.4.5A5.65,5.65,0,0,0,86.1,43.4Z"/></svg>
