<svg id="logo" xmlns="http://www.w3.org/2000/svg" xmlns:xlink="http://www.w3.org/1999/xlink" viewBox="0 0 163.33 19.58"><defs><style>.logo-1{fill:#128595;}.logo-2{fill:url(#linear-gradient);}.logo-3{fill:url(#linear-gradient-2);}.logo-4{fill:url(#linear-gradient-3);}.logo-5{fill:url(#linear-gradient-4);}.logo-6{fill:#ffc50a;}</style><linearGradient id="linear-gradient" x1="6.28" y1="-1.61" x2="62.55" y2="65.45" gradientUnits="userSpaceOnUse"><stop offset="0" stop-color="#116c7b"/><stop offset="0.05" stop-color="#1e7989"/><stop offset="0.17" stop-color="#3d97ab"/><stop offset="0.3" stop-color="#55afc5"/><stop offset="0.43" stop-color="#66c0d8"/><stop offset="0.57" stop-color="#71cbe3"/><stop offset="0.72" stop-color="#74cee7"/><stop offset="0.73" stop-color="#74cee7"/><stop offset="1" stop-color="#74cee7"/></linearGradient><linearGradient id="linear-gradient-2" x1="5.43" y1="-0.9" x2="61.7" y2="66.16" xlink:href="#linear-gradient"/><linearGradient id="linear-gradient-3" x1="-0.76" y1="4.3" x2="55.5" y2="71.36" xlink:href="#linear-gradient"/><linearGradient id="linear-gradient-4" x1="1.74" y1="2.2" x2="58.01" y2="69.25" xlink:href="#linear-gradient"/></defs><title>gwe-logo</title><path class="logo-1" d="M32.92,4.72C30.19,4.72,28.21,7,28.21,10V10.2c0,3.22,1.9,5.31,4.85,5.31a4.1,4.1,0,0,0,4.23-3l0-.1H36.81l0,0.05A3.56,3.56,0,0,1,33.06,15c-2.74,0-4.32-1.83-4.34-5h8.66V9.72C37.38,6.63,35.67,4.72,32.92,4.72Zm-4.2,4.83c0.15-2.61,1.82-4.37,4.2-4.37s3.88,1.63,3.94,4.37H28.72Z"/><polygon class="logo-1" points="46.18 4.85 45.58 4.85 42.15 9.54 38.64 4.85 38.02 4.85 41.82 9.9 37.78 15.37 38.39 15.37 42.13 10.27 45.93 15.34 45.96 15.37 46.58 15.37 42.46 9.9 46.18 4.85"/><path class="logo-1" d="M52.83,4.72a4.85,4.85,0,0,0-4.36,3V4.85H48V19h0.51v-6.4a4.69,4.69,0,0,0,4.36,2.93c2.74,0,4.65-2.18,4.65-5.31V10C57.48,7,55.52,4.72,52.83,4.72Zm0,0.47C54.83,5.18,57,6.7,57,10V10.2C57,13.09,55.31,15,52.83,15c-2.83,0-4.36-2.49-4.36-4.84V10A4.57,4.57,0,0,1,52.83,5.18Z"/><path class="logo-1" d="M59.74,7.09V4.85H59.23V15.37h0.51V9.49c0-3.83,2.72-4.22,3.55-4.24h0.07V4.77H63.29A3.9,3.9,0,0,0,59.74,7.09Z"/><path class="logo-1" d="M68.34,4.72C65.61,4.72,63.63,7,63.63,10V10.2c0,3.22,1.9,5.31,4.85,5.31a4.1,4.1,0,0,0,4.23-3l0-.1H72.22l0,0.05A3.56,3.56,0,0,1,68.48,15c-2.74,0-4.32-1.83-4.34-5h8.66V9.72C72.79,6.63,71.09,4.72,68.34,4.72Zm-4.2,4.83c0.15-2.61,1.82-4.37,4.2-4.37s3.88,1.63,3.94,4.37H64.14Z"/><path class="logo-1" d="M77.86,9.73c-2.52-.44-3.25-1-3.25-2.34s1.16-2.18,2.9-2.18,2.76,0.75,3,2.22V7.48H81V7.39c-0.29-1.74-1.5-2.66-3.5-2.66s-3.4,1.09-3.4,2.65c0,1.84,1.22,2.39,3.61,2.81s3,0.93,3,2.44-1.21,2.44-3,2.44c-2.68,0-3.34-1.75-3.49-2.79V12.22H73.72v0.08c0.2,2,1.72,3.24,4,3.24,2.09,0,3.54-1.2,3.54-2.91C81.25,10.69,80.11,10.13,77.86,9.73Z"/><path class="logo-1" d="M86.24,9.73C83.72,9.28,83,8.76,83,7.39s1.16-2.18,2.9-2.18,2.76,0.75,3,2.22V7.48h0.49V7.39c-0.29-1.74-1.5-2.66-3.5-2.66s-3.4,1.09-3.4,2.65c0,1.84,1.22,2.39,3.61,2.81s3,0.93,3,2.44-1.21,2.44-3,2.44c-2.68,0-3.34-1.75-3.49-2.79V12.22H82.1v0.08c0.2,2,1.72,3.24,4,3.24,2.09,0,3.54-1.2,3.54-2.91C89.63,10.69,88.49,10.13,86.24,9.73Z"/><path class="logo-1" d="M103.6,7.44a4.27,4.27,0,0,0-4.14-2.72A4.82,4.82,0,0,0,94.59,9.8V10C94.59,13.46,97,15,99.3,15a4.62,4.62,0,0,0,4.3-2.81v2.39c0,3.26-2.26,3.95-4.16,3.95-3.13,0-3.93-1.69-4.13-2.69V15.81H94.79V15.9C95,17.41,96.38,19,99.46,19s4.65-1.57,4.65-4.41V4.85H103.6V7.44Zm0,2.36V10a4.31,4.31,0,0,1-4.3,4.6c-2.55,0-4.2-1.81-4.2-4.6V9.8a4.3,4.3,0,0,1,4.36-4.62C101.94,5.18,103.6,7,103.6,9.8Z"/><path class="logo-1" d="M110.37,4.72c-2.14,0-3.68,1.17-3.92,3V7.78h0.49V7.72c0.3-1.61,1.55-2.53,3.43-2.53,2.1,0,3,1,3,3.23v1h-2.88c-3,0-4.55,1.06-4.55,3.15,0,1.81,1.4,2.93,3.66,2.93a4.32,4.32,0,0,0,3.77-1.83v1.69h0.51V8.42C113.91,6,112.72,4.72,110.37,4.72Zm3,5.18v2.38c0,1.47-1.76,2.76-3.77,2.76s-3.15-.87-3.15-2.46c0-1.85,1.25-2.68,4-2.68h2.88Z"/><path class="logo-1" d="M119.07,15c-1.17,0-1.79-.73-1.79-2.12V5.32h3.05V4.85h-3.05V2.5h-0.51V4.85h-1.58V5.32h1.58v7.59c0,1.67.81,2.59,2.29,2.59a3.75,3.75,0,0,0,1.35-.22l0.05,0V14.79l-0.1,0A3.94,3.94,0,0,1,119.07,15Z"/><path class="logo-1" d="M125.9,4.72c-2.73,0-4.71,2.24-4.71,5.33V10.2c0,3.22,1.9,5.31,4.85,5.31a4.09,4.09,0,0,0,4.23-3l0-.1h-0.51l0,0.05A3.56,3.56,0,0,1,126,15c-2.74,0-4.32-1.83-4.34-5h8.66V9.72C130.36,6.63,128.65,4.72,125.9,4.72Zm-4.2,4.83c0.15-2.61,1.82-4.37,4.2-4.37s3.88,1.63,3.94,4.37H121.7Z"/><polygon class="logo-1" points="141.29 14.63 138.18 4.85 137.79 4.85 134.64 14.63 131.52 4.85 130.99 4.85 134.31 15.31 134.32 15.37 134.91 15.37 137.98 5.81 140.98 15.31 141 15.37 141.59 15.37 144.93 4.95 144.96 4.85 144.45 4.85 141.29 14.63"/><path class="logo-1" d="M149.91,4.72c-2.14,0-3.68,1.17-3.92,3V7.78h0.49V7.72c0.3-1.61,1.55-2.53,3.43-2.53,2.1,0,3,1,3,3.23v1h-2.88c-3,0-4.55,1.06-4.55,3.15,0,1.81,1.4,2.93,3.66,2.93a4.32,4.32,0,0,0,3.77-1.83v1.69h0.51V8.42C153.45,6,152.26,4.72,149.91,4.72Zm3,5.18v2.38c0,1.47-1.76,2.76-3.77,2.76S146,14.16,146,12.58c0-1.85,1.25-2.68,4-2.68h2.88Z"/><polygon class="logo-1" points="162.79 4.85 159.02 13.99 155.13 4.9 155.11 4.85 154.57 4.85 158.74 14.6 156.93 18.97 157.47 18.97 163.29 4.96 163.34 4.85 162.79 4.85"/><path class="logo-2" d="M22,9.16l-0.54-.93A11.56,11.56,0,0,0,14,4.73c-2.74-.09-4.34,1-6.36,2.29l-0.67.44C7.79,7.84,8.6,8.28,9.38,8.7l1,0.53L10.86,9.5a17.33,17.33,0,0,1,11.21-.15,1.48,1.48,0,0,1,0,.76A17.1,17.1,0,0,0,11.7,10l1.06,0.63a12.15,12.15,0,0,0,3.57,1.64,7.63,7.63,0,0,0,5.13-.87l0.55-1A1.25,1.25,0,0,0,22,9.16Z"/><path class="logo-3" d="M6.26,7.18l1-.67C9.39,5.12,11.06,4,14,4.12a11.12,11.12,0,0,1,6.57,2.54l-3.48-6A1.25,1.25,0,0,0,16,0H6.14A1.25,1.25,0,0,0,5.06.63L1.49,6.8a7.72,7.72,0,0,1,.87-0.17A7.78,7.78,0,0,1,6.26,7.18Z"/><path class="logo-4" d="M2.45,7.23A6.55,6.55,0,0,0,1,7.59L0.13,9.16A1.25,1.25,0,0,0,0,9.49,13.83,13.83,0,0,0,5.49,7.65l0.1-.06A6.85,6.85,0,0,0,2.45,7.23Z"/><path class="logo-5" d="M16.18,12.83a12.63,12.63,0,0,1-3.74-1.71c-0.45-.27-0.93-0.56-1.5-0.88l-0.78.31a19.45,19.45,0,0,1-7,1.87,7.92,7.92,0,0,1-2-.26l-0.56-1a4.45,4.45,0,0,0,.62.24C4,12.24,7,11,9.9,9.89l0.22-.09,0,0-1-.53A27.2,27.2,0,0,0,6.32,7.86l-0.51.32A14.48,14.48,0,0,1,0,10.1a1.25,1.25,0,0,0,.13.31L5.06,19a1.25,1.25,0,0,0,1.08.63H16A1.25,1.25,0,0,0,17.08,19L21,12.25a8.84,8.84,0,0,1-3.32.76A5.87,5.87,0,0,1,16.18,12.83Z"/><path class="logo-6" d="M22.08,9.35a17.33,17.33,0,0,0-11.21.15l-0.09,0-0.65.26L9.9,9.89C7,11,4,12.24,1.2,11.43A4.45,4.45,0,0,1,.58,11.2l0.56,1a7.92,7.92,0,0,0,2,.26,19.45,19.45,0,0,0,7-1.87l0.78-.31,0.09,0L11.7,10a17.1,17.1,0,0,1,10.41.14A1.48,1.48,0,0,0,22.08,9.35Z"/></svg>
