<svg id="logo" data-name="logo" xmlns="http://www.w3.org/2000/svg" xmlns:xlink="http://www.w3.org/1999/xlink" viewBox="0 0 167.2 20.04"><defs><style>.logo-1{fill:#116a96;stroke:#116a96;stroke-miterlimit:10;stroke-width:0.12px;}.logo-2{fill:url(#linear-gradient);}.logo-3{fill:url(#linear-gradient-2);}.logo-4{fill:url(#linear-gradient-3);}.logo-5{fill:url(#linear-gradient-4);}.logo-6{fill:#fff;}.logo-7{fill:#fec40d;}</style><linearGradient id="linear-gradient" x1="6.46" y1="-1.65" x2="64.06" y2="66.99" gradientUnits="userSpaceOnUse"><stop offset="0" stop-color="#136d7c"/><stop offset="0.05" stop-color="#207a8a"/><stop offset="0.17" stop-color="#3e98ac"/><stop offset="0.3" stop-color="#55b0c6"/><stop offset="0.43" stop-color="#66c1d9"/><stop offset="0.57" stop-color="#70cce4"/><stop offset="0.72" stop-color="#73cfe8"/><stop offset="0.73" stop-color="#73cfe8"/><stop offset="1" stop-color="#73cfe8"/></linearGradient><linearGradient id="linear-gradient-2" x1="5.6" y1="-0.92" x2="63.19" y2="67.72" xlink:href="#linear-gradient"/><linearGradient id="linear-gradient-3" x1="-0.74" y1="4.4" x2="56.85" y2="73.04" xlink:href="#linear-gradient"/><linearGradient id="linear-gradient-4" x1="1.82" y1="2.25" x2="59.42" y2="70.89" xlink:href="#linear-gradient"/></defs><title>Untitled-4</title><path class="logo-1" d="M29,10.44V10.28c0-3.16,2-5.37,4.74-5.37s4.48,1.87,4.48,5v0.22H29.36c0,3.31,1.6,5.29,4.52,5.29a3.73,3.73,0,0,0,3.89-2.68h0.37a4.11,4.11,0,0,1-4.26,3C30.76,15.79,29,13.54,29,10.44Zm8.86-.59c0-3-1.68-4.62-4.12-4.62s-4.26,1.82-4.38,4.62h8.5Z"/><path class="logo-1" d="M42.94,10.14L39.11,5h0.45l3.63,4.85L46.73,5h0.43l-3.75,5.09,4.16,5.52H47.12l-4-5.27-3.87,5.27H38.86Z"/><path class="logo-1" d="M49.21,5h0.37V8.35A4.89,4.89,0,0,1,54.11,4.9c2.55,0,4.68,2.07,4.68,5.37v0.16c0,3.43-2.15,5.35-4.68,5.35a4.73,4.73,0,0,1-4.54-3.35v6.89H49.21V5Zm9.23,5.39V10.28c0-3.2-2-5-4.32-5a4.78,4.78,0,0,0-4.54,5v0.16c0,3.12,2.17,5,4.54,5S58.43,13.6,58.43,10.44Z"/><path class="logo-1" d="M60.74,5h0.37V7.66A3.9,3.9,0,0,1,64.82,5V5.29c-1.95.06-3.71,1.36-3.71,4.42v5.94H60.74V5Z"/><path class="logo-1" d="M65.24,10.44V10.28c0-3.16,2-5.37,4.74-5.37s4.48,1.87,4.48,5v0.22H65.61c0,3.31,1.6,5.29,4.52,5.29A3.73,3.73,0,0,0,74,12.79h0.37a4.11,4.11,0,0,1-4.26,3C67,15.79,65.24,13.54,65.24,10.44Zm8.86-.59c0-3-1.68-4.62-4.12-4.62s-4.26,1.82-4.38,4.62h8.5Z"/><path class="logo-1" d="M75.58,12.59h0.34a3.3,3.3,0,0,0,3.65,2.92c2,0,3.16-1.16,3.16-2.58,0-1.66-.75-2.15-3.12-2.58S76,9.39,76,7.56C76,6,77.43,4.92,79.4,4.92s3.2,0.81,3.51,2.66H82.56c-0.3-1.6-1.42-2.33-3.18-2.33s-3,.91-3,2.31,1,2,3.39,2.47,3.41,1,3.41,2.9c0,1.58-1.34,2.9-3.55,2.9C77.14,15.83,75.77,14.45,75.58,12.59Z"/><path class="logo-1" d="M84.16,12.59H84.5a3.3,3.3,0,0,0,3.65,2.92c2,0,3.16-1.16,3.16-2.58,0-1.66-.75-2.15-3.12-2.58s-3.63-1-3.63-2.8C84.57,6,86,4.92,88,4.92s3.2,0.81,3.51,2.66H91.13C90.83,6,89.72,5.25,88,5.25s-3,.91-3,2.31,1,2,3.39,2.47,3.41,1,3.41,2.9c0,1.58-1.34,2.9-3.55,2.9C85.72,15.83,84.34,14.45,84.16,12.59Z"/><path class="logo-1" d="M97.16,16.26h0.37c0.3,1.54,1.58,2.82,4.3,2.82,2.45,0,4.34-1.09,4.34-4.12V12.08a4.63,4.63,0,0,1-4.48,3.22c-2.62,0-4.74-1.82-4.74-5.11V10a4.84,4.84,0,0,1,4.91-5.13A4.35,4.35,0,0,1,106.16,8V5h0.36V15c0,3.16-2,4.44-4.68,4.44C98.84,19.4,97.4,17.88,97.16,16.26Zm9-6.06V10c0-3-1.91-4.81-4.32-4.81A4.47,4.47,0,0,0,97.3,10V10.2c0,3,1.89,4.79,4.38,4.79A4.49,4.49,0,0,0,106.16,10.2Z"/><path class="logo-1" d="M108.59,12.87c0-2.45,2.09-3.14,4.58-3.14h3V8.61c0-2.33-1-3.39-3.18-3.39-1.76,0-3.24.79-3.59,2.66h-0.34c0.26-2,2-3,3.93-3,2.45,0,3.55,1.34,3.55,3.71v7H116.2V13.7a4.27,4.27,0,0,1-3.93,2.09C110,15.79,108.59,14.72,108.59,12.87Zm7.6-.3V10.05h-3c-2.31,0-4.22.51-4.22,2.82,0,1.7,1.24,2.6,3.31,2.6S116.2,14.09,116.2,12.57Z"/><path class="logo-1" d="M119.64,13.22V5.37H118V5h1.62V2.63H120V5h3.12V5.37H120v7.85c0,1.58.77,2.25,1.91,2.25a4.12,4.12,0,0,0,1.36-.22v0.32a3.76,3.76,0,0,1-1.36.22C120.53,15.79,119.64,15,119.64,13.22Z"/><path class="logo-1" d="M124.16,10.44V10.28c0-3.16,2-5.37,4.75-5.37s4.48,1.87,4.48,5v0.22h-8.86c0,3.31,1.6,5.29,4.52,5.29a3.73,3.73,0,0,0,3.89-2.68h0.36a4.11,4.11,0,0,1-4.26,3C125.93,15.79,124.16,13.54,124.16,10.44ZM133,9.85c0-3-1.68-4.62-4.12-4.62s-4.26,1.82-4.38,4.62H133Z"/><path class="logo-1" d="M134.22,5h0.39l3.24,10.18L141.13,5h0.28l3.24,10.18L147.95,5h0.36l-3.41,10.61h-0.49l-3.14-10-3.2,10h-0.49Z"/><path class="logo-1" d="M149.06,12.87c0-2.45,2.09-3.14,4.58-3.14h3V8.61c0-2.33-1-3.39-3.18-3.39-1.76,0-3.24.79-3.59,2.66h-0.34c0.26-2,2-3,3.93-3,2.45,0,3.55,1.34,3.55,3.71v7h-0.36V13.7a4.27,4.27,0,0,1-3.93,2.09C150.48,15.79,149.06,14.72,149.06,12.87Zm7.6-.3V10.05h-3c-2.31,0-4.22.51-4.22,2.82,0,1.7,1.24,2.6,3.31,2.6S156.66,14.09,156.66,12.57Z"/><path class="logo-1" d="M162.61,14.94L158.37,5h0.39l4.06,9.47L166.72,5h0.39l-5.94,14.3h-0.39Z"/><path class="logo-2" d="M22.57,9.38L22,8.43a11.83,11.83,0,0,0-7.68-3.58c-2.81-.09-4.44,1-6.51,2.34l-0.69.45C8,8,8.84,8.47,9.64,8.91l1,0.54,0.52,0.28a17.74,17.74,0,0,1,11.48-.16,1.51,1.51,0,0,1,0,.78A17.51,17.51,0,0,0,12,10.2l1.09,0.64a12.44,12.44,0,0,0,3.66,1.68A7.81,7.81,0,0,0,22,11.64l0.56-1A1.28,1.28,0,0,0,22.57,9.38Z"/><path class="logo-3" d="M6.44,7.35L7.5,6.66c2.16-1.42,3.86-2.55,6.87-2.45a11.38,11.38,0,0,1,6.73,2.6L17.53,0.64A1.28,1.28,0,0,0,16.42,0H6.33A1.28,1.28,0,0,0,5.22.64L1.57,7a7.9,7.9,0,0,1,.89-0.18A8,8,0,0,1,6.44,7.35Z"/><path class="logo-4" d="M2.54,7.41a6.7,6.7,0,0,0-1.44.36L0.17,9.38A1.28,1.28,0,0,0,0,9.71,14.15,14.15,0,0,0,5.66,7.83l0.1-.06A7,7,0,0,0,2.54,7.41Z"/><path class="logo-5" d="M16.6,13.13a12.93,12.93,0,0,1-3.82-1.75c-0.46-.27-1-0.57-1.54-0.9l-0.79.32c-2.35.94-4.75,1.91-7.17,1.91a8.11,8.11,0,0,1-2.08-.27l-0.57-1a4.56,4.56,0,0,0,.63.24c2.91,0.83,6-.4,8.91-1.59L10.4,10l0,0-1-.55A27.84,27.84,0,0,0,6.51,8L6,8.37a14.82,14.82,0,0,1-5.94,2,1.28,1.28,0,0,0,.13.32l5,8.74A1.28,1.28,0,0,0,6.33,20H16.42a1.28,1.28,0,0,0,1.11-.64l4-6.86a9.05,9.05,0,0,1-3.4.77A6,6,0,0,1,16.6,13.13Z"/><path class="logo-6" d="M6.51,8L5.76,7.77l-0.1.06A14.15,14.15,0,0,1,0,9.71a1.28,1.28,0,0,0,0,.63A14.82,14.82,0,0,0,6,8.37Z"/><path class="logo-6" d="M7.5,6.66l-1.05.69L7.15,7.64l0.69-.45c2.07-1.36,3.7-2.44,6.51-2.34A11.83,11.83,0,0,1,22,8.43L21.09,6.82a11.38,11.38,0,0,0-6.73-2.6C11.36,4.12,9.65,5.24,7.5,6.66Z"/><path class="logo-6" d="M11.16,9.73l-0.52-.28-1-.54C8.84,8.47,8,8,7.15,7.64L6.51,8A27.84,27.84,0,0,1,9.33,9.46l1,0.55,0,0,0.67-.27Z"/><path class="logo-6" d="M16.76,12.53a12.44,12.44,0,0,1-3.66-1.68L12,10.2l-0.68.25-0.09,0c0.58,0.33,1.08.62,1.54,0.9a12.93,12.93,0,0,0,3.82,1.75,6,6,0,0,0,1.48.18,9.05,9.05,0,0,0,3.4-.77L22,11.64A7.81,7.81,0,0,1,16.76,12.53Z"/><path class="logo-6" d="M2.54,7.41a7,7,0,0,1,3.22.37l0.68-.42a8,8,0,0,0-4-.56A7.9,7.9,0,0,0,1.57,7l-0.46.8A6.7,6.7,0,0,1,2.54,7.41Z"/><path class="logo-6" d="M6.44,7.35l-0.68.42L6.51,8l0.64-.41Z"/><path class="logo-7" d="M10.17,10.12c-2.95,1.19-6,2.41-8.91,1.59a4.56,4.56,0,0,1-.63-0.24l0.57,1a8.11,8.11,0,0,0,2.08.27c2.41,0,4.82-1,7.17-1.91l0.79-.32L10.4,10Z"/><path class="logo-7" d="M22.67,10.35a1.51,1.51,0,0,0,0-.78,17.74,17.74,0,0,0-11.48.16L12,10.2A17.51,17.51,0,0,1,22.67,10.35Z"/><path class="logo-7" d="M11.06,9.76L10.4,10l0.85,0.46,0.09,0L12,10.2l-0.85-.48Z"/></svg>
