<svg id="Layer_1" data-name="Layer 1" xmlns="http://www.w3.org/2000/svg" xmlns:xlink="http://www.w3.org/1999/xlink" viewBox="0 0 801.27 213.99" aria-labelledby="gwe-companion-mark" role="img">
  <title id="gwe-companion-mark">Express Gateway Companion Mark</title>
  <defs><style>.companion-1{fill:url(#linear-gradient-companion);}.companion-2{fill:#32a4b3;opacity:0.62;}.companion-3{fill:#fec40d;}</style><linearGradient id="linear-gradient-companion" x1="717.65" y1="472.23" x2="1518.43" y2="472.23" gradientTransform="matrix(-1, -0.04, 0.07, -1.53, 1486.42, 856.13)" gradientUnits="userSpaceOnUse"><stop offset="0.23" stop-color="#ade0eb" stop-opacity="0.5"/><stop offset="0.37" stop-color="#97d6e4" stop-opacity="0.5"/><stop offset="0.62" stop-color="#5cbbd1" stop-opacity="0.5"/><stop offset="0.76" stop-color="#35a9c5" stop-opacity="0.5"/></linearGradient></defs><title>gw-companion-mark</title><path class="companion-1" d="M781.45,119.16c-29.72,29.43-77,54.16-114.76,56.26-93.38,5.2-163-22.53-248.92-60.75C354,86.32,281.74,49.23,215,42.87,122,34,56.78,36.77,6.79,79.51c0,0-4-2.95-6.44-4.65C48.67,12,142.83,1.33,215.29.05,316.1-1.73,390.94,43.27,486,89.31s190.58,83,278.85,31.32c15.12-8.84,26.47-19.78,32.64-30.79l3.82-1.07S798.46,102.31,781.45,119.16Z"/><path class="companion-2" d="M147.28,186c93.41,37,160.07,39.08,272.55-4.15C580.58,120.05,704.72,81,797.45,89.84l2.17-2.39c-82.61-34.52-152.9-35-332.13,28-113.16,39.76-213.48,49.8-313,30.11C77.44,130.31,26.89,94,.34,74.85c0,0-1.35,6,1.35,9.22C25.45,107,70,155.39,147.28,186Z"/><path class="companion-3" d="M208.59,117c-55.33,0-99.64-6.32-130.76-12.89a440.83,440.83,0,0,1-60-16.86c-3.93-2.49-7.76-5.45-11-7.68,25.45,10.66,129.39,48.18,292,28.9,84.06-10,152.84-22.87,208.09-33.24,70.28-13.18,125.78-23.6,174.53-21,80.05,4.2,115.45,30.6,116.82,31.72a22.37,22.37,0,0,1,3,2.91c-0.49.18-3.08,0.86-3.82,1.07-0.37-.28-37.15-28.45-116.17-32.6-48.35-2.52-103.72,7.85-173.8,21-55.31,10.37-124.14,23.28-208.3,33.27A768.72,768.72,0,0,1,208.59,117Z"/></svg>
