<svg id="Layer_1" data-name="Layer 1" xmlns="http://www.w3.org/2000/svg" viewBox="0 0 501 265.21"><defs><style>.homemarch-1{fill:#74cfe8;opacity:.15}.homemarch-1,.homemarch-10,.homemarch-3,.homemarch-6,.homemarch-8{isolation:isolate}.homemarch-15,.homemarch-2{fill:#fff}.homemarch-12,.homemarch-3,.homemarch-4,.homemarch-5{fill:none;stroke-linecap:round}.homemarch-3{stroke:#34a8c4;stroke-width:3px;opacity:.3}.homemarch-14,.homemarch-15,.homemarch-3{stroke-miterlimit:10}.homemarch-4,.homemarch-5{stroke:#136d7c}.homemarch-12,.homemarch-4,.homemarch-5{stroke-linejoin:round}.homemarch-4{stroke-width:1.5px}.homemarch-5{stroke-width:2.5px}.homemarch-6{opacity:.63}.homemarch-7{fill:#136d7c}.homemarch-10,.homemarch-9{fill:#35a9c5}.homemarch-10{opacity:.2}.homemarch-11{fill:#73645a}.homemarch-12{stroke:#35a9c5;stroke-width:2px}.homemarch-13{fill:#f1f0f1}.homemarch-14{fill:#eef8f8}.homemarch-14,.homemarch-15{stroke:#73645a;stroke-width:4px}.homemarch-16{opacity:.7}.homemarch-17{fill:#75cfe8}.homemarch-18{fill:#125560}</style></defs><title>Home_marchitecturediagram</title><rect class="homemarch-1" y="70.44" width="501" height="143.91" rx="15" ry="15"/><path class="homemarch-2" d="M378.92 87.15L378.81 252a14.35 14.35 0 0 1-14 11.7h-214.4c-7 0-12.75-5.1-12.75-11.32V12.89c0-6.23 5.74-11.32 12.75-11.32l215.75-.07c7 0 12.75 5.1 12.75 11.32v74.33z"/><path class="homemarch-3" d="M378.92 87.15L378.81 252a14.35 14.35 0 0 1-14 11.7h-214.4c-7 0-12.75-5.1-12.75-11.32V12.89c0-6.23 5.74-11.32 12.75-11.32l215.75-.07c7 0 12.75 5.1 12.75 11.32v74.33z"/><rect class="homemarch-4" x="158.49" y="22.26" width="198.05" height="123.63" rx="3.14" ry="3.14"/><path class="homemarch-5" d="M335.52 46.1h-9.8c-.82 0-1.49-1.19-1.49-2.65s.67-2.65 1.49-2.65h20c.82 0 1.49-1.19 1.49-2.65s-.67-2.65-1.49-2.65h-10.3M335.52 56.7h-9.8c-.82 0-1.49-1.19-1.49-2.65s.67-2.65 1.49-2.65h20c.82 0 1.49-1.19 1.49-2.65s-.67-2.65-1.49-2.65h-10.3"/><path class="homemarch-5" d="M335.52 67.3h-9.8c-.82 0-1.49-1.19-1.49-2.65s.67-2.65 1.49-2.65h20c.82 0 1.49-1.19 1.49-2.65s-.67-2.65-1.49-2.65h-10.3"/><path class="homemarch-5" d="M335.52 77.78h-9.8c-.82 0-1.49-1.19-1.49-2.65s.67-2.65 1.49-2.65h20c.82 0 1.49-1.19 1.49-2.65s-.67-2.65-1.49-2.65h-10.3"/><path class="homemarch-5" d="M335.52 88.38h-9.8c-.82 0-1.49-1.19-1.49-2.65s.67-2.65 1.49-2.65h20c.82 0 1.49-1.19 1.49-2.65s-.67-2.65-1.49-2.65h-10.3M335.52 99h-9.8c-.82 0-1.49-1.19-1.49-2.65s.67-2.65 1.49-2.65h20c.82 0 1.49-1.19 1.49-2.65s-.67-2.65-1.49-2.65h-10.3"/><path class="homemarch-5" d="M335.52 109.57h-9.8c-.82 0-1.49-1.19-1.49-2.65s.67-2.65 1.49-2.65h20c.82 0 1.49-1.19 1.49-2.65s-.67-2.65-1.49-2.65h-10.3"/><path class="homemarch-2" d="M320.79 107.09h29.16v12.63h-29.16z"/><g class="homemarch-6"><path class="homemarch-7" d="M322.28 111.75h3.07a2.38 2.38 0 0 1 1.59.46 1.6 1.6 0 0 1 .53 1.28 1.87 1.87 0 0 1-.13.76 1.66 1.66 0 0 1-.31.49 1.22 1.22 0 0 1-.36.26l-.26.11a1.17 1.17 0 0 1 .31.09.92.92 0 0 1 .31.23 1.25 1.25 0 0 1 .24.41 1.82 1.82 0 0 1 .09.63 5.72 5.72 0 0 0 .08 1 1.35 1.35 0 0 0 .27.66h-1.21a1 1 0 0 1-.15-.46v-.49a4.6 4.6 0 0 0-.05-.76 1.32 1.32 0 0 0-.2-.53.83.83 0 0 0-.39-.31 1.72 1.72 0 0 0-.63-.1h-1.65v2.64h-1.12v-6.42zm1.12 2.92h1.84a1.17 1.17 0 0 0 .82-.26 1 1 0 0 0 .28-.77 1.18 1.18 0 0 0-.09-.5.73.73 0 0 0-.25-.3.91.91 0 0 0-.36-.14 2.34 2.34 0 0 0-.42 0h-1.83v2zM330.6 118.3a2.52 2.52 0 0 1-1-.18 2.11 2.11 0 0 1-.74-.51 2.18 2.18 0 0 1-.46-.77 3.16 3.16 0 0 1 0-2 2.17 2.17 0 0 1 .46-.77 2.11 2.11 0 0 1 .74-.51 2.78 2.78 0 0 1 2 0 2.12 2.12 0 0 1 .74.51 2.16 2.16 0 0 1 .46.77 3.14 3.14 0 0 1 0 2 2.16 2.16 0 0 1-.46.77 2.12 2.12 0 0 1-.74.51 2.53 2.53 0 0 1-1 .18zm0-.81a1.17 1.17 0 0 0 .59-.14 1.25 1.25 0 0 0 .41-.38 1.65 1.65 0 0 0 .24-.53 2.37 2.37 0 0 0 0-1.19 1.59 1.59 0 0 0-.24-.53 1.27 1.27 0 0 0-.41-.37 1.29 1.29 0 0 0-1.19 0 1.25 1.25 0 0 0-.41.37 1.57 1.57 0 0 0-.24.53 2.37 2.37 0 0 0 0 1.19 1.63 1.63 0 0 0 .24.53 1.24 1.24 0 0 0 .41.38 1.18 1.18 0 0 0 .6.14zM337.88 118.17h-1v-.65a1.41 1.41 0 0 1-.56.56 1.53 1.53 0 0 1-.76.21 1.71 1.71 0 0 1-1.33-.45 2 2 0 0 1-.41-1.37v-2.95h1v2.85a1.27 1.27 0 0 0 .23.86.86.86 0 0 0 .66.25 1.29 1.29 0 0 0 .54-.1 1 1 0 0 0 .35-.26 1 1 0 0 0 .19-.4 2.07 2.07 0 0 0 .06-.5v-2.7h1v4.65zM338.49 113.52h.77v-1.39h1v1.39h.93v.76h-.93v2.48a2.29 2.29 0 0 0 0 .28.49.49 0 0 0 .06.2.3.3 0 0 0 .15.12.72.72 0 0 0 .27 0h.47v.79h-.66a2.28 2.28 0 0 1-.65-.08.87.87 0 0 1-.39-.22.78.78 0 0 1-.19-.37 2.88 2.88 0 0 1-.06-.51v-2.74h-.77v-.76zM342.75 116.11a1.79 1.79 0 0 0 .08.52 1.27 1.27 0 0 0 .23.44 1.09 1.09 0 0 0 .39.3 1.27 1.27 0 0 0 .56.11 1.23 1.23 0 0 0 .72-.19 1.14 1.14 0 0 0 .41-.58h1a1.93 1.93 0 0 1-.75 1.17 2 2 0 0 1-.62.31 2.53 2.53 0 0 1-.72.1 2.47 2.47 0 0 1-1-.18 2 2 0 0 1-.71-.5 2.14 2.14 0 0 1-.44-.77 3.15 3.15 0 0 1-.15-1 2.81 2.81 0 0 1 .16-.94 2.4 2.4 0 0 1 .45-.78 2.1 2.1 0 0 1 1.64-.73 2.09 2.09 0 0 1 1 .23 2.18 2.18 0 0 1 .72.61 2.47 2.47 0 0 1 .42.87 2.66 2.66 0 0 1 .07 1h-3.42zm2.39-.67a1.65 1.65 0 0 0-.14-.44 1.27 1.27 0 0 0-.23-.39 1.17 1.17 0 0 0-.36-.27 1.07 1.07 0 0 0-.47-.1 1.22 1.22 0 0 0-.49.09 1.11 1.11 0 0 0-.38.26 1.3 1.3 0 0 0-.25.39 1.36 1.36 0 0 0-.1.49h2.39zM347 113.52h1v.9a1 1 0 0 1 .17-.37 1.72 1.72 0 0 1 .31-.33 1.57 1.57 0 0 1 .41-.24 1.23 1.23 0 0 1 .46-.09h.39v1h-.44a1.17 1.17 0 0 0-.49.1 1.12 1.12 0 0 0-.4.31 1.51 1.51 0 0 0-.27.5 2.14 2.14 0 0 0-.1.68v2.21h-1v-4.65z"/></g><g class="homemarch-8"><g class="homemarch-8"><path class="homemarch-9" d="M21.51 147.24a2 2 0 0 0 .18.88 1.59 1.59 0 0 0 .49.6 2.07 2.07 0 0 0 .72.34 3.45 3.45 0 0 0 .89.11 2.86 2.86 0 0 0 .88-.12 1.78 1.78 0 0 0 .59-.31 1.1 1.1 0 0 0 .33-.43 1.3 1.3 0 0 0 .1-.5 1.07 1.07 0 0 0-.23-.76 1.34 1.34 0 0 0-.51-.35 10.6 10.6 0 0 0-1.11-.33l-1.58-.37a3.33 3.33 0 0 1-1-.4 2.29 2.29 0 0 1-.61-.55 1.92 1.92 0 0 1-.32-.64 2.57 2.57 0 0 1-.09-.69 2.34 2.34 0 0 1 .28-1.18 2.52 2.52 0 0 1 .75-.82 3.28 3.28 0 0 1 1.06-.48 4.64 4.64 0 0 1 1.19-.16 4.71 4.71 0 0 1 1.33.18 3.29 3.29 0 0 1 1.09.55 2.6 2.6 0 0 1 1 2.14h-1.51a1.51 1.51 0 0 0-.59-1.23 2.34 2.34 0 0 0-1.34-.36 2.91 2.91 0 0 0-.57.06 1.78 1.78 0 0 0-.53.19 1.16 1.16 0 0 0-.4.36 1.1 1.1 0 0 0 .14 1.31 1.92 1.92 0 0 0 .77.41l.4.11.77.2.84.22.58.16a2.61 2.61 0 0 1 .77.38 2.42 2.42 0 0 1 .55.55 2.26 2.26 0 0 1 .33.66 2.41 2.41 0 0 1 .11.7 2.54 2.54 0 0 1-.31 1.29 2.6 2.6 0 0 1-.81.87 3.51 3.51 0 0 1-1.14.5 5.48 5.48 0 0 1-1.31.16 5.4 5.4 0 0 1-1.45-.19 3.39 3.39 0 0 1-1.18-.58 2.82 2.82 0 0 1-.8-1 3.31 3.31 0 0 1-.31-1.44h1.57zM29.29 147.35a2.49 2.49 0 0 0 .11.73 1.8 1.8 0 0 0 .32.62 1.55 1.55 0 0 0 .54.42 1.79 1.79 0 0 0 .78.16 1.72 1.72 0 0 0 1-.27 1.6 1.6 0 0 0 .57-.81H34a2.7 2.7 0 0 1-.39.94 2.74 2.74 0 0 1-.67.7 2.87 2.87 0 0 1-.87.43 3.5 3.5 0 0 1-1 .14 3.45 3.45 0 0 1-1.36-.25 2.81 2.81 0 0 1-1-.7 3 3 0 0 1-.62-1.08 4.39 4.39 0 0 1-.21-1.38 3.9 3.9 0 0 1 .22-1.31 3.36 3.36 0 0 1 .63-1.09 2.95 2.95 0 0 1 2.29-1 2.92 2.92 0 0 1 1.38.32 3 3 0 0 1 1 .85 3.45 3.45 0 0 1 .58 1.21 3.72 3.72 0 0 1 .09 1.41h-4.78zm3.34-.94a2.3 2.3 0 0 0-.14-.65 1.74 1.74 0 0 0-.33-.55 1.61 1.61 0 0 0-.5-.38 1.48 1.48 0 0 0-.66-.14 1.72 1.72 0 0 0-.69.13 1.56 1.56 0 0 0-.53.36 1.8 1.8 0 0 0-.35.55 1.91 1.91 0 0 0-.14.68h3.34zM34.91 143.73h1.34V145a1.44 1.44 0 0 1 .25-.52 2.38 2.38 0 0 1 .5-.48 2.2 2.2 0 0 1 .57-.33 1.72 1.72 0 0 1 .64-.13h.54V145h-.62a1.67 1.67 0 0 0-.69.14 1.58 1.58 0 0 0-.56.43 2.09 2.09 0 0 0-.38.7 3 3 0 0 0-.14 1v3.09h-1.45v-6.5z"/><path class="homemarch-9" d="M38.44 143.73H40l1.65 5 1.58-5h1.48l-2.33 6.5H40.8zM45.39 141.26h1.43v1.36h-1.43v-1.36zm0 2.48h1.43v6.5h-1.43v-6.5zM52.52 145.91A1.35 1.35 0 0 0 52 145a1.58 1.58 0 0 0-1-.31 2.07 2.07 0 0 0-.59.09 1.39 1.39 0 0 0-.58.35 2 2 0 0 0-.44.72 3.42 3.42 0 0 0-.18 1.2 3.53 3.53 0 0 0 .09.8 2.22 2.22 0 0 0 .3.72 1.63 1.63 0 0 0 .53.51 1.52 1.52 0 0 0 .79.2 1.44 1.44 0 0 0 1-.39 1.81 1.81 0 0 0 .51-1.09h1.43a3.15 3.15 0 0 1-1 1.94 2.93 2.93 0 0 1-2 .67 3.32 3.32 0 0 1-1.35-.26 2.86 2.86 0 0 1-1-.7 3 3 0 0 1-.61-1.06 4.14 4.14 0 0 1-.21-1.33 4.57 4.57 0 0 1 .2-1.37 3.17 3.17 0 0 1 .6-1.11 2.84 2.84 0 0 1 1-.74 3.36 3.36 0 0 1 1.4-.27 3.94 3.94 0 0 1 1.07.14 2.84 2.84 0 0 1 .91.43 2.33 2.33 0 0 1 .65.73 2.5 2.5 0 0 1 .3 1h-1.3zM56 147.35a2.49 2.49 0 0 0 .11.73 1.81 1.81 0 0 0 .32.62 1.54 1.54 0 0 0 .54.42 1.79 1.79 0 0 0 .78.16 1.72 1.72 0 0 0 1-.27 1.6 1.6 0 0 0 .57-.81h1.36a2.69 2.69 0 0 1-.39.94 2.73 2.73 0 0 1-.67.7 2.87 2.87 0 0 1-.87.43 3.51 3.51 0 0 1-1 .14 3.45 3.45 0 0 1-1.36-.25 2.8 2.8 0 0 1-1-.7 3 3 0 0 1-.62-1.08 4.38 4.38 0 0 1-.21-1.38 3.92 3.92 0 0 1 .22-1.31 3.36 3.36 0 0 1 .63-1.09 2.95 2.95 0 0 1 2.29-1 2.92 2.92 0 0 1 1.38.32 3 3 0 0 1 1 .85 3.45 3.45 0 0 1 .58 1.21 3.73 3.73 0 0 1 .09 1.41H56zm3.34-.94a2.35 2.35 0 0 0-.14-.65 1.74 1.74 0 0 0-.33-.55 1.61 1.61 0 0 0-.5-.38 1.48 1.48 0 0 0-.66-.14 1.72 1.72 0 0 0-.68.13 1.56 1.56 0 0 0-.53.36 1.81 1.81 0 0 0-.35.55 1.9 1.9 0 0 0-.14.68h3.34zM62.68 148.14a1.08 1.08 0 0 0 .48.88 1.88 1.88 0 0 0 1 .25h.46a2 2 0 0 0 .48-.12.9.9 0 0 0 .37-.26.61.61 0 0 0 .13-.45.63.63 0 0 0-.2-.45 1.4 1.4 0 0 0-.48-.28 4.75 4.75 0 0 0-.67-.18l-.77-.16a7.09 7.09 0 0 1-.77-.21 2.5 2.5 0 0 1-.67-.34 1.57 1.57 0 0 1-.47-.55 1.73 1.73 0 0 1-.18-.82 1.48 1.48 0 0 1 .26-.89 2 2 0 0 1 .65-.56 2.84 2.84 0 0 1 .88-.31 5.17 5.17 0 0 1 .92-.09 4.22 4.22 0 0 1 1 .11 2.61 2.61 0 0 1 .83.35 2 2 0 0 1 .62.62 2.16 2.16 0 0 1 .31.92h-1.5a.89.89 0 0 0-.47-.69 2 2 0 0 0-.85-.18h-.36a1.7 1.7 0 0 0-.39.09.81.81 0 0 0-.31.2.48.48 0 0 0-.13.35.55.55 0 0 0 .18.43 1.44 1.44 0 0 0 .48.27 4.73 4.73 0 0 0 .67.18l.78.16a7.88 7.88 0 0 1 .77.21 2.5 2.5 0 0 1 .67.34 1.65 1.65 0 0 1 .48.54 1.63 1.63 0 0 1 .18.8 1.75 1.75 0 0 1-.26 1 2.1 2.1 0 0 1-.69.65 3.1 3.1 0 0 1-.94.36 4.69 4.69 0 0 1-1 .11 4.45 4.45 0 0 1-1.14-.14 2.66 2.66 0 0 1-.91-.42 2 2 0 0 1-.6-.7 2.24 2.24 0 0 1-.23-1h1.43z"/></g><g class="homemarch-8"><path class="homemarch-9" d="M19.1 156h6.46v1.36h-4.89v2.35h4.53V161h-4.53v2.63h5V165H19.1v-9zM26.56 158.52h1.36v1a2.41 2.41 0 0 1 .85-.85 2.28 2.28 0 0 1 1.17-.31 2.43 2.43 0 0 1 1.68.55 2.12 2.12 0 0 1 .62 1.66V165h-1.4v-4.08a1.76 1.76 0 0 0-.33-1.11 1.19 1.19 0 0 0-.94-.35 1.56 1.56 0 0 0-.65.13 1.41 1.41 0 0 0-.49.36 1.71 1.71 0 0 0-.31.55 2 2 0 0 0-.11.67V165h-1.45v-6.5zM39.65 165h-1.36v-.88a1.71 1.71 0 0 1-.84.81 2.85 2.85 0 0 1-1.17.25 3.1 3.1 0 0 1-1.34-.27 2.65 2.65 0 0 1-.95-.74 3.14 3.14 0 0 1-.57-1.1 4.77 4.77 0 0 1-.19-1.36 4.36 4.36 0 0 1 .24-1.52 3.05 3.05 0 0 1 .63-1.06 2.46 2.46 0 0 1 .91-.61 2.88 2.88 0 0 1 1-.2 3.43 3.43 0 0 1 .62.06 2.68 2.68 0 0 1 .6.18 2.39 2.39 0 0 1 .54.32 1.78 1.78 0 0 1 .41.46V156h1.43v9zm-5-3.18a3.16 3.16 0 0 0 .11.82 2.23 2.23 0 0 0 .33.72 1.66 1.66 0 0 0 .56.5 1.64 1.64 0 0 0 .81.19 1.61 1.61 0 0 0 .82-.2 1.71 1.71 0 0 0 .57-.53 2.37 2.37 0 0 0 .33-.74 3.33 3.33 0 0 0 .11-.84 2.63 2.63 0 0 0-.48-1.68 1.6 1.6 0 0 0-1.31-.6 1.62 1.62 0 0 0-.85.21 1.75 1.75 0 0 0-.57.54 2.25 2.25 0 0 0-.31.75 3.91 3.91 0 0 0-.13.88zM41 158.52h1.36v.88a1.77 1.77 0 0 1 .84-.81 2.8 2.8 0 0 1 1.17-.25 3.09 3.09 0 0 1 1.34.27 2.66 2.66 0 0 1 .95.74 3.24 3.24 0 0 1 .57 1.1 4.65 4.65 0 0 1 .19 1.34 4.75 4.75 0 0 1-.17 1.27 3.29 3.29 0 0 1-.51 1.09 2.51 2.51 0 0 1-2.12 1 3.51 3.51 0 0 1-.63-.06 2.74 2.74 0 0 1-.6-.18 2.38 2.38 0 0 1-.53-.32 1.77 1.77 0 0 1-.41-.46v3.24H41v-8.9zm5 3.26a3.24 3.24 0 0 0-.11-.85 2.31 2.31 0 0 0-.34-.74 1.74 1.74 0 0 0-.57-.52 1.54 1.54 0 0 0-.78-.19 1.58 1.58 0 0 0-1.36.63 2.77 2.77 0 0 0-.46 1.67 3.31 3.31 0 0 0 .12.91 2.06 2.06 0 0 0 .36.72 1.8 1.8 0 0 0 .57.48 1.63 1.63 0 0 0 .77.18 1.61 1.61 0 0 0 .83-.2 1.78 1.78 0 0 0 .56-.52 2.11 2.11 0 0 0 .31-.73 3.67 3.67 0 0 0 .1-.84zM51.36 165.2a3.54 3.54 0 0 1-1.39-.26 2.94 2.94 0 0 1-1-.71 3 3 0 0 1-.64-1.08 4.4 4.4 0 0 1 0-2.75 3 3 0 0 1 .64-1.08 3 3 0 0 1 1-.71 3.87 3.87 0 0 1 2.78 0 3 3 0 0 1 1 .71 3 3 0 0 1 .64 1.08 4.42 4.42 0 0 1 0 2.75 3 3 0 0 1-.64 1.08 3 3 0 0 1-1 .71 3.54 3.54 0 0 1-1.39.26zm0-1.13a1.64 1.64 0 0 0 .83-.2 1.75 1.75 0 0 0 .58-.53 2.31 2.31 0 0 0 .33-.74 3.31 3.31 0 0 0 0-1.67 2.24 2.24 0 0 0-.33-.74 1.77 1.77 0 0 0-.58-.52 1.81 1.81 0 0 0-1.66 0 1.78 1.78 0 0 0-.58.52 2.24 2.24 0 0 0-.33.74 3.31 3.31 0 0 0 0 1.67 2.31 2.31 0 0 0 .33.74 1.75 1.75 0 0 0 .58.53 1.65 1.65 0 0 0 .83.19zM55.62 156h1.43v1.36h-1.43V156zm0 2.48h1.43V165h-1.43v-6.5zM58.36 158.52h1.36v1a2.41 2.41 0 0 1 .85-.85 2.28 2.28 0 0 1 1.17-.31 2.43 2.43 0 0 1 1.68.55 2.12 2.12 0 0 1 .62 1.66V165h-1.4v-4.08a1.77 1.77 0 0 0-.33-1.11 1.19 1.19 0 0 0-.94-.35 1.56 1.56 0 0 0-.65.13 1.41 1.41 0 0 0-.49.36 1.72 1.72 0 0 0-.31.55 1.94 1.94 0 0 0-.11.67V165h-1.45v-6.5zM64.67 158.52h1.08v-1.95h1.43v1.95h1.29v1.07h-1.28v3.47a3.41 3.41 0 0 0 0 .39.65.65 0 0 0 .09.28.42.42 0 0 0 .21.17 1 1 0 0 0 .38.06h.3a1.46 1.46 0 0 0 .3 0V165l-.46.05h-.46a3.17 3.17 0 0 1-.91-.11 1.21 1.21 0 0 1-.54-.31 1.08 1.08 0 0 1-.26-.52 3.8 3.8 0 0 1-.08-.72v-3.83h-1.09v-1.07z"/></g><g class="homemarch-8"><path class="homemarch-9" d="M23.16 182.2q-.38-.6-.71-1.24a9.91 9.91 0 0 1-.58-1.35 9.63 9.63 0 0 1-.38-1.5 9.85 9.85 0 0 1-.14-1.7 9.74 9.74 0 0 1 .47-3 11.6 11.6 0 0 1 1.34-2.8h1.17a12.74 12.74 0 0 0-1.15 2.78 11.2 11.2 0 0 0-.4 3 11.83 11.83 0 0 0 .38 3 10.94 10.94 0 0 0 1.17 2.78h-1.17zM24.93 170.83h4a3.76 3.76 0 0 1 1.56.28 2.47 2.47 0 0 1 .93.69 2.35 2.35 0 0 1 .45.91 3.83 3.83 0 0 1 .12.9 3.78 3.78 0 0 1-.12.9 2.36 2.36 0 0 1-.45.9 2.4 2.4 0 0 1-.93.68 3.83 3.83 0 0 1-1.56.27H26.5v3.44h-1.57v-9zm1.57 4.25h2.3a2 2 0 0 0 .54-.08 1.54 1.54 0 0 0 .51-.25 1.26 1.26 0 0 0 .38-.45 1.56 1.56 0 0 0 .14-.71 1.84 1.84 0 0 0-.13-.73 1.17 1.17 0 0 0-.34-.46 1.21 1.21 0 0 0-.49-.23 2.66 2.66 0 0 0-.59-.06H26.5v3zM32.86 173.3h1.34v1.26a1.44 1.44 0 0 1 .25-.52 2.38 2.38 0 0 1 .44-.46 2.21 2.21 0 0 1 .57-.33 1.71 1.71 0 0 1 .64-.13h.54v1.38h-.62a1.66 1.66 0 0 0-.69.14 1.58 1.58 0 0 0-.56.43 2.09 2.09 0 0 0-.38.7 3 3 0 0 0-.14 1v3.09h-1.39v-6.5zM37.07 170.83h1.43v1.36h-1.43v-1.36zm0 2.48h1.43v6.5h-1.43v-6.5zM39.17 173.3h1.56l1.65 5 1.58-5h1.48l-2.33 6.5h-1.58zM51.53 178.35a.75.75 0 0 0 .07.38.29.29 0 0 0 .27.11h.33v1l-.2.06-.25.06h-.44a1.38 1.38 0 0 1-.73-.18.88.88 0 0 1-.38-.62 2.54 2.54 0 0 1-1 .6 4.12 4.12 0 0 1-1.2.24 3 3 0 0 1-.84-.12 2.23 2.23 0 0 1-.71-.35 1.68 1.68 0 0 1-.49-.59 1.81 1.81 0 0 1-.18-.84 1.93 1.93 0 0 1 .22-1 1.63 1.63 0 0 1 .58-.59 2.63 2.63 0 0 1 .8-.31c.3-.06.6-.11.9-.14a7.34 7.34 0 0 1 .74-.11 3.4 3.4 0 0 0 .62-.11 1 1 0 0 0 .43-.23.64.64 0 0 0 .16-.47.74.74 0 0 0-.13-.45.89.89 0 0 0-.33-.27 1.42 1.42 0 0 0-.43-.12 3.4 3.4 0 0 0-.45 0 1.8 1.8 0 0 0-1 .25 1 1 0 0 0-.44.78H46a2.16 2.16 0 0 1 .3-1 2.09 2.09 0 0 1 .67-.67 2.75 2.75 0 0 1 .92-.35 5.55 5.55 0 0 1 1.06-.1 4.5 4.5 0 0 1 .94.1 2.69 2.69 0 0 1 .84.33 1.81 1.81 0 0 1 .6.58 1.6 1.6 0 0 1 .23.87v3.34zm-1.43-1.81a1.73 1.73 0 0 1-.8.26q-.48 0-1 .13a3.14 3.14 0 0 0-.44.11 1.3 1.3 0 0 0-.38.19.82.82 0 0 0-.26.31 1.06 1.06 0 0 0-.09.47.6.6 0 0 0 .14.4 1 1 0 0 0 .33.26 1.56 1.56 0 0 0 .43.13 2.62 2.62 0 0 0 .42 0 2.34 2.34 0 0 0 .52-.06 1.7 1.7 0 0 0 .52-.21 1.38 1.38 0 0 0 .41-.38 1 1 0 0 0 .16-.57v-1.07zM52.17 173.3h1.08v-1.95h1.43v1.95H56v1.07h-1.32v3.47a3.41 3.41 0 0 0 0 .39.65.65 0 0 0 .09.28.42.42 0 0 0 .21.17 1 1 0 0 0 .38.06h.3a1.46 1.46 0 0 0 .3 0v1.11l-.46.05h-.46a3.17 3.17 0 0 1-.91-.11 1.21 1.21 0 0 1-.54-.31 1.08 1.08 0 0 1-.26-.52 3.8 3.8 0 0 1-.08-.72v-3.83h-1.08v-1.11zM57.87 176.92a2.49 2.49 0 0 0 .11.73 1.81 1.81 0 0 0 .32.62 1.54 1.54 0 0 0 .54.42 1.79 1.79 0 0 0 .78.16 1.72 1.72 0 0 0 1-.27 1.6 1.6 0 0 0 .57-.81h1.36a2.69 2.69 0 0 1-.39.94 2.73 2.73 0 0 1-.67.7 2.87 2.87 0 0 1-.87.43 3.51 3.51 0 0 1-1 .14 3.45 3.45 0 0 1-1.36-.25 2.8 2.8 0 0 1-1-.7 3 3 0 0 1-.62-1.08 4.38 4.38 0 0 1-.21-1.38 3.92 3.92 0 0 1 .22-1.31 3.36 3.36 0 0 1 .63-1.09 2.95 2.95 0 0 1 2.29-1 2.92 2.92 0 0 1 1.38.32 3 3 0 0 1 1 .85 3.45 3.45 0 0 1 .58 1.21 3.73 3.73 0 0 1 .09 1.41h-4.75zm3.34-.94a2.35 2.35 0 0 0-.14-.65 1.74 1.74 0 0 0-.33-.55 1.61 1.61 0 0 0-.5-.38 1.48 1.48 0 0 0-.66-.14 1.72 1.72 0 0 0-.68.13 1.56 1.56 0 0 0-.53.36 1.81 1.81 0 0 0-.35.55 1.9 1.9 0 0 0-.14.68h3.34z"/><path class="homemarch-9" d="M63.81 170.61q.38.6.7 1.25a11 11 0 0 1 .57 1.36 10.3 10.3 0 0 1 .39 1.5 9.51 9.51 0 0 1 .14 1.7 9.74 9.74 0 0 1-.47 3 11.4 11.4 0 0 1-1.34 2.79h-1.16a12.5 12.5 0 0 0 1.15-2.77 11.22 11.22 0 0 0 .4-3 11.79 11.79 0 0 0-.38-3 11.14 11.14 0 0 0-1.17-2.79h1.17z"/></g></g><path class="homemarch-9" d="M47.2 116.52H33.45a.35.35 0 0 0 0 .69H47.2a.35.35 0 0 0 0-.69z"/><path class="homemarch-9" d="M55.21 106.55h-5.28a3.42 3.42 0 0 0-.44-1.91c-.79-1.35-2.53-2-5.18-2.06s-4.36.65-5.15 2a3.43 3.43 0 0 0-.44 2h-5.28a3.93 3.93 0 0 0-3.93 3.93v14.07a3.93 3.93 0 0 0 3.93 3.93h21.77a3.93 3.93 0 0 0 3.93-3.93v-14.11a3.93 3.93 0 0 0-3.93-3.92zm-14.64-1.16c.47-.78 1.75-1.19 3.74-1.18s3.3.45 3.78 1.25a1.86 1.86 0 0 1 .22 1.09h-7.94a1.91 1.91 0 0 1 .2-1.16zm11.24 17.4a5.12 5.12 0 0 1-4.81-3.32h-4.52L40.4 118l-2.4 1.65-1.86-1.06-2.26.73-2.17-2 .73-1.8h14.74a5.13 5.13 0 1 1 4.63 7.27z"/><circle class="homemarch-9" cx="53.76" cy="117.67" r="1.18"/><path class="homemarch-10" d="M50.61 124.59a5.12 5.12 0 0 1-4.79-3.32h-4.54l-2.08-1.48-2.39 1.66-1.86-1.06-2.26.73-2.17-2 .73-1.8H46a5.13 5.13 0 1 1 4.65 7.29z"/><g class="homemarch-8"><g class="homemarch-8"><path class="homemarch-11" d="M185.69 240.44h8.74v1.84h-6.61v3.18h6.12v1.73h-6.12v3.55h6.73v1.84h-8.86v-12.14zM198.32 248l-3-4.17h2.35l1.84 2.7 1.92-2.7h2.24l-3 4.06 3.37 4.73h-2.33l-2.23-3.25-2.16 3.25H195zM205 243.79h1.84V245a2.39 2.39 0 0 1 1.14-1.1 3.79 3.79 0 0 1 1.58-.33 4.19 4.19 0 0 1 1.81.37 3.55 3.55 0 0 1 1.28 1 4.36 4.36 0 0 1 .76 1.49 6.27 6.27 0 0 1 .26 1.82 6.46 6.46 0 0 1-.23 1.72 4.48 4.48 0 0 1-.7 1.47 3.4 3.4 0 0 1-2.86 1.4 4.72 4.72 0 0 1-.85-.08 3.64 3.64 0 0 1-.82-.25 3.2 3.2 0 0 1-.72-.43 2.41 2.41 0 0 1-.55-.62v4.39H205v-12zm6.77 4.4a4.35 4.35 0 0 0-.15-1.16 3.13 3.13 0 0 0-.46-1 2.36 2.36 0 0 0-.76-.7 2.08 2.08 0 0 0-1.05-.26 2.14 2.14 0 0 0-1.84.85 3.75 3.75 0 0 0-.62 2.26 4.52 4.52 0 0 0 .16 1.23 2.76 2.76 0 0 0 .48 1 2.42 2.42 0 0 0 .77.65 2.2 2.2 0 0 0 1 .24 2.17 2.17 0 0 0 1.12-.27 2.36 2.36 0 0 0 .76-.71 2.88 2.88 0 0 0 .43-1 5 5 0 0 0 .13-1.13z"/></g><g class="homemarch-8"><path class="homemarch-11" d="M215.14 243.79H217v1.7a2 2 0 0 1 .33-.7 3.21 3.21 0 0 1 .59-.62 3 3 0 0 1 .77-.45 2.33 2.33 0 0 1 .87-.17h.73v1.87l-.42-.06h-.42a2.22 2.22 0 0 0-.93.2 2.12 2.12 0 0 0-.76.58 2.84 2.84 0 0 0-.51.94 4.07 4.07 0 0 0-.19 1.29v4.18h-1.94v-8.79z"/></g><g class="homemarch-8"><path class="homemarch-11" d="M222.16 248.69a3.36 3.36 0 0 0 .14 1 2.41 2.41 0 0 0 .43.83 2.09 2.09 0 0 0 .73.57 2.4 2.4 0 0 0 1.05.21 2.33 2.33 0 0 0 1.37-.37 2.17 2.17 0 0 0 .77-1.1h1.84a3.64 3.64 0 0 1-1.43 2.22 3.9 3.9 0 0 1-1.18.58 4.77 4.77 0 0 1-1.37.2 4.66 4.66 0 0 1-1.84-.34 3.8 3.8 0 0 1-1.35-1 4 4 0 0 1-.83-1.46 5.94 5.94 0 0 1-.28-1.87 5.28 5.28 0 0 1 .3-1.78 4.54 4.54 0 0 1 .85-1.48 4 4 0 0 1 3.1-1.39 3.94 3.94 0 0 1 1.86.43 4.1 4.1 0 0 1 1.37 1.15 4.67 4.67 0 0 1 .79 1.64 5 5 0 0 1 .13 1.91h-6.46zm4.52-1.28a3.13 3.13 0 0 0-.2-.88 2.35 2.35 0 0 0-.44-.74 2.2 2.2 0 0 0-.68-.51 2 2 0 0 0-.89-.2 2.33 2.33 0 0 0-.93.18 2.11 2.11 0 0 0-.71.49 2.44 2.44 0 0 0-.48.74 2.57 2.57 0 0 0-.2.92h4.52zM231.39 249.76a1.46 1.46 0 0 0 .65 1.19 2.54 2.54 0 0 0 1.34.34 5 5 0 0 0 .62 0 2.67 2.67 0 0 0 .65-.16 1.23 1.23 0 0 0 .5-.35.84.84 0 0 0 .18-.6.85.85 0 0 0-.27-.61 1.88 1.88 0 0 0-.65-.38 6.34 6.34 0 0 0-.91-.25l-1-.22a9.67 9.67 0 0 1-1-.29 3.35 3.35 0 0 1-.9-.46 2.11 2.11 0 0 1-.64-.74 2.36 2.36 0 0 1-.24-1.11 2 2 0 0 1 .35-1.2 2.67 2.67 0 0 1 .88-.78 3.87 3.87 0 0 1 1.19-.42 7 7 0 0 1 1.25-.12 5.76 5.76 0 0 1 1.3.14 3.56 3.56 0 0 1 1.12.47 2.76 2.76 0 0 1 .83.84 2.91 2.91 0 0 1 .42 1.25h-2a1.21 1.21 0 0 0-.64-.93 2.64 2.64 0 0 0-1.15-.24h-.48a2.27 2.27 0 0 0-.53.13 1.11 1.11 0 0 0-.42.27.65.65 0 0 0-.17.47.74.74 0 0 0 .25.58 2 2 0 0 0 .65.37 6.2 6.2 0 0 0 .91.25l1.05.22q.53.12 1 .29a3.36 3.36 0 0 1 .91.46 2.11 2.11 0 0 1 .89 1.82 2.36 2.36 0 0 1-.36 1.33 2.82 2.82 0 0 1-.93.88 4.21 4.21 0 0 1-1.27.49 6.44 6.44 0 0 1-1.38.15 6 6 0 0 1-1.54-.19 3.58 3.58 0 0 1-1.22-.57 2.75 2.75 0 0 1-.82-1 3 3 0 0 1-.31-1.35h1.94zM240 249.76a1.46 1.46 0 0 0 .65 1.19 2.54 2.54 0 0 0 1.34.34 5 5 0 0 0 .62 0 2.67 2.67 0 0 0 .65-.16 1.22 1.22 0 0 0 .5-.35.83.83 0 0 0 .18-.6.85.85 0 0 0-.27-.61 1.88 1.88 0 0 0-.66-.38 6.32 6.32 0 0 0-.91-.25l-1-.22a9.68 9.68 0 0 1-1-.29 3.35 3.35 0 0 1-.9-.46 2.12 2.12 0 0 1-.64-.74 2.37 2.37 0 0 1-.24-1.11 2 2 0 0 1 .35-1.2 2.68 2.68 0 0 1 .88-.78 3.86 3.86 0 0 1 1.19-.42 7 7 0 0 1 1.25-.12 5.74 5.74 0 0 1 1.3.14 3.55 3.55 0 0 1 1.12.47 2.75 2.75 0 0 1 .83.84 2.9 2.9 0 0 1 .42 1.25h-2a1.2 1.2 0 0 0-.64-.93 2.64 2.64 0 0 0-1.15-.24h-.48a2.27 2.27 0 0 0-.53.13 1.11 1.11 0 0 0-.42.27.65.65 0 0 0-.17.47.74.74 0 0 0 .25.58 2 2 0 0 0 .65.37 6.23 6.23 0 0 0 .91.25l1.05.22q.53.12 1 .29a3.35 3.35 0 0 1 .91.46 2.11 2.11 0 0 1 .89 1.82 2.36 2.36 0 0 1-.36 1.33 2.82 2.82 0 0 1-.93.88 4.21 4.21 0 0 1-1.27.49 6.44 6.44 0 0 1-1.38.15 6 6 0 0 1-1.54-.19 3.57 3.57 0 0 1-1.22-.57 2.75 2.75 0 0 1-.82-1 3 3 0 0 1-.31-1.35h1.9zM262.66 252.58h-1.36l-.3-1.43a5.06 5.06 0 0 1-1.7 1.34 4.82 4.82 0 0 1-2 .37 5.71 5.71 0 0 1-2.44-.5 5.35 5.35 0 0 1-1.83-1.37 6.1 6.1 0 0 1-1.15-2 7.75 7.75 0 0 1 0-4.91 6.11 6.11 0 0 1 1.15-2 5.45 5.45 0 0 1 1.83-1.38 5.64 5.64 0 0 1 2.44-.51 6.6 6.6 0 0 1 1.88.26 5 5 0 0 1 1.59.78 4.33 4.33 0 0 1 1.16 1.3 4.56 4.56 0 0 1 .58 1.8h-2.07a2.6 2.6 0 0 0-1.07-1.8 3.08 3.08 0 0 0-1-.46 4 4 0 0 0-1.11-.15 3.41 3.41 0 0 0-1.67.39 3.3 3.3 0 0 0-1.15 1 4.71 4.71 0 0 0-.65 1.49 6.92 6.92 0 0 0 0 3.4 4.7 4.7 0 0 0 .65 1.49 3.29 3.29 0 0 0 1.15 1 3.4 3.4 0 0 0 1.67.39 4 4 0 0 0 1.45-.21 2.88 2.88 0 0 0 1.06-.66 2.78 2.78 0 0 0 .65-1.06 4.49 4.49 0 0 0 .24-1.39h-3.23v-1.61h5.17v6.39zM271.89 250.63a1 1 0 0 0 .09.51.39.39 0 0 0 .37.15h.2a1.23 1.23 0 0 0 .27 0v1.34l-.26.08-.33.08-.34.05h-.29a1.87 1.87 0 0 1-1-.24 1.18 1.18 0 0 1-.51-.83 3.42 3.42 0 0 1-1.42.82 5.6 5.6 0 0 1-1.62.25 4 4 0 0 1-1.14-.16 3 3 0 0 1-1-.48 2.3 2.3 0 0 1-.66-.8 2.47 2.47 0 0 1-.25-1.13 2.61 2.61 0 0 1 .3-1.33 2.21 2.21 0 0 1 .78-.8 3.54 3.54 0 0 1 1.09-.42q.6-.13 1.21-.2t1-.14a4.6 4.6 0 0 0 .84-.14 1.28 1.28 0 0 0 .58-.31.86.86 0 0 0 .21-.64 1 1 0 0 0-.18-.61 1.2 1.2 0 0 0-.44-.37 1.91 1.91 0 0 0-.59-.17 4.72 4.72 0 0 0-.61 0 2.43 2.43 0 0 0-1.34.34 1.33 1.33 0 0 0-.6 1.05h-1.94a2.91 2.91 0 0 1 .41-1.41 2.81 2.81 0 0 1 .91-.9 3.72 3.72 0 0 1 1.25-.48 7.44 7.44 0 0 1 1.43-.14 6 6 0 0 1 1.27.14 3.62 3.62 0 0 1 1.13.44 2.45 2.45 0 0 1 .81.79 2.17 2.17 0 0 1 .31 1.18v4.52zm-1.89-2.45a2.34 2.34 0 0 1-1.09.35q-.65.06-1.29.18a4.14 4.14 0 0 0-.6.14 1.81 1.81 0 0 0-.51.25 1.11 1.11 0 0 0-.35.42 1.46 1.46 0 0 0-.13.64.81.81 0 0 0 .19.54 1.36 1.36 0 0 0 .45.35 2.09 2.09 0 0 0 .58.18 3.57 3.57 0 0 0 .57.05 3.15 3.15 0 0 0 .7-.08 2.34 2.34 0 0 0 .71-.29 1.85 1.85 0 0 0 .55-.52 1.31 1.31 0 0 0 .22-.77v-1.45zM272.92 243.79h1.46v-2.63h1.94v2.63h1.75v1.45h-1.75v4.69a4.79 4.79 0 0 0 0 .53.9.9 0 0 0 .12.37.56.56 0 0 0 .28.23 1.39 1.39 0 0 0 .51.08h.41a2 2 0 0 0 .41-.06v1.5l-.63.07a5.75 5.75 0 0 1-.63 0 4.27 4.27 0 0 1-1.23-.14 1.64 1.64 0 0 1-.73-.42 1.46 1.46 0 0 1-.36-.71 5.31 5.31 0 0 1-.11-1v-5.18h-1.46v-1.45zM280.81 248.69a3.36 3.36 0 0 0 .14 1 2.4 2.4 0 0 0 .43.83 2.08 2.08 0 0 0 .73.57 2.4 2.4 0 0 0 1.05.21 2.33 2.33 0 0 0 1.37-.37 2.16 2.16 0 0 0 .77-1.1h1.84a3.65 3.65 0 0 1-1.43 2.22 3.92 3.92 0 0 1-1.18.58 4.77 4.77 0 0 1-1.37.2 4.66 4.66 0 0 1-1.84-.34 3.79 3.79 0 0 1-1.35-1 4 4 0 0 1-.83-1.46 5.93 5.93 0 0 1-.28-1.87 5.29 5.29 0 0 1 .3-1.78 4.54 4.54 0 0 1 .85-1.48 4 4 0 0 1 3.1-1.39 3.94 3.94 0 0 1 1.89.49 4.1 4.1 0 0 1 1.37 1.15 4.66 4.66 0 0 1 .79 1.64 5 5 0 0 1 .13 1.91h-6.46zm4.52-1.28a3.13 3.13 0 0 0-.2-.88 2.35 2.35 0 0 0-.44-.74 2.2 2.2 0 0 0-.68-.51 2 2 0 0 0-.89-.2 2.32 2.32 0 0 0-.93.18 2.11 2.11 0 0 0-.71.49 2.45 2.45 0 0 0-.48.74 2.57 2.57 0 0 0-.2.92h4.52zM287.78 243.79h2.06l1.72 6.56 1.65-6.56h2l1.58 6.56 1.79-6.56h2l-2.75 8.79h-2l-1.63-6.53-1.61 6.53h-2zM309 250.63a1 1 0 0 0 .09.51.39.39 0 0 0 .37.15h.2a1.23 1.23 0 0 0 .27 0v1.34l-.26.08-.33.08-.34.05h-.29a1.87 1.87 0 0 1-1-.24 1.18 1.18 0 0 1-.51-.83 3.42 3.42 0 0 1-1.42.82 5.6 5.6 0 0 1-1.62.25 4 4 0 0 1-1.14-.16 3 3 0 0 1-1-.48 2.3 2.3 0 0 1-.66-.8 2.47 2.47 0 0 1-.25-1.13 2.61 2.61 0 0 1 .3-1.33 2.21 2.21 0 0 1 .78-.8 3.54 3.54 0 0 1 1.09-.42q.6-.13 1.21-.2t1-.14a4.6 4.6 0 0 0 .84-.14 1.28 1.28 0 0 0 .58-.31.86.86 0 0 0 .21-.64 1 1 0 0 0-.18-.61 1.2 1.2 0 0 0-.44-.37 1.91 1.91 0 0 0-.59-.17 4.72 4.72 0 0 0-.61 0 2.43 2.43 0 0 0-1.34.34 1.33 1.33 0 0 0-.6 1.05h-1.94a2.91 2.91 0 0 1 .41-1.41 2.81 2.81 0 0 1 .91-.9 3.72 3.72 0 0 1 1.25-.48 7.44 7.44 0 0 1 1.43-.14 6 6 0 0 1 1.27.14 3.62 3.62 0 0 1 1.13.44 2.45 2.45 0 0 1 .81.79 2.17 2.17 0 0 1 .31 1.18v4.52zm-1.94-2.45a2.34 2.34 0 0 1-1.09.35q-.65.06-1.29.18a4.14 4.14 0 0 0-.6.14 1.81 1.81 0 0 0-.51.25 1.11 1.11 0 0 0-.35.42 1.46 1.46 0 0 0-.13.64.81.81 0 0 0 .19.54 1.36 1.36 0 0 0 .45.35 2.09 2.09 0 0 0 .58.18 3.57 3.57 0 0 0 .57.05 3.15 3.15 0 0 0 .7-.08 2.34 2.34 0 0 0 .71-.29 1.85 1.85 0 0 0 .55-.52 1.31 1.31 0 0 0 .22-.77v-1.45zM310 243.79h2.13l2.29 6.56 2.23-6.56h2l-3.42 9.26c-.16.4-.31.78-.47 1.14a4.06 4.06 0 0 1-.56 1 2.41 2.41 0 0 1-.82.66 2.82 2.82 0 0 1-1.26.25 8.78 8.78 0 0 1-1.34-.1v-1.63l.46.08a2.43 2.43 0 0 0 .46 0 1.58 1.58 0 0 0 .56-.08.93.93 0 0 0 .37-.25 1.54 1.54 0 0 0 .25-.38 3.7 3.7 0 0 0 .19-.51l.22-.68z"/></g></g><g class="homemarch-8"><g class="homemarch-8"><path class="homemarch-9" d="M454.62 138.18h1.67l3.46 9h-1.68l-.84-2.38h-3.58l-.84 2.38h-1.62zm-.55 5.4h2.74l-1.34-3.86zM460.23 138.18h4a3.76 3.76 0 0 1 1.56.28 2.46 2.46 0 0 1 .93.69 2.35 2.35 0 0 1 .45.91 3.81 3.81 0 0 1 .12.9 3.75 3.75 0 0 1-.12.9 2.36 2.36 0 0 1-.45.9 2.4 2.4 0 0 1-.93.68 3.83 3.83 0 0 1-1.56.27h-2.39v3.44h-1.57v-9zm1.57 4.25h2.3a2 2 0 0 0 .54-.08 1.53 1.53 0 0 0 .51-.25 1.25 1.25 0 0 0 .38-.45 1.55 1.55 0 0 0 .14-.71 1.85 1.85 0 0 0-.12-.73 1.17 1.17 0 0 0-.34-.46 1.21 1.21 0 0 0-.49-.23 2.65 2.65 0 0 0-.59-.06h-2.33v3zM468.25 138.18h1.57v9h-1.57v-9z"/></g><g class="homemarch-8"><path class="homemarch-9" d="M436.94 153h6.46v1.36h-4.89v2.35H443V158h-4.53v2.63h5v1.36h-6.55v-9zM444.3 155.44h1.36v1a2.41 2.41 0 0 1 .85-.85 2.28 2.28 0 0 1 1.17-.31 2.43 2.43 0 0 1 1.68.55 2.12 2.12 0 0 1 .62 1.66v4.46h-1.43v-4.08a1.76 1.76 0 0 0-.33-1.11 1.19 1.19 0 0 0-.94-.35 1.56 1.56 0 0 0-.65.13 1.41 1.41 0 0 0-.49.36 1.72 1.72 0 0 0-.31.55 2 2 0 0 0-.11.67v3.83h-1.42v-6.5zM457.27 161.94h-1.36v-.88a1.71 1.71 0 0 1-.84.81 2.85 2.85 0 0 1-1.17.25 3.1 3.1 0 0 1-1.34-.27 2.66 2.66 0 0 1-.95-.74A3.13 3.13 0 0 1 451 160a4.79 4.79 0 0 1-.19-1.36 4.36 4.36 0 0 1 .24-1.52 3.05 3.05 0 0 1 .63-1.06 2.45 2.45 0 0 1 .91-.61 2.88 2.88 0 0 1 1-.2 3.43 3.43 0 0 1 .62.06 2.68 2.68 0 0 1 .6.18 2.39 2.39 0 0 1 .54.32 1.78 1.78 0 0 1 .41.46V153h1.43v9zm-5-3.18a3.16 3.16 0 0 0 .11.82 2.23 2.23 0 0 0 .33.72 1.66 1.66 0 0 0 .56.5 1.64 1.64 0 0 0 .81.19 1.61 1.61 0 0 0 .82-.2 1.71 1.71 0 0 0 .57-.53 2.37 2.37 0 0 0 .33-.74 3.33 3.33 0 0 0 .11-.84 2.63 2.63 0 0 0-.48-1.68 1.6 1.6 0 0 0-1.31-.6 1.62 1.62 0 0 0-.85.21 1.75 1.75 0 0 0-.57.54 2.27 2.27 0 0 0-.31.75 3.94 3.94 0 0 0-.12.86zM458.5 155.44h1.36v.88a1.77 1.77 0 0 1 .84-.81 2.8 2.8 0 0 1 1.17-.25 3.09 3.09 0 0 1 1.34.27 2.66 2.66 0 0 1 .95.74 3.24 3.24 0 0 1 .57 1.1 4.65 4.65 0 0 1 .19 1.34 4.75 4.75 0 0 1-.17 1.27 3.29 3.29 0 0 1-.51 1.09 2.51 2.51 0 0 1-2.12 1 3.51 3.51 0 0 1-.63-.06 2.74 2.74 0 0 1-.6-.18 2.38 2.38 0 0 1-.53-.32 1.77 1.77 0 0 1-.41-.46v3.24h-1.45v-8.9zm5 3.26a3.24 3.24 0 0 0-.11-.85 2.31 2.31 0 0 0-.34-.74 1.74 1.74 0 0 0-.57-.52 1.54 1.54 0 0 0-.78-.19 1.58 1.58 0 0 0-1.36.63 2.77 2.77 0 0 0-.46 1.67 3.31 3.31 0 0 0 .12.91 2.06 2.06 0 0 0 .36.72 1.8 1.8 0 0 0 .57.48 1.63 1.63 0 0 0 .77.18 1.61 1.61 0 0 0 .83-.2 1.78 1.78 0 0 0 .56-.52 2.11 2.11 0 0 0 .31-.73 3.67 3.67 0 0 0 .11-.84zM468.76 162.12a3.54 3.54 0 0 1-1.39-.26 2.94 2.94 0 0 1-1-.71 3 3 0 0 1-.64-1.08 4.4 4.4 0 0 1 0-2.75 3 3 0 0 1 .64-1.08 3 3 0 0 1 1-.71 3.87 3.87 0 0 1 2.78 0 3 3 0 0 1 1 .71 3 3 0 0 1 .64 1.08 4.42 4.42 0 0 1 0 2.75 3 3 0 0 1-.64 1.08 3 3 0 0 1-1 .71 3.54 3.54 0 0 1-1.39.26zm0-1.13a1.64 1.64 0 0 0 .83-.2 1.75 1.75 0 0 0 .58-.53 2.31 2.31 0 0 0 .33-.74 3.31 3.31 0 0 0 0-1.67 2.24 2.24 0 0 0-.33-.74 1.77 1.77 0 0 0-.58-.52 1.81 1.81 0 0 0-1.66 0 1.78 1.78 0 0 0-.58.52 2.24 2.24 0 0 0-.33.74 3.31 3.31 0 0 0 0 1.67 2.31 2.31 0 0 0 .33.74 1.75 1.75 0 0 0 .58.53 1.65 1.65 0 0 0 .83.21zM472.91 153h1.43v1.36h-1.43V153zm0 2.48h1.43v6.5h-1.43v-6.5zM475.53 155.44h1.36v1a2.41 2.41 0 0 1 .85-.85 2.28 2.28 0 0 1 1.17-.31 2.43 2.43 0 0 1 1.68.55 2.12 2.12 0 0 1 .62 1.66v4.46h-1.43v-4.08a1.77 1.77 0 0 0-.33-1.11 1.19 1.19 0 0 0-.94-.35 1.56 1.56 0 0 0-.65.13 1.41 1.41 0 0 0-.49.36 1.72 1.72 0 0 0-.31.55 1.94 1.94 0 0 0-.11.67v3.83h-1.43v-6.5zM481.73 155.44h1.08v-1.95h1.43v1.95h1.29v1.07h-1.29V160a3.41 3.41 0 0 0 0 .39.65.65 0 0 0 .09.28.42.42 0 0 0 .21.17 1 1 0 0 0 .38.06h.3a1.46 1.46 0 0 0 .3 0v1.11l-.46.05h-.46a3.17 3.17 0 0 1-.91-.11 1.21 1.21 0 0 1-.54-.31 1.08 1.08 0 0 1-.26-.52 3.8 3.8 0 0 1-.08-.72v-3.83h-1.08v-1.07z"/></g><g class="homemarch-8"><path class="homemarch-9" d="M442.95 179.12q-.38-.6-.71-1.24a10 10 0 0 1-.58-1.35 9.68 9.68 0 0 1-.38-1.5 10 10 0 0 1 .33-4.69 11.58 11.58 0 0 1 1.34-2.8h1.17a12.72 12.72 0 0 0-1.15 2.78 11.18 11.18 0 0 0-.4 3 11.83 11.83 0 0 0 .38 3 11 11 0 0 0 1.17 2.78h-1.17zM444.6 167.75h4a3.76 3.76 0 0 1 1.56.28 2.47 2.47 0 0 1 .93.69 2.35 2.35 0 0 1 .45.91 3.86 3.86 0 0 1 .12.9 3.8 3.8 0 0 1-.12.9 2.36 2.36 0 0 1-.45.9 2.41 2.41 0 0 1-.93.68 3.83 3.83 0 0 1-1.56.27h-2.39v3.44h-1.61v-9zm1.57 4.25h2.3a2 2 0 0 0 .54-.08 1.54 1.54 0 0 0 .51-.25 1.27 1.27 0 0 0 .38-.45 1.56 1.56 0 0 0 .14-.71 1.83 1.83 0 0 0-.13-.73 1.18 1.18 0 0 0-.34-.46 1.21 1.21 0 0 0-.49-.23 2.66 2.66 0 0 0-.59-.06h-2.33v3zM458.13 176.72h-1.41v-.91a2 2 0 0 1-.79.79 2.14 2.14 0 0 1-1.06.29 2.39 2.39 0 0 1-1.85-.63 2.79 2.79 0 0 1-.57-1.92v-4.12h1.43v4a1.76 1.76 0 0 0 .33 1.21 1.19 1.19 0 0 0 .92.35 1.8 1.8 0 0 0 .75-.14 1.34 1.34 0 0 0 .49-.37 1.43 1.43 0 0 0 .27-.56 2.89 2.89 0 0 0 .08-.7v-3.77h1.43v6.5zM459.31 167.75h1.43v3.32a2 2 0 0 1 .36-.43 2.27 2.27 0 0 1 .47-.32 2.46 2.46 0 0 1 .54-.2 2.37 2.37 0 0 1 .56-.07 3.09 3.09 0 0 1 1.34.27 2.66 2.66 0 0 1 .95.74 3.24 3.24 0 0 1 .57 1.1 4.65 4.65 0 0 1 .19 1.34 4.75 4.75 0 0 1-.17 1.27 3.29 3.29 0 0 1-.51 1.09 2.51 2.51 0 0 1-2.12 1 5 5 0 0 1-.66 0 2.49 2.49 0 0 1-.63-.17 2.15 2.15 0 0 1-.55-.33 1.59 1.59 0 0 1-.41-.53v.89h-1.36v-9zm5 5.73a3.24 3.24 0 0 0-.11-.85 2.31 2.31 0 0 0-.34-.74 1.74 1.74 0 0 0-.57-.52 1.54 1.54 0 0 0-.78-.19 1.58 1.58 0 0 0-1.36.63 2.77 2.77 0 0 0-.46 1.67 3.31 3.31 0 0 0 .12.91 2.06 2.06 0 0 0 .36.72 1.8 1.8 0 0 0 .57.48 1.63 1.63 0 0 0 .77.18 1.61 1.61 0 0 0 .83-.2 1.78 1.78 0 0 0 .56-.52 2.11 2.11 0 0 0 .31-.73 3.67 3.67 0 0 0 .1-.84zM466.63 167.75h1.43v9h-1.43v-9zM469.29 167.75h1.43v1.36h-1.43v-1.36zm0 2.48h1.43v6.5h-1.43v-6.5zM476.31 172.4a1.35 1.35 0 0 0-.48-.91 1.58 1.58 0 0 0-1-.31 2.07 2.07 0 0 0-.59.09 1.39 1.39 0 0 0-.58.35 2 2 0 0 0-.44.72 3.42 3.42 0 0 0-.18 1.2 3.53 3.53 0 0 0 .09.8 2.22 2.22 0 0 0 .3.72 1.63 1.63 0 0 0 .53.51 1.52 1.52 0 0 0 .79.2 1.44 1.44 0 0 0 1-.39 1.81 1.81 0 0 0 .51-1.09h1.43a3.15 3.15 0 0 1-1 1.94 2.93 2.93 0 0 1-2 .67 3.32 3.32 0 0 1-1.35-.26 2.86 2.86 0 0 1-1-.7 3 3 0 0 1-.61-1.06 4.14 4.14 0 0 1-.21-1.33 4.57 4.57 0 0 1 .2-1.37 3.17 3.17 0 0 1 .6-1.11 2.84 2.84 0 0 1 1-.74 3.36 3.36 0 0 1 1.4-.27 3.94 3.94 0 0 1 1.07.14 2.84 2.84 0 0 1 .91.43 2.33 2.33 0 0 1 .65.73 2.5 2.5 0 0 1 .3 1h-1.43z"/><path class="homemarch-9" d="M478.86 167.53q.38.6.7 1.25a11 11 0 0 1 .57 1.36 10.3 10.3 0 0 1 .39 1.5 9.51 9.51 0 0 1 .14 1.7 9.74 9.74 0 0 1-.47 3 11.4 11.4 0 0 1-1.34 2.79h-1.17a12.5 12.5 0 0 0 1.15-2.77 11.22 11.22 0 0 0 .4-3 11.79 11.79 0 0 0-.38-3 11.14 11.14 0 0 0-1.17-2.79h1.17z"/></g></g><rect class="homemarch-10" x="465.75" y="107.87" width="16.92" height="9.99" rx="4.53" ry="4.53"/><rect class="homemarch-12" x="463.24" y="105.66" width="19.43" height="12.34" rx=".92" ry=".92"/><path class="homemarch-9" d="M466.51 114.14a.31.31 0 0 1-.18-.31 1.63 1.63 0 0 0 0-.22v-.56a.17.17 0 0 1 0-.09v-.85a9 9 0 0 1 0-.92.75.75 0 0 1 0-.2 1.63 1.63 0 0 1 0-.2v-.12a.44.44 0 0 1 0-.18.76.76 0 0 1 0-.15.43.43 0 0 1 .52-.15.35.35 0 0 1 .16.37v.58a2.75 2.75 0 0 1 0 .37.67.67 0 0 0 0 .16.91.91 0 0 1 0 .21v.23a.67.67 0 0 0 0 .13v.06c0 .24.2.55.34.38a.08.08 0 0 1 0-.07l.21-.24.08-.08.15-.18.06-.06a.51.51 0 0 1 .65.06 1.06 1.06 0 0 0 .24.23c.12.11.07.08.09.11a1 1 0 0 0 .14.17c.21.17.43-.17.46-.41v-1.46a.87.87 0 0 1 0-.38c0-.2.37-.29.55-.23a.34.34 0 0 1 .17.27v1.3a1.4 1.4 0 0 1 0 .49v.15a.37.37 0 0 0 0 .09v.69a.47.47 0 0 1 0 .18v.46a.5.5 0 0 1-.11.33.45.45 0 0 1-.63-.1 1.57 1.57 0 0 1-.16-.24v-.07a1.82 1.82 0 0 0-.28-.24 1 1 0 0 0-.68-.32.87.87 0 0 0-.66.34 2.2 2.2 0 0 1-.24.24 1.8 1.8 0 0 0-.31.33.46.46 0 0 1-.6.19zM471.43 114.14a.31.31 0 0 1-.18-.31 1.63 1.63 0 0 0 0-.22v-.56a.17.17 0 0 1 0-.09v-.85a9 9 0 0 1 0-.92.75.75 0 0 1 0-.2 1.63 1.63 0 0 1 0-.2v-.12a.44.44 0 0 1 0-.18.76.76 0 0 1 0-.15.43.43 0 0 1 .52-.15.35.35 0 0 1 .16.37v.58a2.75 2.75 0 0 1 0 .37.67.67 0 0 0 0 .16.91.91 0 0 1 0 .21v.23a.67.67 0 0 0 0 .13v.06c0 .24.2.55.34.38a.08.08 0 0 1 0-.07l.21-.24.08-.08.15-.18.06-.06a.51.51 0 0 1 .65.06 1.06 1.06 0 0 0 .24.23c.12.11.07.08.09.11a1 1 0 0 0 .14.17c.21.17.43-.17.46-.41v-1.46a.87.87 0 0 1 0-.38c0-.2.37-.29.55-.23a.34.34 0 0 1 .17.27v1.3a1.4 1.4 0 0 1 0 .49v.15a.37.37 0 0 0 0 .09v.69a.47.47 0 0 1 0 .18v.46a.5.5 0 0 1-.11.33.45.45 0 0 1-.63-.1 1.57 1.57 0 0 1-.16-.24v-.07a1.82 1.82 0 0 0-.28-.24 1 1 0 0 0-.68-.32.87.87 0 0 0-.66.34 2.2 2.2 0 0 1-.24.24 1.8 1.8 0 0 0-.31.33.46.46 0 0 1-.6.19zM476.36 114.14a.31.31 0 0 1-.18-.31 1.63 1.63 0 0 0 0-.22v-.56a.17.17 0 0 1 0-.09v-.85a9 9 0 0 1 0-.92.75.75 0 0 1 0-.2 1.63 1.63 0 0 1 0-.2v-.12a.44.44 0 0 1 0-.18.76.76 0 0 1 0-.15.43.43 0 0 1 .52-.15.35.35 0 0 1 .16.37v.58a2.75 2.75 0 0 1 0 .37.67.67 0 0 0 0 .16.91.91 0 0 1 0 .21v.23a.67.67 0 0 0 0 .13v.06c0 .24.2.55.34.38a.08.08 0 0 1 0-.07l.21-.24.08-.08.15-.18.06-.06a.51.51 0 0 1 .65.06 1.06 1.06 0 0 0 .24.23c.12.11.07.08.09.11a1 1 0 0 0 .14.17c.21.17.43-.17.46-.41v-1.46a.87.87 0 0 1 0-.38c0-.2.37-.29.55-.23a.34.34 0 0 1 .17.27v1.3a1.4 1.4 0 0 1 0 .49v.15a.37.37 0 0 0 0 .09v.69a.47.47 0 0 1 0 .18v.46a.5.5 0 0 1-.11.33.45.45 0 0 1-.63-.1 1.57 1.57 0 0 1-.16-.24v-.07a1.82 1.82 0 0 0-.28-.24 1 1 0 0 0-.68-.32.87.87 0 0 0-.66.34 2.2 2.2 0 0 1-.24.24 1.8 1.8 0 0 0-.31.33.46.46 0 0 1-.6.19z"/><rect class="homemarch-10" x="442.56" y="104.66" width="16.92" height="9.99" rx="4.53" ry="4.53"/><rect class="homemarch-12" x="440.05" y="102.45" width="19.43" height="12.34" rx=".92" ry=".92"/><path class="homemarch-9" d="M443.32 110.89a.31.31 0 0 1-.18-.31 1.63 1.63 0 0 0 0-.22v-.56a.17.17 0 0 1 0-.09v-.85a9 9 0 0 1 0-.92.75.75 0 0 1 0-.2 1.63 1.63 0 0 1 0-.2v-.12a.44.44 0 0 1 0-.18.77.77 0 0 1 0-.15.43.43 0 0 1 .52-.15.35.35 0 0 1 .16.37v.58a2.75 2.75 0 0 1 0 .37.67.67 0 0 0 0 .16.91.91 0 0 1 0 .21v.23a.67.67 0 0 0 0 .13v.01c0 .24.2.55.34.38a.08.08 0 0 1 0-.07l.21-.24.08-.08.15-.18.06-.06a.51.51 0 0 1 .65.06 1.06 1.06 0 0 0 .24.23c.12.11.07.08.09.11a1 1 0 0 0 .14.17c.21.17.43-.17.46-.41v-1.41a.87.87 0 0 1 0-.38c0-.2.37-.29.55-.23a.34.34 0 0 1 .17.27v1.3a1.4 1.4 0 0 1 0 .49v.15a.37.37 0 0 0 0 .09v.69a.47.47 0 0 1 0 .18v.46a.5.5 0 0 1-.11.33.45.45 0 0 1-.63-.1 1.57 1.57 0 0 1-.16-.24v-.07a1.82 1.82 0 0 0-.28-.24 1 1 0 0 0-.68-.32.87.87 0 0 0-.66.34 2.2 2.2 0 0 1-.24.24 1.8 1.8 0 0 0-.31.33.46.46 0 0 1-.6.19zM448.24 110.89a.31.31 0 0 1-.18-.31 1.63 1.63 0 0 0 0-.22v-.56a.17.17 0 0 1 0-.09v-.85a9 9 0 0 1 0-.92.75.75 0 0 1 0-.2 1.63 1.63 0 0 1 0-.2v-.12a.44.44 0 0 1 0-.18.77.77 0 0 1 0-.15.43.43 0 0 1 .52-.15.35.35 0 0 1 .16.37v.58a2.75 2.75 0 0 1 0 .37.67.67 0 0 0 0 .16.91.91 0 0 1 0 .21v.23a.67.67 0 0 0 0 .13v.01c0 .24.2.55.34.38a.08.08 0 0 1 0-.07l.21-.24.08-.08.15-.18.06-.06a.51.51 0 0 1 .65.06 1.06 1.06 0 0 0 .24.23c.12.11.07.08.09.11a1 1 0 0 0 .14.17c.21.17.43-.17.46-.41v-1.41a.87.87 0 0 1 0-.38c0-.2.37-.29.55-.23a.34.34 0 0 1 .17.27v1.3a1.4 1.4 0 0 1 0 .49v.15a.37.37 0 0 0 0 .09v.69a.47.47 0 0 1 0 .18v.46a.5.5 0 0 1-.11.33.45.45 0 0 1-.63-.1 1.57 1.57 0 0 1-.16-.24v-.07a1.82 1.82 0 0 0-.28-.24 1 1 0 0 0-.68-.32.87.87 0 0 0-.66.34 2.2 2.2 0 0 1-.24.24 1.8 1.8 0 0 0-.31.33.46.46 0 0 1-.6.19zM453.17 110.89a.31.31 0 0 1-.18-.31 1.63 1.63 0 0 0 0-.22v-.56a.17.17 0 0 1 0-.09v-.85a9 9 0 0 1 0-.92.75.75 0 0 1 0-.2 1.63 1.63 0 0 1 0-.2v-.12a.44.44 0 0 1 0-.18.77.77 0 0 1 0-.15.43.43 0 0 1 .52-.15.35.35 0 0 1 .16.37v.58a2.75 2.75 0 0 1 0 .37.67.67 0 0 0 0 .16.91.91 0 0 1 0 .21v.23a.67.67 0 0 0 0 .13v.01c0 .24.2.55.34.38a.08.08 0 0 1 0-.07l.21-.24.08-.08.15-.18.06-.06a.51.51 0 0 1 .65.06 1.06 1.06 0 0 0 .24.23c.12.11.07.08.09.11a1 1 0 0 0 .14.17c.21.17.43-.17.46-.41v-1.41a.87.87 0 0 1 0-.38c0-.2.37-.29.55-.23a.34.34 0 0 1 .17.27v1.3a1.4 1.4 0 0 1 0 .49v.15a.37.37 0 0 0 0 .09v.69a.47.47 0 0 1 0 .18v.46a.5.5 0 0 1-.11.33.45.45 0 0 1-.63-.1 1.57 1.57 0 0 1-.16-.24v-.07a1.82 1.82 0 0 0-.28-.24 1 1 0 0 0-.68-.32.87.87 0 0 0-.66.34 2.2 2.2 0 0 1-.24.24 1.8 1.8 0 0 0-.31.33.46.46 0 0 1-.6.19z"/><rect class="homemarch-2" x="448.14" y="111.63" width="26.06" height="18.25" rx="8.05" ry="8.05"/><rect class="homemarch-1" x="448.14" y="111.63" width="26.06" height="18.25" rx="8.05" ry="8.05"/><rect class="homemarch-10" x="453.66" y="116.74" width="16.92" height="9.99" rx="4.53" ry="4.53"/><rect class="homemarch-12" x="451.15" y="114.53" width="19.43" height="12.34" rx=".92" ry=".92"/><path class="homemarch-9" d="M454.42 123a.31.31 0 0 1-.18-.31 1.63 1.63 0 0 0 0-.22v-.59a.17.17 0 0 1 0-.09v-.91a9 9 0 0 1 0-.92.75.75 0 0 1 0-.2 1.63 1.63 0 0 1 0-.2v-.12a.44.44 0 0 1 0-.18.77.77 0 0 1 0-.15.43.43 0 0 1 .52-.15.35.35 0 0 1 .16.37v.55a2.75 2.75 0 0 1 0 .37.67.67 0 0 0 0 .16.91.91 0 0 1 0 .21v.26a.67.67 0 0 0 0 .13v.06c0 .24.2.55.34.38a.08.08 0 0 1 0-.07l.21-.24.08-.08.26-.18.06-.06a.51.51 0 0 1 .65.06 1.06 1.06 0 0 0 .24.23c.12.11.07.08.09.11a1 1 0 0 0 .14.17c.21.17.43-.17.46-.41v-1.46a.87.87 0 0 1 0-.38c0-.2.37-.29.55-.23a.34.34 0 0 1 .17.27v1.3a1.4 1.4 0 0 1 0 .49v.15a.37.37 0 0 0 0 .09v.69a.47.47 0 0 1 0 .18v.46a.5.5 0 0 1-.11.33.45.45 0 0 1-.63-.1 1.57 1.57 0 0 1-.16-.24v-.07a1.82 1.82 0 0 0-.28-.24 1 1 0 0 0-.68-.32.87.87 0 0 0-.66.34 2.2 2.2 0 0 1-.24.24 1.8 1.8 0 0 0-.31.33.46.46 0 0 1-.6.19zM459.35 123a.31.31 0 0 1-.18-.31 1.63 1.63 0 0 0 0-.22v-.59a.17.17 0 0 1 0-.09v-.91a9 9 0 0 1 0-.92.75.75 0 0 1 0-.2 1.63 1.63 0 0 1 0-.2v-.12a.44.44 0 0 1 0-.18.77.77 0 0 1 0-.15.43.43 0 0 1 .52-.15.35.35 0 0 1 .16.37v.55a2.75 2.75 0 0 1 0 .37.67.67 0 0 0 0 .16.91.91 0 0 1 0 .21v.26a.67.67 0 0 0 0 .13v.06c0 .24.2.55.34.38a.08.08 0 0 1 0-.07l.21-.24.08-.08.15-.18h.18a.51.51 0 0 1 .65.06 1.06 1.06 0 0 0 .24.23c.12.11.07.08.09.11a1 1 0 0 0 .14.17c.21.17.43-.17.46-.41v-1.46a.87.87 0 0 1 0-.38c0-.2.37-.29.55-.23a.34.34 0 0 1 .17.27v1.3a1.4 1.4 0 0 1 0 .49v.15a.37.37 0 0 0 0 .09v.73a.47.47 0 0 1 0 .18v.46a.5.5 0 0 1-.11.33.45.45 0 0 1-.63-.1 1.57 1.57 0 0 1-.16-.24v-.07a1.82 1.82 0 0 0-.28-.24 1 1 0 0 0-.68-.32.87.87 0 0 0-.66.34 2.2 2.2 0 0 1-.24.24 1.8 1.8 0 0 0-.31.33.46.46 0 0 1-.6.19h-.06zM464.27 123a.31.31 0 0 1-.18-.31 1.63 1.63 0 0 0 0-.22v-.59a.17.17 0 0 1 0-.09v-.91a9 9 0 0 1 0-.92.75.75 0 0 1 0-.2 1.63 1.63 0 0 1 0-.2v-.12a.44.44 0 0 1 0-.18.77.77 0 0 1 0-.15.43.43 0 0 1 .52-.15.35.35 0 0 1 .16.37v.55a2.75 2.75 0 0 1 0 .37.67.67 0 0 0 0 .16.91.91 0 0 1 0 .21v.26a.67.67 0 0 0 0 .13v.06c0 .24.2.55.34.38a.08.08 0 0 1 0-.07l.21-.24.08-.08.15-.18.06-.06a.51.51 0 0 1 .65.06 1.06 1.06 0 0 0 .24.23c.12.11.07.08.09.11a1 1 0 0 0 .14.17c.21.17.43-.17.46-.41v-1.46a.87.87 0 0 1 0-.38c0-.2.37-.29.55-.23a.34.34 0 0 1 .17.27v1.3a1.4 1.4 0 0 1 0 .49v.15a.37.37 0 0 0 0 .09v.69a.47.47 0 0 1 0 .18v.46a.5.5 0 0 1-.11.33.45.45 0 0 1-.63-.1 1.57 1.57 0 0 1-.16-.24v-.07a1.82 1.82 0 0 0-.28-.24 1 1 0 0 0-.68-.32.87.87 0 0 0-.66.34 2.2 2.2 0 0 1-.24.24 1.8 1.8 0 0 0-.31.33.46.46 0 0 1-.6.19z"/><g class="homemarch-8"><g class="homemarch-8"><path class="homemarch-7" d="M176 127.6v1h-5.17v3h4.82v1h-4.82v3.21h5.21v1h-6.45v-9.21H176zM176.45 130.16h1.42l1.61 2.35 1.68-2.35h1.33l-2.31 3.09 2.6 3.63h-1.42l-1.87-2.78-1.87 2.78h-1.34l2.52-3.54zM184.47 130.16v.91a1.65 1.65 0 0 1 .86-.81 3.19 3.19 0 0 1 1.29-.25 3 3 0 0 1 1.36.29 2.77 2.77 0 0 1 1 .77 3.47 3.47 0 0 1 .58 1.12 4.64 4.64 0 0 1 .2 1.35 4.76 4.76 0 0 1-.19 1.35A3.16 3.16 0 0 1 189 136a2.69 2.69 0 0 1-1 .75 3.13 3.13 0 0 1-1.35.27 3.25 3.25 0 0 1-.55-.05 3 3 0 0 1-.6-.17 2.34 2.34 0 0 1-.57-.32 1.77 1.77 0 0 1-.45-.5v3.46h-1.1v-9.28h1.1zm4 2.38a2.44 2.44 0 0 0-.38-.8 1.84 1.84 0 0 0-.65-.56 2 2 0 0 0-.93-.21 1.83 1.83 0 0 0-1.59.8 2.42 2.42 0 0 0-.36.81 3.94 3.94 0 0 0 0 1.88 2.36 2.36 0 0 0 .37.81 1.91 1.91 0 0 0 .66.57 2.05 2.05 0 0 0 1 .21 1.89 1.89 0 0 0 1-.22 1.77 1.77 0 0 0 .62-.58 2.51 2.51 0 0 0 .34-.83 4.36 4.36 0 0 0 .11-1 3.46 3.46 0 0 0-.22-.88z"/></g><g class="homemarch-8"><path class="homemarch-7" d="M191.84 130.16v1.42a3 3 0 0 1 1-1.21 2.48 2.48 0 0 1 1.48-.36v1.17a3.13 3.13 0 0 0-1.13.18 1.8 1.8 0 0 0-.75.53 2.22 2.22 0 0 0-.42.85 4.61 4.61 0 0 0-.13 1.15v3h-1.1v-6.72h1z"/></g><g class="homemarch-8"><path class="homemarch-7" d="M199.37 136.45a3.05 3.05 0 0 1-1.9.57 3.44 3.44 0 0 1-1.4-.26 2.75 2.75 0 0 1-1-.73 3.1 3.1 0 0 1-.6-1.12 5.4 5.4 0 0 1-.23-1.42 4 4 0 0 1 .23-1.4 3.34 3.34 0 0 1 .66-1.1 3 3 0 0 1 1-.73 3.06 3.06 0 0 1 1.27-.26 2.76 2.76 0 0 1 1.49.37 3 3 0 0 1 .95.94 3.74 3.74 0 0 1 .49 1.25 5.38 5.38 0 0 1 .11 1.29h-5a2.66 2.66 0 0 0 .1.84 1.89 1.89 0 0 0 .38.7 1.86 1.86 0 0 0 .66.49 2.29 2.29 0 0 0 .95.18 1.92 1.92 0 0 0 1.15-.32 1.57 1.57 0 0 0 .59-1h1.09a2.69 2.69 0 0 1-.99 1.71zm-.27-4.32a1.88 1.88 0 0 0-1.76-1.16 1.94 1.94 0 0 0-.77.15 1.79 1.79 0 0 0-.59.41 2 2 0 0 0-.39.6 2.28 2.28 0 0 0-.17.73h3.86a2.29 2.29 0 0 0-.18-.72zM202 135.38a1.17 1.17 0 0 0 .41.4 1.85 1.85 0 0 0 .57.21 3.29 3.29 0 0 0 .66.06 4 4 0 0 0 .55 0 2 2 0 0 0 .53-.14 1 1 0 0 0 .4-.31.81.81 0 0 0 .16-.51.74.74 0 0 0-.32-.65 2.76 2.76 0 0 0-.81-.36q-.49-.14-1.06-.25a5.49 5.49 0 0 1-1.06-.31 2.18 2.18 0 0 1-.81-.57 1.47 1.47 0 0 1-.33-1 1.61 1.61 0 0 1 .23-.87 1.87 1.87 0 0 1 .58-.59 2.71 2.71 0 0 1 .81-.34 3.73 3.73 0 0 1 .89-.11 5.28 5.28 0 0 1 1.05.1 2.43 2.43 0 0 1 .85.34 1.75 1.75 0 0 1 .59.65 2.46 2.46 0 0 1 .26 1h-1.1a1.06 1.06 0 0 0-.53-.88 1.68 1.68 0 0 0-.49-.19 2.51 2.51 0 0 0-.54-.06 3.37 3.37 0 0 0-.5 0 1.72 1.72 0 0 0-.46.14.93.93 0 0 0-.34.26.66.66 0 0 0-.13.42.62.62 0 0 0 .2.47 1.6 1.6 0 0 0 .51.31 4.36 4.36 0 0 0 .7.21l.78.18c.28.06.55.13.81.22a2.68 2.68 0 0 1 .7.34 1.69 1.69 0 0 1 .49.54 1.58 1.58 0 0 1 .19.81 1.87 1.87 0 0 1-.25 1 2 2 0 0 1-.66.65 2.77 2.77 0 0 1-.92.34 5.51 5.51 0 0 1-1 .1 4.78 4.78 0 0 1-1.07-.12 2.62 2.62 0 0 1-.9-.38 2 2 0 0 1-.62-.7 2.43 2.43 0 0 1-.26-1.06h1.1a1.25 1.25 0 0 0 .14.65zM208.16 135.38a1.17 1.17 0 0 0 .41.4 1.85 1.85 0 0 0 .57.21 3.29 3.29 0 0 0 .66.06 4 4 0 0 0 .55 0 2 2 0 0 0 .53-.14 1 1 0 0 0 .4-.31.81.81 0 0 0 .16-.51.74.74 0 0 0-.32-.65 2.77 2.77 0 0 0-.81-.36q-.49-.14-1.06-.25a5.49 5.49 0 0 1-1.06-.31 2.18 2.18 0 0 1-.81-.57 1.47 1.47 0 0 1-.33-1 1.61 1.61 0 0 1 .23-.87 1.87 1.87 0 0 1 .58-.59 2.71 2.71 0 0 1 .81-.34 3.73 3.73 0 0 1 .89-.11 5.28 5.28 0 0 1 1.05.1 2.43 2.43 0 0 1 .85.34 1.76 1.76 0 0 1 .59.65 2.47 2.47 0 0 1 .26 1h-1.11a1.13 1.13 0 0 0-.17-.54 1.11 1.11 0 0 0-.36-.34 1.68 1.68 0 0 0-.49-.19 2.51 2.51 0 0 0-.54-.06 3.37 3.37 0 0 0-.5 0 1.72 1.72 0 0 0-.46.14.93.93 0 0 0-.34.26.66.66 0 0 0-.13.42.62.62 0 0 0 .2.47 1.6 1.6 0 0 0 .51.31 4.36 4.36 0 0 0 .7.21l.78.18a8.41 8.41 0 0 1 .81.22 2.69 2.69 0 0 1 .7.34 1.71 1.71 0 0 1 .49.54 1.59 1.59 0 0 1 .19.81 1.86 1.86 0 0 1-.25 1 2 2 0 0 1-.66.65 2.78 2.78 0 0 1-.92.34 5.51 5.51 0 0 1-1 .1 4.78 4.78 0 0 1-1.07-.12 2.62 2.62 0 0 1-.9-.38 2 2 0 0 1-.62-.7 2.43 2.43 0 0 1-.26-1.06H208a1.25 1.25 0 0 0 .16.65zM221.2 127.6a3.05 3.05 0 0 1 2.07.65A2.24 2.24 0 0 1 224 130a2.81 2.81 0 0 1-.38 1.48 2 2 0 0 1-1.23.87 1.65 1.65 0 0 1 .66.26 1.42 1.42 0 0 1 .4.44 2 2 0 0 1 .22.57 6 6 0 0 1 .11.65v.69a5.7 5.7 0 0 0 .06.69 4.27 4.27 0 0 0 .15.64 1.6 1.6 0 0 0 .29.54H223a.78.78 0 0 1-.18-.39 4 4 0 0 1-.06-.55v-.66a4.47 4.47 0 0 0-.08-.69 6.4 6.4 0 0 0-.13-.64 1.51 1.51 0 0 0-.25-.53 1.22 1.22 0 0 0-.44-.36 1.63 1.63 0 0 0-.73-.14h-3v4h-1.24v-9.27h4.37zm.26 4.21a1.78 1.78 0 0 0 .68-.25 1.39 1.39 0 0 0 .47-.51 1.72 1.72 0 0 0 .17-.83 1.67 1.67 0 0 0-.39-1.14 1.6 1.6 0 0 0-1.26-.44h-3.07v3.24h2.57a4.9 4.9 0 0 0 .83-.07zM229.69 136.88v-1.07a2.26 2.26 0 0 1-.9.92 2.68 2.68 0 0 1-1.29.29 3 3 0 0 1-1.11-.17 1.76 1.76 0 0 1-.71-.5 1.87 1.87 0 0 1-.38-.77 4.18 4.18 0 0 1-.11-1v-4.42h1.1v4.55a1.34 1.34 0 0 0 .36 1 1.35 1.35 0 0 0 1 .36 2.26 2.26 0 0 0 .88-.16 1.66 1.66 0 0 0 .62-.44 1.91 1.91 0 0 0 .37-.67 2.72 2.72 0 0 0 .12-.84v-3.8h1.11v6.72h-1zM233 130.16v1.07a2.33 2.33 0 0 1 2.18-1.22 2.92 2.92 0 0 1 1.1.18 1.84 1.84 0 0 1 .72.51 1.88 1.88 0 0 1 .38.77 4.12 4.12 0 0 1 .11 1v4.42h-1.11v-4.55a1.33 1.33 0 0 0-.36-1 1.35 1.35 0 0 0-1-.36 2.26 2.26 0 0 0-.88.16 1.66 1.66 0 0 0-.62.44 1.91 1.91 0 0 0-.37.67 2.73 2.73 0 0 0-.12.84v3.8H232v-6.72h1zM241.71 130.16v1h-1.34v4.17a1.22 1.22 0 0 0 0 .31.31.31 0 0 0 .12.18.54.54 0 0 0 .25.08H241.67v1h-.84a4 4 0 0 1-.73-.06 1.07 1.07 0 0 1-.49-.21.91.91 0 0 1-.28-.44 2.56 2.56 0 0 1-.09-.75v-4.28h-1.14v-1h1.14v-2h1.11v2h1.34zM242.61 129v-1.4h1.1v1.4h-1.1zm1.1 1.21v6.72h-1.1v-6.72h1.1zM246.08 130.16v1a2.62 2.62 0 0 1 3.3-.88 1.46 1.46 0 0 1 .71.88 2.36 2.36 0 0 1 .89-.84 2.51 2.51 0 0 1 1.22-.3 3.54 3.54 0 0 1 .92.11 1.91 1.91 0 0 1 .7.34 1.56 1.56 0 0 1 .46.6 2.21 2.21 0 0 1 .16.89v4.93h-1.1v-4.41a3.09 3.09 0 0 0-.05-.58 1.2 1.2 0 0 0-.19-.47 1 1 0 0 0-.4-.32 1.58 1.58 0 0 0-.66-.12 1.73 1.73 0 0 0-1.29.47 1.68 1.68 0 0 0-.47 1.25v4.19h-1.1v-4.41a2.85 2.85 0 0 0-.06-.6 1.29 1.29 0 0 0-.2-.47 1 1 0 0 0-.38-.31 1.48 1.48 0 0 0-.62-.11 1.65 1.65 0 0 0-.83.2 1.87 1.87 0 0 0-.56.47 1.89 1.89 0 0 0-.31.57 1.62 1.62 0 0 0-.1.49v4.19H245v-6.72h1zM260.49 136.45a3.05 3.05 0 0 1-1.9.57 3.44 3.44 0 0 1-1.4-.26 2.75 2.75 0 0 1-1-.73 3.1 3.1 0 0 1-.6-1.12 5.38 5.38 0 0 1-.23-1.42 4 4 0 0 1 .23-1.4 3.36 3.36 0 0 1 .66-1.1 3 3 0 0 1 1-.73 3.07 3.07 0 0 1 1.27-.26 2.76 2.76 0 0 1 1.49.37 3 3 0 0 1 .95.94 3.73 3.73 0 0 1 .49 1.25 5.35 5.35 0 0 1 .11 1.29h-5a2.66 2.66 0 0 0 .1.84 1.9 1.9 0 0 0 .38.7 1.86 1.86 0 0 0 .66.49 2.29 2.29 0 0 0 .95.18 1.92 1.92 0 0 0 1.15-.32 1.57 1.57 0 0 0 .59-1h1.09a2.69 2.69 0 0 1-.99 1.71zm-.27-4.32a1.9 1.9 0 0 0-.4-.6 1.94 1.94 0 0 0-.6-.4 1.91 1.91 0 0 0-.76-.15 1.94 1.94 0 0 0-.77.15 1.79 1.79 0 0 0-.59.41 2 2 0 0 0-.39.6 2.32 2.32 0 0 0-.17.73h3.86a2.27 2.27 0 0 0-.17-.73z"/></g></g><rect class="homemarch-9" x="168.72" y="33.55" width="146.78" height="84.63" rx="4.72" ry="4.72"/><g class="homemarch-8"><g class="homemarch-8"><path class="homemarch-13" d="M223.12 58.5v1h-7.22v4.39h6.77v1h-6.77v4.79h7.31v1h-8.47V58.5h8.38zM223.87 61.87h1.34l2.5 3.33 2.45-3.33h1.34l-3.16 4.2 3.42 4.57h-1.36L227.65 67l-2.7 3.69h-1.33l3.4-4.56zM233.78 61.87v1.67a2.86 2.86 0 0 1 1.22-1.43 3.66 3.66 0 0 1 1.91-.5 3.82 3.82 0 0 1 1.74.37 3.58 3.58 0 0 1 1.23 1 4.3 4.3 0 0 1 .73 1.48 6.74 6.74 0 0 1 0 3.55 4.31 4.31 0 0 1-.73 1.48 3.47 3.47 0 0 1-1.23 1 3.88 3.88 0 0 1-1.74.37 3.92 3.92 0 0 1-1-.12 3.33 3.33 0 0 1-.88-.36 2.89 2.89 0 0 1-.72-.59 2.53 2.53 0 0 1-.41-.79v4.9h-1.1v-12h1zm5.87 3a3.74 3.74 0 0 0-.51-1.2 2.81 2.81 0 0 0-.89-.86 2.47 2.47 0 0 0-1.31-.33 3.21 3.21 0 0 0-1.48.31 2.57 2.57 0 0 0-1 .82 3.21 3.21 0 0 0-.5 1.19 6.84 6.84 0 0 0-.14 1.43 5.73 5.73 0 0 0 .16 1.35 3.54 3.54 0 0 0 .53 1.2 2.84 2.84 0 0 0 1 .86 2.88 2.88 0 0 0 1.44.33 2.47 2.47 0 0 0 1.31-.33 2.8 2.8 0 0 0 .89-.86 3.76 3.76 0 0 0 .51-1.2 5.75 5.75 0 0 0 0-2.68z"/></g><g class="homemarch-8"><path class="homemarch-13" d="M243.55 61.87v2.06a3.37 3.37 0 0 1 1.27-1.65 3.32 3.32 0 0 1 2-.53v1.07a3.23 3.23 0 0 0-1.33.2 2.93 2.93 0 0 0-1.7 1.67 3.38 3.38 0 0 0-.24 1.28v4.67h-1.07v-8.77h1z"/></g><g class="homemarch-8"><path class="homemarch-13" d="M248.4 67.74a3.27 3.27 0 0 0 .52 1.11 3 3 0 0 0 .9.82 2.52 2.52 0 0 0 1.31.32 2.6 2.6 0 0 0 1.84-.61 3.22 3.22 0 0 0 .92-1.63H255a4.27 4.27 0 0 1-1.25 2.31 3.73 3.73 0 0 1-2.58.82 4.08 4.08 0 0 1-1.79-.37 3.29 3.29 0 0 1-1.23-1 4.36 4.36 0 0 1-.75-1.51 6.71 6.71 0 0 1-.23-1.78 6.36 6.36 0 0 1 .23-1.7 4.56 4.56 0 0 1 .71-1.49 3.54 3.54 0 0 1 1.23-1.03 3.8 3.8 0 0 1 1.79-.4 3.47 3.47 0 0 1 3 1.54 4.61 4.61 0 0 1 .67 1.58 7 7 0 0 1 .17 1.81h-6.75a4.75 4.75 0 0 0 .18 1.21zm5.3-3.27a3.2 3.2 0 0 0-.55-1 2.72 2.72 0 0 0-.87-.7 2.48 2.48 0 0 0-1.16-.26 2.52 2.52 0 0 0-1.17.26 2.73 2.73 0 0 0-.87.7 3.46 3.46 0 0 0-.57 1 4.9 4.9 0 0 0-.28 1.16h5.68a3.89 3.89 0 0 0-.21-1.16zM261.48 63.58A1.75 1.75 0 0 0 261 63a2.11 2.11 0 0 0-.72-.35 3.33 3.33 0 0 0-.87-.11 3.53 3.53 0 0 0-.72.08 2.27 2.27 0 0 0-.67.25 1.45 1.45 0 0 0-.49.47 1.29 1.29 0 0 0-.19.71 1 1 0 0 0 .18.6 1.58 1.58 0 0 0 .45.42 2.87 2.87 0 0 0 .59.28l.6.18 1.43.32a4.05 4.05 0 0 1 .91.25 2.91 2.91 0 0 1 .8.47 2.28 2.28 0 0 1 .57.71 2.15 2.15 0 0 1 .22 1 2.21 2.21 0 0 1-.32 1.22 2.63 2.63 0 0 1-.82.82 3.51 3.51 0 0 1-1.13.45 5.85 5.85 0 0 1-1.24.14 4 4 0 0 1-2.51-.73 3.11 3.11 0 0 1-1.1-2.35H257a2.11 2.11 0 0 0 .79 1.64 2.87 2.87 0 0 0 1.79.55 4 4 0 0 0 .81-.08 2.57 2.57 0 0 0 .77-.29 1.88 1.88 0 0 0 .59-.52 1.28 1.28 0 0 0 .23-.77 1.24 1.24 0 0 0-.16-.66 1.43 1.43 0 0 0-.43-.44 2.73 2.73 0 0 0-.62-.3c-.23-.08-.47-.15-.71-.2l-1.38-.31a7.73 7.73 0 0 1-1-.31 3.09 3.09 0 0 1-.77-.44 1.84 1.84 0 0 1-.52-.65 2.13 2.13 0 0 1-.19-.94 2.11 2.11 0 0 1 .3-1.14 2.32 2.32 0 0 1 .77-.76 3.61 3.61 0 0 1 1.06-.42 5.13 5.13 0 0 1 1.16-.14 4.32 4.32 0 0 1 1.23.17 2.85 2.85 0 0 1 1 .53 2.62 2.62 0 0 1 .69.88 3.19 3.19 0 0 1 .29 1.24h-1.07a2 2 0 0 0-.15-.89zM269.66 63.58a1.74 1.74 0 0 0-.5-.6 2.09 2.09 0 0 0-.72-.35 3.32 3.32 0 0 0-.87-.11 3.52 3.52 0 0 0-.72.08 2.26 2.26 0 0 0-.67.25 1.45 1.45 0 0 0-.49.47 1.29 1.29 0 0 0-.19.71 1 1 0 0 0 .18.6 1.58 1.58 0 0 0 .45.42 2.81 2.81 0 0 0 .59.28l.6.18 1.43.32a4.06 4.06 0 0 1 .91.25 2.94 2.94 0 0 1 .8.47 2.26 2.26 0 0 1 .57.71 2.13 2.13 0 0 1 .22 1 2.21 2.21 0 0 1-.32 1.22 2.63 2.63 0 0 1-.82.82 3.49 3.49 0 0 1-1.13.45 5.85 5.85 0 0 1-1.24.14 4 4 0 0 1-2.51-.73 3.11 3.11 0 0 1-1.1-2.35h1.07a2.11 2.11 0 0 0 .79 1.64 2.86 2.86 0 0 0 1.79.55 4 4 0 0 0 .81-.08 2.56 2.56 0 0 0 .77-.29 1.89 1.89 0 0 0 .59-.52 1.28 1.28 0 0 0 .23-.77 1.24 1.24 0 0 0-.16-.66 1.45 1.45 0 0 0-.43-.44 2.73 2.73 0 0 0-.62-.3c-.23-.08-.47-.15-.71-.2l-1.38-.31a7.82 7.82 0 0 1-1-.31 3.16 3.16 0 0 1-.77-.44 1.86 1.86 0 0 1-.52-.65 2.13 2.13 0 0 1-.19-.94 2.1 2.1 0 0 1 .3-1.14 2.3 2.3 0 0 1 .77-.76 3.58 3.58 0 0 1 1.06-.42 5.12 5.12 0 0 1 1.16-.14 4.34 4.34 0 0 1 1.23.17 2.85 2.85 0 0 1 1 .53 2.6 2.6 0 0 1 .69.88 3.19 3.19 0 0 1 .29 1.24h-1.07a2 2 0 0 0-.17-.87z"/></g><g class="homemarch-8"><path class="homemarch-13" d="M203.49 78.5l4 10.64 4.21-10.64h1.7v12.14h-1.16V80.15l-4.15 10.49H207l-4-10.49v10.49h-1.16V78.5h1.7zM216.66 78.5v1.72h-1.07V78.5h1.07zm0 3.37v8.77h-1.07v-8.77h1.07zM225.45 90.64V89a2.53 2.53 0 0 1-.5.78 3.28 3.28 0 0 1-.76.6 3.94 3.94 0 0 1-.91.38 3.54 3.54 0 0 1-1 .14 3.88 3.88 0 0 1-1.74-.37 3.47 3.47 0 0 1-1.23-1 4.31 4.31 0 0 1-.73-1.48 6.77 6.77 0 0 1 0-3.55 4.3 4.3 0 0 1 .73-1.48 3.58 3.58 0 0 1 1.23-1 3.82 3.82 0 0 1 1.74-.37 3.9 3.9 0 0 1 1 .12 3.24 3.24 0 0 1 .88.37 3.11 3.11 0 0 1 .72.6 2.54 2.54 0 0 1 .48.83v-5h1.07v12.07h-1zm-5.87-3a3.73 3.73 0 0 0 .51 1.2 2.8 2.8 0 0 0 .89.86 2.47 2.47 0 0 0 1.31.33 2.88 2.88 0 0 0 1.44-.33 2.83 2.83 0 0 0 1-.86 3.56 3.56 0 0 0 .53-1.2 5.75 5.75 0 0 0 0-2.7 3.54 3.54 0 0 0-.53-1.2 2.85 2.85 0 0 0-1-.86 2.88 2.88 0 0 0-1.44-.33 2.47 2.47 0 0 0-1.31.33 2.81 2.81 0 0 0-.89.86 3.71 3.71 0 0 0-.51 1.2 5.72 5.72 0 0 0 0 2.67zM235.21 90.64V89a2.53 2.53 0 0 1-.5.78 3.28 3.28 0 0 1-.76.6 3.94 3.94 0 0 1-.91.38 3.54 3.54 0 0 1-1 .14 3.88 3.88 0 0 1-1.74-.37 3.47 3.47 0 0 1-1.23-1 4.31 4.31 0 0 1-.73-1.48 6.77 6.77 0 0 1 0-3.55 4.3 4.3 0 0 1 .73-1.48 3.58 3.58 0 0 1 1.23-1 3.82 3.82 0 0 1 1.74-.37 3.9 3.9 0 0 1 1 .12 3.24 3.24 0 0 1 .88.37 3.11 3.11 0 0 1 .72.6 2.54 2.54 0 0 1 .48.83v-5h1.07v12.07h-1zm-5.87-3a3.73 3.73 0 0 0 .51 1.2 2.8 2.8 0 0 0 .89.86 2.47 2.47 0 0 0 1.26.3 2.88 2.88 0 0 0 1.44-.33 2.83 2.83 0 0 0 1-.86 3.56 3.56 0 0 0 .53-1.2 5.75 5.75 0 0 0 0-2.7 3.54 3.54 0 0 0-.53-1.2 2.85 2.85 0 0 0-1-.86 2.88 2.88 0 0 0-1.44-.33 2.47 2.47 0 0 0-1.31.33 2.81 2.81 0 0 0-.89.86 3.71 3.71 0 0 0-.51 1.2 5.72 5.72 0 0 0 .05 2.7zM239.33 78.5v12.14h-1.07V78.5h1.07zM242.17 87.74a3.27 3.27 0 0 0 .52 1.11 3 3 0 0 0 .9.82 2.52 2.52 0 0 0 1.31.32 2.6 2.6 0 0 0 1.84-.61 3.22 3.22 0 0 0 .92-1.63h1.07a4.28 4.28 0 0 1-1.25 2.31 3.73 3.73 0 0 1-2.58.82 4.08 4.08 0 0 1-1.79-.37 3.29 3.29 0 0 1-1.23-1 4.37 4.37 0 0 1-.71-1.48 6.71 6.71 0 0 1-.23-1.78 6.36 6.36 0 0 1 .23-1.7 4.57 4.57 0 0 1 .71-1.49 3.55 3.55 0 0 1 1.23-1.06 3.8 3.8 0 0 1 1.79-.4 3.47 3.47 0 0 1 3 1.54 4.61 4.61 0 0 1 .67 1.58 6.91 6.91 0 0 1 .17 1.81H242a4.77 4.77 0 0 0 .17 1.21zm5.3-3.27a3.18 3.18 0 0 0-.55-1 2.73 2.73 0 0 0-.87-.7 2.48 2.48 0 0 0-1.16-.26 2.52 2.52 0 0 0-1.17.26 2.75 2.75 0 0 0-.87.7 3.45 3.45 0 0 0-.57 1 4.9 4.9 0 0 0-.28 1.16h5.68a3.86 3.86 0 0 0-.2-1.16zM250.46 81.87l2.24 7.51 2.14-7.51h1.21l2.14 7.51 2.24-7.51h1.14l-2.82 8.77h-1.17l-2.16-7.38-2.14 7.38h-1.17l-2.82-8.77h1.14zM263 83.23a2.51 2.51 0 0 1 .74-.92 3.14 3.14 0 0 1 1.1-.53 5.38 5.38 0 0 1 1.39-.17 6.1 6.1 0 0 1 1.16.11 2.79 2.79 0 0 1 1 .42 2.28 2.28 0 0 1 .75.86 3.1 3.1 0 0 1 .29 1.44v4.66a.56.56 0 0 0 .63.65.83.83 0 0 0 .34-.07v.9l-.33.05h-.37a1.63 1.63 0 0 1-.65-.11.88.88 0 0 1-.38-.31 1.18 1.18 0 0 1-.18-.48 4.16 4.16 0 0 1 0-.62 7 7 0 0 1-.59.76 2.94 2.94 0 0 1-.66.55 3.05 3.05 0 0 1-.83.34 4.57 4.57 0 0 1-1.11.12 4.41 4.41 0 0 1-1.15-.14 2.58 2.58 0 0 1-.94-.46 2.2 2.2 0 0 1-.63-.8 2.66 2.66 0 0 1-.23-1.15 2.26 2.26 0 0 1 .41-1.44 2.57 2.57 0 0 1 1.08-.79 6.22 6.22 0 0 1 1.51-.38l1.71-.21.59-.08a1 1 0 0 0 .43-.18.83.83 0 0 0 .26-.35 1.5 1.5 0 0 0 .09-.58 2 2 0 0 0-.18-.89 1.42 1.42 0 0 0-.49-.55 2 2 0 0 0-.73-.28 5 5 0 0 0-.89-.08 2.7 2.7 0 0 0-1.67.48 1.9 1.9 0 0 0-.68 1.56h-1.09a3.56 3.56 0 0 1 .3-1.33zm5.35 2.62a.61.61 0 0 1-.39.27 3.86 3.86 0 0 1-.51.12q-.68.12-1.4.21a7.76 7.76 0 0 0-1.32.28 2.59 2.59 0 0 0-1 .54 1.28 1.28 0 0 0-.38 1 1.57 1.57 0 0 0 .16.72 1.75 1.75 0 0 0 .43.54 1.9 1.9 0 0 0 .63.35 2.3 2.3 0 0 0 .73.12 3.68 3.68 0 0 0 1.17-.19 2.89 2.89 0 0 0 1-.54 2.66 2.66 0 0 0 .66-.87 2.62 2.62 0 0 0 .25-1.16v-1.39z"/></g><g class="homemarch-8"><path class="homemarch-13" d="M272.82 81.87v2.06a3.37 3.37 0 0 1 1.27-1.65 3.32 3.32 0 0 1 2-.53v1.07a3.23 3.23 0 0 0-1.33.2 2.93 2.93 0 0 0-1.7 1.67 3.38 3.38 0 0 0-.16 1.31v4.67h-1.07v-8.8h1z"/></g><g class="homemarch-8"><path class="homemarch-13" d="M277.67 87.74a3.27 3.27 0 0 0 .52 1.11 3 3 0 0 0 .9.82 2.52 2.52 0 0 0 1.31.32 2.6 2.6 0 0 0 1.84-.61 3.22 3.22 0 0 0 .92-1.63h1.07a4.28 4.28 0 0 1-1.23 2.31 3.72 3.72 0 0 1-2.58.82 4.07 4.07 0 0 1-1.79-.37 3.28 3.28 0 0 1-1.23-1 4.37 4.37 0 0 1-.71-1.48 6.71 6.71 0 0 1-.23-1.78 6.36 6.36 0 0 1 .23-1.7 4.57 4.57 0 0 1 .71-1.49 3.53 3.53 0 0 1 1.21-1.06 3.8 3.8 0 0 1 1.79-.4 3.47 3.47 0 0 1 3 1.54 4.63 4.63 0 0 1 .67 1.58 7 7 0 0 1 .17 1.81h-6.75a4.77 4.77 0 0 0 .18 1.21zm5.3-3.27a3.2 3.2 0 0 0-.55-1 2.75 2.75 0 0 0-.87-.7 2.48 2.48 0 0 0-1.16-.26 2.52 2.52 0 0 0-1.17.26 2.75 2.75 0 0 0-.87.7 3.47 3.47 0 0 0-.57 1 4.9 4.9 0 0 0-.28 1.16h5.68a3.86 3.86 0 0 0-.18-1.16z"/></g></g><g class="homemarch-8"><g class="homemarch-8"><path class="homemarch-11" d="M387.09 120.35v1.08a2 2 0 0 1 .3-.5 2 2 0 0 1 .44-.39 2.16 2.16 0 0 1 .53-.25 1.91 1.91 0 0 1 .58-.09 1.26 1.26 0 0 1 .35.06v1.48H388.72a1.72 1.72 0 0 0-.74.15 1.28 1.28 0 0 0-.49.4 1.59 1.59 0 0 0-.26.59 3.2 3.2 0 0 0-.08.73v2.62h-1.6v-5.81h1.52z"/></g><g class="homemarch-8"><path class="homemarch-11" d="M391.46 124.77a1.63 1.63 0 0 0 1.87.11 1 1 0 0 0 .43-.51h1.4a2.67 2.67 0 0 1-1 1.5 3 3 0 0 1-1.69.45 3.31 3.31 0 0 1-1.24-.22 2.55 2.55 0 0 1-.93-.62 2.81 2.81 0 0 1-.59-1 3.54 3.54 0 0 1-.21-1.24 3.39 3.39 0 0 1 .21-1.21 2.81 2.81 0 0 1 1.55-1.62 3 3 0 0 1 1.21-.24 2.76 2.76 0 0 1 1.29.29 2.56 2.56 0 0 1 .9.77 3.17 3.17 0 0 1 .51 1.1 4.11 4.11 0 0 1 .11 1.29h-4.19a1.61 1.61 0 0 0 .37 1.15zm1.8-3.06a1.12 1.12 0 0 0-.87-.31 1.39 1.39 0 0 0-.63.13 1.23 1.23 0 0 0-.41.32 1.18 1.18 0 0 0-.21.41 1.73 1.73 0 0 0-.07.38h2.6a1.85 1.85 0 0 0-.41-.93zM400.27 128.19v-2.76a1.57 1.57 0 0 1-.79.67 2.78 2.78 0 0 1-1 .2 2.51 2.51 0 0 1-.84-.15 2.12 2.12 0 0 1-.79-.51 2.74 2.74 0 0 1-.6-.93 3.78 3.78 0 0 1-.24-1.42 4.24 4.24 0 0 1 .16-1.16 2.94 2.94 0 0 1 .48-1 2.35 2.35 0 0 1 2-1 2.52 2.52 0 0 1 1 .21 1.55 1.55 0 0 1 .75.69v-.74h1.52v7.85h-1.6zm-2.65-4.25a1.82 1.82 0 0 0 .23.6 1.24 1.24 0 0 0 .43.42 1.26 1.26 0 0 0 .66.16 1.3 1.3 0 0 0 .66-.15 1.22 1.22 0 0 0 .43-.4 1.78 1.78 0 0 0 .24-.58 3.22 3.22 0 0 0 0-1.37 2.09 2.09 0 0 0-.27-.62 1.26 1.26 0 0 0-.42-.44 1.15 1.15 0 0 0-.63-.17 1.3 1.3 0 0 0-.66.16 1.28 1.28 0 0 0-.44.42 1.82 1.82 0 0 0-.24.6 3.19 3.19 0 0 0-.07.69 3.41 3.41 0 0 0 .07.68zM407 126.16v-.81a1.78 1.78 0 0 1-.79.73 2.31 2.31 0 0 1-1 .23 2.8 2.8 0 0 1-1.05-.17 1.51 1.51 0 0 1-.65-.48 1.87 1.87 0 0 1-.33-.75 4.7 4.7 0 0 1-.1-1v-3.58h1.6v3.28a2 2 0 0 0 .22 1.07.87.87 0 0 0 .8.35 1.1 1.1 0 0 0 .94-.39 2.15 2.15 0 0 0 .29-1.28v-3h1.6v5.81H407zM411.44 124.77a1.64 1.64 0 0 0 1.87.11 1 1 0 0 0 .43-.51h1.41a2.66 2.66 0 0 1-1 1.5 3 3 0 0 1-1.69.45 3.31 3.31 0 0 1-1.24-.22 2.55 2.55 0 0 1-.93-.62 2.81 2.81 0 0 1-.59-1 3.54 3.54 0 0 1-.21-1.24 3.41 3.41 0 0 1 .21-1.21 2.81 2.81 0 0 1 1.55-1.62 3 3 0 0 1 1.21-.24 2.76 2.76 0 0 1 1.29.29 2.58 2.58 0 0 1 .91.77 3.17 3.17 0 0 1 .51 1.1 4.08 4.08 0 0 1 .11 1.29H411a1.61 1.61 0 0 0 .44 1.15zm1.8-3.06a1.12 1.12 0 0 0-.87-.31 1.39 1.39 0 0 0-.63.13 1.21 1.21 0 0 0-.4.32 1.17 1.17 0 0 0-.21.41 1.86 1.86 0 0 0-.07.38h2.6a1.85 1.85 0 0 0-.42-.93zM417.53 124.72a.94.94 0 0 0 .28.3 1.18 1.18 0 0 0 .39.17 1.8 1.8 0 0 0 .46.06 1.71 1.71 0 0 0 .35 0 1.2 1.2 0 0 0 .34-.12.77.77 0 0 0 .25-.22.57.57 0 0 0-.38-.89 9.51 9.51 0 0 0-1.33-.36c-.23-.05-.46-.11-.68-.19a2.29 2.29 0 0 1-.59-.28 1.36 1.36 0 0 1-.42-.44 1.24 1.24 0 0 1-.16-.65 1.76 1.76 0 0 1 .22-.92 1.62 1.62 0 0 1 .58-.57 2.53 2.53 0 0 1 .81-.29 5 5 0 0 1 .92-.08 4.64 4.64 0 0 1 .92.09 2.43 2.43 0 0 1 .79.3 1.83 1.83 0 0 1 .58.57 1.92 1.92 0 0 1 .28.89h-1.52a.7.7 0 0 0-.35-.62 1.58 1.58 0 0 0-.74-.16h-.29a1 1 0 0 0-.29.07.59.59 0 0 0-.22.16.43.43 0 0 0-.09.29.44.44 0 0 0 .16.35 1.21 1.21 0 0 0 .41.22 5 5 0 0 0 .58.15l.66.15a7.07 7.07 0 0 1 .68.19 2.27 2.27 0 0 1 .59.3 1.46 1.46 0 0 1 .42.46 1.36 1.36 0 0 1 .16.68 1.77 1.77 0 0 1-.83 1.58 2.46 2.46 0 0 1-.85.33 5 5 0 0 1-1 .1 4.82 4.82 0 0 1-1-.1 2.61 2.61 0 0 1-.86-.34 1.93 1.93 0 0 1-.62-.62 2 2 0 0 1-.26-1h1.52a.88.88 0 0 0 .13.44zM425.41 120.35v1.07h-1.17v2.88a.54.54 0 0 0 .67.67h.5v1.24H424.48a4.72 4.72 0 0 1-.7-.05 1.66 1.66 0 0 1-.58-.2 1 1 0 0 1-.4-.42 1.48 1.48 0 0 1-.15-.71v-3.43h-1v-1.07h1v-1.74h1.6v1.74h1.17z"/></g></g><path class="homemarch-14" d="M382.49 111.71l-10.95 10.95 10.95 10.96"/><g class="homemarch-8"><g class="homemarch-8"><path class="homemarch-11" d="M83.68 155.92V157a2 2 0 0 1 .3-.5 2 2 0 0 1 .44-.39 2.16 2.16 0 0 1 .53-.25 1.92 1.92 0 0 1 .58-.09 1.26 1.26 0 0 1 .35.06v1.48H85.31a1.71 1.71 0 0 0-.74.15 1.28 1.28 0 0 0-.49.4 1.59 1.59 0 0 0-.26.59 3.2 3.2 0 0 0-.08.73v2.62h-1.6v-5.81h1.52z"/></g><g class="homemarch-8"><path class="homemarch-11" d="M88 160.34a1.63 1.63 0 0 0 1.87.11 1 1 0 0 0 .43-.51h1.4a2.67 2.67 0 0 1-1 1.5 3 3 0 0 1-1.69.45 3.31 3.31 0 0 1-1.24-.22 2.55 2.55 0 0 1-.93-.62 2.81 2.81 0 0 1-.59-1 3.54 3.54 0 0 1-.21-1.24 3.39 3.39 0 0 1 .21-1.21 2.81 2.81 0 0 1 1.56-1.6 3 3 0 0 1 1.21-.24 2.76 2.76 0 0 1 1.29.29 2.57 2.57 0 0 1 .9.77 3.17 3.17 0 0 1 .51 1.1 4.11 4.11 0 0 1 .11 1.29h-4.18a1.61 1.61 0 0 0 .35 1.13zm1.8-3.06a1.12 1.12 0 0 0-.8-.28 1.39 1.39 0 0 0-.64.13 1.23 1.23 0 0 0-.4.32 1.18 1.18 0 0 0-.21.41 1.79 1.79 0 0 0-.07.38h2.6a1.85 1.85 0 0 0-.43-.96zM94.13 160.29a.94.94 0 0 0 .28.3 1.18 1.18 0 0 0 .39.17 1.8 1.8 0 0 0 .46.06 1.7 1.7 0 0 0 .35 0 1.19 1.19 0 0 0 .34-.12.77.77 0 0 0 .25-.22.58.58 0 0 0-.38-.89 9.55 9.55 0 0 0-1.33-.36c-.23-.05-.46-.11-.68-.19a2.29 2.29 0 0 1-.59-.28 1.37 1.37 0 0 1-.42-.44 1.24 1.24 0 0 1-.16-.65 1.75 1.75 0 0 1 .22-.92 1.62 1.62 0 0 1 .58-.57 2.52 2.52 0 0 1 .81-.29 5 5 0 0 1 .92-.08 4.63 4.63 0 0 1 .92.09 2.43 2.43 0 0 1 .79.3 1.83 1.83 0 0 1 .58.57 1.92 1.92 0 0 1 .28.89h-1.52a.7.7 0 0 0-.35-.62 1.58 1.58 0 0 0-.74-.16h-.29a1 1 0 0 0-.29.07.58.58 0 0 0-.22.16.43.43 0 0 0-.09.29.44.44 0 0 0 .16.35 1.21 1.21 0 0 0 .41.22 5 5 0 0 0 .58.15l.61.11a7 7 0 0 1 .68.19 2.26 2.26 0 0 1 .59.3 1.45 1.45 0 0 1 .42.46 1.36 1.36 0 0 1 .16.68 1.77 1.77 0 0 1-.83 1.58 2.46 2.46 0 0 1-.85.33 5 5 0 0 1-1 .1 4.81 4.81 0 0 1-1-.1 2.61 2.61 0 0 1-.86-.34 1.92 1.92 0 0 1-.62-.62 2 2 0 0 1-.26-1H94a.88.88 0 0 0 .13.48zM100.34 155.92v.74a1.76 1.76 0 0 1 .74-.69 2.27 2.27 0 0 1 1-.21 2.52 2.52 0 0 1 1.18.26 2.45 2.45 0 0 1 .82.69 2.92 2.92 0 0 1 .48 1 4.43 4.43 0 0 1 .16 1.19 4 4 0 0 1-.16 1.12 2.86 2.86 0 0 1-.48 1 2.35 2.35 0 0 1-.8.66 2.4 2.4 0 0 1-1.12.25 2.26 2.26 0 0 1-1-.22 1.87 1.87 0 0 1-.75-.65v2.75h-1.6v-7.85h1.52zm2.07 4.61a1.28 1.28 0 0 0 .43-.41 1.71 1.71 0 0 0 .23-.59 3.41 3.41 0 0 0 .07-.69 3.22 3.22 0 0 0-.07-.69 1.84 1.84 0 0 0-.24-.6 1.35 1.35 0 0 0-.43-.43 1.21 1.21 0 0 0-.65-.16 1.23 1.23 0 0 0-.66.16 1.31 1.31 0 0 0-.43.42 1.75 1.75 0 0 0-.23.6 3.56 3.56 0 0 0-.07.7 3.22 3.22 0 0 0 .07.69 1.76 1.76 0 0 0 .24.59 1.36 1.36 0 0 0 1.75.41zM105.73 157.57a2.66 2.66 0 0 1 1.55-1.58 3.31 3.31 0 0 1 1.24-.22 3.36 3.36 0 0 1 1.24.22 2.64 2.64 0 0 1 1.56 1.58 3.56 3.56 0 0 1 .21 1.26 3.52 3.52 0 0 1-.21 1.26 2.74 2.74 0 0 1-.61 1 2.66 2.66 0 0 1-1 .61 3.44 3.44 0 0 1-1.24.21 3.39 3.39 0 0 1-1.24-.21 2.65 2.65 0 0 1-.94-.61 2.74 2.74 0 0 1-.61-1 3.52 3.52 0 0 1-.21-1.26 3.56 3.56 0 0 1 .26-1.26zm1.45 1.94a1.8 1.8 0 0 0 .23.6 1.22 1.22 0 0 0 .43.42 1.31 1.31 0 0 0 .67.16 1.35 1.35 0 0 0 .68-.16 1.22 1.22 0 0 0 .44-.42 1.82 1.82 0 0 0 .23-.6 3.41 3.41 0 0 0 .07-.68 3.5 3.5 0 0 0-.07-.69 1.76 1.76 0 0 0-.23-.6 1.29 1.29 0 0 0-.44-.42 1.32 1.32 0 0 0-.68-.16 1.23 1.23 0 0 0-1.11.58 1.74 1.74 0 0 0-.23.6 3.5 3.5 0 0 0-.07.69 3.41 3.41 0 0 0 .08.68zM114.08 155.92v.81a1.84 1.84 0 0 1 .79-.74 2.27 2.27 0 0 1 1-.23 2.71 2.71 0 0 1 1.05.17 1.56 1.56 0 0 1 .65.48 1.86 1.86 0 0 1 .33.75 4.7 4.7 0 0 1 .1 1v3.57h-1.6v-3.28a2 2 0 0 0-.22-1.07.87.87 0 0 0-.8-.35 1.11 1.11 0 0 0-.94.39 2.16 2.16 0 0 0-.29 1.28v3h-1.6v-5.81h1.52zM120.57 160.29a.94.94 0 0 0 .28.3 1.18 1.18 0 0 0 .39.17 1.8 1.8 0 0 0 .46.06 1.71 1.71 0 0 0 .35 0 1.2 1.2 0 0 0 .34-.12.77.77 0 0 0 .25-.22.57.57 0 0 0-.38-.89 9.51 9.51 0 0 0-1.33-.36c-.23-.05-.46-.11-.68-.19a2.29 2.29 0 0 1-.59-.28 1.36 1.36 0 0 1-.42-.44 1.24 1.24 0 0 1-.16-.65 1.76 1.76 0 0 1 .22-.92 1.62 1.62 0 0 1 .58-.57 2.53 2.53 0 0 1 .81-.29 5 5 0 0 1 .92-.08 4.64 4.64 0 0 1 .92.09 2.43 2.43 0 0 1 .79.3 1.83 1.83 0 0 1 .58.57 1.92 1.92 0 0 1 .28.89h-1.52a.7.7 0 0 0-.35-.62 1.58 1.58 0 0 0-.74-.16h-.29a1 1 0 0 0-.29.07.59.59 0 0 0-.22.16.43.43 0 0 0-.09.29.44.44 0 0 0 .16.35 1.21 1.21 0 0 0 .41.22 5 5 0 0 0 .58.15l.66.15a7.07 7.07 0 0 1 .68.19 2.27 2.27 0 0 1 .59.3 1.46 1.46 0 0 1 .42.46 1.36 1.36 0 0 1 .16.68 1.77 1.77 0 0 1-.83 1.58 2.46 2.46 0 0 1-.85.33 5 5 0 0 1-1 .1 4.82 4.82 0 0 1-1-.1 2.61 2.61 0 0 1-.86-.34 1.93 1.93 0 0 1-.62-.62 2 2 0 0 1-.26-1h1.52a.88.88 0 0 0 .13.44zM127 160.34a1.64 1.64 0 0 0 1.87.11 1 1 0 0 0 .43-.51h1.41a2.66 2.66 0 0 1-1 1.5 3 3 0 0 1-1.69.45 3.31 3.31 0 0 1-1.24-.22 2.55 2.55 0 0 1-.93-.62 2.81 2.81 0 0 1-.59-1 3.54 3.54 0 0 1-.21-1.24 3.41 3.41 0 0 1 .21-1.21 2.81 2.81 0 0 1 1.55-1.62 3 3 0 0 1 1.21-.24 2.76 2.76 0 0 1 1.29.29 2.58 2.58 0 0 1 .91.77 3.17 3.17 0 0 1 .51 1.1 4.08 4.08 0 0 1 .11 1.29h-4.19a1.61 1.61 0 0 0 .35 1.15zm1.8-3.06a1.12 1.12 0 0 0-.87-.31 1.39 1.39 0 0 0-.63.13 1.21 1.21 0 0 0-.4.32 1.17 1.17 0 0 0-.21.41 1.86 1.86 0 0 0-.07.38h2.6a1.85 1.85 0 0 0-.45-.93z"/></g></g><path class="homemarch-15" d="M374.74 168.96l10.96-10.95-10.96-10.96M141.69 111.71l-10.95 10.95 10.95 10.96"/><path class="homemarch-14" d="M133.54 168.96l10.96-10.95-10.96-10.96"/><g class="homemarch-16"><rect class="homemarch-17" x="158.56" y="196.95" width="61.06" height="24.54" rx="3.14" ry="3.14"/><rect class="homemarch-17" x="226.76" y="196.95" width="61.06" height="24.54" rx="3.14" ry="3.14"/><rect class="homemarch-17" x="294.96" y="196.95" width="61.06" height="24.54" rx="3.14" ry="3.14"/><rect class="homemarch-17" x="158.07" y="155.42" width="198.45" height="31.92" rx="3.14" ry="3.14"/></g><g class="homemarch-8"><g class="homemarch-8"><path class="homemarch-18" d="M173.35 201.8a2.85 2.85 0 0 1 2 .67 2.69 2.69 0 0 1 .71 2 4.62 4.62 0 0 1-.16 1.27 2.39 2.39 0 0 1-.5.93 2.14 2.14 0 0 1-.85.58 3.41 3.41 0 0 1-1.23.2h-2v-5.65h2zm.06 5.07h.32a1.79 1.79 0 0 0 .41-.1 1.87 1.87 0 0 0 .43-.22 1.44 1.44 0 0 0 .38-.39 2.21 2.21 0 0 0 .28-.62 3.27 3.27 0 0 0 .11-.9 3.82 3.82 0 0 0-.1-.91 1.76 1.76 0 0 0-.33-.69 1.44 1.44 0 0 0-.59-.43 2.34 2.34 0 0 0-.89-.15h-1.28v4.43h1.26zM176.79 202.63v-.83h.68v.83h-.68zm.68.74v4.13h-.68v-4.13h.68zM178.9 206.58a.73.73 0 0 0 .25.25 1.17 1.17 0 0 0 .35.13 2 2 0 0 0 .4 0h.34a1.21 1.21 0 0 0 .32-.09.62.62 0 0 0 .24-.19.5.5 0 0 0 .1-.32.45.45 0 0 0-.2-.4 1.74 1.74 0 0 0-.5-.22l-.65-.15a3.39 3.39 0 0 1-.65-.19 1.35 1.35 0 0 1-.5-.35.91.91 0 0 1-.2-.62 1 1 0 0 1 .14-.54 1.15 1.15 0 0 1 .36-.36 1.68 1.68 0 0 1 .5-.21 2.29 2.29 0 0 1 .55-.07 3.26 3.26 0 0 1 .65.06 1.5 1.5 0 0 1 .52.21 1.07 1.07 0 0 1 .36.4 1.51 1.51 0 0 1 .16.63h-.68a.65.65 0 0 0-.33-.54 1 1 0 0 0-.3-.12 1.58 1.58 0 0 0-.33 0h-.31a1 1 0 0 0-.28.08.56.56 0 0 0-.21.16.4.4 0 0 0-.08.26.38.38 0 0 0 .12.29 1 1 0 0 0 .32.19 2.69 2.69 0 0 0 .43.13l.48.11.5.14a1.65 1.65 0 0 1 .43.21 1 1 0 0 1 .3.33 1 1 0 0 1 .12.5 1.15 1.15 0 0 1-.16.62 1.22 1.22 0 0 1-.41.4 1.72 1.72 0 0 1-.57.21 3.35 3.35 0 0 1-.63.06 2.91 2.91 0 0 1-.66-.07 1.6 1.6 0 0 1-.55-.24 1.2 1.2 0 0 1-.38-.43 1.49 1.49 0 0 1-.16-.65h.68a.76.76 0 0 0 .12.39zM184 203.37v.63h-.82v2.56a.74.74 0 0 0 0 .19.2.2 0 0 0 .08.11.33.33 0 0 0 .16.05h.58v.6h-.52a2.4 2.4 0 0 1-.45 0 .65.65 0 0 1-.3-.13.56.56 0 0 1-.17-.27 1.56 1.56 0 0 1-.06-.46V204h-.7v-.6h.7v-1.24h.68v1.24h.82zM185.2 203.37v.87a1.84 1.84 0 0 1 .61-.74 1.52 1.52 0 0 1 .91-.22v.72a1.91 1.91 0 0 0-.7.11 1.1 1.1 0 0 0-.46.33 1.35 1.35 0 0 0-.26.52 2.83 2.83 0 0 0-.08.71v1.84h-.68v-4.13h.64zM187.13 202.63v-.83h.68v.83h-.68zm.68.74v4.13h-.68v-4.13h.68zM189.42 201.8v2.13a1 1 0 0 1 .53-.5 2 2 0 0 1 .79-.16 1.86 1.86 0 0 1 .83.18 1.69 1.69 0 0 1 .59.48 2.1 2.1 0 0 1 .36.69 2.85 2.85 0 0 1 .12.83 2.92 2.92 0 0 1-.12.83 2 2 0 0 1-.35.68 1.65 1.65 0 0 1-.59.46 1.91 1.91 0 0 1-.83.17h-.34a1.9 1.9 0 0 1-.37-.1 1.45 1.45 0 0 1-.35-.2 1.07 1.07 0 0 1-.28-.31v.55h-.68v-5.73h.68zm2.44 3a1.53 1.53 0 0 0-.23-.49 1.15 1.15 0 0 0-.4-.34 1.22 1.22 0 0 0-.57-.13 1.12 1.12 0 0 0-1 .49 1.47 1.47 0 0 0-.22.5 2.4 2.4 0 0 0 0 1.15 1.46 1.46 0 0 0 .23.5 1.16 1.16 0 0 0 .4.35 1.26 1.26 0 0 0 .6.13 1.16 1.16 0 0 0 .59-.14 1.08 1.08 0 0 0 .38-.36 1.55 1.55 0 0 0 .21-.51 2.7 2.7 0 0 0 .06-.59 2.11 2.11 0 0 0-.05-.52zM196.08 207.5v-.66a1.39 1.39 0 0 1-.55.56 1.65 1.65 0 0 1-.79.18 1.86 1.86 0 0 1-.68-.11 1.08 1.08 0 0 1-.44-.31 1.15 1.15 0 0 1-.24-.48 2.58 2.58 0 0 1-.07-.61v-2.72h.69v2.8a.82.82 0 0 0 .22.61.83.83 0 0 0 .62.22 1.37 1.37 0 0 0 .54-.1 1 1 0 0 0 .38-.27 1.16 1.16 0 0 0 .23-.41 1.67 1.67 0 0 0 .08-.52v-2.33h.68v4.13h-.64zM199.36 203.37v.63h-.82v2.56a.72.72 0 0 0 0 .19.19.19 0 0 0 .08.11.34.34 0 0 0 .16.05h.57v.6h-.52a2.4 2.4 0 0 1-.45 0 .65.65 0 0 1-.3-.13.56.56 0 0 1-.17-.27 1.58 1.58 0 0 1-.06-.46V204h-.7v-.6h.7v-1.24h.68v1.24h.82zM202.88 207.24a1.87 1.87 0 0 1-1.17.35 2.12 2.12 0 0 1-.86-.16 1.69 1.69 0 0 1-.61-.45 1.89 1.89 0 0 1-.37-.69 3.26 3.26 0 0 1-.14-.87 2.49 2.49 0 0 1 .14-.86 2.06 2.06 0 0 1 .4-.68 1.83 1.83 0 0 1 .62-.45 1.88 1.88 0 0 1 .78-.16 1.7 1.7 0 0 1 .92.23 1.81 1.81 0 0 1 .58.58 2.3 2.3 0 0 1 .3.77 3.29 3.29 0 0 1 .07.79h-3.09a1.62 1.62 0 0 0 .06.51 1.14 1.14 0 0 0 .64.73 1.41 1.41 0 0 0 .58.11 1.18 1.18 0 0 0 .71-.2 1 1 0 0 0 .36-.61h.67a1.65 1.65 0 0 1-.59 1.06zm-.16-2.65a1.16 1.16 0 0 0-.25-.37 1.17 1.17 0 0 0-.37-.25 1.15 1.15 0 0 0-.47-.09 1.18 1.18 0 0 0-.48.09 1.08 1.08 0 0 0-.36.25 1.2 1.2 0 0 0-.24.37 1.41 1.41 0 0 0-.1.45h2.37a1.38 1.38 0 0 0-.1-.46zM207.11 207.5v-.56a1 1 0 0 1-.53.5 2 2 0 0 1-.79.15 1.86 1.86 0 0 1-.83-.18 1.72 1.72 0 0 1-.59-.47 2 2 0 0 1-.36-.69 2.82 2.82 0 0 1-.12-.83 2.92 2.92 0 0 1 .12-.83 2 2 0 0 1 .35-.68 1.69 1.69 0 0 1 .59-.46 1.88 1.88 0 0 1 .83-.17 2 2 0 0 1 .34 0 1.69 1.69 0 0 1 .37.11 1.57 1.57 0 0 1 .35.2 1.1 1.1 0 0 1 .28.31v-2.1h.68v5.71h-.68zm-2.44-1.5a1.51 1.51 0 0 0 .23.49 1.15 1.15 0 0 0 .4.34 1.21 1.21 0 0 0 .57.13 1.12 1.12 0 0 0 1-.49 1.47 1.47 0 0 0 .22-.5 2.42 2.42 0 0 0 .07-.57 2.38 2.38 0 0 0-.07-.59 1.46 1.46 0 0 0-.23-.5 1.16 1.16 0 0 0-.4-.35 1.26 1.26 0 0 0-.6-.13 1.16 1.16 0 0 0-.58.14 1.07 1.07 0 0 0-.38.36 1.58 1.58 0 0 0-.21.51 2.77 2.77 0 0 0-.06.59 2.11 2.11 0 0 0 .04.57z"/></g><g class="homemarch-8"><path class="homemarch-18" d="M173.77 210.8a2.85 2.85 0 0 1 2 .67 2.69 2.69 0 0 1 .71 2 4.62 4.62 0 0 1-.16 1.27 2.39 2.39 0 0 1-.5.93 2.14 2.14 0 0 1-.85.58 3.41 3.41 0 0 1-1.23.2h-2v-5.65h2zm.06 5.07h.32a1.79 1.79 0 0 0 .41-.1 1.87 1.87 0 0 0 .43-.22 1.44 1.44 0 0 0 .38-.39 2.21 2.21 0 0 0 .28-.62 3.27 3.27 0 0 0 .11-.9 3.82 3.82 0 0 0-.1-.91 1.76 1.76 0 0 0-.33-.69 1.44 1.44 0 0 0-.59-.43 2.34 2.34 0 0 0-.89-.15h-1.28v4.43h1.26zM180.83 216.48a1 1 0 0 1-.49.1.59.59 0 0 1-.42-.15.64.64 0 0 1-.16-.48 1.63 1.63 0 0 1-.65.48 2.15 2.15 0 0 1-.8.15 2.18 2.18 0 0 1-.53-.06 1.24 1.24 0 0 1-.44-.2 1 1 0 0 1-.29-.36 1.2 1.2 0 0 1-.11-.53 1.21 1.21 0 0 1 .12-.58 1 1 0 0 1 .32-.36 1.45 1.45 0 0 1 .45-.21l.52-.12.53-.08a2.88 2.88 0 0 0 .44-.08.74.74 0 0 0 .3-.15.37.37 0 0 0 .11-.29.68.68 0 0 0-.08-.36.57.57 0 0 0-.22-.21.87.87 0 0 0-.3-.1h-.32a1.44 1.44 0 0 0-.72.16.7.7 0 0 0-.31.62h-.68a1.46 1.46 0 0 1 .16-.65 1.21 1.21 0 0 1 .38-.43 1.62 1.62 0 0 1 .55-.24 2.9 2.9 0 0 1 .66-.07 3.9 3.9 0 0 1 .56 0 1.46 1.46 0 0 1 .5.16 1 1 0 0 1 .36.35 1.11 1.11 0 0 1 .14.58v2.12a1.55 1.55 0 0 0 0 .35.16.16 0 0 0 .19.11h.21v.53zm-1.1-2.12a.84.84 0 0 1-.34.14l-.44.07-.46.06a1.73 1.73 0 0 0-.42.12.77.77 0 0 0-.3.23.64.64 0 0 0-.12.4.55.55 0 0 0 .07.28.57.57 0 0 0 .18.19.74.74 0 0 0 .25.1 1.39 1.39 0 0 0 .3 0 1.63 1.63 0 0 0 .58-.09 1.22 1.22 0 0 0 .39-.23.91.91 0 0 0 .22-.3.75.75 0 0 0 .07-.31v-.69zM183.08 212.37v.63h-.82v2.56a.74.74 0 0 0 0 .19.2.2 0 0 0 .08.11.33.33 0 0 0 .16.05h.57v.6h-.52a2.4 2.4 0 0 1-.45 0 .65.65 0 0 1-.3-.13.56.56 0 0 1-.17-.27 1.56 1.56 0 0 1-.06-.46V213h-.7v-.6h.7v-1.24h.68v1.24h.82zM187.34 216.48a1 1 0 0 1-.49.1.59.59 0 0 1-.42-.15.64.64 0 0 1-.16-.48 1.63 1.63 0 0 1-.65.48 2.15 2.15 0 0 1-.8.15 2.18 2.18 0 0 1-.53-.06 1.24 1.24 0 0 1-.44-.2 1 1 0 0 1-.29-.36 1.2 1.2 0 0 1-.11-.53 1.21 1.21 0 0 1 .12-.58 1 1 0 0 1 .32-.36 1.45 1.45 0 0 1 .45-.21l.52-.12.53-.08a2.88 2.88 0 0 0 .44-.08.74.74 0 0 0 .3-.15.37.37 0 0 0 .11-.29.68.68 0 0 0-.08-.36.57.57 0 0 0-.22-.21.87.87 0 0 0-.3-.1h-.32a1.44 1.44 0 0 0-.72.16.7.7 0 0 0-.31.62h-.68a1.46 1.46 0 0 1 .16-.65 1.21 1.21 0 0 1 .38-.43 1.62 1.62 0 0 1 .55-.24 2.9 2.9 0 0 1 .66-.07 3.9 3.9 0 0 1 .56 0 1.46 1.46 0 0 1 .5.16 1 1 0 0 1 .36.35 1.11 1.11 0 0 1 .14.58v2.12a1.55 1.55 0 0 0 0 .35.16.16 0 0 0 .19.11h.21v.53zm-1.1-2.12a.84.84 0 0 1-.34.14l-.44.07-.46.06a1.73 1.73 0 0 0-.42.12.77.77 0 0 0-.3.23.64.64 0 0 0-.12.4.55.55 0 0 0 .07.28.57.57 0 0 0 .18.19.74.74 0 0 0 .25.1 1.39 1.39 0 0 0 .3 0 1.63 1.63 0 0 0 .58-.09 1.22 1.22 0 0 0 .39-.23.91.91 0 0 0 .22-.3.75.75 0 0 0 .07-.31v-.69zM192.85 211.57a1.61 1.61 0 0 0-1-.28 2.3 2.3 0 0 0-.47 0 1.25 1.25 0 0 0-.41.16.85.85 0 0 0-.29.3.93.93 0 0 0-.11.47.59.59 0 0 0 .16.43 1.16 1.16 0 0 0 .42.27 3.55 3.55 0 0 0 .59.17l.67.15.67.19a2.2 2.2 0 0 1 .59.29 1.4 1.4 0 0 1 .42.46 1.63 1.63 0 0 1 0 1.48 1.67 1.67 0 0 1-.52.53 2.3 2.3 0 0 1-.72.3 3.5 3.5 0 0 1-.79.09 3.33 3.33 0 0 1-.91-.12 2.25 2.25 0 0 1-.75-.36 1.72 1.72 0 0 1-.51-.62 2 2 0 0 1-.19-.9h.72a1.29 1.29 0 0 0 .14.62 1.26 1.26 0 0 0 .37.43 1.54 1.54 0 0 0 .53.25 2.46 2.46 0 0 0 .62.08 2.83 2.83 0 0 0 .52 0 1.5 1.5 0 0 0 .47-.16.88.88 0 0 0 .46-.83.71.71 0 0 0-.16-.48 1.15 1.15 0 0 0-.42-.3 3.06 3.06 0 0 0-.59-.19l-.67-.15-.67-.18a2.46 2.46 0 0 1-.59-.26 1.27 1.27 0 0 1-.43-.41 1.25 1.25 0 0 1-.16-.65 1.51 1.51 0 0 1 .18-.75 1.54 1.54 0 0 1 .47-.52 2.12 2.12 0 0 1 .66-.3 2.94 2.94 0 0 1 .76-.1 3.08 3.08 0 0 1 .81.1 1.83 1.83 0 0 1 .66.33 1.58 1.58 0 0 1 .45.56 2 2 0 0 1 .18.81h-.71a1.19 1.19 0 0 0-.45-.91zM196.68 212.37v.63h-.82v2.56a.72.72 0 0 0 0 .19.19.19 0 0 0 .08.11.34.34 0 0 0 .16.05h.57v.6h-.52a2.4 2.4 0 0 1-.45 0 .65.65 0 0 1-.3-.13.56.56 0 0 1-.17-.27 1.58 1.58 0 0 1-.06-.46V213h-.7v-.6h.7v-1.24h.68v1.24h.82zM197.18 213.59a2 2 0 0 1 .38-.69 1.8 1.8 0 0 1 .63-.46 2.31 2.31 0 0 1 1.73 0 1.8 1.8 0 0 1 .63.46 1.92 1.92 0 0 1 .38.69 2.76 2.76 0 0 1 .13.85 2.72 2.72 0 0 1-.13.85 1.92 1.92 0 0 1-.38.68 1.75 1.75 0 0 1-.63.46 2.36 2.36 0 0 1-1.73 0 1.76 1.76 0 0 1-.63-.46 2 2 0 0 1-.38-.68 2.72 2.72 0 0 1-.13-.85 2.76 2.76 0 0 1 .13-.85zm.69 1.52a1.39 1.39 0 0 0 .28.49 1.19 1.19 0 0 0 .41.3 1.25 1.25 0 0 0 1 0 1.2 1.2 0 0 0 .41-.3 1.39 1.39 0 0 0 .28-.49 2.28 2.28 0 0 0 0-1.33 1.43 1.43 0 0 0-.28-.49 1.17 1.17 0 0 0-.41-.3 1.25 1.25 0 0 0-1 0 1.17 1.17 0 0 0-.41.3 1.43 1.43 0 0 0-.28.49 2.28 2.28 0 0 0 0 1.33z"/></g><g class="homemarch-8"><path class="homemarch-18" d="M201.93 212.37v.87a1.84 1.84 0 0 1 .61-.74 1.52 1.52 0 0 1 .91-.22v.72a1.91 1.91 0 0 0-.7.11 1.09 1.09 0 0 0-.46.33 1.36 1.36 0 0 0-.26.52 2.85 2.85 0 0 0-.08.71v1.84h-.68v-4.13h.64z"/></g><g class="homemarch-8"><path class="homemarch-18" d="M206.56 216.24a1.87 1.87 0 0 1-1.17.35 2.12 2.12 0 0 1-.86-.16 1.69 1.69 0 0 1-.61-.45 1.9 1.9 0 0 1-.37-.69 3.32 3.32 0 0 1-.14-.87 2.48 2.48 0 0 1 .14-.86 2.05 2.05 0 0 1 .4-.68 1.83 1.83 0 0 1 .62-.45 1.88 1.88 0 0 1 .78-.16 1.7 1.7 0 0 1 .92.23 1.81 1.81 0 0 1 .58.58 2.29 2.29 0 0 1 .3.77 3.27 3.27 0 0 1 .07.79h-3.09a1.64 1.64 0 0 0 .06.51 1.16 1.16 0 0 0 .23.43 1.14 1.14 0 0 0 .41.3 1.41 1.41 0 0 0 .58.11 1.18 1.18 0 0 0 .71-.2 1 1 0 0 0 .36-.61h.67a1.65 1.65 0 0 1-.59 1.06zm-.16-2.65a1.14 1.14 0 0 0-.62-.62 1.16 1.16 0 0 0-.47-.09 1.18 1.18 0 0 0-.48.09 1.09 1.09 0 0 0-.36.25 1.19 1.19 0 0 0-.24.37 1.4 1.4 0 0 0-.1.45h2.37a1.39 1.39 0 0 0-.11-.46z"/></g></g><g class="homemarch-8"><g class="homemarch-8"><path class="homemarch-18" d="M243.88 202.6a1.76 1.76 0 0 0-1-.3 1.85 1.85 0 0 0-.87.19 1.73 1.73 0 0 0-.6.52 2.22 2.22 0 0 0-.35.74 3.29 3.29 0 0 0-.11.86 3.69 3.69 0 0 0 .11.92 2.19 2.19 0 0 0 .35.76 1.72 1.72 0 0 0 .6.52 1.87 1.87 0 0 0 .88.19 1.7 1.7 0 0 0 .67-.12 1.52 1.52 0 0 0 .5-.34 1.59 1.59 0 0 0 .33-.52 2.17 2.17 0 0 0 .14-.66h.76a2.59 2.59 0 0 1-.74 1.68 2.4 2.4 0 0 1-1.73.6 2.76 2.76 0 0 1-1.16-.23 2.28 2.28 0 0 1-.82-.63 2.69 2.69 0 0 1-.49-.94 4 4 0 0 1-.16-1.17 3.81 3.81 0 0 1 .18-1.17 2.81 2.81 0 0 1 .52-1 2.41 2.41 0 0 1 .85-.64 2.74 2.74 0 0 1 1.16-.24 2.93 2.93 0 0 1 .85.12 2.28 2.28 0 0 1 .71.35 2 2 0 0 1 .52.58 2.11 2.11 0 0 1 .27.8h-.76a1.41 1.41 0 0 0-.61-.87zM245.84 204.59a1.92 1.92 0 0 1 .38-.69 1.8 1.8 0 0 1 .63-.46 2.31 2.31 0 0 1 1.73 0 1.81 1.81 0 0 1 .63.46 1.93 1.93 0 0 1 .38.69 2.76 2.76 0 0 1 .13.85 2.72 2.72 0 0 1-.13.85 1.93 1.93 0 0 1-.38.68 1.76 1.76 0 0 1-.63.46 2.36 2.36 0 0 1-1.73 0 1.75 1.75 0 0 1-.63-.46 1.92 1.92 0 0 1-.38-.68 2.7 2.7 0 0 1-.13-.85 2.74 2.74 0 0 1 .13-.85zm.69 1.52a1.4 1.4 0 0 0 .28.49 1.19 1.19 0 0 0 .41.3 1.25 1.25 0 0 0 1 0 1.19 1.19 0 0 0 .41-.3 1.39 1.39 0 0 0 .28-.49 2.27 2.27 0 0 0 0-1.33 1.43 1.43 0 0 0-.28-.49 1.17 1.17 0 0 0-.41-.3 1.25 1.25 0 0 0-1 0 1.17 1.17 0 0 0-.41.3 1.44 1.44 0 0 0-.28.49 2.28 2.28 0 0 0 0 1.33zM251 203.37v.63a1.43 1.43 0 0 1 1.34-.75 1.8 1.8 0 0 1 .68.11 1.13 1.13 0 0 1 .44.31 1.15 1.15 0 0 1 .24.48 2.57 2.57 0 0 1 .07.61v2.72h-.68v-2.8a.82.82 0 0 0-.22-.61.83.83 0 0 0-.62-.22 1.37 1.37 0 0 0-.54.1 1 1 0 0 0-.38.27 1.16 1.16 0 0 0-.23.41 1.67 1.67 0 0 0-.08.52v2.33h-.68v-4.13h.66zM255.18 206.58a.73.73 0 0 0 .25.25 1.18 1.18 0 0 0 .35.13 2 2 0 0 0 .4 0h.34a1.22 1.22 0 0 0 .32-.09.62.62 0 0 0 .24-.19.51.51 0 0 0 .1-.32.45.45 0 0 0-.2-.4 1.73 1.73 0 0 0-.5-.22l-.65-.15a3.37 3.37 0 0 1-.65-.19 1.35 1.35 0 0 1-.5-.35.91.91 0 0 1-.2-.62 1 1 0 0 1 .14-.54 1.15 1.15 0 0 1 .36-.36 1.68 1.68 0 0 1 .5-.21 2.3 2.3 0 0 1 .55-.07 3.27 3.27 0 0 1 .65.06 1.5 1.5 0 0 1 .52.21 1.07 1.07 0 0 1 .36.4 1.52 1.52 0 0 1 .16.63H257a.65.65 0 0 0-.33-.54 1 1 0 0 0-.3-.12 1.59 1.59 0 0 0-.33 0h-.31a1 1 0 0 0-.28.08.56.56 0 0 0-.21.16.4.4 0 0 0-.08.26.38.38 0 0 0 .12.29 1 1 0 0 0 .32.19 2.69 2.69 0 0 0 .43.13l.48.11.5.14a1.65 1.65 0 0 1 .43.21 1 1 0 0 1 .3.33 1 1 0 0 1 .12.5 1.15 1.15 0 0 1-.16.62 1.23 1.23 0 0 1-.41.4 1.72 1.72 0 0 1-.57.21 3.35 3.35 0 0 1-.63.06 2.93 2.93 0 0 1-.66-.07 1.61 1.61 0 0 1-.55-.24 1.2 1.2 0 0 1-.38-.43 1.47 1.47 0 0 1-.16-.65h.68a.75.75 0 0 0 .16.39zM261.29 207.5v-.66a1.39 1.39 0 0 1-.55.56 1.65 1.65 0 0 1-.79.18 1.86 1.86 0 0 1-.68-.11 1.08 1.08 0 0 1-.44-.31 1.15 1.15 0 0 1-.24-.48 2.58 2.58 0 0 1-.07-.61v-2.72h.68v2.8a.82.82 0 0 0 .22.61.83.83 0 0 0 .62.22 1.37 1.37 0 0 0 .54-.1 1 1 0 0 0 .38-.27 1.16 1.16 0 0 0 .23-.41 1.67 1.67 0 0 0 .08-.52v-2.33h.68v4.13h-.64zM263.44 203.37v.63a1.61 1.61 0 0 1 2-.54.9.9 0 0 1 .44.54 1.44 1.44 0 0 1 .55-.52 1.55 1.55 0 0 1 .75-.18 2.18 2.18 0 0 1 .56.07 1.18 1.18 0 0 1 .43.21 1 1 0 0 1 .28.37 1.36 1.36 0 0 1 .1.55v3h-.68v-2.71a1.91 1.91 0 0 0 0-.36.75.75 0 0 0-.12-.29.61.61 0 0 0-.24-.2 1 1 0 0 0-.4-.07 1.07 1.07 0 0 0-.79.29 1 1 0 0 0-.29.77v2.57h-.68v-2.71a1.73 1.73 0 0 0 0-.37.79.79 0 0 0-.12-.29.58.58 0 0 0-.24-.19.92.92 0 0 0-.38-.07 1 1 0 0 0-.51.12 1.16 1.16 0 0 0-.54.64 1 1 0 0 0-.06.3v2.57h-.7v-4.13h.64zM272.39 207.24a1.87 1.87 0 0 1-1.17.35 2.12 2.12 0 0 1-.86-.16 1.69 1.69 0 0 1-.61-.45 1.89 1.89 0 0 1-.37-.69 3.26 3.26 0 0 1-.14-.87 2.49 2.49 0 0 1 .14-.86 2.06 2.06 0 0 1 .4-.68 1.83 1.83 0 0 1 .62-.45 1.88 1.88 0 0 1 .78-.16 1.7 1.7 0 0 1 .92.23 1.81 1.81 0 0 1 .58.58 2.3 2.3 0 0 1 .3.77 3.29 3.29 0 0 1 .07.79H270a1.62 1.62 0 0 0 .06.51 1.14 1.14 0 0 0 .64.73 1.41 1.41 0 0 0 .58.11 1.18 1.18 0 0 0 .71-.2 1 1 0 0 0 .36-.61h.65a1.65 1.65 0 0 1-.61 1.06zm-.16-2.65a1.16 1.16 0 0 0-.25-.37 1.17 1.17 0 0 0-.37-.25 1.15 1.15 0 0 0-.47-.09 1.18 1.18 0 0 0-.48.09 1.08 1.08 0 0 0-.36.25 1.2 1.2 0 0 0-.24.37 1.41 1.41 0 0 0-.1.45h2.37a1.38 1.38 0 0 0-.11-.46zM274.22 203.37v.87a1.84 1.84 0 0 1 .61-.74 1.52 1.52 0 0 1 .91-.22v.72a1.9 1.9 0 0 0-.7.11 1.09 1.09 0 0 0-.46.33 1.36 1.36 0 0 0-.26.52 2.85 2.85 0 0 0-.08.71v1.84h-.68v-4.13h.64z"/></g><g class="homemarch-8"><path class="homemarch-18" d="M236.73 210.8l1.8 4.79 1.81-4.79h1v5.71h-.72v-4.75l-1.78 4.75h-.65l-1.78-4.75v4.75h-.72v-5.71h1zM246 216.48a1 1 0 0 1-.49.1.59.59 0 0 1-.42-.15.64.64 0 0 1-.09-.43 1.63 1.63 0 0 1-.65.48 2.15 2.15 0 0 1-.8.15 2.18 2.18 0 0 1-.53-.06 1.23 1.23 0 0 1-.44-.2 1 1 0 0 1-.29-.36 1.4 1.4 0 0 1 0-1.11 1 1 0 0 1 .32-.36 1.44 1.44 0 0 1 .45-.21l.52-.12.53-.08a2.88 2.88 0 0 0 .44-.08.74.74 0 0 0 .3-.15.37.37 0 0 0 .11-.29.67.67 0 0 0-.08-.36.57.57 0 0 0-.22-.21.87.87 0 0 0-.29-.1h-.32a1.43 1.43 0 0 0-.72.16.7.7 0 0 0-.31.62h-.72a1.47 1.47 0 0 1 .16-.65 1.21 1.21 0 0 1 .38-.43 1.62 1.62 0 0 1 .55-.24 2.9 2.9 0 0 1 .66-.07 3.91 3.91 0 0 1 .56 0 1.46 1.46 0 0 1 .5.16 1 1 0 0 1 .36.35 1.11 1.11 0 0 1 .14.58v2.12a1.58 1.58 0 0 0 0 .35.16.16 0 0 0 .19.11h.21v.53zm-1.1-2.12a.84.84 0 0 1-.34.14l-.43.07-.46.06a1.73 1.73 0 0 0-.42.12.76.76 0 0 0-.3.23.64.64 0 0 0-.12.4.54.54 0 0 0 .07.28.56.56 0 0 0 .18.19.73.73 0 0 0 .25.1 1.39 1.39 0 0 0 .3 0 1.62 1.62 0 0 0 .58-.09 1.21 1.21 0 0 0 .39-.23.9.9 0 0 0 .22-.3.74.74 0 0 0 .07-.31v-.69zM247.15 212.37v.63a1.43 1.43 0 0 1 1.34-.75 1.8 1.8 0 0 1 .68.11 1.12 1.12 0 0 1 .44.31 1.17 1.17 0 0 1 .24.48 2.58 2.58 0 0 1 .07.61v2.72h-.68v-2.8a.82.82 0 0 0-.22-.61.83.83 0 0 0-.62-.22 1.38 1.38 0 0 0-.54.1 1 1 0 0 0-.38.27 1.15 1.15 0 0 0-.23.41 1.67 1.67 0 0 0-.08.52v2.33h-.68v-4.13h.64zM254.46 216.48a1 1 0 0 1-.49.1.59.59 0 0 1-.42-.15.64.64 0 0 1-.15-.48 1.63 1.63 0 0 1-.65.48 2.15 2.15 0 0 1-.8.15 2.18 2.18 0 0 1-.53-.06 1.23 1.23 0 0 1-.44-.2 1 1 0 0 1-.29-.36 1.4 1.4 0 0 1 0-1.11 1 1 0 0 1 .32-.36 1.44 1.44 0 0 1 .45-.21l.52-.12.53-.08a2.93 2.93 0 0 0 .45-.08.73.73 0 0 0 .3-.15.37.37 0 0 0 .11-.29.67.67 0 0 0-.08-.36.56.56 0 0 0-.21-.21.88.88 0 0 0-.3-.1h-.32a1.43 1.43 0 0 0-.72.16.7.7 0 0 0-.31.62h-.68a1.47 1.47 0 0 1 .16-.65 1.21 1.21 0 0 1 .38-.43 1.62 1.62 0 0 1 .55-.24 2.9 2.9 0 0 1 .66-.07 3.93 3.93 0 0 1 .56 0 1.45 1.45 0 0 1 .5.16.94.94 0 0 1 .36.35 1.1 1.1 0 0 1 .14.58v2.12a1.66 1.66 0 0 0 0 .35.17.17 0 0 0 .19.11h.21v.53zm-1.1-2.12a.84.84 0 0 1-.34.14l-.44.07-.46.06a1.73 1.73 0 0 0-.42.12.76.76 0 0 0-.3.23.64.64 0 0 0-.12.4.54.54 0 0 0 .07.28.56.56 0 0 0 .18.19.73.73 0 0 0 .25.1 1.4 1.4 0 0 0 .3 0 1.62 1.62 0 0 0 .57-.09 1.23 1.23 0 0 0 .39-.23.88.88 0 0 0 .22-.3.74.74 0 0 0 .07-.31v-.69zM258 217.67a1.89 1.89 0 0 1-1.45.5 2.85 2.85 0 0 1-.59-.06 1.82 1.82 0 0 1-.54-.21 1.27 1.27 0 0 1-.4-.38 1.07 1.07 0 0 1-.18-.57h.68a.5.5 0 0 0 .12.31.84.84 0 0 0 .26.21 1.28 1.28 0 0 0 .34.12 1.87 1.87 0 0 0 .35 0 1.26 1.26 0 0 0 .57-.12 1.07 1.07 0 0 0 .38-.32 1.34 1.34 0 0 0 .22-.49 2.77 2.77 0 0 0 .07-.63v-.23a1.15 1.15 0 0 1-.53.56 1.65 1.65 0 0 1-.75.18 1.82 1.82 0 0 1-.81-.17 1.69 1.69 0 0 1-.58-.45 1.93 1.93 0 0 1-.35-.66 2.74 2.74 0 0 1-.12-.8 3.12 3.12 0 0 1 .1-.75 2.05 2.05 0 0 1 .32-.7 1.77 1.77 0 0 1 .59-.52 1.84 1.84 0 0 1 .9-.2 1.53 1.53 0 0 1 .72.17 1.21 1.21 0 0 1 .51.51v-.59h.64v3.78a2.18 2.18 0 0 1-.47 1.51zm-.87-1.86a1.11 1.11 0 0 0 .38-.37 1.7 1.7 0 0 0 .21-.52 2.51 2.51 0 0 0 .07-.58 2.25 2.25 0 0 0-.06-.54 1.5 1.5 0 0 0-.2-.48 1.06 1.06 0 0 0-.36-.34 1.08 1.08 0 0 0-.54-.13 1.18 1.18 0 0 0-.56.12 1.09 1.09 0 0 0-.38.33 1.41 1.41 0 0 0-.22.48 2.35 2.35 0 0 0-.07.57 2.84 2.84 0 0 0 .06.56 1.59 1.59 0 0 0 .19.51 1.07 1.07 0 0 0 .36.37 1 1 0 0 0 .56.14 1.09 1.09 0 0 0 .6-.12zM262.3 216.24a1.87 1.87 0 0 1-1.17.35 2.12 2.12 0 0 1-.86-.16 1.69 1.69 0 0 1-.61-.45 1.89 1.89 0 0 1-.37-.69 3.26 3.26 0 0 1-.14-.87 2.49 2.49 0 0 1 .14-.86 2.06 2.06 0 0 1 .4-.68 1.83 1.83 0 0 1 .62-.45 1.88 1.88 0 0 1 .78-.16 1.7 1.7 0 0 1 .92.23 1.81 1.81 0 0 1 .58.58 2.3 2.3 0 0 1 .3.77 3.29 3.29 0 0 1 .07.79h-3.09a1.62 1.62 0 0 0 .06.51 1.14 1.14 0 0 0 .64.73 1.41 1.41 0 0 0 .58.11 1.18 1.18 0 0 0 .71-.2 1 1 0 0 0 .36-.61h.67a1.65 1.65 0 0 1-.59 1.06zm-.16-2.65a1.16 1.16 0 0 0-.25-.37 1.17 1.17 0 0 0-.37-.25 1.15 1.15 0 0 0-.47-.09 1.18 1.18 0 0 0-.48.09 1.08 1.08 0 0 0-.36.25 1.2 1.2 0 0 0-.24.37 1.41 1.41 0 0 0-.1.45h2.37a1.38 1.38 0 0 0-.11-.46zM264.15 212.37v.63a1.61 1.61 0 0 1 2-.54.9.9 0 0 1 .44.54 1.44 1.44 0 0 1 .55-.52 1.55 1.55 0 0 1 .75-.18 2.18 2.18 0 0 1 .56.07 1.18 1.18 0 0 1 .43.21 1 1 0 0 1 .28.37 1.36 1.36 0 0 1 .1.55v3h-.68v-2.71a1.91 1.91 0 0 0 0-.36.75.75 0 0 0-.12-.29.61.61 0 0 0-.24-.2 1 1 0 0 0-.4-.07 1.07 1.07 0 0 0-.79.29 1 1 0 0 0-.29.77v2.57h-.68v-2.71a1.73 1.73 0 0 0 0-.37.79.79 0 0 0-.12-.29.58.58 0 0 0-.24-.19.92.92 0 0 0-.38-.07 1 1 0 0 0-.51.12 1.16 1.16 0 0 0-.54.64 1 1 0 0 0-.06.3v2.57h-.68v-4.13h.64zM273.1 216.24a1.87 1.87 0 0 1-1.17.35 2.12 2.12 0 0 1-.86-.16 1.69 1.69 0 0 1-.61-.45 1.89 1.89 0 0 1-.37-.69 3.26 3.26 0 0 1-.14-.87 2.49 2.49 0 0 1 .14-.86 2.06 2.06 0 0 1 .4-.68 1.83 1.83 0 0 1 .62-.45 1.88 1.88 0 0 1 .78-.16 1.7 1.7 0 0 1 .92.23 1.81 1.81 0 0 1 .58.58 2.3 2.3 0 0 1 .3.77 3.29 3.29 0 0 1 .07.79h-3.09a1.62 1.62 0 0 0 .06.51 1.14 1.14 0 0 0 .64.73 1.41 1.41 0 0 0 .58.11 1.18 1.18 0 0 0 .71-.2 1 1 0 0 0 .36-.61h.67a1.65 1.65 0 0 1-.59 1.06zm-.16-2.65a1.16 1.16 0 0 0-.25-.37 1.17 1.17 0 0 0-.37-.25 1.15 1.15 0 0 0-.47-.09 1.18 1.18 0 0 0-.48.09 1.08 1.08 0 0 0-.36.25 1.2 1.2 0 0 0-.24.37 1.41 1.41 0 0 0-.1.45H273a1.38 1.38 0 0 0-.07-.46zM275 212.37v.63a1.43 1.43 0 0 1 1.34-.75 1.81 1.81 0 0 1 .68.11 1.13 1.13 0 0 1 .44.31 1.18 1.18 0 0 1 .24.48 2.58 2.58 0 0 1 .07.61v2.72h-.68v-2.8a.82.82 0 0 0-.22-.61.83.83 0 0 0-.62-.22 1.37 1.37 0 0 0-.54.1 1 1 0 0 0-.38.27 1.16 1.16 0 0 0-.23.41 1.67 1.67 0 0 0-.08.52v2.33h-.68v-4.13h.66zM280.37 212.37v.63h-.82v2.56a.72.72 0 0 0 0 .19.19.19 0 0 0 .08.11.34.34 0 0 0 .16.05h.57v.6h-.52a2.4 2.4 0 0 1-.45 0 .65.65 0 0 1-.3-.13.56.56 0 0 1-.17-.27 1.58 1.58 0 0 1-.06-.46V213h-.7v-.6h.7v-1.24h.68v1.24h.82z"/></g></g><g class="homemarch-8"><path class="homemarch-18" d="M316.46 205.84a1.78 1.78 0 0 1 1.31.44 2 2 0 0 1 0 2.49 1.74 1.74 0 0 1-1.31.44h-1.74v2.33H314v-5.71h2.5zm-.26 2.73a1.35 1.35 0 0 0 .95-.26 1.17 1.17 0 0 0 0-1.56 1.4 1.4 0 0 0-.95-.27h-1.49v2.09h1.49zM319.6 205.84v5.71h-.68v-5.71h.68zM323.28 211.54v-.66a1.39 1.39 0 0 1-.55.56 1.65 1.65 0 0 1-.79.18 1.87 1.87 0 0 1-.68-.11 1.1 1.1 0 0 1-.44-.31 1.16 1.16 0 0 1-.24-.48 2.57 2.57 0 0 1-.07-.61v-2.72h.68v2.8a.82.82 0 0 0 .22.61.83.83 0 0 0 .62.22 1.37 1.37 0 0 0 .54-.1 1 1 0 0 0 .38-.27 1.18 1.18 0 0 0 .23-.41 1.67 1.67 0 0 0 .08-.52v-2.33h.68v4.13h-.64zM327.89 212.71a1.89 1.89 0 0 1-1.45.5 2.85 2.85 0 0 1-.59-.06 1.8 1.8 0 0 1-.54-.21 1.26 1.26 0 0 1-.4-.38 1.07 1.07 0 0 1-.18-.57h.68a.5.5 0 0 0 .12.31.81.81 0 0 0 .26.21 1.27 1.27 0 0 0 .34.12 1.88 1.88 0 0 0 .35 0 1.26 1.26 0 0 0 .57-.12 1.07 1.07 0 0 0 .38-.32 1.34 1.34 0 0 0 .22-.49 2.77 2.77 0 0 0 .07-.63v-.27a1.14 1.14 0 0 1-.53.56 1.65 1.65 0 0 1-.75.18 1.82 1.82 0 0 1-.81-.17 1.69 1.69 0 0 1-.63-.37 1.93 1.93 0 0 1-.35-.66 2.74 2.74 0 0 1-.12-.8 3.17 3.17 0 0 1 .1-.75 2.05 2.05 0 0 1 .37-.79 1.77 1.77 0 0 1 .59-.52 1.84 1.84 0 0 1 .9-.2 1.53 1.53 0 0 1 .72.17 1.21 1.21 0 0 1 .51.51v-.59h.64v3.78a2.17 2.17 0 0 1-.47 1.56zm-.89-1.86a1.11 1.11 0 0 0 .38-.37 1.68 1.68 0 0 0 .21-.52 2.52 2.52 0 0 0 .07-.58 2.25 2.25 0 0 0-.06-.54 1.49 1.49 0 0 0-.2-.48 1 1 0 0 0-.91-.47 1.18 1.18 0 0 0-.56.12 1.08 1.08 0 0 0-.38.33 1.4 1.4 0 0 0-.22.48 2.3 2.3 0 0 0-.07.57 2.84 2.84 0 0 0 .06.56 1.61 1.61 0 0 0 .19.51 1.07 1.07 0 0 0 .36.37 1 1 0 0 0 .56.14 1.1 1.1 0 0 0 .57-.12zM329.26 206.67v-.83h.68v.83h-.68zm.68.74v4.13h-.68v-4.13h.68zM331.48 207.41v.66a1.43 1.43 0 0 1 1.34-.75 1.81 1.81 0 0 1 .68.11 1.13 1.13 0 0 1 .44.31 1.18 1.18 0 0 1 .24.48 2.58 2.58 0 0 1 .07.61v2.72h-.68v-2.8a.82.82 0 0 0-.22-.61.83.83 0 0 0-.62-.22 1.37 1.37 0 0 0-.54.1 1 1 0 0 0-.38.27 1.16 1.16 0 0 0-.23.41 1.67 1.67 0 0 0-.08.52v2.33h-.68v-4.13h.64zM335.66 210.62a.74.74 0 0 0 .25.25 1.17 1.17 0 0 0 .35.13 2 2 0 0 0 .4 0h.34a1.2 1.2 0 0 0 .32-.09.62.62 0 0 0 .24-.19.51.51 0 0 0 .1-.32.45.45 0 0 0-.2-.4 1.74 1.74 0 0 0-.5-.22l-.65-.15a3.37 3.37 0 0 1-.65-.19 1.35 1.35 0 0 1-.5-.35.91.91 0 0 1-.2-.62 1 1 0 0 1 .14-.54 1.15 1.15 0 0 1 .36-.36 1.68 1.68 0 0 1 .5-.21 2.3 2.3 0 0 1 .55-.07 3.24 3.24 0 0 1 .65.06 1.49 1.49 0 0 1 .52.21 1.07 1.07 0 0 1 .36.4 1.52 1.52 0 0 1 .16.63h-.68a.65.65 0 0 0-.33-.54 1 1 0 0 0-.3-.12 1.58 1.58 0 0 0-.33 0h-.31a1 1 0 0 0-.28.08.56.56 0 0 0-.21.16.4.4 0 0 0-.08.26.38.38 0 0 0 .12.29 1 1 0 0 0 .32.19 2.69 2.69 0 0 0 .43.13l.48.11.5.14a1.65 1.65 0 0 1 .43.21 1 1 0 0 1 .3.33 1 1 0 0 1 .12.5 1.15 1.15 0 0 1-.16.62 1.23 1.23 0 0 1-.41.4 1.72 1.72 0 0 1-.57.21 3.36 3.36 0 0 1-.63.06 2.9 2.9 0 0 1-.65-.07 1.6 1.6 0 0 1-.55-.24 1.2 1.2 0 0 1-.38-.43 1.5 1.5 0 0 1-.16-.65h.68a.76.76 0 0 0 .11.39z"/></g><g class="homemarch-8"><path class="homemarch-18" d="M189.43 168.25a3 3 0 0 0-1.75-.51 3.13 3.13 0 0 0-1.48.32 2.91 2.91 0 0 0-1 .87 3.76 3.76 0 0 0-.59 1.25 5.57 5.57 0 0 0-.19 1.46 6.24 6.24 0 0 0 .19 1.56 3.73 3.73 0 0 0 .59 1.28 2.9 2.9 0 0 0 1 .87 3.17 3.17 0 0 0 1.48.32 2.86 2.86 0 0 0 1.13-.21 2.56 2.56 0 0 0 .85-.58 2.68 2.68 0 0 0 .56-.88 3.68 3.68 0 0 0 .24-1.11h1.28a4.38 4.38 0 0 1-1.25 2.83 4.06 4.06 0 0 1-2.91 1 4.63 4.63 0 0 1-2-.38 3.83 3.83 0 0 1-1.39-1.06 4.55 4.55 0 0 1-.83-1.59 6.8 6.8 0 0 1-.28-2 6.42 6.42 0 0 1 .3-2 4.76 4.76 0 0 1 .87-1.61 4 4 0 0 1 1.43-1.09 4.61 4.61 0 0 1 2-.4 5 5 0 0 1 1.43.2 3.84 3.84 0 0 1 1.2.59 3.33 3.33 0 0 1 .88 1 3.58 3.58 0 0 1 .46 1.36h-1.28a2.38 2.38 0 0 0-.94-1.49zM198 176.07a3.17 3.17 0 0 1-2 .59 3.59 3.59 0 0 1-1.45-.27 2.85 2.85 0 0 1-1-.76 3.2 3.2 0 0 1-.63-1.16 5.56 5.56 0 0 1-.24-1.47 4.19 4.19 0 0 1 .24-1.46 3.48 3.48 0 0 1 .68-1.15 3.09 3.09 0 0 1 1-.75 3.18 3.18 0 0 1 1.32-.27 2.86 2.86 0 0 1 1.54.38 3.07 3.07 0 0 1 1 1A3.85 3.85 0 0 1 199 172a5.56 5.56 0 0 1 .11 1.33h-5.22a2.76 2.76 0 0 0 .11.87 2 2 0 0 0 .39.73 1.93 1.93 0 0 0 .69.51 2.38 2.38 0 0 0 1 .19 2 2 0 0 0 1.19-.34 1.63 1.63 0 0 0 .61-1H199a2.79 2.79 0 0 1-1 1.78zm-.28-4.48a2 2 0 0 0-.42-.63 2 2 0 0 0-1.41-.57 2 2 0 0 0-.8.15 1.85 1.85 0 0 0-.61.43 2 2 0 0 0-.4.63 2.38 2.38 0 0 0-.18.76h4a2.35 2.35 0 0 0-.21-.76zM201.22 169.55v1.11a2.41 2.41 0 0 1 2.27-1.27 3 3 0 0 1 1.15.19 1.88 1.88 0 0 1 .74.53 1.94 1.94 0 0 1 .4.8 4.32 4.32 0 0 1 .11 1v4.59h-1.15v-4.7a1.39 1.39 0 0 0-.38-1 1.41 1.41 0 0 0-1-.38 2.35 2.35 0 0 0-.91.16 1.72 1.72 0 0 0-.64.46 2 2 0 0 0-.38.69 2.84 2.84 0 0 0-.13.87v3.94h-1.15v-7h1.08zM210.48 169.55v1h-1.39v4.33a1.25 1.25 0 0 0 0 .32.33.33 0 0 0 .13.19.56.56 0 0 0 .26.09h.97v1h-.88a4.15 4.15 0 0 1-.76-.06 1.13 1.13 0 0 1-.51-.22 1 1 0 0 1-.29-.46 2.63 2.63 0 0 1-.09-.78v-4.44h-1.19v-1h1.19v-2.09h1.15v2.09h1.39zM212.66 169.55V171a3.12 3.12 0 0 1 1-1.25 2.58 2.58 0 0 1 1.54-.38v1.21a3.24 3.24 0 0 0-1.17.19 1.85 1.85 0 0 0-.78.55 2.28 2.28 0 0 0-.43.88 4.78 4.78 0 0 0-.13 1.19v3.1h-1.15v-7h1.08zM222.15 176.49a1.62 1.62 0 0 1-.82.18 1 1 0 0 1-.71-.25 1.08 1.08 0 0 1-.26-.82 2.75 2.75 0 0 1-1.1.82 3.79 3.79 0 0 1-2.25.14 2.07 2.07 0 0 1-.74-.34 1.6 1.6 0 0 1-.49-.6 2 2 0 0 1-.18-.9 2 2 0 0 1 .2-1 1.75 1.75 0 0 1 .53-.61 2.43 2.43 0 0 1 .76-.36q.42-.12.87-.2t.9-.14a5 5 0 0 0 .75-.13 1.25 1.25 0 0 0 .51-.26.62.62 0 0 0 .19-.49 1.14 1.14 0 0 0-.14-.61 1 1 0 0 0-.36-.35 1.48 1.48 0 0 0-.5-.16 3.72 3.72 0 0 0-.55 0 2.43 2.43 0 0 0-1.21.28 1.17 1.17 0 0 0-.53 1h-1.15a2.47 2.47 0 0 1 .27-1.09 2.05 2.05 0 0 1 .65-.72 2.73 2.73 0 0 1 .92-.4 4.88 4.88 0 0 1 1.11-.12 6.54 6.54 0 0 1 .94.07 2.46 2.46 0 0 1 .84.28 1.62 1.62 0 0 1 .61.59 1.87 1.87 0 0 1 .23 1v3.58a2.7 2.7 0 0 0 0 .59.28.28 0 0 0 .32.19 1.38 1.38 0 0 0 .35-.05v.89zm-1.86-3.57a1.42 1.42 0 0 1-.57.23q-.35.07-.74.12l-.78.11a2.88 2.88 0 0 0-.7.19 1.27 1.27 0 0 0-.51.38 1.07 1.07 0 0 0-.2.68.93.93 0 0 0 .11.48 1 1 0 0 0 .3.32 1.24 1.24 0 0 0 .42.17 2.35 2.35 0 0 0 .51.05 2.74 2.74 0 0 0 1-.15 2 2 0 0 0 .66-.39 1.53 1.53 0 0 0 .38-.51 1.28 1.28 0 0 0 .12-.52v-1.17zM224.3 166.89v9.63h-1.15v-9.63h1.15zM226 168.29v-1.4h1.15v1.4H226zm1.15 1.25v7H226v-7h1.15zM232.44 170.56h-3.94v-1h5.42v.78l-4.26 5.18h4.45v1h-5.88v-.88zM240.08 176.07a3.17 3.17 0 0 1-2 .59 3.59 3.59 0 0 1-1.45-.27 2.86 2.86 0 0 1-1-.76 3.21 3.21 0 0 1-.63-1.16 5.6 5.6 0 0 1-.24-1.47 4.19 4.19 0 0 1 .24-1.46 3.48 3.48 0 0 1 .68-1.15 3.09 3.09 0 0 1 1-.75 3.18 3.18 0 0 1 1.32-.27 2.87 2.87 0 0 1 1.54.38 3.06 3.06 0 0 1 1 1 3.87 3.87 0 0 1 .51 1.29 5.51 5.51 0 0 1 .11 1.33H236a2.74 2.74 0 0 0 .11.87 2 2 0 0 0 .39.73 1.92 1.92 0 0 0 .69.51 2.37 2.37 0 0 0 1 .19 2 2 0 0 0 1.19-.34 1.63 1.63 0 0 0 .61-1h1.13a2.79 2.79 0 0 1-1.04 1.74zm-.28-4.48a2 2 0 0 0-.42-.63 2 2 0 0 0-1.41-.57 2 2 0 0 0-.8.15 1.83 1.83 0 0 0-.61.43 2 2 0 0 0-.41.63 2.38 2.38 0 0 0-.17.76h4a2.36 2.36 0 0 0-.18-.76zM247.34 176.52v-.94a1.68 1.68 0 0 1-.89.84 3.4 3.4 0 0 1-1.34.26 3.14 3.14 0 0 1-1.41-.3 2.9 2.9 0 0 1-1-.8 3.46 3.46 0 0 1-.6-1.16 4.74 4.74 0 0 1-.2-1.4 4.9 4.9 0 0 1 .2-1.4 3.3 3.3 0 0 1 .59-1.15 2.87 2.87 0 0 1 1-.78 3.17 3.17 0 0 1 1.4-.29 3.38 3.38 0 0 1 .58.05 3 3 0 0 1 .62.18 2.66 2.66 0 0 1 .59.34 1.86 1.86 0 0 1 .46.52v-3.59h1.15v9.63h-1.15zm-4.12-2.52a2.57 2.57 0 0 0 .39.83 1.92 1.92 0 0 0 .67.58 2.05 2.05 0 0 0 1 .22 1.89 1.89 0 0 0 1.65-.83 2.5 2.5 0 0 0 .37-.84 4.05 4.05 0 0 0 .11-1 4 4 0 0 0-.12-1 2.45 2.45 0 0 0-.38-.84 2 2 0 0 0-.68-.59 2.14 2.14 0 0 0-1-.22 2 2 0 0 0-1 .23 1.83 1.83 0 0 0-.65.61 2.65 2.65 0 0 0-.35.86 4.57 4.57 0 0 0-.11 1 3.55 3.55 0 0 0 .1.99zM259.74 168.25a3 3 0 0 0-1.75-.51 3.13 3.13 0 0 0-1.48.32 2.9 2.9 0 0 0-1 .87 3.75 3.75 0 0 0-.59 1.25 5.57 5.57 0 0 0-.19 1.46 6.24 6.24 0 0 0 .19 1.56 3.72 3.72 0 0 0 .59 1.28 2.89 2.89 0 0 0 1 .87 3.17 3.17 0 0 0 1.48.32 2.85 2.85 0 0 0 1.13-.21 2.55 2.55 0 0 0 .85-.58 2.68 2.68 0 0 0 .56-.88 3.69 3.69 0 0 0 .24-1.11h1.28a4.38 4.38 0 0 1-1.25 2.83 4.06 4.06 0 0 1-2.91 1 4.63 4.63 0 0 1-2-.38 3.82 3.82 0 0 1-1.39-1.06 4.54 4.54 0 0 1-.83-1.59 6.79 6.79 0 0 1-.28-2 6.42 6.42 0 0 1 .3-2 4.74 4.74 0 0 1 .87-1.61 4 4 0 0 1 1.43-1.09 4.61 4.61 0 0 1 2-.4 5 5 0 0 1 1.43.2 3.84 3.84 0 0 1 1.2.59 3.34 3.34 0 0 1 .88 1 3.59 3.59 0 0 1 .46 1.36h-1.28a2.38 2.38 0 0 0-.94-1.49zM263.17 171.6a3.27 3.27 0 0 1 .65-1.16 3.05 3.05 0 0 1 1.07-.78 3.9 3.9 0 0 1 2.92 0 3.06 3.06 0 0 1 1.06.78 3.27 3.27 0 0 1 .65 1.16 4.65 4.65 0 0 1 .22 1.44 4.59 4.59 0 0 1-.22 1.43 3.28 3.28 0 0 1-.65 1.15 3 3 0 0 1-1.06.77 4 4 0 0 1-2.92 0 3 3 0 0 1-1.07-.77 3.28 3.28 0 0 1-.65-1.15A4.59 4.59 0 0 1 263 173a4.65 4.65 0 0 1 .17-1.4zm1.17 2.56a2.34 2.34 0 0 0 .47.82 2 2 0 0 0 .69.51 2.11 2.11 0 0 0 1.69 0 2 2 0 0 0 .69-.51 2.34 2.34 0 0 0 .47-.82 3.84 3.84 0 0 0 0-2.25 2.42 2.42 0 0 0-.47-.83 2 2 0 0 0-.69-.51 2.12 2.12 0 0 0-1.69 0 2 2 0 0 0-.69.51 2.42 2.42 0 0 0-.47.83 3.86 3.86 0 0 0 0 2.26zM272 169.55v1.11a2.41 2.41 0 0 1 2.27-1.27 3 3 0 0 1 1.15.19 1.88 1.88 0 0 1 .74.53 1.94 1.94 0 0 1 .4.8 4.32 4.32 0 0 1 .11 1v4.59h-1.15v-4.7a1.39 1.39 0 0 0-.38-1 1.41 1.41 0 0 0-1-.38 2.35 2.35 0 0 0-.91.16 1.72 1.72 0 0 0-.64.46 2 2 0 0 0-.38.69 2.84 2.84 0 0 0-.13.87v3.94h-1.15v-7H272zM277.61 170.56v-1h1.17v-1a1.63 1.63 0 0 1 .49-1.29 2.1 2.1 0 0 1 1.44-.44h.37a2 2 0 0 1 .37.08v1a1.49 1.49 0 0 0-.32-.07h-.32a1.11 1.11 0 0 0-.65.16.71.71 0 0 0-.23.62v1h1.35v1h-1.35v6h-1.15v-6h-1.17zM282.23 168.29v-1.4h1.15v1.4h-1.15zm1.15 1.25v7h-1.15v-7h1.15zM290.26 178.49a3.19 3.19 0 0 1-2.46.85 4.8 4.8 0 0 1-1-.11 3 3 0 0 1-.92-.35 2.14 2.14 0 0 1-.68-.63 1.8 1.8 0 0 1-.3-1h1.15a.85.85 0 0 0 .2.53 1.42 1.42 0 0 0 .45.35 2.17 2.17 0 0 0 .57.2 3.13 3.13 0 0 0 .59.06 2.12 2.12 0 0 0 1-.2 1.79 1.79 0 0 0 .65-.54 2.24 2.24 0 0 0 .37-.83 4.59 4.59 0 0 0 .12-1.07v-.46a1.93 1.93 0 0 1-.9 1 2.79 2.79 0 0 1-1.28.3 3.08 3.08 0 0 1-1.36-.28 2.85 2.85 0 0 1-1-.76 3.24 3.24 0 0 1-.59-1.12 4.6 4.6 0 0 1-.2-1.36 5.33 5.33 0 0 1 .16-1.28 3.49 3.49 0 0 1 .54-1.19 3 3 0 0 1 1-.88 3.1 3.1 0 0 1 1.52-.34 2.58 2.58 0 0 1 1.21.29 2 2 0 0 1 .86.87v-1H291v6.38a3.67 3.67 0 0 1-.74 2.57zm-1.46-3.14a1.88 1.88 0 0 0 .64-.62 2.83 2.83 0 0 0 .36-.87 4.23 4.23 0 0 0 .12-1 3.8 3.8 0 0 0-.11-.9 2.53 2.53 0 0 0-.34-.8 1.78 1.78 0 0 0-.61-.57 1.82 1.82 0 0 0-.92-.22 2 2 0 0 0-.94.21 1.84 1.84 0 0 0-.64.56 2.36 2.36 0 0 0-.36.81 4 4 0 0 0-.11 1 4.85 4.85 0 0 0 .09.94 2.7 2.7 0 0 0 .32.86 1.82 1.82 0 0 0 .61.62 1.75 1.75 0 0 0 .94.24 1.86 1.86 0 0 0 .95-.26zM297.33 176.52v-1.11a2.35 2.35 0 0 1-.93 1 2.79 2.79 0 0 1-1.33.3 3.11 3.11 0 0 1-1.15-.18 1.82 1.82 0 0 1-.74-.52 2 2 0 0 1-.4-.8 4.33 4.33 0 0 1-.11-1v-4.59h1.15v4.72a1.39 1.39 0 0 0 .38 1 1.4 1.4 0 0 0 1 .38 2.34 2.34 0 0 0 .91-.16 1.7 1.7 0 0 0 .64-.46 2 2 0 0 0 .38-.69 2.84 2.84 0 0 0 .13-.87v-3.94h1.15v7h-1.08zM301 169.55V171a3.12 3.12 0 0 1 1-1.25 2.58 2.58 0 0 1 1.54-.38v1.21a3.24 3.24 0 0 0-1.17.19 1.85 1.85 0 0 0-.78.55 2.28 2.28 0 0 0-.43.88 4.78 4.78 0 0 0-.13 1.19v3.1H300v-7h1zM310.54 176.49a1.62 1.62 0 0 1-.82.18 1 1 0 0 1-.71-.25 1.08 1.08 0 0 1-.26-.82 2.75 2.75 0 0 1-1.1.82 3.79 3.79 0 0 1-2.25.14 2.07 2.07 0 0 1-.74-.34 1.6 1.6 0 0 1-.49-.6 2 2 0 0 1-.18-.9 2 2 0 0 1 .2-1 1.75 1.75 0 0 1 .53-.61 2.43 2.43 0 0 1 .76-.36q.42-.12.87-.2t.9-.14a5 5 0 0 0 .75-.13 1.25 1.25 0 0 0 .51-.26.62.62 0 0 0 .19-.49 1.14 1.14 0 0 0-.14-.61 1 1 0 0 0-.36-.35 1.48 1.48 0 0 0-.5-.16 3.72 3.72 0 0 0-.55 0 2.43 2.43 0 0 0-1.21.28 1.17 1.17 0 0 0-.53 1h-1.15a2.47 2.47 0 0 1 .27-1.09 2.05 2.05 0 0 1 .65-.72 2.73 2.73 0 0 1 .92-.4 4.88 4.88 0 0 1 1.11-.12 6.54 6.54 0 0 1 .94.07 2.46 2.46 0 0 1 .84.28 1.62 1.62 0 0 1 .61.59 1.87 1.87 0 0 1 .23 1v3.58a2.7 2.7 0 0 0 0 .59.28.28 0 0 0 .32.19 1.38 1.38 0 0 0 .35-.05v.89zm-1.86-3.57a1.42 1.42 0 0 1-.57.23q-.35.07-.74.12l-.78.11a2.88 2.88 0 0 0-.7.19 1.27 1.27 0 0 0-.51.38 1.07 1.07 0 0 0-.2.68.93.93 0 0 0 .11.48 1 1 0 0 0 .3.32 1.24 1.24 0 0 0 .42.17 2.35 2.35 0 0 0 .51.05 2.74 2.74 0 0 0 1-.15 2 2 0 0 0 .66-.39 1.53 1.53 0 0 0 .38-.51 1.28 1.28 0 0 0 .12-.52v-1.17zM314.45 169.55v1h-1.39v4.33a1.25 1.25 0 0 0 0 .32.33.33 0 0 0 .13.19.56.56 0 0 0 .26.09h.97v1h-.88a4.15 4.15 0 0 1-.76-.06 1.13 1.13 0 0 1-.51-.22 1 1 0 0 1-.29-.46 2.63 2.63 0 0 1-.09-.78v-4.44h-1.19v-1h1.19v-2.09h1.15v2.09h1.39zM315.65 168.29v-1.4h1.15v1.4h-1.15zm1.15 1.25v7h-1.15v-7h1.15zM318.28 171.6a3.27 3.27 0 0 1 .65-1.16 3.05 3.05 0 0 1 1.07-.78 3.9 3.9 0 0 1 2.92 0 3.06 3.06 0 0 1 1.06.78 3.27 3.27 0 0 1 .65 1.16 4.65 4.65 0 0 1 .22 1.44 4.59 4.59 0 0 1-.22 1.43 3.28 3.28 0 0 1-.65 1.15 3 3 0 0 1-1.06.77 4 4 0 0 1-2.92 0 3 3 0 0 1-1.07-.77 3.28 3.28 0 0 1-.65-1.15 4.59 4.59 0 0 1-.22-1.43 4.65 4.65 0 0 1 .22-1.44zm1.17 2.56a2.34 2.34 0 0 0 .47.82 2 2 0 0 0 .69.51 2.11 2.11 0 0 0 1.69 0 2 2 0 0 0 .7-.49 2.34 2.34 0 0 0 .47-.82 3.84 3.84 0 0 0 0-2.25 2.42 2.42 0 0 0-.47-.83 2 2 0 0 0-.69-.51 2.12 2.12 0 0 0-1.69 0 2 2 0 0 0-.69.51 2.42 2.42 0 0 0-.47.83 3.86 3.86 0 0 0-.01 2.24zM327.13 169.55v1.11a2.41 2.41 0 0 1 2.27-1.27 3 3 0 0 1 1.15.19 1.88 1.88 0 0 1 .74.53 1.94 1.94 0 0 1 .4.8 4.32 4.32 0 0 1 .11 1v4.59h-1.15v-4.7a1.39 1.39 0 0 0-.38-1 1.41 1.41 0 0 0-1-.38 2.35 2.35 0 0 0-.91.16 1.72 1.72 0 0 0-.64.46 2 2 0 0 0-.38.69 2.84 2.84 0 0 0-.13.87v3.94H326v-7h1.08z"/></g></svg>