<svg id="Layer_1" data-name="Layer 1" xmlns="http://www.w3.org/2000/svg" xmlns:xlink="http://www.w3.org/1999/xlink" viewBox="0 0 2141.29 303.77"><defs><style>.cls-1{fill:none;stroke:#fec40d;stroke-miterlimit:10;stroke-width:3px;}.cls-2{fill:url(#linear-gradient);}</style><linearGradient id="linear-gradient" x1="68.18" y1="99.33" x2="2141.29" y2="99.33" gradientUnits="userSpaceOnUse"><stop offset="0.04" stop-color="#ade0eb" stop-opacity="0"/><stop offset="0.14" stop-color="#ade0eb" stop-opacity="0.5"/><stop offset="0.32" stop-color="#97d6e4" stop-opacity="0.5"/><stop offset="0.65" stop-color="#5cbbd1" stop-opacity="0.5"/><stop offset="0.83" stop-color="#35a9c5" stop-opacity="0.5"/><stop offset="0.98" stop-color="#35a9c5" stop-opacity="0"/></linearGradient></defs><title>Untitled-1</title><path class="cls-1" d="M0.66,200.18s70.78,34.76,244.81,37.07c186,2.47,479.87-70.23,755.63-58.59,290.3,12.26,470,122.15,743,123.59,253.28,1.33,384.28-47.67,384.28-47.67"/><path class="cls-2" d="M2129.2,151.36c-38.58-53.46-98.47-88.29-160.86-109.6-113.65-38.81-237.61-36.92-356.25-18.3s-237.94,42.73-355.21,68.62c-232.1,51.23-475.95,53.21-703.57-15.23-62.89-18.91-119.07-32.93-182.49-50C272.44,0.43,169.12-7,68.18,6.75c2.89,25.2,9.4,51.57,12.29,76.77a1047.39,1047.39,0,0,1,333.71-9.15c113.14,15.13,223.23,48.71,336.49,62.94,301.55,37.88,602.3-62.87,905.83-78.2C1813,51.2,1984.59,72.33,2095.88,182.72c8.6,8.53,19.29,18.34,31,15.42,18.23-4.53,16.16-31,9.83-48.69Z"/></svg>