<svg id="Layer_2" data-name="Layer 2" xmlns="http://www.w3.org/2000/svg" viewBox="0 0 678 384.4"><defs><style>.how3-1,.how3-13,.how3-18,.how3-4{fill:#fff}.how3-2,.how3-3{fill:#34a9c5}.how3-3{opacity:.2;isolation:isolate}.how3-11,.how3-4{stroke:#ffc500}.how3-11,.how3-19,.how3-4,.how3-5,.how3-7{stroke-linecap:round}.how3-13,.how3-14,.how3-15,.how3-16,.how3-4{stroke-miterlimit:10}.how3-4{stroke-width:3px}.how3-14,.how3-15,.how3-16,.how3-19,.how3-5,.how3-7{fill:none}.how3-5,.how3-7{stroke:#0c6c7b}.how3-11,.how3-19,.how3-5,.how3-7{stroke-linejoin:round}.how3-5{stroke-width:1.5px}.how3-6{opacity:.4}.how3-7{stroke-width:2.5px}.how3-11,.how3-8{fill:#ffc500}.how3-9{opacity:.63}.how3-10{fill:#0c6c7b}.how3-11{stroke-width:2px}.how3-12{fill:#726359}.how3-13,.how3-14,.how3-15,.how3-16{stroke:#726359;stroke-width:4px}.how3-15{stroke-dasharray:7.81 7.81}.how3-16{stroke-dasharray:8.07 8.07}.how3-17{fill:#373f3f}.how3-18{fill-opacity:0}.how3-19{stroke:#34a8c3;stroke-width:2.42px}.how3-20{fill:#34a8c3}</style></defs><title>How-does-Express-Gateway-Work-Part-2</title><path class="how3-1" d="M15.5 65.5h181.1a15 15 0 0 1 15 15v258.2a15 15 0 0 1-15 15H15.5a15 15 0 0 1-15-15V80.5a15 15 0 0 1 15-15zM472.5 65.5h191a15 15 0 0 1 15 15V338a15 15 0 0 1-15 15h-191a15 15 0 0 1-15-15V80.5a15 15 0 0 1 15-15z" transform="translate(-.5 -.5)"/><path class="how3-2" d="M35.2 213.3a2.77 2.77 0 0 0 .3 1.3 2.18 2.18 0 0 0 .7.9 3.7 3.7 0 0 0 1.1.5 5.85 5.85 0 0 0 1.3.2 5.85 5.85 0 0 0 1.3-.2 4.05 4.05 0 0 0 .9-.5 1.79 1.79 0 0 0 .5-.7c.1-.2.1-.5.2-.8a2 2 0 0 0-.3-1.1 2.18 2.18 0 0 0-.8-.5 10.93 10.93 0 0 0-1.7-.5l-2.4-.6a4.71 4.71 0 0 1-1.5-.6 2.36 2.36 0 0 1-.9-.8 3.13 3.13 0 0 1-.5-1 3.4 3.4 0 0 1-.1-1 3.92 3.92 0 0 1 .4-1.8 4.26 4.26 0 0 1 1.1-1.2 4.59 4.59 0 0 1 1.6-.7 5.54 5.54 0 0 1 1.8-.2 6.93 6.93 0 0 1 2 .3 8.86 8.86 0 0 1 1.7.8 3.79 3.79 0 0 1 1.5 3.2H41a2.46 2.46 0 0 0-.9-1.9 2.88 2.88 0 0 0-2-.5 2.77 2.77 0 0 0-.9.1 6.89 6.89 0 0 0-.8.3 2.65 2.65 0 0 0-.6.5 1.66 1.66 0 0 0 .2 2 2.28 2.28 0 0 0 1.2.6l.6.2 1.2.3 1.3.3.9.2a3.38 3.38 0 0 1 1.2.6 3 3 0 0 1 .8.8 3.13 3.13 0 0 1 .5 1 3.59 3.59 0 0 1 .2 1.1 3.51 3.51 0 0 1-.5 2 3.74 3.74 0 0 1-1.2 1.3 5.31 5.31 0 0 1-1.7.8 6.8 6.8 0 0 1-2 .2 8.33 8.33 0 0 1-2.2-.3 6.08 6.08 0 0 1-1.8-.9 4.43 4.43 0 0 1-1.2-1.5 5.45 5.45 0 0 1-.5-2.2h2.4zM46.7 213.5a4.25 4.25 0 0 0 .2 1.1 2.62 2.62 0 0 0 .5.9 1.56 1.56 0 0 0 .8.6 2.54 2.54 0 0 0 1.2.2 2.6 2.6 0 0 0 1.5-.4 2.73 2.73 0 0 0 .9-1.2h2.1a4.21 4.21 0 0 1-1.6 2.5 3.1 3.1 0 0 1-1.3.6 7.72 7.72 0 0 1-1.5.2 5.22 5.22 0 0 1-2.1-.4 3.27 3.27 0 0 1-1.5-1.1 5.07 5.07 0 0 1-.9-1.6 7.61 7.61 0 0 1-.3-2.1 6.45 6.45 0 0 1 .3-2 5.85 5.85 0 0 1 1-1.7 4.63 4.63 0 0 1 3.5-1.6 5.37 5.37 0 0 1 2.1.5 4.71 4.71 0 0 1 1.5 1.3 4.55 4.55 0 0 1 .8 1.9 5 5 0 0 1 .1 2.1l-7.3.2zm5.1-1.5a3.55 3.55 0 0 0-.2-1 2.18 2.18 0 0 0-.5-.8 5.55 5.55 0 0 0-.8-.6 2.6 2.6 0 0 0-2 0 1.56 1.56 0 0 0-.8.6 2.18 2.18 0 0 0-.5.8 3.55 3.55 0 0 0-.2 1h5zM55 208h2v1.9a3 3 0 0 1 .4-.8 2.34 2.34 0 0 1 .7-.7 4.05 4.05 0 0 1 .9-.5 3.55 3.55 0 0 1 1-.2h.8v2.1l-.5-.1h-.5a3.55 3.55 0 0 0-1 .2 2.41 2.41 0 0 0-.8.6 3.88 3.88 0 0 0-.6 1.1 7.84 7.84 0 0 0-.2 1.4v4.7H55V208z" transform="translate(-.5 -.5)"/><path class="how3-2" d="M60.2 208h2.4l2.5 7.6 2.4-7.6h2.2l-3.5 9.8h-2.4zM70.6 204.2h2.2v2.1h-2.2v-2.1zm0 3.8h2.2v9.8h-2.2V208zM81.2 211.3a2.1 2.1 0 0 0-.7-1.4 2.69 2.69 0 0 0-1.5-.5c-.3 0-.6.1-.9.1a4.05 4.05 0 0 0-.9.5 4.13 4.13 0 0 0-.7 1.1 5.66 5.66 0 0 0-.3 1.8 4.87 4.87 0 0 0 .1 1.2 2.22 2.22 0 0 0 .5 1.1 3 3 0 0 0 .8.8 2.66 2.66 0 0 0 1.2.3 2.45 2.45 0 0 0 1.6-.6 3 3 0 0 0 .8-1.7h2.2a4.14 4.14 0 0 1-1.5 2.9 5.26 5.26 0 0 1-5.1.6 3.27 3.27 0 0 1-1.5-1.1 5.07 5.07 0 0 1-.9-1.6 6.45 6.45 0 0 1-.3-2 7.61 7.61 0 0 1 .3-2.1 5.56 5.56 0 0 1 .9-1.7 3.27 3.27 0 0 1 1.5-1.1 5.22 5.22 0 0 1 2.1-.4 7.77 7.77 0 0 1 1.6.2 3.69 3.69 0 0 1 1.4.7 5.24 5.24 0 0 1 1 1.1 4.28 4.28 0 0 1 .5 1.6l-2.2.2zM86.2 213.5a4.25 4.25 0 0 0 .2 1.1 2.62 2.62 0 0 0 .5.9 1.56 1.56 0 0 0 .8.6 2.54 2.54 0 0 0 1.2.2 2.6 2.6 0 0 0 1.5-.4 2.73 2.73 0 0 0 .9-1.2h2.1a4.21 4.21 0 0 1-1.6 2.5 3.1 3.1 0 0 1-1.3.6 7.72 7.72 0 0 1-1.5.2 5.22 5.22 0 0 1-2.1-.4 3.27 3.27 0 0 1-1.5-1.1 5.07 5.07 0 0 1-.9-1.6 7.61 7.61 0 0 1-.3-2.1 6.45 6.45 0 0 1 .3-2 5.85 5.85 0 0 1 1-1.7 4.63 4.63 0 0 1 3.5-1.6 5.37 5.37 0 0 1 2.1.5 4.71 4.71 0 0 1 1.5 1.3 6.08 6.08 0 0 1 .9 1.8 5 5 0 0 1 .1 2.1l-7.4.3zm5.1-1.5a3.55 3.55 0 0 0-.2-1 2.18 2.18 0 0 0-.5-.8 5.55 5.55 0 0 0-.8-.6 2.6 2.6 0 0 0-2 0 1.56 1.56 0 0 0-.8.6 2.18 2.18 0 0 0-.5.8 3.55 3.55 0 0 0-.2 1h5zM96.2 214.7a1.71 1.71 0 0 0 .7 1.3 2.82 2.82 0 0 0 1.5.4h.7a1.85 1.85 0 0 0 .7-.2 2.09 2.09 0 0 0 .6-.4.84.84 0 0 0 .2-.7.91.91 0 0 0-.3-.7 2.51 2.51 0 0 0-.7-.4c-.3-.1-.7-.2-1-.3l-1.2-.2-1.2-.3a3.13 3.13 0 0 1-1-.5 2.7 2.7 0 0 1-.7-.8 2.66 2.66 0 0 1-.3-1.2 2 2 0 0 1 .4-1.3 2.84 2.84 0 0 1 1-.9 6.94 6.94 0 0 1 1.3-.5 6.6 6.6 0 0 1 1.4-.1 7.72 7.72 0 0 1 1.5.2 5.64 5.64 0 0 1 1.2.4 2.58 2.58 0 0 1 .9.9 3.36 3.36 0 0 1 .5 1.4h-2.3a1.45 1.45 0 0 0-.7-1 2.77 2.77 0 0 0-1.3-.3h-.5c-.2 0-.4.1-.6.1a1.33 1.33 0 0 0-.5.3.76.76 0 0 0-.2.5.71.71 0 0 0 .3.6 2.51 2.51 0 0 0 .7.4c.3.1.7.2 1 .3l1.2.2 1.2.3a3.13 3.13 0 0 1 1 .5 2.61 2.61 0 0 1 1 2 2.82 2.82 0 0 1-.4 1.5 4.74 4.74 0 0 1-1 1 5.91 5.91 0 0 1-1.4.6 7.72 7.72 0 0 1-1.5.2 8.81 8.81 0 0 1-1.7-.2 3.51 3.51 0 0 1-1.4-.6 2.44 2.44 0 0 1-.9-1.1 3.53 3.53 0 0 1-.3-1.4h2.1zM31.5 226.6h9.8v2.1h-7.4v3.6h6.8v1.9h-6.8v4h7.5v2.1h-9.9v-13.7zM42.6 230.4h2.1v1.4a3.33 3.33 0 0 1 1.4-1.2 3.45 3.45 0 0 1 1.8-.5 3.29 3.29 0 0 1 2.5.8 3 3 0 0 1 .9 2.5v6.8h-2.2V234a2.62 2.62 0 0 0-.5-1.7 1.55 1.55 0 0 0-1.4-.5 3.55 3.55 0 0 0-1 .2 1.34 1.34 0 0 0-.7.6 2.18 2.18 0 0 0-.5.8 3.55 3.55 0 0 0-.2 1v5.8h-2.1v-9.8h-.1zM62.3 240.2h-2.1v-1.3a2.54 2.54 0 0 1-1.3 1.2 5.84 5.84 0 0 1-1.8.4 4.48 4.48 0 0 1-2-.4 3.14 3.14 0 0 1-1.4-1.1 5.56 5.56 0 0 1-.9-1.7 7.61 7.61 0 0 1-.3-2.1 5.87 5.87 0 0 1 .4-2.3 5.37 5.37 0 0 1 1-1.6 4.29 4.29 0 0 1 3-1.2 2.77 2.77 0 0 1 .9.1l.9.3a2.18 2.18 0 0 1 .8.5 2 2 0 0 1 .6.7v-5h2.2v13.5zm-7.6-4.8a5 5 0 0 0 .2 1.2 3.7 3.7 0 0 0 .5 1.1 3 3 0 0 0 .8.8 2.66 2.66 0 0 0 1.2.3 2.38 2.38 0 0 0 1.2-.3 6.47 6.47 0 0 0 .9-.8 3.7 3.7 0 0 0 .5-1.1 5.07 5.07 0 0 0 .2-1.3 4.1 4.1 0 0 0-.7-2.6 2.52 2.52 0 0 0-2-.9 2.77 2.77 0 0 0-1.3.3 6.47 6.47 0 0 0-.9.8 3.7 3.7 0 0 0-.5 1.1 6.6 6.6 0 0 0-.1 1.4zM64.1 230.4h2.1v1.3a2.54 2.54 0 0 1 1.3-1.2 5.84 5.84 0 0 1 1.8-.4 4.48 4.48 0 0 1 2 .4 3.14 3.14 0 0 1 1.4 1.1 5.56 5.56 0 0 1 .9 1.7 6.45 6.45 0 0 1 .3 2 6.28 6.28 0 0 1-.3 1.9 4 4 0 0 1-.8 1.6 3.89 3.89 0 0 1-3.2 1.6 3.4 3.4 0 0 1-1-.1l-.9-.3a2.18 2.18 0 0 1-.8-.5 2 2 0 0 1-.6-.7v4.9h-2.1v-13.3h-.1zm7.6 4.9a5.85 5.85 0 0 0-.2-1.3 3.7 3.7 0 0 0-.5-1.1 2.36 2.36 0 0 0-.9-.8 2.66 2.66 0 0 0-1.2-.3 2.51 2.51 0 0 0-2.1 1 4.3 4.3 0 0 0-.7 2.5 6.75 6.75 0 0 0 .2 1.4 3.7 3.7 0 0 0 .5 1.1 2.18 2.18 0 0 0 .9.7 2.66 2.66 0 0 0 1.2.3 3.08 3.08 0 0 0 1.3-.3 3 3 0 0 0 .8-.8 3.7 3.7 0 0 0 .5-1.1 5.85 5.85 0 0 0 .2-1.3zM79.6 240.5a5.22 5.22 0 0 1-2.1-.4 4.19 4.19 0 0 1-1.6-1.1 5.37 5.37 0 0 1-1-1.6 7.5 7.5 0 0 1 0-4.2 4.35 4.35 0 0 1 1-1.6 4.57 4.57 0 0 1 1.6-1.1 6.07 6.07 0 0 1 4.2 0 4.19 4.19 0 0 1 1.6 1.1 5.37 5.37 0 0 1 1 1.6 7.5 7.5 0 0 1 0 4.2 4.35 4.35 0 0 1-1 1.6 4.57 4.57 0 0 1-1.6 1.1 4.92 4.92 0 0 1-2.1.4zm0-1.7a3.08 3.08 0 0 0 1.3-.3 2.36 2.36 0 0 0 .9-.8 3.7 3.7 0 0 0 .5-1.1 5.28 5.28 0 0 0 0-2.5 3.7 3.7 0 0 0-.5-1.1 2.36 2.36 0 0 0-.9-.8 2.75 2.75 0 0 0-2.5 0 6.47 6.47 0 0 0-.9.8 3.7 3.7 0 0 0-.5 1.1 5.28 5.28 0 0 0 0 2.5 3.7 3.7 0 0 0 .5 1.1 2.56 2.56 0 0 0 2.1 1.1zM85.9 226.6h2.2v2.1h-2.2v-2.1zm0 3.8h2.2v9.8h-2.2v-9.8zM89.8 230.4h2.1v1.4a4 4 0 0 1 1.3-1.3 3.45 3.45 0 0 1 1.8-.5 3.66 3.66 0 0 1 2.6.8 3 3 0 0 1 .9 2.5v6.8h-2.2v-6.2a2.62 2.62 0 0 0-.5-1.7 1.55 1.55 0 0 0-1.4-.5 3.55 3.55 0 0 0-1 .2 1.34 1.34 0 0 0-.7.6 2.18 2.18 0 0 0-.5.8 3.55 3.55 0 0 0-.2 1v5.8h-2.1v-9.7h-.1zM99.2 230.4h1.6v-3h2.2v3h2v1.6h-2v5.8c0 .1.1.3.1.4l.3.3a1.27 1.27 0 0 0 .6.1h.5a.9.9 0 0 0 .5-.1v1.7l-.7.1h-.7a3.4 3.4 0 0 1-1.4-.2 2.18 2.18 0 0 1-.8-.5 2 2 0 0 1-.4-.8 4.1 4.1 0 0 1-.1-1.1v-5.8h-1.6l-.1-1.5zM37.6 266.3a11.78 11.78 0 0 1-1.1-1.9c-.3-.6-.6-1.3-.9-2a15.45 15.45 0 0 1-.6-2.3 21.12 21.12 0 0 1-.2-2.6 13.67 13.67 0 0 1 .7-4.5 16.22 16.22 0 0 1 2-4.2h1.8a19.44 19.44 0 0 0-1.7 4.2 17.59 17.59 0 0 0-.6 4.6 18.16 18.16 0 0 0 .6 4.6 15.67 15.67 0 0 0 1.8 4.2l-1.8-.1zM40.1 249h6a6.72 6.72 0 0 1 2.4.4 4.51 4.51 0 0 1 1.4 1 3.69 3.69 0 0 1 .7 1.4 5.9 5.9 0 0 1 .2 1.4 6.75 6.75 0 0 1-.2 1.4 3.69 3.69 0 0 1-.7 1.4 4.51 4.51 0 0 1-1.4 1 6.37 6.37 0 0 1-2.4.4h-3.6v5.2h-2.4V249zm2.4 6.5H46a2 2 0 0 0 .8-.1 3 3 0 0 0 .8-.4 4.35 4.35 0 0 0 .6-.7 2 2 0 0 0 .2-1.1 4.25 4.25 0 0 0-.2-1.1 1.79 1.79 0 0 0-.5-.7 2.51 2.51 0 0 0-.7-.4 2.77 2.77 0 0 0-.9-.1h-3.6v4.6zM52 252.8h2v1.9a3 3 0 0 1 .4-.8 2.34 2.34 0 0 1 .7-.7 4.05 4.05 0 0 1 .9-.5 3.55 3.55 0 0 1 1-.2h.8v2.1l-.5-.1h-.5a3.55 3.55 0 0 0-1 .2 2.41 2.41 0 0 0-.8.6 3.88 3.88 0 0 0-.6 1.1 7.72 7.72 0 0 0-.2 1.5v4.7h-2.1v-9.8H52zM58.2 249h2.2v2.1h-2.2V249zm0 3.8h2.2v9.8h-2.2v-9.8zM61.1 252.8h2.4l2.5 7.6 2.4-7.6h2.2l-3.5 9.8h-2.5zM79.7 260.4a1.27 1.27 0 0 0 .1.6.76.76 0 0 0 .4.2h.5v1.5l-.3.1-.4.1-.4.1h-.3a2 2 0 0 1-1.1-.3 1.8 1.8 0 0 1-.6-.9 4.17 4.17 0 0 1-1.6.9 5.66 5.66 0 0 1-1.8.3 5.85 5.85 0 0 1-1.3-.2 3.7 3.7 0 0 1-1.1-.5 1.6 1.6 0 0 1-.7-.9 2.77 2.77 0 0 1-.3-1.3 4 4 0 0 1 .3-1.5 2 2 0 0 1 .9-.9 6.12 6.12 0 0 1 1.2-.5 6.75 6.75 0 0 1 1.4-.2c.4-.1.7-.1 1.1-.2a2.92 2.92 0 0 0 .9-.2 2.51 2.51 0 0 0 .7-.4.66.66 0 0 0 .2-.7 1.85 1.85 0 0 0-.2-.7 1 1 0 0 0-.5-.4 1.45 1.45 0 0 0-.7-.2h-.7a2.82 2.82 0 0 0-1.5.4 1.52 1.52 0 0 0-.7 1.2H71a3 3 0 0 1 .5-1.6 4.74 4.74 0 0 1 1-1 3.36 3.36 0 0 1 1.4-.5 4.33 4.33 0 0 1 1.6-.1 6.15 6.15 0 0 1 1.4.1 6.94 6.94 0 0 1 1.3.5 2 2 0 0 1 .9.9 2.08 2.08 0 0 1 .3 1.3l.3 5zm-2.2-2.7a2.84 2.84 0 0 1-1.2.4 5.9 5.9 0 0 0-1.4.2 1.85 1.85 0 0 0-.7.2l-.6.3a1 1 0 0 0-.4.5 1.7 1.7 0 0 0-.1.7 1.42 1.42 0 0 0 .2.6 1 1 0 0 0 .5.4 1.45 1.45 0 0 0 .7.2c.2 0 .4.1.6.1a2.2 2.2 0 0 0 .8-.1c.3-.1.5-.2.8-.3a1.17 1.17 0 0 0 .6-.6 1 1 0 0 0 .2-.9v-1.7zM80.5 252.8h1.6v-3h2.2v3h2v1.6h-2v5.8c0 .1.1.3.1.4l.3.3a1.27 1.27 0 0 0 .6.1h.5a.9.9 0 0 0 .5-.1v1.7l-.7.1h-.7a3.4 3.4 0 0 1-1.4-.2 2.18 2.18 0 0 1-.8-.5 2 2 0 0 1-.4-.8 4.1 4.1 0 0 1-.1-1.1v-5.8h-1.7v-1.5zM88.9 258.3a4.1 4.1 0 0 0 .1 1.1 2.62 2.62 0 0 0 .5.9 1.56 1.56 0 0 0 .8.6 2.54 2.54 0 0 0 1.2.2 2.6 2.6 0 0 0 1.5-.4 2.73 2.73 0 0 0 .9-1.2H96a4.21 4.21 0 0 1-1.6 2.5 3.1 3.1 0 0 1-1.3.6 7.72 7.72 0 0 1-1.5.2 5.22 5.22 0 0 1-2.1-.4 3.27 3.27 0 0 1-1.5-1.1 5.07 5.07 0 0 1-.9-1.6 7.61 7.61 0 0 1-.3-2.1 6.45 6.45 0 0 1 .3-2 5.85 5.85 0 0 1 1-1.7 4.23 4.23 0 0 1 3.5-1.5 5.37 5.37 0 0 1 2.1.5 4.71 4.71 0 0 1 1.5 1.3 6.08 6.08 0 0 1 .9 1.8 5 5 0 0 1 .1 2.1l-7.3.2zm5.1-1.5a3.55 3.55 0 0 0-.2-1 2.18 2.18 0 0 0-.5-.8 5.55 5.55 0 0 0-.8-.6 2.6 2.6 0 0 0-2 0 2.1 2.1 0 0 0-1.3 1.3 3.55 3.55 0 0 0-.2 1l5 .1z" transform="translate(-.5 -.5)"/><path class="how3-2" d="M97.7 248.7c.4.6.7 1.2 1.1 1.9l.9 2.1a8.65 8.65 0 0 1 .6 2.3 11 11 0 0 1 .2 2.6 13.67 13.67 0 0 1-.7 4.5 16.22 16.22 0 0 1-2 4.2H96a19.44 19.44 0 0 0 1.7-4.2 17.59 17.59 0 0 0 .6-4.6 18.16 18.16 0 0 0-.6-4.6 15.67 15.67 0 0 0-1.8-4.2h1.8zM73.6 167.6H52.8a.51.51 0 0 0-.22 1H73.7a.51.51 0 1 0 .22-1h-.32z" transform="translate(-.5 -.5)"/><path class="how3-2" d="M85.7 152.5h-8a5 5 0 0 0-.7-2.9c-1.2-2-3.8-3.1-7.8-3.1s-6.6 1-7.8 3a5.32 5.32 0 0 0-.7 3h-8a5.93 5.93 0 0 0-5.9 6v21.3a5.87 5.87 0 0 0 5.84 5.9H85.8a5.91 5.91 0 0 0 5.9-5.9v-21.3a5.89 5.89 0 0 0-5.78-6h-.22zm-22.1-1.8c.7-1.2 2.7-1.8 5.7-1.8s5 .7 5.7 1.9a2.32 2.32 0 0 1 .3 1.6h-12a2.7 2.7 0 0 1 .3-1.7zm17 26.4a7.91 7.91 0 0 1-7.3-5h-6.9l-3.2-2.2-3.6 2.5-2.8-1.6-3.4 1.1-3.3-3.1 1.1-2.7h22.3a7.76 7.76 0 1 1 7.1 11z" transform="translate(-.5 -.5)"/><circle class="how3-2" cx="83.1" cy="168.9" r="1.8"/><path class="how3-3" d="M78.8 179.9a7.91 7.91 0 0 1-7.3-5h-6.9l-3.2-2.3-3.6 2.5-2.8-1.6-3.4 1.1-3.3-3.1 1.1-2.7h22.3a7.76 7.76 0 1 1 14.1 6.5 7.65 7.65 0 0 1-7 4.6z" transform="translate(-.5 -.5)"/><path class="how3-4" d="M499 126.6l-.1 239.8c-1.6 9.6-8.8 17-17.5 17h-268c-8.8 0-15.9-7.4-15.9-16.5V18.6c0-9.1 7.2-16.5 15.9-16.5L483.1 2c8.8 0 15.9 7.4 15.9 16.5v108.1z" transform="translate(-.5 -.5)"/><path class="how3-5" d="M215.4 17.5h264.9a3.12 3.12 0 0 1 3.1 3.1v249.9a3.12 3.12 0 0 1-3.1 3.1H215.4a3.12 3.12 0 0 1-3.1-3.1V20.6a3.12 3.12 0 0 1 3.1-3.1z" transform="translate(-.5 -.5)"/><g class="how3-6"><path class="how3-7" d="M457.6 87.5h-13.1c-1.1 0-2-1.6-2-3.5s.9-3.5 2-3.5h26.7c1.1 0 2-1.6 2-3.5s-.9-3.5-2-3.5h-25.6M457.6 101.6h-13.1c-1.1 0-2-1.6-2-3.5s.9-3.5 2-3.5h26.7c1.1 0 2-1.6 2-3.5s-.9-3.5-2-3.5h-13.7M457.6 115.7h-13.1c-1.1 0-2-1.6-2-3.5s.9-3.5 2-3.5h26.7c1.1 0 2-1.6 2-3.5s-.9-3.5-2-3.5h-13.7M457.6 129.9h-13.1c-1.1 0-2-1.6-2-3.5s.9-3.5 2-3.5h26.7c1.1 0 2-1.6 2-3.5s-.9-3.5-2-3.5h-13.7M457.6 144h-13.1c-1.1 0-2-1.6-2-3.5s.9-3.5 2-3.5h26.7c1.1 0 2-1.6 2-3.5s-.9-3.5-2-3.5h-13.7M457.6 158.2h-13.1c-1.1 0-2-1.6-2-3.5s.9-3.5 2-3.5h26.7c1.1 0 2-1.6 2-3.5s-.9-3.5-2-3.5h-13.7M457.6 172.2h-13.1c-1.1 0-2-1.6-2-3.5s.9-3.5 2-3.5h26.7c1.1 0 2-1.6 2-3.5s-.9-3.5-2-3.5h-13.7M457.6 186.4h-13.1c-1.1 0-2-1.6-2-3.5s.9-3.5 2-3.5h26.7c1.1 0 2-1.6 2-3.5s-.9-3.5-2-3.5h-13.7M457.6 200.5h-13.1c-1.1 0-2-1.6-2-3.5s.9-3.5 2-3.5h26.7c1.1 0 2-1.6 2-3.5s-.9-3.5-2-3.5h-13.7M457.6 214.6h-13.1c-1.1 0-2-1.6-2-3.5s.9-3.5 2-3.5h26.7c1.1 0 2-1.6 2-3.5s-.9-3.5-2-3.5h-13.7M457.6 59.1h-13.1c-1.1 0-2-1.6-2-3.5s.9-3.5 2-3.5h26.7c1.1 0 2-1.6 2-3.5s-.9-3.5-2-3.5h-13.7M457.7 45h-13.1c-1.1 0-2-1.6-2-3.5s.9-3.5 2-3.5h26.7c1.1 0 2-1.6 2-3.5s-.9-3.5-2-3.5h-13.8M457.6 73.3h-13.1c-1.1 0-2-1.6-2-3.5s.9-3.5 2-3.5h26.7c1.1 0 2-1.6 2-3.5s-.9-3.5-2-3.5h-13.7M457.6 228.7h-13.1c-1.1 0-2-1.6-2-3.5s.9-3.5 2-3.5h26.7c1.1 0 2-1.6 2-3.5s-.9-3.5-2-3.5h-13.7M444.5 235.7h26.7c1.1 0 2-1.6 2-3.5s-.9-3.5-2-3.5h-13.7" transform="translate(-.5 -.5)"/></g><path class="how3-8" d="M258.7 358.2h11.1v2.3h-8.4v3.9h7.8v2.1h-7.8v4.4h8.6v2.3h-11.3v-15zM274.8 367.5l-3.9-5.2h3l2.3 3.3 2.4-3.3h2.9l-3.8 5 4.3 5.8h-3l-2.8-4-2.8 4h-2.9zM283.2 362.4h2.3v1.5a2.94 2.94 0 0 1 1.5-1.4 4.48 4.48 0 0 1 2-.4 4.56 4.56 0 0 1 2.3.5 4.81 4.81 0 0 1 1.6 1.2 4.6 4.6 0 0 1 1 1.8 8.33 8.33 0 0 1 .3 2.2 7.61 7.61 0 0 1-.3 2.1 5.08 5.08 0 0 1-.9 1.8 4.71 4.71 0 0 1-1.5 1.3 5.37 5.37 0 0 1-2.1.5 4.1 4.1 0 0 1-1.1-.1c-.3-.1-.7-.2-1-.3a4.05 4.05 0 0 1-.9-.5 2.7 2.7 0 0 1-.7-.8v5.4h-2.5v-14.8zm8.6 5.4a5.9 5.9 0 0 0-.2-1.4 2.73 2.73 0 0 0-.6-1.2 2.84 2.84 0 0 0-1-.9 3.08 3.08 0 0 0-1.3-.3 2.8 2.8 0 0 0-2.4 1 4.59 4.59 0 0 0-.8 2.8 7.72 7.72 0 0 0 .2 1.5 2.73 2.73 0 0 0 .6 1.2 3.92 3.92 0 0 0 1 .8 3.08 3.08 0 0 0 1.3.3 3.19 3.19 0 0 0 1.4-.3 2.84 2.84 0 0 0 1-.9 3.08 3.08 0 0 0 .5-1.2 2.38 2.38 0 0 0 .3-1.4zM296.2 362.4h2.3v2.1a3.55 3.55 0 0 1 .4-.9 6 6 0 0 1 .8-.8 8.79 8.79 0 0 1 1-.6 4.25 4.25 0 0 1 1.1-.2h.9v2.3l-.5-.1h-.5a5 5 0 0 0-1.2.2 3.59 3.59 0 0 0-1 .7 2.28 2.28 0 0 0-.6 1.2 4.4 4.4 0 0 0-.2 1.6v5.2h-2.5v-10.7zM305 368.4a5 5 0 0 0 .2 1.2 3.13 3.13 0 0 0 .5 1 5.5 5.5 0 0 0 .9.7 3.08 3.08 0 0 0 1.3.3 2.62 2.62 0 0 0 1.7-.5 2.43 2.43 0 0 0 1-1.4h2.3a3.29 3.29 0 0 1-.7 1.6 4.26 4.26 0 0 1-1.1 1.2 5.07 5.07 0 0 1-1.5.7 5.24 5.24 0 0 1-1.7.2 5.87 5.87 0 0 1-2.3-.4 5.23 5.23 0 0 1-1.7-1.2 5.44 5.44 0 0 1-1.1-1.8 8.52 8.52 0 0 1-.4-2.3 5.7 5.7 0 0 1 .4-2.2 4.18 4.18 0 0 1 1.1-1.8 4.82 4.82 0 0 1 1.7-1.2 5.85 5.85 0 0 1 2.2-.5 5.11 5.11 0 0 1 4.1 2 5.38 5.38 0 0 1 1 2 6.52 6.52 0 0 1 .2 2.4H305zm5.8-1.6a4.25 4.25 0 0 0-.2-1.1 2.36 2.36 0 0 0-.6-.9 1.46 1.46 0 0 0-.9-.6 2.15 2.15 0 0 0-1.1-.2 5 5 0 0 0-1.2.2 1.8 1.8 0 0 0-.9.6 2.36 2.36 0 0 0-.6.9 2.15 2.15 0 0 0-.2 1.1h5.7zM316.8 369.7a1.9 1.9 0 0 0 .8 1.5 3.29 3.29 0 0 0 1.7.4h.8a1.88 1.88 0 0 0 .8-.2 1.28 1.28 0 0 0 .6-.4.78.78 0 0 0 .2-.8.91.91 0 0 0-.4-.8 2.18 2.18 0 0 0-.8-.5l-1.2-.3-1.3-.3a6.47 6.47 0 0 1-1.3-.4 3.58 3.58 0 0 1-1.9-1.5 3.19 3.19 0 0 1-.3-1.4 2.82 2.82 0 0 1 .4-1.5 3.46 3.46 0 0 1 1.1-1 8.8 8.8 0 0 1 1.5-.5 8.6 8.6 0 0 1 1.6-.1 7.77 7.77 0 0 1 1.6.2 3.51 3.51 0 0 1 1.4.6 5.24 5.24 0 0 1 1.1 1 3 3 0 0 1 .5 1.5h-2.6a1.55 1.55 0 0 0-.8-1.1 4 4 0 0 0-1.5-.3h-.6a1.85 1.85 0 0 0-.7.2 2.19 2.19 0 0 0-.5.3 1.42 1.42 0 0 0-.2.6.91.91 0 0 0 .3.7 2.18 2.18 0 0 0 .8.5l1.2.3 1.3.3a6.47 6.47 0 0 1 1.3.4 3.38 3.38 0 0 1 1.2.6 2.36 2.36 0 0 1 .8.9 3.08 3.08 0 0 1 .3 1.3 2.2 2.2 0 0 1-.5 1.6 4.26 4.26 0 0 1-1.2 1.1 4.59 4.59 0 0 1-1.6.7 11 11 0 0 1-1.8.2 13.55 13.55 0 0 1-2-.2 4.59 4.59 0 0 1-1.6-.7 2.94 2.94 0 0 1-1-1.2 3.29 3.29 0 0 1-.4-1.7h2.9zM327.8 369.7a1.9 1.9 0 0 0 .8 1.5 3.29 3.29 0 0 0 1.7.4h.8a2.92 2.92 0 0 0 .9-.2 1.28 1.28 0 0 0 .6-.4.78.78 0 0 0 .2-.8.91.91 0 0 0-.4-.8 2.18 2.18 0 0 0-.8-.5l-1.2-.3-1.3-.3a6.47 6.47 0 0 1-1.3-.4 3.58 3.58 0 0 1-1.9-1.5 3.19 3.19 0 0 1-.3-1.4 2.82 2.82 0 0 1 .4-1.5 3.46 3.46 0 0 1 1.1-1 8.8 8.8 0 0 1 1.5-.5 8.6 8.6 0 0 1 1.6-.1 7.77 7.77 0 0 1 1.6.2 3.51 3.51 0 0 1 1.4.6 5.24 5.24 0 0 1 1.1 1 3 3 0 0 1 .5 1.5h-2.6a1.55 1.55 0 0 0-.8-1.1 4 4 0 0 0-1.5-.3h-.6a1.85 1.85 0 0 0-.7.2 2.19 2.19 0 0 0-.5.3 1.42 1.42 0 0 0-.2.6.91.91 0 0 0 .3.7 2.18 2.18 0 0 0 .8.5l1.2.3 1.3.3a6.47 6.47 0 0 1 1.3.4 3.38 3.38 0 0 1 1.2.6 2.36 2.36 0 0 1 .8.9 3.08 3.08 0 0 1 .3 1.3 2.2 2.2 0 0 1-.5 1.6 4.26 4.26 0 0 1-1.2 1.1 8.86 8.86 0 0 1-1.7.8 11 11 0 0 1-1.8.2 13.55 13.55 0 0 1-2-.2 4.59 4.59 0 0 1-1.6-.7 2.94 2.94 0 0 1-1-1.2 3.29 3.29 0 0 1-.4-1.7l2.9-.1zM356.6 373.2h-1.7l-.4-1.7a6.2 6.2 0 0 1-2.2 1.7 7 7 0 0 1-2.5.5 8.15 8.15 0 0 1-3.1-.6 6.58 6.58 0 0 1-2.3-1.7 10.37 10.37 0 0 1-1.5-2.5 9.12 9.12 0 0 1 0-6.1 6.44 6.44 0 0 1 1.5-2.5 6.58 6.58 0 0 1 2.3-1.7 8.15 8.15 0 0 1 3.1-.6 9.86 9.86 0 0 1 2.4.3 7.5 7.5 0 0 1 2 1 5.72 5.72 0 0 1 1.5 1.6 4.39 4.39 0 0 1 .7 2.2h-2.6a3 3 0 0 0-.5-1.3 2 2 0 0 0-.9-.9 4.3 4.3 0 0 0-2.6-.8 3.84 3.84 0 0 0-2.1.5 3.74 3.74 0 0 0-1.5 1.3 4.76 4.76 0 0 0-.8 1.8 7.5 7.5 0 0 0 0 4.2 4.94 4.94 0 0 0 .8 1.8 4.71 4.71 0 0 0 1.5 1.3 5.37 5.37 0 0 0 2.1.5 5.66 5.66 0 0 0 1.8-.3 4.19 4.19 0 0 0 1.4-.9 2.58 2.58 0 0 0 .8-1.3 5.08 5.08 0 0 0 .3-1.7H350v-2h6.6v7.9zM368.4 370.8a1.27 1.27 0 0 0 .1.6.76.76 0 0 0 .5.2h.7v1.7l-.3.1-.4.1-.4.1h-.4a2.38 2.38 0 0 1-1.2-.3 1.33 1.33 0 0 1-.6-1 4 4 0 0 1-1.8 1 7.61 7.61 0 0 1-2.1.3 7.72 7.72 0 0 1-1.5-.2 2.73 2.73 0 0 1-1.2-.6 2.54 2.54 0 0 1-.8-1 3.19 3.19 0 0 1-.3-1.4 2.93 2.93 0 0 1 .4-1.6 2.41 2.41 0 0 1 1-1 5.78 5.78 0 0 1 1.4-.5 7.72 7.72 0 0 1 1.5-.2c.5-.1.9-.1 1.3-.2a4.25 4.25 0 0 0 1.1-.2 1.61 1.61 0 0 0 .7-.4 1.14 1.14 0 0 0 .3-.8 2.35 2.35 0 0 0-.2-.8 1.58 1.58 0 0 0-.6-.5 1.88 1.88 0 0 0-.8-.2h-.8a3.29 3.29 0 0 0-1.7.4 1.83 1.83 0 0 0-.8 1.3H359a3.45 3.45 0 0 1 1.7-2.9 4.42 4.42 0 0 1 1.6-.6 11 11 0 0 1 1.8-.2 8.75 8.75 0 0 1 1.6.2 5.78 5.78 0 0 1 1.4.5 4.74 4.74 0 0 1 1 1 2.41 2.41 0 0 1 .4 1.5l-.1 5.6zm-2.5-3a2.3 2.3 0 0 1-1.4.4 8.75 8.75 0 0 0-1.6.2 2.35 2.35 0 0 0-.8.2 3.33 3.33 0 0 0-.6.3 1 1 0 0 0-.4.5 1.88 1.88 0 0 0-.2.8 1.85 1.85 0 0 0 .2.7 2.09 2.09 0 0 0 .6.4 1.85 1.85 0 0 0 .7.2c.2 0 .5.1.7.1a2.77 2.77 0 0 0 .9-.1 3.55 3.55 0 0 0 .9-.4 4.35 4.35 0 0 0 .7-.6 1.69 1.69 0 0 0 .3-1v-1.7zM369.7 362.4h1.9v-3.2h2.5v3.2h2.2v1.8h-2.2v6.4c0 .2.1.3.1.5a1.38 1.38 0 0 0 .4.3 1.27 1.27 0 0 0 .6.1h.5a.9.9 0 0 0 .5-.1v1.9l-.8.1h-.8a4.4 4.4 0 0 1-1.6-.2 2.62 2.62 0 0 1-.9-.5 1.93 1.93 0 0 1-.5-.9 4.87 4.87 0 0 1-.1-1.2v-6.4h-1.9l.1-1.8zM379.7 368.4a5 5 0 0 0 .2 1.2 3.13 3.13 0 0 0 .5 1 5.5 5.5 0 0 0 .9.7 3.08 3.08 0 0 0 1.3.3 2.62 2.62 0 0 0 1.7-.5 2.43 2.43 0 0 0 1-1.4h2.3a3.29 3.29 0 0 1-.7 1.6 4.26 4.26 0 0 1-1.1 1.2 5.07 5.07 0 0 1-1.5.7 5.24 5.24 0 0 1-1.7.2 5.87 5.87 0 0 1-2.3-.4 5.23 5.23 0 0 1-1.7-1.2 5.44 5.44 0 0 1-1.1-1.8 8.52 8.52 0 0 1-.4-2.3 5.7 5.7 0 0 1 .4-2.2 4.18 4.18 0 0 1 1.1-1.8 4.82 4.82 0 0 1 1.7-1.2 5.85 5.85 0 0 1 2.2-.5 5.11 5.11 0 0 1 4.1 2 5.38 5.38 0 0 1 1 2 6.52 6.52 0 0 1 .2 2.4h-8.1zm5.8-1.6a4.25 4.25 0 0 0-.2-1.1 2.36 2.36 0 0 0-.6-.9 1.46 1.46 0 0 0-.9-.6 2.15 2.15 0 0 0-1.1-.2 5 5 0 0 0-1.2.2 1.8 1.8 0 0 0-.9.6 2.36 2.36 0 0 0-.6.9 2.15 2.15 0 0 0-.2 1.1h5.7zM388.6 362.4h2.6l2.2 8.1 2.1-8.1h2.6l2 8.1 2.3-8.1h2.5l-3.5 10.9h-2.5l-2.1-8.1-2 8.1h-2.7zM415.6 370.8a1.27 1.27 0 0 0 .1.6.76.76 0 0 0 .5.2h.7v1.7l-.3.1-.4.1-.4.1h-.4a2.38 2.38 0 0 1-1.2-.3 1.33 1.33 0 0 1-.6-1 4 4 0 0 1-1.8 1 7.61 7.61 0 0 1-2.1.3 7.72 7.72 0 0 1-1.5-.2 2.73 2.73 0 0 1-1.2-.6 2.54 2.54 0 0 1-.8-1 3.19 3.19 0 0 1-.3-1.4 2.93 2.93 0 0 1 .4-1.6 2.41 2.41 0 0 1 1-1 5.78 5.78 0 0 1 1.4-.5 7.72 7.72 0 0 1 1.5-.2c.5-.1.9-.1 1.3-.2a4.25 4.25 0 0 0 1.1-.2 1.61 1.61 0 0 0 .7-.4 1.14 1.14 0 0 0 .3-.8 2.35 2.35 0 0 0-.2-.8 1.58 1.58 0 0 0-.6-.5 1.88 1.88 0 0 0-.8-.2h-.8a3.29 3.29 0 0 0-1.7.4 1.83 1.83 0 0 0-.8 1.3h-2.4a3.45 3.45 0 0 1 1.7-2.9 4.42 4.42 0 0 1 1.6-.6 11 11 0 0 1 1.8-.2 8.75 8.75 0 0 1 1.6.2 5.78 5.78 0 0 1 1.4.5 4.74 4.74 0 0 1 1 1 2.41 2.41 0 0 1 .4 1.5l-.2 5.6zm-2.5-3a2.3 2.3 0 0 1-1.4.4 8.75 8.75 0 0 0-1.6.2 2.35 2.35 0 0 0-.8.2 3.33 3.33 0 0 0-.6.3 1 1 0 0 0-.4.5 1.88 1.88 0 0 0-.2.8 1.85 1.85 0 0 0 .2.7 2.09 2.09 0 0 0 .6.4 1.85 1.85 0 0 0 .7.2c.2 0 .5.1.7.1a2.77 2.77 0 0 0 .9-.1 3.55 3.55 0 0 0 .9-.4 4.35 4.35 0 0 0 .7-.6 1.69 1.69 0 0 0 .3-1v-1.7zM416.8 362.4h2.7l2.9 8.1 2.8-8.1h2.6l-4.4 11.5c-.2.5-.4 1-.6 1.4a7.46 7.46 0 0 1-.7 1.2 3.92 3.92 0 0 1-1 .8 4.53 4.53 0 0 1-1.6.3 9.7 9.7 0 0 1-1.7-.1v-2l.6.1a1.22 1.22 0 0 0 .6 0 1.7 1.7 0 0 0 .7-.1c.2-.1.3-.2.5-.3a2.18 2.18 0 0 0 .3-.5 1.42 1.42 0 0 0 .2-.6l.3-.8z" transform="translate(-.5 -.5)"/><path class="how3-2" d="M609.6 211.1h2.5l5.1 13.2h-2.5l-1.2-3.5h-5.3l-1.2 3.5h-2.5zm-.9 8h4l-2-5.7h-.1zM618 211.1h5.9a5.87 5.87 0 0 1 2.3.4 4.51 4.51 0 0 1 1.4 1 8.27 8.27 0 0 1 .7 1.3 4.32 4.32 0 0 1 0 2.6 2.39 2.39 0 0 1-.7 1.3 3.59 3.59 0 0 1-1.4 1 5.87 5.87 0 0 1-2.3.4h-3.5v5.1h-2.3v-13.1h-.1zm2.4 6.3h3.4a2.2 2.2 0 0 0 .8-.1 3 3 0 0 0 .8-.4 4.35 4.35 0 0 0 .6-.7 2 2 0 0 0 .2-1.1 4.25 4.25 0 0 0-.2-1.1 1.79 1.79 0 0 0-.5-.7 1.08 1.08 0 0 0-.7-.3 2.77 2.77 0 0 0-.9-.1h-3.4l-.1 4.5zM630 211.1h2.3v13.2H630v-13.2zM583.4 233h9.6v2h-7.2v3.5h6.7v1.9h-6.7v3.9h7.4v2h-9.7V233h-.1zM594.4 236.7h2v1.4a3.25 3.25 0 0 1 1.3-1.3 3.37 3.37 0 0 1 1.7-.5 3.75 3.75 0 0 1 2.5.8 3.11 3.11 0 0 1 .9 2.5v6.6h-2.1v-6a2.2 2.2 0 0 0-.5-1.6 1.55 1.55 0 0 0-1.4-.5 3.55 3.55 0 0 0-1 .2 1.79 1.79 0 0 0-.7.5 2.18 2.18 0 0 0-.5.8 3.55 3.55 0 0 0-.2 1v5.7h-2.1l.1-9.6zM613.8 246.3h-2V245a2.78 2.78 0 0 1-1.2 1.2 4.71 4.71 0 0 1-1.7.4 4.48 4.48 0 0 1-2-.4 4.86 4.86 0 0 1-1.4-1.1 3.46 3.46 0 0 1-.8-1.6 6.45 6.45 0 0 1-.3-2 7.8 7.8 0 0 1 .3-2.2 5.07 5.07 0 0 1 .9-1.6 3.81 3.81 0 0 1 1.3-.9 4 4 0 0 1 1.5-.3 2.77 2.77 0 0 1 .9.1 3.18 3.18 0 0 1 .9.3 3.51 3.51 0 0 1 .8.5 4.35 4.35 0 0 1 .6.7v-4.9h2.1l.1 13.1zm-7.4-4.7a5 5 0 0 0 .2 1.2 5.36 5.36 0 0 0 .5 1.1 1.78 1.78 0 0 0 .8.7 2.55 2.55 0 0 0 2.4 0 3 3 0 0 0 .8-.8 3.7 3.7 0 0 0 .5-1.1 5 5 0 0 0 .2-1.2 3.67 3.67 0 0 0-.7-2.5 2.46 2.46 0 0 0-1.9-.9 3.08 3.08 0 0 0-1.3.3 3 3 0 0 0-.8.8 3.7 3.7 0 0 0-.5 1.1 5.06 5.06 0 0 0-.2 1.3zM615.8 236.7h2v1.3a2.78 2.78 0 0 1 1.2-1.2 4.71 4.71 0 0 1 1.7-.4 4.48 4.48 0 0 1 2 .4 4.86 4.86 0 0 1 1.4 1.1 3.46 3.46 0 0 1 .8 1.6 6.45 6.45 0 0 1 .3 2 5.66 5.66 0 0 1-.3 1.8 4.81 4.81 0 0 1-.8 1.6 3.5 3.5 0 0 1-3.1 1.5 2.77 2.77 0 0 1-.9-.1 3.18 3.18 0 0 1-.9-.3 3.51 3.51 0 0 1-.8-.5 4.35 4.35 0 0 1-.6-.7v4.8h-2.1l.1-12.9zm7.4 4.8a6.88 6.88 0 0 0-.2-1.3 3.7 3.7 0 0 0-.5-1.1 3 3 0 0 0-.8-.8 2.38 2.38 0 0 0-1.2-.3 2.52 2.52 0 0 0-2 .9 4.3 4.3 0 0 0-.7 2.5 6.75 6.75 0 0 0 .2 1.4 3.7 3.7 0 0 0 .5 1.1 2.7 2.7 0 0 0 .8.7 2.28 2.28 0 0 0 1.1.3 2.38 2.38 0 0 0 1.2-.3 3 3 0 0 0 .8-.8 3.7 3.7 0 0 0 .5-1.1 1.8 1.8 0 0 0 .3-1.2zM631.1 246.5a5.22 5.22 0 0 1-2.1-.4 3.27 3.27 0 0 1-1.5-1.1 8.63 8.63 0 0 1-1-1.6 7.15 7.15 0 0 1 0-4.1 3.91 3.91 0 0 1 1-1.6 5.27 5.27 0 0 1 1.5-1.1 5.79 5.79 0 0 1 4.1 0 3.27 3.27 0 0 1 1.5 1.1 8.63 8.63 0 0 1 1 1.6 7.15 7.15 0 0 1 0 4.1 3.91 3.91 0 0 1-1 1.6 5.27 5.27 0 0 1-1.5 1.1 4.21 4.21 0 0 1-2 .4zm0-1.6a2.38 2.38 0 0 0 1.2-.3 6.47 6.47 0 0 0 .9-.8 3.7 3.7 0 0 0 .5-1.1 5.28 5.28 0 0 0 0-2.5 3.7 3.7 0 0 0-.5-1.1 2.36 2.36 0 0 0-.9-.8 2.75 2.75 0 0 0-2.5 0 6.47 6.47 0 0 0-.9.8 3.7 3.7 0 0 0-.5 1.1 5.28 5.28 0 0 0 0 2.5 3.7 3.7 0 0 0 .5 1.1 2.36 2.36 0 0 0 .9.8 3.45 3.45 0 0 0 1.3.3zM637.4 233h2.1v2h-2.1v-2zm0 3.7h2.1v9.6h-2.1v-9.6zM641.5 236.7h2v1.4a3.25 3.25 0 0 1 1.3-1.3 3.37 3.37 0 0 1 1.7-.5 3.75 3.75 0 0 1 2.5.8 3.11 3.11 0 0 1 .9 2.5v6.6h-2.1v-6a2.2 2.2 0 0 0-.5-1.6 1.55 1.55 0 0 0-1.4-.5 3.55 3.55 0 0 0-1 .2 1.79 1.79 0 0 0-.7.5 2.18 2.18 0 0 0-.5.8 3.55 3.55 0 0 0-.2 1v5.7h-2.1l.1-9.6zM650.8 236.7h1.6v-2.9h2.1v2.9h1.9v1.6h-1.9v5.7c0 .1.1.3.1.4a.53.53 0 0 0 .3.2 1.27 1.27 0 0 0 .6.1h.5a.9.9 0 0 0 .5-.1v1.6l-.7.1h-.7a2.74 2.74 0 0 1-1.3-.2 1.37 1.37 0 0 1-.8-.5 2 2 0 0 1-.4-.8 3.75 3.75 0 0 1-.1-1.1V238h-1.6l-.1-1.3zM592.3 271.7a16.18 16.18 0 0 1-1-1.8c-.3-.6-.6-1.3-.9-2a15.21 15.21 0 0 1-.1-9.2 17.36 17.36 0 0 1 2-4.1h1.7a20.88 20.88 0 0 0-1.7 4.1 16.31 16.31 0 0 0-.6 4.5 17.4 17.4 0 0 0 .6 4.5 20.88 20.88 0 0 0 1.7 4.1l-1.7-.1zM594.9 254.9h5.9a5.87 5.87 0 0 1 2.3.4 4.51 4.51 0 0 1 1.4 1 8.27 8.27 0 0 1 .7 1.3 4.32 4.32 0 0 1 0 2.6 2.39 2.39 0 0 1-.7 1.3 3.59 3.59 0 0 1-1.4 1 5.87 5.87 0 0 1-2.3.4h-3.5v5.1H595l-.1-13.1zm2.3 6.3h3.4a2.2 2.2 0 0 0 .8-.1 3 3 0 0 0 .8-.4 4.35 4.35 0 0 0 .6-.7 1.8 1.8 0 0 0 .2-1 4.25 4.25 0 0 0-.2-1.1 1.79 1.79 0 0 0-.5-.7 1.08 1.08 0 0 0-.7-.3 2.77 2.77 0 0 0-.9-.1h-3.4l-.1 4.4zM615 268.2h-2v-1.3a3.45 3.45 0 0 1-1.2 1.2 2.93 2.93 0 0 1-1.6.4 3.32 3.32 0 0 1-2.7-.9 4 4 0 0 1-.8-2.8v-6.3h2.1v5.9a2.38 2.38 0 0 0 .5 1.8 1.55 1.55 0 0 0 1.4.5 3.59 3.59 0 0 0 1.1-.2 1.79 1.79 0 0 0 .7-.5 2 2 0 0 0 .4-.8 3.4 3.4 0 0 0 .1-1v-5.6h2v9.6zM617 254.9h2.1v4.9a2.65 2.65 0 0 1 .5-.6 4.23 4.23 0 0 1 .7-.5c.3-.1.5-.2.8-.3a2.48 2.48 0 0 1 .8-.1 4.48 4.48 0 0 1 2 .4 4.86 4.86 0 0 1 1.4 1.1 3.46 3.46 0 0 1 .8 1.6 6.45 6.45 0 0 1 .3 2 12.25 12.25 0 0 1-.2 1.9 4.81 4.81 0 0 1-.8 1.6 3.5 3.5 0 0 1-3.1 1.5 3.4 3.4 0 0 1-1-.1 2.92 2.92 0 0 1-.9-.2 2.18 2.18 0 0 1-.8-.5 1.56 1.56 0 0 1-.6-.8v1.3h-2v-13.2zm7.4 8.5a6.88 6.88 0 0 0-.2-1.3 3.7 3.7 0 0 0-.5-1.1 3 3 0 0 0-.8-.8 2.38 2.38 0 0 0-1.2-.3 2.52 2.52 0 0 0-2 .9 3.67 3.67 0 0 0-.7 2.5 6.75 6.75 0 0 0 .2 1.4 3.7 3.7 0 0 0 .5 1.1 2.7 2.7 0 0 0 .8.7 2.28 2.28 0 0 0 1.1.3 2.38 2.38 0 0 0 1.2-.3 3 3 0 0 0 .8-.8 3.7 3.7 0 0 0 .5-1.1 1.8 1.8 0 0 0 .3-1.2zM628 254.9h2.1v13.3H628v-13.3zM632.1 254.9h2.1v2h-2.1v-2zm0 3.6h2.1v9.6h-2.1v-9.6zM642.6 261.8a2.67 2.67 0 0 0-.7-1.4 2.46 2.46 0 0 0-1.5-.5c-.3 0-.6.1-.9.1a4 4 0 0 0-.9.5 4.13 4.13 0 0 0-.7 1.1 5.66 5.66 0 0 0-.3 1.8 4.87 4.87 0 0 0 .1 1.2 2.7 2.7 0 0 0 .5 1.1 3 3 0 0 0 .8.8 2.66 2.66 0 0 0 1.2.3 2 2 0 0 0 1.5-.6 3 3 0 0 0 .8-1.6h2.1a4.69 4.69 0 0 1-1.4 2.9 4.06 4.06 0 0 1-3 1 4.48 4.48 0 0 1-2-.4 4.92 4.92 0 0 1-1.5-1 5.07 5.07 0 0 1-.9-1.6 6.82 6.82 0 0 1 0-4 4.37 4.37 0 0 1 2.4-2.7 5.22 5.22 0 0 1 2.1-.4 8.75 8.75 0 0 1 1.6.2 3.1 3.1 0 0 1 1.3.6 5.24 5.24 0 0 1 1 1.1 4.42 4.42 0 0 1 .5 1.5h-2.1zM646.6 254.6a11.4 11.4 0 0 1 1 1.9 11.92 11.92 0 0 1 .8 2c.2.7.4 1.5.6 2.2a21.06 21.06 0 0 1 .2 2.5 13.08 13.08 0 0 1-.7 4.4 14.21 14.21 0 0 1-2 4.1h-1.7a20.88 20.88 0 0 0 1.7-4.1 16.31 16.31 0 0 0 .6-4.5 17.4 17.4 0 0 0-.6-4.5 20.88 20.88 0 0 0-1.7-4.1h1.8v.1z" transform="translate(-.5 -.5)"/><path class="how3-1" d="M438.1 230.3H477v14.5h-38.9z"/><g class="how3-9"><path class="how3-10" d="M442 237.2h3.8a2.52 2.52 0 0 1 2 .6 1.91 1.91 0 0 1 .6 1.6 1.49 1.49 0 0 1-.2.9 2.09 2.09 0 0 1-.4.6c-.1.1-.3.2-.4.3l-.3.1c.1 0 .3.1.4.1a1 1 0 0 1 .4.3 2.19 2.19 0 0 1 .3.5 2 2 0 0 1 .1.8 6.15 6.15 0 0 0 .1 1.3 1.14 1.14 0 0 0 .3.8h-1.5a1.42 1.42 0 0 1-.2-.6v-.6a2.77 2.77 0 0 0-.1-.9 1.07 1.07 0 0 0-.2-.6 1 1 0 0 0-.5-.4 2.2 2.2 0 0 0-.8-.1h-2v3.2H442v-7.9zm1.4 3.6h2.2a1.69 1.69 0 0 0 1-.3 1.1 1.1 0 0 0 .3-.9 1.27 1.27 0 0 0-.1-.6c-.1-.1-.2-.3-.3-.4a.76.76 0 0 0-.4-.2h-2.7v2.4zM452.2 245.2a5 5 0 0 1-1.2-.2 2.76 2.76 0 0 1-1.5-1.5 3.7 3.7 0 0 1 0-2.4 1.46 1.46 0 0 1 .6-.9 2.36 2.36 0 0 1 .9-.6 3.31 3.31 0 0 1 2.4 0 2.76 2.76 0 0 1 1.5 1.5 3.7 3.7 0 0 1 0 2.4 1.46 1.46 0 0 1-.6.9 2.36 2.36 0 0 1-.9.6 2.54 2.54 0 0 1-1.2.2zm0-1a1.45 1.45 0 0 0 .7-.2 1.21 1.21 0 0 0 .5-.5l.3-.6a3.79 3.79 0 0 0 0-1.5l-.3-.6a2.36 2.36 0 0 0-.5-.5 2 2 0 0 0-1.5 0 1.21 1.21 0 0 0-.5.5l-.3.6a3.79 3.79 0 0 0 0 1.5l.3.6a2.36 2.36 0 0 0 .5.5.88.88 0 0 0 .8.2zM461.1 245.1h-1.2v-.8a2.34 2.34 0 0 1-.7.7 1.61 1.61 0 0 1-.9.3 1.91 1.91 0 0 1-1.6-.6 2.62 2.62 0 0 1-.5-1.7v-3.6h1.2v3.5a2 2 0 0 0 .3 1.1 1.14 1.14 0 0 0 .8.3 1.7 1.7 0 0 0 .7-.1 1.38 1.38 0 0 0 .4-.3.76.76 0 0 0 .2-.5c0-.2.1-.4.1-.6v-3.3h1.2v5.6zM461.9 239.4h1v-1.7h1.2v1.7h1.1v.9h-1.1v3.3c0 .1 0 .2.1.2s.1.1.2.1h.9v1h-.8a2.2 2.2 0 0 1-.8-.1 1.33 1.33 0 0 1-.5-.3.76.76 0 0 1-.2-.5c0-.2-.1-.4-.1-.6v-3.3h-1v-.7zM467.1 242.6a1.27 1.27 0 0 0 .1.6 2.19 2.19 0 0 0 .3.5 1 1 0 0 0 .5.4 1.48 1.48 0 0 0 .7.1 2.92 2.92 0 0 0 .9-.2 4.35 4.35 0 0 0 .6-.7h1.2a1.94 1.94 0 0 1-.9 1.4 2 2 0 0 1-.8.4 2.77 2.77 0 0 1-.9.1 5 5 0 0 1-1.2-.2 4.7 4.7 0 0 1-.9-.6 4.05 4.05 0 0 1-.5-.9 5 5 0 0 1-.2-1.2 3.59 3.59 0 0 1 .2-1.1 3.13 3.13 0 0 1 .5-1 2.52 2.52 0 0 1 2-.9 2.66 2.66 0 0 1 1.2.3 3.11 3.11 0 0 1 .9.7 3.7 3.7 0 0 1 .5 1.1 4.87 4.87 0 0 1 .1 1.2h-4.3zm2.9-.9c0-.2-.1-.4-.1-.6a1.33 1.33 0 0 0-.3-.5 1 1 0 0 0-.4-.3 1.85 1.85 0 0 0-1.2 0c-.2.1-.3.2-.5.3a2.19 2.19 0 0 0-.3.5 1.27 1.27 0 0 0-.1.6h2.9zM472.2 239.4h1.2v1.1a.52.52 0 0 1 .2-.4 1.51 1.51 0 0 1 .4-.4c.2-.1.3-.2.5-.3a1.27 1.27 0 0 1 .6-.1h.5v1.2h-.6a1.27 1.27 0 0 0-.6.1 1 1 0 0 0-.5.4 1.69 1.69 0 0 0-.3.6 2.49 2.49 0 0 0-.1.8v2.7h-1.2l-.1-5.7z" transform="translate(-.5 -.5)"/></g><path class="how3-11" d="M424.7 134.4h-.2a1.08 1.08 0 0 0 .8.2c3.1 0 5.7-11.3 5.7-25.3S428.5 84 425.3 84a.75.75 0 0 0-.5.1M424.7 84.2v-.4H226.6c-2.7 2.2-4.7 13.1-4.7 25.5s2 23.6 4.7 24.9a5.54 5.54 0 0 0 1.8.2h196c-2.8-1.7-4.9-12.3-4.9-25 0-13.2 2.3-24.1 5.2-25.2zM424.7 79.3h-.2a1.08 1.08 0 0 0 .8.2c3.1 0 5.7-11.3 5.7-25.3s-2.5-25.3-5.7-25.3a.75.75 0 0 0-.5.1M424.7 29.2v-.4H226.6c-2.7 2.2-4.7 13.1-4.7 25.5s2 23.6 4.7 24.8a5.54 5.54 0 0 0 1.8.2h196c-2.8-1.7-4.9-12.3-4.9-25 0-13.1 2.3-23.9 5.2-25.1zM424.7 189.7h-.2a1.08 1.08 0 0 0 .8.2c3.1 0 5.7-11.3 5.7-25.3s-2.5-25.3-5.7-25.3a.75.75 0 0 0-.5.1M424.7 139.5v-.4H226.6c-2.7 2.2-4.7 13.1-4.7 25.5s2 23.6 4.7 24.9a5.54 5.54 0 0 0 1.8.2h196c-2.8-1.7-4.9-12.3-4.9-25 0-13.2 2.3-24 5.2-25.2zM424.7 244.6h-.2a1.08 1.08 0 0 0 .8.2c3.1 0 5.7-11.3 5.7-25.3s-2.5-25.2-5.7-25.2a.75.75 0 0 0-.5.1M424.7 194.4v-.4H226.6c-2.7 2.2-4.7 13.1-4.7 25.5s2 23.6 4.7 24.9a5.54 5.54 0 0 0 1.8.2h196c-2.8-1.7-4.9-12.3-4.9-25 0-13.2 2.3-24 5.2-25.2z" transform="translate(-.5 -.5)"/><path class="how3-1" d="M222.1 246.9H234v2.1h-11.9z"/><path class="how3-1" d="M246.8 157.9a5.22 5.22 0 0 1 2.1.4 4.19 4.19 0 0 1 1.4.9 5.67 5.67 0 0 1 .8 1.3 5.45 5.45 0 0 1 0 3.1 3.53 3.53 0 0 1-.8 1.3 4.19 4.19 0 0 1-1.4.9 7.79 7.79 0 0 1-2.1.4h-3v4.6H241v-12.9h5.8zm-.8 6a2.77 2.77 0 0 0 .9-.1 1.33 1.33 0 0 0 .8-.3 1.7 1.7 0 0 0 .6-.6 2.33 2.33 0 0 0 0-2 1.7 1.7 0 0 0-.6-.6 6.89 6.89 0 0 0-.8-.3c-.3 0-.6-.1-.9-.1h-2.2v3.9l2.2.1zM252.3 160v-2.1h2.6v2.1h-2.6zm2.6 1.5v9.3h-2.6v-9.3h2.6zM258.9 161.5v1.2a2.54 2.54 0 0 1 1.2-1.1 4.15 4.15 0 0 1 1.6-.3 4.06 4.06 0 0 1 1.9.4 3.48 3.48 0 0 1 1.3 1.1 4.81 4.81 0 0 1 .8 1.6 4.13 4.13 0 0 1 .2 1.9 11 11 0 0 1-.2 1.8 3.61 3.61 0 0 1-.8 1.5 4.73 4.73 0 0 1-1.3 1.1 3.92 3.92 0 0 1-1.8.4 3.17 3.17 0 0 1-1.6-.4 2.94 2.94 0 0 1-1.2-1v4.4h-2.5v-12.6h2.4zm3.3 7.4a2.34 2.34 0 0 0 .7-.7 3.55 3.55 0 0 0 .4-.9 6.1 6.1 0 0 0 0-2.2 3 3 0 0 0-.4-1 2.34 2.34 0 0 0-.7-.7 1.82 1.82 0 0 0-2 0 2.34 2.34 0 0 0-.7.7 3 3 0 0 0-.4 1 6.1 6.1 0 0 0 0 2.2 2.47 2.47 0 0 0 .4.9 2.16 2.16 0 0 0 2.7.7zM269.7 168.6a2.74 2.74 0 0 0 3 .2 1.78 1.78 0 0 0 .7-.8h2.2a4 4 0 0 1-1.6 2.4 5 5 0 0 1-2.7.7 4.48 4.48 0 0 1-2-.4 4 4 0 0 1-1.5-1 6.24 6.24 0 0 1-1-1.6 6.45 6.45 0 0 1-.3-2 5.82 5.82 0 0 1 .3-1.9 4.28 4.28 0 0 1 2.5-2.6 4.33 4.33 0 0 1 1.9-.4 4.06 4.06 0 0 1 2.1.5 4.43 4.43 0 0 1 1.5 1.2 3.7 3.7 0 0 1 .8 1.8 7.49 7.49 0 0 1 .2 2.1h-6.7a3 3 0 0 0 .6 1.8zm2.9-4.9a1.87 1.87 0 0 0-1.4-.5 3.55 3.55 0 0 0-1 .2 1 1 0 0 0-.6.5.86.86 0 0 0-.3.6 1.27 1.27 0 0 0-.1.6h4.2a3.92 3.92 0 0 0-.8-1.4zM279.5 157.9v12.9h-2.6v-12.9h2.6zM281.1 160v-2.1h2.6v2.1h-2.6zm2.6 1.5v9.3h-2.6v-9.3h2.6zM287.7 161.5v1.3a3 3 0 0 1 1.3-1.2 4.19 4.19 0 0 1 1.6-.4 5.08 5.08 0 0 1 1.7.3 2.54 2.54 0 0 1 1 .8 3.08 3.08 0 0 1 .5 1.2 4.19 4.19 0 0 1 .1 1.6v5.7h-2.5v-5.3a3.29 3.29 0 0 0-.4-1.7 1.61 1.61 0 0 0-1.3-.6 1.72 1.72 0 0 0-1.5.6 3.51 3.51 0 0 0-.5 2v4.9h-2.6v-9.3l2.6.1zM298.2 168.6a2.74 2.74 0 0 0 3 .2 1.78 1.78 0 0 0 .7-.8h2.2a4.13 4.13 0 0 1-1.7 2.4 5 5 0 0 1-2.7.7 4.48 4.48 0 0 1-2-.4 4 4 0 0 1-1.5-1 4.17 4.17 0 0 1-.9-1.6 6.45 6.45 0 0 1-.3-2 5.82 5.82 0 0 1 .3-1.9 4.28 4.28 0 0 1 2.5-2.6 4.33 4.33 0 0 1 1.9-.4 4.06 4.06 0 0 1 2.1.5 4.43 4.43 0 0 1 1.5 1.2 3.7 3.7 0 0 1 .8 1.8 7.49 7.49 0 0 1 .2 2.1h-6.7a3 3 0 0 0 .6 1.8zm2.9-4.9a1.87 1.87 0 0 0-1.4-.5 3.55 3.55 0 0 0-1 .2 1 1 0 0 0-.6.5.86.86 0 0 0-.3.6 1.27 1.27 0 0 0-.1.6h4.2a3.92 3.92 0 0 0-.8-1.4zM309.7 161.4a5.38 5.38 0 0 1 1-2 3.27 3.27 0 0 1 1.5-1.1 5.55 5.55 0 0 1 3.6 0 3.27 3.27 0 0 1 1.5 1.1 5.38 5.38 0 0 1 1 2 10.55 10.55 0 0 1 .4 3.1 11.7 11.7 0 0 1-.4 3.2 5.38 5.38 0 0 1-1 2 3.27 3.27 0 0 1-1.5 1.1 5.55 5.55 0 0 1-3.6 0 3.27 3.27 0 0 1-1.5-1.1 5.38 5.38 0 0 1-1-2 11.24 11.24 0 0 1-.4-3.2 10.55 10.55 0 0 1 .4-3.1zm2.2 4.3a7.72 7.72 0 0 0 .2 1.5 2.73 2.73 0 0 0 .6 1.2 1.69 1.69 0 0 0 2.39 0 3.38 3.38 0 0 0 .6-1.2 7.72 7.72 0 0 0 .2-1.5v-2.1a2.77 2.77 0 0 0-.1-.9 4.55 4.55 0 0 0-.6-1.9 1.72 1.72 0 0 0-.6-.6 1.49 1.49 0 0 0-.9-.2 2.92 2.92 0 0 0-.9.2l-.6.6a3.55 3.55 0 0 0-.4.9c-.1.3-.1.7-.2 1a2.77 2.77 0 0 0-.1.9v.8a6.83 6.83 0 0 1 .4 1.3zM328.3 163.3a2.92 2.92 0 0 0 .9-.2 1.79 1.79 0 0 0 .7-.5 1.4 1.4 0 0 0 .3-.9 1.66 1.66 0 0 0-.5-1.2 1.92 1.92 0 0 0-1.2-.4 2 2 0 0 0-1.5.6 3 3 0 0 0-.5 1.6h-2.4a3.92 3.92 0 0 1 .4-1.8 4.19 4.19 0 0 1 .9-1.4 3.39 3.39 0 0 1 1.4-.9 5.66 5.66 0 0 1 1.8-.3 7.72 7.72 0 0 1 1.5.2 4.59 4.59 0 0 1 1.4.7 5.24 5.24 0 0 1 1 1.1 2.82 2.82 0 0 1 .4 1.5 2.93 2.93 0 0 1-.4 1.6 2.12 2.12 0 0 1-1.3 1 2.75 2.75 0 0 1 1.6 1 3.08 3.08 0 0 1 .6 1.9 3.92 3.92 0 0 1-.4 1.8 4.13 4.13 0 0 1-1 1.3 3.61 3.61 0 0 1-1.5.8 5.85 5.85 0 0 1-3.7 0 3.77 3.77 0 0 1-1.5-.9 7.1 7.1 0 0 1-1-1.4 6.28 6.28 0 0 1-.3-1.9h2.4a3.55 3.55 0 0 0 .2 1 2 2 0 0 0 .4.8 1.79 1.79 0 0 0 .7.5 3.55 3.55 0 0 0 1 .2 2.69 2.69 0 0 0 1.5-.5 2.11 2.11 0 0 0 .3-2.6 4.35 4.35 0 0 0-.7-.6 3 3 0 0 0-1-.2h-1v-1.8a.77.77 0 0 1 .5-.1zM246.8 212.7a5.22 5.22 0 0 1 2.1.4 4.19 4.19 0 0 1 1.4.9 5.67 5.67 0 0 1 .8 1.3 5.45 5.45 0 0 1 0 3.1 3.53 3.53 0 0 1-.8 1.3 4.19 4.19 0 0 1-1.4.9 7.79 7.79 0 0 1-2.1.4h-3v4.6H241v-12.9h5.8zm-.8 6a2.77 2.77 0 0 0 .9-.1 1.33 1.33 0 0 0 .8-.3 1.7 1.7 0 0 0 .6-.6 2.33 2.33 0 0 0 0-2 1.7 1.7 0 0 0-.6-.6 6.89 6.89 0 0 0-.8-.3c-.3 0-.6-.1-.9-.1h-2.2v3.9l2.2.1zM252.3 214.8v-2.1h2.6v2.1h-2.6zm2.6 1.5v9.3h-2.6v-9.3h2.6zM258.9 216.3v1.2a2.54 2.54 0 0 1 1.2-1.1 4.15 4.15 0 0 1 1.6-.3 4.06 4.06 0 0 1 1.9.4 3.48 3.48 0 0 1 1.3 1.1 4.81 4.81 0 0 1 .8 1.6 4.13 4.13 0 0 1 .2 1.9 11 11 0 0 1-.2 1.8 3.61 3.61 0 0 1-.8 1.5 4.73 4.73 0 0 1-1.3 1.1 3.92 3.92 0 0 1-1.8.4 3.17 3.17 0 0 1-1.6-.4 2.94 2.94 0 0 1-1.2-1v4.4h-2.5v-12.6h2.4zm3.3 7.3a2.34 2.34 0 0 0 .7-.7 3.55 3.55 0 0 0 .4-.9 6.1 6.1 0 0 0 0-2.2 3 3 0 0 0-.4-1 2.34 2.34 0 0 0-.7-.7 1.82 1.82 0 0 0-2 0 2.34 2.34 0 0 0-.7.7 3 3 0 0 0-.4 1 6.1 6.1 0 0 0 0 2.2 2.47 2.47 0 0 0 .4.9 2 2 0 0 0 2.7.7zM269.7 223.4a2.74 2.74 0 0 0 3 .2 1.78 1.78 0 0 0 .7-.8h2.2a4.13 4.13 0 0 1-1.7 2.4 5 5 0 0 1-2.7.7 4.48 4.48 0 0 1-2-.4 4 4 0 0 1-1.5-1 6.24 6.24 0 0 1-1-1.6 6.45 6.45 0 0 1-.3-2 5.82 5.82 0 0 1 .3-1.9 4.28 4.28 0 0 1 2.5-2.6 4.33 4.33 0 0 1 1.9-.4 4.06 4.06 0 0 1 2.1.5 4.43 4.43 0 0 1 1.5 1.2 3.7 3.7 0 0 1 .8 1.8 7.49 7.49 0 0 1 .2 2.1H269a4.49 4.49 0 0 0 .7 1.8zm2.9-4.9a1.87 1.87 0 0 0-1.4-.5 3.55 3.55 0 0 0-1 .2 1 1 0 0 0-.6.5.86.86 0 0 0-.3.6 1.27 1.27 0 0 0-.1.6h4.2a3.92 3.92 0 0 0-.8-1.4zM279.5 212.7v12.9h-2.6v-12.9h2.6zM281.1 214.8v-2.1h2.6v2.1h-2.6zm2.6 1.5v9.3h-2.6v-9.3h2.6zM287.7 216.3v1.3a3.74 3.74 0 0 1 1.3-1.2 4.19 4.19 0 0 1 1.6-.4 5.08 5.08 0 0 1 1.7.3 2.54 2.54 0 0 1 1 .8 3.08 3.08 0 0 1 .5 1.2 4.19 4.19 0 0 1 .1 1.6v5.7h-2.5v-5.2a3.29 3.29 0 0 0-.4-1.7 1.61 1.61 0 0 0-1.3-.6 1.72 1.72 0 0 0-1.5.6 3.51 3.51 0 0 0-.5 2v4.9h-2.6v-9.3h2.6zM298.2 223.4a2.74 2.74 0 0 0 3 .2 1.78 1.78 0 0 0 .7-.8h2.2a4.13 4.13 0 0 1-1.7 2.4 5 5 0 0 1-2.7.7 4.48 4.48 0 0 1-2-.4 4 4 0 0 1-1.5-1 4.17 4.17 0 0 1-.9-1.6 6.45 6.45 0 0 1-.3-2 5.82 5.82 0 0 1 .3-1.9 4.28 4.28 0 0 1 2.5-2.6 4.33 4.33 0 0 1 1.9-.4 4.06 4.06 0 0 1 2.1.5 4.43 4.43 0 0 1 1.5 1.2 3.7 3.7 0 0 1 .8 1.8 7.49 7.49 0 0 1 .2 2.1h-6.7a3.23 3.23 0 0 0 .6 1.8zm2.9-4.9a1.87 1.87 0 0 0-1.4-.5 3.55 3.55 0 0 0-1 .2 1 1 0 0 0-.6.5.86.86 0 0 0-.3.6 1.27 1.27 0 0 0-.1.6h4.2a3.92 3.92 0 0 0-.8-1.4zM309.7 216.1a5.38 5.38 0 0 1 1-2 3.27 3.27 0 0 1 1.5-1.1 5.55 5.55 0 0 1 3.6 0 3.27 3.27 0 0 1 1.5 1.1 5.38 5.38 0 0 1 1 2 10.55 10.55 0 0 1 .4 3.1 11.7 11.7 0 0 1-.4 3.2 5.38 5.38 0 0 1-1 2 3.27 3.27 0 0 1-1.5 1.1 5.55 5.55 0 0 1-3.6 0 3.27 3.27 0 0 1-1.5-1.1 5.38 5.38 0 0 1-1-2 11.24 11.24 0 0 1-.4-3.2 11 11 0 0 1 .4-3.1zm2.2 4.4a7.72 7.72 0 0 0 .2 1.5 2.73 2.73 0 0 0 .6 1.2 1.69 1.69 0 0 0 2.39 0 3.38 3.38 0 0 0 .6-1.2 7.72 7.72 0 0 0 .2-1.5v-2.1a2.77 2.77 0 0 0-.1-.9 4.55 4.55 0 0 0-.6-1.9 1.72 1.72 0 0 0-.6-.6 1.49 1.49 0 0 0-.9-.2 2.92 2.92 0 0 0-.9.2l-.6.6a3.55 3.55 0 0 0-.4.9c-.1.3-.1.7-.2 1a2.77 2.77 0 0 0-.1.9v.8a6.83 6.83 0 0 1 .4 1.3zM318.8 222.6v-2.3l5.5-7.3h2.3v7.6h1.7v2.1h-1.7v2.9h-2.4v-2.9l-5.4-.1zm5.3-6.4l-3.3 4.4h3.3v-4.4zM246.8 103.2a7.61 7.61 0 0 1 2.1.3 4.19 4.19 0 0 1 1.4.9 5.67 5.67 0 0 1 .8 1.3 5.45 5.45 0 0 1 0 3.1 3.53 3.53 0 0 1-.8 1.3 4.19 4.19 0 0 1-1.4.9 5.11 5.11 0 0 1-2.1.3h-3v4.6H241v-12.8h5.8v.1zm-.8 6a2.77 2.77 0 0 0 .9-.1 1.33 1.33 0 0 0 .8-.3 1.7 1.7 0 0 0 .6-.6 2.33 2.33 0 0 0 0-2 1.7 1.7 0 0 0-.6-.6 6.89 6.89 0 0 0-.8-.3c-.3 0-.6-.1-.9-.1h-2.2v3.8l2.2.2zM252.3 105.3v-2.1h2.6v2.1h-2.6zm2.6 1.4v9.3h-2.6v-9.3h2.6zM258.9 106.7v1.2a2.54 2.54 0 0 1 1.2-1.1 4.15 4.15 0 0 1 1.6-.3 4.06 4.06 0 0 1 1.9.4 3.48 3.48 0 0 1 1.3 1.1 4.81 4.81 0 0 1 .8 1.6 4.13 4.13 0 0 1 .2 1.9 11 11 0 0 1-.2 1.8 3.61 3.61 0 0 1-.8 1.5 4.73 4.73 0 0 1-1.3 1.1 3.92 3.92 0 0 1-1.8.4 4.53 4.53 0 0 1-1.6-.3 2.94 2.94 0 0 1-1.2-1v4.4h-2.5v-12.6h2.4v-.1zm3.3 7.4a2.34 2.34 0 0 0 .7-.7 3.55 3.55 0 0 0 .4-.9 6.1 6.1 0 0 0 0-2.2 3 3 0 0 0-.4-1 2.34 2.34 0 0 0-.7-.7 1.82 1.82 0 0 0-2 0 2.34 2.34 0 0 0-.7.7 3 3 0 0 0-.4 1 6.1 6.1 0 0 0 0 2.2 2.47 2.47 0 0 0 .4.9 2 2 0 0 0 2.7.7zM269.7 113.8a2.74 2.74 0 0 0 3 .2 1.78 1.78 0 0 0 .7-.8h2.2a4.13 4.13 0 0 1-1.7 2.4 5 5 0 0 1-2.7.7 6.45 6.45 0 0 1-2-.3 4 4 0 0 1-1.5-1 6.24 6.24 0 0 1-1-1.6 6.45 6.45 0 0 1-.3-2 5.82 5.82 0 0 1 .3-1.9 4.28 4.28 0 0 1 2.5-2.6 4.33 4.33 0 0 1 1.9-.4 4.06 4.06 0 0 1 2.1.5 4.43 4.43 0 0 1 1.5 1.2 3.7 3.7 0 0 1 .8 1.8 7.49 7.49 0 0 1 .2 2.1H269a4.1 4.1 0 0 0 .7 1.7zm2.9-4.9a1.87 1.87 0 0 0-1.4-.5 3.55 3.55 0 0 0-1 .2 1 1 0 0 0-.6.5.91.91 0 0 0-.3.7 1.27 1.27 0 0 0-.1.6h4.2a3.61 3.61 0 0 0-.8-1.5zM279.5 103.2V116h-2.6v-12.8h2.6zM281.1 105.3v-2.1h2.6v2.1h-2.6zm2.6 1.4v9.3h-2.6v-9.3h2.6zM287.7 106.7v1.3a3 3 0 0 1 1.3-1.2 4.19 4.19 0 0 1 1.6-.4 5.08 5.08 0 0 1 1.7.3 2.54 2.54 0 0 1 1 .8 3.08 3.08 0 0 1 .5 1.2 4.19 4.19 0 0 1 .1 1.6v5.7h-2.5v-5.3a3.29 3.29 0 0 0-.4-1.7 1.61 1.61 0 0 0-1.3-.6 1.72 1.72 0 0 0-1.5.6 3.51 3.51 0 0 0-.5 2v4.9h-2.6v-9.3l2.6.1zM298.2 113.8a2.74 2.74 0 0 0 3 .2 1.78 1.78 0 0 0 .7-.8h2.2a4.13 4.13 0 0 1-1.7 2.4 5 5 0 0 1-2.7.7 6.45 6.45 0 0 1-2-.3 4 4 0 0 1-1.5-1 4.17 4.17 0 0 1-.9-1.6 6.45 6.45 0 0 1-.3-2 5.82 5.82 0 0 1 .3-1.9 4.28 4.28 0 0 1 2.5-2.6 4.33 4.33 0 0 1 1.9-.4 4.06 4.06 0 0 1 2.1.5 4.43 4.43 0 0 1 1.5 1.2 3.7 3.7 0 0 1 .8 1.8 7.49 7.49 0 0 1 .2 2.1h-6.7a2.93 2.93 0 0 0 .6 1.7zm2.9-4.9a1.87 1.87 0 0 0-1.4-.5 3.55 3.55 0 0 0-1 .2 1 1 0 0 0-.6.5.91.91 0 0 0-.3.7 1.27 1.27 0 0 0-.1.6h4.2a3.61 3.61 0 0 0-.8-1.5zM309.7 106.6a5.38 5.38 0 0 1 1-2 3.27 3.27 0 0 1 1.5-1.1 5.55 5.55 0 0 1 3.6 0 3.27 3.27 0 0 1 1.5 1.1 5.38 5.38 0 0 1 1 2 10.55 10.55 0 0 1 .4 3.1 11.7 11.7 0 0 1-.4 3.2 5.38 5.38 0 0 1-1 2 3.27 3.27 0 0 1-1.5 1.1 5.55 5.55 0 0 1-3.6 0 3.27 3.27 0 0 1-1.5-1.1 5.38 5.38 0 0 1-1-2 11.24 11.24 0 0 1-.4-3.2 10.55 10.55 0 0 1 .4-3.1zm2.2 4.4a7.72 7.72 0 0 0 .2 1.5 2.73 2.73 0 0 0 .6 1.2 1.69 1.69 0 0 0 2.39 0 3.38 3.38 0 0 0 .6-1.2 7.72 7.72 0 0 0 .2-1.5v-2.1a2.77 2.77 0 0 0-.1-.9 4.55 4.55 0 0 0-.6-1.9 1.72 1.72 0 0 0-.6-.6 1.49 1.49 0 0 0-.9-.2 2.92 2.92 0 0 0-.9.2l-.6.6a3.55 3.55 0 0 0-.4.9c-.1.3-.1.7-.2 1a2.77 2.77 0 0 0-.1.9v.8a5 5 0 0 1 .4 1.3zM324.2 106.3a5.07 5.07 0 0 1 .9-1.6 4.18 4.18 0 0 1 1.5-1.1 4.48 4.48 0 0 1 2-.4 4.15 4.15 0 0 1 1.6.3 3.92 3.92 0 0 1 1.4.8 5.8 5.8 0 0 1 1 1.2 4.71 4.71 0 0 1 .4 1.7 4.15 4.15 0 0 1-.3 1.6 5 5 0 0 1-.8 1.2 5.24 5.24 0 0 1-1.1 1l-1.3.8c-.4.3-.9.6-1.3.9a5.73 5.73 0 0 0-1.1 1.1h6v2.2h-9.3a5.82 5.82 0 0 1 .3-1.9 4.19 4.19 0 0 1 .9-1.4 15.38 15.38 0 0 1 1.3-1.2c.5-.4 1-.7 1.5-1.1l.9-.6a5.5 5.5 0 0 0 .9-.7 2.7 2.7 0 0 0 .7-.8 1.69 1.69 0 0 0 .3-1 1.74 1.74 0 0 0-1.9-1.9 1.93 1.93 0 0 0-1 .3 1.34 1.34 0 0 0-.6.7 1.61 1.61 0 0 0-.3.9 3.4 3.4 0 0 0-.1 1h-2.5a2.76 2.76 0 0 1 0-2zM246.8 47.3a7.61 7.61 0 0 1 2.1.3 4.19 4.19 0 0 1 1.4.9 5.67 5.67 0 0 1 .8 1.3 5.11 5.11 0 0 1 0 3 3.53 3.53 0 0 1-.8 1.3 4.19 4.19 0 0 1-1.4.9 5.11 5.11 0 0 1-2.1.3h-3v4.6H241V47.3h5.8zm-.8 6a2.77 2.77 0 0 0 .9-.1 1.33 1.33 0 0 0 .8-.3 1.7 1.7 0 0 0 .6-.6 2.33 2.33 0 0 0 0-2 1.7 1.7 0 0 0-.6-.6 6.89 6.89 0 0 0-.8-.3c-.3 0-.6-.1-.9-.1h-2.2v3.8l2.2.2zM252.3 49.5v-2.1h2.6v2.1h-2.6zm2.6 1.4v9.3h-2.6v-9.3h2.6zM258.9 50.9v1.2a2.54 2.54 0 0 1 1.2-1.1 4.15 4.15 0 0 1 1.6-.3 4.06 4.06 0 0 1 1.9.4 3.48 3.48 0 0 1 1.3 1.1 4.81 4.81 0 0 1 .8 1.6 4.13 4.13 0 0 1 .2 1.9 11 11 0 0 1-.2 1.8 3.61 3.61 0 0 1-.8 1.5 4.73 4.73 0 0 1-1.3 1.1 3.92 3.92 0 0 1-1.8.4 4.53 4.53 0 0 1-1.6-.3 2.94 2.94 0 0 1-1.2-1v4.3h-2.5V50.9h2.4zm3.3 7.4a2.34 2.34 0 0 0 .7-.7 3.55 3.55 0 0 0 .4-.9 6.1 6.1 0 0 0 0-2.2 3 3 0 0 0-.4-1 2.34 2.34 0 0 0-.7-.7 1.82 1.82 0 0 0-2 0 2.34 2.34 0 0 0-.7.7 3 3 0 0 0-.4 1 6.1 6.1 0 0 0 0 2.2 2.47 2.47 0 0 0 .4.9 2 2 0 0 0 2.7.7zM269.7 58a2.74 2.74 0 0 0 3 .2 1.78 1.78 0 0 0 .7-.8h2.2a4 4 0 0 1-1.6 2.4 5 5 0 0 1-2.7.7 6.45 6.45 0 0 1-2-.3 4 4 0 0 1-1.5-1 6.24 6.24 0 0 1-1-1.6 6.45 6.45 0 0 1-.3-2 5.82 5.82 0 0 1 .3-1.9 4.28 4.28 0 0 1 2.5-2.6 4.33 4.33 0 0 1 1.9-.4 4.25 4.25 0 0 1 3.5 1.7 3.7 3.7 0 0 1 .8 1.8 7.49 7.49 0 0 1 .2 2.1H269a4.1 4.1 0 0 0 .7 1.7zm2.9-4.9a1.87 1.87 0 0 0-1.4-.5 3.55 3.55 0 0 0-1 .2 1 1 0 0 0-.6.5.91.91 0 0 0-.3.7 1.27 1.27 0 0 0-.1.6h4.2a3.61 3.61 0 0 0-.8-1.5zM279.5 47.3v12.9h-2.6V47.3h2.6zM281.1 49.5v-2.1h2.6v2.1h-2.6zm2.6 1.4v9.3h-2.6v-9.3h2.6zM287.7 50.9v1.3A3.74 3.74 0 0 1 289 51a4.19 4.19 0 0 1 1.6-.4 5.08 5.08 0 0 1 1.7.3 2.54 2.54 0 0 1 1 .8 3.08 3.08 0 0 1 .5 1.2 4.19 4.19 0 0 1 .1 1.6v5.7h-2.5v-5.3a3.29 3.29 0 0 0-.4-1.7 1.61 1.61 0 0 0-1.3-.6 1.72 1.72 0 0 0-1.5.6 3.51 3.51 0 0 0-.5 2v4.9h-2.6v-9.3h2.6v.1zM298.2 58a2.74 2.74 0 0 0 3 .2 1.78 1.78 0 0 0 .7-.8h2.2a4.13 4.13 0 0 1-1.7 2.4 5 5 0 0 1-2.7.7 6.45 6.45 0 0 1-2-.3 4 4 0 0 1-1.5-1 4.17 4.17 0 0 1-.9-1.6 6.45 6.45 0 0 1-.3-2 5.82 5.82 0 0 1 .3-1.9 4.28 4.28 0 0 1 2.5-2.6 4.33 4.33 0 0 1 1.9-.4 4.06 4.06 0 0 1 2.1.5 4.43 4.43 0 0 1 1.5 1.2 3.7 3.7 0 0 1 .8 1.8 7.49 7.49 0 0 1 .2 2.1h-6.7a2.93 2.93 0 0 0 .6 1.7zm2.9-4.9a1.87 1.87 0 0 0-1.4-.5 3.55 3.55 0 0 0-1 .2 1.79 1.79 0 0 0-.7.5.91.91 0 0 0-.3.7 1.27 1.27 0 0 0-.1.6h4.2a3 3 0 0 0-.7-1.5zM309.7 50.8a5.38 5.38 0 0 1 1-2 3.27 3.27 0 0 1 1.5-1.1 5.84 5.84 0 0 1 1.8-.4 5.66 5.66 0 0 1 1.8.3 3.27 3.27 0 0 1 1.5 1.1 5.38 5.38 0 0 1 1 2 10.55 10.55 0 0 1 .4 3.1 11.7 11.7 0 0 1-.4 3.2 5.38 5.38 0 0 1-1 2 3.27 3.27 0 0 1-1.5 1.1 5.55 5.55 0 0 1-3.6 0 3.27 3.27 0 0 1-1.5-1.1 5.38 5.38 0 0 1-1-2 11.24 11.24 0 0 1-.4-3.2 10.32 10.32 0 0 1 .4-3zm2.2 4.4a7.72 7.72 0 0 0 .2 1.5 2.73 2.73 0 0 0 .6 1.2 1.69 1.69 0 0 0 2.39 0 3.38 3.38 0 0 0 .6-1.2 7.72 7.72 0 0 0 .2-1.5v-2.1a3.75 3.75 0 0 0-.1-1 4.55 4.55 0 0 0-.6-1.9 1.72 1.72 0 0 0-.6-.6 1.49 1.49 0 0 0-.9-.2 2.92 2.92 0 0 0-.9.2l-.6.6a3.55 3.55 0 0 0-.4.9c-.1.3-.1.7-.2 1a3.08 3.08 0 0 0-.1 1v.8a6.83 6.83 0 0 1 .4 1.3zM324.2 50.5a5.07 5.07 0 0 1 .9-1.6 4.18 4.18 0 0 1 1.5-1.1 4.48 4.48 0 0 1 2-.4 4.15 4.15 0 0 1 1.6.3 3.92 3.92 0 0 1 1.4.8 5.8 5.8 0 0 1 1 1.2 4.71 4.71 0 0 1 .4 1.7 4.15 4.15 0 0 1-.3 1.6 5 5 0 0 1-.8 1.2 5.24 5.24 0 0 1-1.1 1l-1.3.8c-.4.3-.9.6-1.3.9a5.73 5.73 0 0 0-1.1 1.1h6v2.2h-9.3a5.82 5.82 0 0 1 .3-1.9 4.19 4.19 0 0 1 .9-1.4 13.57 13.57 0 0 1 1.2-1.2c.5-.4 1-.7 1.5-1.1l.9-.6a5.5 5.5 0 0 0 .9-.7 2.7 2.7 0 0 0 .7-.8 1.69 1.69 0 0 0 .3-1 1.74 1.74 0 0 0-1.9-1.9 1.93 1.93 0 0 0-1 .3 1.34 1.34 0 0 0-.6.7 1.61 1.61 0 0 0-.3.9 3.4 3.4 0 0 0-.1 1h-2.5a3.38 3.38 0 0 1 .1-2z" transform="translate(-.5 -.5)"/><path class="how3-12" d="M507.9 145.1h1.8v1.6c.1-.2.2-.5.3-.7l.6-.6a2 2 0 0 1 .8-.4 3.09 3.09 0 0 1 .8-.2h.7v1.8l-.4-.1h-.4a2.92 2.92 0 0 0-.9.2 1.34 1.34 0 0 0-.7.6 4.05 4.05 0 0 0-.5.9 5 5 0 0 0-.2 1.2v4.1h-1.9v-8.4zM514.8 149.8a3.4 3.4 0 0 0 .1 1 2 2 0 0 0 .4.8 4.35 4.35 0 0 0 .7.6 3.55 3.55 0 0 0 1 .2 2 2 0 0 0 1.3-.4 2.26 2.26 0 0 0 .8-1.1h1.8a3.45 3.45 0 0 1-1.4 2.1 3.37 3.37 0 0 1-1.2.6 5.85 5.85 0 0 1-1.3.2 5.66 5.66 0 0 1-1.8-.3 3.8 3.8 0 0 1-1.3-.9 3.92 3.92 0 0 1-.8-1.4 5.66 5.66 0 0 1-.3-1.8 4.67 4.67 0 0 1 .3-1.7 6.38 6.38 0 0 1 .8-1.4 4.16 4.16 0 0 1 4.8-.9 3.48 3.48 0 0 1 1.3 1.1 4.81 4.81 0 0 1 .8 1.6 4 4 0 0 1 .1 1.9l-6.1-.2zm4.4-1.2a2.92 2.92 0 0 0-.2-.9 1.61 1.61 0 0 0-.4-.7 1.79 1.79 0 0 0-.7-.5 2.13 2.13 0 0 0-1.8 0 1.79 1.79 0 0 0-.7.5 3 3 0 0 0-.5.7 2.92 2.92 0 0 0-.2.9h4.5zM530.6 156.8h-1.9v-4.3a2.65 2.65 0 0 1-.5.6 1.61 1.61 0 0 1-.7.4 2.35 2.35 0 0 1-.8.2c-.3 0-.5.1-.8.1a3.5 3.5 0 0 1-2.8-1.4 6.11 6.11 0 0 1-.7-1.4 8.81 8.81 0 0 1-.2-1.7 11 11 0 0 1 .2-1.8 6.11 6.11 0 0 1 .7-1.4 3.77 3.77 0 0 1 1.2-1 5.84 5.84 0 0 1 1.8-.4 3.65 3.65 0 0 1 1.5.3 2 2 0 0 1 1.1 1.1V145h1.8l.1 11.8zm-6.6-7.4a4.1 4.1 0 0 0 .1 1.1 3 3 0 0 0 .4 1 2.34 2.34 0 0 0 .7.7 2 2 0 0 0 1.1.3 2.06 2.06 0 0 0 1.8-.8 4.33 4.33 0 0 0 0-4.4 1.84 1.84 0 0 0-1.8-.8 1.69 1.69 0 0 0-1 .3 2.34 2.34 0 0 0-.7.7 3.13 3.13 0 0 0-.5 1 3.45 3.45 0 0 1-.1.9zM540.1 153.6h-1.8v-1.2a2.41 2.41 0 0 1-1 1 3.26 3.26 0 0 1-1.4.4 3 3 0 0 1-2.4-.8 3.75 3.75 0 0 1-.8-2.5v-5.4h1.9v5.3a2.28 2.28 0 0 0 .4 1.6 1.84 1.84 0 0 0 1.2.5 1.8 1.8 0 0 0 1-.2 1.47 1.47 0 0 0 .6-.5 1.08 1.08 0 0 0 .3-.7 2.77 2.77 0 0 0 .1-.9v-5h1.9v8.4zM543.6 149.8a3.4 3.4 0 0 0 .1 1 2 2 0 0 0 .4.8 4.35 4.35 0 0 0 .7.6 3.55 3.55 0 0 0 1 .2 2 2 0 0 0 1.3-.4 2.26 2.26 0 0 0 .8-1.1h1.8a3.45 3.45 0 0 1-1.4 2.1 3.37 3.37 0 0 1-1.2.6 5.85 5.85 0 0 1-1.3.2 5.66 5.66 0 0 1-1.8-.3 3.8 3.8 0 0 1-1.3-.9 3.92 3.92 0 0 1-.8-1.4 5.66 5.66 0 0 1-.3-1.8 4.67 4.67 0 0 1 .3-1.7 6.38 6.38 0 0 1 .8-1.4 4.16 4.16 0 0 1 4.8-.9 4.51 4.51 0 0 1 1.4 1 4.81 4.81 0 0 1 .8 1.6 4 4 0 0 1 .1 1.9l-6.2-.1zm4.4-1.2a2.92 2.92 0 0 0-.2-.9 1.61 1.61 0 0 0-.4-.7 1.79 1.79 0 0 0-.7-.5 2.13 2.13 0 0 0-1.8 0 1.79 1.79 0 0 0-.7.5 3 3 0 0 0-.5.7 2.92 2.92 0 0 0-.2.9h4.5zM552.7 150.9a1.43 1.43 0 0 0 .6 1.2 2.77 2.77 0 0 0 1.3.3h.6a1.42 1.42 0 0 0 .6-.2 2.19 2.19 0 0 0 .5-.3 1.42 1.42 0 0 0 .2-.6.86.86 0 0 0-.3-.6 2.09 2.09 0 0 0-.6-.4 2.92 2.92 0 0 0-.9-.2l-1-.2c-.3-.1-.7-.2-1-.3s-.6-.3-.9-.4a1.34 1.34 0 0 1-.6-.7 2 2 0 0 1-.2-1.1 2.66 2.66 0 0 1 .3-1.2 2.36 2.36 0 0 1 .9-.8 5.64 5.64 0 0 1 1.2-.4 4.87 4.87 0 0 1 1.2-.1 6.15 6.15 0 0 1 1.3.1 3.58 3.58 0 0 1 1.1.4 3 3 0 0 1 .8.8 2.84 2.84 0 0 1 .4 1.2h-2a1.15 1.15 0 0 0-.6-.9 2 2 0 0 0-1.1-.2h-.5c-.2 0-.3.1-.5.1a.62.62 0 0 0-.4.3.76.76 0 0 0-.2.4 1.42 1.42 0 0 0 .2.6 2.09 2.09 0 0 0 .6.4 2.92 2.92 0 0 0 .9.2l1 .2c.3.1.7.2 1 .3s.6.3.9.4a1.34 1.34 0 0 1 .6.7 1.39 1.39 0 0 1 .2 1.1 2.77 2.77 0 0 1-.3 1.3 2.58 2.58 0 0 1-.9.9 6.12 6.12 0 0 1-1.2.5 5.7 5.7 0 0 1-1.3.1 7.72 7.72 0 0 1-1.5-.2 3.38 3.38 0 0 1-1.2-.6 3.45 3.45 0 0 1-.8-.9 3.08 3.08 0 0 1-.3-1.3l1.9.1zM559 145.1h1.4v-2.6h1.9v2.6h1.7v1.4h-1.7v5.1c0 .1.1.3.1.4a.53.53 0 0 0 .3.2.9.9 0 0 0 .5.1h.4a.6.6 0 0 0 .4-.1v1.4l-.6.1h-.6a4.87 4.87 0 0 1-1.2-.1 1.61 1.61 0 0 1-.7-.4.91.91 0 0 1-.3-.7 2.77 2.77 0 0 1-.1-.9v-5h-1.4l-.1-1.5zM113.4 180h1.8v1.6c.1-.2.2-.5.3-.7l.6-.6a2 2 0 0 1 .8-.4 3.09 3.09 0 0 1 .8-.2h.7v1.8l-.4-.1h-.4a2.92 2.92 0 0 0-.9.2 1.34 1.34 0 0 0-.7.6 4 4 0 0 0-.5.9 5 5 0 0 0-.2 1.2v4.1h-1.9V180zM120.4 184.8a3.4 3.4 0 0 0 .1 1 2 2 0 0 0 .4.8 4.35 4.35 0 0 0 .7.6 3.55 3.55 0 0 0 1 .2 2 2 0 0 0 1.3-.4 2.26 2.26 0 0 0 .8-1.1h1.8a3.45 3.45 0 0 1-1.4 2.1 3.88 3.88 0 0 1-1.1.6 5.85 5.85 0 0 1-1.3.2 5.66 5.66 0 0 1-1.8-.3 3.81 3.81 0 0 1-1.3-.9 3.92 3.92 0 0 1-.8-1.4 5.66 5.66 0 0 1-.3-1.8 4.67 4.67 0 0 1 .3-1.7 6.38 6.38 0 0 1 .8-1.4 4.16 4.16 0 0 1 4.8-.9 3.48 3.48 0 0 1 1.3 1.1 4.81 4.81 0 0 1 .8 1.6 4 4 0 0 1 .1 1.9l-6.2-.2zm4.4-1.3a2.92 2.92 0 0 0-.2-.9 1.61 1.61 0 0 0-.4-.7 1.79 1.79 0 0 0-.7-.5 2.13 2.13 0 0 0-1.8 0 1.79 1.79 0 0 0-.7.5 3 3 0 0 0-.5.7 2.92 2.92 0 0 0-.2.9h4.5zM129.5 185.8a1.43 1.43 0 0 0 .6 1.2 2.77 2.77 0 0 0 1.3.3h.6a1.42 1.42 0 0 0 .6-.2 2.19 2.19 0 0 0 .5-.3 1.42 1.42 0 0 0 .2-.6.86.86 0 0 0-.3-.6 2.09 2.09 0 0 0-.6-.4 2.92 2.92 0 0 0-.9-.2l-1-.2c-.3-.1-.7-.2-1-.3s-.6-.3-.9-.4a1.34 1.34 0 0 1-.6-.7 2 2 0 0 1-.2-1.1 2.66 2.66 0 0 1 .3-1.2 2.36 2.36 0 0 1 .9-.8 4.48 4.48 0 0 1 2.3-.5 6.15 6.15 0 0 1 1.3.1 3.58 3.58 0 0 1 1.1.4 3 3 0 0 1 .8.8 2.84 2.84 0 0 1 .4 1.2h-2a1.15 1.15 0 0 0-.6-.9 2 2 0 0 0-1.1-.2h-.5c-.2 0-.3.1-.5.1a.62.62 0 0 0-.4.3.76.76 0 0 0-.2.4 1.42 1.42 0 0 0 .2.6 2.09 2.09 0 0 0 .6.4 2.92 2.92 0 0 0 .9.2l1 .2c.3.1.7.2 1 .3s.6.3.9.4a1.34 1.34 0 0 1 .6.7 1.39 1.39 0 0 1 .2 1.1 2 2 0 0 1-.4 1.3 2.58 2.58 0 0 1-.9.9 6.12 6.12 0 0 1-1.2.5 5.7 5.7 0 0 1-1.3.1 7.72 7.72 0 0 1-1.5-.2 3.38 3.38 0 0 1-1.2-.6 3.45 3.45 0 0 1-.8-.9 3.08 3.08 0 0 1-.3-1.3l2.1.1zM136.7 180h1.8v1.1a2.35 2.35 0 0 1 1.1-1.1 4 4 0 0 1 1.5-.3 3.92 3.92 0 0 1 1.8.4 2.94 2.94 0 0 1 1.2 1 4.81 4.81 0 0 1 .9 3.2 9.85 9.85 0 0 1-.2 1.7 3.69 3.69 0 0 1-.7 1.4 3.37 3.37 0 0 1-2.8 1.4 2 2 0 0 1-.8-.1 2.35 2.35 0 0 1-.8-.2 4.35 4.35 0 0 1-.7-.4 2.65 2.65 0 0 1-.5-.6v4.3h-1.9l.1-11.8zm6.6 4.3c0-.4-.1-.8-.1-1.1a3 3 0 0 0-.4-1 2.34 2.34 0 0 0-.7-.7 1.69 1.69 0 0 0-1-.3 2.34 2.34 0 0 0-1.8.8 4 4 0 0 0-.6 2.2 5 5 0 0 0 .2 1.2 2.62 2.62 0 0 0 .5.9 1.56 1.56 0 0 0 .8.6 1.8 1.8 0 0 0 1 .2 2 2 0 0 0 1.1-.3 2.34 2.34 0 0 0 .7-.7 3 3 0 0 0 .4-1 1 1 0 0 1-.1-.8zM150.6 188.8a5.66 5.66 0 0 1-1.8-.3 4.19 4.19 0 0 1-1.4-.9 2.85 2.85 0 0 1-.8-1.4 5.55 5.55 0 0 1 0-3.6 6.38 6.38 0 0 1 .8-1.4 3.39 3.39 0 0 1 1.4-.9 4.51 4.51 0 0 1 3.6 0 4.19 4.19 0 0 1 1.4.9 2.85 2.85 0 0 1 .8 1.4 5.55 5.55 0 0 1 0 3.6 6.38 6.38 0 0 1-.8 1.4 3.39 3.39 0 0 1-1.4.9 4.84 4.84 0 0 1-1.8.3zm0-1.5a2 2 0 0 0 1.1-.3 2.7 2.7 0 0 0 .8-.7 1.78 1.78 0 0 0 .4-1 4.11 4.11 0 0 0 0-2.2 3 3 0 0 0-.4-1 2.7 2.7 0 0 0-.8-.7 2.17 2.17 0 0 0-2.2 0 2.7 2.7 0 0 0-.8.7 1.78 1.78 0 0 0-.4 1 4.11 4.11 0 0 0 0 2.2 3 3 0 0 0 .4 1 2.7 2.7 0 0 0 .8.7 2.61 2.61 0 0 0 1.1.3zM156.5 180h1.8v1.2a3.84 3.84 0 0 1 1.1-1.1 2.82 2.82 0 0 1 1.5-.4 3.41 3.41 0 0 1 2.2.7 2.65 2.65 0 0 1 .8 2.2v5.9H162v-5.4a2.82 2.82 0 0 0-.4-1.5 1.37 1.37 0 0 0-1.2-.4 2.92 2.92 0 0 0-.9.2 1.47 1.47 0 0 0-.6.5 2.51 2.51 0 0 0-.4.7 1.41 1.41 0 0 0-.1.9v5h-1.9V180zM167.4 185.8a1.43 1.43 0 0 0 .6 1.2 2.77 2.77 0 0 0 1.3.3h.6a1.42 1.42 0 0 0 .6-.2 2.19 2.19 0 0 0 .5-.3 1.42 1.42 0 0 0 .2-.6.86.86 0 0 0-.3-.6 2.09 2.09 0 0 0-.6-.4 2.92 2.92 0 0 0-.9-.2l-1-.2c-.3-.1-.7-.2-1-.3s-.6-.3-.9-.4a1.34 1.34 0 0 1-.6-.7 2 2 0 0 1-.2-1.1 2.66 2.66 0 0 1 .3-1.2 2.36 2.36 0 0 1 .9-.8 5.64 5.64 0 0 1 1.2-.4 4.87 4.87 0 0 1 1.2-.1 6.15 6.15 0 0 1 1.3.1 3.58 3.58 0 0 1 1.1.4 3 3 0 0 1 .8.8 2.84 2.84 0 0 1 .4 1.2h-2a1.15 1.15 0 0 0-.6-.9 2 2 0 0 0-1.1-.2h-.5c-.2 0-.3.1-.5.1a.62.62 0 0 0-.4.3.76.76 0 0 0-.2.4 1.42 1.42 0 0 0 .2.6 2.09 2.09 0 0 0 .6.4 2.92 2.92 0 0 0 .9.2l1 .2c.3.1.7.2 1 .3s.6.3.9.4a1.34 1.34 0 0 1 .6.7 1.39 1.39 0 0 1 .2 1.1 2 2 0 0 1-.4 1.3 2.58 2.58 0 0 1-.9.9 6.12 6.12 0 0 1-1.2.5 5.7 5.7 0 0 1-1.3.1 7.72 7.72 0 0 1-1.5-.2 3.38 3.38 0 0 1-1.2-.6 3.45 3.45 0 0 1-.8-.9 3.08 3.08 0 0 1-.3-1.3l2 .1zM176 184.8a3.4 3.4 0 0 0 .1 1 2 2 0 0 0 .4.8 4.35 4.35 0 0 0 .7.6 3.55 3.55 0 0 0 1 .2 2 2 0 0 0 1.3-.4 2.26 2.26 0 0 0 .8-1.1h1.8a3.45 3.45 0 0 1-1.4 2.1 3.88 3.88 0 0 1-1.1.6 5.85 5.85 0 0 1-1.3.2 5.66 5.66 0 0 1-1.8-.3 3.81 3.81 0 0 1-1.3-.9 3.92 3.92 0 0 1-.8-1.4 5.66 5.66 0 0 1-.3-1.8 4.67 4.67 0 0 1 .3-1.7 6.38 6.38 0 0 1 .8-1.4 4.16 4.16 0 0 1 4.8-.9 3.48 3.48 0 0 1 1.3 1.1 4.81 4.81 0 0 1 .8 1.6 4 4 0 0 1 .1 1.9l-6.2-.2zm4.4-1.3a2.92 2.92 0 0 0-.2-.9 1.61 1.61 0 0 0-.4-.7 1.79 1.79 0 0 0-.7-.5 2.13 2.13 0 0 0-1.8 0 1.79 1.79 0 0 0-.7.5 3 3 0 0 0-.5.7 2.92 2.92 0 0 0-.2.9h4.5z" transform="translate(-.5 -.5)"/><path class="how3-13" d="M503.7 132.7l-14.6 14.6 14.6 14.6M201.6 132.7l-14.7 14.6 14.7 14.6"/><path class="how3-14" d="M483.5 147.2h-4"/><path class="how3-15" d="M471.7 147.2H194.5"/><path class="how3-14" d="M190.6 147.2h-4"/><path class="how3-13" d="M489.6 196.6l14.6-14.7-14.6-14.6"/><path class="how3-14" d="M209.4 181.9h4"/><path class="how3-16" d="M221.5 181.9h270.3"/><path class="how3-14" d="M495.8 181.9h4"/><path class="how3-13" d="M188.8 196.6l14.6-14.7-14.6-14.6"/><path class="how3-8" d="M215.6 281.9h264.5a3.12 3.12 0 0 1 3.1 3.1v19.2a3.12 3.12 0 0 1-3.1 3.1H215.6a3.12 3.12 0 0 1-3.1-3.1V285a3 3 0 0 1 2.9-3.1h.2z" transform="translate(-.5 -.5)"/><path class="how3-17" d="M282 292.7a4.88 4.88 0 0 0-.3-.7 1.82 1.82 0 0 0-1.1-1 2.77 2.77 0 0 0-.9-.1 3.08 3.08 0 0 0-1.3.3 2.36 2.36 0 0 0-.9.8 3.7 3.7 0 0 0-.5 1.1 5.71 5.71 0 0 0 0 2.6 3.7 3.7 0 0 0 .5 1.1 2.36 2.36 0 0 0 .9.8 2.77 2.77 0 0 0 1.3.3 3.55 3.55 0 0 0 1-.2 1.79 1.79 0 0 0 .7-.5 2.18 2.18 0 0 0 .5-.8 3 3 0 0 0 .2-1h1.6a4.19 4.19 0 0 1-.4 1.5 5 5 0 0 1-.8 1.2 8.34 8.34 0 0 1-1.2.8 4 4 0 0 1-1.5.3 4.33 4.33 0 0 1-1.9-.4 4.51 4.51 0 0 1-1.4-1 6 6 0 0 1-.9-1.5 6.16 6.16 0 0 1 0-3.8 3.77 3.77 0 0 1 .9-1.5 4.51 4.51 0 0 1 1.4-1 4.06 4.06 0 0 1 1.9-.4 7.72 7.72 0 0 1 1.5.2 2.73 2.73 0 0 1 1.2.6 9 9 0 0 1 .9 1 3.26 3.26 0 0 1 .4 1.3H282zM285.7 296.1a2.2 2.2 0 0 0 .1.8 3.33 3.33 0 0 0 .3.6 1.27 1.27 0 0 0 .6.4 2.35 2.35 0 0 0 .8.2 1.69 1.69 0 0 0 1-.3 1.56 1.56 0 0 0 .6-.8h1.4a2.45 2.45 0 0 1-1.1 1.7 3.55 3.55 0 0 1-.9.4 3.4 3.4 0 0 1-1 .1 3.19 3.19 0 0 1-1.4-.3 3.59 3.59 0 0 1-1-.7 2.38 2.38 0 0 1-.6-1.1 5 5 0 0 1 0-2.8 3.88 3.88 0 0 1 .6-1.1 3.25 3.25 0 0 1 3.8-.8 2.84 2.84 0 0 1 1 .9 3.38 3.38 0 0 1 .6 1.2 3.81 3.81 0 0 1 .1 1.5l-4.9.1zm3.5-1c0-.2-.1-.5-.1-.7l-.3-.6a1 1 0 0 0-.5-.4.82.82 0 0 0-.7-.1 1.7 1.7 0 0 0-.7.1 1 1 0 0 0-.5.4 2.09 2.09 0 0 0-.4.6 1.7 1.7 0 0 0-.1.7h3.3zM291.4 292.4h1.4v1a2 2 0 0 1 .9-.9 2.66 2.66 0 0 1 1.2-.3 2.52 2.52 0 0 1 1.7.6 1.92 1.92 0 0 1 .6 1.7v4.6h-1.5v-4.2a2 2 0 0 0-.3-1.1 1.28 1.28 0 0 0-1-.4 1.7 1.7 0 0 0-.7.1 1 1 0 0 0-.5.4 2.15 2.15 0 0 0-.4 1.3v4h-1.5l.1-6.8zM297.8 292.4h1.1v-2h1.5v2h1.3v1.1h-1.3v4a.37.37 0 0 0 .1.3.38.38 0 0 0 .2.2c.1 0 .3.1.4.1h.6v1.1h-1a2.77 2.77 0 0 1-.9-.1l-.6-.3c-.1-.2-.2-.3-.3-.5a1.7 1.7 0 0 1-.1-.7v-4h-1.1l.1-1.2zM302.4 292.4h1.4v1.3a.76.76 0 0 1 .2-.5 2.36 2.36 0 0 1 .5-.5 1.69 1.69 0 0 1 .6-.3 1.48 1.48 0 0 1 .7-.1h.6v1.4h-.6a1.7 1.7 0 0 0-.7.1c-.2.1-.4.3-.6.4a2.51 2.51 0 0 0-.4.7 3.4 3.4 0 0 0-.1 1v3.2h-1.4v-6.7h-.2zM312.3 297.6a.6.6 0 0 0 .1.4.37.37 0 0 0 .3.1h.4v1l-.2.1-.2.1h-.5a2.35 2.35 0 0 1-.8-.2.82.82 0 0 1-.4-.6 2.38 2.38 0 0 1-1.1.6 5 5 0 0 1-1.2.2 2.77 2.77 0 0 1-.9-.1 1.61 1.61 0 0 1-.7-.4 2.65 2.65 0 0 1-.5-.6 2.92 2.92 0 0 1-.2-.9 3.55 3.55 0 0 1 .2-1 1.17 1.17 0 0 1 .6-.6 1.33 1.33 0 0 1 .8-.3 2.77 2.77 0 0 1 .9-.1c.3 0 .5-.1.8-.1s.4-.1.6-.1a.52.52 0 0 0 .4-.2.76.76 0 0 0 .2-.5.9.9 0 0 0-.1-.5l-.3-.3a.75.75 0 0 0-.5-.1h-.5a1.69 1.69 0 0 0-1 .3 1.37 1.37 0 0 0-.5.8h-1.5a2 2 0 0 1 .3-1.1 2.34 2.34 0 0 1 .7-.7 3 3 0 0 1 1-.4 4.1 4.1 0 0 1 1.1-.1 3.4 3.4 0 0 1 1 .1l.9.3a1.17 1.17 0 0 1 .6.6 1.49 1.49 0 0 1 .2.9v3.4zm-1.5-1.9a2.61 2.61 0 0 1-.8.3 3.4 3.4 0 0 0-1 .1c-.2 0-.3.1-.5.1a.76.76 0 0 0-.4.2l-.3.3a.9.9 0 0 0-.1.5.48.48 0 0 0 .1.4l.3.3a.6.6 0 0 0 .4.1h.4a.75.75 0 0 0 .5-.1.76.76 0 0 0 .5-.2.78.78 0 0 0 .4-.4 1.42 1.42 0 0 0 .2-.6l.3-1zM313.5 289.8h1.5v9.3h-1.5v-9.3zM316.3 289.8h1.5v1.4h-1.5v-1.4zm0 2.6h1.5v6.7h-1.5v-6.7zM318.7 292.4h5.5v1l-3.9 4.5h4v1.2h-5.9v-1l3.7-4.5h-3.5l.1-1.2zM326.2 296.1a2.2 2.2 0 0 0 .1.8 3.33 3.33 0 0 0 .3.6 1.27 1.27 0 0 0 .6.4 2.35 2.35 0 0 0 .8.2 1.69 1.69 0 0 0 1-.3 1.56 1.56 0 0 0 .6-.8h1.4a2.45 2.45 0 0 1-1.1 1.7 3.55 3.55 0 0 1-.9.4 3.4 3.4 0 0 1-1 .1 3.19 3.19 0 0 1-1.4-.3 3.59 3.59 0 0 1-1-.7 2.38 2.38 0 0 1-.6-1.1 5 5 0 0 1 0-2.8 3.88 3.88 0 0 1 .6-1.1 3.25 3.25 0 0 1 3.8-.8 2.84 2.84 0 0 1 1 .9 3.38 3.38 0 0 1 .6 1.2 3.81 3.81 0 0 1 .1 1.5l-4.9.1zm3.5-1c0-.2-.1-.5-.1-.7l-.3-.6a1 1 0 0 0-.5-.4.82.82 0 0 0-.7-.1 1.7 1.7 0 0 0-.7.1 1 1 0 0 0-.5.4 2.09 2.09 0 0 0-.4.6 1.7 1.7 0 0 0-.1.7h3.3zM338.2 299.1h-1.4v-.9a1.42 1.42 0 0 1-.9.8 1.72 1.72 0 0 1-1.2.2 3.53 3.53 0 0 1-1.4-.3 2.54 2.54 0 0 1-1-.8 2.38 2.38 0 0 1-.6-1.1 6.75 6.75 0 0 1-.2-1.4 8.75 8.75 0 0 1 .2-1.6 2.59 2.59 0 0 1 .7-1.1 2.36 2.36 0 0 1 .9-.6 3.59 3.59 0 0 1 1.1-.2 1.27 1.27 0 0 1 .6.1 1.42 1.42 0 0 1 .6.2 2.19 2.19 0 0 1 .5.3 1 1 0 0 1 .4.5v-3.4h1.5l.2 9.3zm-5.2-3.3a2 2 0 0 0 .1.8 4.88 4.88 0 0 0 .3.7 1.47 1.47 0 0 0 .6.5 2.35 2.35 0 0 0 .8.2 2.92 2.92 0 0 0 .9-.2 2.65 2.65 0 0 0 .6-.5 1.14 1.14 0 0 0 .3-.8 2.77 2.77 0 0 0 .1-.9 2.62 2.62 0 0 0-.5-1.7 1.68 1.68 0 0 0-1.4-.6 2.92 2.92 0 0 0-.9.2 1.7 1.7 0 0 0-.6.6 1.14 1.14 0 0 0-.3.8 2.72 2.72 0 0 1 0 .9zM349.1 292.7a4.88 4.88 0 0 0-.3-.7 1.82 1.82 0 0 0-1.1-1 2.77 2.77 0 0 0-.9-.1 3.08 3.08 0 0 0-1.3.3 2.36 2.36 0 0 0-.9.8 3.7 3.7 0 0 0-.5 1.1 5.71 5.71 0 0 0 0 2.6 3.7 3.7 0 0 0 .5 1.1 2.36 2.36 0 0 0 .9.8 2.77 2.77 0 0 0 1.3.3 3.55 3.55 0 0 0 1-.2 1.79 1.79 0 0 0 .7-.5 2.18 2.18 0 0 0 .5-.8 3 3 0 0 0 .2-1h1.6a4.19 4.19 0 0 1-.4 1.5 5 5 0 0 1-.8 1.2 8.34 8.34 0 0 1-1.2.8 4 4 0 0 1-1.5.3 4.33 4.33 0 0 1-1.9-.4 4.51 4.51 0 0 1-1.4-1 6 6 0 0 1-.9-1.5 6.16 6.16 0 0 1 0-3.8 3.77 3.77 0 0 1 .9-1.5 4.51 4.51 0 0 1 1.4-1 4.06 4.06 0 0 1 1.9-.4 7.72 7.72 0 0 1 1.5.2 2.73 2.73 0 0 1 1.2.6 9 9 0 0 1 .9 1 3.26 3.26 0 0 1 .4 1.3h-1.8zM354.8 299.3a3.19 3.19 0 0 1-1.4-.3 3 3 0 0 1-1.8-1.8 4.78 4.78 0 0 1 0-2.9 3 3 0 0 1 1.8-1.8 3.65 3.65 0 0 1 2.9 0 3 3 0 0 1 1.8 1.8 4.78 4.78 0 0 1 0 2.9 3 3 0 0 1-1.8 1.8 4.93 4.93 0 0 1-1.5.3zm0-1.2a2.92 2.92 0 0 0 .9-.2 2.65 2.65 0 0 0 .6-.5 1.14 1.14 0 0 0 .3-.8 4.84 4.84 0 0 0 0-1.7c-.1-.3-.2-.5-.3-.8a2.65 2.65 0 0 0-.6-.5 1.72 1.72 0 0 0-1.7 0 2.65 2.65 0 0 0-.6.5 1.14 1.14 0 0 0-.3.8 4.84 4.84 0 0 0 0 1.7c.1.3.2.5.3.8a2.65 2.65 0 0 0 .6.5 1.88 1.88 0 0 0 .8.2zM359 292.4h1.4v1a2 2 0 0 1 .9-.9 2.66 2.66 0 0 1 1.2-.3 2.52 2.52 0 0 1 1.7.6 1.92 1.92 0 0 1 .6 1.7v4.6h-1.5v-4.2a2 2 0 0 0-.3-1.1 1.28 1.28 0 0 0-1-.4 1.7 1.7 0 0 0-.7.1 1 1 0 0 0-.5.4 2.15 2.15 0 0 0-.4 1.3v4H359v-6.8zM365.4 292.4h1.1v-.6a1.8 1.8 0 0 1 .2-1 2.09 2.09 0 0 1 .4-.6l.6-.3c.2 0 .5-.1.7-.1a3.4 3.4 0 0 1 1 .1v1.2l-.3-.1h-.4a.75.75 0 0 0-.5.1.56.56 0 0 0-.2.6v.6h1.3v1.1H368v5.6h-1.5v-5.5h-1.1v-1.1zM369.8 289.8h1.5v1.4h-1.5v-1.4zm0 2.6h1.5v6.7h-1.5v-6.7zM378.7 298.7a2.64 2.64 0 0 1-.9 2.3 4.38 4.38 0 0 1-2.5.8 3.4 3.4 0 0 1-1-.1 3.55 3.55 0 0 1-.9-.4 4.35 4.35 0 0 1-.7-.6 1.69 1.69 0 0 1-.3-1h1.5a.76.76 0 0 0 .2.5 1.38 1.38 0 0 0 .4.3.75.75 0 0 0 .5.1h.5a1.84 1.84 0 0 0 1.3-.4 2 2 0 0 0 .4-1.3v-1a2 2 0 0 1-.9.9 2.66 2.66 0 0 1-1.2.3 3.53 3.53 0 0 1-1.4-.3 1.76 1.76 0 0 1-.9-.8 2.22 2.22 0 0 1-.5-1.1 4.65 4.65 0 0 1 0-2.7 2.38 2.38 0 0 1 .6-1.1 2.29 2.29 0 0 1 1-.7 2.77 2.77 0 0 1 1.3-.3 2.66 2.66 0 0 1 1.2.3 2 2 0 0 1 .8.8v-.9h1.5v6.4zm-3.3-.8a1.75 1.75 0 0 0 1.4-.7 1.91 1.91 0 0 0 .3-.8 2.77 2.77 0 0 0 .1-.9 2 2 0 0 0-.1-.8 4.88 4.88 0 0 0-.3-.7 1 1 0 0 0-.6-.5 2.35 2.35 0 0 0-.8-.2 1.88 1.88 0 0 0-.8.2 1.2 1.2 0 0 0-.5.5 6.89 6.89 0 0 0-.3.8 2.48 2.48 0 0 0-.1.8 2.2 2.2 0 0 0 .1.8 4.88 4.88 0 0 0 .3.7 1.2 1.2 0 0 0 .5.5 1 1 0 0 0 .8.3zM385.7 299.1h-1.5v-.9a3 3 0 0 1-.8.8 2 2 0 0 1-1.1.3 2.28 2.28 0 0 1-1.9-.7 3 3 0 0 1-.6-2v-4.2h1.5v4.1a2.38 2.38 0 0 0 .3 1.2 1.16 1.16 0 0 0 1 .4 2.2 2.2 0 0 0 .8-.1 1 1 0 0 0 .5-.4l.3-.6a1.7 1.7 0 0 0 .1-.7v-3.9h1.5l-.1 6.7zM386.9 292.4h1.4v1.3a.76.76 0 0 1 .2-.5 2.36 2.36 0 0 1 .5-.5 1.69 1.69 0 0 1 .6-.3 1.48 1.48 0 0 1 .7-.1h.6v1.4h-.7a1.7 1.7 0 0 0-.7.1c-.2.1-.4.3-.6.4a2.51 2.51 0 0 0-.4.7 3.4 3.4 0 0 0-.1 1v3.2h-1.5v-6.7zM396.7 297.6a.6.6 0 0 0 .1.4.37.37 0 0 0 .3.1h.4v1l-.2.1-.2.1h-.6a2.35 2.35 0 0 1-.8-.2.82.82 0 0 1-.4-.6 2.38 2.38 0 0 1-1.1.6 5 5 0 0 1-1.2.2 2.77 2.77 0 0 1-.9-.1 1.61 1.61 0 0 1-.7-.4 2.65 2.65 0 0 1-.5-.6 2.92 2.92 0 0 1-.2-.9 3.55 3.55 0 0 1 .2-1 1.17 1.17 0 0 1 .6-.6 1.33 1.33 0 0 1 .8-.3 2.77 2.77 0 0 1 .9-.1c.3 0 .5-.1.8-.1s.4-.1.6-.1a.52.52 0 0 0 .4-.2.76.76 0 0 0 .2-.5.9.9 0 0 0-.1-.5l-.3-.3a.75.75 0 0 0-.5-.1h-.5a1.69 1.69 0 0 0-1 .3 1.37 1.37 0 0 0-.5.8h-1.5a2 2 0 0 1 .3-1.1 2.34 2.34 0 0 1 .7-.7 3 3 0 0 1 1-.4 4.1 4.1 0 0 1 1.1-.1 3.4 3.4 0 0 1 1 .1l.9.3a1.17 1.17 0 0 1 .6.6 1.49 1.49 0 0 1 .2.9l.1 3.4zm-1.5-1.9a2.61 2.61 0 0 1-.8.3 3.4 3.4 0 0 0-1 .1c-.2 0-.3.1-.5.1a.76.76 0 0 0-.4.2l-.3.3a.9.9 0 0 0-.1.5.48.48 0 0 0 .1.4l.3.3a.6.6 0 0 0 .4.1h.4a.75.75 0 0 0 .5-.1.76.76 0 0 0 .5-.2.78.78 0 0 0 .4-.4 1.42 1.42 0 0 0 .2-.6l.3-1zM397.3 292.4h1.1v-2h1.5v2h1.3v1.1h-1.3v4a.37.37 0 0 0 .1.3.38.38 0 0 0 .2.2c.1 0 .3.1.4.1h.6v1.1h-1a2.77 2.77 0 0 1-.9-.1l-.6-.3c-.1-.2-.2-.3-.3-.5a1.7 1.7 0 0 1-.1-.7v-4h-1.1l.1-1.2zM401.9 289.8h1.5v1.4h-1.5v-1.4zm0 2.6h1.5v6.7h-1.5v-6.7zM407.7 299.3a3.19 3.19 0 0 1-1.4-.3 3 3 0 0 1-1.8-1.8 4.78 4.78 0 0 1 0-2.9 3 3 0 0 1 1.8-1.8 3.65 3.65 0 0 1 2.9 0 3 3 0 0 1 1.8 1.8 4.78 4.78 0 0 1 0 2.9 3 3 0 0 1-1.8 1.8 4 4 0 0 1-1.5.3zm0-1.2a2.92 2.92 0 0 0 .9-.2 2.65 2.65 0 0 0 .6-.5 1.14 1.14 0 0 0 .3-.8 4.84 4.84 0 0 0 0-1.7c-.1-.3-.2-.5-.3-.8a2.65 2.65 0 0 0-.6-.5 1.72 1.72 0 0 0-1.7 0 2.65 2.65 0 0 0-.6.5 1.14 1.14 0 0 0-.3.8 4.84 4.84 0 0 0 0 1.7c.1.3.2.5.3.8a2.65 2.65 0 0 0 .6.5 1.88 1.88 0 0 0 .8.2zM411.9 292.4h1.4v1a2 2 0 0 1 .9-.9 2.66 2.66 0 0 1 1.2-.3 2.52 2.52 0 0 1 1.7.6 1.92 1.92 0 0 1 .6 1.7v4.6h-1.5v-4.2a2 2 0 0 0-.3-1.1 1.28 1.28 0 0 0-1-.4 1.7 1.7 0 0 0-.7.1 1 1 0 0 0-.5.4 2.15 2.15 0 0 0-.4 1.3v4h-1.5l.1-6.8z" transform="translate(-.5 -.5)"/><path class="how3-8" d="M307 314h82.2a3.12 3.12 0 0 1 3.1 3.1v26.5a3.12 3.12 0 0 1-3.1 3.1H307a3.12 3.12 0 0 1-3.1-3.1v-26.5a3 3 0 0 1 3-3.1h.1zM215.8 314H298a3.12 3.12 0 0 1 3.1 3.1v26.5a3.12 3.12 0 0 1-3.1 3.1h-82.2a3.12 3.12 0 0 1-3.1-3.1v-26.5a3.18 3.18 0 0 1 3.1-3.1zM398.1 314h82.2a3.12 3.12 0 0 1 3.1 3.1v26.5a3.12 3.12 0 0 1-3.1 3.1h-82.2a3.12 3.12 0 0 1-3.1-3.1v-26.5a3.18 3.18 0 0 1 3.1-3.1z" transform="translate(-.5 -.5)"/><path class="how3-17" d="M223.8 318.7h3.9a4.33 4.33 0 0 1 1.9.4 4.13 4.13 0 0 1 1.3 1 3.48 3.48 0 0 1 .7 1.5 7.31 7.31 0 0 1 0 3.6 5.07 5.07 0 0 1-.7 1.5 3.25 3.25 0 0 1-1.3 1 4.06 4.06 0 0 1-1.9.4h-3.9v-9.4zm1.6 8h1.6a8.75 8.75 0 0 0 1.6-.2 1.6 1.6 0 0 0 .9-.7 4.67 4.67 0 0 0 .5-1 5.71 5.71 0 0 0 0-2.6 1.91 1.91 0 0 0-.5-1 2 2 0 0 0-.9-.7 2.85 2.85 0 0 0-1.6-.2h-1.6v6.4zM232.6 318.7h1.5v1.4h-1.5v-1.4zm0 2.5h1.5v6.7h-1.5v-6.7zM236.5 325.8a1.05 1.05 0 0 0 .5.9 1.69 1.69 0 0 0 1 .3h.5c.2 0 .3-.1.5-.1a.62.62 0 0 0 .4-.3.44.44 0 0 0 .1-.5 1.06 1.06 0 0 0-.2-.5 2.19 2.19 0 0 0-.5-.3c-.2-.1-.5-.1-.7-.2l-.8-.2c-.3-.1-.5-.1-.8-.2a2.51 2.51 0 0 1-.7-.4 1 1 0 0 1-.5-.6 2.92 2.92 0 0 1-.2-.9 1.4 1.4 0 0 1 .3-.9 2 2 0 0 1 .7-.6 1.61 1.61 0 0 1 .9-.3 5 5 0 0 1 2 0 3.55 3.55 0 0 1 .9.4 1.94 1.94 0 0 1 .9 1.6h-1.6a.75.75 0 0 0-.5-.7 2.92 2.92 0 0 0-.9-.2h-.3c-.1 0-.3.1-.4.1a.53.53 0 0 0-.3.2.48.48 0 0 0-.1.4.52.52 0 0 0 .2.4 2.19 2.19 0 0 0 .5.3c.2.1.5.1.7.2l.8.2c.3.1.5.1.8.2a2.51 2.51 0 0 1 .7.4 1.75 1.75 0 0 1 .7 1.4 1.69 1.69 0 0 1-.3 1 2.34 2.34 0 0 1-.7.7 3 3 0 0 1-1 .4 3.75 3.75 0 0 1-1.1.1 4.87 4.87 0 0 1-1.2-.1 2.47 2.47 0 0 1-.9-.4 1.34 1.34 0 0 1-.6-.7 1.8 1.8 0 0 1-.2-1l1.4-.1zM241 321.2h1.1v-2h1.5v2h1.3v1.1h-1.3v4a.37.37 0 0 0 .1.3.38.38 0 0 0 .2.2c.1 0 .3.1.4.1h.6v1.1h-1a2.77 2.77 0 0 1-.9-.1l-.6-.3c-.1-.2-.2-.3-.3-.5a1.7 1.7 0 0 1-.1-.7v-4h-1.1v-1.2h.1zM245.6 321.2h1.4v1.3a.76.76 0 0 1 .2-.5 2.36 2.36 0 0 1 .5-.5 1.69 1.69 0 0 1 .6-.3 1.48 1.48 0 0 1 .7-.1h.6v1.4h-.6a1.7 1.7 0 0 0-.7.1c-.2.1-.4.3-.6.4a2.51 2.51 0 0 0-.4.7 3.4 3.4 0 0 0-.1 1v3.2h-1.5v-6.7h-.1zM249.9 318.7h1.5v1.4h-1.5v-1.4zm0 2.5h1.5v6.7h-1.5v-6.7zM252.6 318.7h1.5v3.4a.78.78 0 0 1 .4-.4 2.19 2.19 0 0 1 .5-.3 1.42 1.42 0 0 1 .6-.2c.2 0 .4-.1.6-.1a3.53 3.53 0 0 1 1.4.3 2.54 2.54 0 0 1 1 .8 2.38 2.38 0 0 1 .6 1.1 6.75 6.75 0 0 1 .2 1.4 5.85 5.85 0 0 1-.2 1.3 3.7 3.7 0 0 1-.5 1.1 2.66 2.66 0 0 1-2.2 1.1h-.7a2.54 2.54 0 0 1-.7-.2l-.6-.3a1.76 1.76 0 0 1-.4-.5v.9h-1.4l-.1-9.4zm5.2 5.9a2.77 2.77 0 0 0-.1-.9 3 3 0 0 0-.4-.8 1.47 1.47 0 0 0-.6-.5 1.88 1.88 0 0 0-.8-.2 1.82 1.82 0 0 0-1.4.6 3.37 3.37 0 0 0-.5 1.7 2.77 2.77 0 0 0 .1.9 3 3 0 0 0 .4.8 2.65 2.65 0 0 0 .6.5 1.88 1.88 0 0 0 .8.2 2.92 2.92 0 0 0 .9-.2 2.65 2.65 0 0 0 .6-.5 1.14 1.14 0 0 0 .3-.8c0-.2.1-.5.1-.8zM266 328h-1.5v-.9a3 3 0 0 1-.8.8 2 2 0 0 1-1.1.3 2.28 2.28 0 0 1-1.9-.7 3 3 0 0 1-.6-2v-4.3h1.5v4.2a2.38 2.38 0 0 0 .3 1.2 1.16 1.16 0 0 0 1 .4 2.2 2.2 0 0 0 .8-.1 1 1 0 0 0 .5-.4l.3-.6a1.7 1.7 0 0 0 .1-.7v-3.9h1.5v6.7h-.1zM266.5 321.2h1.1v-2h1.5v2h1.3v1.1h-1.3v4a.37.37 0 0 0 .1.3.38.38 0 0 0 .2.2c.1 0 .3.1.4.1h.6v1.1h-.9a2.77 2.77 0 0 1-.9-.1l-.6-.3c-.1-.2-.2-.3-.3-.5a1.7 1.7 0 0 1-.1-.7v-4h-1.1v-1.2zM272.3 325a2.2 2.2 0 0 0 .1.8 3.33 3.33 0 0 0 .3.6 1.27 1.27 0 0 0 .6.4 2.35 2.35 0 0 0 .8.2 1.69 1.69 0 0 0 1-.3 1.56 1.56 0 0 0 .6-.8h1.4a2.45 2.45 0 0 1-1.1 1.7 3.55 3.55 0 0 1-.9.4 3.4 3.4 0 0 1-1 .1 3.19 3.19 0 0 1-1.4-.3 3.59 3.59 0 0 1-1-.7 2.38 2.38 0 0 1-.6-1.1 5 5 0 0 1 0-2.8 3.88 3.88 0 0 1 .6-1.1 3 3 0 0 1 2.3-1.1 3.19 3.19 0 0 1 1.4.3 2.84 2.84 0 0 1 1 .9 3.38 3.38 0 0 1 .6 1.2 3.81 3.81 0 0 1 .1 1.5h-4.8v.1zm3.4-1c0-.2-.1-.5-.1-.7l-.3-.6a1 1 0 0 0-.5-.4.82.82 0 0 0-.7-.1 1.7 1.7 0 0 0-.7.1 1 1 0 0 0-.5.4 2.09 2.09 0 0 0-.4.6 1.7 1.7 0 0 0-.1.7h3.3zM284.3 328h-1.4v-.9a1.42 1.42 0 0 1-.9.8 1.72 1.72 0 0 1-1.2.2 3.53 3.53 0 0 1-1.4-.3 2.54 2.54 0 0 1-1-.8 2.38 2.38 0 0 1-.6-1.1 6.75 6.75 0 0 1-.2-1.4 8.75 8.75 0 0 1 .2-1.6 2.59 2.59 0 0 1 .7-1.1 2.36 2.36 0 0 1 .9-.6 3.59 3.59 0 0 1 1.1-.2 1.27 1.27 0 0 1 .6.1 1.42 1.42 0 0 1 .6.2 2.19 2.19 0 0 1 .5.3 1 1 0 0 1 .4.5v-3.4h1.5l.2 9.3zm-5.2-3.3a2 2 0 0 0 .1.8 4.88 4.88 0 0 0 .3.7 1.47 1.47 0 0 0 .6.5 2.35 2.35 0 0 0 .8.2 2.92 2.92 0 0 0 .9-.2 2.65 2.65 0 0 0 .6-.5 1.14 1.14 0 0 0 .3-.8 2.77 2.77 0 0 0 .1-.9 2.62 2.62 0 0 0-.5-1.7 1.68 1.68 0 0 0-1.4-.6 2.92 2.92 0 0 0-.9.2 1.7 1.7 0 0 0-.6.6 1.14 1.14 0 0 0-.3.8 2.72 2.72 0 0 1 0 .9zM224.8 331.7h3.9a4.33 4.33 0 0 1 1.9.4 4.13 4.13 0 0 1 1.3 1 3.48 3.48 0 0 1 .7 1.5 7.31 7.31 0 0 1 0 3.6 5.07 5.07 0 0 1-.7 1.5 3.25 3.25 0 0 1-1.3 1 4.06 4.06 0 0 1-1.9.4h-3.9v-9.4zm1.7 8h1.6a8.75 8.75 0 0 0 1.6-.2 1.6 1.6 0 0 0 .9-.7 4.67 4.67 0 0 0 .5-1 5.71 5.71 0 0 0 0-2.6 1.91 1.91 0 0 0-.5-1 2 2 0 0 0-.9-.7 2.85 2.85 0 0 0-1.6-.2h-1.6v6.4zM239.3 339.5a.6.6 0 0 0 .1.4.37.37 0 0 0 .3.1h.4v1l-.2.1-.2.1h-.5a2.35 2.35 0 0 1-.8-.2.82.82 0 0 1-.4-.6 2.38 2.38 0 0 1-1.1.6 5 5 0 0 1-1.2.2 2.77 2.77 0 0 1-.9-.1 1.61 1.61 0 0 1-.7-.4 2.65 2.65 0 0 1-.5-.6 2.92 2.92 0 0 1-.2-.9 3.55 3.55 0 0 1 .2-1 1.17 1.17 0 0 1 .6-.6 1.33 1.33 0 0 1 .8-.3 2.77 2.77 0 0 1 .9-.1c.3 0 .5-.1.8-.1s.4-.1.6-.1a.52.52 0 0 0 .4-.2.76.76 0 0 0 .2-.5.9.9 0 0 0-.1-.5l-.3-.3a.6.6 0 0 0-.4-.1h-.5a1.69 1.69 0 0 0-1 .3 1.37 1.37 0 0 0-.5.8h-1.6a2 2 0 0 1 .3-1.1 2.34 2.34 0 0 1 .7-.7 3 3 0 0 1 1-.4 4.1 4.1 0 0 1 1.1-.1 3.4 3.4 0 0 1 1 .1l.9.3a1.17 1.17 0 0 1 .6.6 1.49 1.49 0 0 1 .2.9v3.4zm-1.5-1.9a2.61 2.61 0 0 1-.8.3 3.4 3.4 0 0 0-1 .1c-.2 0-.3.1-.5.1a.76.76 0 0 0-.4.2l-.3.3a.9.9 0 0 0-.1.5.48.48 0 0 0 .1.4l.3.3a.6.6 0 0 0 .4.1h.4a.75.75 0 0 0 .5-.1.76.76 0 0 0 .5-.2.78.78 0 0 0 .4-.4 1.42 1.42 0 0 0 .2-.6l.3-1zM239.8 334.2h1.1v-2h1.5v2h1.3v1.1h-1.3v4a.37.37 0 0 0 .1.3.38.38 0 0 0 .2.2c.1 0 .3.1.4.1h.6v1.1h-1a2.77 2.77 0 0 1-.9-.1l-.6-.3c-.1-.2-.2-.3-.3-.5a1.7 1.7 0 0 1-.1-.7v-4h-1.1l.1-1.2zM250 339.5a.6.6 0 0 0 .1.4.37.37 0 0 0 .3.1h.4v1l-.2.1-.2.1h-.5a2.35 2.35 0 0 1-.8-.2.82.82 0 0 1-.4-.6 2.38 2.38 0 0 1-1.1.6 5 5 0 0 1-1.2.2 2.77 2.77 0 0 1-.9-.1 1.61 1.61 0 0 1-.7-.4 2.65 2.65 0 0 1-.5-.6 2.92 2.92 0 0 1-.2-.9 3.55 3.55 0 0 1 .2-1 1.17 1.17 0 0 1 .6-.6 1.33 1.33 0 0 1 .8-.3 2.77 2.77 0 0 1 .9-.1c.3 0 .5-.1.8-.1s.4-.1.6-.1a.52.52 0 0 0 .4-.2.76.76 0 0 0 .2-.5.9.9 0 0 0-.1-.5l-.3-.3a.6.6 0 0 0-.4-.1h-.5a1.69 1.69 0 0 0-1 .3 1.37 1.37 0 0 0-.5.8h-1.5a2 2 0 0 1 .3-1.1 2.34 2.34 0 0 1 .7-.7 3 3 0 0 1 1-.4 4.1 4.1 0 0 1 1.1-.1 3.4 3.4 0 0 1 1 .1l.9.3a1.17 1.17 0 0 1 .6.6 1.49 1.49 0 0 1 .2.9l-.1 3.4zm-1.4-1.9a2.61 2.61 0 0 1-.8.3 3.4 3.4 0 0 0-1 .1 2.27 2.27 0 0 0-.4.1.76.76 0 0 0-.4.2l-.3.3a.9.9 0 0 0-.1.5.48.48 0 0 0 .1.4l.3.3a.6.6 0 0 0 .4.1h.4a.75.75 0 0 0 .5-.1.76.76 0 0 0 .5-.2.78.78 0 0 0 .4-.4 1.42 1.42 0 0 0 .2-.6l.2-1zM255.7 337.9a2.92 2.92 0 0 0 .2.9 1.47 1.47 0 0 0 .5.6 2 2 0 0 0 .8.4 4.1 4.1 0 0 0 1.8 0l.6-.3a.85.85 0 0 0 .3-.5.9.9 0 0 0 .1-.5 1.88 1.88 0 0 0-.2-.8 1 1 0 0 0-.5-.4c-.4-.1-.8-.2-1.1-.3l-1.7-.5a3 3 0 0 1-1-.4 1.72 1.72 0 0 1-.6-.6 1.49 1.49 0 0 1-.3-.7 1.7 1.7 0 0 1-.1-.7 2.66 2.66 0 0 1 .3-1.2 6.47 6.47 0 0 1 .8-.9 3.7 3.7 0 0 1 1.1-.5 5 5 0 0 1 1.2-.2 6.75 6.75 0 0 1 1.4.2 2.38 2.38 0 0 1 1.1.6 2.66 2.66 0 0 1 1.1 2.2h-1.6a1.61 1.61 0 0 0-.6-1.3 2.3 2.3 0 0 0-1.4-.4 1.27 1.27 0 0 0-.6.1.76.76 0 0 0-.5.2.78.78 0 0 0-.4.4 1.21 1.21 0 0 0 .1 1.4 2 2 0 0 0 .8.4l.4.1.8.2.9.2.6.2a3 3 0 0 1 .8.4l.6.6a1.49 1.49 0 0 1 .3.7 1.7 1.7 0 0 1 .1.7 2.77 2.77 0 0 1-.3 1.3 2.36 2.36 0 0 1-.8.9 6.12 6.12 0 0 1-1.2.5 5.9 5.9 0 0 1-1.4.2 7.72 7.72 0 0 1-1.5-.2 2.73 2.73 0 0 1-1.2-.6 3.92 3.92 0 0 1-.8-1 4 4 0 0 1-.3-1.5l1.4.1zM261.8 334.2h1.1v-2h1.5v2h1.3v1.1h-1.3v4a.37.37 0 0 0 .1.3.38.38 0 0 0 .2.2c.1 0 .3.1.4.1h.6v1.1h-1a2.77 2.77 0 0 1-.9-.1l-.6-.3c-.1-.2-.2-.3-.3-.5a1.7 1.7 0 0 1-.1-.7v-4h-1.1l.1-1.2zM269.5 341.1a3.19 3.19 0 0 1-1.4-.3 3 3 0 0 1-1.8-1.8 4.78 4.78 0 0 1 0-2.9 3 3 0 0 1 1.8-1.8 3.65 3.65 0 0 1 2.9 0 3 3 0 0 1 1.8 1.8 4.78 4.78 0 0 1 0 2.9 3 3 0 0 1-1.8 1.8 4 4 0 0 1-1.5.3zm0-1.1a2.92 2.92 0 0 0 .9-.2 2.65 2.65 0 0 0 .6-.5 1.14 1.14 0 0 0 .3-.8 4.84 4.84 0 0 0 0-1.7c-.1-.3-.2-.5-.3-.8a2.65 2.65 0 0 0-.6-.5 1.72 1.72 0 0 0-1.7 0 2.65 2.65 0 0 0-.6.5 1.14 1.14 0 0 0-.3.8 4.84 4.84 0 0 0 0 1.7c.1.3.2.5.3.8a2.65 2.65 0 0 0 .6.5 1.88 1.88 0 0 0 .8.2zM274.3 334.2h1.4v1.3a.76.76 0 0 1 .2-.5 2.36 2.36 0 0 1 .5-.5 1.69 1.69 0 0 1 .6-.3 1.48 1.48 0 0 1 .7-.1h.6v1.4h-.6a1.7 1.7 0 0 0-.7.1c-.2.1-.4.3-.6.4a2.51 2.51 0 0 0-.4.7 3.4 3.4 0 0 0-.1 1v3.2h-1.5l-.1-6.7zM279.5 338a2.2 2.2 0 0 0 .1.8 3.33 3.33 0 0 0 .3.6 1.27 1.27 0 0 0 .6.4 2.35 2.35 0 0 0 .8.2 1.69 1.69 0 0 0 1-.3 1.56 1.56 0 0 0 .6-.8h1.4a2.45 2.45 0 0 1-1.1 1.7 3.55 3.55 0 0 1-.9.4 3.4 3.4 0 0 1-1 .1 3.19 3.19 0 0 1-1.4-.3 3.59 3.59 0 0 1-1-.7 2.38 2.38 0 0 1-.6-1.1 5 5 0 0 1 0-2.8 3.88 3.88 0 0 1 .6-1.1 3.25 3.25 0 0 1 3.8-.8 2.84 2.84 0 0 1 1 .9 3.38 3.38 0 0 1 .6 1.2 3.81 3.81 0 0 1 .1 1.5l-4.9.1zm3.4-1c0-.2-.1-.5-.1-.7l-.3-.6a1 1 0 0 0-.5-.4.82.82 0 0 0-.7-.1 1.7 1.7 0 0 0-.7.1 1 1 0 0 0-.5.4 2.09 2.09 0 0 0-.4.6 1.7 1.7 0 0 0-.1.7h3.3zM325 321.6a4.88 4.88 0 0 0-.3-.7 1.82 1.82 0 0 0-1.1-1 2.77 2.77 0 0 0-.9-.1 3.08 3.08 0 0 0-1.3.3 2.36 2.36 0 0 0-.9.8 3.7 3.7 0 0 0-.5 1.1 5.71 5.71 0 0 0 0 2.6 3.7 3.7 0 0 0 .5 1.1 2.36 2.36 0 0 0 .9.8 2.77 2.77 0 0 0 1.3.3 3.55 3.55 0 0 0 1-.2 1.79 1.79 0 0 0 .7-.5 2.18 2.18 0 0 0 .5-.8 3 3 0 0 0 .2-1h1.6a4.19 4.19 0 0 1-.4 1.5 5 5 0 0 1-.8 1.2 8.34 8.34 0 0 1-1.2.8 4 4 0 0 1-1.5.3 4.33 4.33 0 0 1-1.9-.4 4.51 4.51 0 0 1-1.4-1 6 6 0 0 1-.9-1.5 6.16 6.16 0 0 1 0-3.8 3.77 3.77 0 0 1 .9-1.5 4.51 4.51 0 0 1 1.4-1 4.06 4.06 0 0 1 1.9-.4 7.72 7.72 0 0 1 1.5.2 2.73 2.73 0 0 1 1.2.6 9 9 0 0 1 .9 1 3.26 3.26 0 0 1 .4 1.3H325zM330.6 328.1a3.19 3.19 0 0 1-1.4-.3 3 3 0 0 1-1.8-1.8 4.78 4.78 0 0 1 0-2.9 3 3 0 0 1 1.8-1.8 3.65 3.65 0 0 1 2.9 0 3 3 0 0 1 1.8 1.8 4.78 4.78 0 0 1 0 2.9 3 3 0 0 1-1.8 1.8 4.94 4.94 0 0 1-1.5.3zm0-1.1a2.92 2.92 0 0 0 .9-.2 2.65 2.65 0 0 0 .6-.5 1.14 1.14 0 0 0 .3-.8 4.84 4.84 0 0 0 0-1.7c-.1-.3-.2-.5-.3-.8a2.65 2.65 0 0 0-.6-.5 1.72 1.72 0 0 0-1.7 0 2.65 2.65 0 0 0-.6.5 1.14 1.14 0 0 0-.3.8 4.84 4.84 0 0 0 0 1.7c.1.3.2.5.3.8a2.65 2.65 0 0 0 .6.5 1.88 1.88 0 0 0 .8.2zM334.8 321.2h1.4v1a2 2 0 0 1 .9-.9 2.66 2.66 0 0 1 1.2-.3 2.52 2.52 0 0 1 1.7.6 1.92 1.92 0 0 1 .6 1.7v4.6h-1.5v-4.2a2 2 0 0 0-.3-1.1 1.28 1.28 0 0 0-1-.4 1.7 1.7 0 0 0-.7.1 1 1 0 0 0-.5.4 2.15 2.15 0 0 0-.4 1.3v4h-1.5l.1-6.8zM343 325.8a1 1 0 0 0 .5.9 1.69 1.69 0 0 0 1 .3h.5c.2 0 .3-.1.5-.1a.62.62 0 0 0 .4-.3.44.44 0 0 0 .1-.5 1.06 1.06 0 0 0-.2-.5 2.18 2.18 0 0 0-.5-.3c-.2-.1-.5-.1-.7-.2l-.8-.2c-.3-.1-.5-.1-.8-.2a2.51 2.51 0 0 1-.7-.4 1 1 0 0 1-.5-.6 2.92 2.92 0 0 1-.2-.9 1.4 1.4 0 0 1 .3-.9 2 2 0 0 1 .7-.6 1.61 1.61 0 0 1 .9-.3 5 5 0 0 1 2 0 3.55 3.55 0 0 1 .9.4 1.94 1.94 0 0 1 .9 1.6h-1.5a.75.75 0 0 0-.5-.7 2.92 2.92 0 0 0-.9-.2h-.4c-.1 0-.3.1-.4.1a.53.53 0 0 0-.3.2.48.48 0 0 0-.1.4.52.52 0 0 0 .2.4 2.18 2.18 0 0 0 .5.3c.2.1.5.1.7.2l.8.2c.3.1.5.1.8.2a2.51 2.51 0 0 1 .7.4 1.75 1.75 0 0 1 .7 1.4 1.69 1.69 0 0 1-.3 1 2.34 2.34 0 0 1-.7.7 3 3 0 0 1-1 .4 3.4 3.4 0 0 1-1 .1 4.87 4.87 0 0 1-1.2-.1 2.47 2.47 0 0 1-.9-.4 1.34 1.34 0 0 1-.6-.7 1.8 1.8 0 0 1-.2-1l1.3-.1zM354.1 328h-1.5v-.9a3 3 0 0 1-.8.8 2 2 0 0 1-1.1.3 2.28 2.28 0 0 1-1.9-.7 3 3 0 0 1-.6-2v-4.3h1.5v4.2a2.38 2.38 0 0 0 .3 1.2 1.16 1.16 0 0 0 1 .4 2.2 2.2 0 0 0 .8-.1 1 1 0 0 0 .5-.4l.3-.6a1.7 1.7 0 0 0 .1-.7v-3.9h1.5l-.1 6.7zM355.3 321.2h1.4v.9a1.76 1.76 0 0 1 .4-.5l.4-.4a2.62 2.62 0 0 1 1.2-.3 2 2 0 0 1 1.1.3 3 3 0 0 1 .8.8 2.36 2.36 0 0 1 .9-.8 2.66 2.66 0 0 1 1.2-.3 2.62 2.62 0 0 1 1.7.5 2 2 0 0 1 .6 1.8v4.6h-1.5v-4.6c0-.2-.1-.4-.1-.6a.78.78 0 0 0-.4-.4 1.48 1.48 0 0 0-.7-.1 1.27 1.27 0 0 0-1.1.5 1.59 1.59 0 0 0-.3 1.3v3.9h-1.4v-4.3a4.25 4.25 0 0 0-.2-1.1 1.09 1.09 0 0 0-.9-.4.75.75 0 0 0-.5.1c-.2.1-.3.2-.5.3a1.33 1.33 0 0 0-.3.5 1.7 1.7 0 0 0-.1.7v4h-1.5l-.2-6.4zM367.4 325a2.2 2.2 0 0 0 .1.8 3.33 3.33 0 0 0 .3.6 1.27 1.27 0 0 0 .6.4 2.35 2.35 0 0 0 .8.2 1.69 1.69 0 0 0 1-.3 1.56 1.56 0 0 0 .6-.8h1.4a3 3 0 0 1-.4 1 2.34 2.34 0 0 1-.7.7 3.55 3.55 0 0 1-.9.4 3.4 3.4 0 0 1-1 .1 3.19 3.19 0 0 1-1.4-.3 3.59 3.59 0 0 1-1-.7 2.38 2.38 0 0 1-.6-1.1 5 5 0 0 1 0-2.8 3.88 3.88 0 0 1 .6-1.1 3.25 3.25 0 0 1 3.8-.8 2.84 2.84 0 0 1 1 .9 3.38 3.38 0 0 1 .6 1.2 3.81 3.81 0 0 1 .1 1.5l-4.9.1zm3.4-1c0-.2-.1-.5-.1-.7l-.3-.6a1 1 0 0 0-.5-.4.82.82 0 0 0-.7-.1 1.7 1.7 0 0 0-.7.1 1 1 0 0 0-.5.4 2.09 2.09 0 0 0-.4.6 1.7 1.7 0 0 0-.1.7h3.3zM373 321.2h1.4v1.3a.76.76 0 0 1 .2-.5 2.36 2.36 0 0 1 .5-.5 1.69 1.69 0 0 1 .6-.3 1.48 1.48 0 0 1 .7-.1h.6v1.4h-.6a1.7 1.7 0 0 0-.7.1c-.2.1-.4.3-.6.4a2.51 2.51 0 0 0-.4.7 3.4 3.4 0 0 0-.1 1v3.2h-1.4v-6.7h-.2zM310.6 331.7h2.3l2.6 7.3 2.5-7.3h2.3v9.3h-1.5v-7.2l-2.6 7.2h-1.3l-2.6-7.2v7.2h-1.5l-.2-9.3zM327.2 339.5a.6.6 0 0 0 .1.4.37.37 0 0 0 .3.1h.4v1l-.2.1-.2.1h-.5a2.35 2.35 0 0 1-.8-.2.82.82 0 0 1-.4-.6 2.38 2.38 0 0 1-1.1.6 5 5 0 0 1-1.2.2 2.77 2.77 0 0 1-.9-.1 1.61 1.61 0 0 1-.7-.4 2.65 2.65 0 0 1-.5-.6 2.92 2.92 0 0 1-.2-.9 3.55 3.55 0 0 1 .2-1 1.17 1.17 0 0 1 .6-.6 1.33 1.33 0 0 1 .8-.3 2.77 2.77 0 0 1 .9-.1c.3 0 .5-.1.8-.1s.4-.1.6-.1a.52.52 0 0 0 .4-.2.76.76 0 0 0 .2-.5.9.9 0 0 0-.1-.5l-.3-.3a.75.75 0 0 0-.5-.1h-.5a1.69 1.69 0 0 0-1 .3 1.37 1.37 0 0 0-.5.8h-1.5a2 2 0 0 1 .3-1.1 2.34 2.34 0 0 1 .7-.7 3 3 0 0 1 1-.4 4.1 4.1 0 0 1 1.1-.1 3.4 3.4 0 0 1 1 .1l.9.3a1.17 1.17 0 0 1 .6.6 1.49 1.49 0 0 1 .2.9v3.4zm-1.5-1.9a2.61 2.61 0 0 1-.8.3 3.4 3.4 0 0 0-1 .1c-.2 0-.3.1-.5.1a.76.76 0 0 0-.4.2l-.3.3a.9.9 0 0 0-.1.5.48.48 0 0 0 .1.4l.3.3a.6.6 0 0 0 .4.1h.4a.75.75 0 0 0 .5-.1.76.76 0 0 0 .5-.2.78.78 0 0 0 .4-.4 1.42 1.42 0 0 0 .2-.6l.3-1zM328.4 334.2h1.4v1a2 2 0 0 1 .9-.9 2.66 2.66 0 0 1 1.2-.3 2.52 2.52 0 0 1 1.7.6 1.92 1.92 0 0 1 .6 1.7v4.6h-1.5v-4.2a2 2 0 0 0-.3-1.1 1.28 1.28 0 0 0-1-.4 1.7 1.7 0 0 0-.7.1 1 1 0 0 0-.5.4 2.15 2.15 0 0 0-.4 1.3v4h-1.5l.1-6.8zM341 339.5a.6.6 0 0 0 .1.4.37.37 0 0 0 .3.1h.4v1l-.2.1-.2.1h-.5a2.35 2.35 0 0 1-.8-.2.82.82 0 0 1-.4-.6 2.38 2.38 0 0 1-1.1.6 5 5 0 0 1-1.2.2 2.77 2.77 0 0 1-.9-.1 1.61 1.61 0 0 1-.7-.4 2.65 2.65 0 0 1-.5-.6 2.92 2.92 0 0 1-.2-.9 3.55 3.55 0 0 1 .2-1 1.17 1.17 0 0 1 .6-.6 1.33 1.33 0 0 1 .8-.3 2.77 2.77 0 0 1 .9-.1c.3 0 .5-.1.8-.1s.4-.1.6-.1a.52.52 0 0 0 .4-.2.76.76 0 0 0 .2-.5.9.9 0 0 0-.1-.5l-.3-.3a.75.75 0 0 0-.5-.1h-.5a1.69 1.69 0 0 0-1 .3 1.37 1.37 0 0 0-.5.8h-1.5a2 2 0 0 1 .3-1.1 2.34 2.34 0 0 1 .7-.7 3 3 0 0 1 1-.4 4.1 4.1 0 0 1 1.1-.1 3.4 3.4 0 0 1 1 .1l.9.3a1.17 1.17 0 0 1 .6.6 1.49 1.49 0 0 1 .2.9v3.4zm-1.4-1.9a2.61 2.61 0 0 1-.8.3 3.4 3.4 0 0 0-1 .1c-.2 0-.3.1-.5.1a.76.76 0 0 0-.4.2l-.3.3a.9.9 0 0 0-.1.5.48.48 0 0 0 .1.4l.3.3a.6.6 0 0 0 .4.1h.4a.75.75 0 0 0 .5-.1.76.76 0 0 0 .5-.2.78.78 0 0 0 .4-.4 1.42 1.42 0 0 0 .2-.6l.3-1zM348.5 340.6a2.64 2.64 0 0 1-.9 2.3 4.38 4.38 0 0 1-2.5.8 3.4 3.4 0 0 1-1-.1 3.55 3.55 0 0 1-.9-.4 4.35 4.35 0 0 1-.7-.6 1.69 1.69 0 0 1-.3-1h1.5a.76.76 0 0 0 .2.5 1.38 1.38 0 0 0 .4.3.75.75 0 0 0 .5.1h.5a1.84 1.84 0 0 0 1.3-.4 2 2 0 0 0 .4-1.3v-1a2 2 0 0 1-.9.9 2.66 2.66 0 0 1-1.2.3 3.53 3.53 0 0 1-1.4-.3 1.76 1.76 0 0 1-.9-.8 2.22 2.22 0 0 1-.5-1.1 4.65 4.65 0 0 1 0-2.7 2.38 2.38 0 0 1 .6-1.1 2.29 2.29 0 0 1 1-.7 2.77 2.77 0 0 1 1.3-.3 2.66 2.66 0 0 1 1.2.3 2 2 0 0 1 .8.8v-.9h1.5v6.4zm-3.3-.8a1.88 1.88 0 0 0 .8-.2 2.65 2.65 0 0 0 .6-.5 1.91 1.91 0 0 0 .3-.8 2.77 2.77 0 0 0 .1-.9 2 2 0 0 0-.1-.8 4.88 4.88 0 0 0-.3-.7 1.7 1.7 0 0 0-.6-.6 2.35 2.35 0 0 0-.8-.2 1.88 1.88 0 0 0-.8.2 1.2 1.2 0 0 0-.5.5 6.89 6.89 0 0 0-.3.8 2.48 2.48 0 0 0-.1.8 2.2 2.2 0 0 0 .1.8 4.88 4.88 0 0 0 .3.7 1.2 1.2 0 0 0 .5.5.91.91 0 0 0 .8.4zM350.8 338a2.2 2.2 0 0 0 .1.8 3.33 3.33 0 0 0 .3.6 1.27 1.27 0 0 0 .6.4 2.35 2.35 0 0 0 .8.2 1.69 1.69 0 0 0 1-.3 1.56 1.56 0 0 0 .6-.8h1.4a2.45 2.45 0 0 1-1.1 1.7 3.55 3.55 0 0 1-.9.4 3.4 3.4 0 0 1-1 .1 3.19 3.19 0 0 1-1.4-.3 3.59 3.59 0 0 1-1-.7 2.38 2.38 0 0 1-.6-1.1 5 5 0 0 1 0-2.8 3.88 3.88 0 0 1 .6-1.1 3.25 3.25 0 0 1 3.8-.8 2.84 2.84 0 0 1 1 .9 3.38 3.38 0 0 1 .6 1.2 3.81 3.81 0 0 1 .1 1.5l-4.9.1zm3.4-1a1.42 1.42 0 0 0-.2-.6l-.3-.6a1 1 0 0 0-.5-.4.82.82 0 0 0-.7-.1 1.7 1.7 0 0 0-.7.1 1 1 0 0 0-.5.4 2.09 2.09 0 0 0-.4.6 1.7 1.7 0 0 0-.1.7l3.4-.1zM356.4 334.2h1.4v.9a1.76 1.76 0 0 1 .4-.5l.4-.4a2.62 2.62 0 0 1 1.2-.3 2 2 0 0 1 1.1.3 3 3 0 0 1 .8.8 2.36 2.36 0 0 1 .9-.8 2.66 2.66 0 0 1 1.2-.3 2.62 2.62 0 0 1 1.7.5 2.24 2.24 0 0 1 .6 1.7v4.6h-1.5v-4.6c0-.2-.1-.4-.1-.6a.78.78 0 0 0-.4-.4 1.48 1.48 0 0 0-.7-.1 1.27 1.27 0 0 0-1.1.5 1.59 1.59 0 0 0-.3 1.3v3.9h-1.5v-4.3a4.25 4.25 0 0 0-.2-1.1 1.09 1.09 0 0 0-.9-.4.75.75 0 0 0-.5.1c-.2.1-.3.2-.5.3a1.33 1.33 0 0 0-.3.5 1.7 1.7 0 0 0-.1.7v4h-1.5v-6.3h-.1zM368.5 338a2.2 2.2 0 0 0 .1.8 3.33 3.33 0 0 0 .3.6 1.27 1.27 0 0 0 .6.4 2.35 2.35 0 0 0 .8.2 1.69 1.69 0 0 0 1-.3 1.56 1.56 0 0 0 .6-.8h1.4a2.45 2.45 0 0 1-1.1 1.7 3.55 3.55 0 0 1-.9.4 3.4 3.4 0 0 1-1 .1 3.19 3.19 0 0 1-1.4-.3 3.59 3.59 0 0 1-1-.7 2.38 2.38 0 0 1-.6-1.1 5 5 0 0 1 0-2.8 3.88 3.88 0 0 1 .6-1.1 3.25 3.25 0 0 1 3.8-.8 2.84 2.84 0 0 1 1 .9 3.38 3.38 0 0 1 .6 1.2 3.81 3.81 0 0 1 .1 1.5l-4.9.1zm3.5-1c0-.2-.1-.5-.1-.7l-.3-.6a1 1 0 0 0-.5-.4.82.82 0 0 0-.7-.1 1.7 1.7 0 0 0-.7.1 1 1 0 0 0-.5.4 2.09 2.09 0 0 0-.4.6 1.7 1.7 0 0 0-.1.7h3.3zM374.2 334.2h1.4v1a2 2 0 0 1 .9-.9 2.66 2.66 0 0 1 1.2-.3 2.52 2.52 0 0 1 1.7.6 1.92 1.92 0 0 1 .6 1.7v4.6h-1.5v-4.2a2 2 0 0 0-.3-1.1 1.28 1.28 0 0 0-1-.4 1.7 1.7 0 0 0-.7.1 1 1 0 0 0-.5.4 2.15 2.15 0 0 0-.4 1.3v4h-1.5l.1-6.8zM380.6 334.2h1.1v-2h1.5v2h1.3v1.1h-1.3v4a.37.37 0 0 0 .1.3.38.38 0 0 0 .2.2c.1 0 .3.1.4.1h.6v1.1h-1a2.77 2.77 0 0 1-.9-.1l-.6-.3c-.1-.2-.2-.3-.3-.5a1.7 1.7 0 0 1-.1-.7v-4h-1.1l.1-1.2zM419 325.5h4.1a4.15 4.15 0 0 1 1.6.3 3.59 3.59 0 0 1 1 .7 4.05 4.05 0 0 1 .5.9 4.1 4.1 0 0 1 0 1.8 1.62 1.62 0 0 1-.5.9 2.29 2.29 0 0 1-1 .7 4.53 4.53 0 0 1-1.6.3h-2.5v3.6H419v-9.2zm1.7 4.4h2.4a1.27 1.27 0 0 0 .6-.1.76.76 0 0 0 .5-.2 1 1 0 0 0 .4-.5.88.88 0 0 0 .1-.7 2.2 2.2 0 0 0-.1-.8 1.76 1.76 0 0 0-.4-.5.76.76 0 0 0-.5-.2c-.2 0-.4-.1-.6-.1h-2.4v3.1zM427.1 325.5h1.5v9.3h-1.5v-9.3zM435.8 334.7h-1.5v-.9a3 3 0 0 1-.8.8 2 2 0 0 1-1.1.3 2.28 2.28 0 0 1-1.9-.7 3 3 0 0 1-.6-2v-4.3h1.5v4.1a2.38 2.38 0 0 0 .3 1.2 1.16 1.16 0 0 0 1 .4 2.2 2.2 0 0 0 .8-.1 1 1 0 0 0 .5-.4l.3-.6a1.7 1.7 0 0 0 .1-.7v-3.9h1.5l-.1 6.8zM443.1 334.4a2.64 2.64 0 0 1-.9 2.3 4.38 4.38 0 0 1-2.5.8 3.4 3.4 0 0 1-1-.1 3.55 3.55 0 0 1-.9-.4 4.35 4.35 0 0 1-.7-.6 1.69 1.69 0 0 1-.3-1h1.5a.76.76 0 0 0 .2.5 1.38 1.38 0 0 0 .4.3.75.75 0 0 0 .5.1h.5a1.84 1.84 0 0 0 1.3-.4 2 2 0 0 0 .4-1.3v-1a2 2 0 0 1-.9.9 2.66 2.66 0 0 1-1.2.3 3.53 3.53 0 0 1-1.4-.3 1.76 1.76 0 0 1-.9-.8 2.22 2.22 0 0 1-.5-1.1 4.65 4.65 0 0 1 0-2.7 2.38 2.38 0 0 1 .6-1.1 2.29 2.29 0 0 1 1-.7 2.77 2.77 0 0 1 1.3-.3 2.66 2.66 0 0 1 1.2.3 2 2 0 0 1 .8.8v-.9h1.5v6.4zm-3.2-.9a1.75 1.75 0 0 0 1.4-.7 1.91 1.91 0 0 0 .3-.8 2.77 2.77 0 0 0 .1-.9 2 2 0 0 0-.1-.8 4.88 4.88 0 0 0-.3-.7 1 1 0 0 0-.6-.5 2.35 2.35 0 0 0-.8-.2 1.88 1.88 0 0 0-.8.2 1.2 1.2 0 0 0-.5.5 6.89 6.89 0 0 0-.3.8 2.48 2.48 0 0 0-.1.8 2.2 2.2 0 0 0 .1.8 4.88 4.88 0 0 0 .3.7 1.2 1.2 0 0 0 .5.5.67.67 0 0 0 .8.3zM444.3 325.5h1.5v1.4h-1.5v-1.4zm0 2.5h1.5v6.7h-1.5V328zM447 328h1.4v1a2 2 0 0 1 .9-.9 2.66 2.66 0 0 1 1.2-.3 2.52 2.52 0 0 1 1.7.6 1.92 1.92 0 0 1 .6 1.7v4.6h-1.5v-4.2a2.66 2.66 0 0 0-.3-1.2 1.28 1.28 0 0 0-1-.4 1.7 1.7 0 0 0-.7.1 1 1 0 0 0-.5.4 2.15 2.15 0 0 0-.4 1.3v4h-1.5l.1-6.7zM455.2 332.6a1 1 0 0 0 .5.9 1.69 1.69 0 0 0 1 .3h.5c.2 0 .3-.1.5-.1a1.38 1.38 0 0 0 .4-.3.44.44 0 0 0 .1-.5 1.06 1.06 0 0 0-.2-.5 2.18 2.18 0 0 0-.5-.3c-.2-.1-.5-.1-.7-.2l-.8-.2c-.3-.1-.5-.1-.8-.2a2.51 2.51 0 0 1-.7-.4 1 1 0 0 1-.5-.6 2.92 2.92 0 0 1-.2-.9 1.4 1.4 0 0 1 .3-.9 2 2 0 0 1 .7-.6 1.61 1.61 0 0 1 .9-.3 5 5 0 0 1 2 0 3.55 3.55 0 0 1 .9.4 1.94 1.94 0 0 1 .9 1.6H458a.75.75 0 0 0-.5-.7 2.92 2.92 0 0 0-.9-.2h-.4c-.1 0-.3.1-.4.1a.53.53 0 0 0-.3.2.48.48 0 0 0-.1.4.52.52 0 0 0 .2.4 2.18 2.18 0 0 0 .5.3c.2.1.5.1.7.2l.8.2c.3.1.5.1.8.2a2.51 2.51 0 0 1 .7.4 1.75 1.75 0 0 1 .7 1.4 1.69 1.69 0 0 1-.3 1 2.34 2.34 0 0 1-.7.7 3 3 0 0 1-1 .4 3.4 3.4 0 0 1-1 .1 4.87 4.87 0 0 1-1.2-.1 2.47 2.47 0 0 1-.9-.4 1.34 1.34 0 0 1-.6-.7 1.8 1.8 0 0 1-.2-1l1.3-.1z" transform="translate(-.5 -.5)"/><path class="how3-10" d="M224 254.5h7.7v1.6h-5.8v2.8h5.4v1.5h-5.4v3.1h5.9v1.6H224v-10.6zM234.9 261.1l-2.7-3.7h2.1l1.6 2.4 1.7-2.4h2L237 261l3 4.2h-2.1l-2-2.9-1.9 2.9h-2zM240.4 257.4h1.6v1a2.41 2.41 0 0 1 1-1 3.19 3.19 0 0 1 1.4-.3 4.15 4.15 0 0 1 1.6.3 3.13 3.13 0 0 1 1.1.9 5.39 5.39 0 0 1 .7 1.3 4.4 4.4 0 0 1 .2 1.6 7.72 7.72 0 0 1-.2 1.5 3.1 3.1 0 0 1-.6 1.3 2.79 2.79 0 0 1-2.5 1.2c-.2 0-.5.1-.7.1a1.85 1.85 0 0 1-.7-.2 2.09 2.09 0 0 1-.6-.4 2.36 2.36 0 0 1-.5-.5v3.9h-1.8v-10.7zm6 3.9a3.4 3.4 0 0 0-.1-1 3.55 3.55 0 0 0-.4-.9 1.34 1.34 0 0 0-.7-.6 1.49 1.49 0 0 0-.9-.2 1.82 1.82 0 0 0-1.6.8 3.61 3.61 0 0 0-.6 2 4.1 4.1 0 0 0 .1 1.1 3.55 3.55 0 0 0 .4.9 4.35 4.35 0 0 0 .7.6 2.92 2.92 0 0 0 .9.2 3.55 3.55 0 0 0 1-.2 4.35 4.35 0 0 0 .7-.6 3.55 3.55 0 0 0 .4-.9 5.28 5.28 0 0 0 .1-1.2zM249.3 257.4h1.6v1.5l.3-.6a1.21 1.21 0 0 1 .5-.5 1.61 1.61 0 0 1 .7-.4 1.06 1.06 0 0 1 .8-.1h.6v1.6h-.8a1.88 1.88 0 0 0-.8.2 1.79 1.79 0 0 0-.7.5 2.18 2.18 0 0 0-.5.8 5.16 5.16 0 0 0-.2 1.1v3.7h-1.7l.2-7.8zM255.3 261.7a2.77 2.77 0 0 0 .1.9 1.61 1.61 0 0 0 .4.7 2.65 2.65 0 0 0 .6.5 2.92 2.92 0 0 0 .9.2 2.66 2.66 0 0 0 1.2-.3 2.29 2.29 0 0 0 .7-1h1.6a3.36 3.36 0 0 1-1.3 2 3.13 3.13 0 0 1-1 .5 5 5 0 0 1-1.2.2 4.15 4.15 0 0 1-1.6-.3 3.6 3.6 0 0 1-1.2-.8 3.29 3.29 0 0 1-.7-1.3 3 3 0 0 1-.2-1.6 4.53 4.53 0 0 1 .3-1.6 3.53 3.53 0 0 1 .8-1.3 3.56 3.56 0 0 1 5.5.2 3.48 3.48 0 0 1 .7 1.5 4.88 4.88 0 0 1 .1 1.7l-5.7-.2zm4-1.1a2.35 2.35 0 0 0-.2-.8 1.28 1.28 0 0 0-.4-.6c-.2-.2-.4-.3-.6-.5a1.88 1.88 0 0 0-.8-.2 1.08 1.08 0 0 0-.8.2 1.28 1.28 0 0 0-.6.4 2.09 2.09 0 0 0-.4.6 2.35 2.35 0 0 0-.2.8l4 .1zM263.1 262.7a1.1 1.1 0 0 0 .6 1 2.66 2.66 0 0 0 1.2.3h.5c.2 0 .4-.1.6-.1a1.38 1.38 0 0 0 .4-.3.72.72 0 0 0 0-1 .86.86 0 0 0-.6-.3 2.35 2.35 0 0 0-.8-.2l-.9-.2c-.3-.1-.6-.1-.9-.2a3 3 0 0 1-.8-.4l-.6-.6a1.8 1.8 0 0 1-.2-1 2.28 2.28 0 0 1 .3-1.1 2.7 2.7 0 0 1 .8-.7 3 3 0 0 1 1-.4 4.1 4.1 0 0 1 1.1-.1 5 5 0 0 1 1.2.2 3 3 0 0 1 1 .4 2.34 2.34 0 0 1 .7.7 3.58 3.58 0 0 1 .4 1.1h-1.8a.76.76 0 0 0-.6-.8 3.55 3.55 0 0 0-1-.2h-.4c-.2 0-.3.1-.5.1a.52.52 0 0 0-.4.2.33.33 0 0 0-.1.4.76.76 0 0 0 .2.5 1.69 1.69 0 0 0 .6.3 2.35 2.35 0 0 0 .8.2l.9.2a2.92 2.92 0 0 0 .9.2 2 2 0 0 1 .8.4 2.09 2.09 0 0 1 .8 1.6 2.66 2.66 0 0 1-.3 1.2 3 3 0 0 1-.8.8 2.1 2.1 0 0 1-1.1.4 4.87 4.87 0 0 1-1.2.1 6.75 6.75 0 0 1-1.4-.2 3.7 3.7 0 0 1-1.1-.5 2.7 2.7 0 0 1-.7-.8 2.66 2.66 0 0 1-.3-1.2h1.7zM270.5 262.7a1.1 1.1 0 0 0 .6 1 2.66 2.66 0 0 0 1.2.3h.5c.2 0 .4-.1.6-.1a1.38 1.38 0 0 0 .4-.3.72.72 0 0 0 0-1 .86.86 0 0 0-.6-.3 2.35 2.35 0 0 0-.8-.2l-.9-.2c-.3-.1-.6-.1-.9-.2a3 3 0 0 1-.8-.4l-.6-.6a1.8 1.8 0 0 1-.2-1 2.28 2.28 0 0 1 .3-1.1 2.7 2.7 0 0 1 .8-.7 3 3 0 0 1 1-.4 4.1 4.1 0 0 1 1.1-.1 3.75 3.75 0 0 1 1.1.1 3 3 0 0 1 1 .4 2.34 2.34 0 0 1 .7.7 3.58 3.58 0 0 1 .4 1.1h-1.8a.76.76 0 0 0-.6-.8 3.55 3.55 0 0 0-1-.2h-.4c-.2 0-.3.1-.5.1a.52.52 0 0 0-.4.2.33.33 0 0 0-.1.4.76.76 0 0 0 .2.5 1.69 1.69 0 0 0 .6.3 2.35 2.35 0 0 0 .8.2l.9.2a2.92 2.92 0 0 0 .9.2 2 2 0 0 1 .8.4 2.09 2.09 0 0 1 .8 1.6 2.66 2.66 0 0 1-.3 1.2 3 3 0 0 1-.8.8 2.1 2.1 0 0 1-1.1.4 4.87 4.87 0 0 1-1.2.1 6.75 6.75 0 0 1-1.4-.2 3.7 3.7 0 0 1-1.1-.5 2.7 2.7 0 0 1-.7-.8 2.66 2.66 0 0 1-.3-1.2l1.8.1zM280.5 254.5h5.1a3.91 3.91 0 0 1 2.7.8 2.72 2.72 0 0 1 .9 2.1 5.85 5.85 0 0 1-.2 1.3 2.18 2.18 0 0 1-.5.8 2.09 2.09 0 0 1-.6.4l-.4.2a4.33 4.33 0 0 1 .5.1 1 1 0 0 1 .5.4 1.61 1.61 0 0 1 .4.7 3.55 3.55 0 0 1 .2 1 9.15 9.15 0 0 0 .1 1.7 2.1 2.1 0 0 0 .4 1.1h-2a1.88 1.88 0 0 1-.2-.8v-.8a6.15 6.15 0 0 0-.1-1.3 3.18 3.18 0 0 0-.3-.9 2.65 2.65 0 0 0-.6-.5 3.59 3.59 0 0 0-1.1-.2h-2.8v4.4h-2v-10.5zm1.9 4.8h3.1a2.3 2.3 0 0 0 1.4-.4 1.9 1.9 0 0 0 .5-1.3 2 2 0 0 0-.1-.8 1 1 0 0 0-.4-.5 1.42 1.42 0 0 0-.6-.2c-.2 0-.5-.1-.7-.1h-3l-.2 3.3zM297.2 265.2h-1.7v-1.1a2 2 0 0 1-.9.9 5 5 0 0 1-1.3.4 2.65 2.65 0 0 1-2.2-.8 3.89 3.89 0 0 1-.7-2.3v-4.9h1.6v4.8a1.79 1.79 0 0 0 .4 1.4 1.87 1.87 0 0 0 2 .2c.2-.1.4-.3.6-.4a.91.91 0 0 0 .3-.7 2.48 2.48 0 0 0 .1-.8v-4.5h1.7l.1 7.8zM298.5 257.4h1.6v1.1a2.41 2.41 0 0 1 1-1 3.25 3.25 0 0 1 1.4-.4 3.06 3.06 0 0 1 2 .7 2.49 2.49 0 0 1 .7 2v5.3h-1.7v-4.9a2 2 0 0 0-.4-1.3 1.5 1.5 0 0 0-1.1-.4 2.35 2.35 0 0 0-.8.2 1.84 1.84 0 0 0-1 1 2.2 2.2 0 0 0-.1.8v4.6h-1.6v-7.7zM305.9 257.4h1.3v-2.3h1.7v2.3h1.5v1.3h-1.5v4.6a.37.37 0 0 0 .1.3.38.38 0 0 0 .2.2.75.75 0 0 0 .5.1h.7v1.3l-.5.1h-.6a4.1 4.1 0 0 1-1.1-.1 1.28 1.28 0 0 1-.6-.4.86.86 0 0 1-.3-.6 2.77 2.77 0 0 1-.1-.9v-4.6h-1.3v-1.3zM311.3 254.5h1.7v1.6h-1.7v-1.6zm0 3h1.7v7.8h-1.7v-7.8zM314.4 257.4h1.6v1.1a2.18 2.18 0 0 1 .4-.5 1 1 0 0 1 .5-.4l.6-.3a2.48 2.48 0 0 1 .8-.1 2.77 2.77 0 0 1 1.3.3 2.19 2.19 0 0 1 .9 1 4.74 4.74 0 0 1 1-1 2.23 2.23 0 0 1 1.4-.3 3.08 3.08 0 0 1 1.9.6 2.49 2.49 0 0 1 .7 2v5.4h-1.7v-5.4a1.85 1.85 0 0 0-.2-.7.78.78 0 0 0-.4-.4 1.06 1.06 0 0 0-.8-.1 1.9 1.9 0 0 0-1.3.5 2.82 2.82 0 0 0-.4 1.5v4.5H319v-5a2.38 2.38 0 0 0-.3-1.2 1.19 1.19 0 0 0-1.1-.4 1.27 1.27 0 0 0-.6.1 1 1 0 0 0-.5.4 2.09 2.09 0 0 0-.4.6 2.77 2.77 0 0 0-.1.9v4.6h-1.7l.1-7.7zM328.3 261.7a2.77 2.77 0 0 0 .1.9 1.61 1.61 0 0 0 .4.7 2.65 2.65 0 0 0 .6.5 2.92 2.92 0 0 0 .9.2 2.38 2.38 0 0 0 1.2-.3 2.29 2.29 0 0 0 .7-1h1.6a3.36 3.36 0 0 1-1.3 2 3.13 3.13 0 0 1-1 .5 5 5 0 0 1-1.2.2 4.15 4.15 0 0 1-1.6-.3 3.6 3.6 0 0 1-1.2-.8 3.29 3.29 0 0 1-.7-1.3 3 3 0 0 1-.2-1.6 4.53 4.53 0 0 1 .3-1.6 3.53 3.53 0 0 1 .8-1.3 3.56 3.56 0 0 1 5.5.2 3.48 3.48 0 0 1 .7 1.5 4.88 4.88 0 0 1 .1 1.7l-5.7-.2zm4-1.1a2.35 2.35 0 0 0-.2-.8 1.28 1.28 0 0 0-.4-.6c-.2-.2-.4-.3-.6-.5a1.88 1.88 0 0 0-.8-.2 1.08 1.08 0 0 0-.8.2 1.28 1.28 0 0 0-.6.4 2.09 2.09 0 0 0-.4.6 2.35 2.35 0 0 0-.2.8l4 .1z" transform="translate(-.5 -.5)"/><path class="how3-18" d="M0 0h678v383.54H0z"/><rect class="how3-19" x="620.91" y="150.13" width="36.88" height="23.43" rx="1.75" ry="1.75"/><path class="how3-20" d="M627.57 166.72a.6.6 0 0 1-.34-.59 3.26 3.26 0 0 0 0-.41v-1.22a.33.33 0 0 1 0-.17v-1.61a16.94 16.94 0 0 1 0-1.75 1.5 1.5 0 0 1 0-.37 3 3 0 0 1 0-.39v-.3a.85.85 0 0 1 0-.34 1.47 1.47 0 0 1 .1-.28.81.81 0 0 1 1-.29.65.65 0 0 1 .31.7v1.1a5.15 5.15 0 0 1 0 .7 1.29 1.29 0 0 0 0 .31v.07a1.7 1.7 0 0 1 0 .4v.46a1.33 1.33 0 0 0 0 .24v.11c.07.46.37 1 .65.73a.16.16 0 0 1 .1-.12l.4-.46.16-.16a4.26 4.26 0 0 1 .29-.34l.11-.11a1 1 0 0 1 1.21.11 2 2 0 0 0 .45.44c.23.22.15.16.17.21a1.83 1.83 0 0 0 .27.33c.4.33.82-.33.87-.77v-2.79a1.66 1.66 0 0 1 0-.73.85.85 0 0 1 1-.44.64.64 0 0 1 .33.51v2.5a2.69 2.69 0 0 1 0 .93v.29a.65.65 0 0 0 0 .17v.35a4.64 4.64 0 0 0 0 .48v.48a.89.89 0 0 1 0 .34v.94a1 1 0 0 1-.22.63.86.86 0 0 1-1.19-.25 3 3 0 0 1-.3-.46l-.07-.15a3.49 3.49 0 0 0-.52-.46 1.89 1.89 0 0 0-1.29-.6 1.64 1.64 0 0 0-1.21.65 4 4 0 0 1-.45.45 3.43 3.43 0 0 0-.59.62.87.87 0 0 1-1.15.35zM637 166.72a.6.6 0 0 1-.34-.59 3.26 3.26 0 0 0 0-.41v-1.22a.33.33 0 0 1 0-.17v-1.61a16.94 16.94 0 0 1 0-1.75 1.5 1.5 0 0 1 0-.37 3 3 0 0 1 0-.39v-.3a.85.85 0 0 1 0-.34 1.47 1.47 0 0 1 .1-.28.81.81 0 0 1 1-.29.65.65 0 0 1 .31.7v1.1a5.15 5.15 0 0 1 0 .7 1.29 1.29 0 0 0 0 .31v.07a1.7 1.7 0 0 1 0 .4v.46a1.33 1.33 0 0 0 0 .24v.11c.07.46.37 1 .65.73a.17.17 0 0 1 .1-.12l.4-.46.16-.16a4.26 4.26 0 0 1 .29-.34l.11-.11a1 1 0 0 1 1.21.11 2 2 0 0 0 .45.44c.23.22.15.16.17.21a1.83 1.83 0 0 0 .27.33c.4.33.82-.33.87-.77v-2.79a1.66 1.66 0 0 1 0-.73.85.85 0 0 1 1-.44.64.64 0 0 1 .33.51v2.5a2.69 2.69 0 0 1 0 .93v.29a.65.65 0 0 0 0 .17v.35a4.64 4.64 0 0 0 0 .48v.48a.89.89 0 0 1 0 .34v.94a1 1 0 0 1-.22.63.86.86 0 0 1-1.19-.25 3 3 0 0 1-.3-.46l-.07-.15a3.49 3.49 0 0 0-.52-.46 1.89 1.89 0 0 0-1.29-.6 1.64 1.64 0 0 0-1.21.65 4 4 0 0 1-.45.45 3.43 3.43 0 0 0-.59.62.87.87 0 0 1-1.15.35zM646.31 166.72a.6.6 0 0 1-.34-.59 3.26 3.26 0 0 0 0-.41v-1.22a.33.33 0 0 1 0-.17v-1.61a16.94 16.94 0 0 1 0-1.75 1.5 1.5 0 0 1 0-.37 3 3 0 0 1 0-.39v-.3a.85.85 0 0 1 0-.34 1.47 1.47 0 0 1 .1-.28.81.81 0 0 1 1-.29.65.65 0 0 1 .31.7v1.1a5.15 5.15 0 0 1 0 .7 1.29 1.29 0 0 0 0 .31v.07a1.7 1.7 0 0 1 0 .4v.46a1.33 1.33 0 0 0 0 .24v.11c.07.46.37 1 .65.73a.17.17 0 0 1 .1-.12l.4-.46.16-.16a4.26 4.26 0 0 1 .29-.34l.11-.11a1 1 0 0 1 1.21.11 2 2 0 0 0 .45.44c.23.22.15.16.17.21a1.83 1.83 0 0 0 .27.33c.4.33.82-.33.87-.77v-2.79a1.66 1.66 0 0 1 0-.73.85.85 0 0 1 1-.44.64.64 0 0 1 .33.51v2.5a2.69 2.69 0 0 1 0 .93v.29a.65.65 0 0 0 0 .17v.35a4.64 4.64 0 0 0 0 .48v.48a.89.89 0 0 1 0 .34v.94a1 1 0 0 1-.22.63.86.86 0 0 1-1.19-.25 3 3 0 0 1-.3-.46l-.07-.15a3.49 3.49 0 0 0-.52-.46 1.89 1.89 0 0 0-1.29-.6 1.64 1.64 0 0 0-1.21.65 4 4 0 0 1-.45.45 3.43 3.43 0 0 0-.59.62.87.87 0 0 1-1.15.35z" transform="translate(-.5 -.5)"/><rect class="how3-19" x="576.88" y="144.04" width="36.88" height="23.43" rx="1.75" ry="1.75"/><path class="how3-20" d="M583.6 160.63a.6.6 0 0 1-.34-.59 3.26 3.26 0 0 0 0-.41v-1.17a.33.33 0 0 1 0-.17v-1.64a16.94 16.94 0 0 1 0-1.75 1.5 1.5 0 0 1 0-.37 3 3 0 0 1 0-.39v-.3a.83.83 0 0 1 0-.34 1.45 1.45 0 0 1 .1-.28.81.81 0 0 1 1-.29.65.65 0 0 1 .31.7v1.1a5.15 5.15 0 0 1 0 .7 1.29 1.29 0 0 0 0 .31v.07a1.7 1.7 0 0 1 0 .4v.46a1.33 1.33 0 0 0 0 .24v.09c.07.46.37 1 .65.73a.16.16 0 0 1 .1-.12l.4-.46.18-.15a4.26 4.26 0 0 1 .29-.34l.11-.11a1 1 0 0 1 1.21.11 2 2 0 0 0 .45.44c.23.22.15.16.17.21a1.83 1.83 0 0 0 .27.33c.4.33.82-.33.87-.77v-2.79a1.66 1.66 0 0 1 0-.73.85.85 0 0 1 1-.44.64.64 0 0 1 .33.51v2.47a2.69 2.69 0 0 1 0 .93v.29a.65.65 0 0 0 0 .17v.35a4.64 4.64 0 0 0 0 .48v.48a.88.88 0 0 1 0 .34v.94a1 1 0 0 1-.22.63.86.86 0 0 1-1.19-.25 3 3 0 0 1-.3-.46l-.07-.15a3.49 3.49 0 0 0-.52-.46 1.89 1.89 0 0 0-1.29-.6 1.64 1.64 0 0 0-1.21.65 4 4 0 0 1-.45.45 3.43 3.43 0 0 0-.59.62.87.87 0 0 1-1.15.35h-.11zM592.94 160.63a.6.6 0 0 1-.34-.59 3.26 3.26 0 0 0 0-.41v-1.17a.33.33 0 0 1 0-.17v-1.64a16.94 16.94 0 0 1 0-1.75 1.5 1.5 0 0 1 0-.37 3 3 0 0 1 0-.39v-.3a.83.83 0 0 1 0-.34 1.45 1.45 0 0 1 .1-.28.81.81 0 0 1 1-.29.65.65 0 0 1 .31.7v1.1a5.15 5.15 0 0 1 0 .7 1.29 1.29 0 0 0 0 .31v.07a1.7 1.7 0 0 1 0 .4v.46a1.33 1.33 0 0 0 0 .24v.09c.07.46.37 1 .65.73a.17.17 0 0 1 .1-.12l.4-.46.16-.16a4.26 4.26 0 0 1 .29-.34l.11-.11a1 1 0 0 1 1.21.11 2 2 0 0 0 .45.44c.23.22.15.16.17.21a1.83 1.83 0 0 0 .27.33c.4.33.82-.33.87-.77v-2.79a1.66 1.66 0 0 1 0-.73.85.85 0 0 1 1-.44.64.64 0 0 1 .33.51v2.47a2.69 2.69 0 0 1 0 .93v.29a.65.65 0 0 0 0 .17v.35a4.64 4.64 0 0 0 0 .48v.48a.88.88 0 0 1 0 .34v.94a1 1 0 0 1-.22.63.86.86 0 0 1-1.19-.25 3 3 0 0 1-.3-.46l-.07-.15a3.49 3.49 0 0 0-.52-.46 1.89 1.89 0 0 0-1.29-.6 1.64 1.64 0 0 0-1.21.65 4 4 0 0 1-.45.45 3.43 3.43 0 0 0-.59.62.87.87 0 0 1-1.15.35h-.08zM602.3 160.63a.6.6 0 0 1-.3-.63 3.26 3.26 0 0 0 0-.41v-1.17a.33.33 0 0 1 0-.17v-1.64a16.94 16.94 0 0 1 0-1.75 1.5 1.5 0 0 1 0-.37 3 3 0 0 1 0-.39v-.3a.83.83 0 0 1 0-.34 1.45 1.45 0 0 1 .1-.28.81.81 0 0 1 1-.29.65.65 0 0 1 .31.7v1.1a5.15 5.15 0 0 1 0 .7 1.29 1.29 0 0 0 0 .31v.07a1.7 1.7 0 0 1 0 .4v.46a1.33 1.33 0 0 0 0 .24v.13c.07.46.37 1 .65.73a.17.17 0 0 1 .1-.12l.4-.46.16-.16a4.26 4.26 0 0 1 .29-.34l.11-.11a1 1 0 0 1 1.21.11 2 2 0 0 0 .45.44c.23.22.15.16.17.21a1.83 1.83 0 0 0 .27.33c.4.33.82-.33.87-.77v-2.79a1.66 1.66 0 0 1 0-.73.85.85 0 0 1 1-.44.64.64 0 0 1 .33.51v2.47a2.69 2.69 0 0 1 0 .93v.29a.65.65 0 0 0 0 .17v.35a4.64 4.64 0 0 0 0 .48v.48a.88.88 0 0 1 0 .34v.94a1 1 0 0 1-.22.63.86.86 0 0 1-1.19-.25 3 3 0 0 1-.3-.46l-.07-.15a3.49 3.49 0 0 0-.52-.46 1.89 1.89 0 0 0-1.29-.6 1.64 1.64 0 0 0-1.21.65 4 4 0 0 1-.45.45 3.43 3.43 0 0 0-.59.62.87.87 0 0 1-1.15.35h-.13z" transform="translate(-.5 -.5)"/><rect class="how3-1" x="592.25" y="161.46" width="49.47" height="34.64" rx="9.73" ry="9.73"/><rect class="how3-18" x="592.25" y="161.46" width="49.47" height="34.64" rx="9.73" ry="9.73"/><rect class="how3-18" x="602.74" y="171.18" width="32.12" height="18.96" rx="5.48" ry="5.48"/><rect class="how3-19" x="597.96" y="166.98" width="36.88" height="23.43" rx="1.75" ry="1.75"/><path class="how3-20" d="M604.68 183.56a.6.6 0 0 1-.34-.59 3.26 3.26 0 0 0 0-.41V181.4a.33.33 0 0 1 0-.17v-1.61a16.94 16.94 0 0 1 0-1.75 1.5 1.5 0 0 1 0-.37 3 3 0 0 1 0-.39v-.3a.85.85 0 0 1 0-.34 1.47 1.47 0 0 1 .1-.28.81.81 0 0 1 1-.29.65.65 0 0 1 .31.7v1.1a5.15 5.15 0 0 1 0 .7 1.29 1.29 0 0 0 0 .31v.07a1.7 1.7 0 0 1 0 .4v.46a1.33 1.33 0 0 0 0 .24v.12c.07.46.37 1 .65.73a.17.17 0 0 1 .1-.12l.4-.46.1-.15a4.26 4.26 0 0 1 .29-.34l.11-.11a1 1 0 0 1 1.21.11 2 2 0 0 0 .45.44c.23.22.15.16.17.21a1.83 1.83 0 0 0 .27.33c.4.33.82-.33.87-.77V177a1.66 1.66 0 0 1 0-.73.85.85 0 0 1 1-.44.64.64 0 0 1 .33.51v2.47a2.69 2.69 0 0 1 0 .93v.29a.65.65 0 0 0 0 .17v.35a4.64 4.64 0 0 0 0 .48v.48a.89.89 0 0 1 0 .34v.94a1 1 0 0 1-.22.63.86.86 0 0 1-1.19-.25 3 3 0 0 1-.3-.46l-.07-.15a3.49 3.49 0 0 0-.52-.46 1.89 1.89 0 0 0-1.29-.6 1.64 1.64 0 0 0-1.21.65 4 4 0 0 1-.45.45 3.43 3.43 0 0 0-.59.62.87.87 0 0 1-1.15.35zM614 183.56a.6.6 0 0 1-.34-.59 3.26 3.26 0 0 0 0-.41V181.4a.33.33 0 0 1 0-.17v-1.61a16.94 16.94 0 0 1 0-1.75 1.5 1.5 0 0 1 0-.37 3 3 0 0 1 0-.39v-.3a.85.85 0 0 1 0-.34 1.47 1.47 0 0 1 .1-.28.81.81 0 0 1 1-.29.65.65 0 0 1 .31.7v1.1a5.15 5.15 0 0 1 0 .7 1.29 1.29 0 0 0 0 .31v.07a1.7 1.7 0 0 1 0 .4v.46a1.33 1.33 0 0 0 0 .24v.12c.07.46.37 1 .65.73a.16.16 0 0 1 .1-.12l.4-.46.16-.16a4.26 4.26 0 0 1 .29-.34l.11-.11a1 1 0 0 1 1.21.11 2 2 0 0 0 .45.44c.23.22.15.16.17.21a1.83 1.83 0 0 0 .27.33c.4.33.82-.33.87-.77V177a1.66 1.66 0 0 1 0-.73.85.85 0 0 1 1-.44.64.64 0 0 1 .33.51v2.47a2.69 2.69 0 0 1 0 .93v.29a.65.65 0 0 0 0 .17v.35a4.64 4.64 0 0 0 0 .48v.48a.89.89 0 0 1 0 .34v.94a1 1 0 0 1-.22.63.86.86 0 0 1-1.19-.25 3 3 0 0 1-.3-.46l-.07-.15a3.49 3.49 0 0 0-.52-.46 1.89 1.89 0 0 0-1.29-.6 1.64 1.64 0 0 0-1.21.65 4 4 0 0 1-.45.45 3.43 3.43 0 0 0-.59.62.87.87 0 0 1-1.15.35zM623.38 183.56a.6.6 0 0 1-.38-.56 3.26 3.26 0 0 0 0-.41V181.43a.33.33 0 0 1 0-.17v-1.61a16.94 16.94 0 0 1 0-1.75 1.5 1.5 0 0 1 0-.37 3 3 0 0 1 0-.39v-.3a.85.85 0 0 1 0-.34 1.47 1.47 0 0 1 .1-.28.81.81 0 0 1 1-.29.65.65 0 0 1 .31.7v1.1a5.15 5.15 0 0 1 0 .7 1.29 1.29 0 0 0 0 .31v.07a1.7 1.7 0 0 1 0 .4v.46a1.33 1.33 0 0 0 0 .24v.09c.07.46.37 1 .65.73a.16.16 0 0 1 .1-.12l.4-.46.16-.16a4.26 4.26 0 0 1 .29-.34l.11-.11a1 1 0 0 1 1.21.11 2 2 0 0 0 .45.44c.23.22.15.16.17.21a1.83 1.83 0 0 0 .27.33c.4.33.82-.33.87-.77V177a1.66 1.66 0 0 1 0-.73.85.85 0 0 1 1-.44.64.64 0 0 1 .33.51v2.47a2.69 2.69 0 0 1 0 .93v.29a.65.65 0 0 0 0 .17v.35a4.64 4.64 0 0 0 0 .48v.48a.89.89 0 0 1 0 .34v.94a1 1 0 0 1-.22.63.86.86 0 0 1-1.19-.25 3 3 0 0 1-.3-.46l-.07-.15a3.49 3.49 0 0 0-.52-.46 1.89 1.89 0 0 0-1.29-.6 1.64 1.64 0 0 0-1.21.65 4 4 0 0 1-.45.45 3.43 3.43 0 0 0-.59.62.87.87 0 0 1-1.15.35z" transform="translate(-.5 -.5)"/></svg>