<svg id="icon-play-button" data-name="icon-play-button" xmlns="http://www.w3.org/2000/svg" viewBox="0 0 94 106"><defs><style>.icon-play-button-1{fill:#68daf2}.icon-play-button-2{fill:#fff}</style></defs><title>icon-play-button</title><path class="icon-play-button-1" d="M85.86 47.17l-66.34-40a9.37 9.37 0 0 0-8.31-.54 6.61 6.61 0 0 0-4.36 5.91v80a6.61 6.61 0 0 0 4.36 5.9 9.32 9.32 0 0 0 3.62.72 9.11 9.11 0 0 0 4.69-1.27l66.34-40a6 6 0 0 0 0-10.72z"/><path class="icon-play-button-2" d="M14.82 5.92a9.14 9.14 0 0 1 4.69 1.26l66.34 40a6 6 0 0 1 0 10.72l-66.34 40a9.11 9.11 0 0 1-4.69 1.27 9.32 9.32 0 0 1-3.62-.72 6.61 6.61 0 0 1-4.36-5.9v-80a6.61 6.61 0 0 1 4.36-5.91 9.27 9.27 0 0 1 3.62-.72m0-3a12.35 12.35 0 0 0-4.79 1 9.64 9.64 0 0 0-6.19 8.67v80a9.53 9.53 0 0 0 6.16 8.6 12.4 12.4 0 0 0 4.79 1 12 12 0 0 0 6.24-1.7l66.34-40a9 9 0 0 0 0-15.86l-66.35-40a12.08 12.08 0 0 0-6.24-1.7z"/></svg>