<svg id="Layer_1" data-name="Layer 1" xmlns="http://www.w3.org/2000/svg" viewBox="0 0 850 185.31"><defs><style>.joyent-1{fill:#fff;}</style></defs><title>joyent-black</title><path class="joyent-1" d="M904,109.7v-0.06a10.42,10.42,0,1,1,20.84-.06v0.06a10.42,10.42,0,1,1-20.84.06m19.64-.06v-0.06a9.22,9.22,0,1,0-18.45.06v0.06a9.22,9.22,0,1,0,18.45-.06m-13.11-5.45h4.67c2.16,0,3.89,1.14,3.89,3.23a3.23,3.23,0,0,1-2.58,3.17l2.93,4.07h-2.1l-2.64-3.83h-2.52v3.83h-1.68V104.19Zm4.49,5.27c1.5,0,2.34-.78,2.34-1.92s-0.9-1.86-2.34-1.86h-2.81v3.77H915ZM237,223.6c10.12,10.65,24.67,19.12,45.74,19.12,16.11,0,29.47-4.67,38.59-13.78,8.9-8.9,14-22,14-39.65V96.73a4.54,4.54,0,0,0-4.54-4.54H306.31a4.54,4.54,0,0,0-4.54,4.54v91.08c0,17.17-7.63,24.59-19.93,24.59-9,0-16.47-4.17-23.83-11.39a4.54,4.54,0,0,0-6.56.18l-14.59,16.24a4.55,4.55,0,0,0,.08,6.18M347,184.42V184c0-32.65,26.29-59.15,61.7-59.15,35.2,0,61.27,26.08,61.27,58.73V184c0,32.65-26.29,59.15-61.69,59.15-35.19,0-61.27-26.08-61.27-58.73m91.16,0V184c0-16.75-12.08-31.38-29.89-31.38-18.45,0-29.47,14.2-29.47,31V184c0,16.75,12.08,31.38,29.89,31.38,18.45,0,29.47-14.2,29.47-31m143.78,0V184c0-32.44,23.11-59.15,56.18-59.15,38,0,55.34,29.47,55.34,61.7,0,1.31-.06,2.74-0.14,4.22A4.53,4.53,0,0,1,688.8,195H614c3.18,14.63,13.36,22.26,27.77,22.26,9.63,0,16.91-2.69,24.67-9.12a4.52,4.52,0,0,1,5.87.1l12.08,10.69a4.54,4.54,0,0,1,.3,6.53c-10.41,11-24.7,17.67-43.35,17.67-34.14,0-59.37-24-59.37-58.73m80.14-9.54c-1.91-14.42-10.39-24.17-24-24.17-13.36,0-22.05,9.54-24.59,24.17h48.55ZM707,131.5V236.06a4.54,4.54,0,0,0,4.54,4.54h23.15a4.54,4.54,0,0,0,4.54-4.54V177.21c0-15.26,9.61-26.82,21.91-26.82s17.73,6.19,17.73,21.45v64.22a4.54,4.54,0,0,0,4.54,4.54H806.6a4.54,4.54,0,0,0,4.54-4.54V167c0-26.08-14.21-42.19-38.59-42.19-16.32,0-25.87,8.69-33.29,18.23V131.5a4.54,4.54,0,0,0-4.54-4.54H711.57A4.54,4.54,0,0,0,707,131.5m167.69,111c9.51,0,16.72-2,22.93-5.18a4.59,4.59,0,0,0,2.51-4.07V216.9a4.55,4.55,0,0,0-6-4.29,33.13,33.13,0,0,1-9.91,1.49c-7.21,0-10.39-3.61-10.39-11V154.52h22.17a4.54,4.54,0,0,0,4.54-4.54V131.5a4.54,4.54,0,0,0-4.54-4.54H873.88V102.45a4.54,4.54,0,0,0-4.54-4.54H846.19a4.54,4.54,0,0,0-4.54,4.54V127H829.59a4.54,4.54,0,0,0-4.54,4.54V150a4.54,4.54,0,0,0,4.54,4.54h12.06v53.85c0,26.29,13.36,34.13,33.08,34.13M151.34,90.22a76.49,76.49,0,1,0,76.49,76.49,76.49,76.49,0,0,0-76.49-76.49m47.85,87.27a3.37,3.37,0,0,1-3.37,3.37H165.5v30.33a3.37,3.37,0,0,1-3.37,3.37H140.56a3.37,3.37,0,0,1-3.37-3.37V180.86H106.86a3.37,3.37,0,0,1-3.37-3.37V155.93a3.37,3.37,0,0,1,3.37-3.37h30.33V122.23a3.37,3.37,0,0,1,3.37-3.37h21.56a3.37,3.37,0,0,1,3.37,3.37v30.33h30.33a3.37,3.37,0,0,1,3.37,3.37v21.56ZM579,127H555.41a4.54,4.54,0,0,0-4.32,3.15l-23.3,73.31L504,130.06a4.54,4.54,0,0,0-4.3-3.1H473.93a4.54,4.54,0,0,0-4.23,6.19l41.06,105.19c1.92,4.81-2,10.07-9.2,10.07-3.53,0-11.67-.81-14.75-1.77a4.55,4.55,0,0,0-6,4.29v16.36a4.59,4.59,0,0,0,2.51,4.07c6.21,3.21,13.88,4.17,23.39,4.17,20.26,0,27-12.91,35.19-32.17L583.3,133.09A4.54,4.54,0,0,0,579,127" transform="translate(-74.86 -90.22)"/></svg>
