<?xml version="1.0" encoding="utf-8"?>
<svg version="1.1" xmlns="http://www.w3.org/2000/svg" xmlns:xlink="http://www.w3.org/1999/xlink" x="0px" y="0px"
	 viewBox="0 0 480.5 117.9" style="enable-background:new 0 0 480.5 117.9;" xml:space="preserve">
<style type="text/css">
	.sto0{fill:#222426;}
	.sto1{fill:#BCBBBB;}
	.sto2{fill:#F48024;}
</style>
<path class="sto0" d="M123.7,67.3l-4.8-0.4c-3.7-0.3-5.2-1.8-5.2-4.3c0-3,2.3-4.9,6.6-4.9c3.1,0,5.8,0.7,7.9,2.4l2.8-2.8
	c-2.7-2.2-6.4-3.2-10.7-3.2c-6.3,0-10.9,3.3-10.9,8.7c0,4.9,3.1,7.5,8.9,8l4.9,0.4c3.4,0.3,4.9,1.7,4.9,4.3c0,3.5-3,5.2-7.9,5.2
	c-3.7,0-6.9-1-9.2-3.4l-2.9,2.9c3.3,3.1,7.2,4.3,12.2,4.3c7.2,0,12.1-3.3,12.1-9C132.5,69.7,128.9,67.8,123.7,67.3z M160.9,53.9
	c-4.8,0-7.8,0.9-10.4,4.3l2.8,2.8c1.7-2.5,3.7-3.4,7.5-3.4c5.4,0,7.6,2.2,7.6,6.5V67h-8.9c-6.6,0-10.2,3.4-10.2,8.6
	c0,2.4,0.8,4.6,2.2,6c1.9,1.9,4.3,2.7,8.4,2.7c4,0,6.1-0.8,8.6-3.2V84h4.3V63.8C172.7,57.4,168.8,53.9,160.9,53.9z M168.4,73.5
	c0,2.5-0.5,4.2-1.5,5.1c-1.9,1.8-4.1,2-6.6,2c-4.7,0-6.8-1.6-6.8-5.1c0-3.4,2.2-5.2,6.6-5.2h8.3V73.5z M189.7,57.8
	c2.8,0,4.6,0.8,6.8,3.3l2.9-2.8c-3-3.3-5.6-4.3-9.7-4.3c-7.5,0-13.1,5.1-13.1,15.2s5.7,15.2,13.1,15.2c4.1,0,6.7-1.1,9.8-4.4l-3-2.8
	c-2.2,2.5-4,3.4-6.8,3.4c-2.9,0-5.3-1.1-6.9-3.4c-1.4-1.9-1.9-4.2-1.9-8c0-3.7,0.5-6,1.9-8C184.4,58.9,186.8,57.8,189.7,57.8z
	 M226.9,54.3h-5.4L208,67.4V41.1h-4.3V84h4.3V73.2l5.3-5.3l9.9,16.1h5.4l-12.3-19.1L226.9,54.3z M247.3,52.7c-4.6,0-7.6,1.8-9.5,3.8
	c-2.8,2.9-3.5,6.4-3.5,12s0.7,9.1,3.5,12c1.9,2,5,3.8,9.5,3.8c4.6,0,7.7-1.8,9.6-3.8c2.8-2.9,3.5-6.4,3.5-12s-0.7-9.1-3.5-12
	C255,54.5,251.8,52.7,247.3,52.7z M250.9,76c-0.9,0.9-2.1,1.4-3.6,1.4s-2.7-0.5-3.6-1.4c-1.6-1.6-1.8-4.3-1.8-7.5s0.2-5.9,1.8-7.5
	c0.9-0.9,2-1.4,3.6-1.4c1.5,0,2.7,0.5,3.6,1.4c1.6,1.6,1.8,4.3,1.8,7.5C252.7,71.7,252.5,74.4,250.9,76z M280.9,53.1l-6.2,19.1
	l-6.3-19.1h-8.1L271.7,84h6L289,53.1H280.9z M302.2,52.7c-8,0-13.5,5.7-13.5,15.8c0,12.5,7,15.8,14.3,15.8c5.6,0,8.6-1.7,11.7-4.9
	l-4.7-4.6c-2,2-3.6,2.9-7,2.9c-4.3,0-6.8-2.9-6.8-6.9h19.3v-3.4C315.6,59,310.7,52.7,302.2,52.7z M296.3,65.6
	c0.1-1.4,0.2-2.2,0.7-3.3c0.8-1.8,2.5-3.2,5.2-3.2c2.6,0,4.3,1.4,5.2,3.2c0.5,1.1,0.7,2,0.7,3.3H296.3z M327,56v-3h-7.5v31h7.7V65.4
	c0-3.9,2.6-5.7,5-5.7c1.9,0,2.9,0.6,4.1,1.8l5.8-5.8c-2.1-2.1-4.3-2.9-7.3-2.9C331.4,52.7,328.5,54.3,327,56z M344.4,49.9V84h7.7
	V59.6h5.7v-5.9h-5.7v-3.4c0-1.8,0.9-2.8,2.7-2.8h3V41h-4.4C347.2,41,344.4,45.5,344.4,49.9z M389.6,52.7c-4.6,0-7.6,1.8-9.5,3.8
	c-2.8,2.9-3.5,6.4-3.5,12s0.7,9.1,3.5,12c1.9,2,5,3.8,9.5,3.8c4.6,0,7.7-1.8,9.6-3.8c2.8-2.9,3.5-6.4,3.5-12s-0.7-9.1-3.5-12
	C397.3,54.5,394.1,52.7,389.6,52.7z M393.2,76c-0.9,0.9-2.1,1.4-3.6,1.4s-2.7-0.5-3.6-1.4c-1.6-1.6-1.8-4.3-1.8-7.5s0.2-5.9,1.8-7.5
	c0.9-0.9,2-1.4,3.6-1.4c1.5,0,2.7,0.5,3.6,1.4c1.6,1.6,1.8,4.3,1.8,7.5S394.8,74.4,393.2,76z M439.1,53.1l-5,19.1l-6.3-19.1h-5.6
	l-6.3,19.1l-5-19.1h-8.2l9.5,30.9h6.3l6.5-19.4l6.5,19.4h6.3l9.4-30.9H439.1z M369.2,74.7V41h-7.7v34.1c0,4.4,2.7,8.8,9,8.8h4.4
	v-6.5h-3C370,77.4,369.2,76.5,369.2,74.7z M144.5,59l4-4h-8.2v-9.8H136V76c0,4.4,2.5,8,7.6,8h3.1v-3.7h-2.3c-2.8,0-4-1.6-4-4.3V59
	H144.5z"/>
<polygon class="sto1" points="87.6,91.3 87.6,69.3 95,69.3 95,98.6 29.1,98.6 29.1,69.3 36.4,69.3 36.4,91.3 "/>
<path class="sto2" d="M44.5,67.3l35.9,7.5l1.5-7.2L46,60.1L44.5,67.3z M49.2,50.1l33.2,15.5l3.1-6.6L52.3,43.4L49.2,50.1z M58.4,33.8
	l28.2,23.4l4.7-5.6L63.1,28.2L58.4,33.8z M76.6,16.5l-5.9,4.4l21.9,29.4l5.9-4.4L76.6,16.5z M43.7,83.9h36.6v-7.3H43.7
	C43.7,76.6,43.7,83.9,43.7,83.9z"/>
</svg>
