<svg id="organic" xmlns="http://www.w3.org/2000/svg" viewBox="0 0 204.38 164.28"><defs><style>.cls-1{fill:#fec40d;}.cls-2{fill:none;stroke:#35a8c3;stroke-linecap:round;stroke-linejoin:round;stroke-width:2.5px;}.cls-3{fill:#32a4b3;opacity:0.2;}</style></defs><title>icons</title><circle class="cls-1" cx="153.07" cy="34.25" r="7.47"/><circle class="cls-1" cx="119.47" cy="64.55" r="7.47"/><circle class="cls-1" cx="177.86" cy="106.83" r="7.47"/><line class="cls-2" x1="175.76" y1="155.7" x2="122.27" y2="155.7"/><path class="cls-2" d="M167.57,204.39a29.28,29.28,0,0,0,7.87,1.07c16.55,0,30-13.7,30-30.6a30.77,30.77,0,0,0-10.8-23.51,30.68,30.68,0,0,0,14.55-26.2,30.32,30.32,0,0,0-27.7-30.48A30,30,0,0,0,153,73.53c-16.55,0-30,13.7-30,30.59a31.33,31.33,0,0,0,.71,6.55,30.45,30.45,0,0,0-23.19,29.77A30.85,30.85,0,0,0,106.68,159,31,31,0,0,0,104.26,171c0,16.9,13.42,30.59,30,30.59a29.3,29.3,0,0,0,6.35-.69" transform="translate(-6.03 -72.28)"/><line class="cls-2" x1="134.55" y1="155.18" x2="140.97" y2="63.09"/><line class="cls-2" x1="155.62" y1="63.09" x2="162.08" y2="155.7"/><circle class="cls-2" cx="153.07" cy="34.25" r="7.47"/><circle class="cls-2" cx="119.47" cy="64.55" r="7.47"/><circle class="cls-2" cx="177.86" cy="106.83" r="7.47"/><path class="cls-2" d="M164.57,164.71s11.25-7.62,13.67-20.42" transform="translate(-6.03 -72.28)"/><path class="cls-2" d="M142,182s-10.06-5.37-13.42-16.78" transform="translate(-6.03 -72.28)"/><path class="cls-3" d="M121,224l-30-1s3.22-4-2-4H72c-14,0-14-3-27-3-17,0-30,1-26,3,3.25,1.62-13,1-13,5s8.31,2.4,13,4,2,3,7,6,15,3.35,25.14,1c4.09-1,4.69-1.31,8.86-2s7.78-2.09,12-1a50.43,50.43,0,0,0,9,1c2.82-.21,6-2,9-4,0,0,13.05-.82,22.73-0.6,3.27,0.6,6.48.63,8.27-.4v-4Z" transform="translate(-6.03 -72.28)"/></svg>