<svg id="organic" xmlns="http://www.w3.org/2000/svg" viewBox="0 0 87.83 70.83"><defs><style>.organic-1{fill:#fec40d;}.organic-2{fill:none;stroke:#35a8c3;stroke-linecap:round;stroke-linejoin:round;stroke-width:2.5px;}.organic-3{fill:#32a4b3;opacity:0.2;}</style></defs><title>icons</title><circle class="organic-1" cx="65.21" cy="15.33" r="3.19"/><circle class="organic-1" cx="50.88" cy="28.27" r="3.19"/><circle class="organic-1" cx="75.79" cy="46.31" r="3.19"/><line class="organic-2" x1="74.9" y1="67.17" x2="52.07" y2="67.17"/><path class="organic-2" d="M68.83,57.1a12.49,12.49,0,0,0,3.36.46A12.92,12.92,0,0,0,85,44.5a13.13,13.13,0,0,0-4.61-10,13.09,13.09,0,0,0,6.21-11.18,12.94,12.94,0,0,0-11.82-13,12.76,12.76,0,0,0-25,4,13.37,13.37,0,0,0,.3,2.8,13,13,0,0,0-9.9,12.71,13.17,13.17,0,0,0,2.63,7.91,13.23,13.23,0,0,0-1,5.14A12.92,12.92,0,0,0,54.6,55.92a12.51,12.51,0,0,0,2.71-.3"/><line class="organic-2" x1="57.31" y1="66.94" x2="60.05" y2="27.64"/><line class="organic-2" x1="66.3" y1="27.64" x2="69.06" y2="67.17"/><circle class="organic-2" cx="65.21" cy="15.33" r="3.19"/><circle class="organic-2" cx="50.88" cy="28.27" r="3.19"/><circle class="organic-2" cx="75.79" cy="46.31" r="3.19"/><path class="organic-2" d="M67.55,40.16s4.8-3.25,5.83-8.72"/><path class="organic-2" d="M57.93,47.55a12.91,12.91,0,0,1-5.73-7.16"/><path class="organic-3" d="M46.71,65.46l-9.52-.37a0.57,0.57,0,0,1-.54-0.71A1.13,1.13,0,0,0,35.35,63c-1.71,0-3.34.38-7.18,0.38-6,0-6-1.28-11.52-1.28-7.27,0-12.8,0-11.1,1.28S0.13,64.13,0,65.48c-0.16,1.7,3.55,1,5.55,1.71s0.85,1.28,3,2.56,6.41,1.43,10.73.42c1.74-.41,2-0.56,3.78-0.85s3.32-.89,5.12-0.43a21.52,21.52,0,0,0,3.84.43,8.4,8.4,0,0,0,3.59-1.54,1.11,1.11,0,0,1,.54-0.18c1.2-.07,9.52-0.29,10.29-0.31a5.71,5.71,0,0,0,2.84-.58C49.67,66.39,49,65.49,46.71,65.46Z"/></svg>
