<svg id="portable" xmlns="http://www.w3.org/2000/svg" viewBox="0 0 58.7 47.22"><defs><style>.portable-1{fill:#32a4b3;}.portable-1,.portable-5{opacity:0.2;}.portable-2,.portable-4{fill:none;}.portable-2,.portable-4,.portable-5{stroke:#35a8c3;}.portable-2{stroke-linecap:round;stroke-linejoin:round;stroke-width:2.5px;}.portable-3{fill:#fec40d;}.portable-4,.portable-5{stroke-miterlimit:10;}.portable-4{stroke-width:2px;}.portable-5{fill:#888688;}</style></defs><title>icons</title><path class="portable-1" d="M66.09,34.61L46.25,40.69a2.26,2.26,0,0,1-1.36,0L17.83,32.8c-0.85-.26,1.17-10.61,0-10.67-0.82,0-3.41.65-3.41,1.28V57a2.26,2.26,0,0,0,2.26,2.26H66.78A2.26,2.26,0,0,0,69,57V36.76A2.26,2.26,0,0,0,66.09,34.61Z" transform="translate(-14.42 -12.05)"/><path class="portable-2" d="M17.84,32.9l25.37,7.55a5.23,5.23,0,0,0,3.25.06c1-.29,25.36-7.61,25.36-7.61" transform="translate(-14.42 -12.05)"/><path class="portable-3" d="M52.78,20.24V14a0.72,0.72,0,0,0-.69-0.75H37.57a0.72,0.72,0,0,0-.69.75v6.19l3.06-.55v-3a0.57,0.57,0,0,1,.57-0.57h8.63a0.57,0.57,0,0,1,.57.57v3Z" transform="translate(-14.42 -12.05)"/><rect class="portable-2" x="3.37" y="8.2" width="54.08" height="35.15" rx="5.03" ry="5.03"/><path class="portable-2" d="M36.88,20.24V14a0.72,0.72,0,0,1,.69-0.75H52.09a0.72,0.72,0,0,1,.69.75v6.19" transform="translate(-14.42 -12.05)"/><path class="portable-2" d="M39.94,19.7v-3a0.57,0.57,0,0,1,.57-0.57h8.63a0.57,0.57,0,0,1,.57.57v3" transform="translate(-14.42 -12.05)"/><circle class="portable-4" cx="30.51" cy="22.68" r="2.35"/><circle class="portable-5" cx="30.51" cy="22.68" r="2.35"/></svg>
