<svg id="portable" xmlns="http://www.w3.org/2000/svg" viewBox="0 0 135.87 108.96"><defs><style>.cls-1{fill:#32a4b3;}.cls-1,.cls-5{opacity:0.2;}.cls-2,.cls-4{fill:none;}.cls-2,.cls-4,.cls-5{stroke:#35a8c3;}.cls-2{stroke-linecap:round;stroke-linejoin:round;stroke-width:2.5px;}.cls-3{fill:#fec40d;}.cls-4,.cls-5{stroke-miterlimit:10;}.cls-4{stroke-width:2px;}.cls-5{fill:#888688;}</style></defs><title>icons</title><path class="cls-1" d="M208.11,151.26l-46.49,14.26a5.3,5.3,0,0,1-3.18,0L95,147c-2-.62,2.75-24.87,0-25-1.93-.09-8,1.53-8,3v78.7a5.3,5.3,0,0,0,5.3,5.3H209.73a5.3,5.3,0,0,0,5.3-5.3V156.3A5.3,5.3,0,0,0,208.11,151.26Z" transform="translate(-87.03 -100.07)"/><path class="cls-2" d="M95,147.25s56.32,16.73,59.45,17.68a12.26,12.26,0,0,0,7.61.15c2.38-.67,59.42-17.83,59.42-17.83" transform="translate(-87.03 -100.07)"/><path class="cls-3" d="M176.91,117.59V103.08a1.7,1.7,0,0,0-1.62-1.76h-34a1.7,1.7,0,0,0-1.62,1.76v14.51l7.18-1.28v-7a1.34,1.34,0,0,1,1.34-1.34h20.22a1.34,1.34,0,0,1,1.34,1.34v7Z" transform="translate(-87.03 -100.07)"/><rect class="cls-2" x="7.89" y="17.53" width="126.73" height="82.36" rx="5.03" ry="5.03"/><path class="cls-2" d="M139.65,117.59V103.08a1.7,1.7,0,0,1,1.62-1.76h34a1.7,1.7,0,0,1,1.62,1.76v14.51" transform="translate(-87.03 -100.07)"/><path class="cls-2" d="M146.83,116.31v-7a1.34,1.34,0,0,1,1.34-1.34h20.22a1.34,1.34,0,0,1,1.34,1.34v7" transform="translate(-87.03 -100.07)"/><circle class="cls-4" cx="71.5" cy="51.46" r="5.5"/><circle class="cls-5" cx="71.5" cy="51.46" r="5.5"/></svg>