<svg id="oauth" xmlns="http://www.w3.org/2000/svg" viewBox="0 0 44.38 49.56"><defs><style>.res-oauth-1{fill:#35a8c3;opacity:.2}.res-oauth-2,.res-oauth-3{fill:#fff;stroke:#35a8c3;stroke-width:2px;stroke-linecap:round;stroke-linejoin:round}.res-oauth-3{fill:none;stroke:#fec40d;stroke-width:1.4px}</style></defs><title>Untitled-7</title><path class="res-oauth-1" d="M42.77 48.16c-1.81.37-12-5.64-15.68-10.78-2.21-3.09-3.44-8.25-3-14.38s4.1-12.63 2.62-12.68a44.48 44.48 0 0 1-5-.5c-5.51 11.47-5.07 24 .38 32.18.94 1.41 6.61 9.84 16.28 12.27 9.67-2.43 18.1-14.44 18.1-14.44a43.54 43.54 0 0 1-13.7 8.33z" transform="translate(-17.8 -4.73)"/><path class="res-oauth-2" d="M38.89 48.94a26.73 26.73 0 0 1-12.1-10c-4.91-7.44-5.11-18.4-.52-27.94l1.17-2.43 2.64.54a13.21 13.21 0 0 0 5.25 0 13.29 13.29 0 0 0 4.8-2l1.95-1.33L44 7.06a13.29 13.29 0 0 0 4.79 2 13.22 13.22 0 0 0 5.25 0l2.64-.54 1.2 2.48c4.59 9.56 4.39 20.52-.53 27.92a26.74 26.74 0 0 1-12.09 10l-2.4.74a2.66 2.66 0 0 1-1.58 0z" transform="translate(-17.8 -4.73)"/><path class="res-oauth-3" d="M53.27 14.31a14.72 14.72 0 0 1-5.85 0A14.71 14.71 0 0 1 42.07 12a14.71 14.71 0 0 1-5.35 2.26 14.71 14.71 0 0 1-5.85 0c-3.71 7.71-3.41 16.12.25 21.64.63 1 4.45 6.61 10.95 8.25 6.5-1.63 10.31-7.3 10.95-8.25 3.66-5.47 3.98-13.9.25-21.59z" transform="translate(-17.8 -4.73)"/></svg>