<svg id="Layer_1" data-name="Layer 1" xmlns="http://www.w3.org/2000/svg" viewBox="0 0 100 100"><title>Artboard 1</title><path d="M53.56,34.48V29.33a8.22,8.22,0,0,0-8.2-8.19H21.28a8.22,8.22,0,0,0-8.2,8.19V53.41a8.22,8.22,0,0,0,8.2,8.2H44.22" style="fill:none;stroke:#56a5c0;stroke-linecap:round;stroke-linejoin:round;stroke-width:2.49113516425134px"/><line x1="31.31" y1="39.16" x2="26.25" y2="44.22" style="fill:none;stroke:#f7c542;stroke-linecap:round;stroke-linejoin:round;stroke-width:1.6340000000000001px"/><path d="M23.34,47.13l0,0-1.68,1.68a1.27,1.27,0,0,0,0,1.8l2.52,2.52a1.27,1.27,0,0,0,1.8,0l9.78-9.77" style="fill:none;stroke:#f7c542;stroke-linecap:round;stroke-linejoin:round;stroke-width:1.6340000000000001px"/><path d="M35.74,43.39a7.28,7.28,0,0,0,9.63-6.9,7.21,7.21,0,0,0-.86-3.43l-5.6,5.6-3.13-3.13L41.33,30a7.2,7.2,0,0,0-3.24-.77,7.28,7.28,0,0,0-7.28,7.28,7.41,7.41,0,0,0,.5,2.67" style="fill:none;stroke:#f7c542;stroke-linecap:round;stroke-linejoin:round;stroke-width:1.6340000000000001px"/><path d="M73.73,69.14a.78.78,0,0,0-.79-.78c-4,0-21.79-1.06-25.11-19.9a2.46,2.46,0,0,0-.14,1C49.15,71.92,69,73.12,73.26,73.12a.77.77,0,0,1,.47.17Z" style="fill:#d7e8ed"/><path d="M88.53,68l-2.46-1.87L75,74.54a.77.77,0,0,1-.94,0v4.14a.78.78,0,0,0,1.25.62L88.53,69.23A.79.79,0,0,0,88.53,68Z" style="fill:#d7e8ed"/><path d="M88.08,63.42,74.85,53.35a.78.78,0,0,0-1.26.62v4.71a.77.77,0,0,1-.78.78c-3.06,0-14.13-1.18-16.3-15.07A2.55,2.55,0,0,0,54,42.19H49.78a2.55,2.55,0,0,0-2.55,2.69C48.7,67.36,68.58,68.56,72.81,68.56a.78.78,0,0,1,.78.78v4.78a.79.79,0,0,0,1.26.62L88.08,64.67A.79.79,0,0,0,88.08,63.42Z" style="fill:none;stroke:#56a5c0;stroke-linecap:round;stroke-linejoin:round;stroke-width:2.49113516425134px"/></svg>