<?xml version="1.0" encoding="utf-8"?>
<!-- Generator: Adobe Illustrator 22.0.1, SVG Export Plug-In . SVG Version: 6.00 Build 0)  -->
<svg version="1.1" id="Layer_1" xmlns="http://www.w3.org/2000/svg" xmlns:xlink="http://www.w3.org/1999/xlink" x="0px" y="0px"
	 viewBox="0 0 100 100" style="enable-background:new 0 0 100 100;" xml:space="preserve">
<g>
	<g>
		<path style="fill:#DDEFF4;" d="M89.4,84.6l-15.2,4.3c-1.8,0.5-3.6,0.3-5.2-0.4c-0.2-0.1-0.4-0.2-0.6-0.3c-0.3-0.2-0.6-0.3-0.9-0.5
			c-0.4-0.3-0.7-0.6-1.1-1c-0.6-0.6-1.2-1.3-1.5-2.2L49.4,48.1l-4.4,6.6L60.5,91c0.4,0.9,0.9,1.6,1.5,2.2c0.3,0.3,0.7,0.7,1.1,1
			c0.3,0.2,0.6,0.4,0.9,0.5c0.2,0.1,0.4,0.2,0.6,0.3c1.6,0.7,3.4,0.9,5.2,0.4l15.2-4.3c3.2-0.9,5.3-3.7,5.5-6.9
			C90.1,84.4,89.8,84.5,89.4,84.6z"/>
		<path style="fill:#DDEFF4;" d="M13.6,87.7c-2.2-1.5-3.4-3.9-3.4-6.3c0-1.5,0.4-2.9,1.3-4.2l30.7-45.7l-4.6-10.7H26.7
			c-4.2,0-7.6-3.4-7.6-7.6c0-0.2,0-0.3,0-0.4c-0.9,0.4-1.6,0.9-2.3,1.6c-1.4,1.4-2.2,3.3-2.2,5.4c0,4.2,3.4,7.6,7.6,7.6h10.9
			l4.6,10.7L7.1,83.7c-0.9,1.3-1.3,2.8-1.3,4.2c0,2.4,1.2,4.9,3.4,6.3c3.5,2.3,8.2,1.4,10.6-2.1l3.7-5.5
			C20.9,89.3,16.8,89.8,13.6,87.7z"/>
	</g>
	<path style="fill:none;stroke:#56A5C0;stroke-width:2.4911;stroke-linecap:round;stroke-linejoin:round;stroke-miterlimit:10;" d="
		M95,77.3c0,3.3-2.2,6.4-5.6,7.3l-15.2,4.3c-1.8,0.5-3.6,0.3-5.2-0.4c-0.2-0.1-0.4-0.2-0.6-0.3c-0.3-0.2-0.6-0.3-0.9-0.5
		c-0.4-0.3-0.7-0.6-1.1-1c-0.6-0.6-1.2-1.3-1.5-2.2L49.4,48.1L24.2,85.6c-2.3,3.5-7.1,4.4-10.6,2.1c-2.2-1.5-3.4-3.9-3.4-6.3
		c0-1.5,0.4-2.9,1.3-4.2l30.7-45.7l-4.6-10.7H26.7c-4.2,0-7.6-3.4-7.6-7.6c0-2.1,0.9-4,2.2-5.4c1.4-1.4,3.3-2.2,5.3-2.2h15.9
		c0.3,0,0.7,0,1,0.1c0.2,0,0.5,0.1,0.7,0.1c0.2,0,0.4,0.1,0.5,0.1C45,5.9,45.3,6,45.6,6.2c0.2,0.1,0.4,0.2,0.6,0.3
		C46.6,6.7,47,7,47.4,7.3c0.9,0.7,1.7,1.7,2.2,2.9l26.8,62.3l8.9-2.5c4-1.1,8.2,1.2,9.4,5.3C94.9,75.9,95,76.6,95,77.3z"/>
	
		<polyline style="fill:none;stroke:#F7C542;stroke-width:1.7078;stroke-linecap:round;stroke-linejoin:round;stroke-miterlimit:10;" points="
		31.9,15.1 41.7,15.1 44.9,22.7 57.7,52.3 67.7,75.4 	"/>
</g>
</svg>
