<?xml version="1.0" encoding="utf-8"?>
<!-- Generator: Adobe Illustrator 22.0.1, SVG Export Plug-In . SVG Version: 6.00 Build 0)  -->
<svg version="1.1" id="Layer_1" xmlns="http://www.w3.org/2000/svg" xmlns:xlink="http://www.w3.org/1999/xlink" x="0px" y="0px"
	 viewBox="0 0 100 100" style="enable-background:new 0 0 100 100;" xml:space="preserve">
<path style="fill:#D7E8ED;" d="M82.8,78.3H27.6c-14.1,0-15.9-8.3-15.9-15.6V27.1c0-0.9,2.9-6.2,3.1-7.1C8.7,21.2,4.1,26.6,4.1,33.1
	v32.7c0,10.9,8.9,19.8,19.8,19.8h54.9c6.4,0,11.8-4.6,13-10.6C91,75.1,83.7,78.3,82.8,78.3z"/>
<path style="fill:none;stroke:#56A5C0;stroke-width:2.3382;stroke-linecap:round;stroke-linejoin:round;stroke-miterlimit:10;" d="
	M83.2,78.3H24.8c-7,0-12.7-5.7-12.7-12.7V27.1c0-7,5.7-12.7,12.7-12.7h58.4c7,0,12.7,5.7,12.7,12.7v38.5
	C95.9,72.6,90.2,78.3,83.2,78.3z"/>
<g>
	<path style="fill:#56A5C0;" d="M31.2,47.1h7c0.8,0,1.5-0.7,1.5-1.5v-1.2c0-3.8-2.1-5.9-5.7-5.9c-3.6,0-5.8,2.3-5.8,6.1v3.7
		c0,3.7,2.1,6,5.8,6c3.9,0,5.1-2.3,5.5-3.8c0.2-0.7-0.4-1.4-1.1-1.4c-0.6,0-1.2,0.4-1.3,1c-0.6,2.3-3.1,2.1-3.1,2.1
		c-1.8,0-3.2-1.2-3.2-3.4v-1.3C30.7,47.3,30.9,47.1,31.2,47.1z M34,40.6c2,0,3.2,1.1,3.2,3.6v0.3c0,0.3-0.3,0.6-0.6,0.6h-5.2
		c-0.3,0-0.6-0.3-0.6-0.6l0-0.5C30.7,41.8,32,40.6,34,40.6z"/>
	<path style="fill:#56A5C0;" d="M62.6,45.3h-7.6c-0.6,0-1.2-0.5-1.2-1.2v0c0-0.6,0.5-1.2,1.2-1.2h7.6c0.6,0,1.2,0.5,1.2,1.2v0
		C63.7,44.8,63.2,45.3,62.6,45.3z M54.9,47.5h7.6c0.6,0,1.2,0.5,1.2,1.2v0c0,0.6-0.5,1.2-1.2,1.2h-7.6c-0.6,0-1.2-0.5-1.2-1.2v0
		C53.8,48,54.3,47.5,54.9,47.5z"/>
	<path style="fill:#56A5C0;" d="M79.7,36.8l-1.6,6h2.6l1.7-6.6c0.1-0.5,0.6-0.9,1.1-0.9h0.1c0.8,0,1.3,0.7,1.1,1.5l-1.6,6h2
		c0.6,0,1.2,0.5,1.2,1.2v0c0,0.6-0.5,1.2-1.2,1.2h-2.6L82,47.6h3.2c0.6,0,1.2,0.5,1.2,1.2v0c0,0.6-0.5,1.2-1.2,1.2h-3.9l-1.7,6.6
		c-0.1,0.5-0.6,0.9-1.1,0.9h-0.1c-0.8,0-1.3-0.7-1.1-1.5l1.6-6h-2.6l-1.7,6.6c-0.1,0.5-0.6,0.9-1.1,0.9h-0.1c-0.8,0-1.3-0.7-1.1-1.5
		l1.6-6h-1.9c-0.6,0-1.2-0.5-1.2-1.2v0c0-0.6,0.5-1.2,1.2-1.2h2.5l0.6-2.5h-3.2c-0.6,0-1.2-0.5-1.2-1.2v0c0-0.6,0.5-1.2,1.2-1.2h3.8
		l1.7-6.6c0.1-0.5,0.6-0.9,1.1-0.9h0.1C79.4,35.4,79.9,36.1,79.7,36.8z M76.9,47.6h2.6l0.6-2.5h-2.6L76.9,47.6z"/>
	<g>
		<path style="fill:#F7C542;" d="M27.4,56.2c0,0.7-0.6,1.2-1.3,1.2c-3.6-0.3-4.5-2.3-4.5-6.3v-9.5c0-4,0.9-5.9,4.5-6.3
			c0.7-0.1,1.3,0.5,1.3,1.2v0c0,0.6-0.4,1.1-1,1.2c-1.9,0.2-2.2,1.3-2.2,3.4v10.5c0,2.1,0.3,3.2,2.2,3.4
			C27,55.2,27.4,55.7,27.4,56.2L27.4,56.2z"/>
	</g>
	<path style="fill:#F7C542;" d="M40.5,56.2c0-0.6,0.4-1.1,1-1.2c1.9-0.2,2.2-1.3,2.2-3.4V41.1c0-2.1-0.3-3.2-2.2-3.4
		c-0.6-0.1-1-0.6-1-1.2v0c0-0.7,0.6-1.2,1.3-1.2c3.6,0.3,4.5,2.3,4.5,6.3v9.5c0,4-0.9,5.9-4.5,6.3C41.1,57.5,40.5,56.9,40.5,56.2
		L40.5,56.2z"/>
</g>
</svg>
