<svg id="jwt" xmlns="http://www.w3.org/2000/svg" viewBox="0 0 53.02 53.45"><defs><style>.res-jwt-1{opacity:0.2;}.res-jwt-2{fill:#158696;}.res-jwt-3{fill:#81d2e7;}.res-jwt-4,.res-jwt-6{fill:none;}.res-jwt-4{stroke:#276883;stroke-width:2.5px;}.res-jwt-4,.res-jwt-5,.res-jwt-6{stroke-linecap:round;stroke-linejoin:round;}.res-jwt-5{fill:#fff;stroke-width:2px;}.res-jwt-5,.res-jwt-6{stroke:#35a8c3;}.res-jwt-6{stroke-width:1.3px;}.res-jwt-7{fill:#fec40d;}</style></defs><title>Untitled-7</title><g class="res-jwt-1"><circle class="res-jwt-2" cx="24.6" cy="28.84" r="24.6"/></g><circle class="res-jwt-3" cx="30.35" cy="26.34" r="10.62"/><line class="res-jwt-4" x1="28.6" y1="24.84" x2="36.71" y2="16.73"/><path class="res-jwt-5" d="M42,3.62a23.37,23.37,0,1,1-6.16.82" transform="translate(-13.34 -2.62)"/><path class="res-jwt-6" d="M32.09,34.2a10.3,10.3,0,0,1,4.83-3.76,8.54,8.54,0,0,0,4.86,2.08h0.11a8.63,8.63,0,0,0,4.88-2.08,9.73,9.73,0,0,1,4.86,3.65" transform="translate(-13.34 -2.62)"/><path class="res-jwt-6" d="M47.1,23.95a5.25,5.25,0,0,1-5.25,5.25h0a5.25,5.25,0,0,1-5.25-5.25V20.08a5.25,5.25,0,0,1,5.25-5.25h0a5.25,5.25,0,0,1,5.25,5.25v3.87Z" transform="translate(-13.34 -2.62)"/><path class="res-jwt-6" d="M39,19.6s1.14-1,3.38-.1,3,0.58,4.43-.25" transform="translate(-13.34 -2.62)"/><polygon class="res-jwt-7" points="14.29 10.89 15.76 12.6 18 12.36 16.83 14.29 17.74 16.35 15.55 15.82 13.87 17.33 13.7 15.08 11.74 13.96 13.83 13.09 14.29 10.89"/><polygon class="res-jwt-7" points="12.89 21.66 13.34 23.87 15.41 24.76 13.45 25.86 13.24 28.11 11.58 26.58 9.38 27.08 10.32 25.03 9.17 23.1 11.41 23.36 12.89 21.66"/><polygon class="res-jwt-7" points="14.64 32.79 16.15 34.46 18.39 34.15 17.27 36.11 18.25 38.14 16.04 37.68 14.41 39.24 14.16 37 12.18 35.93 14.23 35.01 14.64 32.79"/><polygon class="res-jwt-7" points="42.26 10.89 40.8 12.6 38.55 12.36 39.73 14.29 38.81 16.35 41.01 15.82 42.68 17.33 42.86 15.08 44.81 13.96 42.73 13.09 42.26 10.89"/><polygon class="res-jwt-7" points="43.66 21.66 43.22 23.87 41.15 24.76 43.11 25.86 43.31 28.11 44.97 26.58 47.17 27.08 46.23 25.03 47.39 23.1 45.15 23.36 43.66 21.66"/><polygon class="res-jwt-7" points="41.92 32.79 40.4 34.46 38.17 34.15 39.29 36.11 38.31 38.14 40.52 37.68 42.15 39.24 42.39 37 44.38 35.93 42.32 35.01 41.92 32.79"/></svg>
