<svg id="Layer_1" data-name="Layer 1" xmlns="http://www.w3.org/2000/svg" viewBox="0 0 60.08 57.67"><defs><style>.res-rewrite-1,.res-rewrite-2{fill:#34a8c4}.res-rewrite-1{opacity:.2}.res-rewrite-3{opacity:.3}</style></defs><title>Artboard 1</title><path class="res-rewrite-1" d="M27.5 27.43v7.21a1.8 1.8 0 0 1-3.13 1.2L12.53 22.69l12.56-14a1.38 1.38 0 0 1 2.41.93v17.81z"/><path class="res-rewrite-2" d="M36.3 52.79H21a1 1 0 0 1 0-2h15.3c8.66 0 15.42-5.37 17.22-13.68a1 1 0 0 1 2 .42A19.16 19.16 0 0 1 36.3 52.79zM23.54 36.62a1 1 0 0 1-.74-.33l-15-16.63a1 1 0 0 1 0-1.34l15-16.63a1 1 0 0 1 1.74.67v10.9h11.75c10.25 0 17.87 6 19.4 15.34a1 1 0 1 1-2 .32C52.06 18.84 43.63 15.25 36.3 15.25H23.54a1 1 0 0 1-1-1V5L9.92 19l12.62 14v-9.28a1 1 0 0 1 1-1h7.62a1 1 0 0 1 0 2h-6.62v10.9a1 1 0 0 1-1 1z"/><path class="res-rewrite-2" d="M30.38 43.26h-9.52a1 1 0 0 1 0-2h9.52c7.33 0 11.88-3.17 11.88-8.27s-4.55-8.26-11.88-8.26a1 1 0 0 1-1-1 1 1 0 0 1 1-1h.06c10.24 0 13.88 5.53 13.88 10.26s-3.69 10.27-13.94 10.27z"/><g class="res-rewrite-3"><path class="res-rewrite-2" d="M24 47.93h-1a1 1 0 0 1 0-2h1a1 1 0 0 1 0 2zM31.77 47.93h-1.95a1 1 0 0 1 0-2h1.94a1 1 0 0 1 0 2zm5.82-.06a1 1 0 0 1-.1-2 12 12 0 0 0 1.76-.31 1 1 0 1 1 .49 1.94 14 14 0 0 1-2.06.36zm7.06-3a1 1 0 0 1-.65-1.73 12.42 12.42 0 0 0 1.29-1.25 1 1 0 1 1 1.49 1.33 14.2 14.2 0 0 1-1.5 1.45 1 1 0 0 1-.64.24zm4.19-6.4a1 1 0 0 1-.28 0 1 1 0 0 1-.68-1.24 11.73 11.73 0 0 0 .36-1.75 1 1 0 1 1 2 .26 13.91 13.91 0 0 1-.43 2 1 1 0 0 1-.98.77zm.26-7.7a1 1 0 0 1-1-.8 11.05 11.05 0 0 0-.5-1.71 1 1 0 1 1 1.87-.71 12.82 12.82 0 0 1 .58 2 1 1 0 0 1-.78 1.18zm-3.8-6.6a1 1 0 0 1-.68-.27 14.33 14.33 0 0 0-1.4-1.15 1 1 0 1 1 1.17-1.62A16.12 16.12 0 0 1 46 22.44a1 1 0 0 1-.68 1.73zm-6.72-3.74a1 1 0 0 1-.27 0 13.91 13.91 0 0 0-1.77-.43 1 1 0 1 1 .28-2 15.87 15.87 0 0 1 2 .41 1 1 0 0 1-.27 2zM29.83 19.83a1 1 0 0 1-.05-2h1a1 1 0 0 1 1 1 1 1 0 0 1-1 1h-1z"/></g></svg>
