<svg id="jwt" xmlns="http://www.w3.org/2000/svg" viewBox="0 0 53.02 53.45"><defs><style>.res-jwt-1{opacity:.2}.res-jwt-2{fill:#158696}.res-jwt-3{fill:#81d2e7}.res-jwt-4,.res-jwt-6{fill:none}.res-jwt-4{stroke:#276883;stroke-width:2.5px}.res-jwt-4,.res-jwt-5,.res-jwt-6{stroke-linecap:round;stroke-linejoin:round}.res-jwt-5{fill:#fff;stroke-width:2px;stroke:#35a8c3}.res-jwt-6{stroke:#35a8c3;stroke-width:1.3px}.res-jwt-7{fill:#fec40d}</style></defs><title>Untitled-7</title><g class="res-jwt-1"><circle class="res-jwt-2" cx="24.6" cy="28.84" r="24.6"/></g><circle class="res-jwt-3" cx="30.35" cy="26.34" r="10.62"/><path class="res-jwt-4" d="M28.6 24.84l8.11-8.11"/><path class="res-jwt-5" d="M42 3.62a23.37 23.37 0 1 1-6.16.82" transform="translate(-13.34 -2.62)"/><path class="res-jwt-6" d="M32.09 34.2a10.3 10.3 0 0 1 4.83-3.76 8.54 8.54 0 0 0 4.86 2.08h.11a8.63 8.63 0 0 0 4.88-2.08 9.73 9.73 0 0 1 4.86 3.65M47.1 23.95a5.25 5.25 0 0 1-5.25 5.25 5.25 5.25 0 0 1-5.25-5.25v-3.87a5.25 5.25 0 0 1 5.25-5.25 5.25 5.25 0 0 1 5.25 5.25v3.87z" transform="translate(-13.34 -2.62)"/><path class="res-jwt-6" d="M39 19.6s1.14-1 3.38-.1 3 .58 4.43-.25" transform="translate(-13.34 -2.62)"/><path class="res-jwt-7" d="M14.29 10.89l1.47 1.71 2.24-.24-1.17 1.93.91 2.06-2.19-.53-1.68 1.51-.17-2.25-1.96-1.12 2.09-.87.46-2.2zM12.89 21.66l.45 2.21 2.07.89-1.96 1.1-.21 2.25-1.66-1.53-2.2.5.94-2.05-1.15-1.93 2.24.26 1.48-1.7zM14.64 32.79l1.51 1.67 2.24-.31-1.12 1.96.98 2.03-2.21-.46-1.63 1.56-.25-2.24-1.98-1.07 2.05-.92.41-2.22zM42.26 10.89L40.8 12.6l-2.25-.24 1.18 1.93-.92 2.06 2.2-.53 1.67 1.51.18-2.25 1.95-1.12-2.08-.87-.47-2.2zM43.66 21.66l-.44 2.21-2.07.89 1.96 1.1.2 2.25 1.66-1.53 2.2.5-.94-2.05 1.16-1.93-2.24.26-1.49-1.7zM41.92 32.79l-1.52 1.67-2.23-.31 1.12 1.96-.98 2.03 2.21-.46 1.63 1.56.24-2.24 1.99-1.07-2.06-.92-.4-2.22z"/></svg>