<svg data-name="Layer 1" xmlns="http://www.w3.org/2000/svg" viewBox="10 10 79.5 65.5"><path fill="#fff" d="M25.58 22.39v-4.23h4.24"/><path d="M25.58 23.39a1 1 0 0 1-1-1v-4.23a1 1 0 0 1 1-1h4.23a1 1 0 0 1 0 2h-3.23v3.23a1 1 0 0 1-1 1z" fill="#34a8c4"/><path fill="#fff" d="M29.82 63.74h-4.24V59.5"/><path d="M29.82 64.74h-4.24a1 1 0 0 1-1-1V59.5a1 1 0 0 1 2 0v3.23h3.23a1 1 0 1 1 0 2z" fill="#34a8c4"/><path fill="#fff" d="M74.33 59.5v4.24h-4.24"/><path d="M74.33 64.74h-4.24a1 1 0 0 1 0-2h3.23V59.5a1 1 0 0 1 2 0v4.23a1 1 0 0 1-.99 1.01z" fill="#34a8c4"/><path fill="#fff" d="M70.09 18.16h4.24v4.23"/><path d="M74.33 23.39a1 1 0 0 1-1-1v-3.23h-3.24a1 1 0 0 1 0-2h4.23a1 1 0 0 1 1 1v4.23a1 1 0 0 1-.99 1z" fill="#34a8c4"/><path d="M41.52 35.69V21.41a2.82 2.82 0 0 1 2.81-2.81 2.82 2.82 0 0 1 2.81 2.81v14.28" fill="#fff"/><path d="M47.14 36.69a1 1 0 0 1-1-1V21.41a1.81 1.81 0 1 0-3.62 0v14.28a1 1 0 0 1-2 0V21.41a3.81 3.81 0 1 1 7.62 0v14.28a1 1 0 0 1-1 1z" fill="#34a8c4"/><path d="M52.77 36V20.9a2.82 2.82 0 0 1 2.81-2.81 2.82 2.82 0 0 1 2.81 2.81v14.28" fill="#fff"/><path d="M52.76 37a1 1 0 0 1-1-1V20.9a3.81 3.81 0 0 1 7.62 0v14.28a1 1 0 0 1-2 0V20.9a1.81 1.81 0 0 0-3.62 0V36a1 1 0 0 1-1 1z" fill="#34a8c4"/><path d="M58.39 37.19V24.53A2.62 2.62 0 0 1 61 21.91a2.62 2.62 0 0 1 2.61 2.61v27.65c0 5.22-1.24 8.77-5.22 8.77v5.39" fill="#fff"/><path d="M58.39 67.34a1 1 0 0 1-1-1v-5.4a1 1 0 0 1 1-1c2 0 4.22-.88 4.22-7.77V24.53a1.61 1.61 0 1 0-3.22 0v12.66a1 1 0 0 1-2 0V24.53a3.61 3.61 0 1 1 7.22 0v27.64c0 2.28 0 9-5.22 9.7v4.46a1 1 0 0 1-1 1.01z" fill="#34a8c4"/><path d="M47.14 32.65V18.37A2.82 2.82 0 0 1 50 15.56a2.82 2.82 0 0 1 2.81 2.81v14.28" fill="#fff"/><path d="M52.76 33.65a1 1 0 0 1-1-1V18.37a1.81 1.81 0 1 0-3.62 0v14.28a1 1 0 0 1-2 0V18.37a3.81 3.81 0 1 1 7.62 0v14.28a1 1 0 0 1-1 1z" fill="#34a8c4"/><path d="M50 51.38c0-8.38-8.43-8.81-8.43-8.81v-9a2.82 2.82 0 0 0-2.81-2.81 2.82 2.82 0 0 0-2.81 2.81v18.68c0 5.08 5.87 8.69 8.43 8.69v4.91" fill="#fff"/><path d="M44.33 66.85a1 1 0 0 1-1-1v-4c-3.36-.69-8.43-4.52-8.43-9.58V33.56a3.81 3.81 0 0 1 7.62 0v8.1c3.36.52 8.43 3 8.43 9.71a1 1 0 0 1-2 0c0-7.31-7.18-7.8-7.48-7.81a1 1 0 0 1-.95-1v-9a1.81 1.81 0 0 0-3.62 0v18.69c0 4.36 5.28 7.69 7.43 7.69a1 1 0 0 1 1 1v4.91a1 1 0 0 1-1 1z" fill="#34a8c4"/><path d="M48.94 60.93a27.28 27.28 0 0 1-4.83 0" fill="#fff"/><path d="M46.12 62a19.42 19.42 0 0 1-2.12-.07 1 1 0 1 1 .21-2 20.27 20.27 0 0 0 3.67 0h1a1 1 0 0 1 .08 2h-1c-.61.07-1.2.07-1.84.07z" fill="#34a8c4"/><path d="M58.58 34.79v15.45c0 7.48-5.62 5.09-5.62 11.08v5.39h5.62v-6.17s5.22.33 5.22-7.31V25.58c0-2.3-.55-4.05-2.61-4.05s-2.61.87-2.61 4.63z" fill="#30a3b3" opacity=".2"/></svg>