<?xml version="1.0" encoding="utf-8"?>
<!-- Generator: Adobe Illustrator 22.0.1, SVG Export Plug-In . SVG Version: 6.00 Build 0)  -->
<svg version="1.1" id="Layer_1" xmlns="http://www.w3.org/2000/svg" xmlns:xlink="http://www.w3.org/1999/xlink" x="0px" y="0px"
	 viewBox="0 0 100 100" style="enable-background:new 0 0 100 100;" xml:space="preserve">
<path style="fill:none;stroke:#56A5C0;stroke-width:2.4911;stroke-linecap:round;stroke-linejoin:round;stroke-miterlimit:10;" d="
	M50.1,65v6.2c0,5.4-4.4,9.8-9.8,9.8H11.5c-5.4,0-9.8-4.4-9.8-9.8V42.4c0-5.4,4.4-9.8,9.8-9.8h27.4"/>
<g>
	
		<line style="fill:none;stroke:#F7C542;stroke-width:1.634;stroke-linecap:round;stroke-linejoin:round;stroke-miterlimit:10;" x1="24.6" y1="54.1" x2="18.5" y2="60.2"/>
	<path style="fill:none;stroke:#F7C542;stroke-width:1.634;stroke-linecap:round;stroke-linejoin:round;stroke-miterlimit:10;" d="
		M15.1,63.7L15.1,63.7l-2,2c-0.6,0.6-0.6,1.6,0,2.2l3,3c0.6,0.6,1.6,0.6,2.2,0l11.7-11.7"/>
	<path style="fill:none;stroke:#F7C542;stroke-width:1.634;stroke-linecap:round;stroke-linejoin:round;stroke-miterlimit:10;" d="
		M29.9,59.2c0.9,0.3,1.8,0.5,2.8,0.5c4.8,0,8.7-3.9,8.7-8.7c0-1.5-0.4-2.9-1-4.1l-6.7,6.7l-3.7-3.7l6.6-6.6
		c-1.2-0.6-2.5-0.9-3.9-0.9c-4.8,0-8.7,3.9-8.7,8.7c0,1.1,0.2,2.2,0.6,3.2"/>
</g>
<g>
	<path style="fill:#D7E8ED;" d="M66,51.5c0-0.5,0.4-0.9,0.9-0.9c4.8,0,26-1.3,30-23.8c0.1,0.4,0.2,0.8,0.2,1.2
		c-1.8,26.9-25.5,28.3-30.6,28.3c-0.2,0-0.4,0.1-0.6,0.2V51.5z"/>
	<path style="fill:#D7E8ED;" d="M48.3,50.1l2.9-2.2l13.2,10.1c0.4,0.3,0.8,0.2,1.1,0v4.9c0,0.8-0.9,1.2-1.5,0.7l-15.8-12
		C47.8,51.2,47.8,50.5,48.3,50.1z"/>
</g>
<path style="fill:none;stroke:#56A5C0;stroke-width:2.4911;stroke-linecap:round;stroke-linejoin:round;stroke-miterlimit:10;" d="
	M48.7,44.4l15.8-12c0.6-0.5,1.5,0,1.5,0.7v5.6c0,0.5,0.4,0.9,0.9,0.9c3.7-0.1,16.9-1.4,19.5-18c0.2-1.5,1.5-2.6,3-2.6
	c1.5,0,3.4,0,5,0c1.7,0,3.2,1.5,3,3.2C95.7,49.1,72,50.5,66.9,50.5c-0.5,0-0.9,0.4-0.9,0.9v5.7c0,0.8-0.9,1.2-1.5,0.7l-15.8-12
	C48.2,45.5,48.2,44.8,48.7,44.4z"/>
</svg>
