<svg id="basic" xmlns="http://www.w3.org/2000/svg" viewBox="0 0 50.45 53.52"><defs><style>.res-basic-1{fill:#32a4b3;opacity:0.2;}.res-basic-2{fill:#fec40d;}.res-basic-3{fill:none;stroke:#35a8c3;stroke-linecap:round;stroke-linejoin:round;stroke-width:2px;}</style></defs><title>Untitled-7</title><path class="res-basic-1" d="M35.85,47.28c2,4.28-4.47,10.41-16.9,7-6.53-1.8,1.13-5.18,4.73-5.63l1.13-3.15L33.14,45l2.7,2.25" transform="translate(-16.4 -1.75)"/><path class="res-basic-1" d="M40,35.39a6.75,6.75,0,0,1,5.55,4.67,4.53,4.53,0,0,1,.11,2.4,4.63,4.63,0,0,1-2.49,2.82,13.72,13.72,0,0,1-3.71,1.07c-0.35.52,0.27,1.15,0.84,1.4a11.66,11.66,0,0,0,4.5.76,7.65,7.65,0,0,0,2.83-.33,2.92,2.92,0,0,0,1.91-2c0.18-.81-0.12-1.68.11-2.48s1-1.47,1.08-2.33a4.27,4.27,0,0,0-1-2.41,6.74,6.74,0,0,1,.47-7.24c-0.62-.64-1.57.24-2.3,0.76-1.23.89-2.89,0.69-4.4,0.87s-3.23,1.24-3,2.74" transform="translate(-16.4 -1.75)"/><rect class="res-basic-2" x="4.36" y="23.01" width="3.67" height="24.38"/><polyline class="res-basic-3" points="1.51 19.91 8.03 19.91 8.03 47.39 1.51 47.39"/><line class="res-basic-3" x1="14.63" y1="23.01" x2="9.54" y2="23.01"/><path class="res-basic-3" d="M51.84,47.77H38.57a4.64,4.64,0,0,1-4.68-4.6V42.31" transform="translate(-16.4 -1.75)"/><path class="res-basic-3" d="M31.81,26.4c0-5.35,2.78-7.95,5-9.16a9.2,9.2,0,0,0,4.44-5.37,32.1,32.1,0,0,0,1.23-9.12h1.44a5.21,5.21,0,0,1,5.25,5.17V18.45" transform="translate(-16.4 -1.75)"/><path class="res-basic-3" d="M35.9,16.94h9.35a2.45,2.45,0,0,1,2.45,2.45v2.53a2.45,2.45,0,0,1-2.45,2.45H35.9a3.16,3.16,0,0,1-3.16-3.16V20.1a3.16,3.16,0,0,1,3.16-3.16Z"/><path class="res-basic-3" d="M35.76,24.37H47a2.34,2.34,0,0,1,2.34,2.34v2.42A2.34,2.34,0,0,1,47,31.48H35.76a3,3,0,0,1-3-3V27.4a3,3,0,0,1,3-3Z"/><path class="res-basic-3" d="M36,31.48H47a2.45,2.45,0,0,1,2.45,2.45v2.53A2.45,2.45,0,0,1,47,38.91H36a3.16,3.16,0,0,1-3.16-3.16v-1.1A3.16,3.16,0,0,1,36,31.48Z"/><path class="res-basic-3" d="M35.85,38.91h9.5a2.34,2.34,0,0,1,2.34,2.34v2.42A2.34,2.34,0,0,1,45.35,46h-9.5a3,3,0,0,1-3-3V41.94a3,3,0,0,1,3-3Z"/><path class="res-basic-3" d="M41.28,34.55s6.47-.12,7.85-4" transform="translate(-16.4 -1.75)"/><line class="res-basic-3" x1="17.18" y1="44" x2="8.27" y2="44"/></svg>
