<svg data-name="Layer 1" xmlns="http://www.w3.org/2000/svg" viewBox="10 10 79.5 65.5"><rect x="13.73" y="15.89" width="42.96" height="8.87" rx="1.89" ry="1.89" fill="#ffc50f"/><path fill="none" stroke="#34a8c4" stroke-linecap="round" stroke-linejoin="round" stroke-width="2" d="M13.94 48.79V15h42.94v25.68M56.88 25.71H14.96"/><rect x="21.92" y="18.83" width="53.33" height="48.33" rx="1.16" ry="1.16" fill="#fff"/><rect x="26.39" y="24.06" width="42.96" height="8.87" rx="1.89" ry="1.89" fill="#ffc50f"/><path fill="none" stroke="#34a8c4" stroke-linecap="round" stroke-linejoin="round" stroke-width="2" d="M26.61 57.46V23.67h42.94v25.68M69.55 33.37H27.62"/><rect x="33.92" y="27.83" width="53.33" height="48.33" rx="1.16" ry="1.16" fill="#fff"/><rect x="38.32" y="32.89" width="42.96" height="8.87" rx="1.89" ry="1.89" fill="#ffc50f"/><path fill="none" stroke="#34a8c4" stroke-linecap="round" stroke-linejoin="round" stroke-width="2" d="M38.54 66.29V32.5h42.94v33.79M81.48 42.71H39.55"/><g opacity=".2" fill="none" stroke="#34a8c4" stroke-linecap="round" stroke-linejoin="round" stroke-width="2.5"><path d="M45.9 49.17h28M45.9 56.93h28M45.9 64.69h28"/></g></svg>