<?xml version="1.0" encoding="utf-8"?>
<!-- Generator: Adobe Illustrator 22.0.1, SVG Export Plug-In . SVG Version: 6.00 Build 0)  -->
<svg version="1.1" id="Layer_1" xmlns="http://www.w3.org/2000/svg" xmlns:xlink="http://www.w3.org/1999/xlink" x="0px" y="0px"
	 viewBox="0 0 100 100" style="enable-background:new 0 0 100 100;" xml:space="preserve">
<g>
	<path style="fill:none;stroke:#56A5C0;stroke-width:2.4911;stroke-linecap:round;stroke-linejoin:round;stroke-miterlimit:10;" d="
		M84.8,15l4.8,4.8l0.1-0.1l4.2-4.2c1.3-1.3,1.3-3.3,0-4.5l-6.3-6.3c-1.3-1.3-3.3-1.3-4.5,0L52.1,35.6l-2.9,13.7L63,46.5l21.9-21.9"
		/>
	
		<line style="fill:none;stroke:#F7C542;stroke-width:1.6337;stroke-linecap:round;stroke-linejoin:round;stroke-miterlimit:10;" x1="62.8" y1="38.9" x2="78.8" y2="22.9"/>
	
		<line style="fill:none;stroke:#F7C542;stroke-width:1.6337;stroke-linecap:round;stroke-linejoin:round;stroke-miterlimit:10;" x1="59.3" y1="35.4" x2="75.3" y2="19.5"/>
	<path style="fill:#D7E8ED;" d="M53.2,86.9H22.6c-5.7,0-10.4-4.7-10.4-10.4V45.8c0-0.7,0.1-1.4,0.2-2.1c-4.8,0.9-8.4,5.2-8.4,10.2
		v23.9c0,9.4,7.7,17.2,17.2,17.2H45c5,0,9.2-3.6,10.2-8.3C54.6,86.8,53.9,86.9,53.2,86.9z"/>
	<path style="fill:none;stroke:#56A5C0;stroke-width:2.4911;stroke-linecap:round;stroke-linejoin:round;stroke-miterlimit:10;" d="
		M63.7,55.9v20.6c0,5.7-4.7,10.4-10.4,10.4H22.6c-5.7,0-10.4-4.7-10.4-10.4V45.8c0-5.7,4.7-10.4,10.4-10.4h20.3"/>
	<g>
		<g>
			<path style="fill:#56A5C0;stroke:#56A5C0;stroke-width:0.3434;stroke-miterlimit:10;" d="M26.4,61.1l2.8,4.3
				c0.4,0.6,0,1.4-0.7,1.4h0c-0.3,0-0.6-0.2-0.8-0.4l-2.2-3.5c-0.1-0.2-0.4-0.2-0.5,0l-2.2,3.5c-0.2,0.3-0.5,0.4-0.8,0.4h0
				c-0.7,0-1.1-0.8-0.7-1.4l2.8-4.3c0.1-0.1,0.1-0.2,0-0.3c-0.9-1.3-1.7-2.6-2.6-3.9c-0.4-0.6,0-1.4,0.7-1.4h0
				c0.3,0,0.6,0.2,0.8,0.4l1.9,3.1c0.1,0.2,0.4,0.2,0.5,0l1.9-3.1c0.2-0.3,0.5-0.4,0.8-0.4h0c0.7,0,1.1,0.8,0.7,1.4
				c-0.9,1.3-1.7,2.6-2.6,3.9C26.3,60.8,26.3,61,26.4,61.1z"/>
		</g>
		<path style="fill:#56A5C0;stroke:#56A5C0;stroke-width:0.3434;stroke-miterlimit:10;" d="M48.3,69.3l0.9-2.6c0-0.1,0-0.1,0-0.2
			l-3.4-10c-0.2-0.6,0.2-1.2,0.8-1.2h0.2c0.4,0,0.7,0.3,0.9,0.6l2.3,7.2c0.1,0.3,0.5,0.3,0.6,0l2.3-7.2c0.1-0.4,0.5-0.6,0.9-0.6h0.1
			c0.6,0,1,0.6,0.8,1.2l-4.6,13.3c-0.1,0.4-0.5,0.6-0.8,0.6h-0.1C48.6,70.5,48.1,69.9,48.3,69.3z"/>
		<path style="fill:#56A5C0;stroke:#56A5C0;stroke-width:0.3434;stroke-miterlimit:10;" d="M42.6,61.4
			C42.6,61.4,42.6,61.3,42.6,61.4c0-0.1,0.1-0.2,0.1-0.3s0-0.2-0.1-0.3c0,0,0,0,0,0c0-0.1-0.1-0.2-0.2-0.3l-3.6-3.6
			c-0.3-0.3-0.8-0.3-1.2,0s-0.3,0.8,0,1.2l2,2c0.1,0.1,0,0.2-0.1,0.2h-6.4c-0.5,0-0.8,0.4-0.8,0.8s0.4,0.8,0.8,0.8h6.4
			c0.1,0,0.1,0.1,0.1,0.2l-2,2c-0.3,0.3-0.3,0.8,0,1.2c0.3,0.3,0.8,0.3,1.2,0l3.6-3.6C42.5,61.5,42.6,61.5,42.6,61.4z"/>
	</g>
</g>
</svg>
