<svg id="cors" xmlns="http://www.w3.org/2000/svg" viewBox="0 0 64.47 54.42"><defs><style>.res-cors-1{fill:#158696;opacity:0.2;}.res-cors-2{fill:none;}.res-cors-2,.res-cors-3{stroke:#35a8c3;stroke-linecap:round;stroke-linejoin:round;stroke-width:2px;}.res-cors-3{fill:#fec40d;}</style></defs><title>Untitled-7</title><polygon class="res-cors-1" points="33.34 12.24 33.34 6.55 63.13 6.55 63.47 29.39 56.44 29.74 55.06 39.77 44.68 29.74 36.56 29.79 35.98 12.07 33.34 12.24"/><polyline class="res-cors-2" points="28.49 5.82 28.49 1 63.47 1 63.47 29.74 55.76 29.74 54.98 40.92 44.68 29.74 37.86 29.74"/><polygon class="res-cors-2" points="35.98 12.24 1 12.24 1 42.23 8.93 42.23 9.71 53.41 20.01 42.23 35.98 42.23 35.98 12.24"/><line class="res-cors-2" x1="41.04" y1="9.93" x2="55.92" y2="9.93"/><path class="res-cors-2" d="M57.84,8.64S59.19,24,50.17,26" transform="translate(-6.88 -2.09)"/><path class="res-cors-2" d="M51,16.41s1.69,7.44,7.78,8.45" transform="translate(-6.88 -2.09)"/><path class="res-cors-3" d="M30.93,38.05L29.55,35H21.86l-1.4,3.08H15.69L23.6,20.41h4.21l7.92,17.65h-4.8Zm-3.19-7.27-2-4.65-2,4.65h4.06Z" transform="translate(-6.88 -2.09)"/></svg>
