<svg id="Layer_1" data-name="Layer 1" xmlns="http://www.w3.org/2000/svg" viewBox="0 0 100 100"><title>Artboard 1</title><path d="M51.16,63.59v5.14A8.22,8.22,0,0,1,43,76.93H18.89a8.22,8.22,0,0,1-8.2-8.2V44.66a8.22,8.22,0,0,1,8.2-8.2H41.82" style="fill:none;stroke:#56a5c0;stroke-linecap:round;stroke-linejoin:round;stroke-width:2.49113516425134px"/><line x1="29.85" y1="54.52" x2="24.78" y2="59.59" style="fill:none;stroke:#f7c542;stroke-linecap:round;stroke-linejoin:round;stroke-width:1.6340000000000001px"/><path d="M21.88,62.49l0,0L20.17,64.2a1.29,1.29,0,0,0,0,1.8l2.53,2.52a1.25,1.25,0,0,0,1.8,0l9.77-9.77" style="fill:none;stroke:#f7c542;stroke-linecap:round;stroke-linejoin:round;stroke-width:1.6340000000000001px"/><path d="M34.27,58.75a7.12,7.12,0,0,0,2.36.39,7.29,7.29,0,0,0,6.42-10.72L37.45,54l-3.14-3.14,5.56-5.55a7.29,7.29,0,0,0-10,9.18" style="fill:none;stroke:#f7c542;stroke-linecap:round;stroke-linejoin:round;stroke-width:1.6340000000000001px"/><path d="M64.5,52.28a.78.78,0,0,1,.79-.78c4,0,21.79-1.07,25.12-19.9a2.4,2.4,0,0,1,.13,1C89.08,55.06,69.2,56.25,65,56.25a.77.77,0,0,0-.47.17Z" style="fill:#d7e8ed"/><path d="M49.7,51.12l2.46-1.88,11.08,8.44a.78.78,0,0,0,.94,0v4.13a.78.78,0,0,1-1.25.63L49.7,52.36A.78.78,0,0,1,49.7,51.12Z" style="fill:#d7e8ed"/><path d="M50,46.36,63.24,36.29a.78.78,0,0,1,1.26.62v4.71a.77.77,0,0,0,.79.78c3.06,0,14.12-1.18,16.29-15.07a2.57,2.57,0,0,1,2.52-2.2h4.21a2.54,2.54,0,0,1,2.55,2.69C89.39,50.3,69.51,51.5,65.29,51.5a.78.78,0,0,0-.79.78v4.78a.79.79,0,0,1-1.26.62L50,47.61A.78.78,0,0,1,50,46.36Z" style="fill:none;stroke:#56a5c0;stroke-linecap:round;stroke-linejoin:round;stroke-width:2.49113516425134px"/></svg>