<svg id="bug" xmlns="http://www.w3.org/2000/svg" viewBox="0 0 78.83 56.56"><defs><style>.res-bug-1,.res-bug-4,.res-bug-5{fill:none;}.res-bug-1,.res-bug-2,.res-bug-4,.res-bug-5{stroke:#35a8c3;stroke-linecap:round;stroke-linejoin:round;}.res-bug-1,.res-bug-2{stroke-width:2px;}.res-bug-2{fill:#fff;}.res-bug-3{fill:#fec40d;}.res-bug-4{stroke-width:1.5px;}.res-bug-5{stroke-width:2.5px;opacity:0.2;}</style></defs><title>Untitled-7</title><path class="res-bug-1" d="M44.24,41.92" transform="translate(0 -1.72)"/><path class="res-bug-2" d="M1,3.63v3.3a4.24,4.24,0,0,1,0,8.47v4.09A4.24,4.24,0,0,1,1,28V32a4.24,4.24,0,0,1,0,8.47v4.09a4.24,4.24,0,0,1,0,8.47v3.3a0.91,0.91,0,0,0,.91.91h75a0.91,0.91,0,0,0,.91-0.91V53.1h0a4.26,4.26,0,0,1,0-8.52h0v-4h0a4.26,4.26,0,1,1,0-8.52h0V28h0a4.26,4.26,0,0,1,0-8.52h0v-4h0a4.26,4.26,0,0,1,0-8.52h0V3.63a0.91,0.91,0,0,0-.91-0.91h-75A0.91,0.91,0,0,0,1,3.63Z" transform="translate(0 -1.72)"/><circle class="res-bug-3" cx="32.24" cy="23.63" r="2.74" transform="translate(-6.9 30.04) rotate(-47.98)"/><path class="res-bug-4" d="M44.57,30.45c1.13,1.79,1.58,3.87.62,4.94S42,36.21,40,35.2" transform="translate(0 -1.72)"/><path class="res-bug-4" d="M34.91,31a4,4,0,0,1,.18-4.81A4,4,0,0,1,40,25.56" transform="translate(0 -1.72)"/><circle class="res-bug-4" cx="32.31" cy="23.74" r="2.74" transform="translate(-6.96 30.13) rotate(-47.98)"/><polyline class="res-bug-4" points="25.95 24.9 29.24 28.23 33.47 27.23"/><polyline class="res-bug-4" points="25.25 31.29 29.71 32.35 34.91 29.25"/><polyline class="res-bug-4" points="41.68 42.35 39.34 37.54 39.33 32.79"/><line class="res-bug-4" x1="36.09" y1="42.52" x2="35.53" y2="37.15"/><polyline class="res-bug-4" points="34.29 15.65 37.94 18.57 37.39 22.88"/><polyline class="res-bug-4" points="40.57 14.28 42.09 18.61 40.02 23.84"/><polyline class="res-bug-4" points="52.8 30 47.77 28.18 43.88 28.04"/><line class="res-bug-4" x1="52.82" y1="23.95" x2="47.2" y2="24.32"/><path class="res-bug-4" d="M26.18,44.89a19.08,19.08,0,1,1,26.9-2.24A19.08,19.08,0,0,1,26.18,44.89Z" transform="translate(0 -1.72)"/><line class="res-bug-4" x1="52.16" y1="15.41" x2="27.2" y2="42.75"/><line class="res-bug-5" x1="11.34" y1="51.06" x2="11.34" y2="6.03"/><line class="res-bug-5" x1="67.78" y1="51.06" x2="67.78" y2="6.03"/></svg>
