<svg id="cors" xmlns="http://www.w3.org/2000/svg" viewBox="0 0 64.47 54.42"><defs><style>.res-cors-1{fill:#158696;opacity:.2}.res-cors-2,.res-cors-3{fill:none;stroke:#35a8c3;stroke-linecap:round;stroke-linejoin:round;stroke-width:2px}.res-cors-3{fill:#fec40d}</style></defs><title>Untitled-7</title><path class="res-cors-1" d="M33.34 12.24V6.55h29.79l.34 22.84-7.03.35-1.38 10.03-10.38-10.03-8.12.05-.58-17.72-2.64.17z"/><path class="res-cors-2" d="M28.49 5.82V1h34.98v28.74h-7.71l-.78 11.18-10.3-11.18h-6.82"/><path class="res-cors-2" d="M35.98 12.24H1v29.99h7.93l.78 11.18 10.3-11.18h15.97V12.24zM41.04 9.93h14.88"/><path class="res-cors-2" d="M57.84 8.64S59.19 24 50.17 26M51 16.41s1.69 7.44 7.78 8.45" transform="translate(-6.88 -2.09)"/><path class="res-cors-3" d="M30.93 38.05L29.55 35h-7.69l-1.4 3.08h-4.77l7.91-17.67h4.21l7.92 17.65h-4.8zm-3.19-7.27l-2-4.65-2 4.65h4.06z" transform="translate(-6.88 -2.09)"/></svg>