<svg id="bug" xmlns="http://www.w3.org/2000/svg" viewBox="0 0 78.83 56.56"><defs><style>.res-bug-1,.res-bug-4,.res-bug-5{fill:none}.res-bug-1,.res-bug-2,.res-bug-4,.res-bug-5{stroke:#35a8c3;stroke-linecap:round;stroke-linejoin:round}.res-bug-1,.res-bug-2{stroke-width:2px}.res-bug-2{fill:#fff}.res-bug-3{fill:#fec40d}.res-bug-4{stroke-width:1.5px}.res-bug-5{stroke-width:2.5px;opacity:.2}</style></defs><title>Untitled-7</title><path class="res-bug-2" d="M1 3.63v3.3a4.24 4.24 0 0 1 0 8.47v4.09A4.24 4.24 0 0 1 1 28v4a4.24 4.24 0 0 1 0 8.47v4.09a4.24 4.24 0 0 1 0 8.47v3.3a.91.91 0 0 0 .91.91h75a.91.91 0 0 0 .91-.91V53.1a4.26 4.26 0 0 1 0-8.52v-4a4.26 4.26 0 1 1 0-8.52V28a4.26 4.26 0 0 1 0-8.52v-4a4.26 4.26 0 0 1 0-8.52V3.63a.91.91 0 0 0-.91-.91h-75a.91.91 0 0 0-.91.91z" transform="translate(0 -1.72)"/><circle class="res-bug-3" cx="32.24" cy="23.63" r="2.74" transform="rotate(-47.98 30.301 22.772)"/><path class="res-bug-4" d="M44.57 30.45c1.13 1.79 1.58 3.87.62 4.94S42 36.21 40 35.2M34.91 31a4 4 0 0 1 .18-4.81 4 4 0 0 1 4.91-.63" transform="translate(0 -1.72)"/><circle class="res-bug-4" cx="32.31" cy="23.74" r="2.74" transform="rotate(-47.98 30.372 22.885)"/><path class="res-bug-4" d="M25.95 24.9l3.29 3.33 4.23-1M25.25 31.29l4.46 1.06 5.2-3.1M41.68 42.35l-2.34-4.81-.01-4.75M36.09 42.52l-.56-5.37M34.29 15.65l3.65 2.92-.55 4.31M40.57 14.28l1.52 4.33-2.07 5.23M52.8 30l-5.03-1.82-3.89-.14M52.82 23.95l-5.62.37"/><path class="res-bug-4" d="M26.18 44.89a19.08 19.08 0 1 1 26.9-2.24 19.08 19.08 0 0 1-26.9 2.24z" transform="translate(0 -1.72)"/><path class="res-bug-4" d="M52.16 15.41L27.2 42.75"/><path class="res-bug-5" d="M11.34 51.06V6.03M67.78 51.06V6.03"/></svg>