<svg id="ratelimiter" xmlns="http://www.w3.org/2000/svg" viewBox="0 0 37.42 50.94"><defs><style>.res-rate-1{fill:#fec40d;}.res-rate-2{fill:#158696;opacity:0.2;}.res-rate-3{fill:none;stroke:#35a8c3;stroke-linecap:round;stroke-linejoin:round;stroke-width:2px;}</style></defs><title>Untitled-7</title><path class="res-rate-1" d="M53.3,44.54A7.16,7.16,0,0,0,49.77,43a5.32,5.32,0,0,1-3.86-2c-1.67-1.81-2.18-5.4-2.29-7.45,0-.76-0.12-2.18-0.17-3.15a7.32,7.32,0,0,1,.91-3.58c0.55-.72,1.61-1.63,3-3.09a14.75,14.75,0,0,0,4.05-4.91s-7.3,2.54-13.92,0c-3.57-1.37-8.64,0-8.64,0a15,15,0,0,0,4.23,4.86c1.27,1.06,2.42,1.76,3,3a10.64,10.64,0,0,1,.67,3.3c0,0.37.05,2.81,0,4.13-0.11,2.15.05,6.11-2.56,7.52-2.87,1.54-4.6,1.32-7,2.76a5.63,5.63,0,0,0-.44,2.72c0,0.24,0,.32.06,1H54.07A8.36,8.36,0,0,0,53.3,44.54Z" transform="translate(-21.21 -3.89)"/><path class="res-rate-2" d="M55.56,10.06H26.91a1.43,1.43,0,0,1-1.43-1.43h0A1.43,1.43,0,0,1,26.91,7.2H55.56A1.43,1.43,0,0,1,57,8.63h0A1.43,1.43,0,0,1,55.56,10.06Z" transform="translate(-21.21 -3.89)"/><path class="res-rate-2" d="M55.56,53.13H26.91a1.43,1.43,0,0,1-1.43-1.43h0a1.43,1.43,0,0,1,1.43-1.43H55.56A1.43,1.43,0,0,1,57,51.7h0A1.43,1.43,0,0,1,55.56,53.13Z" transform="translate(-21.21 -3.89)"/><path class="res-rate-3" d="M26.75,11a16.78,16.78,0,0,0,6.37,12.64c1.27,1.06,2.42,1.81,3,3a7.48,7.48,0,0,1,.38,2.12,5.29,5.29,0,0,1-.38,1.86c-0.55,1.24-1.71,2-3,3a17,17,0,0,0-6.39,13.53c0,0.24,0,.15.06,0.79H53.57c0-.64.06-0.53,0.06-0.77A17,17,0,0,0,47.29,33.8c-1.42-1.45-2.27-2.11-2.66-3.11a8.46,8.46,0,0,1-.43-1.78,10,10,0,0,1,.43-2.19c0.39-1,1.24-1.66,2.66-3.11A16.82,16.82,0,0,0,53.61,11" transform="translate(-21.21 -3.89)"/><rect class="res-rate-3" x="1" y="1" width="34.77" height="5.8" rx="2.31" ry="2.31"/><path class="res-rate-3" d="M53.3,44.54A7.16,7.16,0,0,0,49.77,43a5.32,5.32,0,0,1-3.86-2c-1.67-1.81-2.18-5.4-2.29-7.45,0-.76-0.12-2.18-0.17-3.15a7.32,7.32,0,0,1,.91-3.58c0.55-.72,1.61-1.63,3-3.09a14.75,14.75,0,0,0,4.05-4.91s-7.3,2.54-13.92,0c-3.57-1.37-8.64,0-8.64,0a15,15,0,0,0,4.23,4.86c1.27,1.06,2.42,1.76,3,3a10.64,10.64,0,0,1,.67,3.3c0,0.37.05,2.81,0,4.13-0.11,2.15.05,6.11-2.56,7.52-2.87,1.54-4.6,1.32-7,2.76a5.63,5.63,0,0,0-.44,2.72c0,0.24,0,.32.06,1H54.07A8.36,8.36,0,0,0,53.3,44.54Z" transform="translate(-21.21 -3.89)"/><rect class="res-rate-3" x="1.64" y="44.14" width="34.77" height="5.8" rx="2.31" ry="2.31"/></svg>
