<svg id="contact" xmlns="http://www.w3.org/2000/svg" viewBox="0 0 64.23 52.13"><defs><style>.res-contact-1{fill:#fec40d}.res-contact-2{fill:#32a4b3;opacity:.2}.res-contact-3{fill:none;stroke:#35a8c3;stroke-linecap:round;stroke-linejoin:round;stroke-width:2px}</style></defs><title>Untitled-7</title><path class="res-contact-1" d="M24.35 42.56c-.34-5.49 3-11.85 8.15-13.91 3.45 2.36 8.13 3.78 11.74 1.68A6.87 6.87 0 0 1 46.87 29a3.46 3.46 0 0 1 1.43.22 10 10 0 0 1 5.89 5.62c.94 2.53.51 4.8.67 7.5-9.86-.1-30.51.22-30.51.22z" transform="translate(-7.62 -3.58)"/><path class="res-contact-2" d="M7.24 45.46h55.21v3.09a3.13 3.13 0 0 1-3.13 3.13H7.7a3.13 3.13 0 0 1-3.13-3.13v-.42a2.66 2.66 0 0 1 2.67-2.67z"/><path class="res-contact-3" d="M24.5 40.52s-.31-3.86 1.3-6.43a14.64 14.64 0 0 1 6.85-5.34s3.3 3 6.91 3h.16c3.61 0 6.94-3 6.94-3a13.82 13.82 0 0 1 6.91 5.19c1.61 2.57 1.43 6.55 1.43 6.55M47.13 17.53A7.46 7.46 0 0 1 39.67 25a7.46 7.46 0 0 1-7.46-7.46V12a7.46 7.46 0 0 1 7.46-7.46A7.46 7.46 0 0 1 47.13 12v5.5z" transform="translate(-7.62 -3.58)"/><path class="res-contact-3" d="M37.79 11.14a4.15 4.15 0 0 1 2.65.07c3.21 1.06 4.33.83 6.29-.35" transform="translate(-7.62 -3.58)"/><path class="res-contact-3" d="M7.7 40.25V13.73h9.72M46.09 13.73h10.34v26.52"/><path class="res-contact-3" d="M64 43.83s4.09 2.37 4.61 2.75a4.53 4.53 0 0 1 2.19 4.23 3.9 3.9 0 0 1-3.8 3.9H12.5a3.9 3.9 0 0 1-3.89-3.9 4.94 4.94 0 0 1 2.92-4.63c1.05-.57 3.79-2.35 3.79-2.35" transform="translate(-7.62 -3.58)"/><path class="res-contact-3" d="M13.37 24.42v14.24h37.4v-18.7M27.02 45.46h10.2"/></svg>