<svg id="key" xmlns="http://www.w3.org/2000/svg" viewBox="0 0 51.17 53.99"><defs><style>.res-key-1,.res-key-2{fill:#fff;stroke:#35a8c3;stroke-linecap:round;stroke-linejoin:round;stroke-width:2px}.res-key-2{fill:none}.res-key-3{fill:#32a4b3;opacity:.2}.res-key-4{fill:#fec40d}</style></defs><title>Untitled-7</title><path class="res-key-1" d="M40.49 38.1a13.67 13.67 0 1 0-8.77-8.77" transform="translate(-13.51 -2.39)"/><circle class="res-key-1" cx="46.33" cy="23.49" r="4.17" transform="rotate(-45 36.69 38.603)"/><path class="res-key-1" d="M18.2 26.96L1 44.16l1.19 7.58 7.58 1.18 1.38-5.81 4.14.3 2.87-2.88-1.01-3.9 3.81 1.1 3.65-3.64"/><path class="res-key-2" d="M49.09 20.55A9.37 9.37 0 1 1 61 19.37" transform="translate(-13.51 -2.39)"/><path class="res-key-3" d="M39 33.94a4.09 4.09 0 0 0 2.43 1.57 12.86 12.86 0 0 0 13.09-3.8 13.38 13.38 0 0 1-16.08 7.79 16.46 16.46 0 0 1-3.43 4 5.57 5.57 0 0 1-5 1.1c1.09.8.6 2.59-.36 3.54s-2.28 1.57-2.95 2.75a7.64 7.64 0 0 0-4.68 5.39 21.21 21.21 0 0 1-6.26-.46L36.1 34.94c.8-.82 2.17-1.65 2.93-.8" transform="translate(-13.51 -2.39)"/><path class="res-key-4" d="M15.75 53l23.16-22.69S51 38.08 57 24.39c-.74 6.34-4.52 9.71-9.3 10.93s-9.3-1.73-9.3-1.73-19.53 19.62-20.27 19.67a12.38 12.38 0 0 1-2.38-.26z" transform="translate(-13.51 -2.39)"/></svg>