<svg id="rabcl" xmlns="http://www.w3.org/2000/svg" viewBox="0 0 50.31 58.31"><defs><style>.res-rabcl-1{fill:#158696;}.res-rabcl-1,.res-rabcl-4{opacity:0.2;}.res-rabcl-2{fill:none;}.res-rabcl-2,.res-rabcl-3{stroke:#35a8c3;stroke-linecap:round;stroke-linejoin:round;stroke-width:2px;}.res-rabcl-3{fill:#fec40d;}.res-rabcl-4{fill:#32a4b3;}</style></defs><title>Untitled-7</title><path class="res-rabcl-1" d="M35.94,13h0a8.06,8.06,0,1,0-5.58,4.72l3.24,3.82,2.3-.46L35.1,23.33l1.55,1.83,2.44,0,0.53,3.48,4.51-.33,1.07-4.4ZM26,9.61c-3.35,0-3.35-5.2,0-5.2S29.37,9.61,26,9.61Z" transform="translate(-17.28)"/><path class="res-rabcl-2" d="M12.19,24.15" transform="translate(-17.28)"/><path class="res-rabcl-2" d="M41.79,1a20,20,0,0,1,20,20c0,0.43,0,.86,0,1.28h0v0.74c0,2.9,2.73,7.59,4.53,10.36,0.63,1,.08,1.89-1.23,2.25l-3.3.69v9.06A3.61,3.61,0,0,1,58.19,49h-10l-1,8.27" transform="translate(-17.28)"/><path class="res-rabcl-2" d="M25.55,57.31l2.81-21.39a20.08,20.08,0,0,1-5.43-8.08" transform="translate(-17.28)"/><path class="res-rabcl-2" d="M41,46.6S41.93,49,48.14,49" transform="translate(-17.28)"/><circle class="res-rabcl-3" cx="26.11" cy="8.86" r="2.68" transform="translate(-16.81 18.98) rotate(-40.27)"/><polyline class="res-rabcl-2" points="17.89 13.38 28 25.31 26.84 30.1 21.92 30.46 21.34 26.66 18.68 26.64 16.98 24.64 17.84 22.2 15.34 22.7 14.07 21.2"/><path class="res-rabcl-2" d="M29.08,18.53a8.79,8.79,0,1,1,6.08-5.15" transform="translate(-17.28)"/><path class="res-rabcl-4" d="M20.19,15.78L22.13,20c1.62,3.51,3.28,7.09,5.95,9.89a5.69,5.69,0,0,1,1.69,2.4,5,5,0,0,1-.13,2.14C28.11,42,26.7,52.21,25.89,57.47c-2.2,0-2.34,0-4.54,0a1.07,1.07,0,0,1-1-.32,1.06,1.06,0,0,1,0-.8,125.17,125.17,0,0,1,4.53-15.46,5.49,5.49,0,0,0,.5-2.61,5.86,5.86,0,0,0-.9-2A31.14,31.14,0,0,1,20.23,21c0-2.3-1.11-4.17-1.28-6.46" transform="translate(-17.28)"/><path class="res-rabcl-4" d="M41.78,43.21a6.29,6.29,0,0,0-3.43,0,2.45,2.45,0,0,0-1.67,2.69c0.31,1.16,1.62,1.7,2.78,2a28.76,28.76,0,0,0,19.88-2.18l-8.67.52A15.09,15.09,0,0,1,45.58,46a5.11,5.11,0,0,1-3.64-3.29" transform="translate(-17.28)"/></svg>
