<svg id="Layer_1" data-name="Layer 1" xmlns="http://www.w3.org/2000/svg" viewBox="0 0 100 100"><title>Artboard 1</title><path d="M82.84,78.3H27.64c-14.06,0-15.88-8.3-15.88-15.63V27.15c0-.93,2.92-6.25,3.1-7.12A13.38,13.38,0,0,0,4.1,33.1V65.75a19.86,19.86,0,0,0,19.79,19.8H78.77a13.38,13.38,0,0,0,13-10.63C91,75.08,83.72,78.3,82.84,78.3Z" style="fill:#d7e8ed"/><rect x="12.13" y="14.45" width="83.77" height="63.85" rx="12.69" style="fill:none;stroke:#56a5c0;stroke-linecap:round;stroke-linejoin:round;stroke-width:2.33822921631255px"/><path d="M31.19,47.06h7a1.49,1.49,0,0,0,1.48-1.49V44.42c0-3.76-2.12-5.94-5.74-5.94s-5.77,2.34-5.77,6.08v3.7c0,3.67,2.12,6,5.77,6,3.86,0,5.13-2.25,5.54-3.8a1.14,1.14,0,0,0-1.12-1.42,1.37,1.37,0,0,0-1.33,1A2.94,2.94,0,0,1,34,52.15a3.11,3.11,0,0,1-3.24-3.37V47.52A.47.47,0,0,1,31.19,47.06ZM34,40.63c2,0,3.21,1.09,3.21,3.63v.31a.64.64,0,0,1-.63.64H31.36a.64.64,0,0,1-.63-.64V44C30.73,41.81,32,40.63,34,40.63Z" style="fill:#56a5c0"/><path d="M62.55,45.28H54.93a1.17,1.17,0,0,1-1.17-1.17h0a1.17,1.17,0,0,1,1.17-1.18h7.62a1.17,1.17,0,0,1,1.17,1.18h0A1.17,1.17,0,0,1,62.55,45.28Zm-7.62,2.2h7.62a1.17,1.17,0,0,1,1.17,1.17h0a1.17,1.17,0,0,1-1.17,1.17H54.93a1.17,1.17,0,0,1-1.17-1.17h0A1.17,1.17,0,0,1,54.93,47.48Z" style="fill:#56a5c0"/><path d="M79.74,36.83l-1.55,6h2.58l1.71-6.59a1.17,1.17,0,0,1,1.13-.87h.06a1.17,1.17,0,0,1,1.14,1.46l-1.56,6h2A1.17,1.17,0,0,1,86.4,44h0a1.18,1.18,0,0,1-1.18,1.17H82.63L82,47.64h3.22a1.18,1.18,0,0,1,1.18,1.18h0A1.18,1.18,0,0,1,85.22,50H81.37l-1.68,6.55a1.17,1.17,0,0,1-1.13.88H78.5A1.17,1.17,0,0,1,77.37,56l1.55-6H76.31l-1.68,6.55a1.17,1.17,0,0,1-1.14.88h0A1.16,1.16,0,0,1,72.31,56l1.55-6h-2a1.18,1.18,0,0,1-1.17-1.17h0a1.18,1.18,0,0,1,1.17-1.18h2.55l.62-2.47H71.91A1.18,1.18,0,0,1,70.74,44h0a1.17,1.17,0,0,1,1.17-1.17h3.8l1.71-6.59a1.17,1.17,0,0,1,1.13-.87h.06A1.17,1.17,0,0,1,79.74,36.83ZM76.93,47.64h2.59l.63-2.47H77.56Z" style="fill:#56a5c0"/><path d="M27.4,56.24a1.17,1.17,0,0,1-1.26,1.17c-3.59-.34-4.51-2.29-4.51-6.25V41.63c0-4,.92-5.92,4.51-6.26a1.17,1.17,0,0,1,1.26,1.17h0a1.17,1.17,0,0,1-1,1.16c-1.89.24-2.22,1.31-2.22,3.43V51.65c0,2.14.29,3.19,2.22,3.43a1.17,1.17,0,0,1,1,1.16Z" style="fill:#f7c542"/><path d="M40.51,56.24a1.17,1.17,0,0,1,1-1.16c1.93-.24,2.22-1.29,2.22-3.43V41.14c0-2.12-.33-3.19-2.22-3.43a1.17,1.17,0,0,1-1-1.16h0a1.17,1.17,0,0,1,1.26-1.17c3.59.34,4.51,2.3,4.51,6.26v9.53c0,4-.92,5.91-4.51,6.25a1.16,1.16,0,0,1-1.26-1.17Z" style="fill:#f7c542"/></svg>