<svg id="Layer_1" data-name="Layer 1" xmlns="http://www.w3.org/2000/svg" viewBox="24 14 52 54"><title>Artboard 1</title><polyline points="25.58 22.39 25.58 18.16 29.82 18.16" style="fill:#fff"/><path d="M25.58,23.39a1,1,0,0,1-1-1V18.16a1,1,0,0,1,1-1h4.23a1,1,0,0,1,0,2H26.58v3.23A1,1,0,0,1,25.58,23.39Z" style="fill:#34a8c4"/><polyline points="29.82 63.74 25.58 63.74 25.58 59.5" style="fill:#fff"/><path d="M29.82,64.74H25.58a1,1,0,0,1-1-1V59.5a1,1,0,0,1,2,0v3.23h3.23a1,1,0,1,1,0,2Z" style="fill:#34a8c4"/><polyline points="74.33 59.5 74.33 63.74 70.09 63.74" style="fill:#fff"/><path d="M74.33,64.74H70.09a1,1,0,0,1,0-2h3.23V59.5a1,1,0,0,1,2,0v4.23A1,1,0,0,1,74.33,64.74Z" style="fill:#34a8c4"/><polyline points="70.09 18.16 74.33 18.16 74.33 22.39" style="fill:#fff"/><path d="M74.33,23.39a1,1,0,0,1-1-1V19.16H70.09a1,1,0,0,1,0-2h4.23a1,1,0,0,1,1,1v4.23A1,1,0,0,1,74.33,23.39Z" style="fill:#34a8c4"/><path d="M41.52,35.69V21.41a2.82,2.82,0,0,1,2.81-2.81h0a2.82,2.82,0,0,1,2.81,2.81V35.69" style="fill:#fff"/><path d="M47.14,36.69a1,1,0,0,1-1-1V21.41a1.81,1.81,0,1,0-3.62,0V35.69a1,1,0,0,1-2,0V21.41a3.81,3.81,0,1,1,7.62,0V35.69A1,1,0,0,1,47.14,36.69Z" style="fill:#34a8c4"/><path d="M52.77,36V20.9a2.82,2.82,0,0,1,2.81-2.81h0a2.82,2.82,0,0,1,2.81,2.81V35.18" style="fill:#fff"/><path d="M52.76,37a1,1,0,0,1-1-1V20.9a3.81,3.81,0,0,1,7.62,0V35.18a1,1,0,0,1-2,0V20.9a1.81,1.81,0,0,0-3.62,0V36A1,1,0,0,1,52.76,37Z" style="fill:#34a8c4"/><path d="M58.39,37.19V24.53A2.62,2.62,0,0,1,61,21.91h0a2.62,2.62,0,0,1,2.61,2.61V52.17c0,5.22-1.24,8.77-5.22,8.77v5.39" style="fill:#fff"/><path d="M58.39,67.34a1,1,0,0,1-1-1V60.94a1,1,0,0,1,1-1c2,0,4.22-.88,4.22-7.77V24.53a1.61,1.61,0,1,0-3.22,0V37.19a1,1,0,0,1-2,0V24.53a3.61,3.61,0,1,1,7.22,0V52.17c0,2.28,0,9-5.22,9.7v4.46A1,1,0,0,1,58.39,67.34Z" style="fill:#34a8c4"/><path d="M47.14,32.65V18.37A2.82,2.82,0,0,1,50,15.56h0a2.82,2.82,0,0,1,2.81,2.81V32.65" style="fill:#fff"/><path d="M52.76,33.65a1,1,0,0,1-1-1V18.37a1.81,1.81,0,1,0-3.62,0V32.65a1,1,0,0,1-2,0V18.37a3.81,3.81,0,1,1,7.62,0V32.65A1,1,0,0,1,52.76,33.65Z" style="fill:#34a8c4"/><path d="M50,51.38c0-8.38-8.43-8.81-8.43-8.81v-9a2.82,2.82,0,0,0-2.81-2.81h0a2.82,2.82,0,0,0-2.81,2.81V52.25c0,5.08,5.87,8.69,8.43,8.69v4.91" style="fill:#fff"/><path d="M44.33,66.85a1,1,0,0,1-1-1v-4c-3.36-.69-8.43-4.52-8.43-9.58V33.56a3.81,3.81,0,0,1,7.62,0v8.1c3.36.52,8.43,3,8.43,9.71a1,1,0,0,1-2,0c0-7.31-7.18-7.8-7.48-7.81a1,1,0,0,1-.95-1v-9a1.81,1.81,0,0,0-3.62,0V52.25c0,4.36,5.28,7.69,7.43,7.69a1,1,0,0,1,1,1v4.91A1,1,0,0,1,44.33,66.85Z" style="fill:#34a8c4"/><path d="M48.94,60.93a27.28,27.28,0,0,1-4.83,0" style="fill:#fff"/><path d="M46.12,62A19.42,19.42,0,0,1,44,61.93a1,1,0,1,1,.21-2,20.27,20.27,0,0,0,3.67,0l1,0a1,1,0,0,1,.08,2l-1,0C47.35,62,46.76,62,46.12,62Z" style="fill:#34a8c4"/><path d="M58.58,34.79V50.24c0,7.48-5.62,5.09-5.62,11.08v5.39h5.62V60.54s5.22.33,5.22-7.31V25.58c0-2.3-.55-4.05-2.61-4.05s-2.61.87-2.61,4.63Z" style="fill:#30a3b3;opacity:0.2"/></svg>
