<svg id="Layer_1" data-name="Layer 1" xmlns="http://www.w3.org/2000/svg" viewBox="14 12 74 74"><title>Artboard 1</title><path d="M77.83,23,81.6,26.8l0,0L85,23.44a2.5,2.5,0,0,0,0-3.56l-5-5a2.53,2.53,0,0,0-3.57,0L52.12,39.19,49.88,50l10.79-2.24L77.83,30.57" style="fill:none;stroke:#56a5c0;stroke-linecap:round;stroke-linejoin:round;stroke-width:2.49113516425134px"/><line x1="60.51" y1="41.77" x2="73.05" y2="29.23" style="fill:none;stroke:#f7c542;stroke-linecap:round;stroke-linejoin:round;stroke-width:1.63368628273944px"/><line x1="57.78" y1="39.04" x2="70.32" y2="26.5" style="fill:none;stroke:#f7c542;stroke-linecap:round;stroke-linejoin:round;stroke-width:1.63368628273944px"/><path d="M53,79.46H29a8.22,8.22,0,0,1-8.2-8.2V47.18a8.17,8.17,0,0,1,.17-1.65,8.22,8.22,0,0,0-6.62,8v18.8A13.52,13.52,0,0,0,27.78,85.85h18.8a8.23,8.23,0,0,0,8-6.55A7.5,7.5,0,0,1,53,79.46Z" style="fill:#d7e8ed"/><path d="M61.23,55.11V71.26a8.22,8.22,0,0,1-8.2,8.2H29a8.22,8.22,0,0,1-8.2-8.2V47.18A8.22,8.22,0,0,1,29,39H44.89" style="fill:none;stroke:#56a5c0;stroke-linecap:round;stroke-linejoin:round;stroke-width:2.49113516425134px"/><path d="M31.93,59.16l2.2,3.35a.71.71,0,0,1-.59,1.09h0a.73.73,0,0,1-.6-.33l-1.73-2.75a.24.24,0,0,0-.41,0l-1.71,2.74a.7.7,0,0,1-.6.34h0a.7.7,0,0,1-.58-1.09l2.2-3.35a.24.24,0,0,0,0-.26c-.67-1-1.34-2.07-2-3.1a.71.71,0,0,1,.59-1.09h0a.7.7,0,0,1,.6.34l1.5,2.46a.24.24,0,0,0,.41,0l1.5-2.46a.71.71,0,0,1,.6-.34h0a.71.71,0,0,1,.59,1.09c-.68,1-1.35,2.06-2,3.1A.23.23,0,0,0,31.93,59.16Z" style="fill:#56a5c0;stroke:#56a5c0;stroke-miterlimit:10;stroke-width:0.343381176781723px"/><path d="M49.17,65.63l.7-2a.22.22,0,0,0,0-.16l-2.68-7.83a.7.7,0,0,1,.66-.93H48a.72.72,0,0,1,.67.49l1.78,5.63a.24.24,0,0,0,.46,0L52.7,55.2a.7.7,0,0,1,.67-.49h.11a.7.7,0,0,1,.67.93L50.54,66.09a.71.71,0,0,1-.66.48h-.05A.71.71,0,0,1,49.17,65.63Z" style="fill:#56a5c0;stroke:#56a5c0;stroke-miterlimit:10;stroke-width:0.343381176781723px"/><path d="M44.69,59.4h0a.64.64,0,0,0,0-.24.59.59,0,0,0,0-.23h0a.6.6,0,0,0-.14-.21l-2.81-2.82a.64.64,0,1,0-.91.91l1.57,1.57a.09.09,0,0,1-.06.15H37.29a.65.65,0,0,0,0,1.29h5.05a.09.09,0,0,1,.06.15l-1.57,1.57a.64.64,0,1,0,.91.91l2.81-2.82A.6.6,0,0,0,44.69,59.4Z" style="fill:#56a5c0;stroke:#56a5c0;stroke-miterlimit:10;stroke-width:0.343381176781723px"/></svg>
