<svg id="Layer_7" data-name="Layer 7" xmlns="http://www.w3.org/2000/svg" viewBox="0 0 61.21 47.66"><defs><style>.res-simplelogger-1{fill:#32a4b3;opacity:0.2;}.res-simplelogger-2,.res-simplelogger-3{fill:none;stroke-linecap:round;stroke-linejoin:round;}.res-simplelogger-2{stroke:#35a8c3;stroke-width:2px;}.res-simplelogger-3{stroke:#fec40d;stroke-width:2.5px;}</style></defs><title>Untitled-7</title><path class="res-simplelogger-1" d="M56.73,13.74H30A5.28,5.28,0,0,0,24.78,19h0A5.28,5.28,0,0,0,30,24.27H56.73V13.74Z" transform="translate(-8.89 -5.2)"/><path class="res-simplelogger-1" d="M54.58,37H25.39v9.89H54.58A4.95,4.95,0,1,0,54.58,37Z" transform="translate(-8.89 -5.2)"/><line class="res-simplelogger-2" x1="47.84" y1="19.06" x2="47.84" y2="5.77"/><line class="res-simplelogger-2" x1="13.19" y1="40.99" x2="13.19" y2="29.5"/><path class="res-simplelogger-2" d="M31.29,11H59.1V7.91a1.55,1.55,0,0,0-1.6-1.7H26.92c-6.79,0-12.32,5.18-12.32,11.41S20.13,29,26.92,29H57.5a1.78,1.78,0,0,0,1.6-2v-2.8H26.92C22.22,24.27,20,22,20,17.62S22.22,11,26.92,11" transform="translate(-8.89 -5.2)"/><path class="res-simplelogger-2" d="M52.29,47.09c4.7,0,7.83-2.31,7.83-6.65S57,33.8,52.29,33.8H19.72V30.74a1.9,1.9,0,0,1,2-1.7H52.29c6.79,0,12.32,5.18,12.32,11.41S59.08,51.86,52.29,51.86H21.71a2.12,2.12,0,0,1-2-2v-2.8H47.1" transform="translate(-8.89 -5.2)"/><line class="res-simplelogger-2" x1="13.19" y1="35.24" x2="41.78" y2="35.24"/><path class="res-simplelogger-3" d="M13.62,8.32a13.83,13.83,0,0,0,.53,18.9" transform="translate(-8.89 -5.2)"/><path class="res-simplelogger-3" d="M65.37,31.14A13.83,13.83,0,0,1,64.84,50" transform="translate(-8.89 -5.2)"/></svg>
