<svg id="basic" xmlns="http://www.w3.org/2000/svg" viewBox="0 0 50.45 53.52"><defs><style>.res-basic-1{fill:#32a4b3;opacity:.2}.res-basic-2{fill:#fec40d}.res-basic-3{fill:none;stroke:#35a8c3;stroke-linecap:round;stroke-linejoin:round;stroke-width:2px}</style></defs><title>Untitled-7</title><path class="res-basic-1" d="M35.85 47.28c2 4.28-4.47 10.41-16.9 7-6.53-1.8 1.13-5.18 4.73-5.63l1.13-3.15 8.33-.5 2.7 2.25M40 35.39a6.75 6.75 0 0 1 5.55 4.67 4.53 4.53 0 0 1 .11 2.4 4.63 4.63 0 0 1-2.49 2.82 13.72 13.72 0 0 1-3.71 1.07c-.35.52.27 1.15.84 1.4a11.66 11.66 0 0 0 4.5.76 7.65 7.65 0 0 0 2.83-.33 2.92 2.92 0 0 0 1.91-2c.18-.81-.12-1.68.11-2.48s1-1.47 1.08-2.33a4.27 4.27 0 0 0-1-2.41 6.74 6.74 0 0 1 .47-7.24c-.62-.64-1.57.24-2.3.76-1.23.89-2.89.69-4.4.87s-3.23 1.24-3 2.74" transform="translate(-16.4 -1.75)"/><path class="res-basic-2" d="M4.36 23.01h3.67v24.38H4.36z"/><path class="res-basic-3" d="M1.51 19.91h6.52v27.48H1.51M14.63 23.01H9.54"/><path class="res-basic-3" d="M51.84 47.77H38.57a4.64 4.64 0 0 1-4.68-4.6v-.86M31.81 26.4c0-5.35 2.78-7.95 5-9.16a9.2 9.2 0 0 0 4.44-5.37 32.1 32.1 0 0 0 1.23-9.12h1.44a5.21 5.21 0 0 1 5.25 5.17v10.53" transform="translate(-16.4 -1.75)"/><path class="res-basic-3" d="M35.9 16.94h9.35a2.45 2.45 0 0 1 2.45 2.45v2.53a2.45 2.45 0 0 1-2.45 2.45H35.9a3.16 3.16 0 0 1-3.16-3.16V20.1a3.16 3.16 0 0 1 3.16-3.16zM35.76 24.37H47a2.34 2.34 0 0 1 2.34 2.34v2.42A2.34 2.34 0 0 1 47 31.48H35.76a3 3 0 0 1-3-3V27.4a3 3 0 0 1 3-3zM36 31.48h11a2.45 2.45 0 0 1 2.45 2.45v2.53A2.45 2.45 0 0 1 47 38.91H36a3.16 3.16 0 0 1-3.16-3.16v-1.1A3.16 3.16 0 0 1 36 31.48zM35.85 38.91h9.5a2.34 2.34 0 0 1 2.34 2.34v2.42A2.34 2.34 0 0 1 45.35 46h-9.5a3 3 0 0 1-3-3v-1.06a3 3 0 0 1 3-3z"/><path class="res-basic-3" d="M41.28 34.55s6.47-.12 7.85-4" transform="translate(-16.4 -1.75)"/><path class="res-basic-3" d="M17.18 44H8.27"/></svg>