<svg id="Layer_1" data-name="Layer 1" xmlns="http://www.w3.org/2000/svg" viewBox="0 0 73 69"><defs><style>.reslbproxy1{fill:#34a8c4;opacity:0.2;}.reslbproxy2{fill:#f4c222;}.reslbproxy3{fill:none;stroke:#34a8c4;stroke-linecap:round;stroke-linejoin:round;stroke-width:2px;}</style></defs><title>Artboard 1 copy 2</title><rect class="reslbproxy1" x="7.89" y="55.6" width="13.11" height="10.37" rx="3.86" ry="3.86"/><rect class="reslbproxy2" x="31.14" y="27.45" width="13.99" height="11.24" rx="3.86" ry="3.86"/><path class="reslbproxy3" d="M11.5,52A33.34,33.34,0,0,0,27.21,40.77"/><path class="reslbproxy3" d="M61.71,52A33.34,33.34,0,0,1,46,40.77"/><path class="reslbproxy3" d="M15.65,39.76c-6.81,1.5-14-4.17-13.39-12.21C2.9,19,10.54,14.33,17.83,16.79c0-6.32,2.85-9.87,7.31-12.3,4.06-2.21,11.63-2.92,16.22.66,3.53,2.75,5.13,7.78,5.19,12,2.28-3.2,7-4.08,10.36-2.65s5.23,6.58,3.31,9.68a8.91,8.91,0,0,1,7.59,2.54,8.44,8.44,0,0,1,2.12,7.56,6.47,6.47,0,0,1-2.42,3.92,4.31,4.31,0,0,1-4.47.42"/><rect class="reslbproxy3" x="28.14" y="24.7" width="16.86" height="13.8" rx="3.86" ry="3.86"/><rect class="reslbproxy3" x="4.14" y="52.1" width="16.86" height="13.8" rx="3.86" ry="3.86"/><rect class="reslbproxy3" x="28.14" y="52.1" width="16.86" height="13.8" rx="3.86" ry="3.86"/><rect class="reslbproxy3" x="52.14" y="52.1" width="16.86" height="13.8" rx="3.86" ry="3.86"/><line class="reslbproxy3" x1="36.17" y1="41.67" x2="36.17" y2="50.33"/><rect class="reslbproxy1" x="31.89" y="55.43" width="13.11" height="10.37" rx="3.86" ry="3.86"/><rect class="reslbproxy1" x="55.39" y="55.77" width="13.11" height="10.37" rx="3.86" ry="3.86"/></svg>
