<svg id="Layer_3" data-name="Layer 3" xmlns="http://www.w3.org/2000/svg" viewBox="0 0 290.69 250.2"><defs><style>.cls-1{fill:#d0d2d3}.cls-2{fill:#a6a8ab}.cls-3{fill:#808184}.cls-4{fill:#58595b}</style></defs><title>social-twitter</title><g id="_Group_" data-name="&lt;Group&gt;"><g id="_Group_2" data-name="&lt;Group&gt;"><path id="_Path_" data-name="&lt;Path&gt;" class="cls-1" d="M251.65 74.38A1.71 1.71 0 0 0 249 76v203l88.85 44.43c4.43 2.21 8 0 8-5V123.07a2.57 2.57 0 0 0-1.42-2.3z" transform="translate(-55.17 -74.09)"/><path id="_Path_2" data-name="&lt;Path&gt;" class="cls-2" d="M152.08 230.56L247.4 75.65a3.35 3.35 0 0 1 4.26-1.21l92.08 46a2.18 2.18 0 0 1 .88 3.1L249 279z" transform="translate(-55.17 -74.09)"/><path id="_Path_3" data-name="&lt;Path&gt;" class="cls-3" d="M65.91 78.47c-5.9-3-7.9-.77-4.44 4.85l90.61 147.25L249 279l-96.3-156.43A4.19 4.19 0 0 0 151 121z" transform="translate(-55.17 -74.09)"/><path id="_Path_4" data-name="&lt;Path&gt;" class="cls-4" d="M152.08 318.47c0 4.95-3.62 7.19-8 5L60.54 281.7a10.66 10.66 0 0 1-5.37-8.7V79.1c0-3.3 2.41-4.79 5.37-3.32L150.88 121a2.16 2.16 0 0 1 1.19 1.93v195.54z" transform="translate(-55.17 -74.09)"/></g></g></svg>