<svg id="Layer_4" data-name="Layer 4" xmlns="http://www.w3.org/2000/svg" viewBox="0 0 285.71 278.66"><defs><style>.githubsocial{fill:#fff;fill-rule:evenodd}</style></defs><title>social-github</title><path class="githubsocial" d="M146.6 8a142.87 142.87 0 0 0-45.15 278.41c7.14 1.31 9.75-3.1 9.75-6.89 0-3.39-.12-12.37-.19-24.3-39.74 8.63-48.12-19.15-48.12-19.15-6.5-16.5-15.86-20.9-15.86-20.9-13-8.86 1-8.68 1-8.68 14.34 1 21.88 14.72 21.88 14.72 12.74 21.83 33.43 15.53 41.57 11.87 1.3-9.23 5-15.53 9.07-19.1-31.72-3.61-65.07-15.86-65.07-70.6a55.22 55.22 0 0 1 14.7-38.33c-1.47-3.61-6.37-18.14 1.4-37.81 0 0 12-3.84 39.28 14.64a135.41 135.41 0 0 1 71.53 0c27.27-18.49 39.25-14.64 39.25-14.64 7.79 19.67 2.89 34.19 1.42 37.81a55.13 55.13 0 0 1 14.68 38.33c0 54.88-33.4 67-65.23 70.49 5.13 4.41 9.7 13.13 9.7 26.45 0 19.1-.18 34.51-.18 39.19 0 3.82 2.57 8.26 9.82 6.87A142.88 142.88 0 0 0 146.6 8z" transform="translate(-3.75 -8)"/></svg>