<svg id="fb" xmlns="http://www.w3.org/2000/svg" viewBox="0 0 266.89 266.89"><defs><style>.cls-1{fill:#fff}</style></defs><title>social-twitter</title><path id="White" class="cls-1" d="M319.72 66.55H82.28a14.73 14.73 0 0 0-14.73 14.73v237.44a14.73 14.73 0 0 0 14.73 14.73h127.83V230.09h-34.78v-40.28h34.78v-29.7c0-34.47 21.05-53.24 51.81-53.24a285.37 285.37 0 0 1 31.08 1.58v36h-21.33c-16.72 0-20 7.95-20 19.61v25.72h39.89l-5.19 40.28h-34.66v103.39h68a14.73 14.73 0 0 0 14.73-14.73V81.28a14.73 14.73 0 0 0-14.72-14.73z" transform="translate(-67.55 -66.55)"/></svg>