<svg id="Layer_1" data-name="Layer 1" xmlns="http://www.w3.org/2000/svg" viewBox="0 0 585.15 282.13"><defs><style>.videoplaceholder-1{isolation:isolate;}.videoplaceholder-2{fill:#0e8696;}.videoplaceholder-3{fill:#34a8c4;}</style></defs><title>Video_atrest</title><g class="videoplaceholder-1"><path class="videoplaceholder-2" d="M189.92,65h-2.4L187,62.5a8.91,8.91,0,0,1-3,2.37,8.49,8.49,0,0,1-3.45.66,10.1,10.1,0,0,1-4.3-.88A9.46,9.46,0,0,1,173,62.23a10.79,10.79,0,0,1-2-3.57,13.68,13.68,0,0,1,0-8.67,10.79,10.79,0,0,1,2-3.57A9.64,9.64,0,0,1,176.2,44a10,10,0,0,1,4.3-.9,11.67,11.67,0,0,1,3.32.46,8.86,8.86,0,0,1,2.8,1.38,7.65,7.65,0,0,1,2,2.29,8.05,8.05,0,0,1,1,3.18H186a4.6,4.6,0,0,0-1.89-3.18,5.45,5.45,0,0,0-1.68-.81,6.94,6.94,0,0,0-2-.27,6,6,0,0,0-3,.69,5.79,5.79,0,0,0-2,1.84,8.33,8.33,0,0,0-1.15,2.63,12.19,12.19,0,0,0,0,6,8.31,8.31,0,0,0,1.15,2.63,5.78,5.78,0,0,0,2,1.84,6,6,0,0,0,3,.69,7,7,0,0,0,2.55-.37,5.08,5.08,0,0,0,1.88-1.17,4.92,4.92,0,0,0,1.15-1.87,7.93,7.93,0,0,0,.42-2.46h-5.7V53.74h9.12V65Z" transform="translate(-29.15 -43.09)"/><path class="videoplaceholder-2" d="M195.29,58.15a5.94,5.94,0,0,0,.25,1.74,4.27,4.27,0,0,0,.77,1.47,3.68,3.68,0,0,0,1.29,1,4.24,4.24,0,0,0,1.86.38,4.11,4.11,0,0,0,2.42-.64,3.81,3.81,0,0,0,1.36-1.94h3.24A6.43,6.43,0,0,1,204,64.07a6.85,6.85,0,0,1-2.08,1,8.41,8.41,0,0,1-2.42.34,8.22,8.22,0,0,1-3.24-.6,6.69,6.69,0,0,1-2.38-1.68,7.11,7.11,0,0,1-1.47-2.58,10.47,10.47,0,0,1-.5-3.3,9.32,9.32,0,0,1,.53-3.13,8,8,0,0,1,1.5-2.61,7,7,0,0,1,5.47-2.44,7,7,0,0,1,3.29.76,7.2,7.2,0,0,1,2.42,2,8.2,8.2,0,0,1,1.4,2.89,8.89,8.89,0,0,1,.23,3.38h-11.4Zm8-2.25a5.53,5.53,0,0,0-.35-1.56,4.19,4.19,0,0,0-.78-1.31,3.87,3.87,0,0,0-1.2-.9,3.54,3.54,0,0,0-1.58-.35,4.11,4.11,0,0,0-1.63.32,3.74,3.74,0,0,0-1.26.87,4.31,4.31,0,0,0-.84,1.3,4.54,4.54,0,0,0-.34,1.62h8Z" transform="translate(-29.15 -43.09)"/><path class="videoplaceholder-2" d="M206.84,49.51h2.58V44.86h3.42v4.65h3.09v2.55h-3.09v8.28a8.2,8.2,0,0,0,0,.93,1.6,1.6,0,0,0,.21.66,1,1,0,0,0,.5.41,2.44,2.44,0,0,0,.9.13l0.72,0a3.59,3.59,0,0,0,.72-0.1V65l-1.11.12a10,10,0,0,1-1.11.06,7.57,7.57,0,0,1-2.17-.26,2.89,2.89,0,0,1-1.29-.75,2.57,2.57,0,0,1-.63-1.24,9.34,9.34,0,0,1-.2-1.71V52.06h-2.58V49.51Z" transform="translate(-29.15 -43.09)"/><path class="videoplaceholder-2" d="M227.51,60a2.58,2.58,0,0,0,1.14,2.1,4.48,4.48,0,0,0,2.37.6,9,9,0,0,0,1.09-.08,4.74,4.74,0,0,0,1.16-.28,2.17,2.17,0,0,0,.88-0.62,1.48,1.48,0,0,0,.31-1.07,1.51,1.51,0,0,0-.48-1.08,3.33,3.33,0,0,0-1.15-.67,11.22,11.22,0,0,0-1.6-.43l-1.83-.39a17,17,0,0,1-1.85-.51A5.93,5.93,0,0,1,226,56.8a3.74,3.74,0,0,1-1.12-1.31,4.16,4.16,0,0,1-.42-2,3.53,3.53,0,0,1,.61-2.12A4.73,4.73,0,0,1,226.59,50a6.8,6.8,0,0,1,2.1-.73,12.36,12.36,0,0,1,2.21-.21,10.1,10.1,0,0,1,2.29.25,6.24,6.24,0,0,1,2,.83,4.85,4.85,0,0,1,1.47,1.48,5.15,5.15,0,0,1,.73,2.21h-3.57a2.13,2.13,0,0,0-1.12-1.65,4.67,4.67,0,0,0-2-.42,7.26,7.26,0,0,0-.85.06,4,4,0,0,0-.93.22,2,2,0,0,0-.74.48,1.15,1.15,0,0,0-.3.83,1.3,1.3,0,0,0,.44,1,3.42,3.42,0,0,0,1.14.65,11.21,11.21,0,0,0,1.6.43l1.86,0.39q0.93,0.21,1.83.51a5.91,5.91,0,0,1,1.6.81,4,4,0,0,1,1.14,1.29,3.9,3.9,0,0,1,.43,1.92,4.17,4.17,0,0,1-.63,2.34,5,5,0,0,1-1.63,1.56,7.45,7.45,0,0,1-2.24.87,11.33,11.33,0,0,1-2.43.27,10.58,10.58,0,0,1-2.71-.33,6.31,6.31,0,0,1-2.16-1,4.85,4.85,0,0,1-1.44-1.68,5.34,5.34,0,0,1-.56-2.39h3.42Z" transform="translate(-29.15 -43.09)"/><path class="videoplaceholder-2" d="M238,49.51h2.58V44.86H244v4.65h3.09v2.55H244v8.28a8.2,8.2,0,0,0,0,.93,1.6,1.6,0,0,0,.21.66,1,1,0,0,0,.5.41,2.44,2.44,0,0,0,.9.13l0.72,0a3.59,3.59,0,0,0,.72-0.1V65l-1.11.12a10,10,0,0,1-1.11.06,7.57,7.57,0,0,1-2.17-.26,2.89,2.89,0,0,1-1.29-.75,2.57,2.57,0,0,1-.63-1.24,9.34,9.34,0,0,1-.2-1.71V52.06H238V49.51Z" transform="translate(-29.15 -43.09)"/><path class="videoplaceholder-2" d="M261.68,61.57a1.81,1.81,0,0,0,.17.9,0.7,0.7,0,0,0,.65.27h0.36a2.24,2.24,0,0,0,.48-0.06v2.37l-0.46.13-0.58.13q-0.3.06-.6,0.09l-0.51,0a3.29,3.29,0,0,1-1.74-.42,2.09,2.09,0,0,1-.9-1.47A6,6,0,0,1,256,65a9.87,9.87,0,0,1-2.86.45,7,7,0,0,1-2-.29,5.26,5.26,0,0,1-1.69-.84,4,4,0,0,1-1.17-1.41,4.34,4.34,0,0,1-.44-2,4.61,4.61,0,0,1,.52-2.34,3.89,3.89,0,0,1,1.38-1.41,6.21,6.21,0,0,1,1.92-.73q1.06-.23,2.15-0.35,0.93-.18,1.77-0.25a8.29,8.29,0,0,0,1.48-.25,2.28,2.28,0,0,0,1-.55,1.53,1.53,0,0,0,.38-1.12,1.75,1.75,0,0,0-.31-1.08,2.12,2.12,0,0,0-.78-0.65,3.41,3.41,0,0,0-1-.3,8.34,8.34,0,0,0-1.08-.08,4.29,4.29,0,0,0-2.37.6,2.34,2.34,0,0,0-1,1.86h-3.42a5.15,5.15,0,0,1,.72-2.49,5,5,0,0,1,1.6-1.59,6.58,6.58,0,0,1,2.21-.84,13.19,13.19,0,0,1,2.52-.24,10.67,10.67,0,0,1,2.25.24,6.44,6.44,0,0,1,2,.78,4.33,4.33,0,0,1,1.42,1.4,3.83,3.83,0,0,1,.54,2.08v8Zm-3.42-4.32a4.15,4.15,0,0,1-1.92.61q-1.14.11-2.28,0.32a7.33,7.33,0,0,0-1,.25,3.15,3.15,0,0,0-.9.45,2,2,0,0,0-.62.75,2.57,2.57,0,0,0-.23,1.13,1.43,1.43,0,0,0,.33,1,2.4,2.4,0,0,0,.79.62,3.69,3.69,0,0,0,1,.31,6.27,6.27,0,0,0,1,.09,5.59,5.59,0,0,0,1.23-.15,4.1,4.1,0,0,0,1.25-.51,3.26,3.26,0,0,0,1-.92,2.31,2.31,0,0,0,.39-1.36V57.25Z" transform="translate(-29.15 -43.09)"/><path class="videoplaceholder-2" d="M264.47,49.51h3.21v3h0.06a3.47,3.47,0,0,1,.58-1.23,5.72,5.72,0,0,1,1-1.09,5.31,5.31,0,0,1,1.37-.79,4.08,4.08,0,0,1,1.53-.3,7.62,7.62,0,0,1,.83,0l0.46,0.06v3.3l-0.73-.1a6.16,6.16,0,0,0-.74,0,3.94,3.94,0,0,0-1.63.35,3.73,3.73,0,0,0-1.33,1,5,5,0,0,0-.9,1.67,7.21,7.21,0,0,0-.33,2.28V65h-3.42V49.51Z" transform="translate(-29.15 -43.09)"/><path class="videoplaceholder-2" d="M272.57,49.51h2.58V44.86h3.42v4.65h3.09v2.55h-3.09v8.28a8.2,8.2,0,0,0,0,.93,1.6,1.6,0,0,0,.21.66,1,1,0,0,0,.5.41,2.44,2.44,0,0,0,.9.13l0.72,0a3.6,3.6,0,0,0,.72-0.1V65l-1.11.12a10,10,0,0,1-1.11.06,7.57,7.57,0,0,1-2.18-.26,2.9,2.9,0,0,1-1.29-.75,2.59,2.59,0,0,1-.63-1.24,9.39,9.39,0,0,1-.19-1.71V52.06h-2.58V49.51Z" transform="translate(-29.15 -43.09)"/><path class="videoplaceholder-2" d="M285.89,58.15a6,6,0,0,0,.25,1.74,4.28,4.28,0,0,0,.77,1.47,3.68,3.68,0,0,0,1.29,1,4.24,4.24,0,0,0,1.86.38,4.11,4.11,0,0,0,2.42-.64,3.81,3.81,0,0,0,1.37-1.94h3.24a6.43,6.43,0,0,1-2.52,3.92,6.85,6.85,0,0,1-2.08,1,8.4,8.4,0,0,1-2.42.34,8.22,8.22,0,0,1-3.24-.6,6.7,6.7,0,0,1-2.39-1.68A7.13,7.13,0,0,1,283,60.58a10.47,10.47,0,0,1-.5-3.3,9.32,9.32,0,0,1,.53-3.13,8,8,0,0,1,1.5-2.61A7,7,0,0,1,290,49.09a7,7,0,0,1,3.29.76,7.21,7.21,0,0,1,2.42,2,8.2,8.2,0,0,1,1.39,2.89,8.88,8.88,0,0,1,.23,3.38h-11.4Zm8-2.25a5.53,5.53,0,0,0-.34-1.56,4.18,4.18,0,0,0-.78-1.31,3.87,3.87,0,0,0-1.2-.9,3.54,3.54,0,0,0-1.58-.35,4.11,4.11,0,0,0-1.63.32,3.73,3.73,0,0,0-1.26.87,4.3,4.3,0,0,0-.84,1.3,4.54,4.54,0,0,0-.35,1.62h8Z" transform="translate(-29.15 -43.09)"/><path class="videoplaceholder-2" d="M313.61,65h-3.24v-2.1h-0.06a4.07,4.07,0,0,1-2,1.93,6.81,6.81,0,0,1-2.79.58,7.41,7.41,0,0,1-3.19-.64A6.39,6.39,0,0,1,300,63a7.5,7.5,0,0,1-1.35-2.62,11.38,11.38,0,0,1-.45-3.25,10.41,10.41,0,0,1,.57-3.63A7.27,7.27,0,0,1,300.33,51a5.86,5.86,0,0,1,2.16-1.46,6.88,6.88,0,0,1,2.47-.46,8.31,8.31,0,0,1,1.47.13,6.52,6.52,0,0,1,1.44.43,5.66,5.66,0,0,1,1.28.77,4.23,4.23,0,0,1,1,1.09h0.06V43.6h3.42V65Zm-11.94-7.59a7.57,7.57,0,0,0,.25,2,5.36,5.36,0,0,0,.78,1.71,3.94,3.94,0,0,0,1.33,1.2,3.88,3.88,0,0,0,1.92.45,3.84,3.84,0,0,0,2-.48A4.09,4.09,0,0,0,309.27,61a5.73,5.73,0,0,0,.78-1.76,7.89,7.89,0,0,0,.25-2,6.27,6.27,0,0,0-1.16-4A3.81,3.81,0,0,0,306,51.79a3.87,3.87,0,0,0-2,.5,4.17,4.17,0,0,0-1.35,1.29,5.34,5.34,0,0,0-.75,1.8A9.35,9.35,0,0,0,301.67,57.43Z" transform="translate(-29.15 -43.09)"/><path class="videoplaceholder-2" d="M324,43.6h3.42v3.24H324V43.6Zm0,5.91h3.42V65H324V49.51Z" transform="translate(-29.15 -43.09)"/><path class="videoplaceholder-2" d="M330.2,49.51h3.24v2.28l0.06,0.06a5.75,5.75,0,0,1,2-2,5.45,5.45,0,0,1,2.79-.73,5.8,5.8,0,0,1,4,1.32,5.06,5.06,0,0,1,1.47,4V65H340.4V55.27a4.21,4.21,0,0,0-.78-2.66,2.83,2.83,0,0,0-2.25-.83,3.71,3.71,0,0,0-1.56.32,3.37,3.37,0,0,0-1.17.87,4.09,4.09,0,0,0-.75,1.3,4.64,4.64,0,0,0-.27,1.59V65H330.2V49.51Z" transform="translate(-29.15 -43.09)"/><path class="videoplaceholder-2" d="M361.07,65.44a8.44,8.44,0,0,1-3.32-.62,7.06,7.06,0,0,1-2.46-1.69,7.25,7.25,0,0,1-1.53-2.58,10.53,10.53,0,0,1,0-6.57,7.24,7.24,0,0,1,1.53-2.58,7.08,7.08,0,0,1,2.46-1.7,9.25,9.25,0,0,1,6.63,0,7.07,7.07,0,0,1,2.46,1.7A7.24,7.24,0,0,1,368.37,54a10.53,10.53,0,0,1,0,6.57,7.25,7.25,0,0,1-1.53,2.58,7.05,7.05,0,0,1-2.46,1.69A8.44,8.44,0,0,1,361.07,65.44Zm0-2.7a3.92,3.92,0,0,0,2-.48A4.18,4.18,0,0,0,364.43,61a5.52,5.52,0,0,0,.8-1.76,7.87,7.87,0,0,0,0-4,5.32,5.32,0,0,0-.8-1.75A4.24,4.24,0,0,0,363,52.27a4.32,4.32,0,0,0-4,0,4.25,4.25,0,0,0-1.38,1.25,5.31,5.31,0,0,0-.79,1.75,7.87,7.87,0,0,0,0,4,5.52,5.52,0,0,0,.79,1.76,4.19,4.19,0,0,0,1.38,1.26A3.92,3.92,0,0,0,361.07,62.74Z" transform="translate(-29.15 -43.09)"/><path class="videoplaceholder-2" d="M370.85,49.51h3.24v2.28l0.06,0.06a5.75,5.75,0,0,1,2-2,5.45,5.45,0,0,1,2.79-.73,5.8,5.8,0,0,1,4,1.32,5.06,5.06,0,0,1,1.47,4V65H381V55.27a4.21,4.21,0,0,0-.78-2.66,2.83,2.83,0,0,0-2.25-.83,3.71,3.71,0,0,0-1.56.32,3.37,3.37,0,0,0-1.17.87,4.09,4.09,0,0,0-.75,1.3,4.64,4.64,0,0,0-.27,1.59V65h-3.42V49.51Z" transform="translate(-29.15 -43.09)"/><path class="videoplaceholder-2" d="M389.84,58.15a6,6,0,0,0,.25,1.74,4.28,4.28,0,0,0,.77,1.47,3.68,3.68,0,0,0,1.29,1,4.24,4.24,0,0,0,1.86.38,4.11,4.11,0,0,0,2.42-.64,3.81,3.81,0,0,0,1.37-1.94H401a6.43,6.43,0,0,1-2.52,3.92,6.85,6.85,0,0,1-2.08,1,8.4,8.4,0,0,1-2.42.34,8.22,8.22,0,0,1-3.24-.6,6.7,6.7,0,0,1-2.39-1.68,7.13,7.13,0,0,1-1.47-2.58,10.47,10.47,0,0,1-.5-3.3,9.32,9.32,0,0,1,.53-3.13,8,8,0,0,1,1.5-2.61,7,7,0,0,1,5.47-2.44,7,7,0,0,1,3.29.76,7.21,7.21,0,0,1,2.42,2A8.2,8.2,0,0,1,401,54.77a8.88,8.88,0,0,1,.23,3.38h-11.4Zm8-2.25a5.53,5.53,0,0,0-.34-1.56,4.18,4.18,0,0,0-.78-1.31,3.87,3.87,0,0,0-1.2-.9,3.54,3.54,0,0,0-1.58-.35,4.11,4.11,0,0,0-1.63.32A3.73,3.73,0,0,0,391,53a4.3,4.3,0,0,0-.84,1.3,4.54,4.54,0,0,0-.35,1.62h8Z" transform="translate(-29.15 -43.09)"/><path class="videoplaceholder-2" d="M410.39,49.51h3.24v2.16h0.09a8.82,8.82,0,0,1,.84-1.05,4.61,4.61,0,0,1,1-.81,5.12,5.12,0,0,1,1.28-.53,6.34,6.34,0,0,1,1.65-.19,5.62,5.62,0,0,1,2.63.63,3.56,3.56,0,0,1,1.72,2,6.92,6.92,0,0,1,2-1.89,5.42,5.42,0,0,1,2.85-.69,5.61,5.61,0,0,1,3.82,1.2q1.37,1.2,1.37,4V65h-3.42V56q0-.93-0.06-1.7a3.48,3.48,0,0,0-.35-1.32,2,2,0,0,0-.85-0.85,3.38,3.38,0,0,0-1.56-.3,2.9,2.9,0,0,0-2.52,1.08,5.16,5.16,0,0,0-.78,3.06V65h-3.42v-10a4.23,4.23,0,0,0-.58-2.45,2.46,2.46,0,0,0-2.14-.83,3.19,3.19,0,0,0-2.36,1.05,3.9,3.9,0,0,0-.75,1.26,4.78,4.78,0,0,0-.29,1.71V65h-3.42V49.51Z" transform="translate(-29.15 -43.09)"/><path class="videoplaceholder-2" d="M435.68,43.6h3.42v3.24h-3.42V43.6Zm0,5.91h3.42V65h-3.42V49.51Z" transform="translate(-29.15 -43.09)"/><path class="videoplaceholder-2" d="M441.92,49.51h3.24v2.28l0.06,0.06a5.75,5.75,0,0,1,2-2,5.45,5.45,0,0,1,2.79-.73,5.8,5.8,0,0,1,4,1.32,5.06,5.06,0,0,1,1.47,4V65h-3.42V55.27a4.21,4.21,0,0,0-.78-2.66,2.83,2.83,0,0,0-2.25-.83,3.71,3.71,0,0,0-1.56.32,3.37,3.37,0,0,0-1.17.87,4.09,4.09,0,0,0-.75,1.3,4.64,4.64,0,0,0-.27,1.59V65h-3.42V49.51Z" transform="translate(-29.15 -43.09)"/><path class="videoplaceholder-2" d="M471.86,65H468.5V62.86h-0.06a4.69,4.69,0,0,1-1.87,1.88,5.1,5.1,0,0,1-2.54.71q-3.06,0-4.42-1.51a6.65,6.65,0,0,1-1.37-4.58V49.51h3.42V59a4.2,4.2,0,0,0,.78,2.88,2.84,2.84,0,0,0,2.19.84,4.31,4.31,0,0,0,1.8-.33,3.18,3.18,0,0,0,1.17-.88,3.39,3.39,0,0,0,.64-1.33,6.91,6.91,0,0,0,.2-1.68v-9h3.42V65Z" transform="translate(-29.15 -43.09)"/><path class="videoplaceholder-2" d="M473,49.51h2.58V44.86H479v4.65h3.09v2.55H479v8.28a8.2,8.2,0,0,0,0,.93,1.6,1.6,0,0,0,.21.66,1,1,0,0,0,.5.41,2.44,2.44,0,0,0,.9.13l0.72,0a3.6,3.6,0,0,0,.72-0.1V65l-1.11.12a10,10,0,0,1-1.11.06,7.57,7.57,0,0,1-2.18-.26,2.9,2.9,0,0,1-1.29-.75,2.59,2.59,0,0,1-.63-1.24,9.39,9.39,0,0,1-.19-1.71V52.06H473V49.51Z" transform="translate(-29.15 -43.09)"/><path class="videoplaceholder-2" d="M486.32,58.15a6,6,0,0,0,.25,1.74,4.28,4.28,0,0,0,.77,1.47,3.68,3.68,0,0,0,1.29,1,4.24,4.24,0,0,0,1.86.38,4.11,4.11,0,0,0,2.42-.64,3.81,3.81,0,0,0,1.37-1.94h3.24A6.43,6.43,0,0,1,495,64.07a6.85,6.85,0,0,1-2.08,1,8.4,8.4,0,0,1-2.42.34,8.22,8.22,0,0,1-3.24-.6,6.7,6.7,0,0,1-2.39-1.68,7.13,7.13,0,0,1-1.47-2.58,10.47,10.47,0,0,1-.5-3.3,9.32,9.32,0,0,1,.53-3.13,8,8,0,0,1,1.5-2.61,7,7,0,0,1,5.47-2.44,7,7,0,0,1,3.29.76,7.21,7.21,0,0,1,2.42,2,8.2,8.2,0,0,1,1.39,2.89,8.88,8.88,0,0,1,.23,3.38h-11.4Zm8-2.25a5.53,5.53,0,0,0-.34-1.56,4.18,4.18,0,0,0-.78-1.31,3.87,3.87,0,0,0-1.2-.9,3.54,3.54,0,0,0-1.58-.35,4.11,4.11,0,0,0-1.63.32,3.73,3.73,0,0,0-1.26.87,4.3,4.3,0,0,0-.84,1.3,4.54,4.54,0,0,0-.35,1.62h8Z" transform="translate(-29.15 -43.09)"/></g><g class="videoplaceholder-1"><path class="videoplaceholder-2" d="M211,311.08a7.92,7.92,0,0,0,1.68-.12,4.65,4.65,0,0,0,1.5-.53,2.93,2.93,0,0,0,1.06-1,3,3,0,0,0,.41-1.62,2.74,2.74,0,0,0-.92-2.16,3.42,3.42,0,0,0-2.35-.81,3.1,3.1,0,0,0-2.66,1.33,4.37,4.37,0,0,0-.65,1.38,5.17,5.17,0,0,0-.18,1.58h-3.42a8.66,8.66,0,0,1,.57-2.83,7.13,7.13,0,0,1,1.4-2.26,6.2,6.2,0,0,1,2.15-1.5,7.16,7.16,0,0,1,2.85-.54,8.26,8.26,0,0,1,2.42.36,7.05,7.05,0,0,1,2.13,1,5,5,0,0,1,2.08,4.2,5.24,5.24,0,0,1-.72,2.77,4.12,4.12,0,0,1-2.25,1.73v0.06a4.34,4.34,0,0,1,2.81,1.79,6.4,6.4,0,0,1,.4,6.15,6.1,6.1,0,0,1-1.62,2,7.5,7.5,0,0,1-2.37,1.27,9,9,0,0,1-2.85.45,8.86,8.86,0,0,1-3.19-.53,6.12,6.12,0,0,1-2.28-1.48,6.4,6.4,0,0,1-1.4-2.31,9.4,9.4,0,0,1-.51-3h3.42a4.74,4.74,0,0,0,.94,3.2,3.6,3.6,0,0,0,3,1.28,4.29,4.29,0,0,0,2.86-1,3.43,3.43,0,0,0,1.16-2.77,3.47,3.47,0,0,0-.48-2,3.1,3.1,0,0,0-1.26-1.09,5.11,5.11,0,0,0-1.75-.47,16.62,16.62,0,0,0-2-.06v-2.55Z" transform="translate(-29.15 -43.09)"/></g><g class="videoplaceholder-1"><g class="videoplaceholder-1"><path class="videoplaceholder-3" d="M239.45,315.32a3.57,3.57,0,0,0,.31,1.56,2.82,2.82,0,0,0,.87,1.06,3.69,3.69,0,0,0,1.28.6,6.2,6.2,0,0,0,1.58.19,5.06,5.06,0,0,0,1.56-.21,3.18,3.18,0,0,0,1-.55,2,2,0,0,0,.58-0.77,2.32,2.32,0,0,0,.18-0.88,1.91,1.91,0,0,0-.41-1.35,2.37,2.37,0,0,0-.9-0.61,18.67,18.67,0,0,0-2-.59l-2.78-.73a6,6,0,0,1-1.71-.7,4.08,4.08,0,0,1-1.08-1,3.42,3.42,0,0,1-.57-1.14,4.58,4.58,0,0,1-.17-1.23,4.15,4.15,0,0,1,.5-2.09,4.47,4.47,0,0,1,1.33-1.46,5.86,5.86,0,0,1,1.88-.86,8.25,8.25,0,0,1,2.12-.28,8.35,8.35,0,0,1,2.36.32,5.82,5.82,0,0,1,1.94,1,4.77,4.77,0,0,1,1.33,1.6,4.72,4.72,0,0,1,.49,2.2h-2.79a2.69,2.69,0,0,0-1.05-2.18,4.17,4.17,0,0,0-2.39-.64,5.2,5.2,0,0,0-1,.1,3.18,3.18,0,0,0-.94.33,2.05,2.05,0,0,0-.7.64,1.95,1.95,0,0,0,.25,2.33,3.4,3.4,0,0,0,1.37.73l0.7,0.19,1.37,0.37,1.49,0.39,1,0.28a4.69,4.69,0,0,1,1.36.67,4.3,4.3,0,0,1,1,1,4,4,0,0,1,.58,1.17,4.29,4.29,0,0,1,.19,1.25,4.51,4.51,0,0,1-.55,2.29,4.64,4.64,0,0,1-1.44,1.55,6.27,6.27,0,0,1-2,.88,9.76,9.76,0,0,1-2.32.28,9.55,9.55,0,0,1-2.57-.33,6,6,0,0,1-2.1-1,5,5,0,0,1-1.43-1.78,5.91,5.91,0,0,1-.56-2.56h2.79Z" transform="translate(-29.15 -43.09)"/><path class="videoplaceholder-3" d="M253.05,315.52a4.42,4.42,0,0,0,.19,1.3,3.19,3.19,0,0,0,.57,1.09,2.74,2.74,0,0,0,1,.75,3.17,3.17,0,0,0,1.39.28,3.06,3.06,0,0,0,1.8-.48,2.84,2.84,0,0,0,1-1.44h2.41a4.79,4.79,0,0,1-1.88,2.92,5.09,5.09,0,0,1-1.55.76,6.26,6.26,0,0,1-1.8.26,6.12,6.12,0,0,1-2.41-.45,5,5,0,0,1-1.78-1.25,5.31,5.31,0,0,1-1.09-1.92,7.8,7.8,0,0,1-.37-2.46,7,7,0,0,1,.39-2.33A6,6,0,0,1,252,310.6a5.24,5.24,0,0,1,4.08-1.82,5.18,5.18,0,0,1,2.45.57,5.38,5.38,0,0,1,1.8,1.51,6.12,6.12,0,0,1,1,2.16,6.61,6.61,0,0,1,.17,2.51h-8.49Zm5.94-1.67a4.1,4.1,0,0,0-.26-1.16,3.1,3.1,0,0,0-.58-1,2.88,2.88,0,0,0-.89-0.67,2.64,2.64,0,0,0-1.17-.26,3.06,3.06,0,0,0-1.22.23,2.78,2.78,0,0,0-.94.65,3.22,3.22,0,0,0-.63,1,3.39,3.39,0,0,0-.26,1.21H259Z" transform="translate(-29.15 -43.09)"/><path class="videoplaceholder-3" d="M270.61,313a2.39,2.39,0,0,0-.86-1.62,2.81,2.81,0,0,0-1.78-.55,3.67,3.67,0,0,0-1,.17,2.49,2.49,0,0,0-1,.63,3.49,3.49,0,0,0-.78,1.27,6.05,6.05,0,0,0-.31,2.13,6.23,6.23,0,0,0,.17,1.43,3.9,3.9,0,0,0,.54,1.27,2.89,2.89,0,0,0,.95.91,2.7,2.7,0,0,0,1.41.35,2.56,2.56,0,0,0,1.84-.69,3.22,3.22,0,0,0,.9-1.94h2.55a5.59,5.59,0,0,1-1.71,3.45,5.21,5.21,0,0,1-3.59,1.2,5.9,5.9,0,0,1-2.4-.46,5.07,5.07,0,0,1-1.75-1.25,5.31,5.31,0,0,1-1.08-1.89,7.38,7.38,0,0,1-.37-2.37,8.09,8.09,0,0,1,.36-2.43,5.58,5.58,0,0,1,1.07-2,5,5,0,0,1,1.78-1.32,6,6,0,0,1,2.49-.48,7,7,0,0,1,1.91.26,5,5,0,0,1,1.61.77,4.1,4.1,0,0,1,1.15,1.3,4.44,4.44,0,0,1,.54,1.85h-2.55Z" transform="translate(-29.15 -43.09)"/><path class="videoplaceholder-3" d="M284.71,320.64h-2.5V319h0a3.5,3.5,0,0,1-1.4,1.4,3.79,3.79,0,0,1-1.89.52,4.24,4.24,0,0,1-3.29-1.13,5,5,0,0,1-1-3.41v-7.33h2.55v7.08a3.13,3.13,0,0,0,.58,2.14,2.11,2.11,0,0,0,1.63.63,3.22,3.22,0,0,0,1.34-.25,2.38,2.38,0,0,0,.87-0.66,2.53,2.53,0,0,0,.48-1,5.15,5.15,0,0,0,.15-1.25v-6.7h2.55v11.55Z" transform="translate(-29.15 -43.09)"/></g><g class="videoplaceholder-1"><path class="videoplaceholder-3" d="M287.17,309.09h2.39v2.23h0a2.57,2.57,0,0,1,.44-0.92,4.22,4.22,0,0,1,.78-0.82,3.92,3.92,0,0,1,1-.59,3,3,0,0,1,1.14-.22,5.58,5.58,0,0,1,.61,0l0.35,0v2.46l-0.55-.08a4.58,4.58,0,0,0-.55,0,2.93,2.93,0,0,0-1.22.26,2.8,2.8,0,0,0-1,.76,3.72,3.72,0,0,0-.67,1.24,5.36,5.36,0,0,0-.25,1.7v5.5h-2.55V309.09Z" transform="translate(-29.15 -43.09)"/></g><g class="videoplaceholder-1"><path class="videoplaceholder-3" d="M296.07,315.52a4.42,4.42,0,0,0,.19,1.3,3.18,3.18,0,0,0,.57,1.09,2.74,2.74,0,0,0,1,.75,3.16,3.16,0,0,0,1.38.28,3.06,3.06,0,0,0,1.8-.48,2.84,2.84,0,0,0,1-1.44h2.41a4.79,4.79,0,0,1-1.88,2.92,5.09,5.09,0,0,1-1.55.76,6.27,6.27,0,0,1-1.8.26,6.12,6.12,0,0,1-2.41-.45,5,5,0,0,1-1.78-1.25,5.31,5.31,0,0,1-1.09-1.92,7.79,7.79,0,0,1-.37-2.46,7,7,0,0,1,.39-2.33A6,6,0,0,1,295,310.6a5.24,5.24,0,0,1,4.08-1.82,5.17,5.17,0,0,1,2.45.57,5.37,5.37,0,0,1,1.8,1.51,6.13,6.13,0,0,1,1,2.16,6.6,6.6,0,0,1,.17,2.51h-8.49Zm5.94-1.67a4.09,4.09,0,0,0-.26-1.16,3.11,3.11,0,0,0-.58-1,2.87,2.87,0,0,0-.89-0.67,2.63,2.63,0,0,0-1.17-.26,3.06,3.06,0,0,0-1.22.23,2.78,2.78,0,0,0-.94.65,3.23,3.23,0,0,0-.63,1,3.39,3.39,0,0,0-.26,1.21H302Z" transform="translate(-29.15 -43.09)"/><path class="videoplaceholder-3" d="M316,304.69h3l6.14,16h-3l-1.5-4.22h-6.37l-1.5,4.22h-2.88Zm-1,9.61h4.87l-2.39-6.86h-0.07Z" transform="translate(-29.15 -43.09)"/><path class="videoplaceholder-3" d="M326,304.69h7a6.68,6.68,0,0,1,2.77.49,4.37,4.37,0,0,1,1.65,1.23,4.18,4.18,0,0,1,.79,1.61,6.83,6.83,0,0,1,.21,1.61,6.69,6.69,0,0,1-.21,1.6,4.19,4.19,0,0,1-.79,1.6,4.28,4.28,0,0,1-1.65,1.22,6.83,6.83,0,0,1-2.77.48h-4.24v6.12H326v-16Zm2.79,7.55h4.09a3.63,3.63,0,0,0,1-.13,2.74,2.74,0,0,0,.9-0.44,2.24,2.24,0,0,0,.67-0.8,2.77,2.77,0,0,0,.26-1.26,3.28,3.28,0,0,0-.22-1.3,2.08,2.08,0,0,0-.6-0.82,2.15,2.15,0,0,0-.87-0.41,4.75,4.75,0,0,0-1-.11h-4.13v5.27Z" transform="translate(-29.15 -43.09)"/><path class="videoplaceholder-3" d="M340.19,304.69H343v16h-2.79v-16Z" transform="translate(-29.15 -43.09)"/><path class="videoplaceholder-3" d="M349.86,309.09h2.7l2.26,8.62h0l2.17-8.62h2.57l2.08,8.62h0l2.35-8.62h2.59L363,320.64h-2.61l-2.14-8.58h0l-2.12,8.58h-2.68Z" transform="translate(-29.15 -43.09)"/><path class="videoplaceholder-3" d="M367.69,304.69h2.55v2.41h-2.55v-2.41Zm0,4.4h2.55v11.55h-2.55V309.09Z" transform="translate(-29.15 -43.09)"/><path class="videoplaceholder-3" d="M371.17,309.09h1.92v-3.46h2.55v3.46h2.3V311h-2.3v6.17a6.09,6.09,0,0,0,0,.69,1.2,1.2,0,0,0,.16.49,0.75,0.75,0,0,0,.37.3,1.83,1.83,0,0,0,.67.1h0.54a2.6,2.6,0,0,0,.54-0.08v2l-0.83.09a7.6,7.6,0,0,1-.83,0,5.67,5.67,0,0,1-1.62-.19,2.15,2.15,0,0,1-1-.56,1.93,1.93,0,0,1-.47-0.93,7,7,0,0,1-.14-1.27V311h-1.92v-1.9Z" transform="translate(-29.15 -43.09)"/><path class="videoplaceholder-3" d="M379.11,304.69h2.55v5.92h0a3.71,3.71,0,0,1,1.4-1.31,4.12,4.12,0,0,1,2.07-.52,4.32,4.32,0,0,1,3,1,3.77,3.77,0,0,1,1.09,2.95v7.93H386.7v-7.26a3.14,3.14,0,0,0-.58-2,2.11,2.11,0,0,0-1.67-.61,2.77,2.77,0,0,0-1.16.23,2.52,2.52,0,0,0-.87.65,3.05,3.05,0,0,0-.56,1,3.48,3.48,0,0,0-.2,1.18v6.81h-2.55v-16Z" transform="translate(-29.15 -43.09)"/><path class="videoplaceholder-3" d="M396.87,304.69h2.55v9.07l4.6-4.67h3.13l-4.42,4.24,4.85,7.31h-3.11L400.93,315l-1.52,1.47v4.13h-2.55v-16Z" transform="translate(-29.15 -43.09)"/><path class="videoplaceholder-3" d="M410.11,315.52a4.42,4.42,0,0,0,.19,1.3,3.18,3.18,0,0,0,.57,1.09,2.74,2.74,0,0,0,1,.75,3.16,3.16,0,0,0,1.38.28,3.06,3.06,0,0,0,1.8-.48,2.84,2.84,0,0,0,1-1.44h2.41a4.79,4.79,0,0,1-1.88,2.92,5.09,5.09,0,0,1-1.55.76,6.26,6.26,0,0,1-1.8.26,6.11,6.11,0,0,1-2.41-.45,5,5,0,0,1-1.78-1.25,5.31,5.31,0,0,1-1.09-1.92,7.79,7.79,0,0,1-.37-2.46,7,7,0,0,1,.39-2.33,6,6,0,0,1,1.12-1.94,5.24,5.24,0,0,1,4.08-1.82,5.18,5.18,0,0,1,2.45.57,5.38,5.38,0,0,1,1.8,1.51,6.11,6.11,0,0,1,1,2.16,6.6,6.6,0,0,1,.17,2.51h-8.49Zm5.94-1.67a4.15,4.15,0,0,0-.26-1.16,3.13,3.13,0,0,0-.58-1,2.88,2.88,0,0,0-.89-0.67,2.64,2.64,0,0,0-1.17-.26,3.06,3.06,0,0,0-1.22.23,2.78,2.78,0,0,0-.94.65,3.21,3.21,0,0,0-.62,1,3.37,3.37,0,0,0-.26,1.21h5.94Z" transform="translate(-29.15 -43.09)"/><path class="videoplaceholder-3" d="M418.6,309.09h2.79l3,8.62h0l2.93-8.62H430l-4.49,12.18q-0.31.78-.61,1.5a5.38,5.38,0,0,1-.74,1.26,3.19,3.19,0,0,1-1.08.87,3.7,3.7,0,0,1-1.65.32,11.52,11.52,0,0,1-1.76-.13v-2.14l0.6,0.1a3.2,3.2,0,0,0,.6.06,2.09,2.09,0,0,0,.74-0.11,1.22,1.22,0,0,0,.48-0.32,2,2,0,0,0,.32-0.5,5,5,0,0,0,.25-0.67l0.29-.89Z" transform="translate(-29.15 -43.09)"/></g></g><g class="videoplaceholder-1"><path class="videoplaceholder-2" d="M430,225H415.62a8.55,8.55,0,0,1,1.26-4.56,11.52,11.52,0,0,1,3.36-3.39q1-.75,2.13-1.46a16.9,16.9,0,0,0,2-1.51,8.11,8.11,0,0,0,1.53-1.75,4.17,4.17,0,0,0,.63-2.17,5.9,5.9,0,0,0-.14-1.22,3.21,3.21,0,0,0-.52-1.2,3.11,3.11,0,0,0-1.08-.93,3.76,3.76,0,0,0-1.8-.37,3.25,3.25,0,0,0-1.7.41,3,3,0,0,0-1.08,1.11,5.54,5.54,0,0,0-.6,1.67,11.9,11.9,0,0,0-.23,2.07H416a10.76,10.76,0,0,1,.46-3.22,7.17,7.17,0,0,1,1.4-2.57,6.58,6.58,0,0,1,2.26-1.69,8.32,8.32,0,0,1,6.32,0,6.18,6.18,0,0,1,2.08,1.59,5.84,5.84,0,0,1,1.13,2.08A7.64,7.64,0,0,1,430,210a6.34,6.34,0,0,1-.39,2.28,7.33,7.33,0,0,1-1,1.88,10.62,10.62,0,0,1-1.5,1.58q-0.84.72-1.74,1.35t-1.8,1.2q-0.9.57-1.67,1.14a9.83,9.83,0,0,0-1.33,1.18,3.38,3.38,0,0,0-.78,1.31H430V225Z" transform="translate(-29.15 -43.09)"/></g><g class="videoplaceholder-1"><path class="videoplaceholder-3" d="M446.89,206.31h11.48v2.41h-8.69v4.18h8v2.28h-8v4.67h8.85v2.41H446.89v-16Z" transform="translate(-29.15 -43.09)"/><path class="videoplaceholder-3" d="M463,216.18l-4-5.47h3.08l2.41,3.55,2.52-3.55H470L466.08,216l4.42,6.21h-3.06L464.51,218l-2.84,4.27h-3Z" transform="translate(-29.15 -43.09)"/><path class="videoplaceholder-3" d="M471.33,210.71h2.41v1.56h0a3.15,3.15,0,0,1,1.5-1.44,5,5,0,0,1,2.08-.44,5.51,5.51,0,0,1,2.38.48,4.68,4.68,0,0,1,1.69,1.32,5.73,5.73,0,0,1,1,2,8.27,8.27,0,0,1,.33,2.39,8.45,8.45,0,0,1-.3,2.26,5.86,5.86,0,0,1-.92,1.93,4.46,4.46,0,0,1-3.76,1.84,6.25,6.25,0,0,1-1.12-.1,4.79,4.79,0,0,1-1.07-.32,4.21,4.21,0,0,1-.95-0.57,3.13,3.13,0,0,1-.73-0.82h0v5.76h-2.55V210.71Zm8.89,5.79A5.72,5.72,0,0,0,480,215a4.13,4.13,0,0,0-.6-1.31,3.12,3.12,0,0,0-1-.92,2.73,2.73,0,0,0-1.38-.35,2.81,2.81,0,0,0-2.42,1.12,4.93,4.93,0,0,0-.82,3,5.9,5.9,0,0,0,.21,1.62,3.64,3.64,0,0,0,.64,1.29,3.18,3.18,0,0,0,1,.85,2.89,2.89,0,0,0,1.37.31,2.84,2.84,0,0,0,1.47-.36,3.11,3.11,0,0,0,1-.93,3.79,3.79,0,0,0,.56-1.3A6.6,6.6,0,0,0,480.22,216.5Z" transform="translate(-29.15 -43.09)"/><path class="videoplaceholder-3" d="M489.53,222.57a6.28,6.28,0,0,1-2.47-.46,5.25,5.25,0,0,1-1.83-1.26,5.38,5.38,0,0,1-1.14-1.92,7.83,7.83,0,0,1,0-4.89,5.38,5.38,0,0,1,1.14-1.92,5.25,5.25,0,0,1,1.83-1.26,6.88,6.88,0,0,1,4.94,0,5.27,5.27,0,0,1,1.83,1.26A5.41,5.41,0,0,1,495,214a7.83,7.83,0,0,1,0,4.89,5.41,5.41,0,0,1-1.14,1.92,5.27,5.27,0,0,1-1.83,1.26A6.29,6.29,0,0,1,489.53,222.57Zm0-2a2.91,2.91,0,0,0,1.47-.36,3.09,3.09,0,0,0,1-.94,4.08,4.08,0,0,0,.59-1.31,5.82,5.82,0,0,0,.19-1.49,5.88,5.88,0,0,0-.19-1.47,3.93,3.93,0,0,0-.59-1.31,3.15,3.15,0,0,0-1-.93,3.22,3.22,0,0,0-2.95,0,3.15,3.15,0,0,0-1,.93,3.93,3.93,0,0,0-.59,1.31,5.88,5.88,0,0,0-.19,1.47,5.82,5.82,0,0,0,.19,1.49,4.08,4.08,0,0,0,.59,1.31,3.09,3.09,0,0,0,1,.94A2.91,2.91,0,0,0,489.53,220.56Z" transform="translate(-29.15 -43.09)"/><path class="videoplaceholder-3" d="M498.74,218.55a1.92,1.92,0,0,0,.85,1.56,3.34,3.34,0,0,0,1.76.45,6.84,6.84,0,0,0,.82-0.06,3.54,3.54,0,0,0,.86-0.21,1.63,1.63,0,0,0,.66-0.46,1.1,1.1,0,0,0,.23-0.79,1.13,1.13,0,0,0-.36-0.8,2.48,2.48,0,0,0-.86-0.5,8.19,8.19,0,0,0-1.2-.32l-1.36-.29a12.74,12.74,0,0,1-1.37-.38,4.45,4.45,0,0,1-1.18-.6,2.77,2.77,0,0,1-.84-1,3.1,3.1,0,0,1-.31-1.46,2.63,2.63,0,0,1,.46-1.57,3.52,3.52,0,0,1,1.16-1,5.08,5.08,0,0,1,1.56-.55,9.17,9.17,0,0,1,1.64-.16,7.56,7.56,0,0,1,1.71.19,4.68,4.68,0,0,1,1.47.61,3.62,3.62,0,0,1,1.09,1.11,3.83,3.83,0,0,1,.55,1.64h-2.66a1.59,1.59,0,0,0-.84-1.23,3.47,3.47,0,0,0-1.51-.31,5.48,5.48,0,0,0-.64,0,2.94,2.94,0,0,0-.69.17,1.45,1.45,0,0,0-.55.36,0.85,0.85,0,0,0-.22.61,1,1,0,0,0,.32.76,2.58,2.58,0,0,0,.85.48,8.36,8.36,0,0,0,1.2.32l1.39,0.29q0.69,0.16,1.36.38a4.4,4.4,0,0,1,1.2.6,3,3,0,0,1,.85,1,2.9,2.9,0,0,1,.32,1.43,3.1,3.1,0,0,1-.47,1.74,3.7,3.7,0,0,1-1.22,1.16,5.53,5.53,0,0,1-1.67.65,8.37,8.37,0,0,1-1.81.2,7.91,7.91,0,0,1-2-.25,4.72,4.72,0,0,1-1.61-.75,3.62,3.62,0,0,1-1.07-1.25,4,4,0,0,1-.41-1.78h2.55Z" transform="translate(-29.15 -43.09)"/><path class="videoplaceholder-3" d="M509.73,217.14a4.42,4.42,0,0,0,.19,1.3,3.19,3.19,0,0,0,.57,1.09,2.74,2.74,0,0,0,1,.75,3.17,3.17,0,0,0,1.39.28,3.06,3.06,0,0,0,1.8-.48,2.84,2.84,0,0,0,1-1.44h2.41a4.79,4.79,0,0,1-1.88,2.92,5.09,5.09,0,0,1-1.55.76,6.26,6.26,0,0,1-1.8.26,6.12,6.12,0,0,1-2.41-.45,5,5,0,0,1-1.78-1.25,5.32,5.32,0,0,1-1.09-1.92,7.82,7.82,0,0,1-.37-2.46,7,7,0,0,1,.39-2.33,6,6,0,0,1,1.12-1.94,5.24,5.24,0,0,1,4.08-1.82,5.18,5.18,0,0,1,2.45.57,5.38,5.38,0,0,1,1.8,1.51,6.11,6.11,0,0,1,1,2.16,6.62,6.62,0,0,1,.17,2.51h-8.49Zm5.94-1.67a4.12,4.12,0,0,0-.26-1.16,3.09,3.09,0,0,0-.58-1,2.88,2.88,0,0,0-.89-0.67,2.64,2.64,0,0,0-1.17-.26,3.06,3.06,0,0,0-1.22.23,2.78,2.78,0,0,0-.94.65,3.21,3.21,0,0,0-.62,1,3.39,3.39,0,0,0-.26,1.21h5.94Z" transform="translate(-29.15 -43.09)"/><path class="videoplaceholder-3" d="M534.71,219.69a1.35,1.35,0,0,0,.12.67,0.52,0.52,0,0,0,.48.2h0.27a1.69,1.69,0,0,0,.36,0v1.76l-0.35.1-0.44.1-0.45.07-0.38,0a2.46,2.46,0,0,1-1.3-.31,1.56,1.56,0,0,1-.67-1.09,4.51,4.51,0,0,1-1.87,1.07,7.34,7.34,0,0,1-2.13.33,5.22,5.22,0,0,1-1.5-.21,3.91,3.91,0,0,1-1.26-.63,3,3,0,0,1-.87-1,3.23,3.23,0,0,1-.32-1.49,3.43,3.43,0,0,1,.39-1.74,2.89,2.89,0,0,1,1-1.05,4.63,4.63,0,0,1,1.43-.55q0.79-.17,1.6-0.26a13.14,13.14,0,0,1,1.32-.19,6.06,6.06,0,0,0,1.11-.19,1.68,1.68,0,0,0,.76-0.41,1.14,1.14,0,0,0,.28-0.84,1.31,1.31,0,0,0-.23-0.8,1.57,1.57,0,0,0-.58-0.48,2.48,2.48,0,0,0-.77-0.22,6.19,6.19,0,0,0-.8-0.06,3.2,3.2,0,0,0-1.77.45,1.74,1.74,0,0,0-.78,1.38h-2.55a3.84,3.84,0,0,1,.54-1.85,3.7,3.7,0,0,1,1.2-1.18,4.88,4.88,0,0,1,1.64-.62,9.78,9.78,0,0,1,1.88-.18,7.92,7.92,0,0,1,1.68.18,4.75,4.75,0,0,1,1.49.58,3.22,3.22,0,0,1,1.06,1,2.85,2.85,0,0,1,.4,1.55v5.94Zm-2.55-3.22a3.08,3.08,0,0,1-1.43.46q-0.85.08-1.7,0.23a5.44,5.44,0,0,0-.78.19,2.34,2.34,0,0,0-.67.33,1.46,1.46,0,0,0-.46.56,1.9,1.9,0,0,0-.17.84,1.07,1.07,0,0,0,.25.71,1.78,1.78,0,0,0,.59.46,2.75,2.75,0,0,0,.76.23,4.67,4.67,0,0,0,.75.07,4.11,4.11,0,0,0,.92-0.11,3,3,0,0,0,.93-0.38,2.42,2.42,0,0,0,.73-0.68,1.72,1.72,0,0,0,.29-1v-1.9Z" transform="translate(-29.15 -43.09)"/><path class="videoplaceholder-3" d="M538.7,218.55a1.92,1.92,0,0,0,.85,1.56,3.34,3.34,0,0,0,1.77.45,6.86,6.86,0,0,0,.82-0.06,3.53,3.53,0,0,0,.86-0.21,1.61,1.61,0,0,0,.66-0.46,1.1,1.1,0,0,0,.23-0.79,1.13,1.13,0,0,0-.36-0.8,2.47,2.47,0,0,0-.86-0.5,8.26,8.26,0,0,0-1.2-.32l-1.36-.29a12.74,12.74,0,0,1-1.37-.38,4.45,4.45,0,0,1-1.18-.6,2.79,2.79,0,0,1-.84-1,3.1,3.1,0,0,1-.31-1.46,2.62,2.62,0,0,1,.46-1.57,3.51,3.51,0,0,1,1.16-1,5.1,5.1,0,0,1,1.56-.55,9.16,9.16,0,0,1,1.64-.16,7.55,7.55,0,0,1,1.71.19,4.67,4.67,0,0,1,1.47.61,3.61,3.61,0,0,1,1.09,1.11,3.82,3.82,0,0,1,.55,1.64H543.4a1.59,1.59,0,0,0-.84-1.23,3.47,3.47,0,0,0-1.51-.31,5.49,5.49,0,0,0-.64,0,3,3,0,0,0-.69.17,1.46,1.46,0,0,0-.55.36,0.85,0.85,0,0,0-.22.61,1,1,0,0,0,.32.76,2.56,2.56,0,0,0,.85.48,8.33,8.33,0,0,0,1.2.32l1.38,0.29a14.05,14.05,0,0,1,1.36.38,4.37,4.37,0,0,1,1.2.6,3,3,0,0,1,.85,1,2.91,2.91,0,0,1,.32,1.43,3.1,3.1,0,0,1-.47,1.74,3.72,3.72,0,0,1-1.22,1.16,5.53,5.53,0,0,1-1.66.65,8.38,8.38,0,0,1-1.81.2,7.9,7.9,0,0,1-2-.25,4.72,4.72,0,0,1-1.61-.75,3.61,3.61,0,0,1-1.07-1.25,4,4,0,0,1-.41-1.78h2.55Z" transform="translate(-29.15 -43.09)"/><path class="videoplaceholder-3" d="M562.92,219.69a1.35,1.35,0,0,0,.12.67,0.52,0.52,0,0,0,.48.2h0.27a1.69,1.69,0,0,0,.36,0v1.76l-0.35.1-0.44.1-0.45.07-0.38,0a2.46,2.46,0,0,1-1.3-.31,1.55,1.55,0,0,1-.67-1.09,4.51,4.51,0,0,1-1.87,1.07,7.34,7.34,0,0,1-2.13.33,5.23,5.23,0,0,1-1.5-.21,3.91,3.91,0,0,1-1.26-.63,3,3,0,0,1-.87-1,3.22,3.22,0,0,1-.32-1.49,3.43,3.43,0,0,1,.39-1.74,2.9,2.9,0,0,1,1-1.05,4.63,4.63,0,0,1,1.43-.55q0.79-.17,1.6-0.26a13.2,13.2,0,0,1,1.32-.19,6,6,0,0,0,1.11-.19,1.69,1.69,0,0,0,.76-0.41,1.14,1.14,0,0,0,.28-0.84,1.31,1.31,0,0,0-.23-0.8,1.58,1.58,0,0,0-.58-0.48,2.48,2.48,0,0,0-.77-0.22,6.2,6.2,0,0,0-.8-0.06,3.2,3.2,0,0,0-1.76.45,1.74,1.74,0,0,0-.78,1.38H553a3.82,3.82,0,0,1,.54-1.85,3.7,3.7,0,0,1,1.2-1.18,4.88,4.88,0,0,1,1.64-.62,9.78,9.78,0,0,1,1.88-.18,7.9,7.9,0,0,1,1.67.18,4.76,4.76,0,0,1,1.49.58,3.22,3.22,0,0,1,1.06,1,2.85,2.85,0,0,1,.4,1.55v5.94Zm-2.55-3.22a3.08,3.08,0,0,1-1.43.46q-0.85.08-1.7,0.23a5.46,5.46,0,0,0-.78.19,2.35,2.35,0,0,0-.67.33,1.48,1.48,0,0,0-.46.56,1.91,1.91,0,0,0-.17.84,1.07,1.07,0,0,0,.25.71,1.78,1.78,0,0,0,.59.46,2.75,2.75,0,0,0,.76.23,4.67,4.67,0,0,0,.75.07,4.11,4.11,0,0,0,.92-0.11,3,3,0,0,0,.93-0.38,2.43,2.43,0,0,0,.73-0.68,1.72,1.72,0,0,0,.29-1v-1.9Z" transform="translate(-29.15 -43.09)"/><path class="videoplaceholder-3" d="M565,210.71h2.41v1.7l0,0a4.27,4.27,0,0,1,1.52-1.51,4.05,4.05,0,0,1,2.08-.55,4.32,4.32,0,0,1,3,1,3.77,3.77,0,0,1,1.09,2.95v7.93h-2.55V215a3.13,3.13,0,0,0-.58-2,2.11,2.11,0,0,0-1.68-.61,2.77,2.77,0,0,0-1.16.23,2.52,2.52,0,0,0-.87.65,3.07,3.07,0,0,0-.56,1,3.48,3.48,0,0,0-.2,1.18v6.81H565V210.71Z" transform="translate(-29.15 -43.09)"/><path class="videoplaceholder-3" d="M587.32,206.31h3l6.14,16h-3l-1.5-4.22h-6.37l-1.5,4.22H581.2Zm-1,9.61h4.87l-2.39-6.86h-0.07Z" transform="translate(-29.15 -43.09)"/><path class="videoplaceholder-3" d="M597.28,206.31h7a6.68,6.68,0,0,1,2.77.49,4.37,4.37,0,0,1,1.65,1.23,4.18,4.18,0,0,1,.79,1.61,6.83,6.83,0,0,1,.21,1.61,6.69,6.69,0,0,1-.21,1.6,4.19,4.19,0,0,1-.79,1.6,4.28,4.28,0,0,1-1.65,1.22,6.82,6.82,0,0,1-2.77.48h-4.25v6.12h-2.79v-16Zm2.79,7.55h4.09a3.62,3.62,0,0,0,1-.13,2.75,2.75,0,0,0,.91-0.44,2.24,2.24,0,0,0,.67-0.8,2.77,2.77,0,0,0,.26-1.26,3.28,3.28,0,0,0-.22-1.3,2.07,2.07,0,0,0-.6-0.82,2.16,2.16,0,0,0-.87-0.41,4.74,4.74,0,0,0-1-.11h-4.13v5.27Z" transform="translate(-29.15 -43.09)"/><path class="videoplaceholder-3" d="M611.51,206.31h2.79v16h-2.79v-16Z" transform="translate(-29.15 -43.09)"/></g><g class="videoplaceholder-1"><path class="videoplaceholder-2" d="M29.15,117.81a12.05,12.05,0,0,0,2.1-.18,6.56,6.56,0,0,0,1.85-.6A4.72,4.72,0,0,0,34.5,116a3.3,3.3,0,0,0,.77-1.62h2.79v21H34.31V120.51H29.15v-2.7Z" transform="translate(-29.15 -43.09)"/></g><g class="videoplaceholder-1"><g class="videoplaceholder-1"><path class="videoplaceholder-3" d="M59.79,127.27a3.57,3.57,0,0,0,.31,1.56A2.82,2.82,0,0,0,61,129.9a3.69,3.69,0,0,0,1.28.6,6.2,6.2,0,0,0,1.58.19,5.06,5.06,0,0,0,1.56-.21,3.18,3.18,0,0,0,1-.55,2,2,0,0,0,.58-0.77,2.32,2.32,0,0,0,.18-0.88,1.91,1.91,0,0,0-.41-1.35,2.37,2.37,0,0,0-.9-0.61,18.67,18.67,0,0,0-2-.59L61.13,125a6,6,0,0,1-1.71-.7,4.08,4.08,0,0,1-1.08-1,3.42,3.42,0,0,1-.57-1.14A4.58,4.58,0,0,1,57.6,121a4.15,4.15,0,0,1,.5-2.09,4.47,4.47,0,0,1,1.33-1.46,5.86,5.86,0,0,1,1.88-.86,8.25,8.25,0,0,1,2.12-.28,8.35,8.35,0,0,1,2.36.32,5.82,5.82,0,0,1,1.94,1,4.77,4.77,0,0,1,1.33,1.6,4.72,4.72,0,0,1,.49,2.2H66.76a2.69,2.69,0,0,0-1.05-2.18,4.17,4.17,0,0,0-2.39-.64,5.2,5.2,0,0,0-1,.1,3.18,3.18,0,0,0-.94.33,2.05,2.05,0,0,0-.7.64,1.95,1.95,0,0,0,.25,2.33,3.4,3.4,0,0,0,1.37.73l0.7,0.19,1.37,0.37,1.49,0.39,1,0.28a4.69,4.69,0,0,1,1.36.67,4.3,4.3,0,0,1,1,1,4,4,0,0,1,.58,1.17A4.29,4.29,0,0,1,70,128a4.51,4.51,0,0,1-.55,2.29A4.64,4.64,0,0,1,68,131.81a6.27,6.27,0,0,1-2,.88,9.76,9.76,0,0,1-2.32.28,9.55,9.55,0,0,1-2.57-.33,6,6,0,0,1-2.1-1,5,5,0,0,1-1.43-1.78,5.91,5.91,0,0,1-.56-2.56h2.79Z" transform="translate(-29.15 -43.09)"/><path class="videoplaceholder-3" d="M71.47,121h2.41v1.56h0a3.15,3.15,0,0,1,1.5-1.44,5,5,0,0,1,2.08-.44,5.51,5.51,0,0,1,2.38.48,4.69,4.69,0,0,1,1.69,1.32,5.73,5.73,0,0,1,1,2,8.27,8.27,0,0,1,.34,2.39,8.45,8.45,0,0,1-.3,2.26,5.87,5.87,0,0,1-.92,1.93,4.46,4.46,0,0,1-3.76,1.84,6.26,6.26,0,0,1-1.12-.1,4.81,4.81,0,0,1-1.07-.32,4.21,4.21,0,0,1-.95-0.57,3.13,3.13,0,0,1-.73-0.82h0v5.76H71.47V121Zm8.89,5.79a5.74,5.74,0,0,0-.2-1.52,4.12,4.12,0,0,0-.6-1.31,3.12,3.12,0,0,0-1-.92,2.74,2.74,0,0,0-1.39-.35,2.81,2.81,0,0,0-2.42,1.12,4.93,4.93,0,0,0-.82,3,5.9,5.9,0,0,0,.21,1.62,3.63,3.63,0,0,0,.64,1.29,3.17,3.17,0,0,0,1,.85,2.89,2.89,0,0,0,1.37.31,2.84,2.84,0,0,0,1.47-.36,3.11,3.11,0,0,0,1-.93,3.77,3.77,0,0,0,.56-1.3A6.6,6.6,0,0,0,80.36,126.83Z" transform="translate(-29.15 -43.09)"/><path class="videoplaceholder-3" d="M86.37,127.47a4.42,4.42,0,0,0,.19,1.3,3.19,3.19,0,0,0,.57,1.09,2.74,2.74,0,0,0,1,.75,3.17,3.17,0,0,0,1.39.28,3.06,3.06,0,0,0,1.8-.48,2.84,2.84,0,0,0,1-1.44h2.41a4.79,4.79,0,0,1-1.88,2.92,5.09,5.09,0,0,1-1.55.76,6.26,6.26,0,0,1-1.8.26,6.12,6.12,0,0,1-2.41-.45,5,5,0,0,1-1.78-1.25,5.31,5.31,0,0,1-1.09-1.92,7.8,7.8,0,0,1-.37-2.46,7,7,0,0,1,.39-2.33,6,6,0,0,1,1.12-1.94,5.24,5.24,0,0,1,4.08-1.82,5.18,5.18,0,0,1,2.45.57,5.38,5.38,0,0,1,1.8,1.51,6.12,6.12,0,0,1,1,2.16,6.61,6.61,0,0,1,.17,2.51H86.37Zm5.94-1.67a4.1,4.1,0,0,0-.26-1.16,3.1,3.1,0,0,0-.58-1,2.88,2.88,0,0,0-.89-0.67,2.64,2.64,0,0,0-1.17-.26,3.06,3.06,0,0,0-1.22.23,2.78,2.78,0,0,0-.94.65,3.22,3.22,0,0,0-.63,1,3.39,3.39,0,0,0-.26,1.21h5.94Z" transform="translate(-29.15 -43.09)"/><path class="videoplaceholder-3" d="M103.93,124.91a2.39,2.39,0,0,0-.86-1.62,2.81,2.81,0,0,0-1.78-.55,3.67,3.67,0,0,0-1,.17,2.49,2.49,0,0,0-1,.63,3.49,3.49,0,0,0-.78,1.27,6.05,6.05,0,0,0-.31,2.13,6.23,6.23,0,0,0,.17,1.43,3.9,3.9,0,0,0,.54,1.27,2.89,2.89,0,0,0,.95.91,2.7,2.7,0,0,0,1.41.35,2.56,2.56,0,0,0,1.84-.69,3.22,3.22,0,0,0,.9-1.94h2.55a5.59,5.59,0,0,1-1.71,3.45,5.21,5.21,0,0,1-3.59,1.2,5.9,5.9,0,0,1-2.4-.46A5.07,5.07,0,0,1,97,131.19a5.31,5.31,0,0,1-1.08-1.89,7.38,7.38,0,0,1-.37-2.37,8.09,8.09,0,0,1,.36-2.43,5.58,5.58,0,0,1,1.07-2,5,5,0,0,1,1.78-1.32,6,6,0,0,1,2.49-.48,7,7,0,0,1,1.91.26,5,5,0,0,1,1.61.77,4.1,4.1,0,0,1,1.15,1.3,4.44,4.44,0,0,1,.54,1.85h-2.55Z" transform="translate(-29.15 -43.09)"/><path class="videoplaceholder-3" d="M108,116.64h2.55v2.41H108v-2.41Zm0,4.4h2.55v11.55H108V121Z" transform="translate(-29.15 -43.09)"/><path class="videoplaceholder-3" d="M111.46,121h1.9v-1a4.92,4.92,0,0,1,.27-1.78,2.51,2.51,0,0,1,.71-1,2.35,2.35,0,0,1,1-.49,5.71,5.71,0,0,1,1.19-.12,7.27,7.27,0,0,1,1.79.16v2a3.51,3.51,0,0,0-.52-0.1,5.57,5.57,0,0,0-.66,0,1.55,1.55,0,0,0-.88.25,1.08,1.08,0,0,0-.37,1V121h2.17v1.9h-2.17v9.65h-2.55v-9.65h-1.9V121Z" transform="translate(-29.15 -43.09)"/><path class="videoplaceholder-3" d="M117.69,121h2.79l3,8.62h0l2.93-8.62h2.66l-4.49,12.18q-0.31.78-.61,1.5a5.37,5.37,0,0,1-.74,1.26,3.19,3.19,0,0,1-1.08.87,3.69,3.69,0,0,1-1.65.32,11.53,11.53,0,0,1-1.77-.13v-2.14l0.6,0.1a3.2,3.2,0,0,0,.6.06,2.08,2.08,0,0,0,.74-0.11,1.22,1.22,0,0,0,.48-0.32,2,2,0,0,0,.32-0.5,5,5,0,0,0,.25-0.67l0.29-.89Z" transform="translate(-29.15 -43.09)"/><path class="videoplaceholder-3" d="M145.1,130a1.35,1.35,0,0,0,.12.67,0.52,0.52,0,0,0,.48.2H146a1.7,1.7,0,0,0,.36,0v1.76l-0.35.1-0.44.1-0.45.07-0.38,0a2.46,2.46,0,0,1-1.3-.31,1.55,1.55,0,0,1-.67-1.09,4.51,4.51,0,0,1-1.87,1.07,7.34,7.34,0,0,1-2.13.33,5.22,5.22,0,0,1-1.5-.21,3.91,3.91,0,0,1-1.26-.63,3,3,0,0,1-.87-1,3.23,3.23,0,0,1-.32-1.49,3.43,3.43,0,0,1,.39-1.74,2.9,2.9,0,0,1,1-1.05,4.64,4.64,0,0,1,1.43-.55q0.79-.17,1.6-0.26a13.17,13.17,0,0,1,1.32-.19,6.05,6.05,0,0,0,1.11-.19,1.69,1.69,0,0,0,.76-0.41,1.14,1.14,0,0,0,.28-0.84,1.31,1.31,0,0,0-.23-0.8,1.57,1.57,0,0,0-.58-0.48,2.49,2.49,0,0,0-.77-0.22,6.2,6.2,0,0,0-.8-0.06,3.2,3.2,0,0,0-1.77.45,1.74,1.74,0,0,0-.78,1.38h-2.55a3.84,3.84,0,0,1,.54-1.85,3.71,3.71,0,0,1,1.2-1.18,4.89,4.89,0,0,1,1.64-.62,9.77,9.77,0,0,1,1.88-.18,7.91,7.91,0,0,1,1.68.18,4.75,4.75,0,0,1,1.49.58,3.22,3.22,0,0,1,1.06,1,2.85,2.85,0,0,1,.4,1.55V130Zm-2.55-3.22a3.08,3.08,0,0,1-1.43.46q-0.85.08-1.7,0.23a5.47,5.47,0,0,0-.78.19,2.35,2.35,0,0,0-.67.33,1.47,1.47,0,0,0-.46.56,1.91,1.91,0,0,0-.17.84,1.07,1.07,0,0,0,.25.71,1.79,1.79,0,0,0,.59.46,2.75,2.75,0,0,0,.76.23,4.68,4.68,0,0,0,.75.07,4.11,4.11,0,0,0,.92-0.11,3,3,0,0,0,.93-0.38,2.43,2.43,0,0,0,.73-0.68,1.72,1.72,0,0,0,.29-1v-1.9Z" transform="translate(-29.15 -43.09)"/><path class="videoplaceholder-3" d="M153,116.64H157l4.4,12.49h0l4.29-12.49h3.89v16h-2.66V120.28h0l-4.42,12.31h-2.3l-4.42-12.31h0v12.31H153v-16Z" transform="translate(-29.15 -43.09)"/><path class="videoplaceholder-3" d="M172,116.64h2.55v2.41H172v-2.41Zm0,4.4h2.55v11.55H172V121Z" transform="translate(-29.15 -43.09)"/><path class="videoplaceholder-3" d="M184.42,124.91a2.39,2.39,0,0,0-.86-1.62,2.81,2.81,0,0,0-1.78-.55,3.67,3.67,0,0,0-1,.17,2.5,2.5,0,0,0-1,.63,3.49,3.49,0,0,0-.78,1.27,6.05,6.05,0,0,0-.31,2.13,6.26,6.26,0,0,0,.17,1.43,3.9,3.9,0,0,0,.54,1.27,2.9,2.9,0,0,0,.95.91,2.71,2.71,0,0,0,1.41.35,2.56,2.56,0,0,0,1.84-.69,3.22,3.22,0,0,0,.9-1.94H187a5.59,5.59,0,0,1-1.71,3.45,5.21,5.21,0,0,1-3.58,1.2,5.9,5.9,0,0,1-2.4-.46,5.07,5.07,0,0,1-1.75-1.25,5.3,5.3,0,0,1-1.08-1.89,7.36,7.36,0,0,1-.37-2.37,8.09,8.09,0,0,1,.36-2.43,5.55,5.55,0,0,1,1.07-2,5,5,0,0,1,1.78-1.32,6,6,0,0,1,2.49-.48,7,7,0,0,1,1.91.26,5,5,0,0,1,1.61.77,4.11,4.11,0,0,1,1.15,1.3,4.44,4.44,0,0,1,.54,1.85h-2.55Z" transform="translate(-29.15 -43.09)"/></g><g class="videoplaceholder-1"><path class="videoplaceholder-3" d="M189.84,121h2.39v2.23h0a2.57,2.57,0,0,1,.44-0.92,4.22,4.22,0,0,1,.78-0.82,3.92,3.92,0,0,1,1-.59,3,3,0,0,1,1.14-.22,5.58,5.58,0,0,1,.61,0l0.35,0v2.46l-0.55-.08a4.58,4.58,0,0,0-.55,0,2.93,2.93,0,0,0-1.22.26,2.8,2.8,0,0,0-1,.76,3.72,3.72,0,0,0-.67,1.24,5.36,5.36,0,0,0-.25,1.7v5.5h-2.55V121Z" transform="translate(-29.15 -43.09)"/></g><g class="videoplaceholder-1"><path class="videoplaceholder-3" d="M202,132.9a6.28,6.28,0,0,1-2.47-.46,5.25,5.25,0,0,1-1.83-1.26,5.39,5.39,0,0,1-1.14-1.92,7.84,7.84,0,0,1,0-4.89,5.39,5.39,0,0,1,1.14-1.92,5.25,5.25,0,0,1,1.83-1.26,6.88,6.88,0,0,1,4.94,0,5.26,5.26,0,0,1,1.83,1.26,5.4,5.4,0,0,1,1.14,1.92,7.84,7.84,0,0,1,0,4.89,5.4,5.4,0,0,1-1.14,1.92,5.26,5.26,0,0,1-1.83,1.26A6.29,6.29,0,0,1,202,132.9Zm0-2a2.91,2.91,0,0,0,1.47-.36,3.1,3.1,0,0,0,1-.94,4.1,4.1,0,0,0,.59-1.31,5.84,5.84,0,0,0,.19-1.49,5.9,5.9,0,0,0-.19-1.47,4,4,0,0,0-.59-1.31,3.15,3.15,0,0,0-1-.93,3.22,3.22,0,0,0-2.95,0,3.15,3.15,0,0,0-1,.93,4,4,0,0,0-.59,1.31,5.86,5.86,0,0,0,0,3,4.1,4.1,0,0,0,.59,1.31,3.1,3.1,0,0,0,1,.94A2.91,2.91,0,0,0,202,130.89Z" transform="translate(-29.15 -43.09)"/><path class="videoplaceholder-3" d="M211.47,128.88a1.92,1.92,0,0,0,.85,1.56,3.34,3.34,0,0,0,1.77.45,6.85,6.85,0,0,0,.82-0.06,3.53,3.53,0,0,0,.86-0.21,1.62,1.62,0,0,0,.66-0.46,1.1,1.1,0,0,0,.23-0.79,1.13,1.13,0,0,0-.36-0.8,2.47,2.47,0,0,0-.86-0.5,8.23,8.23,0,0,0-1.2-.32l-1.36-.29a12.74,12.74,0,0,1-1.37-.38,4.45,4.45,0,0,1-1.18-.6,2.78,2.78,0,0,1-.84-1,3.1,3.1,0,0,1-.31-1.46,2.63,2.63,0,0,1,.46-1.57,3.51,3.51,0,0,1,1.16-1,5.09,5.09,0,0,1,1.56-.55,9.16,9.16,0,0,1,1.64-.16,7.55,7.55,0,0,1,1.71.19,4.67,4.67,0,0,1,1.47.61,3.61,3.61,0,0,1,1.09,1.11,3.83,3.83,0,0,1,.55,1.64h-2.66a1.59,1.59,0,0,0-.84-1.23,3.47,3.47,0,0,0-1.51-.31,5.48,5.48,0,0,0-.64,0,3,3,0,0,0-.69.17,1.45,1.45,0,0,0-.55.36,0.85,0.85,0,0,0-.22.61,1,1,0,0,0,.32.76,2.57,2.57,0,0,0,.85.48,8.34,8.34,0,0,0,1.2.32l1.39,0.29a14.13,14.13,0,0,1,1.36.38,4.39,4.39,0,0,1,1.2.6,3,3,0,0,1,.85,1,2.9,2.9,0,0,1,.32,1.43,3.1,3.1,0,0,1-.47,1.74,3.7,3.7,0,0,1-1.22,1.16,5.53,5.53,0,0,1-1.66.65,8.38,8.38,0,0,1-1.81.2,7.91,7.91,0,0,1-2-.25,4.72,4.72,0,0,1-1.61-.75,3.61,3.61,0,0,1-1.07-1.25,4,4,0,0,1-.41-1.78h2.55Z" transform="translate(-29.15 -43.09)"/><path class="videoplaceholder-3" d="M222.69,127.47a4.42,4.42,0,0,0,.19,1.3,3.19,3.19,0,0,0,.57,1.09,2.74,2.74,0,0,0,1,.75,3.17,3.17,0,0,0,1.39.28,3.06,3.06,0,0,0,1.8-.48,2.84,2.84,0,0,0,1-1.44H231a4.79,4.79,0,0,1-1.88,2.92,5.09,5.09,0,0,1-1.55.76,6.26,6.26,0,0,1-1.8.26,6.12,6.12,0,0,1-2.41-.45,5,5,0,0,1-1.78-1.25,5.31,5.31,0,0,1-1.09-1.92,7.8,7.8,0,0,1-.37-2.46,7,7,0,0,1,.39-2.33,6,6,0,0,1,1.12-1.94,5.24,5.24,0,0,1,4.08-1.82,5.18,5.18,0,0,1,2.45.57,5.38,5.38,0,0,1,1.8,1.51,6.12,6.12,0,0,1,1,2.16,6.61,6.61,0,0,1,.17,2.51h-8.49Zm5.94-1.67a4.1,4.1,0,0,0-.26-1.16,3.1,3.1,0,0,0-.58-1,2.88,2.88,0,0,0-.89-0.67,2.64,2.64,0,0,0-1.17-.26,3.06,3.06,0,0,0-1.22.23,2.78,2.78,0,0,0-.94.65,3.22,3.22,0,0,0-.63,1,3.39,3.39,0,0,0-.26,1.21h5.94Z" transform="translate(-29.15 -43.09)"/><path class="videoplaceholder-3" d="M232.67,121h2.39v2.23h0a2.57,2.57,0,0,1,.44-0.92,4.22,4.22,0,0,1,.78-0.82,3.92,3.92,0,0,1,1-.59,3,3,0,0,1,1.14-.22,5.58,5.58,0,0,1,.61,0l0.35,0v2.46l-0.55-.08a4.58,4.58,0,0,0-.55,0,2.93,2.93,0,0,0-1.22.26,2.8,2.8,0,0,0-1,.76,3.72,3.72,0,0,0-.67,1.24,5.36,5.36,0,0,0-.25,1.7v5.5h-2.55V121Z" transform="translate(-29.15 -43.09)"/><path class="videoplaceholder-3" d="M239,121h2.77l2.93,8.87h0l2.81-8.87h2.64L246,132.59h-2.86Z" transform="translate(-29.15 -43.09)"/><path class="videoplaceholder-3" d="M251.3,116.64h2.55v2.41H251.3v-2.41Zm0,4.4h2.55v11.55H251.3V121Z" transform="translate(-29.15 -43.09)"/><path class="videoplaceholder-3" d="M264,124.91a2.39,2.39,0,0,0-.86-1.62,2.81,2.81,0,0,0-1.78-.55,3.67,3.67,0,0,0-1,.17,2.49,2.49,0,0,0-1,.63,3.49,3.49,0,0,0-.78,1.27,6.05,6.05,0,0,0-.31,2.13,6.23,6.23,0,0,0,.17,1.43,3.9,3.9,0,0,0,.54,1.27,2.89,2.89,0,0,0,.95.91,2.7,2.7,0,0,0,1.41.35,2.56,2.56,0,0,0,1.84-.69,3.22,3.22,0,0,0,.9-1.94h2.55a5.59,5.59,0,0,1-1.71,3.45,5.21,5.21,0,0,1-3.59,1.2,5.9,5.9,0,0,1-2.4-.46,5.07,5.07,0,0,1-1.75-1.25,5.31,5.31,0,0,1-1.08-1.89,7.38,7.38,0,0,1-.37-2.37,8.09,8.09,0,0,1,.36-2.43,5.58,5.58,0,0,1,1.07-2,5,5,0,0,1,1.78-1.32,6,6,0,0,1,2.49-.48,7,7,0,0,1,1.91.26,5,5,0,0,1,1.61.77,4.1,4.1,0,0,1,1.15,1.3,4.44,4.44,0,0,1,.54,1.85H264Z" transform="translate(-29.15 -43.09)"/><path class="videoplaceholder-3" d="M270.14,127.47a4.42,4.42,0,0,0,.19,1.3,3.19,3.19,0,0,0,.57,1.09,2.74,2.74,0,0,0,1,.75,3.17,3.17,0,0,0,1.39.28,3.06,3.06,0,0,0,1.8-.48,2.84,2.84,0,0,0,1-1.44h2.41a4.79,4.79,0,0,1-1.88,2.92,5.09,5.09,0,0,1-1.55.76,6.26,6.26,0,0,1-1.8.26,6.12,6.12,0,0,1-2.41-.45,5,5,0,0,1-1.78-1.25,5.31,5.31,0,0,1-1.09-1.92,7.8,7.8,0,0,1-.37-2.46,7,7,0,0,1,.39-2.33,6,6,0,0,1,1.12-1.94,5.24,5.24,0,0,1,4.08-1.82,5.18,5.18,0,0,1,2.45.57,5.38,5.38,0,0,1,1.8,1.51,6.12,6.12,0,0,1,1,2.16,6.61,6.61,0,0,1,.17,2.51h-8.49Zm5.94-1.67a4.1,4.1,0,0,0-.26-1.16,3.1,3.1,0,0,0-.58-1,2.88,2.88,0,0,0-.89-0.67,2.64,2.64,0,0,0-1.17-.26A3.06,3.06,0,0,0,272,123a2.78,2.78,0,0,0-.94.65,3.22,3.22,0,0,0-.63,1,3.39,3.39,0,0,0-.26,1.21h5.94Z" transform="translate(-29.15 -43.09)"/></g></g></svg>
