<svg id="Layer_2" data-name="Layer 2" xmlns="http://www.w3.org/2000/svg" viewBox="0 0 1755.93 839.41"><defs><style>.cls-1{isolation:isolate;}.cls-2{fill:#0e8696;}.cls-3{fill:#34a8c4;}</style></defs><title>Video_atrest-no-waves_Getting Started All</title><g class="cls-1"><path class="cls-2" d="M393.43,193.43h-7.14l-1.7-7.5a26.52,26.52,0,0,1-8.93,7.05,25.28,25.28,0,0,1-10.26,2,30.08,30.08,0,0,1-12.81-2.63,28.17,28.17,0,0,1-9.59-7.19,32.11,32.11,0,0,1-6-10.62,40.7,40.7,0,0,1,0-25.8,32.13,32.13,0,0,1,6-10.62,28.66,28.66,0,0,1,9.59-7.23,29.63,29.63,0,0,1,12.81-2.68,34.71,34.71,0,0,1,9.86,1.38,26.39,26.39,0,0,1,8.34,4.11,22.77,22.77,0,0,1,6.07,6.83,23.94,23.94,0,0,1,3,9.46H381.82a13.67,13.67,0,0,0-5.62-9.46,16.21,16.21,0,0,0-5-2.41,20.72,20.72,0,0,0-5.8-.8,17.87,17.87,0,0,0-8.79,2.05,17.25,17.25,0,0,0-6,5.49,24.74,24.74,0,0,0-3.44,7.81,36.28,36.28,0,0,0,0,17.85,24.72,24.72,0,0,0,3.44,7.81,17.23,17.23,0,0,0,6,5.49,17.86,17.86,0,0,0,8.79,2.05,20.77,20.77,0,0,0,7.59-1.12,15.06,15.06,0,0,0,5.58-3.48,14.59,14.59,0,0,0,3.44-5.58,23.62,23.62,0,0,0,1.25-7.32h-17v-8.48h27.13v33.56Z" transform="translate(-86.73 -128.19)"/><path class="cls-2" d="M410.12,173a17.71,17.71,0,0,0,.76,5.18,12.72,12.72,0,0,0,2.28,4.37,11,11,0,0,0,3.84,3,12.64,12.64,0,0,0,5.53,1.12,12.22,12.22,0,0,0,7.19-1.92,11.34,11.34,0,0,0,4.06-5.76h9.64a19.14,19.14,0,0,1-7.5,11.65,20.41,20.41,0,0,1-6.2,3,25,25,0,0,1-7.19,1,24.44,24.44,0,0,1-9.64-1.79,19.91,19.91,0,0,1-7.1-5,21.19,21.19,0,0,1-4.37-7.68,31.19,31.19,0,0,1-1.47-9.82,27.76,27.76,0,0,1,1.56-9.33,23.84,23.84,0,0,1,4.46-7.77A20.94,20.94,0,0,1,422.25,146a20.68,20.68,0,0,1,9.77,2.28,21.47,21.47,0,0,1,7.19,6,24.4,24.4,0,0,1,4.15,8.61,26.49,26.49,0,0,1,.67,10H410.12Zm23.74-6.69a16.38,16.38,0,0,0-1-4.64,12.41,12.41,0,0,0-2.32-3.88,11.54,11.54,0,0,0-3.57-2.68,10.54,10.54,0,0,0-4.69-1,12.22,12.22,0,0,0-4.86.94,11.11,11.11,0,0,0-3.75,2.59,12.8,12.8,0,0,0-2.5,3.88,13.53,13.53,0,0,0-1,4.82h23.74Z" transform="translate(-86.73 -128.19)"/><path class="cls-2" d="M445.19,147.29h7.68V133.45H463v13.83h9.19v7.59H463v24.63a24.64,24.64,0,0,0,.13,2.77,4.75,4.75,0,0,0,.63,2,3,3,0,0,0,1.47,1.21,7.25,7.25,0,0,0,2.68.4c0.71,0,1.43,0,2.14,0a10.65,10.65,0,0,0,2.14-.31v7.85l-3.3.36a29.88,29.88,0,0,1-3.3.18,22.55,22.55,0,0,1-6.47-.76,8.61,8.61,0,0,1-3.84-2.23,7.67,7.67,0,0,1-1.87-3.7,27.69,27.69,0,0,1-.58-5.09V154.88h-7.68v-7.59Z" transform="translate(-86.73 -128.19)"/><path class="cls-2" d="M508.12,178.62q0.45,4.46,3.39,6.25a13.35,13.35,0,0,0,7.05,1.79,27.13,27.13,0,0,0,3.26-.22,14.11,14.11,0,0,0,3.44-.85,6.46,6.46,0,0,0,2.63-1.83,4.4,4.4,0,0,0,.94-3.17,4.5,4.5,0,0,0-1.43-3.21,9.92,9.92,0,0,0-3.44-2,33.33,33.33,0,0,0-4.77-1.29q-2.68-.54-5.45-1.16a50.73,50.73,0,0,1-5.49-1.52,17.65,17.65,0,0,1-4.73-2.41,11.12,11.12,0,0,1-3.35-3.88,12.39,12.39,0,0,1-1.25-5.85,10.49,10.49,0,0,1,1.83-6.29,14,14,0,0,1,4.64-4.11,20.22,20.22,0,0,1,6.25-2.19,36.83,36.83,0,0,1,6.56-.62,30.08,30.08,0,0,1,6.83.76,18.6,18.6,0,0,1,5.89,2.46,14.43,14.43,0,0,1,4.37,4.42,15.31,15.31,0,0,1,2.19,6.56H526.86q-0.72-3.66-3.35-4.91a13.89,13.89,0,0,0-6-1.25,21.76,21.76,0,0,0-2.54.18,11.81,11.81,0,0,0-2.77.67,5.8,5.8,0,0,0-2.19,1.43,3.41,3.41,0,0,0-.89,2.45,3.88,3.88,0,0,0,1.29,3,10.19,10.19,0,0,0,3.39,1.92,33.18,33.18,0,0,0,4.78,1.29q2.68,0.54,5.53,1.16t5.45,1.52a17.62,17.62,0,0,1,4.78,2.41,11.74,11.74,0,0,1,3.39,3.84,11.61,11.61,0,0,1,1.29,5.71,12.42,12.42,0,0,1-1.87,7,14.81,14.81,0,0,1-4.87,4.64,22.09,22.09,0,0,1-6.65,2.59,33.68,33.68,0,0,1-7.23.8,31.47,31.47,0,0,1-8.08-1,18.81,18.81,0,0,1-6.43-3,14.41,14.41,0,0,1-4.28-5,15.88,15.88,0,0,1-1.65-7.1h10.17Z" transform="translate(-86.73 -128.19)"/><path class="cls-2" d="M540.16,147.29h7.68V133.45H558v13.83h9.19v7.59H558v24.63a24.64,24.64,0,0,0,.13,2.77,4.75,4.75,0,0,0,.63,2,3,3,0,0,0,1.47,1.21,7.25,7.25,0,0,0,2.68.4c0.71,0,1.43,0,2.14,0a10.65,10.65,0,0,0,2.14-.31v7.85l-3.3.36a29.88,29.88,0,0,1-3.3.18,22.55,22.55,0,0,1-6.47-.76,8.61,8.61,0,0,1-3.84-2.23,7.67,7.67,0,0,1-1.87-3.7,27.69,27.69,0,0,1-.58-5.09V154.88h-7.68v-7.59Z" transform="translate(-86.73 -128.19)"/><path class="cls-2" d="M611.21,183.17a5.39,5.39,0,0,0,.49,2.68,2.07,2.07,0,0,0,1.92.8h1.07a6.61,6.61,0,0,0,1.43-.18v7.05q-0.53.18-1.38,0.4t-1.74.4q-0.89.18-1.79,0.27c-0.59.06-1.1,0.09-1.52,0.09a9.8,9.8,0,0,1-5.18-1.25,6.21,6.21,0,0,1-2.68-4.37,18,18,0,0,1-7.45,4.29,29.36,29.36,0,0,1-8.52,1.34,20.89,20.89,0,0,1-6-.85,15.64,15.64,0,0,1-5-2.5,12,12,0,0,1-3.48-4.2,12.91,12.91,0,0,1-1.29-5.94,13.7,13.7,0,0,1,1.56-7,11.57,11.57,0,0,1,4.11-4.19,18.52,18.52,0,0,1,5.71-2.19q3.17-.67,6.38-1a52.51,52.51,0,0,1,5.27-.76,24.68,24.68,0,0,0,4.42-.76,6.77,6.77,0,0,0,3-1.65,4.55,4.55,0,0,0,1.12-3.35,5.21,5.21,0,0,0-.94-3.21,6.29,6.29,0,0,0-2.32-1.92,10.07,10.07,0,0,0-3.08-.89,24.73,24.73,0,0,0-3.21-.22,12.78,12.78,0,0,0-7.05,1.79,7,7,0,0,0-3.12,5.53H571.76A15.32,15.32,0,0,1,573.9,154a14.79,14.79,0,0,1,4.78-4.73,19.54,19.54,0,0,1,6.56-2.5,39.09,39.09,0,0,1,7.5-.71,31.62,31.62,0,0,1,6.69.71,19,19,0,0,1,5.94,2.32,12.87,12.87,0,0,1,4.24,4.15,11.39,11.39,0,0,1,1.61,6.2v23.74ZM601,170.32a12.33,12.33,0,0,1-5.71,1.83q-3.39.31-6.78,0.94a21.92,21.92,0,0,0-3.12.76,9.42,9.42,0,0,0-2.68,1.34,5.89,5.89,0,0,0-1.83,2.23,7.63,7.63,0,0,0-.67,3.35,4.26,4.26,0,0,0,1,2.86,7.09,7.09,0,0,0,2.37,1.83,10.94,10.94,0,0,0,3,.94,18.93,18.93,0,0,0,3,.27,16.56,16.56,0,0,0,3.66-.45,12.16,12.16,0,0,0,3.7-1.52,9.73,9.73,0,0,0,2.9-2.72A6.89,6.89,0,0,0,601,177.9v-7.59Z" transform="translate(-86.73 -128.19)"/><path class="cls-2" d="M620.22,147.29h9.55v8.93H630a10.3,10.3,0,0,1,1.74-3.66,16.88,16.88,0,0,1,3.12-3.26,15.76,15.76,0,0,1,4.06-2.37,12.18,12.18,0,0,1,4.55-.89,22.27,22.27,0,0,1,2.46.09l1.38,0.18v9.82q-1.07-.18-2.19-0.31a18.23,18.23,0,0,0-2.19-.13,11.7,11.7,0,0,0-4.86,1,11.16,11.16,0,0,0-4,3,14.83,14.83,0,0,0-2.68,5,21.39,21.39,0,0,0-1,6.78v22H620.22V147.29Z" transform="translate(-86.73 -128.19)"/><path class="cls-2" d="M645,147.29h7.68V133.45h10.18v13.83h9.19v7.59h-9.19v24.63a24.64,24.64,0,0,0,.13,2.77,4.75,4.75,0,0,0,.63,2,3,3,0,0,0,1.47,1.21,7.25,7.25,0,0,0,2.68.4c0.71,0,1.43,0,2.14,0a10.65,10.65,0,0,0,2.14-.31v7.85l-3.3.36a29.88,29.88,0,0,1-3.3.18,22.55,22.55,0,0,1-6.47-.76,8.61,8.61,0,0,1-3.84-2.23,7.67,7.67,0,0,1-1.87-3.7,27.69,27.69,0,0,1-.58-5.09V154.88H645v-7.59Z" transform="translate(-86.73 -128.19)"/><path class="cls-2" d="M685.38,173a17.71,17.71,0,0,0,.76,5.18,12.72,12.72,0,0,0,2.28,4.37,10.94,10.94,0,0,0,3.84,3,12.64,12.64,0,0,0,5.53,1.12,12.22,12.22,0,0,0,7.18-1.92A11.35,11.35,0,0,0,709,179h9.64a19.13,19.13,0,0,1-7.5,11.65,20.39,20.39,0,0,1-6.2,3,25,25,0,0,1-7.18,1,24.44,24.44,0,0,1-9.64-1.79,19.91,19.91,0,0,1-7.1-5,21.18,21.18,0,0,1-4.37-7.68,31.19,31.19,0,0,1-1.47-9.82,27.79,27.79,0,0,1,1.56-9.33,23.88,23.88,0,0,1,4.46-7.77A20.94,20.94,0,0,1,697.52,146a20.69,20.69,0,0,1,9.77,2.28,21.46,21.46,0,0,1,7.18,6,24.4,24.4,0,0,1,4.15,8.61,26.45,26.45,0,0,1,.67,10H685.38Zm23.74-6.69a16.42,16.42,0,0,0-1-4.64,12.43,12.43,0,0,0-2.32-3.88,11.55,11.55,0,0,0-3.57-2.68,10.54,10.54,0,0,0-4.69-1,12.23,12.23,0,0,0-4.87.94,11.12,11.12,0,0,0-3.75,2.59,12.82,12.82,0,0,0-2.5,3.88,13.55,13.55,0,0,0-1,4.82h23.74Z" transform="translate(-86.73 -128.19)"/><path class="cls-2" d="M768.57,193.43h-9.64v-6.25h-0.18a12.09,12.09,0,0,1-6,5.76,20.27,20.27,0,0,1-8.3,1.74,22.05,22.05,0,0,1-9.51-1.92,19,19,0,0,1-6.74-5.22,22.34,22.34,0,0,1-4-7.81,33.85,33.85,0,0,1-1.34-9.68,30.92,30.92,0,0,1,1.7-10.8,21.61,21.61,0,0,1,4.51-7.5,17.44,17.44,0,0,1,6.43-4.33,20.46,20.46,0,0,1,7.36-1.38,24.69,24.69,0,0,1,4.37.4,19.37,19.37,0,0,1,4.28,1.29,16.94,16.94,0,0,1,3.79,2.28,12.64,12.64,0,0,1,2.9,3.26h0.18V129.71h10.18v63.73ZM733,170.85a22.5,22.5,0,0,0,.76,5.8,15.86,15.86,0,0,0,2.32,5.09,11.72,11.72,0,0,0,4,3.57,11.58,11.58,0,0,0,5.71,1.34,11.42,11.42,0,0,0,5.85-1.43,12.12,12.12,0,0,0,4-3.75,17,17,0,0,0,2.32-5.22,23.4,23.4,0,0,0,.76-5.94q0-7.68-3.44-12a11.32,11.32,0,0,0-9.33-4.28,11.52,11.52,0,0,0-6,1.47,12.38,12.38,0,0,0-4,3.84,15.94,15.94,0,0,0-2.23,5.35A27.92,27.92,0,0,0,733,170.85Z" transform="translate(-86.73 -128.19)"/><path class="cls-2" d="M796.32,147.29h10.8l9,34.45h0.18L825,147.29h10.26l8.3,34.45h0.18l9.37-34.45h10.35L849,193.43H838.54L830,159.16h-0.18l-8.48,34.27H810.6Z" transform="translate(-86.73 -128.19)"/><path class="cls-2" d="M868.26,129.71h10.18v9.64H868.26v-9.64Zm0,17.58h10.18v46.15H868.26V147.29Z" transform="translate(-86.73 -128.19)"/><path class="cls-2" d="M882.9,147.29h7.68V133.45h10.18v13.83h9.19v7.59h-9.19v24.63a24.64,24.64,0,0,0,.13,2.77,4.75,4.75,0,0,0,.63,2,3,3,0,0,0,1.47,1.21,7.25,7.25,0,0,0,2.68.4c0.71,0,1.43,0,2.14,0a10.65,10.65,0,0,0,2.14-.31v7.85l-3.3.36a29.88,29.88,0,0,1-3.3.18,22.55,22.55,0,0,1-6.47-.76,8.61,8.61,0,0,1-3.84-2.23,7.67,7.67,0,0,1-1.87-3.7,27.69,27.69,0,0,1-.58-5.09V154.88H882.9v-7.59Z" transform="translate(-86.73 -128.19)"/><path class="cls-2" d="M915.3,129.71h10.17v23.65h0.18a14.83,14.83,0,0,1,5.58-5.22,16.46,16.46,0,0,1,8.26-2.1q7.58,0,12,3.93t4.37,11.78v31.69H945.65v-29q-0.18-5.44-2.32-7.9t-6.69-2.46A11,11,0,0,0,932,155a10.06,10.06,0,0,0-3.48,2.59,12.16,12.16,0,0,0-2.23,3.88,13.88,13.88,0,0,0-.8,4.73v27.22H915.3V129.71Z" transform="translate(-86.73 -128.19)"/><path class="cls-2" d="M988.85,129.71h45.88v9.64H1000V156h32.13v9.1H1000v18.65h35.35v9.64h-46.5V129.71Z" transform="translate(-86.73 -128.19)"/><path class="cls-2" d="M1054.09,169.16l-16-21.87h12.32l9.64,14.19,10.09-14.19h11.78l-15.71,21.33,17.67,24.81h-12.23l-11.69-17-11.34,17h-12Z" transform="translate(-86.73 -128.19)"/><path class="cls-2" d="M1087.92,147.29h9.64v6.25h0.18a12.58,12.58,0,0,1,6-5.76A19.86,19.86,0,0,1,1112,146a22,22,0,0,1,9.51,1.92,18.75,18.75,0,0,1,6.74,5.27,22.88,22.88,0,0,1,4,7.81,33.09,33.09,0,0,1,1.34,9.55,33.75,33.75,0,0,1-1.21,9,23.45,23.45,0,0,1-3.66,7.72,17.84,17.84,0,0,1-15,7.36,25.16,25.16,0,0,1-4.46-.4A19.32,19.32,0,0,1,1105,193a16.77,16.77,0,0,1-3.79-2.28,12.59,12.59,0,0,1-2.9-3.26h-0.18v23h-10.18V147.29Zm35.52,23.12a23,23,0,0,0-.8-6.07,16.48,16.48,0,0,0-2.41-5.22,12.44,12.44,0,0,0-4-3.66,10.92,10.92,0,0,0-5.53-1.38q-6.43,0-9.68,4.46t-3.26,11.87a23.6,23.6,0,0,0,.85,6.47,14.55,14.55,0,0,0,2.54,5.13,12.67,12.67,0,0,0,4.06,3.39,11.56,11.56,0,0,0,5.49,1.25,11.36,11.36,0,0,0,5.89-1.43,12.45,12.45,0,0,0,4-3.7,15,15,0,0,0,2.23-5.18A26.3,26.3,0,0,0,1123.44,170.41Z" transform="translate(-86.73 -128.19)"/><path class="cls-2" d="M1140.22,147.29h9.55v8.93H1150a10.3,10.3,0,0,1,1.74-3.66,16.88,16.88,0,0,1,3.12-3.26,15.76,15.76,0,0,1,4.06-2.37,12.18,12.18,0,0,1,4.55-.89,22.27,22.27,0,0,1,2.46.09l1.38,0.18v9.82q-1.07-.18-2.19-0.31a18.23,18.23,0,0,0-2.19-.13,11.7,11.7,0,0,0-4.86,1,11.16,11.16,0,0,0-4,3,14.83,14.83,0,0,0-2.68,5,21.39,21.39,0,0,0-1,6.78v22h-10.17V147.29Z" transform="translate(-86.73 -128.19)"/><path class="cls-2" d="M1176,173a17.71,17.71,0,0,0,.76,5.18,12.72,12.72,0,0,0,2.28,4.37,10.94,10.94,0,0,0,3.84,3,12.64,12.64,0,0,0,5.53,1.12,12.22,12.22,0,0,0,7.18-1.92,11.35,11.35,0,0,0,4.06-5.76h9.64a19.13,19.13,0,0,1-7.5,11.65,20.39,20.39,0,0,1-6.2,3,25,25,0,0,1-7.18,1,24.44,24.44,0,0,1-9.64-1.79,19.91,19.91,0,0,1-7.1-5,21.18,21.18,0,0,1-4.37-7.68,31.19,31.19,0,0,1-1.47-9.82,27.79,27.79,0,0,1,1.56-9.33,23.88,23.88,0,0,1,4.46-7.77,20.94,20.94,0,0,1,16.29-7.27,20.69,20.69,0,0,1,9.77,2.28,21.46,21.46,0,0,1,7.18,6,24.4,24.4,0,0,1,4.15,8.61,26.45,26.45,0,0,1,.67,10H1176Zm23.74-6.69a16.42,16.42,0,0,0-1-4.64,12.43,12.43,0,0,0-2.32-3.88,11.55,11.55,0,0,0-3.57-2.68,10.54,10.54,0,0,0-4.69-1,12.23,12.23,0,0,0-4.87.94,11.12,11.12,0,0,0-3.75,2.59,12.82,12.82,0,0,0-2.5,3.88,13.55,13.55,0,0,0-1,4.82h23.74Z" transform="translate(-86.73 -128.19)"/><path class="cls-2" d="M1223.41,178.62q0.45,4.46,3.39,6.25a13.35,13.35,0,0,0,7.05,1.79,27.13,27.13,0,0,0,3.26-.22,14.11,14.11,0,0,0,3.44-.85,6.46,6.46,0,0,0,2.63-1.83,4.4,4.4,0,0,0,.94-3.17,4.5,4.5,0,0,0-1.43-3.21,9.92,9.92,0,0,0-3.44-2,33.33,33.33,0,0,0-4.77-1.29q-2.68-.54-5.45-1.16a50.73,50.73,0,0,1-5.49-1.52,17.65,17.65,0,0,1-4.73-2.41,11.12,11.12,0,0,1-3.35-3.88,12.39,12.39,0,0,1-1.25-5.85A10.49,10.49,0,0,1,1216,153a14,14,0,0,1,4.64-4.11,20.22,20.22,0,0,1,6.25-2.19,36.83,36.83,0,0,1,6.56-.62,30.08,30.08,0,0,1,6.83.76,18.6,18.6,0,0,1,5.89,2.46,14.43,14.43,0,0,1,4.37,4.42,15.31,15.31,0,0,1,2.19,6.56h-10.62q-0.72-3.66-3.35-4.91a13.89,13.89,0,0,0-6-1.25,21.76,21.76,0,0,0-2.54.18,11.81,11.81,0,0,0-2.77.67,5.8,5.8,0,0,0-2.19,1.43,3.41,3.41,0,0,0-.89,2.45,3.88,3.88,0,0,0,1.29,3,10.19,10.19,0,0,0,3.39,1.92,33.18,33.18,0,0,0,4.78,1.29q2.68,0.54,5.53,1.16t5.45,1.52a17.62,17.62,0,0,1,4.78,2.41A11.74,11.74,0,0,1,1253,174a11.61,11.61,0,0,1,1.29,5.71,12.42,12.42,0,0,1-1.87,7,14.81,14.81,0,0,1-4.87,4.64,22.09,22.09,0,0,1-6.65,2.59,33.68,33.68,0,0,1-7.23.8,31.47,31.47,0,0,1-8.08-1,18.81,18.81,0,0,1-6.43-3,14.41,14.41,0,0,1-4.28-5,15.88,15.88,0,0,1-1.65-7.1h10.17Z" transform="translate(-86.73 -128.19)"/><path class="cls-2" d="M1267.77,178.62q0.45,4.46,3.39,6.25a13.35,13.35,0,0,0,7.05,1.79,27.13,27.13,0,0,0,3.26-.22,14.11,14.11,0,0,0,3.44-.85,6.46,6.46,0,0,0,2.63-1.83,4.4,4.4,0,0,0,.94-3.17,4.5,4.5,0,0,0-1.43-3.21,9.92,9.92,0,0,0-3.44-2,33.33,33.33,0,0,0-4.77-1.29q-2.68-.54-5.45-1.16a50.73,50.73,0,0,1-5.49-1.52,17.65,17.65,0,0,1-4.73-2.41,11.12,11.12,0,0,1-3.35-3.88,12.39,12.39,0,0,1-1.25-5.85,10.49,10.49,0,0,1,1.83-6.29,14,14,0,0,1,4.64-4.11,20.22,20.22,0,0,1,6.25-2.19,36.83,36.83,0,0,1,6.56-.62,30.08,30.08,0,0,1,6.83.76,18.6,18.6,0,0,1,5.89,2.46,14.43,14.43,0,0,1,4.37,4.42,15.31,15.31,0,0,1,2.19,6.56h-10.62q-0.72-3.66-3.35-4.91a13.89,13.89,0,0,0-6-1.25,21.76,21.76,0,0,0-2.54.18,11.81,11.81,0,0,0-2.77.67,5.8,5.8,0,0,0-2.19,1.43,3.41,3.41,0,0,0-.89,2.45,3.88,3.88,0,0,0,1.29,3,10.19,10.19,0,0,0,3.39,1.92,33.18,33.18,0,0,0,4.78,1.29q2.68,0.54,5.53,1.16t5.45,1.52a17.62,17.62,0,0,1,4.78,2.41,11.74,11.74,0,0,1,3.39,3.84,11.61,11.61,0,0,1,1.29,5.71,12.42,12.42,0,0,1-1.87,7,14.81,14.81,0,0,1-4.87,4.64,22.09,22.09,0,0,1-6.65,2.59,33.68,33.68,0,0,1-7.23.8,31.47,31.47,0,0,1-8.08-1,18.81,18.81,0,0,1-6.43-3,14.41,14.41,0,0,1-4.28-5,15.88,15.88,0,0,1-1.65-7.1h10.17Z" transform="translate(-86.73 -128.19)"/><path class="cls-2" d="M1384.34,193.43h-7.14l-1.7-7.5a26.52,26.52,0,0,1-8.93,7.05,25.28,25.28,0,0,1-10.26,2,30.07,30.07,0,0,1-12.81-2.63,28.17,28.17,0,0,1-9.6-7.19,32.11,32.11,0,0,1-6-10.62,40.7,40.7,0,0,1,0-25.8,32.13,32.13,0,0,1,6-10.62,28.67,28.67,0,0,1,9.6-7.23,29.62,29.62,0,0,1,12.81-2.68,34.71,34.71,0,0,1,9.86,1.38,26.4,26.4,0,0,1,8.35,4.11,22.78,22.78,0,0,1,6.07,6.83,24,24,0,0,1,3,9.46h-10.89a13.67,13.67,0,0,0-5.62-9.46,16.23,16.23,0,0,0-5-2.41,20.72,20.72,0,0,0-5.8-.8,17.86,17.86,0,0,0-8.79,2.05,17.24,17.24,0,0,0-6,5.49,24.76,24.76,0,0,0-3.44,7.81,36.28,36.28,0,0,0,0,17.85,24.74,24.74,0,0,0,3.44,7.81,17.22,17.22,0,0,0,6,5.49,17.85,17.85,0,0,0,8.79,2.05,20.77,20.77,0,0,0,7.59-1.12,15.07,15.07,0,0,0,5.58-3.48,14.6,14.6,0,0,0,3.44-5.58,23.56,23.56,0,0,0,1.25-7.32h-17v-8.48h27.13v33.56Z" transform="translate(-86.73 -128.19)"/><path class="cls-2" d="M1431.73,183.17a5.39,5.39,0,0,0,.49,2.68,2.07,2.07,0,0,0,1.92.8h1.07a6.61,6.61,0,0,0,1.43-.18v7.05q-0.53.18-1.38,0.4t-1.74.4q-0.89.18-1.79,0.27c-0.59.06-1.1,0.09-1.52,0.09a9.8,9.8,0,0,1-5.18-1.25,6.21,6.21,0,0,1-2.68-4.37,18,18,0,0,1-7.45,4.29,29.36,29.36,0,0,1-8.52,1.34,20.89,20.89,0,0,1-6-.85,15.64,15.64,0,0,1-5-2.5,12,12,0,0,1-3.48-4.2,12.91,12.91,0,0,1-1.29-5.94,13.7,13.7,0,0,1,1.56-7,11.57,11.57,0,0,1,4.11-4.19,18.52,18.52,0,0,1,5.71-2.19q3.17-.67,6.38-1a52.51,52.51,0,0,1,5.27-.76,24.68,24.68,0,0,0,4.42-.76,6.77,6.77,0,0,0,3-1.65,4.55,4.55,0,0,0,1.12-3.35,5.21,5.21,0,0,0-.94-3.21,6.29,6.29,0,0,0-2.32-1.92,10.07,10.07,0,0,0-3.08-.89,24.73,24.73,0,0,0-3.21-.22,12.78,12.78,0,0,0-7.05,1.79,7,7,0,0,0-3.12,5.53h-10.18a15.32,15.32,0,0,1,2.14-7.41,14.79,14.79,0,0,1,4.78-4.73,19.54,19.54,0,0,1,6.56-2.5,39.09,39.09,0,0,1,7.5-.71,31.62,31.62,0,0,1,6.69.71,19,19,0,0,1,5.94,2.32,12.87,12.87,0,0,1,4.24,4.15,11.39,11.39,0,0,1,1.61,6.2v23.74Zm-10.17-12.85a12.33,12.33,0,0,1-5.71,1.83q-3.39.31-6.78,0.94a21.92,21.92,0,0,0-3.12.76,9.42,9.42,0,0,0-2.68,1.34,5.89,5.89,0,0,0-1.83,2.23,7.63,7.63,0,0,0-.67,3.35,4.26,4.26,0,0,0,1,2.86,7.09,7.09,0,0,0,2.37,1.83,10.94,10.94,0,0,0,3,.94,18.93,18.93,0,0,0,3,.27,16.56,16.56,0,0,0,3.66-.45,12.16,12.16,0,0,0,3.7-1.52,9.73,9.73,0,0,0,2.9-2.72,6.89,6.89,0,0,0,1.16-4.06v-7.59Z" transform="translate(-86.73 -128.19)"/><path class="cls-2" d="M1436.11,147.29h7.68V133.45H1454v13.83h9.19v7.59H1454v24.63a24.64,24.64,0,0,0,.13,2.77,4.75,4.75,0,0,0,.63,2,3,3,0,0,0,1.47,1.21,7.25,7.25,0,0,0,2.68.4c0.71,0,1.43,0,2.14,0a10.65,10.65,0,0,0,2.14-.31v7.85l-3.3.36a29.88,29.88,0,0,1-3.3.18,22.55,22.55,0,0,1-6.47-.76,8.61,8.61,0,0,1-3.84-2.23,7.67,7.67,0,0,1-1.87-3.7,27.69,27.69,0,0,1-.58-5.09V154.88h-7.68v-7.59Z" transform="translate(-86.73 -128.19)"/><path class="cls-2" d="M1476.45,173a17.71,17.71,0,0,0,.76,5.18,12.72,12.72,0,0,0,2.28,4.37,10.94,10.94,0,0,0,3.84,3,12.64,12.64,0,0,0,5.53,1.12,12.22,12.22,0,0,0,7.18-1.92,11.35,11.35,0,0,0,4.06-5.76h9.64a19.13,19.13,0,0,1-7.5,11.65,20.39,20.39,0,0,1-6.2,3,25,25,0,0,1-7.18,1,24.44,24.44,0,0,1-9.64-1.79,19.91,19.91,0,0,1-7.1-5,21.18,21.18,0,0,1-4.37-7.68,31.19,31.19,0,0,1-1.47-9.82,27.79,27.79,0,0,1,1.56-9.33,23.88,23.88,0,0,1,4.46-7.77,20.94,20.94,0,0,1,16.29-7.27,20.69,20.69,0,0,1,9.77,2.28,21.46,21.46,0,0,1,7.18,6,24.4,24.4,0,0,1,4.15,8.61,26.45,26.45,0,0,1,.67,10h-33.92Zm23.74-6.69a16.42,16.42,0,0,0-1-4.64,12.43,12.43,0,0,0-2.32-3.88,11.55,11.55,0,0,0-3.57-2.68,10.54,10.54,0,0,0-4.69-1,12.23,12.23,0,0,0-4.87.94,11.12,11.12,0,0,0-3.75,2.59,12.82,12.82,0,0,0-2.5,3.88,13.55,13.55,0,0,0-1,4.82h23.74Z" transform="translate(-86.73 -128.19)"/><path class="cls-2" d="M1512,147.29h10.8l9,34.45H1532l8.66-34.45h10.26l8.3,34.45h0.18l9.37-34.45h10.35l-14.46,46.15h-10.44l-8.57-34.27h-0.18L1537,193.43h-10.71Z" transform="translate(-86.73 -128.19)"/><path class="cls-2" d="M1622.29,183.17a5.39,5.39,0,0,0,.49,2.68,2.07,2.07,0,0,0,1.92.8h1.07a6.61,6.61,0,0,0,1.43-.18v7.05q-0.53.18-1.38,0.4t-1.74.4q-0.89.18-1.79,0.27c-0.59.06-1.1,0.09-1.52,0.09a9.8,9.8,0,0,1-5.18-1.25,6.21,6.21,0,0,1-2.68-4.37,18,18,0,0,1-7.45,4.29,29.36,29.36,0,0,1-8.52,1.34,20.89,20.89,0,0,1-6-.85,15.64,15.64,0,0,1-5-2.5,12,12,0,0,1-3.48-4.2,12.91,12.91,0,0,1-1.29-5.94,13.7,13.7,0,0,1,1.56-7,11.57,11.57,0,0,1,4.11-4.19,18.52,18.52,0,0,1,5.71-2.19q3.17-.67,6.38-1a52.51,52.51,0,0,1,5.27-.76,24.68,24.68,0,0,0,4.42-.76,6.77,6.77,0,0,0,3-1.65,4.55,4.55,0,0,0,1.12-3.35,5.21,5.21,0,0,0-.94-3.21,6.29,6.29,0,0,0-2.32-1.92,10.07,10.07,0,0,0-3.08-.89,24.73,24.73,0,0,0-3.21-.22,12.78,12.78,0,0,0-7.05,1.79,7,7,0,0,0-3.12,5.53h-10.18A15.32,15.32,0,0,1,1585,154a14.79,14.79,0,0,1,4.78-4.73,19.54,19.54,0,0,1,6.56-2.5,39.09,39.09,0,0,1,7.5-.71,31.62,31.62,0,0,1,6.69.71,19,19,0,0,1,5.94,2.32,12.87,12.87,0,0,1,4.24,4.15,11.39,11.39,0,0,1,1.61,6.2v23.74Zm-10.17-12.85a12.33,12.33,0,0,1-5.71,1.83q-3.39.31-6.78,0.94a21.92,21.92,0,0,0-3.12.76,9.42,9.42,0,0,0-2.68,1.34,5.89,5.89,0,0,0-1.83,2.23,7.63,7.63,0,0,0-.67,3.35,4.26,4.26,0,0,0,1,2.86,7.09,7.09,0,0,0,2.37,1.83,10.94,10.94,0,0,0,3,.94,18.93,18.93,0,0,0,3,.27,16.56,16.56,0,0,0,3.66-.45,12.16,12.16,0,0,0,3.7-1.52A9.73,9.73,0,0,0,1611,182a6.89,6.89,0,0,0,1.16-4.06v-7.59Z" transform="translate(-86.73 -128.19)"/><path class="cls-2" d="M1626.22,147.29h11.16l12,34.45h0.18l11.69-34.45h10.62L1654,195.93q-1.25,3.12-2.45,6a21.43,21.43,0,0,1-2.95,5,12.75,12.75,0,0,1-4.33,3.48,14.76,14.76,0,0,1-6.61,1.29,46.24,46.24,0,0,1-7.05-.54v-8.57q1.25,0.18,2.41.4a12.76,12.76,0,0,0,2.41.22,8.31,8.31,0,0,0,2.95-.45,4.89,4.89,0,0,0,1.92-1.29,8.12,8.12,0,0,0,1.29-2,19.94,19.94,0,0,0,1-2.68l1.16-3.57Z" transform="translate(-86.73 -128.19)"/></g><g class="cls-1"><path class="cls-2" d="M627.86,925.53a23.49,23.49,0,0,0,5-.36,13.9,13.9,0,0,0,4.46-1.56,8.74,8.74,0,0,0,3.17-3.08,9,9,0,0,0,1.21-4.82,8.16,8.16,0,0,0-2.72-6.43,10.18,10.18,0,0,0-7-2.41,9.21,9.21,0,0,0-7.9,4,13,13,0,0,0-1.92,4.11,15.41,15.41,0,0,0-.54,4.69H611.43a25.77,25.77,0,0,1,1.7-8.43,21.21,21.21,0,0,1,4.15-6.74,18.43,18.43,0,0,1,6.38-4.46,21.33,21.33,0,0,1,8.48-1.61,24.6,24.6,0,0,1,7.19,1.07,21,21,0,0,1,6.34,3.12,15.35,15.35,0,0,1,4.51,5.22,15.2,15.2,0,0,1,1.7,7.27,15.58,15.58,0,0,1-2.14,8.26,12.25,12.25,0,0,1-6.69,5.13v0.18a12.9,12.9,0,0,1,8.35,5.31,19,19,0,0,1,1.2,18.3,18.14,18.14,0,0,1-4.82,6,22.29,22.29,0,0,1-7.05,3.79,28.63,28.63,0,0,1-18-.22,18.23,18.23,0,0,1-6.78-4.42,19.05,19.05,0,0,1-4.15-6.87,28,28,0,0,1-1.52-8.93h10.18a14.12,14.12,0,0,0,2.81,9.51q3,3.8,9,3.79a12.76,12.76,0,0,0,8.52-2.9q3.44-2.9,3.44-8.26a10.34,10.34,0,0,0-1.43-5.8,9.26,9.26,0,0,0-3.75-3.26,15.2,15.2,0,0,0-5.22-1.38,49.25,49.25,0,0,0-5.94-.18v-7.59Z" transform="translate(-86.73 -128.19)"/></g><g class="cls-1"><path class="cls-3" d="M712.42,938.15a10.61,10.61,0,0,0,.93,4.65,8.4,8.4,0,0,0,2.59,3.16,11,11,0,0,0,3.82,1.79,18.46,18.46,0,0,0,4.69.56,15.06,15.06,0,0,0,4.65-.63,9.41,9.41,0,0,0,3.12-1.63,5.89,5.89,0,0,0,1.73-2.29,6.86,6.86,0,0,0,.53-2.63,5.68,5.68,0,0,0-1.23-4,7,7,0,0,0-2.69-1.83,56.71,56.71,0,0,0-5.88-1.76q-3.36-.83-8.28-2.16a17.72,17.72,0,0,1-5.08-2.09,12.12,12.12,0,0,1-3.22-2.89A10.16,10.16,0,0,1,706.4,923a13.59,13.59,0,0,1-.5-3.66,12.35,12.35,0,0,1,1.5-6.21,13.3,13.3,0,0,1,4-4.35,17.39,17.39,0,0,1,5.58-2.56,24.48,24.48,0,0,1,6.31-.83,24.87,24.87,0,0,1,7,1,17.34,17.34,0,0,1,5.78,2.89,13.72,13.72,0,0,1,5.42,11.3h-8.31q-0.33-4.59-3.12-6.48a12.41,12.41,0,0,0-7.11-1.89,15.57,15.57,0,0,0-3,.3,9.52,9.52,0,0,0-2.79,1,6.12,6.12,0,0,0-2.09,1.89,5.79,5.79,0,0,0,.73,6.95,10.08,10.08,0,0,0,4.09,2.16L722,925l4.09,1.1,4.42,1.16q2.16,0.57,3.09.83a13.92,13.92,0,0,1,4.05,2A12.82,12.82,0,0,1,740.5,933a12,12,0,0,1,1.73,3.49,12.79,12.79,0,0,1,.56,3.72,13.43,13.43,0,0,1-1.63,6.81,13.84,13.84,0,0,1-4.29,4.62,18.64,18.64,0,0,1-6,2.63,28.94,28.94,0,0,1-6.91.83,28.43,28.43,0,0,1-7.64-1A17.89,17.89,0,0,1,710,951a15,15,0,0,1-4.25-5.28,17.59,17.59,0,0,1-1.66-7.61h8.31Z" transform="translate(-86.73 -128.19)"/><path class="cls-3" d="M753.89,938.75a13.19,13.19,0,0,0,.56,3.86,9.47,9.47,0,0,0,1.69,3.26,8.16,8.16,0,0,0,2.86,2.23,9.42,9.42,0,0,0,4.12.83,9.09,9.09,0,0,0,5.35-1.43,8.44,8.44,0,0,0,3-4.29h7.18a14.25,14.25,0,0,1-5.58,8.67,15.2,15.2,0,0,1-4.62,2.26,18.63,18.63,0,0,1-5.35.76,18.2,18.2,0,0,1-7.18-1.33,14.85,14.85,0,0,1-5.28-3.72,15.78,15.78,0,0,1-3.26-5.72,23.21,23.21,0,0,1-1.1-7.31,20.68,20.68,0,0,1,1.16-6.95,17.76,17.76,0,0,1,3.32-5.78,15.59,15.59,0,0,1,12.13-5.42,15.41,15.41,0,0,1,7.28,1.69,16,16,0,0,1,5.35,4.49,18.18,18.18,0,0,1,3.09,6.41,19.71,19.71,0,0,1,.5,7.48H753.89Zm17.68-5a12.27,12.27,0,0,0-.76-3.46,9.26,9.26,0,0,0-1.73-2.89,8.59,8.59,0,0,0-2.66-2,7.85,7.85,0,0,0-3.49-.76,9.11,9.11,0,0,0-3.62.7,8.29,8.29,0,0,0-2.79,1.93,9.54,9.54,0,0,0-1.86,2.89,10.07,10.07,0,0,0-.76,3.59h17.68Z" transform="translate(-86.73 -128.19)"/><path class="cls-3" d="M807.14,931.1a7.11,7.11,0,0,0-2.56-4.82,8.36,8.36,0,0,0-5.28-1.63,10.9,10.9,0,0,0-3.12.5,7.41,7.41,0,0,0-3.06,1.86,10.45,10.45,0,0,0-2.33,3.79,18,18,0,0,0-.93,6.35,18.56,18.56,0,0,0,.5,4.25,11.63,11.63,0,0,0,1.6,3.79,8.63,8.63,0,0,0,2.83,2.69,8,8,0,0,0,4.19,1,7.63,7.63,0,0,0,5.48-2.06,9.58,9.58,0,0,0,2.69-5.78h7.58q-1.06,6.71-5.08,10.27T799,954.9a17.59,17.59,0,0,1-7.15-1.36,15.14,15.14,0,0,1-5.22-3.72,15.79,15.79,0,0,1-3.22-5.62,21.93,21.93,0,0,1-1.1-7,24.06,24.06,0,0,1,1.06-7.25,16.58,16.58,0,0,1,3.19-5.88,14.93,14.93,0,0,1,5.28-3.92,17.84,17.84,0,0,1,7.41-1.43,20.74,20.74,0,0,1,5.68.76,15,15,0,0,1,4.79,2.29,12.22,12.22,0,0,1,3.42,3.86,13.21,13.21,0,0,1,1.6,5.52h-7.58Z" transform="translate(-86.73 -128.19)"/><path class="cls-3" d="M850.08,954h-7.44v-4.79H842.5a10.4,10.4,0,0,1-4.15,4.15,11.29,11.29,0,0,1-5.62,1.56q-6.78,0-9.8-3.36t-3-10.14V919.6h7.58v21.07q0,4.52,1.73,6.38a6.29,6.29,0,0,0,4.85,1.86,9.56,9.56,0,0,0,4-.73,7.05,7.05,0,0,0,2.59-2,7.52,7.52,0,0,0,1.43-3,15.3,15.3,0,0,0,.43-3.72V919.6h7.58V954Z" transform="translate(-86.73 -128.19)"/><path class="cls-3" d="M857.06,919.6h7.11v6.65h0.13a7.67,7.67,0,0,1,1.3-2.73,12.61,12.61,0,0,1,2.33-2.43,11.73,11.73,0,0,1,3-1.76,9.06,9.06,0,0,1,3.39-.66,16.53,16.53,0,0,1,1.83.07l1,0.13v7.31c-0.53-.09-1.08-0.17-1.63-0.23a13.7,13.7,0,0,0-1.63-.1,8.71,8.71,0,0,0-3.62.76,8.32,8.32,0,0,0-3,2.26,11.07,11.07,0,0,0-2,3.69,15.94,15.94,0,0,0-.73,5.05V954h-7.58V919.6Z" transform="translate(-86.73 -128.19)"/><path class="cls-3" d="M884.18,938.75a13.16,13.16,0,0,0,.57,3.86,9.47,9.47,0,0,0,1.69,3.26,8.16,8.16,0,0,0,2.86,2.23,9.42,9.42,0,0,0,4.12.83,9.1,9.1,0,0,0,5.35-1.43,8.45,8.45,0,0,0,3-4.29H909a14.25,14.25,0,0,1-5.58,8.67,15.2,15.2,0,0,1-4.62,2.26,18.63,18.63,0,0,1-5.35.76,18.2,18.2,0,0,1-7.18-1.33,14.84,14.84,0,0,1-5.28-3.72,15.79,15.79,0,0,1-3.26-5.72,23.24,23.24,0,0,1-1.1-7.31,20.67,20.67,0,0,1,1.16-6.95,17.76,17.76,0,0,1,3.32-5.78,15.59,15.59,0,0,1,12.13-5.42,15.4,15.4,0,0,1,7.28,1.69,16,16,0,0,1,5.35,4.49,18.2,18.2,0,0,1,3.09,6.41,19.7,19.7,0,0,1,.5,7.48H884.18Zm17.68-5a12.27,12.27,0,0,0-.76-3.46,9.26,9.26,0,0,0-1.73-2.89,8.6,8.6,0,0,0-2.66-2,7.85,7.85,0,0,0-3.49-.76,9.12,9.12,0,0,0-3.62.7,8.28,8.28,0,0,0-2.79,1.93,9.52,9.52,0,0,0-1.86,2.89,10.07,10.07,0,0,0-.76,3.59h17.68Z" transform="translate(-86.73 -128.19)"/><path class="cls-3" d="M945.46,906.51h8.84L972.58,954h-8.91l-4.45-12.56H940.28L935.83,954h-8.57Zm-2.92,28.58H957l-7.11-20.41h-0.2Z" transform="translate(-86.73 -128.19)"/><path class="cls-3" d="M976.11,906.51H997a19.9,19.9,0,0,1,8.24,1.46,13,13,0,0,1,4.92,3.66,12.43,12.43,0,0,1,2.36,4.79,20.39,20.39,0,0,1,.63,4.79,20,20,0,0,1-.63,4.75,12.45,12.45,0,0,1-2.36,4.75,12.73,12.73,0,0,1-4.92,3.62,20.29,20.29,0,0,1-8.24,1.43H984.41V954h-8.31V906.51ZM984.41,929h12.17a10.84,10.84,0,0,0,2.86-.4,8.2,8.2,0,0,0,2.69-1.3,6.64,6.64,0,0,0,2-2.39,8.22,8.22,0,0,0,.76-3.76,9.73,9.73,0,0,0-.67-3.86,6.16,6.16,0,0,0-1.79-2.43,6.39,6.39,0,0,0-2.59-1.23,14.08,14.08,0,0,0-3.12-.33h-12.3V929Z" transform="translate(-86.73 -128.19)"/><path class="cls-3" d="M1019.44,906.51h8.31V954h-8.31V906.51Z" transform="translate(-86.73 -128.19)"/><path class="cls-3" d="M1050.22,919.6h8l6.71,25.66h0.13l6.45-25.66h7.64l6.18,25.66h0.13l7-25.66h7.71L1089.44,954h-7.78l-6.38-25.53h-0.13L1068.83,954h-8Z" transform="translate(-86.73 -128.19)"/><path class="cls-3" d="M1104.26,906.51h7.58v7.18h-7.58v-7.18Zm0,13.1h7.58V954h-7.58V919.6Z" transform="translate(-86.73 -128.19)"/><path class="cls-3" d="M1115.63,919.6h5.72V909.3h7.58v10.3h6.85v5.65h-6.85V943.6a18.33,18.33,0,0,0,.1,2.06,3.56,3.56,0,0,0,.46,1.46,2.22,2.22,0,0,0,1.1.9,5.39,5.39,0,0,0,2,.3c0.53,0,1.06,0,1.59,0a7.89,7.89,0,0,0,1.6-.23v5.85l-2.46.27a22.21,22.21,0,0,1-2.46.13,16.8,16.8,0,0,1-4.82-.56,6.42,6.42,0,0,1-2.86-1.66,5.72,5.72,0,0,1-1.4-2.76,20.66,20.66,0,0,1-.43-3.79V925.25h-5.72V919.6Z" transform="translate(-86.73 -128.19)"/><path class="cls-3" d="M1140.22,906.51h7.58v17.62h0.13a11,11,0,0,1,4.15-3.89,12.26,12.26,0,0,1,6.15-1.56q5.65,0,8.91,2.92t3.26,8.77V954h-7.58v-21.6q-0.13-4.05-1.73-5.88t-5-1.83a8.24,8.24,0,0,0-3.46.7,7.49,7.49,0,0,0-2.59,1.93,9.07,9.07,0,0,0-1.66,2.89,10.34,10.34,0,0,0-.6,3.52V954h-7.58V906.51Z" transform="translate(-86.73 -128.19)"/><path class="cls-3" d="M1195.06,906.51h7.58v27l13.69-13.89h9.31l-13.16,12.63L1226.9,954h-9.24l-10.5-16.68-4.52,4.39V954h-7.58V906.51Z" transform="translate(-86.73 -128.19)"/><path class="cls-3" d="M1235.47,938.75a13.16,13.16,0,0,0,.57,3.86,9.47,9.47,0,0,0,1.69,3.26,8.16,8.16,0,0,0,2.86,2.23,9.42,9.42,0,0,0,4.12.83,9.1,9.1,0,0,0,5.35-1.43,8.45,8.45,0,0,0,3-4.29h7.18a14.25,14.25,0,0,1-5.58,8.67,15.2,15.2,0,0,1-4.62,2.26,18.63,18.63,0,0,1-5.35.76,18.2,18.2,0,0,1-7.18-1.33,14.84,14.84,0,0,1-5.28-3.72,15.79,15.79,0,0,1-3.26-5.72,23.24,23.24,0,0,1-1.1-7.31,20.67,20.67,0,0,1,1.16-6.95,17.76,17.76,0,0,1,3.32-5.78,15.59,15.59,0,0,1,12.13-5.42,15.4,15.4,0,0,1,7.28,1.69,16,16,0,0,1,5.35,4.49,18.2,18.2,0,0,1,3.09,6.41,19.7,19.7,0,0,1,.5,7.48h-25.26Zm17.68-5a12.27,12.27,0,0,0-.76-3.46,9.26,9.26,0,0,0-1.73-2.89,8.6,8.6,0,0,0-2.66-2,7.85,7.85,0,0,0-3.49-.76,9.12,9.12,0,0,0-3.62.7,8.28,8.28,0,0,0-2.79,1.93,9.52,9.52,0,0,0-1.86,2.89,10.07,10.07,0,0,0-.76,3.59h17.68Z" transform="translate(-86.73 -128.19)"/><path class="cls-3" d="M1261.73,919.6H1270l9,25.66h0.13l8.71-25.66h7.91l-13.36,36.23q-0.93,2.33-1.83,4.45a15.92,15.92,0,0,1-2.19,3.76,9.5,9.5,0,0,1-3.22,2.59,11,11,0,0,1-4.92,1,34.4,34.4,0,0,1-5.25-.4v-6.38q0.93,0.13,1.79.3a9.51,9.51,0,0,0,1.79.17,6.18,6.18,0,0,0,2.19-.33,3.65,3.65,0,0,0,1.43-1,6.06,6.06,0,0,0,1-1.5,14.76,14.76,0,0,0,.73-2l0.86-2.66Z" transform="translate(-86.73 -128.19)"/></g><g class="cls-1"><path class="cls-2" d="M1279.23,669.41h-42.66a25.44,25.44,0,0,1,3.75-13.57,34.28,34.28,0,0,1,10-10.09q3-2.23,6.34-4.33a50.25,50.25,0,0,0,6.07-4.51,24.07,24.07,0,0,0,4.55-5.22,12.4,12.4,0,0,0,1.87-6.47,17.71,17.71,0,0,0-.4-3.62,9.58,9.58,0,0,0-1.56-3.57,9.22,9.22,0,0,0-3.21-2.77,11.2,11.2,0,0,0-5.36-1.12,9.67,9.67,0,0,0-5,1.21,9,9,0,0,0-3.21,3.3,16.44,16.44,0,0,0-1.79,5,35.64,35.64,0,0,0-.67,6.16h-10.17a31.91,31.91,0,0,1,1.38-9.59,21.26,21.26,0,0,1,4.15-7.63,19.59,19.59,0,0,1,6.74-5,24.76,24.76,0,0,1,18.79,0,18.39,18.39,0,0,1,6.2,4.73,17.33,17.33,0,0,1,3.35,6.2,22.69,22.69,0,0,1,1,6.38,18.86,18.86,0,0,1-1.16,6.78,21.85,21.85,0,0,1-3.12,5.58,31.66,31.66,0,0,1-4.46,4.69q-2.5,2.14-5.18,4t-5.35,3.57q-2.68,1.7-5,3.39a29,29,0,0,0-4,3.53,10,10,0,0,0-2.32,3.88h30.44v9.1Z" transform="translate(-86.73 -128.19)"/></g><g class="cls-1"><path class="cls-3" d="M1329.57,613.79h34.17V621h-25.86V633.4h23.93v6.78h-23.93v13.89h26.32v7.18h-34.63V613.79Z" transform="translate(-86.73 -128.19)"/><path class="cls-3" d="M1378.63,643.18l-11.9-16.29h9.17l7.18,10.57,7.51-10.57h8.77l-11.7,15.89,13.16,18.48h-9.11l-8.71-12.7-8.44,12.7h-8.91Z" transform="translate(-86.73 -128.19)"/><path class="cls-3" d="M1404.28,626.89h7.18v4.65h0.13a9.37,9.37,0,0,1,4.45-4.29,14.78,14.78,0,0,1,6.18-1.3,16.43,16.43,0,0,1,7.08,1.43,14,14,0,0,1,5,3.92,17,17,0,0,1,3,5.82,24.65,24.65,0,0,1,1,7.11,25.18,25.18,0,0,1-.9,6.71,17.47,17.47,0,0,1-2.72,5.75,13.29,13.29,0,0,1-11.2,5.48,18.73,18.73,0,0,1-3.32-.3,14.41,14.41,0,0,1-3.19-1,12.51,12.51,0,0,1-2.83-1.7,9.38,9.38,0,0,1-2.16-2.43h-0.13V674h-7.58V626.89Zm26.46,17.22a17,17,0,0,0-.6-4.52,12.25,12.25,0,0,0-1.79-3.89,9.25,9.25,0,0,0-3-2.72,8.13,8.13,0,0,0-4.12-1,8.35,8.35,0,0,0-7.21,3.32,14.67,14.67,0,0,0-2.43,8.84,17.57,17.57,0,0,0,.63,4.82,10.83,10.83,0,0,0,1.89,3.82,9.43,9.43,0,0,0,3,2.53,8.61,8.61,0,0,0,4.09.93,8.46,8.46,0,0,0,4.39-1.06,9.28,9.28,0,0,0,3-2.76,11.21,11.21,0,0,0,1.66-3.86A19.49,19.49,0,0,0,1430.74,644.11Z" transform="translate(-86.73 -128.19)"/><path class="cls-3" d="M1459.46,662.19a18.74,18.74,0,0,1-7.35-1.36,15.66,15.66,0,0,1-5.45-3.76,16,16,0,0,1-3.39-5.72,23.34,23.34,0,0,1,0-14.56,16,16,0,0,1,3.39-5.72,15.66,15.66,0,0,1,5.45-3.76,20.48,20.48,0,0,1,14.69,0,15.68,15.68,0,0,1,5.45,3.76,16.08,16.08,0,0,1,3.39,5.72,23.36,23.36,0,0,1,0,14.56,16.07,16.07,0,0,1-3.39,5.72,15.68,15.68,0,0,1-5.45,3.76A18.74,18.74,0,0,1,1459.46,662.19Zm0-6a8.69,8.69,0,0,0,4.39-1.06,9.23,9.23,0,0,0,3.06-2.79,12.18,12.18,0,0,0,1.76-3.89,17.43,17.43,0,0,0,0-8.81,11.77,11.77,0,0,0-1.76-3.89,9.4,9.4,0,0,0-3.06-2.76,9.58,9.58,0,0,0-8.77,0,9.39,9.39,0,0,0-3.06,2.76,11.77,11.77,0,0,0-1.76,3.89,17.43,17.43,0,0,0,0,8.81,12.18,12.18,0,0,0,1.76,3.89,9.22,9.22,0,0,0,3.06,2.79A8.69,8.69,0,0,0,1459.46,656.2Z" transform="translate(-86.73 -128.19)"/><path class="cls-3" d="M1487.84,650.22a5.71,5.71,0,0,0,2.53,4.65,9.94,9.94,0,0,0,5.25,1.33A20.18,20.18,0,0,0,1498,656a10.53,10.53,0,0,0,2.56-.63,4.83,4.83,0,0,0,2-1.36,3.28,3.28,0,0,0,.7-2.36,3.35,3.35,0,0,0-1.06-2.39,7.41,7.41,0,0,0-2.56-1.5,24.9,24.9,0,0,0-3.56-1q-2-.4-4.05-0.86a37.76,37.76,0,0,1-4.09-1.13,13.18,13.18,0,0,1-3.52-1.79,8.28,8.28,0,0,1-2.49-2.89,9.23,9.23,0,0,1-.93-4.35,7.82,7.82,0,0,1,1.36-4.69,10.43,10.43,0,0,1,3.46-3.06,15.06,15.06,0,0,1,4.65-1.63,27.38,27.38,0,0,1,4.89-.46,22.4,22.4,0,0,1,5.08.56,13.86,13.86,0,0,1,4.39,1.83,10.76,10.76,0,0,1,3.26,3.29,11.41,11.41,0,0,1,1.63,4.89h-7.91a4.72,4.72,0,0,0-2.49-3.66,10.35,10.35,0,0,0-4.49-.93,16,16,0,0,0-1.89.13,8.78,8.78,0,0,0-2.06.5,4.33,4.33,0,0,0-1.63,1.06,2.54,2.54,0,0,0-.67,1.83,2.89,2.89,0,0,0,1,2.26,7.59,7.59,0,0,0,2.53,1.43,24.7,24.7,0,0,0,3.56,1q2,0.4,4.12.86t4.05,1.13a13.09,13.09,0,0,1,3.56,1.79,8.74,8.74,0,0,1,2.53,2.86,8.64,8.64,0,0,1,1,4.25,9.24,9.24,0,0,1-1.4,5.18,11,11,0,0,1-3.62,3.46,16.44,16.44,0,0,1-5,1.93,25,25,0,0,1-5.38.6,23.44,23.44,0,0,1-6-.73,14,14,0,0,1-4.79-2.23,10.74,10.74,0,0,1-3.19-3.72,11.83,11.83,0,0,1-1.23-5.28h7.58Z" transform="translate(-86.73 -128.19)"/><path class="cls-3" d="M1521.54,646a13.16,13.16,0,0,0,.57,3.86,9.47,9.47,0,0,0,1.69,3.26,8.16,8.16,0,0,0,2.86,2.23,9.42,9.42,0,0,0,4.12.83,9.1,9.1,0,0,0,5.35-1.43,8.45,8.45,0,0,0,3-4.29h7.18a14.25,14.25,0,0,1-5.58,8.67,15.2,15.2,0,0,1-4.62,2.26,18.63,18.63,0,0,1-5.35.76,18.2,18.2,0,0,1-7.18-1.33,14.84,14.84,0,0,1-5.28-3.72,15.79,15.79,0,0,1-3.26-5.72,23.24,23.24,0,0,1-1.1-7.31,20.67,20.67,0,0,1,1.16-6.95,17.76,17.76,0,0,1,3.32-5.78,15.59,15.59,0,0,1,12.13-5.42,15.4,15.4,0,0,1,7.28,1.69,16,16,0,0,1,5.35,4.49,18.2,18.2,0,0,1,3.09,6.41,19.7,19.7,0,0,1,.5,7.48h-25.26Zm17.68-5a12.27,12.27,0,0,0-.76-3.46,9.26,9.26,0,0,0-1.73-2.89,8.6,8.6,0,0,0-2.66-2,7.85,7.85,0,0,0-3.49-.76,9.12,9.12,0,0,0-3.62.7,8.28,8.28,0,0,0-2.79,1.93,9.52,9.52,0,0,0-1.86,2.89,10.07,10.07,0,0,0-.76,3.59h17.68Z" transform="translate(-86.73 -128.19)"/><path class="cls-3" d="M1597.85,653.61a4,4,0,0,0,.37,2,1.54,1.54,0,0,0,1.43.6h0.8a5,5,0,0,0,1.06-.13v5.25c-0.27.09-.61,0.19-1,0.3s-0.85.21-1.3,0.3-0.89.15-1.33,0.2-0.82.07-1.13,0.07a7.31,7.31,0,0,1-3.86-.93,4.63,4.63,0,0,1-2-3.26,13.41,13.41,0,0,1-5.55,3.19,21.84,21.84,0,0,1-6.35,1,15.57,15.57,0,0,1-4.45-.63,11.63,11.63,0,0,1-3.75-1.86,8.89,8.89,0,0,1-2.59-3.12,9.62,9.62,0,0,1-1-4.42,10.21,10.21,0,0,1,1.16-5.18,8.62,8.62,0,0,1,3.06-3.12,13.79,13.79,0,0,1,4.25-1.63q2.36-.5,4.75-0.76a38.78,38.78,0,0,1,3.92-.56,18.42,18.42,0,0,0,3.29-.57,5,5,0,0,0,2.26-1.23,3.39,3.39,0,0,0,.83-2.49,3.88,3.88,0,0,0-.7-2.39,4.69,4.69,0,0,0-1.73-1.43,7.5,7.5,0,0,0-2.29-.66,18.46,18.46,0,0,0-2.39-.17,9.52,9.52,0,0,0-5.25,1.33,5.18,5.18,0,0,0-2.33,4.12h-7.58a11.41,11.41,0,0,1,1.6-5.52,11,11,0,0,1,3.56-3.52,14.57,14.57,0,0,1,4.88-1.86,29.09,29.09,0,0,1,5.58-.53,23.53,23.53,0,0,1,5,.53,14.2,14.2,0,0,1,4.42,1.73,9.59,9.59,0,0,1,3.16,3.09,8.49,8.49,0,0,1,1.2,4.62v17.68Zm-7.58-9.57a9.18,9.18,0,0,1-4.25,1.36q-2.53.23-5.05,0.7a16.23,16.23,0,0,0-2.33.56,7,7,0,0,0-2,1,4.39,4.39,0,0,0-1.36,1.66,5.69,5.69,0,0,0-.5,2.49,3.18,3.18,0,0,0,.73,2.13,5.3,5.3,0,0,0,1.76,1.36,8.15,8.15,0,0,0,2.26.7,14,14,0,0,0,2.23.2,12.33,12.33,0,0,0,2.72-.33,9.06,9.06,0,0,0,2.76-1.13,7.24,7.24,0,0,0,2.16-2,5.13,5.13,0,0,0,.86-3V644Z" transform="translate(-86.73 -128.19)"/><path class="cls-3" d="M1610.74,650.22a5.71,5.71,0,0,0,2.53,4.65,9.94,9.94,0,0,0,5.25,1.33,20.18,20.18,0,0,0,2.43-.17,10.53,10.53,0,0,0,2.56-.63,4.83,4.83,0,0,0,2-1.36,3.28,3.28,0,0,0,.7-2.36,3.35,3.35,0,0,0-1.06-2.39,7.41,7.41,0,0,0-2.56-1.5,24.9,24.9,0,0,0-3.56-1q-2-.4-4.05-0.86a37.76,37.76,0,0,1-4.09-1.13,13.18,13.18,0,0,1-3.52-1.79,8.28,8.28,0,0,1-2.49-2.89,9.23,9.23,0,0,1-.93-4.35,7.82,7.82,0,0,1,1.36-4.69,10.43,10.43,0,0,1,3.46-3.06,15.06,15.06,0,0,1,4.65-1.63,27.38,27.38,0,0,1,4.89-.46,22.4,22.4,0,0,1,5.08.56,13.86,13.86,0,0,1,4.39,1.83,10.76,10.76,0,0,1,3.26,3.29,11.41,11.41,0,0,1,1.63,4.89h-7.91a4.72,4.72,0,0,0-2.49-3.66,10.35,10.35,0,0,0-4.49-.93,16,16,0,0,0-1.89.13,8.78,8.78,0,0,0-2.06.5,4.33,4.33,0,0,0-1.63,1.06,2.54,2.54,0,0,0-.67,1.83,2.89,2.89,0,0,0,1,2.26,7.59,7.59,0,0,0,2.53,1.43,24.7,24.7,0,0,0,3.56,1q2,0.4,4.12.86t4.05,1.13a13.09,13.09,0,0,1,3.56,1.79,8.74,8.74,0,0,1,2.53,2.86,8.64,8.64,0,0,1,1,4.25,9.24,9.24,0,0,1-1.4,5.18,11,11,0,0,1-3.62,3.46,16.44,16.44,0,0,1-5,1.93,25,25,0,0,1-5.38.6,23.44,23.44,0,0,1-6-.73,14,14,0,0,1-4.79-2.23,10.74,10.74,0,0,1-3.19-3.72,11.83,11.83,0,0,1-1.23-5.28h7.58Z" transform="translate(-86.73 -128.19)"/><path class="cls-3" d="M1684.79,653.61a4,4,0,0,0,.37,2,1.54,1.54,0,0,0,1.43.6h0.8a5,5,0,0,0,1.06-.13v5.25c-0.27.09-.61,0.19-1,0.3s-0.85.21-1.3,0.3-0.89.15-1.33,0.2-0.82.07-1.13,0.07a7.31,7.31,0,0,1-3.86-.93,4.63,4.63,0,0,1-2-3.26,13.41,13.41,0,0,1-5.55,3.19,21.84,21.84,0,0,1-6.35,1,15.57,15.57,0,0,1-4.45-.63,11.63,11.63,0,0,1-3.75-1.86,8.89,8.89,0,0,1-2.59-3.12,9.62,9.62,0,0,1-1-4.42,10.21,10.21,0,0,1,1.16-5.18,8.62,8.62,0,0,1,3.06-3.12,13.79,13.79,0,0,1,4.25-1.63q2.36-.5,4.75-0.76a38.78,38.78,0,0,1,3.92-.56,18.42,18.42,0,0,0,3.29-.57,5,5,0,0,0,2.26-1.23,3.39,3.39,0,0,0,.83-2.49,3.88,3.88,0,0,0-.7-2.39,4.69,4.69,0,0,0-1.73-1.43,7.5,7.5,0,0,0-2.29-.66,18.46,18.46,0,0,0-2.39-.17,9.52,9.52,0,0,0-5.25,1.33,5.18,5.18,0,0,0-2.33,4.12h-7.58a11.41,11.41,0,0,1,1.6-5.52,11,11,0,0,1,3.56-3.52,14.57,14.57,0,0,1,4.88-1.86A29.09,29.09,0,0,1,1671,626a23.53,23.53,0,0,1,5,.53,14.2,14.2,0,0,1,4.42,1.73,9.59,9.59,0,0,1,3.16,3.09,8.49,8.49,0,0,1,1.2,4.62v17.68Zm-7.58-9.57a9.18,9.18,0,0,1-4.25,1.36q-2.53.23-5.05,0.7a16.23,16.23,0,0,0-2.33.56,7,7,0,0,0-2,1,4.39,4.39,0,0,0-1.36,1.66,5.69,5.69,0,0,0-.5,2.49,3.18,3.18,0,0,0,.73,2.13,5.3,5.3,0,0,0,1.76,1.36,8.15,8.15,0,0,0,2.26.7,14,14,0,0,0,2.23.2,12.33,12.33,0,0,0,2.72-.33,9.06,9.06,0,0,0,2.76-1.13,7.24,7.24,0,0,0,2.16-2,5.13,5.13,0,0,0,.86-3V644Z" transform="translate(-86.73 -128.19)"/><path class="cls-3" d="M1692,626.89h7.18v5.05l0.13,0.13a12.72,12.72,0,0,1,4.52-4.49A12.05,12.05,0,0,1,1710,626q5.65,0,8.91,2.92t3.26,8.77v23.6h-7.58v-21.6q-0.13-4.05-1.73-5.88t-5-1.83a8.24,8.24,0,0,0-3.46.7,7.49,7.49,0,0,0-2.59,1.93,9.07,9.07,0,0,0-1.66,2.89,10.34,10.34,0,0,0-.6,3.52v20.27H1692V626.89Z" transform="translate(-86.73 -128.19)"/><path class="cls-3" d="M1760.37,613.79h8.84l18.28,47.46h-8.91l-4.45-12.56h-18.94l-4.45,12.56h-8.57Zm-2.92,28.58h14.49L1764.82,622h-0.2Z" transform="translate(-86.73 -128.19)"/><path class="cls-3" d="M1791,613.79h20.94a19.9,19.9,0,0,1,8.24,1.46,13,13,0,0,1,4.92,3.66,12.43,12.43,0,0,1,2.36,4.79,20.39,20.39,0,0,1,.63,4.79,20,20,0,0,1-.63,4.75,12.45,12.45,0,0,1-2.36,4.75,12.73,12.73,0,0,1-4.92,3.62,20.29,20.29,0,0,1-8.24,1.43h-12.63v18.21H1791V613.79Zm8.31,22.47h12.17a10.84,10.84,0,0,0,2.86-.4,8.2,8.2,0,0,0,2.69-1.3,6.64,6.64,0,0,0,2-2.39,8.22,8.22,0,0,0,.76-3.76,9.73,9.73,0,0,0-.67-3.86,6.16,6.16,0,0,0-1.79-2.43,6.39,6.39,0,0,0-2.59-1.23,14.08,14.08,0,0,0-3.12-.33h-12.3v15.69Z" transform="translate(-86.73 -128.19)"/><path class="cls-3" d="M1834.35,613.79h8.31v47.46h-8.31V613.79Z" transform="translate(-86.73 -128.19)"/></g><g class="cls-1"><path class="cls-2" d="M86.73,350.51A35.86,35.86,0,0,0,93,350a19.5,19.5,0,0,0,5.49-1.79,14.06,14.06,0,0,0,4.19-3.21,9.83,9.83,0,0,0,2.28-4.82h8.3v62.48H102.08V358.54H86.73v-8Z" transform="translate(-86.73 -128.19)"/></g><g class="cls-1"><path class="cls-3" d="M177.88,378.65a10.61,10.61,0,0,0,.93,4.65,8.39,8.39,0,0,0,2.59,3.16,11,11,0,0,0,3.82,1.79,18.45,18.45,0,0,0,4.69.56,15.06,15.06,0,0,0,4.65-.63,9.41,9.41,0,0,0,3.12-1.63,5.89,5.89,0,0,0,1.73-2.29,6.86,6.86,0,0,0,.53-2.63,5.68,5.68,0,0,0-1.23-4,7,7,0,0,0-2.69-1.83,56.78,56.78,0,0,0-5.88-1.76q-3.36-.83-8.28-2.16a17.73,17.73,0,0,1-5.08-2.09,12.12,12.12,0,0,1-3.22-2.89,10.16,10.16,0,0,1-1.7-3.39,13.61,13.61,0,0,1-.5-3.66,12.35,12.35,0,0,1,1.5-6.21,13.31,13.31,0,0,1,4-4.35,17.39,17.39,0,0,1,5.58-2.56,24.47,24.47,0,0,1,6.31-.83,24.87,24.87,0,0,1,7,1,17.34,17.34,0,0,1,5.78,2.89,13.72,13.72,0,0,1,5.42,11.3h-8.31q-0.33-4.59-3.12-6.48a12.41,12.41,0,0,0-7.11-1.89,15.56,15.56,0,0,0-3,.3,9.52,9.52,0,0,0-2.79,1,6.12,6.12,0,0,0-2.09,1.89,5.79,5.79,0,0,0,.73,6.95,10.07,10.07,0,0,0,4.09,2.16l2.09,0.57,4.09,1.1,4.42,1.16,3.09,0.83a13.93,13.93,0,0,1,4.05,2A12.83,12.83,0,0,1,206,373.5a12,12,0,0,1,1.73,3.49,12.79,12.79,0,0,1,.57,3.72,13.42,13.42,0,0,1-1.63,6.81,13.84,13.84,0,0,1-4.29,4.62,18.65,18.65,0,0,1-6,2.63,28.94,28.94,0,0,1-6.91.83,28.43,28.43,0,0,1-7.64-1,17.89,17.89,0,0,1-6.25-3.06,14.94,14.94,0,0,1-4.25-5.28,17.59,17.59,0,0,1-1.66-7.61h8.31Z" transform="translate(-86.73 -128.19)"/><path class="cls-3" d="M213.64,360.11h7.18v4.65H221a9.37,9.37,0,0,1,4.45-4.29,14.78,14.78,0,0,1,6.18-1.3,16.42,16.42,0,0,1,7.08,1.43,14,14,0,0,1,5,3.92,17,17,0,0,1,3,5.82,24.62,24.62,0,0,1,1,7.11,25.14,25.14,0,0,1-.9,6.71,17.44,17.44,0,0,1-2.73,5.75,13.28,13.28,0,0,1-11.2,5.48,18.73,18.73,0,0,1-3.32-.3,14.41,14.41,0,0,1-3.19-1,12.51,12.51,0,0,1-2.83-1.7,9.38,9.38,0,0,1-2.16-2.43h-0.13v17.15h-7.58V360.11Zm26.46,17.22a17.13,17.13,0,0,0-.6-4.52,12.27,12.27,0,0,0-1.79-3.89,9.28,9.28,0,0,0-3-2.72,8.13,8.13,0,0,0-4.12-1,8.35,8.35,0,0,0-7.21,3.32,14.67,14.67,0,0,0-2.43,8.84,17.57,17.57,0,0,0,.63,4.82,10.83,10.83,0,0,0,1.89,3.82,9.43,9.43,0,0,0,3,2.53,8.61,8.61,0,0,0,4.09.93,8.46,8.46,0,0,0,4.39-1.06,9.26,9.26,0,0,0,3-2.76,11.18,11.18,0,0,0,1.66-3.86A19.6,19.6,0,0,0,240.1,377.32Z" transform="translate(-86.73 -128.19)"/><path class="cls-3" d="M259,379.25a13.19,13.19,0,0,0,.56,3.86,9.47,9.47,0,0,0,1.7,3.26,8.15,8.15,0,0,0,2.86,2.23,9.42,9.42,0,0,0,4.12.83,9.1,9.1,0,0,0,5.35-1.43,8.45,8.45,0,0,0,3-4.29h7.18a14.25,14.25,0,0,1-5.58,8.67,15.2,15.2,0,0,1-4.62,2.26,18.63,18.63,0,0,1-5.35.76,18.2,18.2,0,0,1-7.18-1.33,14.85,14.85,0,0,1-5.29-3.72,15.79,15.79,0,0,1-3.26-5.72,23.21,23.21,0,0,1-1.1-7.31,20.69,20.69,0,0,1,1.16-6.95,17.77,17.77,0,0,1,3.32-5.78A15.59,15.59,0,0,1,268,359.18a15.4,15.4,0,0,1,7.28,1.69,16,16,0,0,1,5.35,4.49,18.2,18.2,0,0,1,3.09,6.41,19.7,19.7,0,0,1,.5,7.48H259Zm17.68-5a12.27,12.27,0,0,0-.76-3.46,9.26,9.26,0,0,0-1.73-2.89,8.6,8.6,0,0,0-2.66-2,7.85,7.85,0,0,0-3.49-.76,9.11,9.11,0,0,0-3.62.7,8.3,8.3,0,0,0-2.79,1.93,9.56,9.56,0,0,0-1.86,2.89,10.07,10.07,0,0,0-.76,3.59h17.68Z" transform="translate(-86.73 -128.19)"/><path class="cls-3" d="M312.22,371.61a7.11,7.11,0,0,0-2.56-4.82,8.36,8.36,0,0,0-5.29-1.63,10.9,10.9,0,0,0-3.12.5,7.41,7.41,0,0,0-3.06,1.86,10.44,10.44,0,0,0-2.33,3.79,18,18,0,0,0-.93,6.35,18.59,18.59,0,0,0,.5,4.25,11.63,11.63,0,0,0,1.6,3.79,8.62,8.62,0,0,0,2.83,2.69,8,8,0,0,0,4.19,1,7.63,7.63,0,0,0,5.48-2.06,9.58,9.58,0,0,0,2.69-5.78h7.58q-1.06,6.71-5.08,10.27T304,395.4A17.59,17.59,0,0,1,296.9,394a15.13,15.13,0,0,1-5.22-3.72,15.79,15.79,0,0,1-3.22-5.62,22,22,0,0,1-1.1-7,24.08,24.08,0,0,1,1.06-7.25,16.59,16.59,0,0,1,3.19-5.88,14.92,14.92,0,0,1,5.28-3.92,17.84,17.84,0,0,1,7.41-1.43,20.75,20.75,0,0,1,5.68.76,15,15,0,0,1,4.79,2.29,12.22,12.22,0,0,1,3.42,3.86,13.21,13.21,0,0,1,1.6,5.52h-7.58Z" transform="translate(-86.73 -128.19)"/><path class="cls-3" d="M325.18,347h7.58v7.18h-7.58V347Zm0,13.1h7.58v34.37h-7.58V360.11Z" transform="translate(-86.73 -128.19)"/><path class="cls-3" d="M336.61,360.11h5.65v-2.86a14.68,14.68,0,0,1,.8-5.29,7.51,7.51,0,0,1,2.13-3.12,7,7,0,0,1,3-1.46,16.87,16.87,0,0,1,3.56-.37,21.73,21.73,0,0,1,5.32.47v5.92a11,11,0,0,0-1.56-.3,16.75,16.75,0,0,0-2-.1,4.62,4.62,0,0,0-2.63.73,3.21,3.21,0,0,0-1.1,2.86v3.52h6.45v5.65h-6.45v28.72h-7.58V365.76h-5.65v-5.65Z" transform="translate(-86.73 -128.19)"/><path class="cls-3" d="M356.16,360.11h8.31l9,25.66h0.13l8.71-25.66h7.91l-13.36,36.23q-0.93,2.33-1.83,4.45a15.92,15.92,0,0,1-2.19,3.76,9.5,9.5,0,0,1-3.22,2.59,11,11,0,0,1-4.92,1,34.4,34.4,0,0,1-5.25-.4v-6.38q0.93,0.13,1.79.3a9.51,9.51,0,0,0,1.79.17,6.18,6.18,0,0,0,2.19-.33,3.65,3.65,0,0,0,1.43-1,6.06,6.06,0,0,0,1-1.5,14.76,14.76,0,0,0,.73-2l0.86-2.66Z" transform="translate(-86.73 -128.19)"/><path class="cls-3" d="M439.71,386.83a4,4,0,0,0,.37,2,1.54,1.54,0,0,0,1.43.6h0.8a5,5,0,0,0,1.06-.13v5.25c-0.27.09-.61,0.19-1,0.3s-0.85.21-1.3,0.3-0.89.15-1.33,0.2-0.82.07-1.13,0.07a7.31,7.31,0,0,1-3.86-.93,4.63,4.63,0,0,1-2-3.26,13.41,13.41,0,0,1-5.55,3.19,21.84,21.84,0,0,1-6.35,1,15.57,15.57,0,0,1-4.45-.63,11.63,11.63,0,0,1-3.75-1.86,8.89,8.89,0,0,1-2.59-3.12,9.62,9.62,0,0,1-1-4.42,10.21,10.21,0,0,1,1.16-5.18,8.62,8.62,0,0,1,3.06-3.12,13.79,13.79,0,0,1,4.25-1.63q2.36-.5,4.75-0.76a38.78,38.78,0,0,1,3.92-.56,18.42,18.42,0,0,0,3.29-.57,5,5,0,0,0,2.26-1.23,3.39,3.39,0,0,0,.83-2.49,3.88,3.88,0,0,0-.7-2.39,4.69,4.69,0,0,0-1.73-1.43,7.5,7.5,0,0,0-2.29-.66,18.46,18.46,0,0,0-2.39-.17,9.52,9.52,0,0,0-5.25,1.33,5.18,5.18,0,0,0-2.33,4.12h-7.58a11.41,11.41,0,0,1,1.6-5.52,11,11,0,0,1,3.56-3.52,14.57,14.57,0,0,1,4.88-1.86,29.09,29.09,0,0,1,5.58-.53,23.53,23.53,0,0,1,5,.53,14.2,14.2,0,0,1,4.42,1.73,9.59,9.59,0,0,1,3.16,3.09,8.49,8.49,0,0,1,1.2,4.62v17.68Zm-7.58-9.57a9.18,9.18,0,0,1-4.25,1.36q-2.53.23-5.05,0.7a16.23,16.23,0,0,0-2.33.56,7,7,0,0,0-2,1,4.39,4.39,0,0,0-1.36,1.66,5.69,5.69,0,0,0-.5,2.49,3.18,3.18,0,0,0,.73,2.13,5.3,5.3,0,0,0,1.76,1.36,8.15,8.15,0,0,0,2.26.7,14,14,0,0,0,2.23.2,12.33,12.33,0,0,0,2.72-.33,9.06,9.06,0,0,0,2.76-1.13,7.24,7.24,0,0,0,2.16-2,5.13,5.13,0,0,0,.86-3v-5.65Z" transform="translate(-86.73 -128.19)"/><path class="cls-3" d="M465.3,347H477l13.09,37.16h0.13L503,347h11.57v47.46h-7.91V357.85h-0.13l-13.16,36.63h-6.85l-13.16-36.63h-0.13v36.63H465.3V347Z" transform="translate(-86.73 -128.19)"/><path class="cls-3" d="M522.67,347h7.58v7.18h-7.58V347Zm0,13.1h7.58v34.37h-7.58V360.11Z" transform="translate(-86.73 -128.19)"/><path class="cls-3" d="M560.69,371.61a7.11,7.11,0,0,0-2.56-4.82,8.36,8.36,0,0,0-5.29-1.63,10.9,10.9,0,0,0-3.12.5,7.41,7.41,0,0,0-3.06,1.86,10.44,10.44,0,0,0-2.33,3.79,18,18,0,0,0-.93,6.35,18.59,18.59,0,0,0,.5,4.25,11.63,11.63,0,0,0,1.6,3.79,8.62,8.62,0,0,0,2.83,2.69,8,8,0,0,0,4.19,1,7.63,7.63,0,0,0,5.48-2.06,9.58,9.58,0,0,0,2.69-5.78h7.58q-1.06,6.71-5.08,10.27t-10.67,3.56a17.59,17.59,0,0,1-7.15-1.36,15.13,15.13,0,0,1-5.22-3.72,15.79,15.79,0,0,1-3.22-5.62,22,22,0,0,1-1.1-7,24.08,24.08,0,0,1,1.06-7.25,16.59,16.59,0,0,1,3.19-5.88,14.92,14.92,0,0,1,5.28-3.92,17.84,17.84,0,0,1,7.41-1.43,20.75,20.75,0,0,1,5.68.76,15,15,0,0,1,4.79,2.29,12.22,12.22,0,0,1,3.42,3.86,13.21,13.21,0,0,1,1.6,5.52h-7.58Z" transform="translate(-86.73 -128.19)"/><path class="cls-3" d="M573.45,360.11h7.11v6.65h0.13A7.67,7.67,0,0,1,582,364a12.61,12.61,0,0,1,2.33-2.43,11.73,11.73,0,0,1,3-1.76,9.06,9.06,0,0,1,3.39-.66,16.53,16.53,0,0,1,1.83.07l1,0.13v7.31c-0.53-.09-1.08-0.17-1.63-0.23a13.7,13.7,0,0,0-1.63-.1,8.71,8.71,0,0,0-3.62.76,8.32,8.32,0,0,0-3,2.26,11.07,11.07,0,0,0-2,3.69,15.94,15.94,0,0,0-.73,5.05v16.35h-7.58V360.11Z" transform="translate(-86.73 -128.19)"/><path class="cls-3" d="M610.41,395.4a18.74,18.74,0,0,1-7.35-1.36,15.66,15.66,0,0,1-5.45-3.76,16,16,0,0,1-3.39-5.72,23.34,23.34,0,0,1,0-14.56,16,16,0,0,1,3.39-5.72,15.66,15.66,0,0,1,5.45-3.76,20.48,20.48,0,0,1,14.69,0,15.68,15.68,0,0,1,5.45,3.76,16.08,16.08,0,0,1,3.39,5.72,23.36,23.36,0,0,1,0,14.56,16.07,16.07,0,0,1-3.39,5.72,15.68,15.68,0,0,1-5.45,3.76A18.74,18.74,0,0,1,610.41,395.4Zm0-6a8.69,8.69,0,0,0,4.39-1.06,9.23,9.23,0,0,0,3.06-2.79,12.18,12.18,0,0,0,1.76-3.89,17.43,17.43,0,0,0,0-8.81,11.77,11.77,0,0,0-1.76-3.89,9.4,9.4,0,0,0-3.06-2.76,9.58,9.58,0,0,0-8.77,0A9.39,9.39,0,0,0,603,369a11.77,11.77,0,0,0-1.76,3.89,17.43,17.43,0,0,0,0,8.81,12.18,12.18,0,0,0,1.76,3.89,9.22,9.22,0,0,0,3.06,2.79A8.69,8.69,0,0,0,610.41,389.42Z" transform="translate(-86.73 -128.19)"/><path class="cls-3" d="M638.79,383.44a5.71,5.71,0,0,0,2.53,4.65,9.94,9.94,0,0,0,5.25,1.33,20.18,20.18,0,0,0,2.43-.17,10.53,10.53,0,0,0,2.56-.63,4.83,4.83,0,0,0,2-1.36,3.28,3.28,0,0,0,.7-2.36,3.35,3.35,0,0,0-1.06-2.39,7.41,7.41,0,0,0-2.56-1.5,24.9,24.9,0,0,0-3.56-1q-2-.4-4.05-0.86a37.76,37.76,0,0,1-4.09-1.13,13.18,13.18,0,0,1-3.52-1.79,8.28,8.28,0,0,1-2.49-2.89,9.23,9.23,0,0,1-.93-4.35,7.82,7.82,0,0,1,1.36-4.69,10.43,10.43,0,0,1,3.46-3.06,15.06,15.06,0,0,1,4.65-1.63,27.38,27.38,0,0,1,4.89-.46,22.4,22.4,0,0,1,5.08.56,13.86,13.86,0,0,1,4.39,1.83,10.76,10.76,0,0,1,3.26,3.29,11.41,11.41,0,0,1,1.63,4.89h-7.91a4.72,4.72,0,0,0-2.49-3.66,10.35,10.35,0,0,0-4.49-.93,16,16,0,0,0-1.89.13,8.78,8.78,0,0,0-2.06.5,4.33,4.33,0,0,0-1.63,1.06,2.54,2.54,0,0,0-.67,1.83,2.89,2.89,0,0,0,1,2.26,7.59,7.59,0,0,0,2.53,1.43,24.7,24.7,0,0,0,3.56,1q2,0.4,4.12.86t4.05,1.13a13.09,13.09,0,0,1,3.56,1.79,8.74,8.74,0,0,1,2.53,2.86,8.64,8.64,0,0,1,1,4.25,9.24,9.24,0,0,1-1.4,5.18,11,11,0,0,1-3.62,3.46,16.44,16.44,0,0,1-5,1.93,25,25,0,0,1-5.38.6,23.44,23.44,0,0,1-6-.73,14,14,0,0,1-4.79-2.23,10.74,10.74,0,0,1-3.19-3.72,11.83,11.83,0,0,1-1.23-5.28h7.58Z" transform="translate(-86.73 -128.19)"/><path class="cls-3" d="M672.49,379.25a13.16,13.16,0,0,0,.57,3.86,9.47,9.47,0,0,0,1.69,3.26,8.16,8.16,0,0,0,2.86,2.23,9.42,9.42,0,0,0,4.12.83,9.1,9.1,0,0,0,5.35-1.43,8.45,8.45,0,0,0,3-4.29h7.18a14.25,14.25,0,0,1-5.58,8.67,15.2,15.2,0,0,1-4.62,2.26,18.63,18.63,0,0,1-5.35.76,18.2,18.2,0,0,1-7.18-1.33,14.84,14.84,0,0,1-5.28-3.72,15.79,15.79,0,0,1-3.26-5.72,23.24,23.24,0,0,1-1.1-7.31,20.67,20.67,0,0,1,1.16-6.95,17.76,17.76,0,0,1,3.32-5.78,15.59,15.59,0,0,1,12.13-5.42,15.4,15.4,0,0,1,7.28,1.69,16,16,0,0,1,5.35,4.49,18.2,18.2,0,0,1,3.09,6.41,19.7,19.7,0,0,1,.5,7.48H672.49Zm17.68-5a12.27,12.27,0,0,0-.76-3.46,9.26,9.26,0,0,0-1.73-2.89,8.6,8.6,0,0,0-2.66-2,7.85,7.85,0,0,0-3.49-.76,9.12,9.12,0,0,0-3.62.7,8.28,8.28,0,0,0-2.79,1.93,9.52,9.52,0,0,0-1.86,2.89,10.07,10.07,0,0,0-.76,3.59h17.68Z" transform="translate(-86.73 -128.19)"/><path class="cls-3" d="M702.54,360.11h7.11v6.65h0.13a7.67,7.67,0,0,1,1.3-2.73,12.61,12.61,0,0,1,2.33-2.43,11.73,11.73,0,0,1,3-1.76,9.06,9.06,0,0,1,3.39-.66,16.53,16.53,0,0,1,1.83.07l1,0.13v7.31c-0.53-.09-1.08-0.17-1.63-0.23a13.7,13.7,0,0,0-1.63-.1,8.71,8.71,0,0,0-3.62.76,8.32,8.32,0,0,0-3,2.26,11.07,11.07,0,0,0-2,3.69,15.94,15.94,0,0,0-.73,5.05v16.35h-7.58V360.11Z" transform="translate(-86.73 -128.19)"/><path class="cls-3" d="M721.55,360.11h8.24l8.71,26.39h0.13L747,360.11h7.84l-12.3,34.37H734Z" transform="translate(-86.73 -128.19)"/><path class="cls-3" d="M758.64,347h7.58v7.18h-7.58V347Zm0,13.1h7.58v34.37h-7.58V360.11Z" transform="translate(-86.73 -128.19)"/><path class="cls-3" d="M796.66,371.61a7.11,7.11,0,0,0-2.56-4.82,8.36,8.36,0,0,0-5.29-1.63,10.9,10.9,0,0,0-3.12.5,7.41,7.41,0,0,0-3.06,1.86,10.44,10.44,0,0,0-2.33,3.79,18,18,0,0,0-.93,6.35,18.59,18.59,0,0,0,.5,4.25,11.63,11.63,0,0,0,1.6,3.79,8.62,8.62,0,0,0,2.83,2.69,8,8,0,0,0,4.19,1,7.63,7.63,0,0,0,5.48-2.06,9.58,9.58,0,0,0,2.69-5.78h7.58q-1.06,6.71-5.08,10.27t-10.67,3.56a17.59,17.59,0,0,1-7.15-1.36,15.13,15.13,0,0,1-5.22-3.72,15.79,15.79,0,0,1-3.22-5.62,22,22,0,0,1-1.1-7,24.08,24.08,0,0,1,1.06-7.25,16.59,16.59,0,0,1,3.19-5.88,14.92,14.92,0,0,1,5.28-3.92,17.84,17.84,0,0,1,7.41-1.43,20.75,20.75,0,0,1,5.68.76,15,15,0,0,1,4.79,2.29,12.22,12.22,0,0,1,3.42,3.86,13.21,13.21,0,0,1,1.6,5.52h-7.58Z" transform="translate(-86.73 -128.19)"/><path class="cls-3" d="M815.34,379.25a13.16,13.16,0,0,0,.57,3.86,9.47,9.47,0,0,0,1.69,3.26,8.16,8.16,0,0,0,2.86,2.23,9.42,9.42,0,0,0,4.12.83,9.1,9.1,0,0,0,5.35-1.43,8.45,8.45,0,0,0,3-4.29h7.18a14.25,14.25,0,0,1-5.58,8.67,15.2,15.2,0,0,1-4.62,2.26,18.63,18.63,0,0,1-5.35.76,18.2,18.2,0,0,1-7.18-1.33,14.84,14.84,0,0,1-5.28-3.72,15.79,15.79,0,0,1-3.26-5.72,23.24,23.24,0,0,1-1.1-7.31,20.67,20.67,0,0,1,1.16-6.95,17.76,17.76,0,0,1,3.32-5.78,15.59,15.59,0,0,1,12.13-5.42,15.4,15.4,0,0,1,7.28,1.69,16,16,0,0,1,5.35,4.49,18.2,18.2,0,0,1,3.09,6.41,19.7,19.7,0,0,1,.5,7.48H815.34Zm17.68-5a12.27,12.27,0,0,0-.76-3.46,9.26,9.26,0,0,0-1.73-2.89,8.6,8.6,0,0,0-2.66-2,7.85,7.85,0,0,0-3.49-.76,9.12,9.12,0,0,0-3.62.7,8.28,8.28,0,0,0-2.79,1.93,9.52,9.52,0,0,0-1.86,2.89,10.07,10.07,0,0,0-.76,3.59H833Z" transform="translate(-86.73 -128.19)"/></g></svg>
