<svg id="Layer_1" xmlns="http://www.w3.org/2000/svg" viewBox="0 0 1020 65.2"><style>.wave2{opacity:.15;fill:#33a8c3;enable-background:new}</style><title>Untitled-5</title><path class="wave2" d="M1020 65.2L0 65v.2zM102.2 22.3c12.8 2 25.8 5 38.7 3.3 10.5-1.4 20-5 29.8-7.5C211.5 7.4 241.1 2.8 278.2 1.3 320-.4 362.6-1.9 402.6 6.5c17.2 3.6 34.1 9 52.1 8.8 10.7-.1 21.1-2.3 31.5-3.9 36.2-5.6 73.2-5.3 109.3 1.1 11.7 2.1 23.2 4.8 35.3 5.2 16.1.5 31.8-3.2 47.5-5.6C714.8 6.5 752 7.7 788 15.7c16.4 3.7 32.3 8.9 49.5 10.2 23.1 1.7 45.9-3.9 68.5-7.3 55.9-8.3 62.7-16.4 114 1V0H0v65l.9-41.3c33.5-6.2 67.7-6.7 101.3-1.4z"/></svg>