<?xml version="1.0" encoding="utf-8"?>
<!-- Generator: Adobe Illustrator 19.2.0, SVG Export Plug-In . SVG Version: 6.00 Build 0)  -->
<svg version="1.1" id="Layer_1" xmlns="http://www.w3.org/2000/svg" xmlns:xlink="http://www.w3.org/1999/xlink" x="0px" y="0px"
	 viewBox="0 0 1020.4 50" style="enable-background:new 0 0 1020.4 50;" xml:space="preserve">
<style type="text/css">
	.wave-1-0{opacity:0.15;fill:#33A8C3;enable-background:new    ;}
</style>
<title>Untitled-4</title>
<path class="wave-1-0" d="M1020,54.7c0,0,0.3-40,0.3-50.6c-21.6-2.8-43.3-4.2-65-4.1c-61.1,0-115.9,10.5-153.1,27.1
	c-3.9,1.7-8.2,2.2-12.3,1.3C726.5,15.6,665.3,11.7,623.5,22c-11.7,2.9-54.4,14.7-66.5,14.7c-11.4,0-22.4-3.9-33.2-7.5
	C442.7,2.3,352.1-2.5,263.9,15.5c-20.1,4.1-40.2,9.7-60.8,8.9c-14.3-0.6-28.2-4.2-42.2-7c-47.9-9.6-99.4-10-147.1,0.8
	c-4.8,1-9.4,2.5-13.8,4.5c-0.1,6.9,0,32,0,32"/>
</svg>
