<svg id="wave-video-bg" class="moveback" xmlns="http://www.w3.org/2000/svg" viewBox="0 0 67.35 10.58"><defs><style>.bgwave-1{fill:url(#linear-gradient-wave-bg)}.bgwave-2{fill:none;stroke:#fec40d;stroke-miterlimit:10;stroke-width:.2px}</style><linearGradient id="linear-gradient-wave-bg" y1="4.33" x2="67.32" y2="4.33" gradientTransform="rotate(180 33.66 3.7)" gradientUnits="userSpaceOnUse"><stop offset="0" stop-color="#34a8c3"/><stop offset="1" stop-color="#ade0eb"/></linearGradient></defs><title>wave-video-bg</title><path class="bgwave-1" d="M0 0a31.39 31.39 0 0 1 6.32.91c1.62.4 4.4 1.22 6.54 1.83a48.59 48.59 0 0 0 25 .52C42 2.33 46.27 1.48 50.48.82a26.55 26.55 0 0 1 12.65.65 13.16 13.16 0 0 1 4.19 2.27v2.41c-4-3.64-9.86-4.34-15.27-4.07-10.78.55-21.46 4.12-32.12 2.76-4.07-.5-8-1.69-12-2.23A37.06 37.06 0 0 0 0 2.4" transform="translate(.01)"/><path class="bgwave-2" d="M0 7.88a37.3 37.3 0 0 0 4.34.28c6.66.09 17.05-2.5 26.85-2.08 10.31.44 16.7 4.36 26.4 4.4a54.48 54.48 0 0 0 9.73-.75" transform="translate(.01)"/></svg>