<svg id="wave-video-single-bg" xmlns="http://www.w3.org/2000/svg" xmlns:xlink="http://www.w3.org/1999/xlink" viewBox="0 0 67.32 6.15"><defs><style>.wavebgsingle-1{fill:url(#linear-gradient-wave-single-bg);}</style><linearGradient id="linear-gradient-wave-single-bg" y1="4.33" x2="67.32" y2="4.33" gradientTransform="translate(67.32 7.4) rotate(180)" gradientUnits="userSpaceOnUse"><stop offset="0" stop-color="#34a8c3"/><stop offset="1" stop-color="#ade0eb"/></linearGradient></defs><title>wave-video-bg</title><path class="wavebgsingle-1" d="M0,0A31.39,31.39,0,0,1,6.32.91c1.62,0.4,4.4,1.22,6.54,1.83a48.59,48.59,0,0,0,25,.52C42,2.33,46.27,1.48,50.48.82a26.55,26.55,0,0,1,12.65.65,13.16,13.16,0,0,1,4.19,2.27V6.15c-4-3.64-9.86-4.34-15.27-4.07C41.27,2.63,30.59,6.2,19.93,4.84c-4.07-.5-8-1.69-12-2.23A37.06,37.06,0,0,0,0,2.4" transform="translate(0 0)"/></svg>
