<svg id="Layer_1" data-name="Layer 1" xmlns="http://www.w3.org/2000/svg" viewBox="0 0 1020 65.19"><defs><style>.cls-1{fill:#fff;}</style></defs><title>Untitled-5</title><path class="cls-1" d="M0.94,23.74A300.12,300.12,0,0,1,102.15,22.3c12.77,2.05,25.84,5,38.72,3.26,10.54-1.4,20-5,29.8-7.53C211.5,7.36,241.1,2.78,278.25,1.3,320-.36,362.68-1.86,402.68,6.45c17.19,3.57,34.12,9,52.07,8.75,10.68-.14,21.06-2.29,31.47-3.93a333,333,0,0,1,109.3,1.15c11.67,2.1,23.25,4.84,35.3,5.23,16.12,0.52,31.78-3.21,47.53-5.64A297.86,297.86,0,0,1,788,15.74c16.38,3.72,32.31,8.89,49.45,10.15C860.59,27.58,883.32,22,906,18.63c55.87-8.33,62.65-16.41,114,1V65.19L0,65Z"/></svg>