<svg id="Layer_1" data-name="Layer 1" xmlns="http://www.w3.org/2000/svg" xmlns:xlink="http://www.w3.org/1999/xlink" viewBox="0 0 1000.45 126.78"><defs><style>.wb2-1{fill:#fff;}.wb2-2{fill:none;stroke:#fec40d;stroke-miterlimit:10;stroke-width:3px;}.wb2-3{fill:url(#linear-gradient);}</style><linearGradient id="linear-gradient" x1="-7.86" y1="45.58" x2="992.14" y2="45.58" gradientTransform="matrix(-1, 0, 0, 1, 992.33, 0)" gradientUnits="userSpaceOnUse"><stop offset="0.23" stop-color="#ade0eb" stop-opacity="0.5"/><stop offset="0.37" stop-color="#97d6e4" stop-opacity="0.5"/><stop offset="0.62" stop-color="#5cbbd1" stop-opacity="0.5"/><stop offset="0.76" stop-color="#35a9c5" stop-opacity="0.5"/></linearGradient></defs><title>Untitled-6</title><path class="wb2-1" d="M0.19,62.48S74.92,12.8,149.44,7.59c68-4.75,165,17,165,17s120.73-14.21,192.5-3.75S691.69,63.09,703.86,64.92C763,58.09,818.43,41.17,882.52,22.76A487,487,0,0,1,1000.19,3.55c0,32.23,0,118.34,0,118.34l-1000,4.9V62.48Z"/><path class="wb2-2" d="M0.19,44.16A570.39,570.39,0,0,0,64.7,48.41c98.15,1.3,253.25-37.06,398.77-30.92C616.67,24,711.51,82,855.58,82.71,918,83,966.38,77.57,1000.19,71.65"/><path class="wb2-3" d="M1000.19,35.78a552.61,552.61,0,0,0-117.6,3.06c-59.71,8-117.81,25.71-177.58,33.21C545.88,92,387.16,38.88,227,30.79,146.71,26.73,59,37.14.19,91.16c0-7.41,0-27.47,0-35.85,18-15.09,39.83-26,62.22-33.69,60-20.48,125.39-19.48,188-9.66S376,34.52,437.87,48.18c122.49,27,235.69,30.16,370.95-7.67,32.25-9,73.51-21.23,97.28-27.06A462.47,462.47,0,0,1,1000.19,0"/></svg>
