<svg version="1.1" id="Layer_1" xmlns="http://www.w3.org/2000/svg" xmlns:xlink="http://www.w3.org/1999/xlink" x="0px" y="0px"
	 viewBox="0 0 1000.5 126.8" style="enable-background:new 0 0 1000.5 126.8;" xml:space="preserve">
<style type="text/css">
	.bot-wave-0{fill:#FFFFFF;}
	.bot-wave-1{fill:none;stroke:#FEC40D;stroke-width:3;stroke-miterlimit:10;}
	.bot-wave-2{fill:url(#SVGID_1_);}
</style>
<title>Untitled-6</title>
<path class="bot-wave-0" d="M0.2,62.5c0,0,74.7-49.7,149.2-54.9c68-4.8,165,17,165,17s120.7-14.2,192.5-3.8S691.7,60,703.8,61.9
	c59.1-6.8,114.6-20.8,178.7-39.2C920.8,11.5,960.3,5,1000.2,3.5c0,32.2,0,124.2,0,124.2H0.2C0.2,127.8,0.2,62.5,0.2,62.5z"/>
<path class="bot-wave-1" d="M0.2,44.2c21.4,2.6,42.9,4.1,64.5,4.2c98.2,1.3,253.3-37.1,398.8-30.9C616.7,24,711.5,82,855.6,82.7
	c62.4,0.3,110.8-5.1,144.6-11.1"/>
<linearGradient id="SVGID_1_" gradientUnits="userSpaceOnUse" x1="958.03" y1="-48.45" x2="1958.13" y2="-48.45" gradientTransform="matrix(-1 0 0 1 1958.3301 94)">
	<stop  offset="0.23" style="bot-wave-op-color:#ADE0EB;stop-opacity:0.5"/>
	<stop  offset="0.37" style="bot-wave-op-color:#97D6E4;stop-opacity:0.5"/>
	<stop  offset="0.62" style="bot-wave-op-color:#5CBBD1;stop-opacity:0.5"/>
	<stop  offset="0.76" style="bot-wave-op-color:#35A9C5;stop-opacity:0.5"/>
</linearGradient>
<path class="bot-wave-2" d="M1000.2,35.8c-39.2-3.2-78.6-2.1-117.6,3.1c-59.7,8-117.8,25.7-177.6,33.2C545.9,92,387.2,38.9,227,30.8
	C146.7,26.7,59,37.1,0.2,91.2c0-7.4,0-27.5,0-35.8c18-15.1,39.8-26,62.2-33.7c60-20.5,125.4-19.5,188-9.7S376,34.5,437.9,48.2
	c122.5,27,235.7,30.2,371-7.7c32.2-9,73.5-21.2,97.3-27.1c30.8-7.7,62.3-12.2,94.1-13.5"/>
</svg>
