<svg id="wave-video-bg" class="moveback" xmlns="http://www.w3.org/2000/svg" xmlns:xlink="http://www.w3.org/1999/xlink" viewBox="0 0 67.35 10.58"><defs>
  <style>.bgwave-1{fill:url(#linear-gradient);}.bgwave-2{fill:none;stroke:#fec40d;stroke-miterlimit:10;stroke-width:0.2px;}</style><linearGradient id="linear-gradient" y1="4.33" x2="67.32" y2="4.33" gradientTransform="translate(67.32 7.4) rotate(180)" gradientUnits="userSpaceOnUse"><stop offset="0" stop-color="#34a8c3"/><stop offset="1" stop-color="#ade0eb"/></linearGradient>
</defs><title>wave-video-bg</title>
<path class="bgwave-1" d="M0,0A31.39,31.39,0,0,1,6.32.91c1.62,0.4,4.4,1.22,6.54,1.83a48.59,48.59,0,0,0,25,.52C42,2.33,46.27,1.48,50.48.82a26.55,26.55,0,0,1,12.65.65,13.16,13.16,0,0,1,4.19,2.27V6.15c-4-3.64-9.86-4.34-15.27-4.07C41.27,2.63,30.59,6.2,19.93,4.84c-4.07-.5-8-1.69-12-2.23A37.06,37.06,0,0,0,0,2.4" transform="translate(0.01 0)"/>
<path class="bgwave-2" d="M0,7.88a37.3,37.3,0,0,0,4.34.28C11,8.25,21.39,5.66,31.19,6.08c10.31,0.44,16.7,4.36,26.4,4.4a54.48,54.48,0,0,0,9.73-.75" transform="translate(0.01 0)"/>
</svg>
