<?xml version="1.0" encoding="utf-8"?>
<!-- Generator: Adobe Illustrator 19.2.0, SVG Export Plug-In . SVG Version: 6.00 Build 0)  -->
<svg version="1.1" id="Layer_1" xmlns="http://www.w3.org/2000/svg" xmlns:xlink="http://www.w3.org/1999/xlink" x="0px" y="0px"
	 viewBox="0 0 1020 65.2" style="enable-background:new 0 0 1020 65.2;" xml:space="preserve">
<style type="text/css">
	.wave2{opacity:0.15;fill:#33A8C3;enable-background:new    ;}
</style>
<title>Untitled-5</title>
<g>
	<polygon class="wave2" points="1020,65.2 0,65 0,65.2 	"/>
	<path class="wave2" d="M102.2,22.3c12.8,2,25.8,5,38.7,3.3c10.5-1.4,20-5,29.8-7.5C211.5,7.4,241.1,2.8,278.2,1.3
		c41.8-1.7,84.4-3.2,124.4,5.2c17.2,3.6,34.1,9,52.1,8.8c10.7-0.1,21.1-2.3,31.5-3.9c36.2-5.6,73.2-5.3,109.3,1.1
		c11.7,2.1,23.2,4.8,35.3,5.2c16.1,0.5,31.8-3.2,47.5-5.6C714.8,6.5,752,7.7,788,15.7c16.4,3.7,32.3,8.9,49.5,10.2
		c23.1,1.7,45.9-3.9,68.5-7.3c55.9-8.3,62.7-16.4,114,1V0H0v65l0.9-41.3C34.4,17.5,68.6,17,102.2,22.3z"/>
</g>
</svg>
