<svg id="Layer_1" xmlns="http://www.w3.org/2000/svg" viewBox="0 0 1000.5 126.8"><style>.wb2-0{fill:#fff}.wb2-1{fill:none;stroke:#fec40d;stroke-width:3;stroke-miterlimit:10}.wb2-2{fill:url(#SVGID_1_)}</style><title>Untitled-6</title><path class="wb2-0" d="M.2 62.5S74.9 12.8 149.4 7.6c68-4.8 165 17 165 17s120.7-14.2 192.5-3.8S691.7 60 703.8 61.9c59.1-6.8 114.6-20.8 178.7-39.2C920.8 11.5 960.3 5 1000.2 3.5v124.2H.2V62.5z"/><path class="wb2-1" d="M.2 44.2c21.4 2.6 42.9 4.1 64.5 4.2 98.2 1.3 253.3-37.1 398.8-30.9C616.7 24 711.5 82 855.6 82.7c62.4.3 110.8-5.1 144.6-11.1"/><linearGradient id="SVGID_1_" gradientUnits="userSpaceOnUse" x1="1924.03" y1="174.45" x2="2924.13" y2="174.45" gradientTransform="rotate(180 1462.165 110)"><stop offset="0" stop-color="#34a8c3"/><stop offset="1" stop-color="#ade0eb"/></linearGradient><path class="wb2-2" d="M1000.2 35.8c-39.2-3.2-78.6-2.1-117.6 3.1-59.7 8-117.8 25.7-177.6 33.2C545.9 92 387.2 38.9 227 30.8 146.7 26.7 59 37.1.2 91.2V55.4c18-15.1 39.8-26 62.2-33.7 60-20.5 125.4-19.5 188-9.7S376 34.5 437.9 48.2c122.5 27 235.7 30.2 371-7.7 32.2-9 73.5-21.2 97.3-27.1C937 5.7 968.5 1.2 1000.3-.1"/></svg>