<svg id="Layer_1" xmlns="http://www.w3.org/2000/svg" viewBox="0 0 1020.4 50"><style>.wave-1-0{opacity:.15;fill:#33a8c3;enable-background:new}</style><title>Untitled-4</title><path class="wave-1-0" d="M1020 54.7s.3-40 .3-50.6C998.7 1.3 977-.1 955.3 0c-61.1 0-115.9 10.5-153.1 27.1-3.9 1.7-8.2 2.2-12.3 1.3-63.4-12.8-124.6-16.7-166.4-6.4-11.7 2.9-54.4 14.7-66.5 14.7-11.4 0-22.4-3.9-33.2-7.5C442.7 2.3 352.1-2.5 263.9 15.5c-20.1 4.1-40.2 9.7-60.8 8.9-14.3-.6-28.2-4.2-42.2-7-47.9-9.6-99.4-10-147.1.8-4.8 1-9.4 2.5-13.8 4.5-.1 6.9 0 32 0 32"/></svg>