<svg id="Layer_1" data-name="Layer 1" xmlns="http://www.w3.org/2000/svg" viewBox="0 0 470.34 424.64"><defs><style>.gs1-21,.gs1-214{fill:#74cfe8;}.gs1-21{opacity:0.15;}.gs1-22,.gs1-23{fill:#35a9c5;}.gs1-23{opacity:0.2;}.gs1-213,.gs1-216,.gs1-24,.gs1-26{fill:none;stroke-linecap:round;}.gs1-24,.gs1-26{stroke:#136d7c;}.gs1-213,.gs1-24,.gs1-26{stroke-linejoin:round;}.gs1-24{stroke-width:1.5px;}.gs1-25{opacity:0.4;}.gs1-26{stroke-width:2.5px;}.gs1-212,.gs1-27{fill:#fff;}.gs1-28{opacity:0.63;}.gs1-29{fill:#136d7c;}.gs1-210{fill:#ffc60a;}.gs1-211{fill:#37403f;}.gs1-212{opacity:0.8;}.gs1-213,.gs1-216{stroke:#ffc60a;}.gs1-213{stroke-width:2px;}.gs1-215{fill:#888789;}.gs1-216{stroke-miterlimit:10;stroke-width:3px;}</style></defs><title>Untitled-1</title><rect class="gs1-21" y="68.79" width="172.12" height="250.17" rx="15" ry="15"/><path class="gs1-22" d="M76,195.89a2.87,2.87,0,0,0,.25,1.26,2.27,2.27,0,0,0,.7.86,3,3,0,0,0,1,.49,5,5,0,0,0,1.27.15,4.07,4.07,0,0,0,1.26-.17,2.54,2.54,0,0,0,.85-0.44,1.61,1.61,0,0,0,.47-0.62A1.86,1.86,0,0,0,82,196.7a1.54,1.54,0,0,0-.33-1.09,1.9,1.9,0,0,0-.73-0.49,15.34,15.34,0,0,0-1.59-.48l-2.24-.58a4.81,4.81,0,0,1-1.38-.57,3.29,3.29,0,0,1-.87-0.78,2.77,2.77,0,0,1-.46-0.92,3.69,3.69,0,0,1-.13-1,3.34,3.34,0,0,1,.4-1.68,3.6,3.6,0,0,1,1.07-1.18,4.7,4.7,0,0,1,1.51-.69,6.61,6.61,0,0,1,1.71-.23,6.73,6.73,0,0,1,1.9.26,4.71,4.71,0,0,1,1.57.78,3.72,3.72,0,0,1,1.47,3.06H81.63a2.17,2.17,0,0,0-.85-1.75,3.35,3.35,0,0,0-1.93-.51,4.23,4.23,0,0,0-.81.08,2.59,2.59,0,0,0-.76.27,1.66,1.66,0,0,0-.57.51,1.57,1.57,0,0,0,.2,1.88,2.73,2.73,0,0,0,1.11.58l0.57,0.15,1.11,0.3L80.9,193l0.84,0.22a3.76,3.76,0,0,1,1.1.54,3.46,3.46,0,0,1,.78.78,3.26,3.26,0,0,1,.47.94,3.46,3.46,0,0,1,.15,1,3.64,3.64,0,0,1-.44,1.84,3.75,3.75,0,0,1-1.16,1.25,5.05,5.05,0,0,1-1.64.71,7.87,7.87,0,0,1-1.87.22,7.71,7.71,0,0,1-2.07-.27,4.84,4.84,0,0,1-1.69-.83A4.05,4.05,0,0,1,74.21,198a4.76,4.76,0,0,1-.45-2.06H76Z" transform="translate(-39.91)"/><path class="gs1-22" d="M87.06,196.06a3.57,3.57,0,0,0,.15,1,2.57,2.57,0,0,0,.46.88,2.22,2.22,0,0,0,.77.6,2.55,2.55,0,0,0,1.12.22,2.47,2.47,0,0,0,1.45-.39,2.29,2.29,0,0,0,.82-1.16h1.94a3.86,3.86,0,0,1-1.51,2.35,4.1,4.1,0,0,1-1.25.61,5,5,0,0,1-1.45.21,4.92,4.92,0,0,1-1.94-.36,4,4,0,0,1-1.43-1,4.27,4.27,0,0,1-.88-1.55,6.29,6.29,0,0,1-.3-2,5.61,5.61,0,0,1,.31-1.88,4.81,4.81,0,0,1,.9-1.57,4.22,4.22,0,0,1,3.28-1.47,4.16,4.16,0,0,1,2,.46,4.32,4.32,0,0,1,1.45,1.21,4.92,4.92,0,0,1,.84,1.74,5.33,5.33,0,0,1,.13,2H87.06Zm4.79-1.35a3.34,3.34,0,0,0-.21-0.94,2.51,2.51,0,0,0-.47-0.78,2.33,2.33,0,0,0-.72-0.54,2.13,2.13,0,0,0-.95-0.21,2.47,2.47,0,0,0-1,.19,2.23,2.23,0,0,0-.76.52,2.58,2.58,0,0,0-.5.78,2.73,2.73,0,0,0-.21,1h4.79Z" transform="translate(-39.91)"/><path class="gs1-22" d="M95,190.87h1.93v1.8h0a2.08,2.08,0,0,1,.35-0.74,3.42,3.42,0,0,1,.63-0.66,3.21,3.21,0,0,1,.82-0.48,2.45,2.45,0,0,1,.92-0.18l0.5,0,0.28,0v2l-0.44-.06-0.44,0a2.36,2.36,0,0,0-1,.21,2.25,2.25,0,0,0-.8.61,3,3,0,0,0-.54,1,4.31,4.31,0,0,0-.2,1.37v4.43H95v-9.31Z" transform="translate(-39.91)"/><path class="gs1-22" d="M100,190.87h2.23l2.36,7.15h0l2.27-7.15H109l-3.33,9.31h-2.3Z" transform="translate(-39.91)"/><path class="gs1-22" d="M109.85,187.33h2.05v1.94h-2.05v-1.94Zm0,3.55h2.05v9.31h-2.05v-9.31Z" transform="translate(-39.91)"/><path class="gs1-22" d="M120,194a1.93,1.93,0,0,0-.69-1.3,2.26,2.26,0,0,0-1.43-.44,3,3,0,0,0-.85.14,2,2,0,0,0-.83.5,2.83,2.83,0,0,0-.63,1,4.88,4.88,0,0,0-.25,1.72,5,5,0,0,0,.13,1.15,3.14,3.14,0,0,0,.43,1,2.33,2.33,0,0,0,.77.73,2.17,2.17,0,0,0,1.13.28,2.06,2.06,0,0,0,1.48-.56,2.59,2.59,0,0,0,.73-1.57H122a4.51,4.51,0,0,1-1.38,2.78,4.2,4.2,0,0,1-2.89,1,4.76,4.76,0,0,1-1.94-.37,4.11,4.11,0,0,1-1.41-1,4.28,4.28,0,0,1-.87-1.52,5.94,5.94,0,0,1-.3-1.91,6.52,6.52,0,0,1,.29-2,4.49,4.49,0,0,1,.86-1.59,4,4,0,0,1,1.43-1.06,4.83,4.83,0,0,1,2-.39,5.58,5.58,0,0,1,1.54.21,4.06,4.06,0,0,1,1.3.62,3.32,3.32,0,0,1,.93,1A3.58,3.58,0,0,1,122,194H120Z" transform="translate(-39.91)"/><path class="gs1-22" d="M124.85,196.06a3.57,3.57,0,0,0,.15,1,2.57,2.57,0,0,0,.46.88,2.22,2.22,0,0,0,.77.6,2.55,2.55,0,0,0,1.12.22,2.47,2.47,0,0,0,1.45-.39,2.29,2.29,0,0,0,.82-1.16h1.94a3.86,3.86,0,0,1-1.51,2.35,4.1,4.1,0,0,1-1.25.61,5,5,0,0,1-1.45.21,4.92,4.92,0,0,1-1.94-.36,4,4,0,0,1-1.43-1,4.27,4.27,0,0,1-.88-1.55,6.29,6.29,0,0,1-.3-2,5.61,5.61,0,0,1,.31-1.88,4.81,4.81,0,0,1,.9-1.57,4.22,4.22,0,0,1,3.28-1.47,4.16,4.16,0,0,1,2,.46,4.32,4.32,0,0,1,1.45,1.21,4.92,4.92,0,0,1,.84,1.74,5.33,5.33,0,0,1,.13,2h-6.84Zm4.79-1.35a3.34,3.34,0,0,0-.21-0.94A2.51,2.51,0,0,0,129,193a2.33,2.33,0,0,0-.72-0.54,2.13,2.13,0,0,0-.95-0.21,2.47,2.47,0,0,0-1,.19,2.23,2.23,0,0,0-.76.52,2.58,2.58,0,0,0-.5.78,2.73,2.73,0,0,0-.21,1h4.79Z" transform="translate(-39.91)"/><path class="gs1-22" d="M134.35,197.19a1.55,1.55,0,0,0,.68,1.26,2.7,2.7,0,0,0,1.42.36,5.44,5.44,0,0,0,.66,0,2.83,2.83,0,0,0,.69-0.17,1.31,1.31,0,0,0,.53-0.37,0.89,0.89,0,0,0,.19-0.64,0.91,0.91,0,0,0-.29-0.65,2,2,0,0,0-.69-0.4,6.68,6.68,0,0,0-1-.26l-1.1-.23a10.27,10.27,0,0,1-1.11-.31,3.54,3.54,0,0,1-1-.49,2.24,2.24,0,0,1-.68-0.78,2.5,2.5,0,0,1-.25-1.18,2.12,2.12,0,0,1,.37-1.27,2.83,2.83,0,0,1,.94-0.83,4.07,4.07,0,0,1,1.26-.44,7.4,7.4,0,0,1,1.32-.13,6.08,6.08,0,0,1,1.38.15,3.77,3.77,0,0,1,1.19.5,2.91,2.91,0,0,1,.88.89,3.09,3.09,0,0,1,.44,1.32h-2.14a1.28,1.28,0,0,0-.68-1,2.8,2.8,0,0,0-1.21-.25,4.48,4.48,0,0,0-.51,0,2.38,2.38,0,0,0-.56.14,1.16,1.16,0,0,0-.44.29,0.69,0.69,0,0,0-.18.49,0.78,0.78,0,0,0,.26.61,2,2,0,0,0,.68.39,6.67,6.67,0,0,0,1,.26l1.12,0.23q0.56,0.13,1.1.31a3.54,3.54,0,0,1,1,.49,2.37,2.37,0,0,1,.68.77,2.34,2.34,0,0,1,.26,1.15,2.5,2.5,0,0,1-.38,1.4,3,3,0,0,1-1,.94,4.44,4.44,0,0,1-1.34.52,6.76,6.76,0,0,1-1.46.16,6.35,6.35,0,0,1-1.63-.2,3.8,3.8,0,0,1-1.3-.6,2.91,2.91,0,0,1-.86-1,3.2,3.2,0,0,1-.33-1.43h2.05Z" transform="translate(-39.91)"/><path class="gs1-22" d="M72.56,207.33h9.25v1.94h-7v3.37h6.48v1.84H74.81v3.76h7.13v1.95H72.56V207.33Z" transform="translate(-39.91)"/><path class="gs1-22" d="M83.16,210.87H85.1v1.37l0,0a3.44,3.44,0,0,1,1.22-1.21,3.26,3.26,0,0,1,1.67-.44,3.48,3.48,0,0,1,2.41.79,3,3,0,0,1,.88,2.38v6.39H89.28v-5.85a2.53,2.53,0,0,0-.47-1.59,1.7,1.7,0,0,0-1.35-.5,2.23,2.23,0,0,0-.94.19,2,2,0,0,0-.7.52,2.44,2.44,0,0,0-.45.78,2.81,2.81,0,0,0-.16,1v5.49H83.16v-9.31Z" transform="translate(-39.91)"/><path class="gs1-22" d="M101.81,220.18H99.86v-1.26h0a2.44,2.44,0,0,1-1.21,1.16,4.08,4.08,0,0,1-1.67.35A4.45,4.45,0,0,1,95,220,3.81,3.81,0,0,1,93.67,219a4.51,4.51,0,0,1-.81-1.57,6.83,6.83,0,0,1-.27-2,6.24,6.24,0,0,1,.34-2.18,4.36,4.36,0,0,1,.91-1.51,3.53,3.53,0,0,1,1.3-.87,4.14,4.14,0,0,1,1.49-.28,4.91,4.91,0,0,1,.88.08,3.87,3.87,0,0,1,.86.26,3.39,3.39,0,0,1,.76.46,2.53,2.53,0,0,1,.58.66h0v-4.75h2.05v12.85Zm-7.16-4.55a4.53,4.53,0,0,0,.15,1.17,3.18,3.18,0,0,0,.47,1,2.27,2.27,0,0,0,2,1,2.31,2.31,0,0,0,1.18-.29,2.44,2.44,0,0,0,.81-0.76,3.45,3.45,0,0,0,.47-1.05,4.71,4.71,0,0,0,.15-1.2,3.76,3.76,0,0,0-.69-2.41,2.28,2.28,0,0,0-1.88-.86,2.32,2.32,0,0,0-1.21.3,2.48,2.48,0,0,0-.81.77,3.22,3.22,0,0,0-.45,1.08A5.63,5.63,0,0,0,94.64,215.62Z" transform="translate(-39.91)"/><path class="gs1-22" d="M103.64,210.87h1.94v1.26h0a2.54,2.54,0,0,1,1.21-1.16,4,4,0,0,1,1.67-.35,4.45,4.45,0,0,1,1.92.39,3.78,3.78,0,0,1,1.36,1.06,4.62,4.62,0,0,1,.81,1.57,6.69,6.69,0,0,1,.27,1.93,6.81,6.81,0,0,1-.24,1.82,4.73,4.73,0,0,1-.74,1.56,3.6,3.6,0,0,1-3,1.49,5,5,0,0,1-.9-0.08,3.86,3.86,0,0,1-.86-0.26,3.46,3.46,0,0,1-.76-0.46,2.57,2.57,0,0,1-.58-0.66h0v4.64h-2.05V210.87Zm7.16,4.66a4.64,4.64,0,0,0-.16-1.22,3.35,3.35,0,0,0-.49-1.05,2.53,2.53,0,0,0-.81-0.74,2.2,2.2,0,0,0-1.12-.28,2.26,2.26,0,0,0-2,.9,4,4,0,0,0-.66,2.39,4.75,4.75,0,0,0,.17,1.3,2.92,2.92,0,0,0,.51,1,2.54,2.54,0,0,0,.82.68,2.33,2.33,0,0,0,1.11.25,2.3,2.3,0,0,0,1.19-.29,2.5,2.5,0,0,0,.8-0.75,3,3,0,0,0,.45-1A5.32,5.32,0,0,0,110.81,215.53Z" transform="translate(-39.91)"/><path class="gs1-22" d="M118.4,220.43a5.07,5.07,0,0,1-2-.37,4.25,4.25,0,0,1-1.48-1,4.35,4.35,0,0,1-.92-1.55,6,6,0,0,1-.31-2,5.91,5.91,0,0,1,.31-2,4.35,4.35,0,0,1,.92-1.55,4.25,4.25,0,0,1,1.48-1,5.56,5.56,0,0,1,4,0,4.25,4.25,0,0,1,1.48,1,4.35,4.35,0,0,1,.92,1.55,5.91,5.91,0,0,1,.31,2,6,6,0,0,1-.31,2,4.35,4.35,0,0,1-.92,1.55,4.25,4.25,0,0,1-1.48,1A5.07,5.07,0,0,1,118.4,220.43Zm0-1.62a2.36,2.36,0,0,0,1.19-.29,2.49,2.49,0,0,0,.83-0.76,3.31,3.31,0,0,0,.48-1.05,4.71,4.71,0,0,0,0-2.38,3.19,3.19,0,0,0-.48-1.05,2.56,2.56,0,0,0-.83-0.75,2.59,2.59,0,0,0-2.38,0,2.55,2.55,0,0,0-.83.75,3.18,3.18,0,0,0-.48,1.05,4.73,4.73,0,0,0,0,2.38,3.3,3.3,0,0,0,.48,1.05,2.49,2.49,0,0,0,.83.76A2.36,2.36,0,0,0,118.4,218.81Z" transform="translate(-39.91)"/><path class="gs1-22" d="M124.41,207.33h2.05v1.94h-2.05v-1.94Zm0,3.55h2.05v9.31h-2.05v-9.31Z" transform="translate(-39.91)"/><path class="gs1-22" d="M128.25,210.87h1.94v1.37l0,0a3.44,3.44,0,0,1,1.22-1.21,3.26,3.26,0,0,1,1.67-.44,3.48,3.48,0,0,1,2.41.79,3,3,0,0,1,.88,2.38v6.39h-2.05v-5.85a2.53,2.53,0,0,0-.47-1.59,1.7,1.7,0,0,0-1.35-.5,2.23,2.23,0,0,0-.94.19,2,2,0,0,0-.7.52,2.44,2.44,0,0,0-.45.78,2.81,2.81,0,0,0-.16,1v5.49h-2.05v-9.31Z" transform="translate(-39.91)"/><path class="gs1-22" d="M137.19,210.87h1.55v-2.79h2.05v2.79h1.85v1.53h-1.85v5a5,5,0,0,0,0,.56,1,1,0,0,0,.13.4,0.61,0.61,0,0,0,.3.24,1.45,1.45,0,0,0,.54.08h0.43a2.2,2.2,0,0,0,.43-0.06v1.58l-0.67.07a5.71,5.71,0,0,1-.67,0,4.49,4.49,0,0,1-1.31-.15,1.74,1.74,0,0,1-.77-0.45,1.55,1.55,0,0,1-.38-0.75,5.58,5.58,0,0,1-.12-1V212.4h-1.55v-1.53Z" transform="translate(-39.91)"/><path class="gs1-22" d="M78.37,243.62q-0.54-.86-1-1.78a14.36,14.36,0,0,1-.83-1.94,13.91,13.91,0,0,1-.55-2.15,14.11,14.11,0,0,1-.2-2.43,14,14,0,0,1,.68-4.28,16.61,16.61,0,0,1,1.92-4H80a18.23,18.23,0,0,0-1.65,4,16.06,16.06,0,0,0-.57,4.31,16.88,16.88,0,0,0,.54,4.32,15.66,15.66,0,0,0,1.67,4H78.37Z" transform="translate(-39.91)"/><path class="gs1-22" d="M80.82,227.33h5.67a5.4,5.4,0,0,1,2.23.39,3.51,3.51,0,0,1,1.33,1,3.37,3.37,0,0,1,.64,1.3,5.51,5.51,0,0,1,.17,1.29,5.4,5.4,0,0,1-.17,1.29,3.37,3.37,0,0,1-.64,1.29,3.44,3.44,0,0,1-1.33,1,5.47,5.47,0,0,1-2.23.39H83.07v4.93H80.82V227.33Zm2.25,6.08h3.29a2.93,2.93,0,0,0,.77-0.11,2.26,2.26,0,0,0,.73-0.35,1.81,1.81,0,0,0,.54-0.65,2.23,2.23,0,0,0,.21-1,2.62,2.62,0,0,0-.18-1,1.67,1.67,0,0,0-.49-0.66,1.71,1.71,0,0,0-.7-0.33,3.78,3.78,0,0,0-.85-0.09H83.07v4.25Z" transform="translate(-39.91)"/><path class="gs1-22" d="M92.09,230.87H94v1.8h0a2.08,2.08,0,0,1,.35-0.74,3.45,3.45,0,0,1,.63-0.66,3.24,3.24,0,0,1,.82-0.48,2.47,2.47,0,0,1,.92-0.18l0.5,0,0.28,0v2l-0.44-.06-0.44,0a2.38,2.38,0,0,0-1,.21,2.25,2.25,0,0,0-.8.61,3,3,0,0,0-.54,1,4.33,4.33,0,0,0-.2,1.37v4.43H92.09v-9.31Z" transform="translate(-39.91)"/><path class="gs1-22" d="M98,227.33h2.05v1.94H98v-1.94Zm0,3.54h2.05v9.31H98v-9.31Z" transform="translate(-39.91)"/><path class="gs1-22" d="M100.94,230.87h2.23l2.36,7.15h0l2.27-7.15H110l-3.33,9.31h-2.3Z" transform="translate(-39.91)"/><path class="gs1-22" d="M118.55,238.11a1.08,1.08,0,0,0,.1.54,0.41,0.41,0,0,0,.39.16h0.22a1.38,1.38,0,0,0,.29,0v1.42l-0.28.08-0.35.08-0.36.05-0.31,0a2,2,0,0,1-1-.25,1.26,1.26,0,0,1-.54-0.88,3.64,3.64,0,0,1-1.5.87,5.93,5.93,0,0,1-1.72.27,4.17,4.17,0,0,1-1.21-.17,3.13,3.13,0,0,1-1-.5,2.4,2.4,0,0,1-.7-0.85,2.61,2.61,0,0,1-.26-1.2,2.76,2.76,0,0,1,.31-1.4,2.34,2.34,0,0,1,.83-0.85,3.75,3.75,0,0,1,1.15-.44q0.64-.13,1.29-0.21c0.37-.07.73-0.12,1.06-0.15a4.9,4.9,0,0,0,.89-0.15,1.37,1.37,0,0,0,.61-0.33,0.92,0.92,0,0,0,.23-0.67,1.05,1.05,0,0,0-.19-0.65,1.27,1.27,0,0,0-.47-0.39,2,2,0,0,0-.62-0.18,4.78,4.78,0,0,0-.65,0,2.57,2.57,0,0,0-1.42.36,1.4,1.4,0,0,0-.63,1.12h-2.05a3.09,3.09,0,0,1,.43-1.49,3,3,0,0,1,1-1,3.93,3.93,0,0,1,1.32-.5,7.89,7.89,0,0,1,1.51-.14,6.39,6.39,0,0,1,1.35.14,3.85,3.85,0,0,1,1.2.47,2.6,2.6,0,0,1,.85.84,2.29,2.29,0,0,1,.32,1.25v4.79Zm-2.05-2.59a2.51,2.51,0,0,1-1.15.37c-0.46,0-.91.11-1.37,0.19a4.23,4.23,0,0,0-.63.15,1.92,1.92,0,0,0-.54.27,1.2,1.2,0,0,0-.37.45,1.54,1.54,0,0,0-.14.68,0.86,0.86,0,0,0,.2.58,1.43,1.43,0,0,0,.48.37,2.24,2.24,0,0,0,.61.19,3.88,3.88,0,0,0,.6.05,3.31,3.31,0,0,0,.74-0.09,2.45,2.45,0,0,0,.75-0.3,2,2,0,0,0,.58-0.55,1.39,1.39,0,0,0,.23-0.82v-1.53Z" transform="translate(-39.91)"/><path class="gs1-22" d="M119.37,230.87h1.55v-2.79H123v2.79h1.85v1.53H123v5a5,5,0,0,0,0,.56,1,1,0,0,0,.13.4,0.61,0.61,0,0,0,.3.24,1.45,1.45,0,0,0,.54.08h0.43a2.2,2.2,0,0,0,.43-0.06v1.58l-0.67.07a5.71,5.71,0,0,1-.67,0,4.49,4.49,0,0,1-1.31-.15,1.74,1.74,0,0,1-.77-0.45,1.55,1.55,0,0,1-.38-0.75,5.58,5.58,0,0,1-.12-1V232.4h-1.55v-1.53Z" transform="translate(-39.91)"/><path class="gs1-22" d="M127.46,236.06a3.57,3.57,0,0,0,.15,1,2.57,2.57,0,0,0,.46.88,2.22,2.22,0,0,0,.77.6,2.55,2.55,0,0,0,1.12.22,2.47,2.47,0,0,0,1.45-.39,2.29,2.29,0,0,0,.82-1.16h1.94a3.85,3.85,0,0,1-1.51,2.35,4.1,4.1,0,0,1-1.25.61,5.08,5.08,0,0,1-1.45.21,4.92,4.92,0,0,1-1.94-.36,4,4,0,0,1-1.43-1,4.27,4.27,0,0,1-.88-1.55,6.29,6.29,0,0,1-.3-2,5.6,5.6,0,0,1,.31-1.88,4.83,4.83,0,0,1,.9-1.57,4.23,4.23,0,0,1,3.28-1.47,4.16,4.16,0,0,1,2,.46,4.33,4.33,0,0,1,1.45,1.21,4.93,4.93,0,0,1,.84,1.74,5.33,5.33,0,0,1,.13,2h-6.84Zm4.79-1.35a3.33,3.33,0,0,0-.21-0.94,2.49,2.49,0,0,0-.47-0.78,2.32,2.32,0,0,0-.72-0.54,2.14,2.14,0,0,0-.95-0.21,2.48,2.48,0,0,0-1,.19,2.25,2.25,0,0,0-.76.52,2.57,2.57,0,0,0-.5.78,2.73,2.73,0,0,0-.21,1h4.79Z" transform="translate(-39.91)"/><path class="gs1-22" d="M135.86,227q0.54,0.86,1,1.79a15.54,15.54,0,0,1,.82,1.94,14.67,14.67,0,0,1,.56,2.15,13.58,13.58,0,0,1,.21,2.43,14,14,0,0,1-.68,4.28,16.29,16.29,0,0,1-1.92,4h-1.67a17.85,17.85,0,0,0,1.65-4,16,16,0,0,0,.57-4.31,16.89,16.89,0,0,0-.54-4.32,16,16,0,0,0-1.67-4h1.67Z" transform="translate(-39.91)"/><path class="gs1-22" d="M112.68,150.74H91.85a0.52,0.52,0,1,0,0,1h20.83A0.52,0.52,0,1,0,112.68,150.74Z" transform="translate(-39.91)"/><path class="gs1-22" d="M124.81,135.64h-8a5.17,5.17,0,0,0-.66-2.9c-1.2-2-3.84-3.1-7.85-3.12s-6.61,1-7.81,3a5.19,5.19,0,0,0-.67,3h-8a6,6,0,0,0-5.95,5.95v21.32a6,6,0,0,0,5.95,5.95h33a6,6,0,0,0,5.95-5.95V141.58A6,6,0,0,0,124.81,135.64Zm-22.18-1.76c0.71-1.19,2.66-1.81,5.66-1.79s5,0.68,5.72,1.89a2.82,2.82,0,0,1,.33,1.65h-12A2.89,2.89,0,0,1,102.63,133.88Zm17,26.37a7.76,7.76,0,0,1-7.26-5h-6.88L102.37,153l-3.62,2.52-2.82-1.61L92.49,155l-3.29-3.05,1.1-2.72h22.31A7.77,7.77,0,1,1,119.66,160.25Z" transform="translate(-39.91)"/><circle class="gs1-22" cx="82.71" cy="152.48" r="1.79"/><path class="gs1-23" d="M117.85,163a7.76,7.76,0,0,1-7.26-5h-6.88l-3.16-2.25-3.62,2.52-2.82-1.61-3.43,1.11-3.29-3.05,1.1-2.72h22.31A7.77,7.77,0,1,1,117.85,163Z" transform="translate(-39.91)"/><rect class="gs1-24" x="159.22" y="37.5" width="271.21" height="256.21" rx="3.14" ry="3.14"/><g class="gs1-25"><path class="gs1-26" d="M439.42,110.5H426.35c-1.1,0-2-1.59-2-3.53h0c0-1.94.9-3.53,2-3.53H453c1.1,0,2-1.59,2-3.53h0c0-1.94-.9-3.53-2-3.53H427.45" transform="translate(-39.91)"/><path class="gs1-26" d="M439.42,124.64H426.35c-1.1,0-2-1.59-2-3.53h0c0-1.94.9-3.53,2-3.53H453c1.1,0,2-1.59,2-3.53h0c0-1.94-.9-3.53-2-3.53H439.29" transform="translate(-39.91)"/><path class="gs1-26" d="M439.42,138.78H426.35c-1.1,0-2-1.59-2-3.53h0c0-1.94.9-3.53,2-3.53H453c1.1,0,2-1.59,2-3.53h0c0-1.94-.9-3.53-2-3.53H439.29" transform="translate(-39.91)"/><path class="gs1-26" d="M439.42,152.93H426.35c-1.1,0-2-1.59-2-3.53h0c0-1.94.9-3.53,2-3.53H453c1.1,0,2-1.59,2-3.53h0c0-1.94-.9-3.53-2-3.53H439.29" transform="translate(-39.91)"/><path class="gs1-26" d="M439.42,167.07H426.35c-1.1,0-2-1.59-2-3.53h0c0-1.94.9-3.53,2-3.53H453c1.1,0,2-1.59,2-3.53h0c0-1.94-.9-3.53-2-3.53H439.29" transform="translate(-39.91)"/><path class="gs1-26" d="M439.42,181.22H426.35c-1.1,0-2-1.59-2-3.53h0c0-1.94.9-3.53,2-3.53H453c1.1,0,2-1.59,2-3.53h0c0-1.94-.9-3.53-2-3.53H439.29" transform="translate(-39.91)"/><path class="gs1-26" d="M439.42,195.21H426.35c-1.1,0-2-1.59-2-3.53h0c0-1.94.9-3.53,2-3.53H453c1.1,0,2-1.59,2-3.53h0c0-1.94-.9-3.53-2-3.53H439.29" transform="translate(-39.91)"/><path class="gs1-26" d="M439.42,209.36H426.35c-1.1,0-2-1.59-2-3.53h0c0-1.94.9-3.53,2-3.53H453c1.1,0,2-1.59,2-3.53h0c0-1.94-.9-3.53-2-3.53H439.29" transform="translate(-39.91)"/><path class="gs1-26" d="M439.42,223.5H426.35c-1.1,0-2-1.59-2-3.53h0c0-1.94.9-3.53,2-3.53H453c1.1,0,2-1.59,2-3.53h0c0-1.94-.9-3.53-2-3.53H439.29" transform="translate(-39.91)"/><path class="gs1-26" d="M439.42,237.64H426.35c-1.1,0-2-1.59-2-3.53h0c0-1.94.9-3.53,2-3.53H453c1.1,0,2-1.59,2-3.53h0c0-1.94-.9-3.53-2-3.53H439.29" transform="translate(-39.91)"/><path class="gs1-26" d="M439.42,82.18H426.35c-1.1,0-2-1.59-2-3.53h0c0-1.94.9-3.53,2-3.53H453c1.1,0,2-1.59,2-3.53h0c0-1.94-.9-3.53-2-3.53H439.29" transform="translate(-39.91)"/><path class="gs1-26" d="M439.51,68H426.43c-1.1,0-2-1.59-2-3.53h0c0-1.94.9-3.53,2-3.53H453.1c1.1,0,2-1.59,2-3.53h0c0-1.94-.9-3.53-2-3.53H439.38" transform="translate(-39.91)"/><path class="gs1-26" d="M439.42,96.33H426.35c-1.1,0-2-1.59-2-3.53h0c0-1.94.9-3.53,2-3.53H453c1.1,0,2-1.59,2-3.53h0c0-1.94-.9-3.53-2-3.53H439.29" transform="translate(-39.91)"/><path class="gs1-26" d="M439.42,251.71H426.35c-1.1,0-2-1.59-2-3.53h0c0-1.94.9-3.53,2-3.53H453c1.1,0,2-1.59,2-3.53h0c0-1.94-.9-3.53-2-3.53H439.29" transform="translate(-39.91)"/><path class="gs1-26" d="M426.35,258.79H453c1.1,0,2-1.59,2-3.53h0c0-1.94-.9-3.53-2-3.53H439.29" transform="translate(-39.91)"/></g><rect class="gs1-27" x="380.52" y="253.87" width="38.91" height="14.5"/><g class="gs1-28"><path class="gs1-29" d="M423.9,260.28h3.75a2.91,2.91,0,0,1,1.95.56,2,2,0,0,1,.65,1.56,2.27,2.27,0,0,1-.17.93,2,2,0,0,1-.38.59,1.5,1.5,0,0,1-.43.32l-0.31.13v0a1.41,1.41,0,0,1,.38.11,1.12,1.12,0,0,1,.38.28,1.54,1.54,0,0,1,.29.5,2.21,2.21,0,0,1,.12.77,7,7,0,0,0,.1,1.26,1.65,1.65,0,0,0,.33.81h-1.47a1.29,1.29,0,0,1-.18-0.56c0-.21,0-0.4,0-0.59a5.68,5.68,0,0,0-.07-0.93,1.63,1.63,0,0,0-.24-0.65,1,1,0,0,0-.48-0.38,2.13,2.13,0,0,0-.78-0.12h-2v3.23H423.9v-7.85Zm1.38,3.57h2.25a1.43,1.43,0,0,0,1-.31,1.21,1.21,0,0,0,.34-0.94,1.46,1.46,0,0,0-.11-0.61,0.89,0.89,0,0,0-.3-0.37,1.13,1.13,0,0,0-.44-0.18,3,3,0,0,0-.51,0h-2.23v2.45Z" transform="translate(-39.91)"/><path class="gs1-29" d="M434.07,268.29a3.09,3.09,0,0,1-1.21-.23,2.58,2.58,0,0,1-.9-0.62,2.64,2.64,0,0,1-.56-0.95,3.63,3.63,0,0,1-.19-1.21,3.59,3.59,0,0,1,.19-1.2,2.64,2.64,0,0,1,.56-0.95,2.59,2.59,0,0,1,.9-0.62,3.39,3.39,0,0,1,2.43,0,2.6,2.6,0,0,1,.9.62,2.65,2.65,0,0,1,.56.95,3.62,3.62,0,0,1,.19,1.2,3.66,3.66,0,0,1-.19,1.21,2.66,2.66,0,0,1-.56.95,2.59,2.59,0,0,1-.9.62A3.1,3.1,0,0,1,434.07,268.29Zm0-1a1.44,1.44,0,0,0,.73-0.18,1.53,1.53,0,0,0,.51-0.46,2,2,0,0,0,.29-0.64,2.88,2.88,0,0,0,0-1.46,1.94,1.94,0,0,0-.29-0.64,1.56,1.56,0,0,0-.51-0.46,1.59,1.59,0,0,0-1.45,0,1.56,1.56,0,0,0-.51.46,2,2,0,0,0-.29.64,2.91,2.91,0,0,0,0,1.46,2,2,0,0,0,.29.64,1.53,1.53,0,0,0,.51.46A1.44,1.44,0,0,0,434.07,267.3Z" transform="translate(-39.91)"/><path class="gs1-29" d="M443,268.14h-1.23v-0.79h0a1.72,1.72,0,0,1-.69.69,1.87,1.87,0,0,1-.93.26,2.09,2.09,0,0,1-1.62-.56,2.44,2.44,0,0,1-.5-1.68v-3.61h1.25v3.49a1.54,1.54,0,0,0,.29,1.06,1,1,0,0,0,.8.31,1.58,1.58,0,0,0,.66-0.12,1.17,1.17,0,0,0,.43-0.32,1.24,1.24,0,0,0,.24-0.49,2.52,2.52,0,0,0,.07-0.62v-3.3H443v5.69Z" transform="translate(-39.91)"/><path class="gs1-29" d="M443.73,262.45h0.95v-1.71h1.25v1.71h1.13v0.93h-1.13v3a3.09,3.09,0,0,0,0,.34,0.58,0.58,0,0,0,.08.24,0.37,0.37,0,0,0,.18.15,0.88,0.88,0,0,0,.33,0h0.26l0.26,0v1l-0.41,0-0.41,0a2.81,2.81,0,0,1-.8-0.09,1.06,1.06,0,0,1-.47-0.28,0.94,0.94,0,0,1-.23-0.46,3.42,3.42,0,0,1-.07-0.63v-3.35h-0.95v-0.93Z" transform="translate(-39.91)"/><path class="gs1-29" d="M448.94,265.62a2.18,2.18,0,0,0,.09.64,1.59,1.59,0,0,0,.28.54,1.36,1.36,0,0,0,.47.37,1.56,1.56,0,0,0,.68.14,1.51,1.51,0,0,0,.89-0.24,1.4,1.4,0,0,0,.5-0.71H453a2.36,2.36,0,0,1-.92,1.44,2.51,2.51,0,0,1-.76.37,3.09,3.09,0,0,1-.89.13,3,3,0,0,1-1.19-.22,2.45,2.45,0,0,1-.87-0.62,2.62,2.62,0,0,1-.54-0.95,3.84,3.84,0,0,1-.18-1.21,3.43,3.43,0,0,1,.19-1.15,2.93,2.93,0,0,1,.55-1,2.58,2.58,0,0,1,2-.9,2.56,2.56,0,0,1,1.21.28,2.65,2.65,0,0,1,.88.74,3,3,0,0,1,.51,1.06,3.27,3.27,0,0,1,.08,1.24h-4.18Zm2.93-.83a2.07,2.07,0,0,0-.13-0.57,1.51,1.51,0,0,0-.29-0.48,1.43,1.43,0,0,0-.44-0.33,1.3,1.3,0,0,0-.58-0.13,1.51,1.51,0,0,0-.6.12,1.38,1.38,0,0,0-.46.32,1.59,1.59,0,0,0-.31.48,1.68,1.68,0,0,0-.13.59h2.93Z" transform="translate(-39.91)"/><path class="gs1-29" d="M454.08,262.45h1.18v1.1h0a1.25,1.25,0,0,1,.21-0.45,2.1,2.1,0,0,1,.39-0.4,2,2,0,0,1,.5-0.29,1.5,1.5,0,0,1,.56-0.11h0.3l0.17,0v1.21l-0.27,0-0.27,0a1.45,1.45,0,0,0-.6.13,1.37,1.37,0,0,0-.49.37,1.81,1.81,0,0,0-.33.61,2.63,2.63,0,0,0-.12.84v2.71h-1.25v-5.69Z" transform="translate(-39.91)"/></g><rect class="gs1-210" x="159.31" y="335.24" width="81.49" height="32.75" rx="3.14" ry="3.14"/><rect class="gs1-210" x="250.33" y="335.24" width="81.49" height="32.75" rx="3.14" ry="3.14"/><rect class="gs1-210" x="341.36" y="335.24" width="81.49" height="32.75" rx="3.14" ry="3.14"/><path class="gs1-211" d="M218.3,341.71a3.8,3.8,0,0,1,2.71.9,3.59,3.59,0,0,1,.95,2.73,6.19,6.19,0,0,1-.21,1.7,3.19,3.19,0,0,1-.66,1.25,2.87,2.87,0,0,1-1.14.77,4.57,4.57,0,0,1-1.64.27h-2.61v-7.61h2.61Zm0.08,6.76,0.43,0a2.34,2.34,0,0,0,.54-0.13,2.49,2.49,0,0,0,.57-0.29,1.93,1.93,0,0,0,.51-0.52,2.92,2.92,0,0,0,.37-0.83,4.35,4.35,0,0,0,.14-1.2,5.1,5.1,0,0,0-.13-1.22,2.34,2.34,0,0,0-.44-0.92,1.92,1.92,0,0,0-.78-0.58,3.14,3.14,0,0,0-1.18-.2H216.7v5.91h1.68Z" transform="translate(-39.91)"/><path class="gs1-211" d="M222.83,342.82v-1.11h0.91v1.11h-0.91Zm0.91,1v5.51h-0.91v-5.51h0.91Z" transform="translate(-39.91)"/><path class="gs1-211" d="M225.57,348.09a1,1,0,0,0,.34.33,1.54,1.54,0,0,0,.47.18,2.72,2.72,0,0,0,.54.05l0.45,0a1.62,1.62,0,0,0,.43-0.12,0.8,0.8,0,0,0,.33-0.25,0.67,0.67,0,0,0,.13-0.42,0.6,0.6,0,0,0-.27-0.53,2.25,2.25,0,0,0-.67-0.29q-0.4-.11-0.87-0.2a4.44,4.44,0,0,1-.87-0.26,1.8,1.8,0,0,1-.67-0.46,1.21,1.21,0,0,1-.27-0.83,1.31,1.31,0,0,1,.19-0.71,1.51,1.51,0,0,1,.48-0.49,2.21,2.21,0,0,1,.66-0.28,3,3,0,0,1,.73-0.09,4.39,4.39,0,0,1,.86.08,2,2,0,0,1,.7.28,1.44,1.44,0,0,1,.49.53,2,2,0,0,1,.21.84h-0.91a0.92,0.92,0,0,0-.14-0.44,0.9,0.9,0,0,0-.3-0.28,1.36,1.36,0,0,0-.4-0.16,2,2,0,0,0-.44,0,2.68,2.68,0,0,0-.41,0,1.41,1.41,0,0,0-.38.11,0.77,0.77,0,0,0-.28.21,0.54,0.54,0,0,0-.11.35,0.51,0.51,0,0,0,.17.39,1.32,1.32,0,0,0,.42.26,3.78,3.78,0,0,0,.58.17l0.64,0.14a6.75,6.75,0,0,1,.67.18,2.15,2.15,0,0,1,.58.28,1.37,1.37,0,0,1,.41.44,1.3,1.3,0,0,1,.16.66,1.53,1.53,0,0,1-.21.83,1.62,1.62,0,0,1-.54.53,2.27,2.27,0,0,1-.76.28,4.45,4.45,0,0,1-.84.08,3.9,3.9,0,0,1-.87-0.1,2.15,2.15,0,0,1-.74-0.31,1.6,1.6,0,0,1-.51-0.58,2,2,0,0,1-.21-0.87h0.91A1,1,0,0,0,225.57,348.09Z" transform="translate(-39.91)"/><path class="gs1-211" d="M232.3,343.81v0.8h-1.1V348a1,1,0,0,0,0,.26,0.26,0.26,0,0,0,.1.15,0.45,0.45,0,0,0,.21.07l0.35,0h0.42v0.8h-0.69a3.23,3.23,0,0,1-.6,0,0.89,0.89,0,0,1-.41-0.18,0.75,0.75,0,0,1-.23-0.36,2.1,2.1,0,0,1-.07-0.62v-3.51h-0.94v-0.8h0.94v-1.65h0.91v1.65h1.1Z" transform="translate(-39.91)"/><path class="gs1-211" d="M233.86,343.81V345h0a2.45,2.45,0,0,1,.81-1,2,2,0,0,1,1.21-.3v1a2.56,2.56,0,0,0-.93.15,1.47,1.47,0,0,0-.62.44,1.82,1.82,0,0,0-.34.7,3.76,3.76,0,0,0-.11.94v2.45H233v-5.51h0.85Z" transform="translate(-39.91)"/><path class="gs1-211" d="M236.37,342.82v-1.11h0.91v1.11h-0.91Zm0.91,1v5.51h-0.91v-5.51h0.91Z" transform="translate(-39.91)"/><path class="gs1-211" d="M239.36,341.71v2.85h0a1.36,1.36,0,0,1,.7-0.67,2.62,2.62,0,0,1,1.05-.21,2.49,2.49,0,0,1,1.11.24,2.26,2.26,0,0,1,.79.63,2.84,2.84,0,0,1,.47.92,3.78,3.78,0,0,1,.16,1.11,3.91,3.91,0,0,1-.15,1.11,2.63,2.63,0,0,1-.47.91,2.21,2.21,0,0,1-.79.61,2.56,2.56,0,0,1-1.1.22,2.74,2.74,0,0,1-.45,0,2.53,2.53,0,0,1-.5-0.14,1.94,1.94,0,0,1-.46-0.26,1.46,1.46,0,0,1-.37-0.41h0v0.74h-0.91v-7.61h0.91Zm3.26,4.06a2,2,0,0,0-.31-0.66,1.52,1.52,0,0,0-.53-0.46,1.61,1.61,0,0,0-.76-0.17,1.56,1.56,0,0,0-.78.18,1.57,1.57,0,0,0-.52.47,2,2,0,0,0-.29.67,3.19,3.19,0,0,0-.09.76,3.15,3.15,0,0,0,.1.78,1.93,1.93,0,0,0,.3.67,1.54,1.54,0,0,0,.54.46,1.68,1.68,0,0,0,.8.18,1.55,1.55,0,0,0,.78-0.18,1.46,1.46,0,0,0,.51-0.48,2.07,2.07,0,0,0,.28-0.68,3.58,3.58,0,0,0,.09-0.79A2.83,2.83,0,0,0,242.61,345.77Z" transform="translate(-39.91)"/><path class="gs1-211" d="M248.18,349.33v-0.87h0a1.85,1.85,0,0,1-.74.75,2.2,2.2,0,0,1-1.05.24,2.48,2.48,0,0,1-.91-0.14,1.45,1.45,0,0,1-.59-0.41,1.55,1.55,0,0,1-.31-0.63,3.4,3.4,0,0,1-.09-0.82v-3.62h0.91v3.73a1.1,1.1,0,0,0,.3.81,1.11,1.11,0,0,0,.82.3,1.84,1.84,0,0,0,.72-0.13,1.35,1.35,0,0,0,.51-0.36,1.56,1.56,0,0,0,.3-0.55,2.24,2.24,0,0,0,.1-0.69v-3.11H249v5.51h-0.85Z" transform="translate(-39.91)"/><path class="gs1-211" d="M252.49,343.81v0.8h-1.1V348a1,1,0,0,0,0,.26,0.26,0.26,0,0,0,.1.15,0.45,0.45,0,0,0,.21.07l0.35,0h0.42v0.8H251.8a3.23,3.23,0,0,1-.6,0,0.89,0.89,0,0,1-.41-0.18,0.75,0.75,0,0,1-.23-0.36,2.1,2.1,0,0,1-.07-0.62v-3.51h-0.94v-0.8h0.94v-1.65h0.91v1.65h1.1Z" transform="translate(-39.91)"/><path class="gs1-211" d="M257.13,349a2.5,2.5,0,0,1-1.56.47,2.84,2.84,0,0,1-1.15-.21,2.25,2.25,0,0,1-.82-0.6,2.53,2.53,0,0,1-.5-0.92,4.39,4.39,0,0,1-.19-1.16,3.32,3.32,0,0,1,.19-1.15,2.74,2.74,0,0,1,.54-0.91,2.43,2.43,0,0,1,.82-0.6,2.5,2.5,0,0,1,1-.21,2.25,2.25,0,0,1,1.22.3,2.4,2.4,0,0,1,.78.77,3.05,3.05,0,0,1,.41,1,4.39,4.39,0,0,1,.09,1.06h-4.13a2.18,2.18,0,0,0,.09.69,1.55,1.55,0,0,0,.31.58,1.52,1.52,0,0,0,.54.4,1.88,1.88,0,0,0,.78.15,1.57,1.57,0,0,0,.94-0.27,1.29,1.29,0,0,0,.49-0.81h0.9A2.2,2.2,0,0,1,257.13,349Zm-0.22-3.54a1.54,1.54,0,0,0-1.44-.95,1.58,1.58,0,0,0-.63.12,1.45,1.45,0,0,0-.48.34,1.58,1.58,0,0,0-.32.5,1.9,1.9,0,0,0-.14.6h3.17A1.83,1.83,0,0,0,256.91,345.44Z" transform="translate(-39.91)"/><path class="gs1-211" d="M262.7,349.33v-0.75h0a1.33,1.33,0,0,1-.7.66,2.69,2.69,0,0,1-1.06.2,2.49,2.49,0,0,1-1.11-.23,2.3,2.3,0,0,1-.79-0.63,2.74,2.74,0,0,1-.47-0.92,3.77,3.77,0,0,1-.16-1.11,3.9,3.9,0,0,1,.15-1.11,2.62,2.62,0,0,1,.47-0.91,2.27,2.27,0,0,1,.79-0.62,2.52,2.52,0,0,1,1.1-.23,2.71,2.71,0,0,1,.46,0,2.34,2.34,0,0,1,.49.14,2.18,2.18,0,0,1,.46.27,1.46,1.46,0,0,1,.37.41h0v-2.84h0.91v7.61H262.7Zm-3.26-2a2,2,0,0,0,.31.66,1.51,1.51,0,0,0,.53.46,1.63,1.63,0,0,0,.76.17,1.55,1.55,0,0,0,.78-0.18,1.57,1.57,0,0,0,.52-0.47,2,2,0,0,0,.29-0.67,3.21,3.21,0,0,0,0-1.54,1.93,1.93,0,0,0-.3-0.67,1.55,1.55,0,0,0-.54-0.46,1.68,1.68,0,0,0-.8-0.18,1.55,1.55,0,0,0-.78.18,1.44,1.44,0,0,0-.51.48,2.09,2.09,0,0,0-.28.68,3.58,3.58,0,0,0-.09.79A2.83,2.83,0,0,0,259.44,347.37Z" transform="translate(-39.91)"/><path class="gs1-211" d="M218.86,352.73a3.8,3.8,0,0,1,2.71.9,3.59,3.59,0,0,1,.95,2.73,6.19,6.19,0,0,1-.21,1.7,3.19,3.19,0,0,1-.66,1.25,2.87,2.87,0,0,1-1.14.77,4.57,4.57,0,0,1-1.64.27h-2.61v-7.61h2.61Zm0.08,6.76,0.43,0a2.34,2.34,0,0,0,.54-0.13,2.49,2.49,0,0,0,.57-0.29,1.93,1.93,0,0,0,.51-0.52,2.92,2.92,0,0,0,.37-0.83,4.35,4.35,0,0,0,.14-1.2,5.1,5.1,0,0,0-.13-1.22,2.34,2.34,0,0,0-.44-0.92,1.92,1.92,0,0,0-.78-0.58,3.14,3.14,0,0,0-1.18-.2h-1.71v5.91h1.68Z" transform="translate(-39.91)"/><path class="gs1-211" d="M228.22,360.32a1.28,1.28,0,0,1-.65.14,0.78,0.78,0,0,1-.56-0.2,0.86,0.86,0,0,1-.21-0.64,2.16,2.16,0,0,1-.87.64,3,3,0,0,1-1.78.11,1.63,1.63,0,0,1-.58-0.27,1.29,1.29,0,0,1-.39-0.47,1.6,1.6,0,0,1-.14-0.71,1.62,1.62,0,0,1,.16-0.77,1.39,1.39,0,0,1,.42-0.48,1.93,1.93,0,0,1,.6-0.28c0.22-.06.45-0.12,0.69-0.16s0.49-.09.71-0.11a4.07,4.07,0,0,0,.59-0.11,1,1,0,0,0,.41-0.2,0.49,0.49,0,0,0,.15-0.39,0.9,0.9,0,0,0-.11-0.48,0.76,0.76,0,0,0-.29-0.28,1.16,1.16,0,0,0-.39-0.13,3,3,0,0,0-.43,0,1.92,1.92,0,0,0-1,.22,0.93,0.93,0,0,0-.42.83h-0.91a2,2,0,0,1,.21-0.86,1.61,1.61,0,0,1,.51-0.57,2.14,2.14,0,0,1,.73-0.31,3.83,3.83,0,0,1,.88-0.1,5.21,5.21,0,0,1,.74.05,1.94,1.94,0,0,1,.67.22,1.29,1.29,0,0,1,.48.46,1.47,1.47,0,0,1,.18.78V359a2.08,2.08,0,0,0,0,.47,0.22,0.22,0,0,0,.25.15,1.1,1.1,0,0,0,.28,0v0.7Zm-1.47-2.83a1.14,1.14,0,0,1-.45.19l-0.58.09-0.61.08a2.25,2.25,0,0,0-.55.15,1,1,0,0,0-.4.3,0.84,0.84,0,0,0-.16.54,0.73,0.73,0,0,0,.09.38,0.75,0.75,0,0,0,.23.25,1,1,0,0,0,.34.14,1.87,1.87,0,0,0,.41,0,2.16,2.16,0,0,0,.77-0.12,1.63,1.63,0,0,0,.52-0.31,1.22,1.22,0,0,0,.3-0.4,1,1,0,0,0,.1-0.41v-0.92Z" transform="translate(-39.91)"/><path class="gs1-211" d="M231.15,354.83v0.8h-1.1V359a1,1,0,0,0,0,.26,0.26,0.26,0,0,0,.1.15,0.45,0.45,0,0,0,.21.07l0.35,0h0.42v0.8h-0.69a3.23,3.23,0,0,1-.6,0,0.89,0.89,0,0,1-.41-0.18,0.75,0.75,0,0,1-.23-0.36,2.1,2.1,0,0,1-.07-0.62v-3.51h-0.94v-0.8h0.94v-1.65h0.91v1.65h1.1Z" transform="translate(-39.91)"/><path class="gs1-211" d="M236.77,360.32a1.28,1.28,0,0,1-.65.14,0.78,0.78,0,0,1-.56-0.2,0.86,0.86,0,0,1-.21-0.64,2.16,2.16,0,0,1-.87.64,3,3,0,0,1-1.78.11,1.63,1.63,0,0,1-.58-0.27,1.29,1.29,0,0,1-.39-0.47,1.6,1.6,0,0,1-.14-0.71,1.62,1.62,0,0,1,.16-0.77,1.39,1.39,0,0,1,.42-0.48,1.93,1.93,0,0,1,.6-0.28c0.22-.06.45-0.12,0.69-0.16s0.49-.09.71-0.11a4.07,4.07,0,0,0,.59-0.11,1,1,0,0,0,.41-0.2,0.49,0.49,0,0,0,.15-0.39,0.9,0.9,0,0,0-.11-0.48,0.76,0.76,0,0,0-.29-0.28,1.16,1.16,0,0,0-.39-0.13,3,3,0,0,0-.43,0,1.92,1.92,0,0,0-1,.22,0.93,0.93,0,0,0-.42.83H231.8a2,2,0,0,1,.21-0.86,1.61,1.61,0,0,1,.51-0.57,2.14,2.14,0,0,1,.73-0.31,3.83,3.83,0,0,1,.88-0.1,5.21,5.21,0,0,1,.74.05,1.94,1.94,0,0,1,.67.22,1.29,1.29,0,0,1,.48.46,1.47,1.47,0,0,1,.18.78V359a2.08,2.08,0,0,0,0,.47,0.22,0.22,0,0,0,.25.15,1.1,1.1,0,0,0,.28,0v0.7Zm-1.47-2.83a1.14,1.14,0,0,1-.45.19l-0.58.09-0.61.08a2.25,2.25,0,0,0-.55.15,1,1,0,0,0-.4.3,0.84,0.84,0,0,0-.16.54,0.73,0.73,0,0,0,.09.38,0.75,0.75,0,0,0,.23.25,1,1,0,0,0,.34.14,1.87,1.87,0,0,0,.41,0,2.16,2.16,0,0,0,.77-0.12,1.63,1.63,0,0,0,.52-0.31,1.22,1.22,0,0,0,.3-0.4,1,1,0,0,0,.1-0.41v-0.92Z" transform="translate(-39.91)"/><path class="gs1-211" d="M244,353.77a2.15,2.15,0,0,0-1.29-.37,3.07,3.07,0,0,0-.63.06,1.69,1.69,0,0,0-.55.21,1.13,1.13,0,0,0-.38.4,1.24,1.24,0,0,0-.14.62,0.79,0.79,0,0,0,.21.57,1.52,1.52,0,0,0,.55.36,4.6,4.6,0,0,0,.78.23l0.89,0.2c0.3,0.07.6,0.15,0.89,0.25a2.94,2.94,0,0,1,.78.39,1.84,1.84,0,0,1,.55.62,2.17,2.17,0,0,1-.06,2,2.22,2.22,0,0,1-.7.7,3,3,0,0,1-1,.39,4.61,4.61,0,0,1-1,.12,4.47,4.47,0,0,1-1.21-.16,3,3,0,0,1-1-.49A2.29,2.29,0,0,1,240,359a2.68,2.68,0,0,1-.25-1.2h1a1.73,1.73,0,0,0,.19.83,1.71,1.71,0,0,0,.49.57,2.07,2.07,0,0,0,.71.33,3.25,3.25,0,0,0,.83.11,3.84,3.84,0,0,0,.69-0.06,2,2,0,0,0,.62-0.22,1.23,1.23,0,0,0,.45-0.42,1.25,1.25,0,0,0,.17-0.68,1,1,0,0,0-.21-0.64,1.52,1.52,0,0,0-.55-0.4,4.05,4.05,0,0,0-.78-0.25l-0.89-.2q-0.45-.1-0.89-0.23a3.21,3.21,0,0,1-.78-0.35,1.68,1.68,0,0,1-.55-0.57,1.66,1.66,0,0,1-.21-0.87,2,2,0,0,1,.23-1,2,2,0,0,1,.62-0.69,2.78,2.78,0,0,1,.88-0.41,3.9,3.9,0,0,1,1-.13,4.1,4.1,0,0,1,1.09.14,2.46,2.46,0,0,1,.88.44,2.11,2.11,0,0,1,.6.75,2.68,2.68,0,0,1,.24,1.08h-1A1.59,1.59,0,0,0,244,353.77Z" transform="translate(-39.91)"/><path class="gs1-211" d="M249,354.83v0.8h-1.1V359a1,1,0,0,0,0,.26,0.26,0.26,0,0,0,.1.15,0.45,0.45,0,0,0,.21.07l0.35,0H249v0.8h-0.69a3.23,3.23,0,0,1-.6,0,0.89,0.89,0,0,1-.41-0.18,0.75,0.75,0,0,1-.23-0.36,2.1,2.1,0,0,1-.07-0.62v-3.51H246.1v-0.8H247v-1.65h0.91v1.65H249Z" transform="translate(-39.91)"/><path class="gs1-211" d="M249.65,356.45a2.57,2.57,0,0,1,.51-0.92,2.4,2.4,0,0,1,.84-0.61,3.08,3.08,0,0,1,2.31,0,2.41,2.41,0,0,1,.84.61,2.57,2.57,0,0,1,.51.92,3.66,3.66,0,0,1,.17,1.14,3.61,3.61,0,0,1-.17,1.13,2.57,2.57,0,0,1-.51.91,2.35,2.35,0,0,1-.84.61,3.15,3.15,0,0,1-2.31,0,2.34,2.34,0,0,1-.84-0.61,2.57,2.57,0,0,1-.51-0.91,3.61,3.61,0,0,1-.17-1.13A3.66,3.66,0,0,1,249.65,356.45Zm0.92,2a1.86,1.86,0,0,0,.37.65,1.59,1.59,0,0,0,.55.4,1.67,1.67,0,0,0,1.33,0,1.59,1.59,0,0,0,.55-0.4,1.86,1.86,0,0,0,.37-0.65,3,3,0,0,0,0-1.78,1.93,1.93,0,0,0-.37-0.66,1.57,1.57,0,0,0-.55-0.41,1.67,1.67,0,0,0-1.33,0,1.57,1.57,0,0,0-.55.41,1.93,1.93,0,0,0-.37.66A3,3,0,0,0,250.57,358.48Z" transform="translate(-39.91)"/><path class="gs1-211" d="M256.45,354.83V356h0a2.45,2.45,0,0,1,.81-1,2,2,0,0,1,1.21-.3v1a2.56,2.56,0,0,0-.93.15,1.47,1.47,0,0,0-.62.44,1.82,1.82,0,0,0-.34.7,3.76,3.76,0,0,0-.11.94v2.45H255.6v-5.51h0.85Z" transform="translate(-39.91)"/><path class="gs1-211" d="M262.62,360a2.5,2.5,0,0,1-1.56.47,2.84,2.84,0,0,1-1.15-.21,2.25,2.25,0,0,1-.82-0.6,2.53,2.53,0,0,1-.5-0.92,4.39,4.39,0,0,1-.19-1.16,3.32,3.32,0,0,1,.19-1.15,2.74,2.74,0,0,1,.54-0.91,2.43,2.43,0,0,1,.82-0.6,2.5,2.5,0,0,1,1-.21,2.25,2.25,0,0,1,1.22.3,2.4,2.4,0,0,1,.78.77,3.05,3.05,0,0,1,.41,1,4.39,4.39,0,0,1,.09,1.06h-4.13a2.18,2.18,0,0,0,.09.69,1.55,1.55,0,0,0,.31.58,1.52,1.52,0,0,0,.54.4,1.88,1.88,0,0,0,.78.15,1.57,1.57,0,0,0,.94-0.27,1.29,1.29,0,0,0,.49-0.81h0.9A2.2,2.2,0,0,1,262.62,360Zm-0.22-3.54a1.54,1.54,0,0,0-1.44-.95,1.58,1.58,0,0,0-.63.12,1.45,1.45,0,0,0-.48.34,1.58,1.58,0,0,0-.32.5,1.9,1.9,0,0,0-.14.6h3.17A1.83,1.83,0,0,0,262.41,356.45Z" transform="translate(-39.91)"/><path class="gs1-211" d="M312.44,342.79a2.36,2.36,0,0,0-1.38-.4,2.47,2.47,0,0,0-1.17.26,2.3,2.3,0,0,0-.8.69,3,3,0,0,0-.46,1,4.41,4.41,0,0,0-.15,1.15,4.92,4.92,0,0,0,.15,1.23,2.94,2.94,0,0,0,.46,1,2.28,2.28,0,0,0,.8.69,2.5,2.5,0,0,0,1.17.26,2.26,2.26,0,0,0,.89-0.17,2,2,0,0,0,.67-0.46,2.11,2.11,0,0,0,.44-0.7,2.92,2.92,0,0,0,.19-0.87h1a3.46,3.46,0,0,1-1,2.24,3.21,3.21,0,0,1-2.3.8,3.68,3.68,0,0,1-1.55-.3,3,3,0,0,1-1.1-.84,3.58,3.58,0,0,1-.66-1.26,5.38,5.38,0,0,1-.22-1.56,5,5,0,0,1,.24-1.56,3.75,3.75,0,0,1,.69-1.27,3.21,3.21,0,0,1,1.13-.86,3.65,3.65,0,0,1,1.55-.31,3.92,3.92,0,0,1,1.13.16,3,3,0,0,1,.95.47,2.65,2.65,0,0,1,.69.77,2.83,2.83,0,0,1,.36,1.07h-1A1.89,1.89,0,0,0,312.44,342.79Z" transform="translate(-39.91)"/><path class="gs1-211" d="M315,345.44a2.57,2.57,0,0,1,.51-0.92,2.4,2.4,0,0,1,.84-0.61,3.08,3.08,0,0,1,2.31,0,2.41,2.41,0,0,1,.84.61,2.57,2.57,0,0,1,.51.92,3.66,3.66,0,0,1,.17,1.14,3.61,3.61,0,0,1-.17,1.13,2.57,2.57,0,0,1-.51.91,2.35,2.35,0,0,1-.84.61,3.15,3.15,0,0,1-2.31,0,2.34,2.34,0,0,1-.84-0.61,2.57,2.57,0,0,1-.51-0.91,3.61,3.61,0,0,1-.17-1.13A3.66,3.66,0,0,1,315,345.44Zm0.92,2a1.86,1.86,0,0,0,.37.65,1.59,1.59,0,0,0,.55.4,1.67,1.67,0,0,0,1.33,0,1.59,1.59,0,0,0,.55-0.4,1.86,1.86,0,0,0,.37-0.65,3,3,0,0,0,0-1.78,1.93,1.93,0,0,0-.37-0.66,1.57,1.57,0,0,0-.55-0.41,1.67,1.67,0,0,0-1.33,0,1.57,1.57,0,0,0-.55.41,1.93,1.93,0,0,0-.37.66A3,3,0,0,0,315.92,347.47Z" transform="translate(-39.91)"/><path class="gs1-211" d="M321.83,343.81v0.88h0a1.91,1.91,0,0,1,1.79-1,2.39,2.39,0,0,1,.91.15,1.49,1.49,0,0,1,.59.42,1.54,1.54,0,0,1,.31.63,3.41,3.41,0,0,1,.09.82v3.62h-0.91v-3.73a1.09,1.09,0,0,0-.3-0.81,1.11,1.11,0,0,0-.82-0.3,1.85,1.85,0,0,0-.72.13,1.34,1.34,0,0,0-.51.36,1.57,1.57,0,0,0-.3.55,2.24,2.24,0,0,0-.1.69v3.11H321v-5.51h0.85Z" transform="translate(-39.91)"/><path class="gs1-211" d="M327.33,348.09a1,1,0,0,0,.34.33,1.54,1.54,0,0,0,.47.18,2.72,2.72,0,0,0,.54.05l0.45,0a1.62,1.62,0,0,0,.43-0.12,0.8,0.8,0,0,0,.33-0.25,0.67,0.67,0,0,0,.13-0.42,0.6,0.6,0,0,0-.27-0.53,2.25,2.25,0,0,0-.67-0.29q-0.4-.11-0.87-0.2a4.44,4.44,0,0,1-.87-0.26,1.8,1.8,0,0,1-.67-0.46,1.21,1.21,0,0,1-.27-0.83,1.31,1.31,0,0,1,.19-0.71,1.51,1.51,0,0,1,.48-0.49,2.21,2.21,0,0,1,.66-0.28,3,3,0,0,1,.73-0.09,4.39,4.39,0,0,1,.86.08,2,2,0,0,1,.7.28,1.44,1.44,0,0,1,.49.53,2,2,0,0,1,.21.84h-0.91a0.92,0.92,0,0,0-.14-0.44,0.9,0.9,0,0,0-.3-0.28,1.36,1.36,0,0,0-.4-0.16,2,2,0,0,0-.44,0,2.68,2.68,0,0,0-.41,0,1.41,1.41,0,0,0-.38.11,0.77,0.77,0,0,0-.28.21,0.54,0.54,0,0,0-.11.35,0.51,0.51,0,0,0,.17.39,1.32,1.32,0,0,0,.42.26,3.78,3.78,0,0,0,.58.17l0.64,0.14a6.75,6.75,0,0,1,.67.18,2.15,2.15,0,0,1,.58.28,1.37,1.37,0,0,1,.41.44,1.3,1.3,0,0,1,.16.66,1.53,1.53,0,0,1-.21.83,1.62,1.62,0,0,1-.54.53,2.27,2.27,0,0,1-.76.28,4.45,4.45,0,0,1-.84.08,3.9,3.9,0,0,1-.87-0.1A2.15,2.15,0,0,1,327,349a1.6,1.6,0,0,1-.51-0.58,2,2,0,0,1-.21-0.87h0.91A1,1,0,0,0,327.33,348.09Z" transform="translate(-39.91)"/><path class="gs1-211" d="M335.41,349.33v-0.87h0a1.85,1.85,0,0,1-.74.75,2.2,2.2,0,0,1-1.05.24,2.48,2.48,0,0,1-.91-0.14,1.45,1.45,0,0,1-.59-0.41,1.55,1.55,0,0,1-.31-0.63,3.4,3.4,0,0,1-.09-0.82v-3.62h0.91v3.73a1.1,1.1,0,0,0,.3.81,1.11,1.11,0,0,0,.82.3,1.84,1.84,0,0,0,.72-0.13,1.35,1.35,0,0,0,.51-0.36,1.56,1.56,0,0,0,.3-0.55,2.24,2.24,0,0,0,.1-0.69v-3.11h0.91v5.51h-0.85Z" transform="translate(-39.91)"/><path class="gs1-211" d="M338.21,343.81v0.81h0a2.14,2.14,0,0,1,2.71-.72,1.2,1.2,0,0,1,.59.72,1.92,1.92,0,0,1,.73-0.69,2.06,2.06,0,0,1,1-.25,2.88,2.88,0,0,1,.75.09,1.55,1.55,0,0,1,.58.28,1.28,1.28,0,0,1,.37.5,1.81,1.81,0,0,1,.13.73v4h-0.91v-3.61a2.58,2.58,0,0,0,0-.48,1,1,0,0,0-.16-0.39,0.8,0.8,0,0,0-.32-0.26,1.3,1.3,0,0,0-.54-0.1,1.43,1.43,0,0,0-1.05.38,1.38,1.38,0,0,0-.38,1v3.43h-0.91v-3.61a2.4,2.4,0,0,0,0-.49,1,1,0,0,0-.17-0.39,0.77,0.77,0,0,0-.31-0.26,1.21,1.21,0,0,0-.51-0.09,1.35,1.35,0,0,0-.68.16,1.53,1.53,0,0,0-.46.38,1.55,1.55,0,0,0-.26.46,1.33,1.33,0,0,0-.08.4v3.43h-0.91v-5.51h0.85Z" transform="translate(-39.91)"/><path class="gs1-211" d="M350.09,349a2.5,2.5,0,0,1-1.56.47,2.84,2.84,0,0,1-1.15-.21,2.25,2.25,0,0,1-.82-0.6,2.53,2.53,0,0,1-.5-0.92,4.39,4.39,0,0,1-.19-1.16,3.32,3.32,0,0,1,.19-1.15,2.74,2.74,0,0,1,.54-0.91,2.43,2.43,0,0,1,.82-0.6,2.5,2.5,0,0,1,1-.21,2.25,2.25,0,0,1,1.22.3,2.4,2.4,0,0,1,.78.77,3.05,3.05,0,0,1,.41,1,4.39,4.39,0,0,1,.09,1.06h-4.13a2.18,2.18,0,0,0,.09.69,1.55,1.55,0,0,0,.31.58,1.52,1.52,0,0,0,.54.4,1.88,1.88,0,0,0,.78.15,1.57,1.57,0,0,0,.94-0.27,1.29,1.29,0,0,0,.49-0.81h0.9A2.2,2.2,0,0,1,350.09,349Zm-0.22-3.54a1.54,1.54,0,0,0-1.44-.95,1.58,1.58,0,0,0-.63.12,1.45,1.45,0,0,0-.48.34,1.58,1.58,0,0,0-.32.5,1.9,1.9,0,0,0-.14.6H350A1.83,1.83,0,0,0,349.87,345.44Z" transform="translate(-39.91)"/><path class="gs1-211" d="M352.46,343.81V345h0a2.45,2.45,0,0,1,.81-1,2,2,0,0,1,1.21-.3v1a2.56,2.56,0,0,0-.93.15,1.47,1.47,0,0,0-.62.44,1.82,1.82,0,0,0-.34.7,3.76,3.76,0,0,0-.11.94v2.45h-0.91v-5.51h0.85Z" transform="translate(-39.91)"/><path class="gs1-211" d="M302.89,352.73l2.4,6.4,2.41-6.4h1.39v7.61h-1V354h0l-2.38,6.33h-0.86L302.49,354h0v6.33h-1v-7.61h1.39Z" transform="translate(-39.91)"/><path class="gs1-211" d="M315.24,360.32a1.28,1.28,0,0,1-.65.14,0.78,0.78,0,0,1-.56-0.2,0.86,0.86,0,0,1-.21-0.64,2.16,2.16,0,0,1-.87.64,3,3,0,0,1-1.78.11,1.63,1.63,0,0,1-.58-0.27,1.29,1.29,0,0,1-.39-0.47,1.6,1.6,0,0,1-.14-0.71,1.62,1.62,0,0,1,.16-0.77,1.39,1.39,0,0,1,.42-0.48,1.93,1.93,0,0,1,.6-0.28c0.22-.06.45-0.12,0.69-0.16s0.49-.09.71-0.11a4.07,4.07,0,0,0,.59-0.11,1,1,0,0,0,.41-0.2,0.49,0.49,0,0,0,.15-0.39,0.9,0.9,0,0,0-.11-0.48,0.76,0.76,0,0,0-.29-0.28,1.16,1.16,0,0,0-.39-0.13,3,3,0,0,0-.43,0,1.92,1.92,0,0,0-1,.22,0.93,0.93,0,0,0-.42.83h-0.91a2,2,0,0,1,.21-0.86,1.61,1.61,0,0,1,.51-0.57,2.14,2.14,0,0,1,.73-0.31,3.83,3.83,0,0,1,.88-0.1,5.21,5.21,0,0,1,.74.05,1.94,1.94,0,0,1,.67.22,1.29,1.29,0,0,1,.48.46,1.47,1.47,0,0,1,.18.78V359a2.08,2.08,0,0,0,0,.47,0.22,0.22,0,0,0,.25.15,1.1,1.1,0,0,0,.28,0v0.7Zm-1.47-2.83a1.14,1.14,0,0,1-.45.19l-0.58.09-0.61.08a2.25,2.25,0,0,0-.55.15,1,1,0,0,0-.4.3,0.84,0.84,0,0,0-.16.54,0.73,0.73,0,0,0,.09.38,0.75,0.75,0,0,0,.23.25,1,1,0,0,0,.34.14,1.87,1.87,0,0,0,.41,0,2.16,2.16,0,0,0,.77-0.12,1.63,1.63,0,0,0,.52-0.31,1.22,1.22,0,0,0,.3-0.4,1,1,0,0,0,.1-0.41v-0.92Z" transform="translate(-39.91)"/><path class="gs1-211" d="M316.67,354.83v0.88h0a1.91,1.91,0,0,1,1.79-1,2.39,2.39,0,0,1,.91.15,1.49,1.49,0,0,1,.59.42,1.54,1.54,0,0,1,.31.63,3.41,3.41,0,0,1,.09.82v3.62h-0.91v-3.73a1.09,1.09,0,0,0-.3-0.81,1.11,1.11,0,0,0-.82-0.3,1.85,1.85,0,0,0-.72.13,1.34,1.34,0,0,0-.51.36,1.57,1.57,0,0,0-.3.55,2.24,2.24,0,0,0-.1.69v3.11h-0.91v-5.51h0.85Z" transform="translate(-39.91)"/><path class="gs1-211" d="M326.36,360.32a1.28,1.28,0,0,1-.65.14,0.78,0.78,0,0,1-.56-0.2,0.86,0.86,0,0,1-.21-0.64,2.16,2.16,0,0,1-.87.64,3,3,0,0,1-1.78.11,1.63,1.63,0,0,1-.58-0.27,1.29,1.29,0,0,1-.39-0.47,1.6,1.6,0,0,1-.14-0.71,1.62,1.62,0,0,1,.16-0.77,1.39,1.39,0,0,1,.42-0.48,1.93,1.93,0,0,1,.6-0.28c0.22-.06.45-0.12,0.69-0.16s0.49-.09.71-0.11a4.07,4.07,0,0,0,.59-0.11,1,1,0,0,0,.41-0.2,0.49,0.49,0,0,0,.15-0.39,0.9,0.9,0,0,0-.11-0.48,0.76,0.76,0,0,0-.29-0.28,1.16,1.16,0,0,0-.39-0.13,3,3,0,0,0-.43,0,1.92,1.92,0,0,0-1,.22,0.93,0.93,0,0,0-.42.83h-0.91a2,2,0,0,1,.21-0.86,1.61,1.61,0,0,1,.51-0.57,2.14,2.14,0,0,1,.73-0.31,3.83,3.83,0,0,1,.88-0.1,5.21,5.21,0,0,1,.74.05,1.94,1.94,0,0,1,.67.22,1.29,1.29,0,0,1,.48.46,1.47,1.47,0,0,1,.18.78V359a2.08,2.08,0,0,0,0,.47,0.22,0.22,0,0,0,.25.15,1.1,1.1,0,0,0,.28,0v0.7Zm-1.47-2.83a1.14,1.14,0,0,1-.45.19l-0.58.09-0.61.08a2.25,2.25,0,0,0-.55.15,1,1,0,0,0-.4.3,0.84,0.84,0,0,0-.16.54,0.73,0.73,0,0,0,.09.38,0.75,0.75,0,0,0,.23.25,1,1,0,0,0,.34.14,1.87,1.87,0,0,0,.41,0,2.16,2.16,0,0,0,.77-0.12,1.63,1.63,0,0,0,.52-0.31,1.22,1.22,0,0,0,.3-0.4,1,1,0,0,0,.1-0.41v-0.92Z" transform="translate(-39.91)"/><path class="gs1-211" d="M331.07,361.89a2.52,2.52,0,0,1-1.94.67,3.76,3.76,0,0,1-.78-0.08,2.39,2.39,0,0,1-.72-0.28,1.7,1.7,0,0,1-.54-0.5,1.43,1.43,0,0,1-.23-0.76h0.91a0.67,0.67,0,0,0,.15.42,1.15,1.15,0,0,0,.35.28,1.73,1.73,0,0,0,.45.15,2.42,2.42,0,0,0,.47,0,1.69,1.69,0,0,0,.76-0.15,1.42,1.42,0,0,0,.51-0.43,1.76,1.76,0,0,0,.29-0.66,3.65,3.65,0,0,0,.09-0.84V359.4h0a1.52,1.52,0,0,1-.71.75,2.2,2.2,0,0,1-1,.24,2.42,2.42,0,0,1-1.08-.22,2.24,2.24,0,0,1-.77-0.6,2.59,2.59,0,0,1-.46-0.88,3.67,3.67,0,0,1-.15-1.07,4.2,4.2,0,0,1,.13-1,2.74,2.74,0,0,1,.43-0.94A2.33,2.33,0,0,1,328,355a2.45,2.45,0,0,1,1.21-.27,2,2,0,0,1,1,.23,1.62,1.62,0,0,1,.68.69h0v-0.79h0.85v5A2.9,2.9,0,0,1,331.07,361.89Zm-1.16-2.48a1.49,1.49,0,0,0,.51-0.49,2.23,2.23,0,0,0,.28-0.69,3.32,3.32,0,0,0,.09-0.77,3,3,0,0,0-.08-0.71,2,2,0,0,0-.27-0.63,1.41,1.41,0,0,0-.49-0.45,1.43,1.43,0,0,0-.72-0.17,1.57,1.57,0,0,0-.75.17,1.46,1.46,0,0,0-.51.44,1.88,1.88,0,0,0-.29.64,3.11,3.11,0,0,0-.09.76,3.78,3.78,0,0,0,.08.75,2.12,2.12,0,0,0,.26.68,1.43,1.43,0,0,0,.48.49,1.39,1.39,0,0,0,.75.19A1.47,1.47,0,0,0,329.91,359.42Z" transform="translate(-39.91)"/><path class="gs1-211" d="M336.69,360a2.5,2.5,0,0,1-1.56.47,2.84,2.84,0,0,1-1.15-.21,2.25,2.25,0,0,1-.82-0.6,2.53,2.53,0,0,1-.5-0.92,4.39,4.39,0,0,1-.19-1.16,3.32,3.32,0,0,1,.19-1.15,2.74,2.74,0,0,1,.54-0.91,2.43,2.43,0,0,1,.82-0.6,2.5,2.5,0,0,1,1-.21,2.25,2.25,0,0,1,1.22.3,2.4,2.4,0,0,1,.78.77,3.05,3.05,0,0,1,.41,1,4.39,4.39,0,0,1,.09,1.06h-4.13a2.18,2.18,0,0,0,.09.69,1.55,1.55,0,0,0,.31.58,1.52,1.52,0,0,0,.54.4,1.88,1.88,0,0,0,.78.15,1.57,1.57,0,0,0,.94-0.27,1.29,1.29,0,0,0,.49-0.81h0.9A2.2,2.2,0,0,1,336.69,360Zm-0.22-3.54a1.54,1.54,0,0,0-1.44-.95,1.58,1.58,0,0,0-.63.12,1.45,1.45,0,0,0-.48.34,1.58,1.58,0,0,0-.32.5,1.9,1.9,0,0,0-.14.6h3.17A1.83,1.83,0,0,0,336.47,356.45Z" transform="translate(-39.91)"/><path class="gs1-211" d="M339.1,354.83v0.81h0a2.14,2.14,0,0,1,2.71-.72,1.2,1.2,0,0,1,.59.72,1.92,1.92,0,0,1,.73-0.69,2.06,2.06,0,0,1,1-.25,2.88,2.88,0,0,1,.75.09,1.55,1.55,0,0,1,.58.28,1.28,1.28,0,0,1,.37.5,1.81,1.81,0,0,1,.13.73v4h-0.91v-3.61a2.58,2.58,0,0,0,0-.48,1,1,0,0,0-.16-0.39,0.8,0.8,0,0,0-.32-0.26,1.3,1.3,0,0,0-.54-0.1,1.43,1.43,0,0,0-1.05.38,1.38,1.38,0,0,0-.38,1v3.43h-0.91v-3.61a2.4,2.4,0,0,0,0-.49,1,1,0,0,0-.17-0.39,0.77,0.77,0,0,0-.31-0.26,1.21,1.21,0,0,0-.51-0.09,1.35,1.35,0,0,0-.68.16,1.53,1.53,0,0,0-.46.38,1.55,1.55,0,0,0-.26.46,1.33,1.33,0,0,0-.08.4v3.43h-0.91v-5.51h0.85Z" transform="translate(-39.91)"/><path class="gs1-211" d="M351,360a2.5,2.5,0,0,1-1.56.47,2.84,2.84,0,0,1-1.15-.21,2.25,2.25,0,0,1-.82-0.6,2.53,2.53,0,0,1-.5-0.92,4.39,4.39,0,0,1-.19-1.16,3.32,3.32,0,0,1,.19-1.15,2.74,2.74,0,0,1,.54-0.91,2.43,2.43,0,0,1,.82-0.6,2.5,2.5,0,0,1,1-.21,2.25,2.25,0,0,1,1.22.3,2.4,2.4,0,0,1,.78.77,3.05,3.05,0,0,1,.41,1,4.39,4.39,0,0,1,.09,1.06h-4.13a2.18,2.18,0,0,0,.09.69,1.55,1.55,0,0,0,.31.58,1.52,1.52,0,0,0,.54.4,1.88,1.88,0,0,0,.78.15,1.57,1.57,0,0,0,.94-0.27,1.29,1.29,0,0,0,.49-0.81h0.9A2.2,2.2,0,0,1,351,360Zm-0.22-3.54a1.54,1.54,0,0,0-1.44-.95,1.58,1.58,0,0,0-.63.12,1.45,1.45,0,0,0-.48.34,1.58,1.58,0,0,0-.32.5,1.9,1.9,0,0,0-.14.6h3.17A1.83,1.83,0,0,0,350.75,356.45Z" transform="translate(-39.91)"/><path class="gs1-211" d="M353.38,354.83v0.88h0a1.91,1.91,0,0,1,1.79-1,2.39,2.39,0,0,1,.91.15,1.49,1.49,0,0,1,.59.42,1.54,1.54,0,0,1,.31.63,3.41,3.41,0,0,1,.09.82v3.62h-0.91v-3.73a1.09,1.09,0,0,0-.3-0.81,1.11,1.11,0,0,0-.82-0.3,1.85,1.85,0,0,0-.72.13,1.34,1.34,0,0,0-.51.36,1.57,1.57,0,0,0-.3.55,2.24,2.24,0,0,0-.1.69v3.11h-0.91v-5.51h0.85Z" transform="translate(-39.91)"/><path class="gs1-211" d="M360.54,354.83v0.8h-1.1V359a1,1,0,0,0,0,.26,0.26,0.26,0,0,0,.1.15,0.45,0.45,0,0,0,.21.07l0.35,0h0.42v0.8h-0.69a3.23,3.23,0,0,1-.6,0,0.89,0.89,0,0,1-.41-0.18,0.75,0.75,0,0,1-.23-0.36,2.1,2.1,0,0,1-.07-0.62v-3.51H357.6v-0.8h0.94v-1.65h0.91v1.65h1.1Z" transform="translate(-39.91)"/><path class="gs1-211" d="M409.32,347.1a2.36,2.36,0,0,1,1.74.59,2.62,2.62,0,0,1,0,3.32,2.32,2.32,0,0,1-1.74.59H407v3.11h-1V347.1h3.34ZM409,350.74a1.8,1.8,0,0,0,1.26-.35,1.34,1.34,0,0,0,.4-1,1.32,1.32,0,0,0-.4-1,1.86,1.86,0,0,0-1.26-.36h-2v2.79h2Z" transform="translate(-39.91)"/><path class="gs1-211" d="M413.44,347.1v7.61h-0.91V347.1h0.91Z" transform="translate(-39.91)"/><path class="gs1-211" d="M418.29,354.71v-0.87h0a1.85,1.85,0,0,1-.74.75,2.2,2.2,0,0,1-1.05.24,2.48,2.48,0,0,1-.91-0.14,1.45,1.45,0,0,1-.59-0.41,1.55,1.55,0,0,1-.31-0.63,3.4,3.4,0,0,1-.09-0.82V349.2h0.91v3.73a1.1,1.1,0,0,0,.3.81,1.11,1.11,0,0,0,.82.3,1.84,1.84,0,0,0,.72-0.13,1.35,1.35,0,0,0,.51-0.36,1.56,1.56,0,0,0,.3-0.55,2.24,2.24,0,0,0,.1-0.69V349.2h0.91v5.51h-0.85Z" transform="translate(-39.91)"/><path class="gs1-211" d="M424.38,356.27a2.52,2.52,0,0,1-1.94.67,3.76,3.76,0,0,1-.78-0.08,2.39,2.39,0,0,1-.72-0.28,1.7,1.7,0,0,1-.54-0.5,1.43,1.43,0,0,1-.23-0.76h0.91a0.67,0.67,0,0,0,.15.42,1.15,1.15,0,0,0,.35.28,1.73,1.73,0,0,0,.45.15,2.42,2.42,0,0,0,.47,0,1.69,1.69,0,0,0,.76-0.15,1.42,1.42,0,0,0,.51-0.43,1.76,1.76,0,0,0,.29-0.66,3.65,3.65,0,0,0,.09-0.84v-0.36h0a1.52,1.52,0,0,1-.71.75,2.2,2.2,0,0,1-1,.24,2.42,2.42,0,0,1-1.08-.22,2.24,2.24,0,0,1-.77-0.6,2.59,2.59,0,0,1-.46-0.88,3.67,3.67,0,0,1-.15-1.07,4.2,4.2,0,0,1,.13-1,2.74,2.74,0,0,1,.43-0.94,2.33,2.33,0,0,1,.79-0.69,2.45,2.45,0,0,1,1.21-.27,2,2,0,0,1,1,.23,1.62,1.62,0,0,1,.68.69h0V349.2H425v5A2.9,2.9,0,0,1,424.38,356.27Zm-1.16-2.48a1.49,1.49,0,0,0,.51-0.49,2.23,2.23,0,0,0,.28-0.69,3.32,3.32,0,0,0,.09-0.77,3,3,0,0,0-.08-0.71,2,2,0,0,0-.27-0.63,1.41,1.41,0,0,0-.49-0.45,1.43,1.43,0,0,0-.72-0.17,1.57,1.57,0,0,0-.75.17,1.46,1.46,0,0,0-.51.44,1.88,1.88,0,0,0-.29.64,3.11,3.11,0,0,0-.09.76,3.78,3.78,0,0,0,.08.75,2.12,2.12,0,0,0,.26.68,1.43,1.43,0,0,0,.48.49,1.39,1.39,0,0,0,.75.19A1.47,1.47,0,0,0,423.22,353.79Z" transform="translate(-39.91)"/><path class="gs1-211" d="M426.15,348.21V347.1h0.91v1.11h-0.91Zm0.91,1v5.51h-0.91V349.2h0.91Z" transform="translate(-39.91)"/><path class="gs1-211" d="M429,349.2v0.88h0a1.91,1.91,0,0,1,1.79-1,2.39,2.39,0,0,1,.91.15,1.49,1.49,0,0,1,.59.42,1.54,1.54,0,0,1,.31.63,3.41,3.41,0,0,1,.09.82v3.62h-0.91V351a1.09,1.09,0,0,0-.3-0.81,1.11,1.11,0,0,0-.82-0.3,1.85,1.85,0,0,0-.72.13,1.34,1.34,0,0,0-.51.36,1.57,1.57,0,0,0-.3.55,2.24,2.24,0,0,0-.1.69v3.11h-0.91V349.2H429Z" transform="translate(-39.91)"/><path class="gs1-211" d="M434.55,353.48a1,1,0,0,0,.34.33,1.54,1.54,0,0,0,.47.18,2.72,2.72,0,0,0,.54.05l0.45,0a1.62,1.62,0,0,0,.43-0.12,0.8,0.8,0,0,0,.33-0.25,0.67,0.67,0,0,0,.13-0.42,0.6,0.6,0,0,0-.27-0.53,2.25,2.25,0,0,0-.67-0.29q-0.4-.11-0.87-0.2a4.44,4.44,0,0,1-.87-0.26,1.8,1.8,0,0,1-.67-0.46,1.21,1.21,0,0,1-.27-0.83,1.31,1.31,0,0,1,.19-0.71,1.51,1.51,0,0,1,.48-0.49,2.21,2.21,0,0,1,.66-0.28,3,3,0,0,1,.73-0.09,4.39,4.39,0,0,1,.86.08,2,2,0,0,1,.7.28,1.44,1.44,0,0,1,.49.53,2,2,0,0,1,.21.84H437a0.92,0.92,0,0,0-.14-0.44,0.9,0.9,0,0,0-.3-0.28,1.36,1.36,0,0,0-.4-0.16,2,2,0,0,0-.44,0,2.68,2.68,0,0,0-.41,0,1.41,1.41,0,0,0-.38.11,0.77,0.77,0,0,0-.28.21,0.54,0.54,0,0,0-.11.35,0.51,0.51,0,0,0,.17.39,1.32,1.32,0,0,0,.42.26,3.78,3.78,0,0,0,.58.17l0.64,0.14a6.75,6.75,0,0,1,.67.18,2.15,2.15,0,0,1,.58.28,1.37,1.37,0,0,1,.41.44,1.3,1.3,0,0,1,.16.66,1.53,1.53,0,0,1-.21.83,1.62,1.62,0,0,1-.54.53,2.27,2.27,0,0,1-.76.28,4.45,4.45,0,0,1-.84.08,3.9,3.9,0,0,1-.87-0.1,2.15,2.15,0,0,1-.74-0.31,1.6,1.6,0,0,1-.51-0.58,2,2,0,0,1-.21-0.87h0.91A1,1,0,0,0,434.55,353.48Z" transform="translate(-39.91)"/><rect class="gs1-210" x="158.7" y="301.97" width="264.87" height="25.49" rx="3.14" ry="3.14"/><path class="gs1-211" d="M260,311.26a3.09,3.09,0,0,0-1.81-.53,3.25,3.25,0,0,0-1.53.34,3,3,0,0,0-1,.9,3.9,3.9,0,0,0-.61,1.29,5.78,5.78,0,0,0-.2,1.51,6.47,6.47,0,0,0,.2,1.62,3.87,3.87,0,0,0,.61,1.33,3,3,0,0,0,1.06.9,3.29,3.29,0,0,0,1.54.34,3,3,0,0,0,1.17-.22,2.64,2.64,0,0,0,.88-0.6,2.77,2.77,0,0,0,.58-0.92,3.77,3.77,0,0,0,.25-1.15h1.33a4.54,4.54,0,0,1-1.3,2.94,4.21,4.21,0,0,1-3,1,4.82,4.82,0,0,1-2-.4,4,4,0,0,1-1.44-1.1,4.71,4.71,0,0,1-.86-1.65,7,7,0,0,1-.29-2,6.68,6.68,0,0,1,.31-2.05,4.94,4.94,0,0,1,.9-1.67,4.21,4.21,0,0,1,1.48-1.13,4.8,4.8,0,0,1,2-.41,5.15,5.15,0,0,1,1.48.21,4,4,0,0,1,1.25.62,3.47,3.47,0,0,1,.91,1,3.72,3.72,0,0,1,.48,1.41H261A2.47,2.47,0,0,0,260,311.26Z" transform="translate(-39.91)"/><path class="gs1-211" d="M268.84,319.38a3.28,3.28,0,0,1-2,.62,3.72,3.72,0,0,1-1.5-.28,3,3,0,0,1-1.07-.78,3.32,3.32,0,0,1-.65-1.2,5.8,5.8,0,0,1-.25-1.53,4.36,4.36,0,0,1,.25-1.51,3.61,3.61,0,0,1,.71-1.19,3.21,3.21,0,0,1,1.08-.78,3.29,3.29,0,0,1,1.37-.28,3,3,0,0,1,1.6.4,3.17,3.17,0,0,1,1,1,4.05,4.05,0,0,1,.53,1.34,5.79,5.79,0,0,1,.12,1.39h-5.42a2.88,2.88,0,0,0,.11.9,2,2,0,0,0,.41.76,2,2,0,0,0,.71.52,2.46,2.46,0,0,0,1,.2,2.06,2.06,0,0,0,1.24-.35,1.69,1.69,0,0,0,.64-1.06h1.18A2.89,2.89,0,0,1,268.84,319.38Zm-0.29-4.65a2,2,0,0,0-.43-0.65,2,2,0,0,0-1.46-.6,2.09,2.09,0,0,0-.83.16,1.92,1.92,0,0,0-.64.44,2.09,2.09,0,0,0-.42.65,2.45,2.45,0,0,0-.18.79h4.16A2.46,2.46,0,0,0,268.56,314.73Z" transform="translate(-39.91)"/><path class="gs1-211" d="M272.22,312.6v1.15h0a2.51,2.51,0,0,1,2.35-1.32,3.14,3.14,0,0,1,1.19.2,2,2,0,0,1,.77.55,2,2,0,0,1,.41.83,4.44,4.44,0,0,1,.12,1.07v4.76H275.9v-4.9a1.44,1.44,0,0,0-.39-1.06,1.45,1.45,0,0,0-1.08-.39,2.44,2.44,0,0,0-.94.17,1.77,1.77,0,0,0-.67.48,2,2,0,0,0-.4.72,2.93,2.93,0,0,0-.13.9v4.09H271.1V312.6h1.12Z" transform="translate(-39.91)"/><path class="gs1-211" d="M281.84,312.6v1h-1.44v4.49a1.29,1.29,0,0,0,0,.34,0.35,0.35,0,0,0,.13.2,0.58,0.58,0,0,0,.27.09l0.46,0h0.55v1h-0.91a4.27,4.27,0,0,1-.79-0.06,1.16,1.16,0,0,1-.53-0.23,1,1,0,0,1-.3-0.48,2.76,2.76,0,0,1-.1-0.81v-4.61H278v-1h1.23v-2.17h1.19v2.17h1.44Z" transform="translate(-39.91)"/><path class="gs1-211" d="M284.09,312.6v1.53h0a3.22,3.22,0,0,1,1.06-1.3,2.67,2.67,0,0,1,1.6-.39v1.26a3.36,3.36,0,0,0-1.22.2,1.92,1.92,0,0,0-.81.57,2.38,2.38,0,0,0-.45.92,5,5,0,0,0-.14,1.24v3.22H283V312.6h1.12Z" transform="translate(-39.91)"/><path class="gs1-211" d="M293.95,319.81a1.68,1.68,0,0,1-.85.18,1,1,0,0,1-.74-0.26,1.12,1.12,0,0,1-.27-0.85,2.83,2.83,0,0,1-1.14.85,3.93,3.93,0,0,1-2.34.15,2.16,2.16,0,0,1-.76-0.35,1.68,1.68,0,0,1-.51-0.62,2.1,2.1,0,0,1-.19-0.93,2.13,2.13,0,0,1,.21-1,1.83,1.83,0,0,1,.55-0.64,2.54,2.54,0,0,1,.78-0.37c0.29-.08.6-0.15,0.9-0.21s0.64-.11.93-0.15a5.15,5.15,0,0,0,.78-0.14,1.3,1.3,0,0,0,.53-0.27,0.65,0.65,0,0,0,.2-0.51,1.19,1.19,0,0,0-.15-0.63,1,1,0,0,0-.38-0.36,1.55,1.55,0,0,0-.52-0.17,4,4,0,0,0-.57,0,2.53,2.53,0,0,0-1.26.29,1.22,1.22,0,0,0-.55,1.08h-1.19a2.57,2.57,0,0,1,.28-1.13,2.12,2.12,0,0,1,.67-0.75,2.81,2.81,0,0,1,1-.41,5.06,5.06,0,0,1,1.15-.13,6.75,6.75,0,0,1,1,.07,2.56,2.56,0,0,1,.88.29,1.68,1.68,0,0,1,.63.61,2,2,0,0,1,.24,1v3.72a2.74,2.74,0,0,0,0,.61,0.29,0.29,0,0,0,.33.2,1.44,1.44,0,0,0,.36-0.06v0.92ZM292,316.1a1.47,1.47,0,0,1-.59.24q-0.36.08-.76,0.13l-0.81.11a2.94,2.94,0,0,0-.73.2,1.33,1.33,0,0,0-.53.4,1.11,1.11,0,0,0-.2.7,1,1,0,0,0,.12.5,1,1,0,0,0,.31.33,1.28,1.28,0,0,0,.44.18,2.46,2.46,0,0,0,.53.05,2.84,2.84,0,0,0,1-.16,2.15,2.15,0,0,0,.69-0.4,1.61,1.61,0,0,0,.39-0.53,1.33,1.33,0,0,0,.13-0.54V316.1Z" transform="translate(-39.91)"/><path class="gs1-211" d="M296.17,309.84v10H295v-10h1.19Z" transform="translate(-39.91)"/><path class="gs1-211" d="M297.95,311.3v-1.46h1.19v1.46h-1.19Zm1.19,1.3v7.24h-1.19V312.6h1.19Z" transform="translate(-39.91)"/><path class="gs1-211" d="M304.63,313.65h-4.09v-1h5.63v0.81l-4.42,5.38h4.62v1h-6.1v-0.91Z" transform="translate(-39.91)"/><path class="gs1-211" d="M312.55,319.38a3.28,3.28,0,0,1-2,.62,3.72,3.72,0,0,1-1.5-.28,3,3,0,0,1-1.07-.78,3.32,3.32,0,0,1-.65-1.2,5.8,5.8,0,0,1-.25-1.53,4.36,4.36,0,0,1,.25-1.51,3.61,3.61,0,0,1,.71-1.19,3.21,3.21,0,0,1,1.08-.78,3.29,3.29,0,0,1,1.37-.28,3,3,0,0,1,1.6.4,3.17,3.17,0,0,1,1,1,4.05,4.05,0,0,1,.53,1.34,5.79,5.79,0,0,1,.12,1.39h-5.42a2.88,2.88,0,0,0,.11.9,2,2,0,0,0,.41.76,2,2,0,0,0,.71.52,2.46,2.46,0,0,0,1,.2,2.06,2.06,0,0,0,1.24-.35,1.69,1.69,0,0,0,.64-1.06h1.18A2.89,2.89,0,0,1,312.55,319.38Zm-0.29-4.65a2,2,0,0,0-.43-0.65,2,2,0,0,0-1.46-.6,2.09,2.09,0,0,0-.83.16,1.92,1.92,0,0,0-.64.44,2.09,2.09,0,0,0-.42.65,2.45,2.45,0,0,0-.18.79h4.16A2.46,2.46,0,0,0,312.26,314.73Z" transform="translate(-39.91)"/><path class="gs1-211" d="M320.08,319.84v-1h0a1.75,1.75,0,0,1-.92.87,3.52,3.52,0,0,1-1.39.27,3.27,3.27,0,0,1-1.46-.31,3,3,0,0,1-1-.83,3.58,3.58,0,0,1-.62-1.2,5,5,0,0,1-.21-1.46,5.09,5.09,0,0,1,.2-1.46,3.42,3.42,0,0,1,.62-1.2,3,3,0,0,1,1-.81,3.3,3.3,0,0,1,1.45-.3,3.56,3.56,0,0,1,.6.06,3,3,0,0,1,.64.19,2.72,2.72,0,0,1,.61.35,1.93,1.93,0,0,1,.48.54h0v-3.72h1.19v10h-1.19Zm-4.28-2.57a2.65,2.65,0,0,0,.41.86,2,2,0,0,0,.7.6,2.12,2.12,0,0,0,1,.22,2,2,0,0,0,1.71-.86,2.59,2.59,0,0,0,.38-0.87,4.21,4.21,0,0,0,.12-1,4.17,4.17,0,0,0-.13-1,2.55,2.55,0,0,0-.4-0.87,2.05,2.05,0,0,0-.71-0.61,2.21,2.21,0,0,0-1.05-.23,2,2,0,0,0-1,.24,1.9,1.9,0,0,0-.67.63,2.74,2.74,0,0,0-.36.9,4.73,4.73,0,0,0-.11,1A3.69,3.69,0,0,0,315.81,317.27Z" transform="translate(-39.91)"/><path class="gs1-211" d="M333,311.26a3.09,3.09,0,0,0-1.81-.53,3.25,3.25,0,0,0-1.53.34,3,3,0,0,0-1,.9,3.9,3.9,0,0,0-.61,1.29,5.78,5.78,0,0,0-.2,1.51,6.47,6.47,0,0,0,.2,1.62,3.87,3.87,0,0,0,.61,1.33,3,3,0,0,0,1.06.9,3.29,3.29,0,0,0,1.54.34,3,3,0,0,0,1.17-.22,2.64,2.64,0,0,0,.88-0.6,2.77,2.77,0,0,0,.58-0.92,3.77,3.77,0,0,0,.25-1.15h1.33a4.54,4.54,0,0,1-1.3,2.94,4.21,4.21,0,0,1-3,1,4.82,4.82,0,0,1-2-.4,4,4,0,0,1-1.44-1.1,4.71,4.71,0,0,1-.86-1.65,7,7,0,0,1-.29-2,6.68,6.68,0,0,1,.31-2.05,4.94,4.94,0,0,1,.9-1.67,4.21,4.21,0,0,1,1.48-1.13,4.8,4.8,0,0,1,2-.41,5.15,5.15,0,0,1,1.48.21,4,4,0,0,1,1.25.62,3.47,3.47,0,0,1,.91,1,3.72,3.72,0,0,1,.48,1.41h-1.33A2.47,2.47,0,0,0,333,311.26Z" transform="translate(-39.91)"/><path class="gs1-211" d="M336.52,314.73a3.37,3.37,0,0,1,.67-1.2,3.16,3.16,0,0,1,1.11-.81,4.05,4.05,0,0,1,3,0,3.19,3.19,0,0,1,1.1.81,3.37,3.37,0,0,1,.67,1.2,4.82,4.82,0,0,1,.22,1.49,4.75,4.75,0,0,1-.22,1.48,3.39,3.39,0,0,1-.67,1.2,3.11,3.11,0,0,1-1.1.8,4.14,4.14,0,0,1-3,0,3.08,3.08,0,0,1-1.11-.8,3.39,3.39,0,0,1-.67-1.2,4.75,4.75,0,0,1-.22-1.48A4.82,4.82,0,0,1,336.52,314.73Zm1.21,2.66a2.44,2.44,0,0,0,.48.85,2.09,2.09,0,0,0,.72.52,2.19,2.19,0,0,0,1.75,0,2.1,2.1,0,0,0,.72-0.52,2.44,2.44,0,0,0,.48-0.85,4,4,0,0,0,0-2.34,2.51,2.51,0,0,0-.48-0.86,2.06,2.06,0,0,0-.72-0.53,2.19,2.19,0,0,0-1.75,0,2,2,0,0,0-.72.53,2.51,2.51,0,0,0-.48.86A4,4,0,0,0,337.73,317.39Z" transform="translate(-39.91)"/><path class="gs1-211" d="M345.7,312.6v1.15h0a2.51,2.51,0,0,1,2.35-1.32,3.14,3.14,0,0,1,1.19.2,2,2,0,0,1,.77.55,2,2,0,0,1,.41.83,4.44,4.44,0,0,1,.12,1.07v4.76h-1.19v-4.9a1.44,1.44,0,0,0-.39-1.06,1.45,1.45,0,0,0-1.08-.39,2.44,2.44,0,0,0-.94.17,1.77,1.77,0,0,0-.67.48,2,2,0,0,0-.4.72,2.93,2.93,0,0,0-.13.9v4.09h-1.19V312.6h1.12Z" transform="translate(-39.91)"/><path class="gs1-211" d="M351.5,313.65v-1h1.22v-1.08a1.7,1.7,0,0,1,.51-1.34,2.17,2.17,0,0,1,1.49-.46l0.39,0a2.07,2.07,0,0,1,.38.08v1a1.47,1.47,0,0,0-.34-0.08l-0.34,0a1.15,1.15,0,0,0-.67.17,0.74,0.74,0,0,0-.24.64v1h1.4v1h-1.4v6.19h-1.19v-6.19H351.5Z" transform="translate(-39.91)"/><path class="gs1-211" d="M356.3,311.3v-1.46h1.19v1.46H356.3Zm1.19,1.3v7.24H356.3V312.6h1.19Z" transform="translate(-39.91)"/><path class="gs1-211" d="M364.63,321.88a3.31,3.31,0,0,1-2.55.88,5,5,0,0,1-1-.11,3.18,3.18,0,0,1-1-.36,2.22,2.22,0,0,1-.71-0.66,1.87,1.87,0,0,1-.31-1h1.19a0.88,0.88,0,0,0,.2.55,1.49,1.49,0,0,0,.46.36,2.27,2.27,0,0,0,.6.2,3.2,3.2,0,0,0,.62.06,2.21,2.21,0,0,0,1-.2,1.86,1.86,0,0,0,.67-0.56,2.32,2.32,0,0,0,.39-0.86,4.82,4.82,0,0,0,.12-1.11V318.6h0a2,2,0,0,1-.93,1,2.89,2.89,0,0,1-1.32.32,3.2,3.2,0,0,1-1.41-.29,3,3,0,0,1-1-.79,3.34,3.34,0,0,1-.61-1.16,4.78,4.78,0,0,1-.2-1.41,5.49,5.49,0,0,1,.17-1.32,3.6,3.6,0,0,1,.56-1.23,3.07,3.07,0,0,1,1-.91,3.22,3.22,0,0,1,1.58-.36,2.68,2.68,0,0,1,1.26.3,2.13,2.13,0,0,1,.9.9h0v-1h1.12v6.62A3.81,3.81,0,0,1,364.63,321.88Zm-1.52-3.25a2,2,0,0,0,.67-0.64,2.93,2.93,0,0,0,.37-0.9,4.38,4.38,0,0,0,.12-1,3.94,3.94,0,0,0-.11-0.94,2.61,2.61,0,0,0-.36-0.83,1.86,1.86,0,0,0-.64-0.59,1.89,1.89,0,0,0-1-.22,2.06,2.06,0,0,0-1,.22,1.9,1.9,0,0,0-.67.58,2.45,2.45,0,0,0-.38.84,4.09,4.09,0,0,0-.12,1,5,5,0,0,0,.1,1,2.75,2.75,0,0,0,.34.89,1.88,1.88,0,0,0,.63.64,1.82,1.82,0,0,0,1,.25A1.93,1.93,0,0,0,363.11,318.63Z" transform="translate(-39.91)"/><path class="gs1-211" d="M372,319.84v-1.15h0a2.43,2.43,0,0,1-1,1,2.9,2.9,0,0,1-1.39.32,3.24,3.24,0,0,1-1.19-.19,1.9,1.9,0,0,1-.77-0.54,2,2,0,0,1-.41-0.83,4.48,4.48,0,0,1-.12-1.07V312.6h1.19v4.9a1.44,1.44,0,0,0,.39,1.06,1.46,1.46,0,0,0,1.08.39,2.44,2.44,0,0,0,.95-0.17,1.77,1.77,0,0,0,.67-0.48,2.06,2.06,0,0,0,.4-0.72,3,3,0,0,0,.13-0.9V312.6h1.19v7.24H372Z" transform="translate(-39.91)"/><path class="gs1-211" d="M375.81,312.6v1.53h0a3.22,3.22,0,0,1,1.06-1.3,2.67,2.67,0,0,1,1.6-.39v1.26a3.36,3.36,0,0,0-1.22.2,1.92,1.92,0,0,0-.81.57,2.38,2.38,0,0,0-.45.92,5,5,0,0,0-.14,1.24v3.22h-1.19V312.6h1.12Z" transform="translate(-39.91)"/><path class="gs1-211" d="M385.67,319.81a1.68,1.68,0,0,1-.85.18,1,1,0,0,1-.74-0.26,1.12,1.12,0,0,1-.27-0.85,2.83,2.83,0,0,1-1.14.85,3.93,3.93,0,0,1-2.34.15,2.16,2.16,0,0,1-.76-0.35,1.68,1.68,0,0,1-.51-0.62,2.1,2.1,0,0,1-.19-0.93,2.13,2.13,0,0,1,.21-1,1.83,1.83,0,0,1,.55-0.64,2.54,2.54,0,0,1,.78-0.37c0.29-.08.6-0.15,0.9-0.21s0.64-.11.93-0.15a5.15,5.15,0,0,0,.78-0.14,1.3,1.3,0,0,0,.53-0.27,0.65,0.65,0,0,0,.2-0.51,1.19,1.19,0,0,0-.15-0.63,1,1,0,0,0-.38-0.36,1.55,1.55,0,0,0-.52-0.17,4,4,0,0,0-.57,0,2.53,2.53,0,0,0-1.26.29,1.22,1.22,0,0,0-.55,1.08h-1.19a2.57,2.57,0,0,1,.28-1.13,2.12,2.12,0,0,1,.67-0.75,2.81,2.81,0,0,1,1-.41,5.06,5.06,0,0,1,1.15-.13,6.75,6.75,0,0,1,1,.07,2.56,2.56,0,0,1,.88.29,1.68,1.68,0,0,1,.63.61,2,2,0,0,1,.24,1v3.72a2.74,2.74,0,0,0,0,.61,0.29,0.29,0,0,0,.33.2,1.44,1.44,0,0,0,.36-0.06v0.92Zm-1.93-3.71a1.47,1.47,0,0,1-.59.24q-0.36.08-.76,0.13l-0.81.11a2.94,2.94,0,0,0-.73.2,1.33,1.33,0,0,0-.53.4,1.11,1.11,0,0,0-.2.7,1,1,0,0,0,.12.5,1,1,0,0,0,.31.33,1.28,1.28,0,0,0,.44.18,2.46,2.46,0,0,0,.53.05,2.84,2.84,0,0,0,1-.16,2.15,2.15,0,0,0,.69-0.4,1.61,1.61,0,0,0,.39-0.53,1.33,1.33,0,0,0,.13-0.54V316.1Z" transform="translate(-39.91)"/><path class="gs1-211" d="M389.73,312.6v1h-1.44v4.49a1.29,1.29,0,0,0,0,.34,0.35,0.35,0,0,0,.13.2,0.58,0.58,0,0,0,.27.09l0.46,0h0.55v1h-0.91a4.27,4.27,0,0,1-.79-0.06,1.16,1.16,0,0,1-.53-0.23,1,1,0,0,1-.3-0.48,2.76,2.76,0,0,1-.1-0.81v-4.61h-1.23v-1h1.23v-2.17h1.19v2.17h1.44Z" transform="translate(-39.91)"/><path class="gs1-211" d="M391,311.3v-1.46h1.19v1.46H391Zm1.19,1.3v7.24H391V312.6h1.19Z" transform="translate(-39.91)"/><path class="gs1-211" d="M393.71,314.73a3.37,3.37,0,0,1,.67-1.2,3.16,3.16,0,0,1,1.11-.81,4.05,4.05,0,0,1,3,0,3.19,3.19,0,0,1,1.1.81,3.37,3.37,0,0,1,.67,1.2,4.82,4.82,0,0,1,.22,1.49,4.75,4.75,0,0,1-.22,1.48,3.39,3.39,0,0,1-.67,1.2,3.11,3.11,0,0,1-1.1.8,4.14,4.14,0,0,1-3,0,3.08,3.08,0,0,1-1.11-.8,3.39,3.39,0,0,1-.67-1.2,4.75,4.75,0,0,1-.22-1.48A4.82,4.82,0,0,1,393.71,314.73Zm1.21,2.66a2.44,2.44,0,0,0,.48.85,2.09,2.09,0,0,0,.72.52,2.19,2.19,0,0,0,1.75,0,2.1,2.1,0,0,0,.72-0.52,2.44,2.44,0,0,0,.48-0.85,4,4,0,0,0,0-2.34,2.51,2.51,0,0,0-.48-0.86,2.06,2.06,0,0,0-.72-0.53,2.19,2.19,0,0,0-1.75,0,2,2,0,0,0-.72.53,2.51,2.51,0,0,0-.48.86A4,4,0,0,0,394.92,317.39Z" transform="translate(-39.91)"/><path class="gs1-211" d="M402.89,312.6v1.15h0a2.51,2.51,0,0,1,2.35-1.32,3.14,3.14,0,0,1,1.19.2,2,2,0,0,1,.77.55,2,2,0,0,1,.41.83,4.44,4.44,0,0,1,.12,1.07v4.76h-1.19v-4.9a1.44,1.44,0,0,0-.39-1.06,1.45,1.45,0,0,0-1.08-.39,2.44,2.44,0,0,0-.94.17,1.77,1.77,0,0,0-.67.48,2,2,0,0,0-.4.72,2.93,2.93,0,0,0-.13.9v4.09h-1.19V312.6h1.12Z" transform="translate(-39.91)"/><path class="gs1-29" d="M218.29,274.68v1.12h-5.57V279h5.19v1.12h-5.19v3.46h5.61v1.12h-6.94v-10h6.9Z" transform="translate(-39.91)"/><path class="gs1-29" d="M218.82,277.44h1.53l1.74,2.53,1.81-2.53h1.43l-2.49,3.33,2.8,3.91H224.1l-2-3-2,3h-1.44l2.72-3.81Z" transform="translate(-39.91)"/><path class="gs1-29" d="M227.53,277.44v1h0a1.78,1.78,0,0,1,.92-0.87,3.44,3.44,0,0,1,1.39-.27,3.27,3.27,0,0,1,1.46.31,3,3,0,0,1,1,.83,3.67,3.67,0,0,1,.62,1.21,4.94,4.94,0,0,1,.21,1.46,5.13,5.13,0,0,1-.2,1.46,3.43,3.43,0,0,1-.62,1.2,2.91,2.91,0,0,1-1,.81,3.37,3.37,0,0,1-1.45.29,3.6,3.6,0,0,1-.6-0.06,3.28,3.28,0,0,1-.65-0.18,2.54,2.54,0,0,1-.61-0.34,1.92,1.92,0,0,1-.48-0.54h0v3.72h-1.19v-10h1.19Zm4.28,2.57a2.65,2.65,0,0,0-.41-0.86,2,2,0,0,0-.7-0.6,2.12,2.12,0,0,0-1-.22,2,2,0,0,0-1.71.86,2.61,2.61,0,0,0-.38.88,4.24,4.24,0,0,0,0,2,2.55,2.55,0,0,0,.4.88,2,2,0,0,0,.71.61,2.21,2.21,0,0,0,1.05.23,2,2,0,0,0,1-.24,1.9,1.9,0,0,0,.67-0.63,2.73,2.73,0,0,0,.36-0.9,4.75,4.75,0,0,0,.11-1A3.7,3.7,0,0,0,231.81,280Z" transform="translate(-39.91)"/><path class="gs1-29" d="M235.33,277.44V279h0a3.22,3.22,0,0,1,1.06-1.3,2.67,2.67,0,0,1,1.6-.39v1.26a3.36,3.36,0,0,0-1.22.2,1.92,1.92,0,0,0-.81.57,2.38,2.38,0,0,0-.45.92,5,5,0,0,0-.14,1.24v3.22h-1.19v-7.24h1.12Z" transform="translate(-39.91)"/><path class="gs1-29" d="M243.44,284.21a3.28,3.28,0,0,1-2,.62,3.72,3.72,0,0,1-1.5-.28,3,3,0,0,1-1.07-.78,3.32,3.32,0,0,1-.65-1.2,5.78,5.78,0,0,1-.25-1.53,4.36,4.36,0,0,1,.25-1.51,3.61,3.61,0,0,1,.71-1.19,3.2,3.2,0,0,1,1.08-.78,3.29,3.29,0,0,1,1.36-.28,3,3,0,0,1,1.6.4,3.17,3.17,0,0,1,1,1,4,4,0,0,1,.53,1.34,5.77,5.77,0,0,1,.12,1.39h-5.42a2.85,2.85,0,0,0,.11.9,2,2,0,0,0,.41.76,2,2,0,0,0,.71.52,2.46,2.46,0,0,0,1,.2,2.06,2.06,0,0,0,1.24-.35,1.69,1.69,0,0,0,.64-1.06h1.18A2.9,2.9,0,0,1,243.44,284.21Zm-0.29-4.65a2,2,0,0,0-1.9-1.25,2.09,2.09,0,0,0-.83.16,1.92,1.92,0,0,0-.64.44,2.1,2.1,0,0,0-.42.65,2.48,2.48,0,0,0-.18.79h4.16A2.43,2.43,0,0,0,243.15,279.56Z" transform="translate(-39.91)"/><path class="gs1-29" d="M246.39,283.06a1.26,1.26,0,0,0,.44.43,2,2,0,0,0,.62.23,3.51,3.51,0,0,0,.71.07,4.47,4.47,0,0,0,.59,0,2.15,2.15,0,0,0,.57-0.15,1.05,1.05,0,0,0,.43-0.33,0.87,0.87,0,0,0,.17-0.55,0.79,0.79,0,0,0-.35-0.7,3,3,0,0,0-.87-0.38q-0.53-.15-1.14-0.27a5.91,5.91,0,0,1-1.14-.34,2.35,2.35,0,0,1-.87-0.61,1.58,1.58,0,0,1-.35-1.09,1.73,1.73,0,0,1,.25-0.94,2,2,0,0,1,.63-0.64,2.89,2.89,0,0,1,.87-0.36,4,4,0,0,1,1-.12,5.69,5.69,0,0,1,1.13.11,2.61,2.61,0,0,1,.92.36,1.88,1.88,0,0,1,.64.7,2.66,2.66,0,0,1,.28,1.1h-1.19a1.2,1.2,0,0,0-.18-0.58,1.19,1.19,0,0,0-.39-0.37,1.78,1.78,0,0,0-.52-0.2,2.71,2.71,0,0,0-.58-0.06,3.62,3.62,0,0,0-.54,0,1.81,1.81,0,0,0-.5.15,1,1,0,0,0-.36.28,0.71,0.71,0,0,0-.14.46,0.67,0.67,0,0,0,.22.51,1.73,1.73,0,0,0,.55.34,4.81,4.81,0,0,0,.76.22l0.84,0.19a8.84,8.84,0,0,1,.88.24,2.86,2.86,0,0,1,.76.37,1.83,1.83,0,0,1,.53.58,1.71,1.71,0,0,1,.2.87,2,2,0,0,1-.27,1.09,2.12,2.12,0,0,1-.71.7,3,3,0,0,1-1,.37,5.86,5.86,0,0,1-1.1.11,5.09,5.09,0,0,1-1.15-.13,2.81,2.81,0,0,1-1-.41,2.11,2.11,0,0,1-.67-0.76,2.62,2.62,0,0,1-.28-1.14h1.19A1.33,1.33,0,0,0,246.39,283.06Z" transform="translate(-39.91)"/><path class="gs1-29" d="M253,283.06a1.26,1.26,0,0,0,.44.43,2,2,0,0,0,.62.23,3.51,3.51,0,0,0,.71.07,4.47,4.47,0,0,0,.59,0,2.15,2.15,0,0,0,.57-0.15,1.05,1.05,0,0,0,.43-0.33,0.87,0.87,0,0,0,.17-0.55,0.79,0.79,0,0,0-.35-0.7,3,3,0,0,0-.87-0.38q-0.53-.15-1.14-0.27A5.91,5.91,0,0,1,253,281a2.35,2.35,0,0,1-.87-0.61,1.58,1.58,0,0,1-.35-1.09,1.73,1.73,0,0,1,.25-0.94,2,2,0,0,1,.63-0.64,2.89,2.89,0,0,1,.87-0.36,4,4,0,0,1,1-.12,5.69,5.69,0,0,1,1.13.11,2.61,2.61,0,0,1,.92.36,1.88,1.88,0,0,1,.64.7,2.66,2.66,0,0,1,.28,1.1H256.3a1.2,1.2,0,0,0-.18-0.58,1.19,1.19,0,0,0-.39-0.37,1.78,1.78,0,0,0-.52-0.2,2.71,2.71,0,0,0-.58-0.06,3.62,3.62,0,0,0-.54,0,1.81,1.81,0,0,0-.5.15,1,1,0,0,0-.36.28,0.71,0.71,0,0,0-.14.46,0.67,0.67,0,0,0,.22.51,1.73,1.73,0,0,0,.55.34,4.81,4.81,0,0,0,.76.22l0.84,0.19a8.84,8.84,0,0,1,.88.24,2.86,2.86,0,0,1,.76.37,1.83,1.83,0,0,1,.53.58,1.71,1.71,0,0,1,.2.87,2,2,0,0,1-.27,1.09,2.12,2.12,0,0,1-.71.7,3,3,0,0,1-1,.37,5.86,5.86,0,0,1-1.1.11,5.09,5.09,0,0,1-1.15-.13,2.81,2.81,0,0,1-1-.41,2.11,2.11,0,0,1-.67-0.76,2.62,2.62,0,0,1-.28-1.14h1.19A1.33,1.33,0,0,0,253,283.06Z" transform="translate(-39.91)"/><path class="gs1-29" d="M267.22,274.68a3.29,3.29,0,0,1,2.23.7,2.41,2.41,0,0,1,.81,1.92,3,3,0,0,1-.41,1.6,2.12,2.12,0,0,1-1.32.94v0a1.79,1.79,0,0,1,.71.28,1.54,1.54,0,0,1,.43.47,2.13,2.13,0,0,1,.24.61,6.5,6.5,0,0,1,.12.7c0,0.24,0,.49,0,0.74a6.25,6.25,0,0,0,.07.74,4.47,4.47,0,0,0,.16.69,1.7,1.7,0,0,0,.31.58h-1.48a0.83,0.83,0,0,1-.19-0.42,4.16,4.16,0,0,1-.06-0.59q0-.33,0-0.71a4.86,4.86,0,0,0-.08-0.74c0-.24-0.08-0.47-0.14-0.69a1.63,1.63,0,0,0-.27-0.57,1.31,1.31,0,0,0-.48-0.39,1.77,1.77,0,0,0-.78-0.15h-3.25v4.27h-1.33v-10h4.7Zm0.28,4.54a1.92,1.92,0,0,0,.73-0.27,1.48,1.48,0,0,0,.5-0.55,1.83,1.83,0,0,0,.19-0.89,1.8,1.8,0,0,0-.42-1.23,1.73,1.73,0,0,0-1.36-.48h-3.3v3.49h2.77A5.34,5.34,0,0,0,267.5,279.21Z" transform="translate(-39.91)"/><path class="gs1-29" d="M276.44,284.67v-1.15h0a2.43,2.43,0,0,1-1,1,2.9,2.9,0,0,1-1.39.32,3.24,3.24,0,0,1-1.19-.19,1.89,1.89,0,0,1-.77-0.54,2,2,0,0,1-.41-0.83,4.46,4.46,0,0,1-.12-1.07v-4.76h1.19v4.9a1.44,1.44,0,0,0,.39,1.06,1.46,1.46,0,0,0,1.08.39,2.44,2.44,0,0,0,.94-0.17,1.76,1.76,0,0,0,.67-0.48,2,2,0,0,0,.4-0.72,2.93,2.93,0,0,0,.13-0.9v-4.09h1.19v7.24h-1.12Z" transform="translate(-39.91)"/><path class="gs1-29" d="M280.12,277.44v1.15h0a2.51,2.51,0,0,1,2.35-1.32,3.14,3.14,0,0,1,1.19.2,2,2,0,0,1,.77.55,2,2,0,0,1,.41.83,4.49,4.49,0,0,1,.12,1.07v4.76H283.8v-4.9a1.44,1.44,0,0,0-.39-1.06,1.46,1.46,0,0,0-1.08-.39,2.43,2.43,0,0,0-.94.17,1.77,1.77,0,0,0-.67.48,2,2,0,0,0-.4.72,2.93,2.93,0,0,0-.13.9v4.09H279v-7.24h1.12Z" transform="translate(-39.91)"/><path class="gs1-29" d="M289.53,277.44v1h-1.44V283a1.29,1.29,0,0,0,0,.34,0.35,0.35,0,0,0,.13.2,0.58,0.58,0,0,0,.27.09l0.46,0h0.55v1h-0.91a4.28,4.28,0,0,1-.79-0.06,1.16,1.16,0,0,1-.53-0.23,1,1,0,0,1-.3-0.48,2.76,2.76,0,0,1-.1-0.81v-4.61h-1.23v-1h1.23v-2.17h1.19v2.17h1.44Z" transform="translate(-39.91)"/><path class="gs1-29" d="M290.56,276.13v-1.46h1.19v1.46h-1.19Zm1.19,1.3v7.24h-1.19v-7.24h1.19Z" transform="translate(-39.91)"/><path class="gs1-29" d="M294.37,277.44v1.06h0a2.82,2.82,0,0,1,3.56-1,1.57,1.57,0,0,1,.77,1,2.52,2.52,0,0,1,1-.91,2.7,2.7,0,0,1,1.31-.32,3.8,3.8,0,0,1,1,.12,2,2,0,0,1,.76.37,1.68,1.68,0,0,1,.49.65,2.39,2.39,0,0,1,.17,1v5.31h-1.19v-4.75a3.39,3.39,0,0,0-.06-0.63,1.28,1.28,0,0,0-.21-0.51,1.05,1.05,0,0,0-.43-0.34,1.7,1.7,0,0,0-.71-0.13,1.87,1.87,0,0,0-1.39.5,1.82,1.82,0,0,0-.5,1.34v4.51h-1.19v-4.75a3.07,3.07,0,0,0-.06-0.64,1.38,1.38,0,0,0-.22-0.51,1,1,0,0,0-.41-0.34,1.61,1.61,0,0,0-.67-0.12,1.78,1.78,0,0,0-.89.21,2,2,0,0,0-.94,1.11,1.74,1.74,0,0,0-.1.53v4.51h-1.19v-7.24h1.12Z" transform="translate(-39.91)"/><path class="gs1-29" d="M310,284.21a3.28,3.28,0,0,1-2,.62,3.72,3.72,0,0,1-1.5-.28,3,3,0,0,1-1.07-.78,3.33,3.33,0,0,1-.65-1.2,5.76,5.76,0,0,1-.25-1.53,4.36,4.36,0,0,1,.25-1.51,3.61,3.61,0,0,1,.71-1.19,3.2,3.2,0,0,1,1.08-.78,3.29,3.29,0,0,1,1.36-.28,3,3,0,0,1,1.6.4,3.16,3.16,0,0,1,1,1A4,4,0,0,1,311,280a5.75,5.75,0,0,1,.12,1.39h-5.42a2.85,2.85,0,0,0,.11.9,2,2,0,0,0,.41.76,2,2,0,0,0,.71.52,2.46,2.46,0,0,0,1,.2,2.06,2.06,0,0,0,1.24-.35,1.69,1.69,0,0,0,.64-1.06H311A2.89,2.89,0,0,1,310,284.21Zm-0.29-4.65a2,2,0,0,0-1.9-1.25,2.08,2.08,0,0,0-.83.16,1.91,1.91,0,0,0-.64.44,2.11,2.11,0,0,0-.42.65,2.48,2.48,0,0,0-.18.79h4.16A2.43,2.43,0,0,0,309.68,279.56Z" transform="translate(-39.91)"/><rect class="gs1-212" x="141.34" width="328.99" height="424.64"/><rect class="gs1-27" x="169.52" y="267.45" width="11.87" height="2.09"/><path class="gs1-29" d="M218.94,73.44v0.83h-0.83V73.44h0.83Z" transform="translate(-39.91)"/><path class="gs1-29" d="M220.82,73.44v0.83H220V73.44h0.83Z" transform="translate(-39.91)"/><path class="gs1-29" d="M222.71,73.44v0.83h-0.83V73.44h0.83Z" transform="translate(-39.91)"/><line class="gs1-213" x1="176.77" y1="60.59" x2="183.93" y2="60.59"/><line class="gs1-213" x1="177.42" y1="261.61" x2="184.32" y2="261.61"/><rect class="gs1-214" x="188.9" y="120.33" width="181.38" height="66.55" rx="2.9" ry="2.9" transform="translate(393.29 -125.99) rotate(90)"/><path class="gs1-29" d="M269.72,82.44a2.44,2.44,0,0,1,1.8.61,2.71,2.71,0,0,1,0,3.43,2.39,2.39,0,0,1-1.8.61h-2.4V90.3h-1V82.44h3.44Zm-0.35,3.76a1.87,1.87,0,0,0,1.3-.36,1.38,1.38,0,0,0,.41-1.08,1.37,1.37,0,0,0-.41-1.07,1.92,1.92,0,0,0-1.3-.37h-2v2.88h2Z" transform="translate(-39.91)"/><path class="gs1-29" d="M272.84,86.29a2.66,2.66,0,0,1,.53-0.95,2.5,2.5,0,0,1,.87-0.63,3.18,3.18,0,0,1,2.38,0,2.5,2.5,0,0,1,.86.63,2.66,2.66,0,0,1,.53.95,3.8,3.8,0,0,1,.18,1.17,3.74,3.74,0,0,1-.18,1.17,2.66,2.66,0,0,1-.53.94,2.44,2.44,0,0,1-.86.63,3.26,3.26,0,0,1-2.38,0,2.44,2.44,0,0,1-.87-0.63,2.66,2.66,0,0,1-.53-0.94,3.74,3.74,0,0,1-.18-1.17A3.8,3.8,0,0,1,272.84,86.29Zm1,2.09a1.91,1.91,0,0,0,.38.67,1.65,1.65,0,0,0,.57.41,1.73,1.73,0,0,0,1.38,0,1.65,1.65,0,0,0,.57-0.41,1.92,1.92,0,0,0,.38-0.67,3.13,3.13,0,0,0,0-1.84,2,2,0,0,0-.38-0.68,1.61,1.61,0,0,0-.57-0.42,1.72,1.72,0,0,0-1.37,0,1.6,1.6,0,0,0-.57.42,2,2,0,0,0-.38.68A3.13,3.13,0,0,0,273.79,88.38Z" transform="translate(-39.91)"/><path class="gs1-29" d="M280,82.44V90.3h-0.94V82.44H280Z" transform="translate(-39.91)"/><path class="gs1-29" d="M281.23,83.59V82.44h0.94v1.14h-0.94Zm0.94,1V90.3h-0.94V84.61h0.94Z" transform="translate(-39.91)"/><path class="gs1-29" d="M286.75,85.6a1.42,1.42,0,0,0-.95-0.3,1.74,1.74,0,0,0-.85.19,1.5,1.5,0,0,0-.54.5,2.08,2.08,0,0,0-.29.71,3.87,3.87,0,0,0-.09.83,3.15,3.15,0,0,0,.09.77,2,2,0,0,0,.29.67,1.47,1.47,0,0,0,.52.47,1.77,1.77,0,0,0,1.84-.19,1.65,1.65,0,0,0,.48-1h1a2.62,2.62,0,0,1-.79,1.63,2.47,2.47,0,0,1-1.72.57,3,3,0,0,1-1.15-.21,2.24,2.24,0,0,1-.84-0.59,2.57,2.57,0,0,1-.51-0.92,3.84,3.84,0,0,1-.17-1.17,4.2,4.2,0,0,1,.16-1.19,2.77,2.77,0,0,1,.5-1,2.33,2.33,0,0,1,.84-0.65,2.74,2.74,0,0,1,1.18-.24,3.43,3.43,0,0,1,.91.12,2.19,2.19,0,0,1,.75.36,1.93,1.93,0,0,1,.53.61,2.25,2.25,0,0,1,.26.87h-1A1.43,1.43,0,0,0,286.75,85.6Z" transform="translate(-39.91)"/><path class="gs1-29" d="M291.21,91.06a5.77,5.77,0,0,1-.32.7,2,2,0,0,1-.35.47,1.19,1.19,0,0,1-.43.26,1.65,1.65,0,0,1-.54.08l-0.33,0a1.52,1.52,0,0,1-.32-0.08V91.62l0.28,0.09a1.14,1.14,0,0,0,.27,0,0.8,0.8,0,0,0,.48-0.14,0.84,0.84,0,0,0,.29-0.39l0.38-1-2.25-5.65h1.06l1.66,4.65h0l1.59-4.65h1Z" transform="translate(-39.91)"/><rect class="gs1-27" x="226.53" y="141.21" width="106.13" height="47.44" rx="2.9" ry="2.9" transform="translate(404.62 -114.66) rotate(90)"/><path class="gs1-215" d="M264,157.67h4.09a3.9,3.9,0,0,1,1.61.29,2.54,2.54,0,0,1,1,.71,2.44,2.44,0,0,1,.46.94,3.94,3.94,0,0,1,.12.94,3.87,3.87,0,0,1-.12.93,2.44,2.44,0,0,1-.46.93,2.48,2.48,0,0,1-1,.71,4,4,0,0,1-1.61.28h-2.47V167H264v-9.28Zm1.63,4.39H268a2.13,2.13,0,0,0,.56-0.08,1.59,1.59,0,0,0,.53-0.25,1.3,1.3,0,0,0,.39-0.47,1.61,1.61,0,0,0,.15-0.73,1.91,1.91,0,0,0-.13-0.75,1.21,1.21,0,0,0-.35-0.47,1.24,1.24,0,0,0-.51-0.24A2.72,2.72,0,0,0,268,159h-2.4v3.07Z" transform="translate(-39.91)"/><path class="gs1-215" d="M272.15,160.24h1.39v1.3h0a1.51,1.51,0,0,1,.25-0.53,2.51,2.51,0,0,1,.46-0.47,2.32,2.32,0,0,1,.59-0.34,1.79,1.79,0,0,1,.66-0.13h0.36l0.2,0v1.43l-0.32,0-0.32,0a1.71,1.71,0,0,0-.71.15,1.63,1.63,0,0,0-.58.44,2.14,2.14,0,0,0-.39.72,3.11,3.11,0,0,0-.14,1V167h-1.48v-6.72Z" transform="translate(-39.91)"/><path class="gs1-215" d="M279.25,167.14a3.65,3.65,0,0,1-1.44-.27,3,3,0,0,1-1.07-.73,3.14,3.14,0,0,1-.66-1.12,4.57,4.57,0,0,1,0-2.85,3.15,3.15,0,0,1,.66-1.12,3.06,3.06,0,0,1,1.07-.73,4,4,0,0,1,2.87,0,3.07,3.07,0,0,1,1.07.73,3.15,3.15,0,0,1,.66,1.12,4.57,4.57,0,0,1,0,2.85,3.14,3.14,0,0,1-.66,1.12,3,3,0,0,1-1.07.73A3.66,3.66,0,0,1,279.25,167.14Zm0-1.17a1.7,1.7,0,0,0,.86-0.21,1.8,1.8,0,0,0,.6-0.55,2.38,2.38,0,0,0,.34-0.76,3.38,3.38,0,0,0,0-1.72,2.3,2.3,0,0,0-.34-0.76,1.84,1.84,0,0,0-.6-0.54,1.87,1.87,0,0,0-1.72,0,1.84,1.84,0,0,0-.6.54,2.28,2.28,0,0,0-.34.76,3.41,3.41,0,0,0,0,1.72,2.36,2.36,0,0,0,.34.76,1.8,1.8,0,0,0,.6.55A1.7,1.7,0,0,0,279.25,166Z" transform="translate(-39.91)"/><path class="gs1-215" d="M285.36,163.42L283,160.24h1.79l1.4,2.07,1.47-2.07h1.72l-2.29,3.11L289.7,167h-1.78l-1.7-2.48L284.56,167h-1.74Z" transform="translate(-39.91)"/><path class="gs1-215" d="M289.46,160.24h1.63l1.75,5h0l1.7-5h1.55l-2.61,7.08-0.36.87a3.13,3.13,0,0,1-.43.73,1.87,1.87,0,0,1-.63.51,2.16,2.16,0,0,1-1,.19,6.78,6.78,0,0,1-1-.08V168.3l0.35,0.06a1.86,1.86,0,0,0,.35,0,1.22,1.22,0,0,0,.43-0.06,0.72,0.72,0,0,0,.28-0.19,1.23,1.23,0,0,0,.19-0.29,2.82,2.82,0,0,0,.14-0.39l0.17-.52Z" transform="translate(-39.91)"/><path class="gs1-213" d="M403.92,261.59h-0.27c0.25,0.68.5,0.08,0.76,0.08,3,0,5.4-45.71,5.4-103.26s-2.42-104.22-5.4-104.22a0.68,0.68,0,0,0-.49.43" transform="translate(-39.91)"/><path class="gs1-213" d="M403.92,54.63V53.16H216.45v0.13c-2.51,8.91-4.42,54-4.42,105.13s1.9,97.49,4.42,102.49a1.63,1.63,0,0,0,1.74.69H403.65C401,254.45,399,211,399,158.41,399,104,401.17,59.41,403.92,54.63Z" transform="translate(-39.91)"/><path class="gs1-210" d="M222.08,53.16h8.41C229.64,53,225.61,53.09,222.08,53.16Z" transform="translate(-39.91)"/><path class="gs1-210" d="M230.64,53.28l175.12-.12H230.49a0.19,0.19,0,0,1,.17.05Z" transform="translate(-39.91)"/><path class="gs1-210" d="M216.49,53.16v0.13s2.61-.07,5.59-0.13h-5.59Z" transform="translate(-39.91)"/><path class="gs1-210" d="M263.78,261.59h-1.42A10.67,10.67,0,0,0,263.78,261.59Z" transform="translate(-39.91)"/><path class="gs1-210" d="M405.81,261.25l-3.18-19.36H281.29c-13.69,0-31.53-1.73-43.63-19.36-11.3-16.47-15.92-48-15.92-71.85,0-33.21-2-87.31,34.76-97.4h-40C214,62.2,212,99.42,212,150.51s1.92,105.39,4.46,110.4a1.65,1.65,0,0,0,1.76.69h44.11a18.57,18.57,0,0,1-2.63-.35H405.81Z" transform="translate(-39.91)"/><path class="gs1-27" d="M229.61,247a2.88,2.88,0,0,1,2.13.72,3.2,3.2,0,0,1,0,4,2.83,2.83,0,0,1-2.13.71h-2.83v3.8h-1.23V247h4.07Zm-0.42,4.45a2.21,2.21,0,0,0,1.54-.43,1.63,1.63,0,0,0,.49-1.27,1.61,1.61,0,0,0-.49-1.27,2.27,2.27,0,0,0-1.54-.44h-2.42v3.41h2.42Z" transform="translate(-39.91)"/><path class="gs1-27" d="M233.52,248.32V247h1.1v1.35h-1.1Zm1.1,1.21v6.72h-1.1v-6.72h1.1Z" transform="translate(-39.91)"/><path class="gs1-27" d="M237.16,249.53v0.91h0a1.65,1.65,0,0,1,.86-0.81,3.19,3.19,0,0,1,1.29-.25,3,3,0,0,1,1.36.29,2.75,2.75,0,0,1,1,.77,3.42,3.42,0,0,1,.58,1.12,4.6,4.6,0,0,1,.2,1.35,4.74,4.74,0,0,1-.19,1.35,3.18,3.18,0,0,1-.57,1.11,2.69,2.69,0,0,1-1,.75,3.13,3.13,0,0,1-1.35.27,3.27,3.27,0,0,1-.55-0.05,3,3,0,0,1-.6-0.17,2.34,2.34,0,0,1-.57-0.32,1.77,1.77,0,0,1-.45-0.5h0v3.46h-1.1v-9.28h1.1Zm4,2.38a2.46,2.46,0,0,0-.38-0.8,1.85,1.85,0,0,0-.65-0.56,2,2,0,0,0-.93-0.21,1.83,1.83,0,0,0-1.59.8,2.42,2.42,0,0,0-.36.81,3.94,3.94,0,0,0,0,1.88,2.36,2.36,0,0,0,.37.81,1.91,1.91,0,0,0,.66.57,2.05,2.05,0,0,0,1,.21,1.89,1.89,0,0,0,1-.22,1.77,1.77,0,0,0,.62-0.58,2.53,2.53,0,0,0,.34-0.83,4.42,4.42,0,0,0,.1-1A3.43,3.43,0,0,0,241.13,251.91Z" transform="translate(-39.91)"/><path class="gs1-27" d="M248.16,255.82a3.05,3.05,0,0,1-1.9.57,3.44,3.44,0,0,1-1.4-.26,2.75,2.75,0,0,1-1-.73,3.1,3.1,0,0,1-.6-1.12,5.4,5.4,0,0,1-.23-1.42,4,4,0,0,1,.23-1.4,3.34,3.34,0,0,1,.66-1.1,3,3,0,0,1,1-.73,3.06,3.06,0,0,1,1.27-.26,2.76,2.76,0,0,1,1.49.37,3,3,0,0,1,.95.94,3.74,3.74,0,0,1,.49,1.25,5.38,5.38,0,0,1,.11,1.29h-5a2.66,2.66,0,0,0,.1.84,1.89,1.89,0,0,0,.38.7,1.86,1.86,0,0,0,.66.49,2.29,2.29,0,0,0,.95.18,1.92,1.92,0,0,0,1.15-.32,1.57,1.57,0,0,0,.59-1h1.09A2.69,2.69,0,0,1,248.16,255.82Zm-0.27-4.32a1.88,1.88,0,0,0-1.76-1.16,1.94,1.94,0,0,0-.77.15,1.79,1.79,0,0,0-.59.41,2,2,0,0,0-.39.6,2.28,2.28,0,0,0-.17.73h3.86A2.29,2.29,0,0,0,247.89,251.51Z" transform="translate(-39.91)"/><path class="gs1-27" d="M251.22,247v9.28h-1.1V247h1.1Z" transform="translate(-39.91)"/><path class="gs1-27" d="M252.68,248.32V247h1.1v1.35h-1.1Zm1.1,1.21v6.72h-1.1v-6.72h1.1Z" transform="translate(-39.91)"/><path class="gs1-27" d="M256.22,249.53v1.07h0a2.33,2.33,0,0,1,2.18-1.22,2.92,2.92,0,0,1,1.1.18,1.83,1.83,0,0,1,.71.51,1.88,1.88,0,0,1,.38.77,4.18,4.18,0,0,1,.11,1v4.42h-1.1V251.7a1.34,1.34,0,0,0-.36-1,1.35,1.35,0,0,0-1-.36,2.26,2.26,0,0,0-.88.16,1.65,1.65,0,0,0-.62.44,1.9,1.9,0,0,0-.37.67,2.72,2.72,0,0,0-.12.84v3.8h-1.1v-6.72h1Z" transform="translate(-39.91)"/><path class="gs1-27" d="M266.84,255.82a3.05,3.05,0,0,1-1.9.57,3.44,3.44,0,0,1-1.4-.26,2.75,2.75,0,0,1-1-.73,3.1,3.1,0,0,1-.6-1.12,5.4,5.4,0,0,1-.23-1.42,4,4,0,0,1,.23-1.4,3.34,3.34,0,0,1,.66-1.1,3,3,0,0,1,1-.73,3.06,3.06,0,0,1,1.27-.26,2.76,2.76,0,0,1,1.49.37,3,3,0,0,1,.95.94,3.74,3.74,0,0,1,.49,1.25,5.38,5.38,0,0,1,.11,1.29h-5a2.66,2.66,0,0,0,.1.84,1.89,1.89,0,0,0,.38.7,1.86,1.86,0,0,0,.66.49,2.29,2.29,0,0,0,.95.18,1.92,1.92,0,0,0,1.15-.32,1.57,1.57,0,0,0,.59-1h1.09A2.69,2.69,0,0,1,266.84,255.82Zm-0.27-4.32a1.88,1.88,0,0,0-1.76-1.16,1.94,1.94,0,0,0-.77.15,1.79,1.79,0,0,0-.59.41,2,2,0,0,0-.39.6,2.28,2.28,0,0,0-.17.73h3.86A2.29,2.29,0,0,0,266.57,251.51Z" transform="translate(-39.91)"/><path class="gs1-27" d="M271.76,250.67a7.12,7.12,0,0,1,.13-1.07,5.23,5.23,0,0,1,.3-1,2.62,2.62,0,0,1,.53-0.82,2.43,2.43,0,0,1,.85-0.56,3.73,3.73,0,0,1,2.46,0,2.42,2.42,0,0,1,.85.56,2.62,2.62,0,0,1,.53.82,5.23,5.23,0,0,1,.3,1,7.06,7.06,0,0,1,.13,1.07q0,0.55,0,1.05c0,0.34,0,.69,0,1.05a7.07,7.07,0,0,1-.13,1.07,5.07,5.07,0,0,1-.3,1,2.63,2.63,0,0,1-.53.81,2.35,2.35,0,0,1-.84.55,3.87,3.87,0,0,1-2.46,0,2.34,2.34,0,0,1-.85-0.55,2.63,2.63,0,0,1-.53-0.81,5.07,5.07,0,0,1-.3-1,7.14,7.14,0,0,1-.13-1.07c0-.36,0-0.71,0-1.05S271.75,251,271.76,250.67Zm1.18,2.2a4.88,4.88,0,0,0,.21,1.21,2.28,2.28,0,0,0,.57,1,1.73,1.73,0,0,0,2.18,0,2.28,2.28,0,0,0,.57-1,4.88,4.88,0,0,0,.21-1.21q0-.64,0-1.16,0-.34,0-0.75a6.43,6.43,0,0,0-.06-0.82,6.18,6.18,0,0,0-.17-0.8,2.15,2.15,0,0,0-.33-0.68,1.68,1.68,0,0,0-.54-0.47,1.81,1.81,0,0,0-1.59,0,1.67,1.67,0,0,0-.54.47,2.13,2.13,0,0,0-.33.68,6.1,6.1,0,0,0-.17.8,6.43,6.43,0,0,0-.06.82q0,0.41,0,.75Q272.91,252.23,272.94,252.88Z" transform="translate(-39.91)"/><path class="gs1-27" d="M281,251h0.36a2.26,2.26,0,0,0,.67-0.1,1.69,1.69,0,0,0,.56-0.29,1.36,1.36,0,0,0,.38-0.47,1.43,1.43,0,0,0,.14-0.65,1.33,1.33,0,0,0-.47-1.11,1.83,1.83,0,0,0-1.17-.37,1.73,1.73,0,0,0-.77.16,1.55,1.55,0,0,0-.55.44,1.83,1.83,0,0,0-.32.64,2.77,2.77,0,0,0-.1.77h-1.11a4.2,4.2,0,0,1,.21-1.21,2.69,2.69,0,0,1,.54-0.94,2.43,2.43,0,0,1,.88-0.61,3.12,3.12,0,0,1,1.22-.22,4,4,0,0,1,1.11.15,2.58,2.58,0,0,1,.89.45,2,2,0,0,1,.59.77,2.62,2.62,0,0,1,.21,1.1,1.78,1.78,0,0,1-.36,1.11,2.32,2.32,0,0,1-.91.73v0a1.92,1.92,0,0,1,1.25.79,2.53,2.53,0,0,1,.41,1.44,2.77,2.77,0,0,1-.25,1.22,2.55,2.55,0,0,1-.68.88,2.92,2.92,0,0,1-1,.53,4.2,4.2,0,0,1-1.23.17,3.93,3.93,0,0,1-1.27-.19,2.61,2.61,0,0,1-1-.58,2.52,2.52,0,0,1-.62-0.94,3.37,3.37,0,0,1-.2-1.27h1.1a2.24,2.24,0,0,0,.52,1.46,1.81,1.81,0,0,0,1.44.57,2.39,2.39,0,0,0,.77-0.12A2,2,0,0,0,283,255a1.66,1.66,0,0,0,.6-1.31,1.77,1.77,0,0,0-.16-0.76,1.64,1.64,0,0,0-1-.9,2.62,2.62,0,0,0-.77-0.11,5.29,5.29,0,0,0-.66,0V251H281Z" transform="translate(-39.91)"/><path class="gs1-216" d="M486,146.65L485.9,386.4c-1.59,9.6-8.77,17-17.54,17h-268c-8.77,0-15.94-7.41-15.94-16.47V38.62c0-9.06,7.17-16.47,15.94-16.47L470.06,22C478.83,22,486,29.46,486,38.52V146.65Z" transform="translate(-39.91)"/><path class="gs1-210" d="M253.83,378.27h10.79v2.27h-8.17v3.93H264v2.14h-7.56V391h8.32v2.27H253.83v-15Z" transform="translate(-39.91)"/><path class="gs1-210" d="M269.43,387.55l-3.76-5.15h2.9l2.27,3.34,2.37-3.34H276l-3.7,5,4.16,5.84h-2.88l-2.75-4-2.67,4h-2.81Z" transform="translate(-39.91)"/><path class="gs1-210" d="M277.64,382.41h2.27v1.47h0a3,3,0,0,1,1.41-1.35,4.66,4.66,0,0,1,2-.41,5.19,5.19,0,0,1,2.24.45,4.42,4.42,0,0,1,1.59,1.24,5.39,5.39,0,0,1,.94,1.84,7.79,7.79,0,0,1,.32,2.25,7.93,7.93,0,0,1-.28,2.12,5.52,5.52,0,0,1-.86,1.82,4.2,4.2,0,0,1-3.54,1.73,5.87,5.87,0,0,1-1-.09,4.48,4.48,0,0,1-1-.3,3.94,3.94,0,0,1-.89-0.54,3,3,0,0,1-.68-0.77h0v5.42h-2.39V382.41Zm8.36,5.44a5.4,5.4,0,0,0-.19-1.43,3.88,3.88,0,0,0-.57-1.23,2.92,2.92,0,0,0-.94-0.86A2.57,2.57,0,0,0,283,384a2.64,2.64,0,0,0-2.28,1,4.64,4.64,0,0,0-.77,2.79,5.57,5.57,0,0,0,.2,1.52,3.45,3.45,0,0,0,.6,1.21,3,3,0,0,0,1,.8,2.72,2.72,0,0,0,1.29.29,2.68,2.68,0,0,0,1.39-.34,2.93,2.93,0,0,0,.93-0.87,3.52,3.52,0,0,0,.53-1.22A6.16,6.16,0,0,0,286,387.85Z" transform="translate(-39.91)"/><path class="gs1-210" d="M290.2,382.41h2.25v2.1h0a2.43,2.43,0,0,1,.41-0.86,4,4,0,0,1,.73-0.77,3.74,3.74,0,0,1,1-.56,2.86,2.86,0,0,1,1.07-.21,5.26,5.26,0,0,1,.58,0l0.33,0v2.31l-0.51-.07a4.42,4.42,0,0,0-.51,0,2.75,2.75,0,0,0-1.14.24,2.65,2.65,0,0,0-.93.71,3.52,3.52,0,0,0-.63,1.17,5,5,0,0,0-.23,1.6v5.17H290.2V382.41Z" transform="translate(-39.91)"/><path class="gs1-210" d="M298.87,388.46a4.16,4.16,0,0,0,.18,1.22,3,3,0,0,0,.54,1,2.58,2.58,0,0,0,.9.7,3,3,0,0,0,1.3.26,2.87,2.87,0,0,0,1.69-.45,2.67,2.67,0,0,0,1-1.35h2.27a4.51,4.51,0,0,1-1.76,2.74,4.83,4.83,0,0,1-1.46.71,5.9,5.9,0,0,1-1.69.24,5.74,5.74,0,0,1-2.27-.42,4.69,4.69,0,0,1-1.67-1.18,5,5,0,0,1-1-1.81,7.35,7.35,0,0,1-.35-2.31,6.53,6.53,0,0,1,.37-2.19,5.62,5.62,0,0,1,1-1.83,4.92,4.92,0,0,1,3.83-1.71,4.86,4.86,0,0,1,2.3.54,5,5,0,0,1,1.69,1.42,5.74,5.74,0,0,1,1,2,6.22,6.22,0,0,1,.16,2.36h-8Zm5.59-1.58a3.87,3.87,0,0,0-.24-1.09,2.94,2.94,0,0,0-.55-0.91,2.72,2.72,0,0,0-.84-0.63,2.48,2.48,0,0,0-1.1-.24,2.87,2.87,0,0,0-1.14.22,2.6,2.6,0,0,0-.88.61,3,3,0,0,0-.59.91,3.19,3.19,0,0,0-.24,1.13h5.59Z" transform="translate(-39.91)"/><path class="gs1-210" d="M310.28,389.78a1.8,1.8,0,0,0,.8,1.47,3.14,3.14,0,0,0,1.66.42,6.37,6.37,0,0,0,.77-0.05,3.36,3.36,0,0,0,.81-0.2,1.53,1.53,0,0,0,.62-0.43,1,1,0,0,0,.22-0.75,1.06,1.06,0,0,0-.34-0.76A2.34,2.34,0,0,0,314,389a8,8,0,0,0-1.12-.3l-1.28-.27a12,12,0,0,1-1.29-.36,4.18,4.18,0,0,1-1.11-.57,2.61,2.61,0,0,1-.79-0.91,2.91,2.91,0,0,1-.29-1.37,2.47,2.47,0,0,1,.43-1.48,3.28,3.28,0,0,1,1.09-1,4.74,4.74,0,0,1,1.47-.51,8.67,8.67,0,0,1,1.54-.15,7.12,7.12,0,0,1,1.61.18,4.36,4.36,0,0,1,1.39.58,3.39,3.39,0,0,1,1,1,3.61,3.61,0,0,1,.51,1.54h-2.5a1.49,1.49,0,0,0-.79-1.16,3.26,3.26,0,0,0-1.42-.29,5,5,0,0,0-.6,0,2.78,2.78,0,0,0-.65.16,1.37,1.37,0,0,0-.51.34,0.81,0.81,0,0,0-.21.58,0.91,0.91,0,0,0,.3.71,2.42,2.42,0,0,0,.8.45,7.79,7.79,0,0,0,1.12.3l1.3,0.27q0.65,0.15,1.28.36a4.14,4.14,0,0,1,1.12.57,2.77,2.77,0,0,1,.8.9,2.73,2.73,0,0,1,.3,1.34,2.92,2.92,0,0,1-.44,1.64,3.48,3.48,0,0,1-1.14,1.09,5.22,5.22,0,0,1-1.56.61,7.91,7.91,0,0,1-1.7.19,7.44,7.44,0,0,1-1.9-.23,4.42,4.42,0,0,1-1.51-.7,3.4,3.4,0,0,1-1-1.18,3.73,3.73,0,0,1-.39-1.67h2.39Z" transform="translate(-39.91)"/><path class="gs1-210" d="M321,389.78a1.8,1.8,0,0,0,.8,1.47,3.14,3.14,0,0,0,1.66.42,6.37,6.37,0,0,0,.77-0.05,3.36,3.36,0,0,0,.81-0.2,1.53,1.53,0,0,0,.62-0.43,1,1,0,0,0,.22-0.75,1.06,1.06,0,0,0-.34-0.76,2.34,2.34,0,0,0-.81-0.47,8,8,0,0,0-1.12-.3l-1.28-.27a12,12,0,0,1-1.29-.36,4.18,4.18,0,0,1-1.11-.57,2.61,2.61,0,0,1-.79-0.91,2.91,2.91,0,0,1-.29-1.37,2.47,2.47,0,0,1,.43-1.48,3.28,3.28,0,0,1,1.09-1,4.74,4.74,0,0,1,1.47-.51,8.67,8.67,0,0,1,1.54-.15,7.12,7.12,0,0,1,1.61.18,4.36,4.36,0,0,1,1.39.58,3.39,3.39,0,0,1,1,1,3.61,3.61,0,0,1,.51,1.54h-2.5a1.49,1.49,0,0,0-.79-1.16,3.26,3.26,0,0,0-1.42-.29,5,5,0,0,0-.6,0,2.78,2.78,0,0,0-.65.16,1.37,1.37,0,0,0-.51.34,0.81,0.81,0,0,0-.21.58,0.91,0.91,0,0,0,.3.71,2.42,2.42,0,0,0,.8.45,7.79,7.79,0,0,0,1.12.3l1.3,0.27q0.65,0.15,1.28.36a4.14,4.14,0,0,1,1.12.57,2.77,2.77,0,0,1,.8.9,2.73,2.73,0,0,1,.3,1.34,2.92,2.92,0,0,1-.44,1.64,3.48,3.48,0,0,1-1.14,1.09,5.22,5.22,0,0,1-1.56.61,7.91,7.91,0,0,1-1.7.19,7.44,7.44,0,0,1-1.9-.23,4.42,4.42,0,0,1-1.51-.7,3.4,3.4,0,0,1-1-1.18,3.73,3.73,0,0,1-.39-1.67H321Z" transform="translate(-39.91)"/><path class="gs1-210" d="M348.9,393.27h-1.68l-0.4-1.76a6.23,6.23,0,0,1-2.1,1.66,5.94,5.94,0,0,1-2.42.46,7.07,7.07,0,0,1-3-.62,6.61,6.61,0,0,1-2.26-1.69,7.56,7.56,0,0,1-1.42-2.5,9.58,9.58,0,0,1,0-6.07,7.56,7.56,0,0,1,1.42-2.5,6.73,6.73,0,0,1,2.26-1.7,7,7,0,0,1,3-.63,8.16,8.16,0,0,1,2.32.33,6.2,6.2,0,0,1,2,1,5.36,5.36,0,0,1,1.43,1.61,5.63,5.63,0,0,1,.71,2.23h-2.56a3.22,3.22,0,0,0-1.32-2.23,3.81,3.81,0,0,0-1.18-.57,4.84,4.84,0,0,0-1.37-.19,4.2,4.2,0,0,0-2.07.48,4.06,4.06,0,0,0-1.42,1.29,5.84,5.84,0,0,0-.81,1.84,8.55,8.55,0,0,0,0,4.2,5.84,5.84,0,0,0,.81,1.84,4.06,4.06,0,0,0,1.42,1.29,4.2,4.2,0,0,0,2.07.48,4.87,4.87,0,0,0,1.79-.26,3.55,3.55,0,0,0,1.31-.82,3.46,3.46,0,0,0,.81-1.31,5.58,5.58,0,0,0,.29-1.72h-4v-2h6.38v7.9Z" transform="translate(-39.91)"/><path class="gs1-210" d="M360.3,390.85a1.27,1.27,0,0,0,.12.63,0.49,0.49,0,0,0,.45.19h0.25a1.55,1.55,0,0,0,.34,0v1.66l-0.33.09-0.41.09-0.42.06-0.36,0a2.3,2.3,0,0,1-1.22-.29,1.46,1.46,0,0,1-.63-1,4.24,4.24,0,0,1-1.75,1,6.88,6.88,0,0,1-2,.32,4.91,4.91,0,0,1-1.41-.2,3.69,3.69,0,0,1-1.19-.59,2.81,2.81,0,0,1-.82-1,3,3,0,0,1-.3-1.4,3.22,3.22,0,0,1,.37-1.64,2.73,2.73,0,0,1,1-1,4.36,4.36,0,0,1,1.34-.51q0.75-.16,1.5-0.24a12.38,12.38,0,0,1,1.24-.18,5.85,5.85,0,0,0,1-.18,1.59,1.59,0,0,0,.71-0.39,1.07,1.07,0,0,0,.26-0.79,1.23,1.23,0,0,0-.22-0.76,1.48,1.48,0,0,0-.55-0.45,2.36,2.36,0,0,0-.72-0.21,6,6,0,0,0-.76-0.05,3,3,0,0,0-1.66.42,1.64,1.64,0,0,0-.74,1.3H351a3.6,3.6,0,0,1,.5-1.74,3.47,3.47,0,0,1,1.12-1.11,4.6,4.6,0,0,1,1.54-.59,9.24,9.24,0,0,1,1.76-.17,7.48,7.48,0,0,1,1.58.17,4.46,4.46,0,0,1,1.4.55,3,3,0,0,1,1,1,2.68,2.68,0,0,1,.38,1.46v5.59Zm-2.39-3a2.9,2.9,0,0,1-1.34.43q-0.8.07-1.6,0.22a5.07,5.07,0,0,0-.73.18,2.21,2.21,0,0,0-.63.31,1.38,1.38,0,0,0-.43.53,1.79,1.79,0,0,0-.16.79,1,1,0,0,0,.23.67,1.68,1.68,0,0,0,.56.43,2.56,2.56,0,0,0,.71.22,4.43,4.43,0,0,0,.7.06,3.88,3.88,0,0,0,.86-0.11,2.86,2.86,0,0,0,.87-0.36,2.3,2.3,0,0,0,.68-0.64,1.62,1.62,0,0,0,.27-1v-1.79Z" transform="translate(-39.91)"/><path class="gs1-210" d="M361.58,382.41h1.81v-3.25h2.39v3.25h2.16v1.79h-2.16V390a5.91,5.91,0,0,0,0,.65,1.13,1.13,0,0,0,.15.46,0.7,0.7,0,0,0,.35.28,1.7,1.7,0,0,0,.63.09h0.5a2.49,2.49,0,0,0,.5-0.07v1.85l-0.78.08a7.19,7.19,0,0,1-.78,0,5.33,5.33,0,0,1-1.52-.18,2,2,0,0,1-.9-0.53,1.8,1.8,0,0,1-.44-0.87,6.51,6.51,0,0,1-.14-1.2v-6.41h-1.81v-1.79Z" transform="translate(-39.91)"/><path class="gs1-210" d="M371.32,388.46a4.16,4.16,0,0,0,.18,1.22,3,3,0,0,0,.54,1,2.58,2.58,0,0,0,.9.7,3,3,0,0,0,1.3.26,2.87,2.87,0,0,0,1.69-.45,2.67,2.67,0,0,0,1-1.35h2.27a4.51,4.51,0,0,1-1.76,2.74,4.83,4.83,0,0,1-1.46.71,5.9,5.9,0,0,1-1.69.24,5.74,5.74,0,0,1-2.27-.42A4.69,4.69,0,0,1,370.3,392a5,5,0,0,1-1-1.81,7.35,7.35,0,0,1-.35-2.31,6.53,6.53,0,0,1,.37-2.19,5.62,5.62,0,0,1,1-1.83,4.92,4.92,0,0,1,3.83-1.71,4.86,4.86,0,0,1,2.3.54,5,5,0,0,1,1.69,1.42,5.74,5.74,0,0,1,1,2,6.22,6.22,0,0,1,.16,2.36h-8Zm5.59-1.58a3.87,3.87,0,0,0-.24-1.09,2.94,2.94,0,0,0-.55-0.91,2.72,2.72,0,0,0-.84-0.63,2.48,2.48,0,0,0-1.1-.24,2.87,2.87,0,0,0-1.14.22,2.6,2.6,0,0,0-.88.61,3,3,0,0,0-.59.91,3.19,3.19,0,0,0-.24,1.13h5.59Z" transform="translate(-39.91)"/><path class="gs1-210" d="M379.93,382.41h2.54l2.12,8.11h0l2-8.11h2.42l2,8.11h0l2.21-8.11h2.44l-3.4,10.86h-2.46l-2-8.06h0l-2,8.06h-2.52Z" transform="translate(-39.91)"/><path class="gs1-210" d="M406.14,390.85a1.27,1.27,0,0,0,.12.63,0.49,0.49,0,0,0,.45.19H407a1.55,1.55,0,0,0,.34,0v1.66l-0.33.09-0.41.09-0.42.06-0.36,0a2.3,2.3,0,0,1-1.22-.29,1.46,1.46,0,0,1-.63-1,4.24,4.24,0,0,1-1.75,1,6.88,6.88,0,0,1-2,.32,4.91,4.91,0,0,1-1.41-.2,3.69,3.69,0,0,1-1.19-.59,2.81,2.81,0,0,1-.82-1,3,3,0,0,1-.3-1.4,3.22,3.22,0,0,1,.37-1.64,2.73,2.73,0,0,1,1-1,4.36,4.36,0,0,1,1.34-.51q0.75-.16,1.5-0.24a12.38,12.38,0,0,1,1.24-.18,5.85,5.85,0,0,0,1-.18,1.59,1.59,0,0,0,.71-0.39,1.07,1.07,0,0,0,.26-0.79,1.23,1.23,0,0,0-.22-0.76,1.48,1.48,0,0,0-.55-0.45,2.36,2.36,0,0,0-.72-0.21,6,6,0,0,0-.76-0.05,3,3,0,0,0-1.66.42,1.64,1.64,0,0,0-.74,1.3h-2.39a3.6,3.6,0,0,1,.5-1.74,3.47,3.47,0,0,1,1.12-1.11,4.6,4.6,0,0,1,1.54-.59,9.24,9.24,0,0,1,1.76-.17,7.48,7.48,0,0,1,1.58.17,4.46,4.46,0,0,1,1.4.55,3,3,0,0,1,1,1,2.68,2.68,0,0,1,.38,1.46v5.59Zm-2.39-3a2.9,2.9,0,0,1-1.34.43q-0.8.07-1.6,0.22a5.07,5.07,0,0,0-.73.18,2.21,2.21,0,0,0-.63.31,1.38,1.38,0,0,0-.43.53,1.79,1.79,0,0,0-.16.79,1,1,0,0,0,.23.67,1.68,1.68,0,0,0,.56.43,2.56,2.56,0,0,0,.71.22,4.43,4.43,0,0,0,.7.06,3.88,3.88,0,0,0,.86-0.11,2.86,2.86,0,0,0,.87-0.36,2.3,2.3,0,0,0,.68-0.64,1.62,1.62,0,0,0,.27-1v-1.79Z" transform="translate(-39.91)"/><path class="gs1-210" d="M407.32,382.41h2.63l2.83,8.11h0l2.75-8.11h2.5l-4.22,11.45q-0.29.74-.58,1.41a5,5,0,0,1-.69,1.19,3,3,0,0,1-1,.82,3.48,3.48,0,0,1-1.55.3,10.89,10.89,0,0,1-1.66-.13v-2l0.57,0.09a3.05,3.05,0,0,0,.57.05,2,2,0,0,0,.69-0.1,1.15,1.15,0,0,0,.45-0.3,1.89,1.89,0,0,0,.3-0.47,4.63,4.63,0,0,0,.23-0.63l0.27-.84Z" transform="translate(-39.91)"/></svg>
