<svg id="gs-1-2" xmlns="http://www.w3.org/2000/svg" viewBox="0 0 679.23 432.67"><defs><style>.gs12-1,.gs12-12,.gs12-17{fill:#fff}.gs12-14,.gs12-2{fill:#74cfe8}.gs12-2{opacity:.15}.gs12-12,.gs12-2,.gs12-4{isolation:isolate}.gs12-3,.gs12-4{fill:#35a9c5}.gs12-4{opacity:.2}.gs12-13,.gs12-16,.gs12-5,.gs12-7{fill:none;stroke-linecap:round}.gs12-5,.gs12-7{stroke:#136d7c}.gs12-13,.gs12-5,.gs12-7{stroke-linejoin:round}.gs12-5{stroke-width:1.5px}.gs12-6{opacity:.4}.gs12-7{stroke-width:2.5px}.gs12-8{opacity:.63}.gs12-9{fill:#136d7c}.gs12-10{fill:#ffc60a}.gs12-11{fill:#37403f}.gs12-12{opacity:.8}.gs12-13,.gs12-16{stroke:#ffc60a}.gs12-13{stroke-width:2px}.gs12-15{fill:#888789}.gs12-16{stroke-miterlimit:10;stroke-width:3px}.gs12-17{opacity:0}</style></defs><title>sized</title><path class="gs12-1" d="M480.63 146.81l-.1 239.75c-1.59 9.6-8.77 17-17.54 17H195c-8.77 0-15.94-7.41-15.94-16.47V38.78c0-9.06 7.17-16.47 15.94-16.47l269.7-.06c8.77 0 15.94 7.41 15.94 16.47v108.09z"/><rect class="gs12-2" x="34.54" y="68.96" width="172.12" height="250.17" rx="15" ry="15"/><path class="gs12-3" d="M70.65 196.06c0 2 1.46 2.75 3.26 2.75 2 0 2.72-1 2.72-1.94a1.53 1.53 0 0 0-1.07-1.62c-.9-.34-2.07-.58-3.83-1.06-2.2-.59-2.84-1.93-2.84-3.26 0-2.57 2.38-3.78 4.7-3.78 2.68 0 4.93 1.42 4.93 4.11h-2.26C76.15 189.6 75 189 73.49 189c-1 0-2.36.38-2.36 1.67a1.74 1.74 0 0 0 1.53 1.66c.2.05 3 .79 3.71 1a3.4 3.4 0 0 1 2.5 3.28c0 2.88-2.56 4-5.11 4-2.93 0-5.31-1.4-5.37-4.59zM81.7 196.25a2.48 2.48 0 0 0 2.2 2.75h.3a2.16 2.16 0 0 0 2.24-1.58h2a4.08 4.08 0 0 1-4.21 3.17c-2.92 0-4.55-2-4.55-4.9 0-2.65 1.73-4.92 4.5-4.92 2.93 0 4.74 2.65 4.39 5.44zm4.74-1.38a2.4 2.4 0 1 0-4.79 0h4.79zM89.65 191h1.93v1.8a3 3 0 0 1 2.72-2.05 5 5 0 0 1 .77.05v2a7.31 7.31 0 0 0-.88-.09c-1.41 0-2.52 1.13-2.52 3.19v4.43h-2V191z"/><path class="gs12-3" d="M94.62 191h2.23l2.36 7.15 2.27-7.15h2.16l-3.33 9.31H98zM104.44 187.49h2.05v1.94h-2.05v-1.94zm0 3.55h2.05v9.31h-2.05V191zM114.6 194.15a2 2 0 0 0-2.12-1.75c-1.06 0-2.56.56-2.56 3.38 0 1.55.69 3.19 2.47 3.19a2.21 2.21 0 0 0 2.21-2.12h2.05a4 4 0 0 1-4.23 3.75c-2.92 0-4.52-2.07-4.52-4.81s1.53-5 4.59-5c2.16 0 4 1.08 4.2 3.37h-2.09zM119.44 196.25a2.48 2.48 0 0 0 2.19 2.74h.31a2.16 2.16 0 0 0 2.27-1.55h1.94a4.08 4.08 0 0 1-4.21 3.17c-2.92 0-4.55-2-4.55-4.9 0-2.65 1.73-4.92 4.5-4.92 2.93 0 4.74 2.65 4.39 5.44h-6.84zm4.79-1.35a2.4 2.4 0 1 0-4.79 0h4.79zM129 197.35a1.81 1.81 0 0 0 2.11 1.62c.77 0 2.12-.16 2.07-1.22s-1.55-1.21-3-1.55-3-.86-3-2.75 2.2-2.66 3.89-2.66c1.91 0 3.64.79 3.89 2.86h-2.16a1.62 1.62 0 0 0-1.89-1.24c-.59 0-1.69.14-1.69 1s1.51 1.15 3 1.5 3 .88 3 2.72c0 2.21-2.23 3-4.16 3-2.34 0-4.09-1-4.12-3.24zM67.19 207.49h9.25v1.94h-7v3.37h6.48v1.84h-6.48v3.76h7.13v1.94h-9.38v-12.85zM77.79 211h2v1.37a3.33 3.33 0 0 1 2.9-1.66 3 3 0 0 1 3.29 3.17v6.39h-2v-5.85c0-1.46-.61-2.09-1.82-2.09a2.27 2.27 0 0 0-2.26 2.28v5.66h-2.11V211zM96.44 220.34H94.5v-1.26a3.09 3.09 0 0 1-2.88 1.51c-2.93 0-4.36-2.18-4.36-5 0-3.37 2-4.84 4-4.84a3.59 3.59 0 0 1 3.1 1.46v-4.75h2.08v12.88zM91.85 219c1.84 0 2.61-1.67 2.61-3.29 0-2.05-1-3.28-2.57-3.28-1.93 0-2.61 1.71-2.61 3.38s.79 3.19 2.57 3.19zM98.28 211h1.94v1.22a3.11 3.11 0 0 1 2.88-1.51c2.93 0 4.36 2.23 4.36 5 0 2.5-1.26 4.86-4 4.86a3.62 3.62 0 0 1-3.12-1.46v4.65h-2.06V211zm4.59 1.37c-1.73 0-2.61 1.31-2.61 3.29s1 3.28 2.61 3.28c1.87 0 2.58-1.66 2.58-3.28s-.89-3.26-2.58-3.26zM108.34 215.68c0-2.84 1.71-4.9 4.7-4.9s4.7 2.05 4.7 4.9-1.74 4.92-4.74 4.92-4.66-2.06-4.66-4.92zm7.35 0c0-1.6-.81-3.28-2.65-3.28s-2.65 1.67-2.65 3.28.81 3.32 2.61 3.32 2.64-1.72 2.64-3.29zM119.05 207.49h2.05v1.94h-2.05v-1.94zm0 3.55h2.05v9.31h-2.05V211zM122.88 211h1.94v1.37a3.33 3.33 0 0 1 2.9-1.66 3 3 0 0 1 3.29 3.17v6.39H129v-5.85c0-1.46-.61-2.09-1.82-2.09a2.27 2.27 0 0 0-2.26 2.28v5.66h-2.05zM131.83 211h1.55v-2.78h2.06V211h1.85v1.53h-1.85v5c0 .85.07 1.28 1 1.28a3.49 3.49 0 0 0 .86-.07v1.58c-.45 0-.88.11-1.33.11-2.14 0-2.54-.83-2.57-2.38v-5.45h-1.55zM73 243.78a14.94 14.94 0 0 1-2.59-8.3 15.34 15.34 0 0 1 2.59-8.3h1.67a16.65 16.65 0 0 0-2.21 8.3 15.9 15.9 0 0 0 2.21 8.3H73zM75.44 227.49h5.67c3.67 0 4.38 2.38 4.38 4s-.7 4-4.38 3.94H77.7v4.93h-2.26v-12.87zm2.25 6.09H81a2 2 0 0 0 2.25-2.12 1.9 1.9 0 0 0-2.25-2.12h-3.3v4.24zM86.72 231h1.93v1.8a3 3 0 0 1 2.79-2.05 4.94 4.94 0 0 1 .77.05v2a7.27 7.27 0 0 0-.88-.09c-1.4 0-2.52 1.13-2.52 3.19v4.43h-2.09V231zM92.66 227.49h2.05v1.94h-2.05v-1.94zm0 3.55h2.05v9.31h-2.05V231zM95.57 231h2.23l2.36 7.15 2.28-7.15h2.12l-3.33 9.31h-2.3zM113.18 238.25c0 .5.11.7.49.7a2.83 2.83 0 0 0 .5 0v1.42a5.13 5.13 0 0 1-1.3.23 1.37 1.37 0 0 1-1.58-1.13 4.78 4.78 0 0 1-3.22 1.13c-1.67 0-3.19-.9-3.19-2.72 0-2.32 1.85-2.7 3.58-2.9 1.48-.27 2.79-.11 2.79-1.31s-1.1-1.26-1.93-1.26c-1.15 0-2 .47-2.05 1.48h-2c.14-2.39 2.18-3.1 4.23-3.1 1.82 0 3.73.74 3.73 2.7v4.76zm-2.05-2.59a7.33 7.33 0 0 1-2.52.56c-.88.14-1.67.47-1.67 1.55 0 .92 1.17 1.19 1.89 1.19.9 0 2.3-.47 2.3-1.76v-1.54zM114 231h1.55v-2.78h2.05V231h1.83v1.53h-1.85v5c0 .85.07 1.28 1 1.28a3.49 3.49 0 0 0 .86-.07v1.58c-.45 0-.88.11-1.33.11-2.14 0-2.54-.83-2.58-2.38v-5.45H114zM122.09 236.25a2.48 2.48 0 0 0 2.19 2.74h.31a2.16 2.16 0 0 0 2.27-1.55h1.95a4.08 4.08 0 0 1-4.21 3.17c-2.92 0-4.56-2-4.56-4.9 0-2.65 1.73-4.92 4.5-4.92 2.93 0 4.74 2.65 4.39 5.44h-6.84zm4.79-1.35a2.4 2.4 0 1 0-4.79 0h4.79z"/><path class="gs12-3" d="M130.49 227.18a15 15 0 0 1 2.59 8.32 15.24 15.24 0 0 1-2.59 8.28h-1.67a16.53 16.53 0 0 0 2.18-8.28 16 16 0 0 0-2.21-8.32h1.67zM107.31 150.9H86.44a.52.52 0 1 0 0 1h20.83a.52.52 0 1 0 0-1z"/><path class="gs12-3" d="M119.44 135.8h-8a5.17 5.17 0 0 0-.66-2.9c-1.2-2-3.84-3.1-7.85-3.12s-6.61 1-7.81 3a5.19 5.19 0 0 0-.67 3h-8a6 6 0 0 0-5.95 5.95V163a6 6 0 0 0 5.95 6h33a6 6 0 0 0 5.95-5.95v-21.3a6 6 0 0 0-5.96-5.95zM97.26 134c.71-1.19 2.66-1.81 5.66-1.79s5 .68 5.72 1.89a2.82 2.82 0 0 1 .33 1.65H97a2.89 2.89 0 0 1 .3-1.75zm17 26.37a7.76 7.76 0 0 1-7.26-5h-6.84L97 153.16l-3.62 2.52-2.82-1.61-3.43 1.11-3.29-3.05 1.1-2.72h22.31a7.77 7.77 0 1 1 7 11z"/><circle class="gs12-3" cx="117.25" cy="152.64" r="1.79"/><path class="gs12-4" d="M112.44 163.14a7.76 7.76 0 0 1-7.26-5h-6.84l-3.16-2.25-3.62 2.52-2.82-1.61-3.43 1.11-3.31-3.05 1.1-2.72h22.32a7.77 7.77 0 1 1 7.02 11z"/><rect class="gs12-5" x="193.77" y="37.66" width="271.21" height="256.21" rx="3.14" ry="3.14"/><g class="gs12-6"><path class="gs12-7" d="M434.06 110.66H421c-1.1 0-2-1.59-2-3.53 0-1.94.9-3.53 2-3.53h26.67c1.1 0 2-1.59 2-3.53 0-1.94-.9-3.53-2-3.53h-25.59M434.06 124.81H421c-1.1 0-2-1.59-2-3.53 0-1.94.9-3.53 2-3.53h26.67c1.1 0 2-1.59 2-3.53 0-1.94-.9-3.53-2-3.53h-13.74M434.06 138.95H421c-1.1 0-2-1.59-2-3.53 0-1.94.9-3.53 2-3.53h26.67c1.1 0 2-1.59 2-3.53 0-1.94-.9-3.53-2-3.53h-13.74M434.06 153.09H421c-1.1 0-2-1.59-2-3.53 0-1.94.9-3.53 2-3.53h26.67c1.1 0 2-1.59 2-3.53 0-1.94-.9-3.53-2-3.53h-13.74M434.06 167.25H421c-1.1 0-2-1.59-2-3.53 0-1.94.9-3.53 2-3.53h26.67c1.1 0 2-1.59 2-3.53 0-1.94-.9-3.53-2-3.53h-13.74M434.06 181.38H421c-1.1 0-2-1.59-2-3.53 0-1.94.9-3.53 2-3.53h26.67c1.1 0 2-1.59 2-3.53 0-1.94-.9-3.53-2-3.53h-13.74"/><path class="gs12-7" d="M434.06 195.37H421c-1.1 0-2-1.59-2-3.53 0-1.94.9-3.53 2-3.53h26.67c1.1 0 2-1.59 2-3.53 0-1.94-.9-3.53-2-3.53h-13.74M434.06 209.52H421c-1.1 0-2-1.59-2-3.53 0-1.94.9-3.53 2-3.53h26.67c1.1 0 2-1.59 2-3.53 0-1.94-.9-3.53-2-3.53h-13.74M434.06 223.66H421c-1.1 0-2-1.59-2-3.53 0-1.94.9-3.53 2-3.53h26.67c1.1 0 2-1.59 2-3.53 0-1.94-.9-3.53-2-3.53h-13.74M434.06 237.81H421c-1.1 0-2-1.59-2-3.53 0-1.94.9-3.53 2-3.53h26.67c1.1 0 2-1.59 2-3.53 0-1.94-.9-3.53-2-3.53h-13.74M434.06 82.35H421c-1.1 0-2-1.59-2-3.53 0-1.94.9-3.53 2-3.53h26.67c1.1 0 2-1.59 2-3.53 0-1.94-.9-3.53-2-3.53h-13.74"/><path class="gs12-7" d="M434.14 68.25h-13.07c-1.1 0-2-1.59-2-3.53 0-1.94.9-3.53 2-3.53h26.67c1.1 0 2-1.59 2-3.53 0-1.94-.9-3.53-2-3.53H434M434.06 96.49H421c-1.1 0-2-1.59-2-3.53 0-1.94.9-3.53 2-3.53h26.67c1.1 0 2-1.59 2-3.53 0-1.94-.9-3.53-2-3.53h-13.74M434.06 251.87H421c-1.1 0-2-1.59-2-3.53 0-1.94.9-3.53 2-3.53h26.67c1.1 0 2-1.59 2-3.53 0-1.94-.9-3.53-2-3.53h-13.74M421 259h26.67c1.1 0 2-1.59 2-3.53 0-1.94-.9-3.53-2-3.53h-13.74"/></g><path class="gs12-1" d="M415.06 254.03h38.91v14.5h-38.91z"/><g class="gs12-8"><path class="gs12-9" d="M418.53 260.44h3.75c1.72 0 2.6.79 2.6 2.12a1.91 1.91 0 0 1-1.3 2 1.44 1.44 0 0 1 1.17 1.66 3.57 3.57 0 0 0 .43 2.07h-1.47a2.19 2.19 0 0 1-.21-1.16c0-1.44-.3-2.08-1.56-2.08h-2v3.2h-1.37zm1.38 3.58h2.26a1.16 1.16 0 0 0 1.34-1.25 1.13 1.13 0 0 0-1.36-1.2h-2.23V264zM425.83 265.45a2.87 2.87 0 1 1 2.87 3 2.75 2.75 0 0 1-2.87-3zm4.49 0a1.66 1.66 0 1 0-1.62 2 1.75 1.75 0 0 0 1.62-2zM437.62 268.25h-1.23v-.79a1.91 1.91 0 0 1-1.62 1c-1.49 0-2.12-.75-2.12-2.23v-3.61h1.25v3.49c0 1 .41 1.36 1.09 1.36a1.34 1.34 0 0 0 1.4-1.55v-3.3h1.25zM438.36 262.61h1v-1.71h1.25v1.71h1.13v.93h-1.13v3c0 .52 0 .78.61.78a2.15 2.15 0 0 0 .53 0v1c-.28 0-.54.07-.81.07-1.31 0-1.55-.51-1.57-1.45v-3.39h-1v-.94zM443.58 265.78a1.51 1.51 0 0 0 1.33 1.67h.2a1.32 1.32 0 0 0 1.39-1h1.19a2.49 2.49 0 0 1-2.58 1.94 2.7 2.7 0 0 1-2.78-3 2.75 2.75 0 1 1 5.44.32h-4.19zm2.93-.83a1.46 1.46 0 0 0-2.93 0h2.93zM448.71 262.61h1.18v1.1a1.84 1.84 0 0 1 1.66-1.25 2.87 2.87 0 0 1 .47 0v1.21a4.36 4.36 0 0 0-.54 0c-.86 0-1.54.69-1.54 2v2.68h-1.25z"/></g><rect class="gs12-10" x="193.85" y="335.4" width="81.49" height="32.75" rx="3.14" ry="3.14"/><rect class="gs12-10" x="284.88" y="335.4" width="81.49" height="32.75" rx="3.14" ry="3.14"/><rect class="gs12-10" x="375.9" y="335.4" width="81.49" height="32.75" rx="3.14" ry="3.14"/><path class="gs12-11" d="M210.33 341.88h2.61c2.35 0 3.66 1.17 3.66 3.63s-1.12 4-3.66 4h-2.61v-7.63zm1 6.76H213c.69 0 2.56-.19 2.56-3 0-1.81-.67-2.91-2.54-2.91h-1.7v5.91zM218.37 343h-.93v-1.11h.91zm-.91 1h.91v5.52h-.93zM220.07 347.75a1.22 1.22 0 0 0 1.48 1.07c.57 0 1.33-.13 1.33-.82s-.9-.82-1.8-1-1.8-.5-1.8-1.56a1.84 1.84 0 0 1 2.06-1.57c1.22 0 2.19.38 2.26 1.73h-.91a1.1 1.1 0 0 0-1.28-.93c-.6 0-1.17.15-1.17.71s1 .76 1.8 1 1.8.5 1.8 1.57c0 1.31-1.23 1.74-2.35 1.74s-2.28-.5-2.33-1.87zM225.84 344h1.1v.8h-1.1v3.42c0 .42.12.49.68.49h.42v.8h-.69c-.94 0-1.31-.19-1.31-1.21v-3.51H224V344h.94v-1.65h.91V344zM227.64 344h.8v1.16a2 2 0 0 1 2-1.29v1c-1.46 0-2 .83-2 2.23v2.45h-.91zM231.91 343H231v-1.11h.91V343zm-.91 1h.91v5.52H231V344zM233.08 341.88h.92v2.85a1.85 1.85 0 0 1 1.76-.87c1.7 0 2.54 1.34 2.54 2.9s-.83 2.87-2.52 2.87a2.11 2.11 0 0 1-1.78-.86v.74h-.91v-7.63zm2.56 2.77c-1.22 0-1.69 1-1.69 2.08s.49 2.09 1.74 2.09 1.65-1.06 1.65-2.13a1.77 1.77 0 0 0-1.7-2.04zM243.67 349.49h-.85v-.87a1.92 1.92 0 0 1-1.79 1 1.71 1.71 0 0 1-1.9-2V344h.87v3.73a1 1 0 0 0 1.12 1.11 1.55 1.55 0 0 0 1.63-1.73V344h.91zM246 344h1.1v.8H246v3.42c0 .42.12.49.68.49h.42v.8h-.69c-.94 0-1.31-.19-1.31-1.21v-3.51h-.94V344h.94v-1.65h.9V344zM252.56 347.74a2.22 2.22 0 0 1-2.36 1.88c-1.76 0-2.59-1.21-2.65-2.9a2.65 2.65 0 0 1 2.42-2.86h.17c2 0 2.55 1.82 2.5 3.16h-4.13a1.62 1.62 0 0 0 1.41 1.8h.31a1.33 1.33 0 0 0 1.43-1.08h.9zm-.87-1.54a1.58 1.58 0 0 0-3.17 0h3.17zM258.24 349.49h-.91v-.75a1.85 1.85 0 0 1-1.76.88c-1.7 0-2.54-1.34-2.54-2.9s.83-2.87 2.52-2.87a2.11 2.11 0 0 1 1.78.86v-2.84h.91v7.62zm-2.56-.67c1.22 0 1.68-1 1.68-2.08s-.49-2.09-1.74-2.09-1.65 1.06-1.65 2.13a1.79 1.79 0 0 0 1.71 2zM210.88 352.89h2.61c2.35 0 3.66 1.17 3.66 3.63s-1.12 4-3.66 4h-2.61v-7.63zm1 6.76h1.69c.69 0 2.56-.19 2.56-3 0-1.81-.67-2.91-2.54-2.91h-1.71v5.91zM222.86 360.48a1.22 1.22 0 0 1-.65.15.73.73 0 0 1-.77-.85 2.45 2.45 0 0 1-1.94.85 1.56 1.56 0 0 1-1.82-1.55c0-1.25.93-1.52 1.87-1.7s1.86-.13 1.86-.81a1 1 0 0 0-1.23-.92 1.12 1.12 0 0 0-1.38 1h-.91c.05-1.37 1.11-1.85 2.34-1.85 1 0 2.07.22 2.07 1.52v2.93c0 .43 0 .62.29.62a.77.77 0 0 0 .28 0v.66zm-1.47-2.83a4.64 4.64 0 0 1-1.64.37 1.06 1.06 0 0 0-1.11 1 .85.85 0 0 0 1.07.81 1.48 1.48 0 0 0 1.69-1.25v-.93zM224.69 355h1.1v.8h-1.1v3.46c0 .42.12.49.68.49h.42v.8h-.69c-.94 0-1.31-.19-1.31-1.21v-3.51h-.94V355h.94v-1.65h.91V355zM231.44 360.48a1.22 1.22 0 0 1-.65.15.73.73 0 0 1-.77-.85 2.45 2.45 0 0 1-1.94.85 1.56 1.56 0 0 1-1.82-1.55c0-1.25.93-1.52 1.87-1.7s1.86-.13 1.86-.81a1 1 0 0 0-1.23-.92 1.12 1.12 0 0 0-1.38 1h-.94c.05-1.37 1.11-1.85 2.34-1.85 1 0 2.07.22 2.07 1.52v2.93c0 .43 0 .62.29.62a.77.77 0 0 0 .28 0zm-1.44-2.83a4.64 4.64 0 0 1-1.64.37 1.06 1.06 0 0 0-1.11 1 .85.85 0 0 0 1.07.81 1.48 1.48 0 0 0 1.69-1.25v-.93zM239.23 355.12a1.66 1.66 0 0 0-1.74-1.57h-.15c-.85 0-1.71.31-1.71 1.3s1.22 1.08 2.44 1.36 2.43.7 2.43 2.2-1.59 2.27-3 2.27c-1.71 0-3.15-.83-3.15-2.69h1c0 1.28 1.07 1.83 2.22 1.83.92 0 1.93-.29 1.93-1.39s-1.22-1.23-2.43-1.49-2.44-.62-2.44-2c0-1.55 1.38-2.23 2.76-2.23 1.56 0 2.74.74 2.81 2.41h-1zM242.58 355h1.1v.8h-1.1v3.46c0 .42.12.49.68.49h.42v.8H243c-.94 0-1.31-.19-1.31-1.21v-3.51h-.94V355h.94v-1.65h.91V355zM246.79 354.86a2.89 2.89 0 1 1-2.67 3.09v-.2a2.62 2.62 0 0 1 2.33-2.88h.35zm0 5a2.12 2.12 0 1 0-1.72-2.08 1.79 1.79 0 0 0 1.72 2zM250.23 355h.85v1.16a2 2 0 0 1 2-1.29v1c-1.46 0-2 .83-2 2.23v2.45h-.91zM258.06 358.75a2.22 2.22 0 0 1-2.36 1.88c-1.76 0-2.59-1.22-2.65-2.9a2.66 2.66 0 0 1 2.44-2.86h.15c2 0 2.55 1.82 2.5 3.16H254a1.62 1.62 0 0 0 1.41 1.8h.31a1.33 1.33 0 0 0 1.43-1.08h.9zm-.87-1.54a1.58 1.58 0 0 0-3.17 0h3.17zM307.83 344.17a2 2 0 0 0-2.13-1.62c-1.81 0-2.58 1.49-2.58 3.08s.77 3.19 2.59 3.19a2.16 2.16 0 0 0 2.2-2.12v-.08h1a3.1 3.1 0 0 1-3.14 3.06h-.16c-2.37 0-3.52-1.75-3.52-4s1.26-4 3.6-4a2.91 2.91 0 0 1 3.14 2.47zM312.13 343.85a2.89 2.89 0 1 1-2.67 3.09v-.2a2.62 2.62 0 0 1 2.33-2.88h.35zm0 5a2.12 2.12 0 1 0-1.72-2.08 1.79 1.79 0 0 0 1.72 2zM315.61 344h.83v.88a1.92 1.92 0 0 1 1.79-1 1.71 1.71 0 0 1 1.9 2v3.63h-.91v-3.73a1 1 0 0 0-1.12-1.11 1.55 1.55 0 0 0-1.63 1.73v3.12h-.91zM321.82 347.75a1.22 1.22 0 0 0 1.48 1.07c.57 0 1.33-.13 1.33-.82s-.9-.82-1.8-1-1.8-.5-1.8-1.56a1.84 1.84 0 0 1 2.06-1.57c1.22 0 2.19.38 2.26 1.73h-.91a1.1 1.1 0 0 0-1.28-.93c-.6 0-1.17.15-1.17.71s1 .76 1.8 1 1.8.5 1.8 1.57c0 1.31-1.23 1.74-2.35 1.74s-2.28-.5-2.33-1.87zM330.9 349.49h-.85v-.87a1.92 1.92 0 0 1-1.79 1 1.71 1.71 0 0 1-1.9-2V344h.91v3.73a1 1 0 0 0 1.12 1.11 1.55 1.55 0 0 0 1.61-1.74V344h.91zM332 344h.85v.81a2 2 0 0 1 1.78-.94 1.46 1.46 0 0 1 1.51.94 2 2 0 0 1 1.73-.94 1.54 1.54 0 0 1 1.83 1.6v4h-.91v-3.62a1 1 0 0 0-1.07-1.23 1.34 1.34 0 0 0-1.44 1.41v3.44h-.83v-3.62a1 1 0 0 0-1-1.23A1.49 1.49 0 0 0 333 346v3.44h-.91zM345.52 347.74a2.22 2.22 0 0 1-2.36 1.88c-1.76 0-2.59-1.21-2.65-2.9a2.65 2.65 0 0 1 2.42-2.86h.17c2 0 2.55 1.82 2.5 3.16h-4.16a1.62 1.62 0 0 0 1.41 1.8h.31a1.33 1.33 0 0 0 1.43-1.08h.93zm-.87-1.54a1.59 1.59 0 0 0-3.17 0h3.17zM346.24 344h.85v1.16a2 2 0 0 1 2-1.29v1c-1.46 0-2 .83-2 2.23v2.45h-.91zM296.14 352.89h1.39l2.4 6.4 2.41-6.4h1.39v7.62h-1v-6.34l-2.38 6.34h-.86l-2.38-6.34v6.34h-1zM309.88 360.48a1.22 1.22 0 0 1-.65.15.73.73 0 0 1-.77-.85 2.45 2.45 0 0 1-1.94.85 1.56 1.56 0 0 1-1.82-1.55c0-1.25.93-1.52 1.87-1.7s1.86-.13 1.86-.81a1 1 0 0 0-1.23-.92 1.12 1.12 0 0 0-1.38 1h-.91c0-1.37 1.11-1.85 2.34-1.85 1 0 2.07.22 2.07 1.52v2.93c0 .43 0 .62.29.62a.77.77 0 0 0 .28 0v.66zm-1.44-2.83a4.64 4.64 0 0 1-1.64.37 1.06 1.06 0 0 0-1.11 1 .85.85 0 0 0 1.07.81 1.48 1.48 0 0 0 1.69-1.25v-.93zM310.44 355h.85v.88a1.92 1.92 0 0 1 1.79-1 1.71 1.71 0 0 1 1.9 2v3.63h-.91v-3.73a1 1 0 0 0-1.12-1.11 1.55 1.55 0 0 0-1.63 1.73v3.11h-.88V355zM321 360.48a1.22 1.22 0 0 1-.65.15.73.73 0 0 1-.77-.85 2.45 2.45 0 0 1-1.94.85 1.56 1.56 0 0 1-1.82-1.55c0-1.25.93-1.52 1.87-1.7s1.86-.13 1.86-.81a1 1 0 0 0-1.23-.92 1.12 1.12 0 0 0-1.38 1H316c0-1.37 1.11-1.85 2.34-1.85 1 0 2.07.22 2.07 1.52v2.93c0 .43 0 .62.29.62a.77.77 0 0 0 .28 0v.66zm-1.47-2.83a4.64 4.64 0 0 1-1.64.37 1.06 1.06 0 0 0-1.11 1 .85.85 0 0 0 1.07.81 1.48 1.48 0 0 0 1.69-1.25v-.93zM326.32 360c0 1.79-.82 2.71-2.56 2.71-1 0-2.23-.42-2.28-1.62h.91c0 .66.83.9 1.43.9 1.18 0 1.65-.85 1.65-2.09v-.36a1.84 1.84 0 0 1-1.72 1 2.5 2.5 0 0 1-2.46-2.79c0-1.3.64-2.91 2.55-2.91a1.8 1.8 0 0 1 1.64.92V355h.85v5zm-.9-2.4c0-1-.43-2-1.57-2a1.72 1.72 0 0 0-1.63 2c0 1 .36 2.1 1.56 2.1s1.66-1.06 1.66-2.1zM332.12 358.75a2.22 2.22 0 0 1-2.36 1.88c-1.76 0-2.59-1.22-2.65-2.9a2.66 2.66 0 0 1 2.44-2.86h.15c2 0 2.55 1.82 2.5 3.16h-4.13a1.62 1.62 0 0 0 1.41 1.8h.31a1.33 1.33 0 0 0 1.43-1.08h.9zm-.87-1.54a1.59 1.59 0 0 0-3.17 0h3.17zM332.88 355h.85v.81a2 2 0 0 1 1.78-.94 1.46 1.46 0 0 1 1.51.94 2 2 0 0 1 1.73-.94 1.54 1.54 0 0 1 1.83 1.6v4h-.91v-3.62a1 1 0 0 0-1.07-1.23 1.34 1.34 0 0 0-1.44 1.41v3.43h-.91v-3.62a1 1 0 0 0-1-1.23 1.49 1.49 0 0 0-1.47 1.41v3.43h-.91V355zM346.44 358.75a2.22 2.22 0 0 1-2.36 1.88c-1.76 0-2.59-1.22-2.65-2.9a2.66 2.66 0 0 1 2.44-2.86h.13c2 0 2.55 1.82 2.5 3.16h-4.13a1.62 1.62 0 0 0 1.41 1.8h.31a1.33 1.33 0 0 0 1.43-1.08h.9zm-.87-1.54a1.59 1.59 0 0 0-3.17 0h3.17zM347.16 355h.84v.88a1.92 1.92 0 0 1 1.79-1 1.71 1.71 0 0 1 1.9 2v3.63h-.91v-3.73a1 1 0 0 0-1.12-1.11 1.55 1.55 0 0 0-1.63 1.73v3.11h-.91zM354.08 355h1.1v.8h-1.1v3.46c0 .42.12.49.68.49h.42v.8h-.74c-.94 0-1.31-.19-1.31-1.21v-3.51h-.94V355h.94v-1.65h.87zM400.62 347.25H404a2.25 2.25 0 0 1 0 4.5h-2.33v3.12h-1v-7.62zm1 3.65h2c1.14 0 1.66-.49 1.66-1.4s-.52-1.4-1.66-1.4h-2v2.8zM407.17 347.25h.91v7.62h-.91v-7.62zM413.78 354.87h-.85V354a1.92 1.92 0 0 1-1.79 1 1.71 1.71 0 0 1-1.9-2v-3.63h.91v3.73a1 1 0 0 0 1.09 1.15 1.55 1.55 0 0 0 1.63-1.73v-3.12h.91v5.47zM419.63 354.4c0 1.79-.82 2.71-2.56 2.71-1 0-2.23-.42-2.28-1.62h.91c0 .66.83.9 1.43.9 1.18 0 1.65-.85 1.65-2.09v-.36a1.84 1.84 0 0 1-1.72 1 2.5 2.5 0 0 1-2.46-2.79c0-1.3.64-2.91 2.55-2.91a1.8 1.8 0 0 1 1.64.92v-.79h.85v5zm-.9-2.4c0-1-.43-2-1.57-2a1.75 1.75 0 0 0-1.63 2c0 1 .36 2.1 1.56 2.1s1.64-1.1 1.64-2.1zM421.69 348.37h-.91v-1.12h.91v1.12zm-.91 1h.91v5.52h-.91v-5.52zM422.83 349.36h.85v.89a1.92 1.92 0 0 1 1.79-1 1.71 1.71 0 0 1 1.9 2v3.63h-.93v-3.73a1 1 0 0 0-1.12-1.11 1.55 1.55 0 0 0-1.63 1.73v3.12h-.91zM429 353.13a1.22 1.22 0 0 0 1.48 1.07c.57 0 1.33-.13 1.33-.82s-.9-.82-1.8-1-1.8-.5-1.8-1.56a1.84 1.84 0 0 1 2.06-1.57c1.22 0 2.19.38 2.26 1.73h-.91a1.1 1.1 0 0 0-1.28-.93c-.6 0-1.17.15-1.17.71s1 .76 1.8 1 1.8.5 1.8 1.57c0 1.31-1.23 1.74-2.35 1.74s-2.28-.5-2.33-1.87z"/><rect class="gs12-10" x="193.24" y="302.13" width="264.87" height="25.49" rx="3.14" ry="3.14"/><path class="gs12-11" d="M255.61 313a2.63 2.63 0 0 0-2.8-2.13c-2.38 0-3.39 2-3.39 4 0 2.28 1 4.19 3.4 4.19a2.83 2.83 0 0 0 2.89-2.77v-.11H257a4.07 4.07 0 0 1-4.13 4h-.2c-3.11 0-4.62-2.3-4.62-5.21s1.65-5.27 4.73-5.27a3.83 3.83 0 0 1 4.12 3.25zM264.53 317.7a2.92 2.92 0 0 1-3.1 2.46c-2.31 0-3.4-1.6-3.47-3.81a3.49 3.49 0 0 1 3.2-3.76h.2c2.56 0 3.35 2.4 3.28 4.15h-5.42a2.13 2.13 0 0 0 2.26 2.38 1.74 1.74 0 0 0 1.88-1.41h1.17zm-1.15-2a2.08 2.08 0 1 0-4.16 0h4.16zM265.73 312.76h1.12v1.15a2.52 2.52 0 0 1 2.35-1.32c1.91 0 2.49 1.09 2.49 2.65V320h-1.15v-4.9a1.36 1.36 0 0 0-1.25-1.46h-.22a2 2 0 0 0-2.14 2.27V320h-1.19v-7.24zM275 312.76h1.41v1H275v4.5c0 .55.15.64.9.64h.54v1h-.91c-1.23 0-1.72-.25-1.72-1.58v-4.61h-1.23v-1h1.23v-2.17H275zM277.61 312.76h1.12v1.49a2.63 2.63 0 0 1 2.66-1.7v1.26c-1.92 0-2.62 1.09-2.62 2.93V320h-1.19zM288.58 320a1.6 1.6 0 0 1-.85.2 1 1 0 0 1-1-1.12 3.21 3.21 0 0 1-2.55 1.12c-1.32 0-2.4-.59-2.4-2 0-1.64 1.22-2 2.45-2.23s2.44-.17 2.44-1.06a1.38 1.38 0 0 0-1.61-1.21c-1 0-1.75.31-1.81 1.37h-1.19c.07-1.79 1.46-2.42 3.07-2.42 1.3 0 2.72.29 2.72 2v3.73c0 .56 0 .81.38.81a1 1 0 0 0 .36-.07v.88zm-1.93-3.72a6.12 6.12 0 0 1-2.16.49c-.78.14-1.46.42-1.46 1.3s.67 1.06 1.4 1.06c1.57 0 2.21-1 2.21-1.64v-1.21zM289.62 310h1.19v10h-1.19v-10zM293.77 311.46h-1.19V310h1.19v1.46zm-1.19 1.3h1.19V320h-1.19v-7.24zM294.89 319.09l4.37-5.28h-4.09v-1h5.63v.81l-4.43 5.38H301v1h-6.11v-.91zM308.24 317.7a2.92 2.92 0 0 1-3.1 2.46c-2.31 0-3.4-1.6-3.47-3.81a3.49 3.49 0 0 1 3.2-3.76h.2c2.56 0 3.35 2.4 3.28 4.15h-5.42a2.13 2.13 0 0 0 2.26 2.38 1.74 1.74 0 0 0 1.88-1.41h1.17zm-1.15-2a2.08 2.08 0 1 0-4.16 0h4.16zM315.91 320h-1.19v-1a2.44 2.44 0 0 1-2.31 1.15c-2.23 0-3.33-1.76-3.33-3.81s1.09-3.77 3.31-3.77a2.77 2.77 0 0 1 2.34 1.13V310h1.19v10zm-3.36-.88c1.6 0 2.21-1.37 2.21-2.73s-.64-2.75-2.28-2.75-2.17 1.39-2.17 2.8.7 2.68 2.24 2.68zM328.58 313a2.63 2.63 0 0 0-2.8-2.13c-2.38 0-3.39 2-3.39 4 0 2.28 1 4.19 3.4 4.19a2.83 2.83 0 0 0 2.89-2.77v-.11H330a4.07 4.07 0 0 1-4.13 4h-.2c-3.11 0-4.62-2.3-4.62-5.21s1.65-5.27 4.73-5.27a3.83 3.83 0 0 1 4.12 3.25zM334.44 312.59c2.3 0 3.52 1.67 3.52 3.8s-1.22 3.78-3.52 3.78-3.52-1.67-3.52-3.78 1.23-3.8 3.52-3.8zm0 6.53c1.25 0 2.25-1 2.25-2.73s-1-2.75-2.25-2.75-2.26 1-2.26 2.75 1.02 2.73 2.26 2.73zM339.22 312.76h1.12v1.15a2.52 2.52 0 0 1 2.35-1.32c1.91 0 2.49 1.09 2.49 2.65V320H344v-4.9a1.36 1.36 0 0 0-1.25-1.46h-.22a2 2 0 0 0-2.14 2.27V320h-1.19zM347.35 313.81h-1.22v-1h1.22v-1.08c0-1.18.7-1.79 2-1.79a2.91 2.91 0 0 1 .77.11v1a2.22 2.22 0 0 0-.67-.1.74.74 0 0 0-.91.81v1h1.4v1h-1.4v6.19h-1.19v-6.14zM352.12 311.46h-1.19V310h1.19v1.46zm-1.19 1.3h1.19V320h-1.19v-7.24zM360.08 319.38c0 2.35-1.08 3.56-3.36 3.56-1.36 0-2.93-.55-3-2.13h1.19c.09.87 1.09 1.19 1.88 1.19 1.55 0 2.17-1.12 2.17-2.75v-.48a2.41 2.41 0 0 1-2.25 1.32c-2.16 0-3.24-1.7-3.24-3.67 0-1.71.84-3.82 3.35-3.82a2.36 2.36 0 0 1 2.18 1.2v-1h1.12zm-1.18-3.13c0-1.28-.56-2.59-2.06-2.59s-2.14 1.25-2.14 2.63.48 2.76 2 2.76 2.2-1.46 2.2-2.8zM367.72 320h-1.12v-1.15a2.52 2.52 0 0 1-2.35 1.32c-1.91 0-2.49-1.09-2.49-2.65v-4.76H363v4.9a1.36 1.36 0 0 0 1.25 1.46h.22a2 2 0 0 0 2.14-2.27v-4.09h1.19zM369.33 312.76h1.11v1.49a2.63 2.63 0 0 1 2.66-1.7v1.26c-1.92 0-2.62 1.09-2.62 2.93V320h-1.19zM380.31 320a1.6 1.6 0 0 1-.85.2 1 1 0 0 1-1-1.12 3.21 3.21 0 0 1-2.55 1.12c-1.32 0-2.4-.59-2.4-2 0-1.64 1.22-2 2.45-2.23s2.44-.17 2.44-1.06a1.38 1.38 0 0 0-1.61-1.21c-1 0-1.75.31-1.81 1.37h-1.19c.07-1.79 1.46-2.42 3.07-2.42 1.3 0 2.72.29 2.72 2v3.73c0 .56 0 .81.38.81a1 1 0 0 0 .36-.07v.88zm-1.93-3.72a6.12 6.12 0 0 1-2.16.49c-.78.14-1.46.42-1.46 1.3s.67 1.06 1.4 1.06c1.57 0 2.21-1 2.21-1.64v-1.21zM382.92 312.76h1.44v1h-1.44v4.5c0 .55.15.64.9.64h.55v1h-.93c-1.23 0-1.72-.25-1.72-1.58v-4.61h-1.23v-1h1.23v-2.17h1.19v2.17zM386.8 311.46h-1.19V310h1.19v1.46zm-1.19 1.3h1.19V320h-1.19v-7.24zM391.63 312.59c2.3 0 3.52 1.67 3.52 3.8s-1.22 3.78-3.52 3.78-3.52-1.67-3.52-3.78 1.22-3.8 3.52-3.8zm0 6.53c1.25 0 2.25-1 2.25-2.73s-1-2.75-2.25-2.75-2.26 1-2.26 2.75 1.02 2.73 2.26 2.73zM396.44 312.76h1.12v1.15a2.52 2.52 0 0 1 2.35-1.32c1.91 0 2.49 1.09 2.49 2.65V320h-1.19v-4.9a1.36 1.36 0 0 0-1.25-1.46h-.22a2 2 0 0 0-2.14 2.27V320h-1.16v-7.24z"/><path class="gs12-9" d="M206 274.83h6.91v1.12h-5.58v3.18h5.2v1.12h-5.2v3.46H213v1.12h-7v-10zM216 281l-2.54-3.44H215l1.74 2.54 1.81-2.54H220l-2.51 3.34 2.8 3.91h-1.5l-2-3-2 3h-1.49zM221 277.59h1.19v1a2.44 2.44 0 0 1 2.31-1.15c2.23 0 3.33 1.76 3.33 3.81s-1.11 3.75-3.33 3.75a2.77 2.77 0 0 1-2.34-1.13v3.74H221v-10zm3.36.88c-1.6 0-2.21 1.37-2.21 2.73s.64 2.75 2.28 2.75 2.17-1.39 2.17-2.8-.7-2.67-2.24-2.67zM228.85 277.59H230v1.53a2.63 2.63 0 0 1 2.66-1.7v1.26c-1.92 0-2.62 1.09-2.62 2.93v3.22h-1.19zM239.13 282.54A2.92 2.92 0 0 1 236 285c-2.31 0-3.4-1.6-3.47-3.81a3.49 3.49 0 0 1 3.2-3.76h.27c2.56 0 3.35 2.4 3.28 4.15h-5.42a2.13 2.13 0 0 0 2.25 2.38 1.74 1.74 0 0 0 1.88-1.41h1.18zm-1.15-2a2.08 2.08 0 1 0-4.16 0H238zM240.85 282.55c0 1.06 1 1.4 1.95 1.4.74 0 1.75-.17 1.75-1.08s-1.18-1.08-2.37-1.34-2.37-.66-2.37-2 1.44-2.06 2.7-2.06c1.6 0 2.87.5 3 2.27h-1.19a1.46 1.46 0 0 0-1.68-1.22c-.78 0-1.54.2-1.54.92s1.26 1 2.37 1.26 2.37.66 2.37 2.06c0 1.72-1.61 2.28-3.08 2.28s-3-.66-3.07-2.45zM247.5 282.55c0 1.06 1 1.4 1.95 1.4.74 0 1.75-.17 1.75-1.08s-1.18-1.08-2.37-1.34-2.37-.66-2.37-2 1.44-2.06 2.7-2.06c1.6 0 2.87.5 3 2.27h-1.22a1.46 1.46 0 0 0-1.68-1.22c-.78 0-1.54.2-1.54.92s1.26 1 2.37 1.26 2.37.66 2.37 2.06c0 1.72-1.61 2.28-3.08 2.28s-3-.66-3.07-2.45zM257.16 274.83h4.71c1.88 0 3 1 3 2.62a2.4 2.4 0 0 1-1.74 2.54c1.16.22 1.4 1.08 1.5 2.06a5.13 5.13 0 0 0 .59 2.76h-1.48c-.38-.41-.17-1.48-.36-2.47s-.38-1.81-1.67-1.81h-3.27v4.27h-1.33zm4.1 4.61c1.25 0 2.31-.32 2.31-1.78a1.58 1.58 0 0 0-1.78-1.71h-3.35v3.49h2.82zM272.19 284.84h-1.12v-1.15a2.52 2.52 0 0 1-2.35 1.32c-1.9 0-2.49-1.09-2.49-2.65v-4.76h1.19v4.9a1.36 1.36 0 0 0 1.25 1.46h.22a2 2 0 0 0 2.14-2.27v-4.09h1.19zM273.63 277.59h1.12v1.15a2.52 2.52 0 0 1 2.35-1.32c1.9 0 2.49 1.09 2.49 2.65v4.76h-1.15v-4.9a1.36 1.36 0 0 0-1.25-1.46H277a2 2 0 0 0-2.14 2.27v4.09h-1.19v-7.24zM282.72 277.59h1.44v1h-1.44v4.5c0 .55.15.64.9.64h.55v1h-.91c-1.23 0-1.72-.25-1.72-1.58v-4.61h-1.23v-1h1.23v-2.17h1.19v2.17zM286.39 276.25h-1.19v-1.46h1.19v1.46zm-1.19 1.3h1.19v7.24h-1.19v-7.24zM287.89 277.59H289v1.06a2.67 2.67 0 0 1 2.34-1.23 1.92 1.92 0 0 1 2 1.23 2.68 2.68 0 0 1 2.27-1.23c1.44 0 2.41.6 2.41 2.1v5.31h-1.19v-4.75c0-.9-.24-1.61-1.4-1.61a1.75 1.75 0 0 0-1.89 1.85v4.51h-1.19v-4.75c0-.94-.29-1.61-1.36-1.61a2 2 0 0 0-1.93 1.85v4.51h-1.19v-7.24zM305.65 282.54a2.92 2.92 0 0 1-3.1 2.46c-2.31 0-3.4-1.6-3.47-3.81a3.49 3.49 0 0 1 3.2-3.76h.2c2.56 0 3.35 2.4 3.28 4.15h-5.42a2.13 2.13 0 0 0 2.25 2.38 1.74 1.74 0 0 0 1.88-1.41h1.18zm-1.15-2a2.08 2.08 0 1 0-4.16 0h4.16z"/><rect class="gs12-12" x="178.91" y="21.62" width="302.03" height="381.66" rx="17.63" ry="17.63"/><path class="gs12-1" d="M204.06 267.61h11.87v2.09h-11.87z"/><path class="gs12-9" d="M212.74 73.6h.83v.83h-.83v-.83zM214.63 73.6h.81v.83h-.83zM216.51 73.6h.83v.83h-.83v-.83z"/><path class="gs12-13" d="M211.31 60.76h7.16M211.96 261.77h6.91"/><rect class="gs12-14" x="240.96" y="63.08" width="66.55" height="181.38" rx="2.9" ry="2.9"/><path class="gs12-9" d="M260.91 82.6h3.44a2.32 2.32 0 0 1 0 4.64H262v3.21h-1zm1 3.76h2c1.18 0 1.72-.51 1.72-1.44s-.54-1.44-1.72-1.44h-2v2.88zM270.06 84.64a3 3 0 1 1-2.75 3.23v-.23a2.7 2.7 0 0 1 2.38-3zm0 5.13a1.86 1.86 0 0 0 1.77-2.15 1.8 1.8 0 1 0-1.77 2.15zM273.7 82.6h.94v7.86h-.94V82.6zM276.8 83.75h-.94V82.6h.94v1.15zm-.94 1h.94v5.69h-.94v-5.69zM281.84 86.6a1.32 1.32 0 0 0-1.4-1.14c-1.35 0-1.77 1.07-1.77 2.22s.47 2.08 1.66 2.08a1.47 1.47 0 0 0 1.56-1.38h1a2.36 2.36 0 0 1-2.5 2.21 2.59 2.59 0 0 1-2.66-2.9c0-1.71.88-3 2.68-3a2.18 2.18 0 0 1 2.44 1.89v.11zM285.84 91.25c-.43 1.11-.81 1.52-1.65 1.52a1.88 1.88 0 0 1-.65-.1v-.86a1.93 1.93 0 0 0 .55.13.81.81 0 0 0 .77-.52l.39-1-2.25-5.65h1.06l1.66 4.65 1.6-4.65h1z"/><rect class="gs12-1" x="250.5" y="112.03" width="47.44" height="106.13" rx="2.9" ry="2.9"/><path class="gs12-15" d="M258.64 157.84h4.09c2.65 0 3.16 1.72 3.16 2.87s-.51 2.86-3.16 2.85h-2.47v3.56h-1.62v-9.28zm1.63 4.39h2.38a1.48 1.48 0 0 0 1.63-1.53 1.38 1.38 0 0 0-1.6-1.53h-2.41v3.06zM266.78 160.4h1.39v1.3a2.17 2.17 0 0 1 2-1.48 3.56 3.56 0 0 1 .56 0v1.43a5.41 5.41 0 0 0-.64-.06c-1 0-1.82.82-1.82 2.3v3.2h-1.48v-6.69zM270.44 163.75a3.4 3.4 0 1 1 3.39 3.55 3.25 3.25 0 0 1-3.39-3.55zm5.3 0c0-1.16-.58-2.37-1.91-2.37s-1.91 1.21-1.91 2.37.58 2.38 1.91 2.38a2.12 2.12 0 0 0 2-2.38h-.05z"/><path class="gs12-15" d="M280 163.58l-2.33-3.19h1.78l1.4 2.07 1.47-2.07H284l-2.29 3.11 2.57 3.61h-1.78l-1.7-2.48-1.65 2.48h-1.74zM284.1 160.4h1.63l1.75 5 1.7-5h1.55l-2.61 7.09c-.48 1.21-.83 2.3-2.38 2.3a6.74 6.74 0 0 1-1-.08v-1.25a4.32 4.32 0 0 0 .7.09.94.94 0 0 0 1-.94l.17-.52z"/><path class="gs12-13" d="M398.55 261.76h-.27c.25.68.5.08.76.08 3 0 5.4-45.71 5.4-103.26S402 54.36 399 54.36a.67.67 0 0 0-.49.43"/><path class="gs12-13" d="M398.55 54.79v-1.47H211.08v.13c-2.51 8.91-4.42 54-4.42 105.13s1.9 97.49 4.42 102.49a1.65 1.65 0 0 0 1.74.69h185.46c-2.62-7.14-4.64-50.61-4.64-103.18 0-54.33 2.16-99 4.91-103.79z"/><path class="gs12-10" d="M216.72 53.32h8.41c-.86-.07-4.89-.07-8.41 0zM225.27 53.44l175.12-.12H225.12h.17zM211.12 53.32v.13l5.59-.13h-5.59zM258.44 261.76H257a10.67 10.67 0 0 0 1.44 0z"/><path class="gs12-10" d="M400.44 261.41L397.26 242H275.93c-13.69 0-31.53-1.73-43.63-19.36-11.3-16.47-15.92-48-15.92-71.85 0-33.21-2-87.31 34.76-97.4h-40c-2.54 8.91-4.46 46.14-4.46 97.22s1.92 105.39 4.46 110.4a1.67 1.67 0 0 0 1.76.69H257a18.57 18.57 0 0 1-2.63-.35h146.07z"/><path class="gs12-1" d="M220.17 247.13h4.07a2.75 2.75 0 0 1 .33 5.49h-3.13v3.8h-1.23zm1.23 4.45h2.42c1.39 0 2-.6 2-1.7s-.64-1.7-2-1.7h-2.38zM229.26 248.48h-1.11v-1.35h1.11v1.35zm-1.11 1.21h1.11v6.72h-1.11v-6.72zM230.69 249.69h1.11v.91a2.27 2.27 0 0 1 2.15-1.07c2.07 0 3.09 1.64 3.09 3.54s-1 3.5-3.07 3.5a2.58 2.58 0 0 1-2.17-1.05V259h-1.11v-9.3zm3.12.82c-1.48 0-2.05 1.27-2.05 2.54s.6 2.55 2.12 2.55 2-1.29 2-2.6-.64-2.49-2.07-2.49zM243.76 254.25a2.71 2.71 0 0 1-2.87 2.29c-2.14 0-3.16-1.48-3.22-3.54a3.24 3.24 0 0 1 3-3.49h.19c2.38 0 3.11 2.22 3 3.85h-5a2 2 0 0 0 1.78 2.2h.31a1.62 1.62 0 0 0 1.74-1.31h1.1zm-1.07-1.87a1.93 1.93 0 0 0-3.86 0h3.86zM244.75 247.13h1.11v9.28h-1.11v-9.28zM248.44 248.48h-1.11v-1.35h1.11v1.35zm-1.11 1.21h1.11v6.72h-1.11v-6.72zM249.81 249.69h1v1.07a2.34 2.34 0 0 1 2.18-1.22c1.77 0 2.31 1 2.31 2.46v4.42h-1.11v-4.55a1.27 1.27 0 0 0-1.18-1.35h-.19a1.89 1.89 0 0 0-2 2.11v3.8h-1.1zM262.44 254.25a2.71 2.71 0 0 1-2.87 2.29c-2.15 0-3.16-1.48-3.22-3.54a3.24 3.24 0 0 1 3-3.49h.19c2.38 0 3.11 2.22 3 3.85h-5a2 2 0 0 0 1.78 2.2h.31a1.62 1.62 0 0 0 1.74-1.31h1.1zm-1.07-1.87a1.93 1.93 0 0 0-1.94-1.9 1.91 1.91 0 0 0-1.92 1.9h3.86zM269.44 247.2c2.89 0 3.07 2.65 3.07 4.69s-.18 4.68-3.07 4.68-3.07-2.65-3.07-4.68.18-4.69 3.07-4.69zm0 8.4c1.88 0 1.9-2.34 1.9-3.72s0-3.71-1.9-3.71-1.9 2.34-1.9 3.71 0 3.71 1.9 3.71zM275.56 251.15h.44a1.56 1.56 0 0 0 1.74-1.36v-.15a1.46 1.46 0 0 0-1.43-1.49h-.21a1.75 1.75 0 0 0-1.74 2h-1.1c.06-1.75 1-3 2.85-3 1.6 0 2.81.77 2.81 2.47a2.11 2.11 0 0 1-1.27 1.83 2.1 2.1 0 0 1 1.66 2.24c0 1.85-1.44 2.81-3.17 2.81a2.79 2.79 0 0 1-3.07-3h1.11a1.87 1.87 0 0 0 1.73 2h.27a1.83 1.83 0 0 0 2-1.65v-.13a1.76 1.76 0 0 0-1.73-1.79h-.27a5.47 5.47 0 0 0-.66 0v-.81z"/><path class="gs12-16" d="M480.63 146.81l-.1 239.75c-1.59 9.6-8.77 17-17.54 17H195c-8.77 0-15.94-7.41-15.94-16.47V38.78c0-9.06 7.17-16.47 15.94-16.47l269.7-.06c8.77 0 15.94 7.41 15.94 16.47v108.09z"/><path class="gs12-10" d="M248.44 378.44h10.79v2.27h-8.17v3.93h7.56v2.14h-7.56v4.39h8.38v2.27h-11v-15zM264.06 387.72l-3.76-5.14h2.9l2.27 3.34 2.37-3.34h2.77l-3.7 5 4.16 5.84h-2.87l-2.75-4-2.67 4H260zM272.27 382.57h2.27V384a3.63 3.63 0 0 1 3.4-1.79c3.42 0 5.08 2.6 5.08 5.77 0 2.92-1.47 5.67-4.68 5.67a4.22 4.22 0 0 1-3.63-1.7v5.42h-2.39zm5.35 1.6c-2 0-3 1.53-3 3.84s1.11 3.82 3 3.82c2.18 0 3-1.93 3-3.82s-1-3.84-3-3.84zM284.83 382.57h2.25v2.1a3.51 3.51 0 0 1 3.17-2.39 5.75 5.75 0 0 1 .9.06v2.31a8.55 8.55 0 0 0-1-.11c-1.64 0-2.94 1.32-2.94 3.72v5.17h-2.39v-10.86zM293.51 388.62c0 1.7.92 3.21 2.92 3.21a2.52 2.52 0 0 0 2.65-1.81h2.27a4.75 4.75 0 0 1-4.91 3.7c-3.4 0-5.31-2.37-5.31-5.71 0-3.09 2-5.73 5.25-5.73 3.42 0 5.52 3.09 5.12 6.34h-8zm5.58-1.58a2.79 2.79 0 1 0-5.58 0h5.58zM304.91 389.94c.13 1.39 1.18 1.89 2.46 1.89.9 0 2.48-.19 2.41-1.43s-1.8-1.41-3.55-1.81-3.48-1-3.48-3.21c0-2.37 2.56-3.11 4.54-3.11 2.22 0 4.24.92 4.54 3.34h-2.5c-.21-1.13-1.16-1.45-2.21-1.45-.69 0-2 .17-2 1.11 0 1.18 1.76 1.34 3.53 1.74s3.51 1 3.51 3.17c0 2.58-2.6 3.53-4.85 3.53-2.73 0-4.77-1.22-4.81-3.78h2.41zM315.6 389.94c.13 1.39 1.18 1.89 2.46 1.89.9 0 2.48-.19 2.41-1.43s-1.8-1.41-3.55-1.81-3.48-1-3.48-3.21c0-2.37 2.56-3.11 4.54-3.11 2.22 0 4.24.92 4.54 3.34H320c-.21-1.13-1.16-1.45-2.21-1.45-.69 0-2 .17-2 1.11 0 1.18 1.76 1.34 3.53 1.74s3.51 1 3.51 3.17c0 2.58-2.6 3.53-4.85 3.53-2.73 0-4.77-1.22-4.81-3.78h2.41zM343.53 393.43h-1.68l-.4-1.76a5.4 5.4 0 0 1-4.51 2.12c-4.49 0-7.18-3.57-7.18-7.85s2.69-7.85 7.18-7.85c3.28 0 6 1.74 6.42 5.12h-2.56a3.58 3.58 0 0 0-3.86-3c-3.21 0-4.56 2.83-4.56 5.71s1.34 5.71 4.56 5.71a3.83 3.83 0 0 0 4.2-4.12h-4v-2h6.38v7.92zM354.93 391c0 .59.13.82.57.82a3.31 3.31 0 0 0 .59 0v1.66a6 6 0 0 1-1.51.27 1.59 1.59 0 0 1-1.85-1.32 5.57 5.57 0 0 1-3.76 1.32c-2 0-3.72-1-3.72-3.17 0-2.71 2.16-3.15 4.18-3.38 1.72-.31 3.26-.13 3.26-1.53 0-1.24-1.28-1.47-2.25-1.47-1.34 0-2.29.54-2.39 1.72h-2.39c.17-2.79 2.54-3.61 4.94-3.61 2.12 0 4.35.86 4.35 3.15zm-2.39-3a8.51 8.51 0 0 1-2.94.65c-1 .17-2 .55-2 1.81 0 1.07 1.36 1.39 2.2 1.39 1 0 2.69-.55 2.69-2.06zM356.22 382.57H358v-3.25h2.42v3.25h2.16v1.78h-2.16v5.79c0 1 .08 1.49 1.15 1.49a4.09 4.09 0 0 0 1-.08v1.85c-.53 0-1 .13-1.55.13-2.5 0-3-1-3-2.77v-6.4h-1.8zM366 388.62c0 1.7.92 3.21 2.92 3.21a2.52 2.52 0 0 0 2.64-1.81h2.27a4.75 4.75 0 0 1-4.91 3.7c-3.4 0-5.31-2.37-5.31-5.71 0-3.09 2-5.73 5.25-5.73 3.42 0 5.52 3.09 5.12 6.34h-8zm5.59-1.58a2.79 2.79 0 1 0-5.59 0h5.59zM374.57 382.57h2.54l2.12 8.1 2-8.1h2.41l2 8.1 2.21-8.1h2.44l-3.4 10.85h-2.46l-2-8.06-2 8.06h-2.52zM400.77 391c0 .59.13.82.57.82a3.31 3.31 0 0 0 .59 0v1.66a6 6 0 0 1-1.51.27 1.59 1.59 0 0 1-1.85-1.32 5.57 5.57 0 0 1-3.76 1.32c-2 0-3.72-1-3.72-3.17 0-2.71 2.16-3.15 4.18-3.38 1.72-.31 3.26-.13 3.26-1.53 0-1.24-1.28-1.47-2.25-1.47-1.34 0-2.29.54-2.39 1.72h-2.39c.17-2.79 2.54-3.61 4.94-3.61 2.12 0 4.35.86 4.35 3.15zm-2.39-3a8.51 8.51 0 0 1-2.94.65c-1 .17-2 .55-2 1.81 0 1.07 1.36 1.39 2.2 1.39 1 0 2.69-.55 2.69-2.06zM402 382.57h2.63l2.83 8.1 2.75-8.1h2.5L408.44 394c-.78 2-1.34 3.72-3.84 3.72a10.81 10.81 0 0 1-1.66-.12v-2a7 7 0 0 0 1.13.15c1.11 0 1.39-.59 1.68-1.51l.27-.84z"/><path class="gs12-17" d="M0 0h679.23v432.67H0z"/></svg>