<svg id="gs-1-3" xmlns="http://www.w3.org/2000/svg" viewBox="0 0 679.23 432.67"><defs><style>.gs13-1,.gs13-15{fill:#74cfe8;}.gs13-1{opacity:0.15;}.gs13-1,.gs13-13,.gs13-3{isolation:isolate;}.gs13-2,.gs13-3{fill:#35a9c5;}.gs13-3{opacity:0.2;}.gs13-14,.gs13-17,.gs13-4,.gs13-6,.gs13-8{fill:none;stroke-linecap:round;}.gs13-4{stroke:#35a9c5;}.gs13-14,.gs13-4,.gs13-6,.gs13-8{stroke-linejoin:round;}.gs13-14,.gs13-4{stroke-width:2px;}.gs13-13,.gs13-18,.gs13-5{fill:#fff;}.gs13-6,.gs13-8{stroke:#136d7c;}.gs13-6{stroke-width:1.5px;}.gs13-7{opacity:0.4;}.gs13-8{stroke-width:2.5px;}.gs13-9{opacity:0.63;}.gs13-10{fill:#136d7c;}.gs13-11{fill:#ffc60a;}.gs13-12{fill:#37403f;}.gs13-13{opacity:0.8;}.gs13-14,.gs13-17{stroke:#ffc60a;}.gs13-16{fill:#888789;}.gs13-17{stroke-miterlimit:10;stroke-width:3px;}.gs13-18{opacity:0;}</style></defs><title>sized</title><rect class="gs13-1" x="431.73" y="68.82" width="187.41" height="250.88" rx="15" ry="15"/><path class="gs13-2" d="M541.64,194.59H544l5,12.86h-2.45l-1.21-3.4h-5.13l-1.21,3.4h-2.32Zm-0.79,7.74h3.92l-1.93-5.53h0Z"/><path class="gs13-2" d="M549.76,194.59h5.67c3.67,0,4.38,2.38,4.38,4s-0.7,4-4.37,3.94H552v4.94h-2.25V194.59Zm2.25,6.08h3.29a2,2,0,0,0,2.25-2.12,1.9,1.9,0,0,0-2.21-2.12H552v4.24Z"/><path class="gs13-2" d="M561.31,194.59h2.27v12.88h-2.25Z"/><path class="gs13-2" d="M516.33,214.59h9.25v1.94h-7v3.37h6.48v1.84h-6.48v3.73h7.13v2h-9.38V214.59Z"/><path class="gs13-2" d="M526.93,218.14h2v1.33h0a3.33,3.33,0,0,1,2.9-1.66,3,3,0,0,1,3.29,3.17v6.49h-2v-5.85c0-1.46-.61-2.09-1.82-2.09a2.27,2.27,0,0,0-2.26,2.28q0,0.08,0,.17v5.49h-2Z"/><path class="gs13-2" d="M545.58,227.47h-1.94v-1.26h0a3.09,3.09,0,0,1-2.88,1.51c-2.93,0-4.36-2.18-4.36-5,0-3.37,2-4.84,4-4.84a3.59,3.59,0,0,1,3.1,1.46h0v-4.75h2.08v12.88ZM541,226.1c1.84,0,2.61-1.67,2.61-3.29,0-2.05-1-3.28-2.57-3.28-1.93,0-2.61,1.71-2.61,3.38s0.79,3.17,2.57,3.17v0Z"/><path class="gs13-2" d="M547.42,218.14h1.94v1.26h0a3.11,3.11,0,0,1,2.88-1.51c2.93,0,4.36,2.23,4.36,5,0,2.5-1.26,4.86-4,4.86a3.62,3.62,0,0,1-3.12-1.46h0v4.65h-2v-12.8Zm4.59,1.37c-1.73,0-2.61,1.31-2.61,3.29s1,3.28,2.61,3.28c1.87,0,2.58-1.66,2.58-3.28s-0.89-3.33-2.58-3.33v0Z"/><path class="gs13-2" d="M557.48,222.78c0-2.84,1.71-4.9,4.7-4.9s4.7,2.05,4.7,4.9-1.71,4.92-4.7,4.92S557.48,225.64,557.48,222.78Zm7.35,0c0-1.6-.81-3.28-2.65-3.28s-2.65,1.67-2.65,3.28,0.81,3.29,2.65,3.29S564.83,224.4,564.83,222.78Z"/><path class="gs13-2" d="M568.19,214.59h2v1.94h-2v-1.94Zm0,3.55h2v9.33h-2v-9.33Z"/><path class="gs13-2" d="M572,218.14h2v1.33h0a3.33,3.33,0,0,1,2.9-1.66,3,3,0,0,1,3.29,3.17v6.49h-2v-5.85c0-1.46-.61-2.09-1.82-2.09a2.27,2.27,0,0,0-2.26,2.28q0,0.08,0,.17v5.49h-2Z"/><path class="gs13-2" d="M581,218.14h1.55v-2.79h2.06v2.79h1.85v1.53h-1.85v5c0,0.85.07,1.28,1,1.28a3.49,3.49,0,0,0,.86-0.07v1.59c-0.45,0-.88.11-1.33,0.11-2.14,0-2.54-.83-2.58-2.38v-5.53H581v-1.53Z"/><path class="gs13-2" d="M524.93,250.89a15,15,0,0,1-2.59-8.3,15.35,15.35,0,0,1,2.59-8.3h1.65a16.65,16.65,0,0,0-2.21,8.3,15.89,15.89,0,0,0,2.21,8.3h-1.65Z"/><path class="gs13-2" d="M527.37,234.59H533c3.67,0,4.38,2.38,4.38,4s-0.7,4-4.37,3.94h-3.47v4.94h-2.25Zm2.25,6.08h3.29a2,2,0,0,0,2.25-2.12,1.9,1.9,0,0,0-2.21-2.12h-3.37Z"/><path class="gs13-2" d="M546.82,247.47h-2v-1.3h0a3.13,3.13,0,0,1-2.65,1.55c-2.43,0-3.48-1.22-3.48-3.66v-5.91h2v5.71c0,1.64.67,2.23,1.78,2.23,1.71,0,2.29-1.1,2.29-2.54v-5.4h2Z"/><path class="gs13-2" d="M548.58,234.59h2v4.75h0a3.39,3.39,0,0,1,2.77-1.46c2.93,0,4.36,2.23,4.36,5,0,2.5-1.26,4.86-4,4.86a3.32,3.32,0,0,1-3.13-1.57h0v1.3h-2V234.59Zm4.59,4.92c-1.73,0-2.61,1.31-2.61,3.29s1,3.28,2.61,3.28c1.87,0,2.58-1.66,2.58-3.28s-0.89-3.33-2.58-3.33v0Z"/><path class="gs13-2" d="M559.13,234.59h2v12.88h-2V234.59Z"/><path class="gs13-2" d="M563,234.59h2v1.94h-2v-1.94Zm0,3.55h2v9.33h-2v-9.33Z"/><path class="gs13-2" d="M573.13,241.25A2,2,0,0,0,571,239.5c-1.06,0-2.56.56-2.56,3.38,0,1.55.68,3.19,2.47,3.19a2.21,2.21,0,0,0,2.21-2.12h2a4,4,0,0,1-4.23,3.75h0c-2.92,0-4.52-2.07-4.52-4.81s1.53-5,4.59-5c2.16,0,4,1.08,4.2,3.37h-2Z"/><path class="gs13-2" d="M576.85,234.28a15.05,15.05,0,0,1,2.59,8.32,15.24,15.24,0,0,1-2.59,8.28h-1.67a16.55,16.55,0,0,0,2.21-8.28,16,16,0,0,0-2.21-8.32h1.67Z"/><rect class="gs13-3" x="558.64" y="136.86" width="33.16" height="19.58" rx="4.53" ry="4.53"/><rect class="gs13-4" x="553.72" y="132.53" width="38.08" height="24.18" rx="1.81" ry="1.81"/><path class="gs13-2" d="M560.13,149.14a0.62,0.62,0,0,1-.35-0.61,3.22,3.22,0,0,0,0-.43v-0.91h0V146.9a0.33,0.33,0,0,1,0-.18v-1.66a17.74,17.74,0,0,1,0-1.8,1.48,1.48,0,0,1,0-.38,3.17,3.17,0,0,1,0-.4v-0.32a0.86,0.86,0,0,1,0-.35,1.49,1.49,0,0,1,.1-0.29,0.84,0.84,0,0,1,1-.3,0.68,0.68,0,0,1,.32.72v1.13a5.39,5.39,0,0,1,0,.72,1.31,1.31,0,0,0,0,.32v0.08a1.78,1.78,0,0,1,0,.42v0.46a1.32,1.32,0,0,0,0,.25v0.11c0.08,0.48.38,1.07,0.67,0.75A0.16,0.16,0,0,1,562,146l0.41-.48,0.16-.16h0a4.52,4.52,0,0,1,.3-0.35l0.11-.11a1,1,0,0,1,1.28.11h0a2.07,2.07,0,0,0,.46.45c0.24,0.22.14,0.16,0.17,0.21a1.92,1.92,0,0,0,.27.33c0.42,0.33.85-.33,0.89-0.8V142.4a1.7,1.7,0,0,1,0-.75,0.87,0.87,0,0,1,1.07-.45,0.66,0.66,0,0,1,.33.53v2.56a2.74,2.74,0,0,1,0,1v0.3a0.73,0.73,0,0,0,0,.18v1.36a0.92,0.92,0,0,1,0,.35v1a1,1,0,0,1-.22.66,0.88,0.88,0,0,1-1.23-.19l-0.06-.1a3.08,3.08,0,0,1-.32-0.48l-0.08-.14a3.57,3.57,0,0,0-.54-0.48,1.94,1.94,0,0,0-1.34-.62,1.7,1.7,0,0,0-1.29.67,4.31,4.31,0,0,1-.46.46,3.52,3.52,0,0,0-.61.64h0a0.9,0.9,0,0,1-1.18.37Z"/><path class="gs13-2" d="M569.78,149.14a0.62,0.62,0,0,1-.35-0.61,3.22,3.22,0,0,0,0-.43v-0.91h0V146.9a0.33,0.33,0,0,1,0-.18v-1.66a17.74,17.74,0,0,1,0-1.8,1.48,1.48,0,0,1,0-.38,3.17,3.17,0,0,1,0-.4v-0.32a0.86,0.86,0,0,1,0-.35,1.49,1.49,0,0,1,.1-0.29,0.84,0.84,0,0,1,1-.3,0.68,0.68,0,0,1,.32.72v1.13a5.39,5.39,0,0,1,0,.72,1.31,1.31,0,0,0,0,.32v0.08a1.78,1.78,0,0,1,0,.42v0.46a1.32,1.32,0,0,0,0,.25v0.11c0.08,0.48.38,1.07,0.67,0.75a0.17,0.17,0,0,1,.1-0.13l0.42-.48,0.16-.16h0a4.52,4.52,0,0,1,.3-0.35l0.11-.11a1,1,0,0,1,1.28.11h0a2.07,2.07,0,0,0,.46.45c0.24,0.22.14,0.16,0.17,0.21a1.92,1.92,0,0,0,.27.33c0.42,0.33.85-.33,0.89-0.8V142.4a1.7,1.7,0,0,1,0-.75,0.87,0.87,0,0,1,1.07-.45,0.66,0.66,0,0,1,.33.53v2.56a2.74,2.74,0,0,1,0,1v0.3a0.73,0.73,0,0,0,0,.18v1.36a0.92,0.92,0,0,1,0,.35v1a1,1,0,0,1-.22.66,0.88,0.88,0,0,1-1.23-.19l-0.06-.1a3.08,3.08,0,0,1-.32-0.48l-0.08-.14a3.57,3.57,0,0,0-.54-0.48,1.94,1.94,0,0,0-1.34-.62,1.7,1.7,0,0,0-1.29.67,4.31,4.31,0,0,1-.46.46,3.52,3.52,0,0,0-.61.64h0a0.9,0.9,0,0,1-1.18.37Z"/><path class="gs13-2" d="M579.44,149.14a0.62,0.62,0,0,1-.35-0.61,3.22,3.22,0,0,0,0-.43v-0.91h0V146.9a0.33,0.33,0,0,1,0-.18v-1.66a17.74,17.74,0,0,1,0-1.8,1.48,1.48,0,0,1,0-.38,3.17,3.17,0,0,1,0-.4v-0.32a0.86,0.86,0,0,1,0-.35,1.49,1.49,0,0,1,.1-0.29,0.84,0.84,0,0,1,1-.3,0.68,0.68,0,0,1,.32.72v1.13a5.39,5.39,0,0,1,0,.72,1.31,1.31,0,0,0,0,.32v0.08a1.78,1.78,0,0,1,0,.42v0.46a1.32,1.32,0,0,0,0,.25v0.11c0.08,0.48.38,1.07,0.67,0.75a0.16,0.16,0,0,1,.1-0.13l0.41-.48,0.16-.16h0a4.52,4.52,0,0,1,.3-0.35l0.11-.11a1,1,0,0,1,1.28.11h0a2.07,2.07,0,0,0,.46.45c0.24,0.22.14,0.16,0.17,0.21a1.92,1.92,0,0,0,.27.33c0.42,0.33.85-.33,0.89-0.8V142.4a1.7,1.7,0,0,1,0-.75,0.87,0.87,0,0,1,1.07-.45,0.66,0.66,0,0,1,.33.53v2.56a2.74,2.74,0,0,1,0,1v0.3a0.73,0.73,0,0,0,0,.18v1.36a0.92,0.92,0,0,1,0,.35v1a1,1,0,0,1-.22.66,0.88,0.88,0,0,1-1.23-.19l-0.06-.1a3.08,3.08,0,0,1-.32-0.48l-0.08-.14a3.57,3.57,0,0,0-.54-0.48,1.94,1.94,0,0,0-1.34-.62,1.7,1.7,0,0,0-1.29.67,4.31,4.31,0,0,1-.46.46,3.52,3.52,0,0,0-.61.64h0a0.9,0.9,0,0,1-1.18.37Z"/><rect class="gs13-3" x="513.2" y="130.57" width="33.16" height="19.58" rx="4.53" ry="4.53"/><rect class="gs13-4" x="508.28" y="126.23" width="38.08" height="24.18" rx="1.81" ry="1.81"/><path class="gs13-2" d="M514.69,142.84a0.62,0.62,0,0,1-.35-0.61,3.22,3.22,0,0,0,0-.43v-0.91h0V140.6a0.33,0.33,0,0,1,0-.18v-1.66a17.74,17.74,0,0,1,0-1.8,1.48,1.48,0,0,1,0-.38,3.17,3.17,0,0,1,0-.4v-0.32a0.86,0.86,0,0,1,0-.35,1.5,1.5,0,0,1,.1-0.29,0.84,0.84,0,0,1,1-.3,0.68,0.68,0,0,1,.32.72v1.13a5.38,5.38,0,0,1,0,.72,1.31,1.31,0,0,0,0,.32v0.08a1.78,1.78,0,0,1,0,.42v0.46a1.32,1.32,0,0,0,0,.25v0.11c0.08,0.48.38,1.07,0.67,0.75a0.17,0.17,0,0,1,.1-0.13l0.42-.48,0.16-.16h0a4.53,4.53,0,0,1,.3-0.35l0.11-.11a1,1,0,0,1,1.28.11h0a2.07,2.07,0,0,0,.46.45c0.24,0.22.14,0.16,0.17,0.21a1.92,1.92,0,0,0,.27.33c0.42,0.33.85-.33,0.89-0.8V136.1a1.7,1.7,0,0,1,0-.75,0.87,0.87,0,0,1,1.07-.45,0.66,0.66,0,0,1,.33.53V138a2.74,2.74,0,0,1,0,1v0.3a0.73,0.73,0,0,0,0,.18v1.36a0.93,0.93,0,0,1,0,.35v1a1,1,0,0,1-.22.66,0.88,0.88,0,0,1-1.23-.19l-0.06-.1a3.08,3.08,0,0,1-.32-0.48l-0.08-.14a3.57,3.57,0,0,0-.54-0.48,1.94,1.94,0,0,0-1.34-.62,1.7,1.7,0,0,0-1.29.67,4.31,4.31,0,0,1-.46.46,3.52,3.52,0,0,0-.61.64h0a0.9,0.9,0,0,1-1.18.37Z"/><path class="gs13-2" d="M524.34,142.84a0.62,0.62,0,0,1-.35-0.61,3.22,3.22,0,0,0,0-.43v-0.91h0V140.6a0.33,0.33,0,0,1,0-.18v-1.66a17.74,17.74,0,0,1,0-1.8,1.48,1.48,0,0,1,0-.38,3.17,3.17,0,0,1,0-.4v-0.32a0.86,0.86,0,0,1,0-.35,1.5,1.5,0,0,1,.1-0.29,0.84,0.84,0,0,1,1-.3,0.68,0.68,0,0,1,.32.72v1.13a5.39,5.39,0,0,1,0,.72,1.31,1.31,0,0,0,0,.32v0.08a1.78,1.78,0,0,1,0,.42v0.46a1.32,1.32,0,0,0,0,.25v0.11c0.08,0.48.38,1.07,0.67,0.75a0.16,0.16,0,0,1,.1-0.13l0.41-.48,0.16-.16h0a4.52,4.52,0,0,1,.3-0.35l0.11-.11a1,1,0,0,1,1.28.11h0a2.07,2.07,0,0,0,.46.45c0.24,0.22.14,0.16,0.17,0.21a1.92,1.92,0,0,0,.27.33c0.42,0.33.85-.33,0.89-0.8V136.1a1.7,1.7,0,0,1,0-.75,0.87,0.87,0,0,1,1.07-.45,0.66,0.66,0,0,1,.33.53V138a2.74,2.74,0,0,1,0,1v0.3a0.73,0.73,0,0,0,0,.18v1.36a0.93,0.93,0,0,1,0,.35v1a1,1,0,0,1-.22.66,0.88,0.88,0,0,1-1.23-.19l-0.06-.1a3.08,3.08,0,0,1-.32-0.48l-0.08-.14a3.57,3.57,0,0,0-.54-0.48,1.94,1.94,0,0,0-1.34-.62,1.7,1.7,0,0,0-1.29.67,4.31,4.31,0,0,1-.46.46,3.52,3.52,0,0,0-.61.64h0a0.9,0.9,0,0,1-1.18.37Z"/><path class="gs13-2" d="M534,142.84a0.62,0.62,0,0,1-.35-0.61,3.22,3.22,0,0,0,0-.43v-0.91h0V140.6a0.33,0.33,0,0,1,0-.18v-1.66a17.74,17.74,0,0,1,0-1.8,1.48,1.48,0,0,1,0-.38,3.17,3.17,0,0,1,0-.4v-0.32a0.86,0.86,0,0,1,0-.35,1.5,1.5,0,0,1,.1-0.29,0.84,0.84,0,0,1,1-.3,0.68,0.68,0,0,1,.32.72v1.13a5.39,5.39,0,0,1,0,.72,1.31,1.31,0,0,0,0,.32v0.08a1.78,1.78,0,0,1,0,.42v0.46a1.32,1.32,0,0,0,0,.25v0.11c0.08,0.48.38,1.07,0.67,0.75a0.17,0.17,0,0,1,.1-0.13l0.42-.48,0.16-.16h0a4.52,4.52,0,0,1,.3-0.35l0.11-.11a1,1,0,0,1,1.28.11h0a2.07,2.07,0,0,0,.46.45c0.24,0.22.14,0.16,0.17,0.21a1.92,1.92,0,0,0,.27.33c0.42,0.33.85-.33,0.89-0.8V136.1a1.7,1.7,0,0,1,0-.75,0.87,0.87,0,0,1,1.07-.45,0.66,0.66,0,0,1,.33.53V138a2.74,2.74,0,0,1,0,1v0.3a0.73,0.73,0,0,0,0,.18v1.36a0.93,0.93,0,0,1,0,.35v1a1,1,0,0,1-.22.66,0.88,0.88,0,0,1-1.23-.19l-0.06-.1a3.08,3.08,0,0,1-.32-0.48l-0.08-.14a3.57,3.57,0,0,0-.54-0.48,1.94,1.94,0,0,0-1.34-.62,1.7,1.7,0,0,0-1.29.67,4.31,4.31,0,0,1-.46.46,3.52,3.52,0,0,0-.61.64h0a0.9,0.9,0,0,1-1.18.37Z"/><rect class="gs13-5" x="524.13" y="144.21" width="51.08" height="35.76" rx="8.05" ry="8.05"/><rect class="gs13-1" x="524.13" y="144.21" width="51.08" height="35.76" rx="8.05" ry="8.05"/><rect class="gs13-3" x="534.96" y="154.25" width="33.16" height="19.58" rx="4.53" ry="4.53"/><rect class="gs13-4" x="530.04" y="149.91" width="38.08" height="24.18" rx="1.81" ry="1.81"/><path class="gs13-2" d="M536.45,166.52a0.62,0.62,0,0,1-.35-0.61,3.22,3.22,0,0,0,0-.43v-0.91h0v-0.29a0.33,0.33,0,0,1,0-.18v-1.66a17.74,17.74,0,0,1,0-1.8,1.48,1.48,0,0,1,0-.38,3.17,3.17,0,0,1,0-.4v-0.32a0.86,0.86,0,0,1,0-.35,1.5,1.5,0,0,1,.1-0.29,0.84,0.84,0,0,1,1-.3,0.68,0.68,0,0,1,.32.72v1.13a5.39,5.39,0,0,1,0,.72,1.31,1.31,0,0,0,0,.32v0.08a1.78,1.78,0,0,1,0,.42v0.46a1.32,1.32,0,0,0,0,.25v0.11c0.08,0.48.38,1.07,0.67,0.75a0.17,0.17,0,0,1,.1-0.13l0.42-.48,0.16-.16h0a4.52,4.52,0,0,1,.3-0.35l0.11-.11a1,1,0,0,1,1.3.14h0a2.07,2.07,0,0,0,.46.45c0.24,0.22.14,0.16,0.17,0.21a1.92,1.92,0,0,0,.27.33c0.42,0.33.85-.33,0.89-0.8v-2.85a1.7,1.7,0,0,1,0-.75,0.87,0.87,0,0,1,1.07-.45,0.66,0.66,0,0,1,.33.53v2.56a2.74,2.74,0,0,1,0,1V163a0.73,0.73,0,0,0,0,.18v1.28a0.93,0.93,0,0,1,0,.35v1a1,1,0,0,1-.22.66,0.88,0.88,0,0,1-1.23-.19l-0.06-.1a3.08,3.08,0,0,1-.32-0.48l-0.08-.14a3.57,3.57,0,0,0-.54-0.48,1.94,1.94,0,0,0-1.34-.62,1.7,1.7,0,0,0-1.29.67,4.31,4.31,0,0,1-.46.46,3.52,3.52,0,0,0-.61.64h0a0.9,0.9,0,0,1-1.18.37v-0.05Z"/><path class="gs13-2" d="M546.1,166.52a0.62,0.62,0,0,1-.35-0.61,3.22,3.22,0,0,0,0-.43v-0.91h0v-0.29a0.33,0.33,0,0,1,0-.18v-1.66a17.74,17.74,0,0,1,0-1.8,1.48,1.48,0,0,1,0-.38,3.17,3.17,0,0,1,0-.4v-0.32a0.86,0.86,0,0,1,0-.35,1.5,1.5,0,0,1,.1-0.29,0.84,0.84,0,0,1,1-.3,0.68,0.68,0,0,1,.32.72v1.13a5.39,5.39,0,0,1,0,.72,1.31,1.31,0,0,0,0,.32v0.08a1.78,1.78,0,0,1,0,.42v0.46a1.32,1.32,0,0,0,0,.25v0.11c0.08,0.48.38,1.07,0.67,0.75a0.16,0.16,0,0,1,.1-0.13l0.41-.48,0.16-.16h0a4.52,4.52,0,0,1,.3-0.35l0.11-.11a1,1,0,0,1,1.28.11h0a2.07,2.07,0,0,0,.46.45c0.24,0.22.14,0.16,0.17,0.21a1.92,1.92,0,0,0,.27.33c0.42,0.33.85-.33,0.89-0.8v-2.85a1.7,1.7,0,0,1,0-.75,0.87,0.87,0,0,1,1.07-.45,0.66,0.66,0,0,1,.33.53v2.56a2.74,2.74,0,0,1,0,1V163a0.73,0.73,0,0,0,0,.18v1.31a0.93,0.93,0,0,1,0,.35v1a1,1,0,0,1-.22.66,0.88,0.88,0,0,1-1.23-.19l-0.06-.1a3.08,3.08,0,0,1-.32-0.48l-0.08-.14a3.57,3.57,0,0,0-.54-0.48,1.94,1.94,0,0,0-1.34-.62,1.7,1.7,0,0,0-1.29.67,4.31,4.31,0,0,1-.46.46,3.52,3.52,0,0,0-.61.64h0a0.9,0.9,0,0,1-1.18.37Z"/><path class="gs13-2" d="M555.75,166.52a0.62,0.62,0,0,1-.35-0.61,3.22,3.22,0,0,0,0-.43v-0.91h0v-0.29a0.33,0.33,0,0,1,0-.18v-1.66a17.74,17.74,0,0,1,0-1.8,1.48,1.48,0,0,1,0-.38,3.17,3.17,0,0,1,0-.4v-0.32a0.86,0.86,0,0,1,0-.35,1.5,1.5,0,0,1,.1-0.29,0.84,0.84,0,0,1,1-.3,0.68,0.68,0,0,1,.32.72v1.13a5.39,5.39,0,0,1,0,.72,1.31,1.31,0,0,0,0,.32v0.08a1.78,1.78,0,0,1,0,.42v0.46a1.32,1.32,0,0,0,0,.25v0.11c0.08,0.48.38,1.07,0.67,0.75a0.17,0.17,0,0,1,.1-0.13l0.42-.48,0.16-.16h0a4.52,4.52,0,0,1,.3-0.35l0.11-.11a1,1,0,0,1,1.28.11h0a2.07,2.07,0,0,0,.46.45c0.24,0.22.14,0.16,0.17,0.21a1.92,1.92,0,0,0,.27.33c0.42,0.33.85-.33,0.89-0.8v-2.85a1.7,1.7,0,0,1,0-.75,0.87,0.87,0,0,1,1.07-.45,0.66,0.66,0,0,1,.33.53v2.56a2.74,2.74,0,0,1,0,1V163a0.73,0.73,0,0,0,0,.18v1.31a0.93,0.93,0,0,1,0,.35v1a1,1,0,0,1-.22.66,0.88,0.88,0,0,1-1.23-.19l-0.06-.1a3.08,3.08,0,0,1-.32-0.48l-0.08-.14a3.57,3.57,0,0,0-.54-0.48,1.94,1.94,0,0,0-1.34-.62,1.7,1.7,0,0,0-1.29.67,4.31,4.31,0,0,1-.46.46,3.52,3.52,0,0,0-.61.64h0a0.9,0.9,0,0,1-1.18.37Z"/><rect class="gs13-6" x="193.91" y="37.88" width="271.21" height="256.21" rx="3.14" ry="3.14"/><g class="gs13-7"><path class="gs13-8" d="M434.2,110.88H421.12c-1.1,0-2-1.59-2-3.53h0c0-1.94.9-3.53,2-3.53h26.67c1.1,0,2-1.59,2-3.53h0c0-1.94-.9-3.53-2-3.53H422.22"/><path class="gs13-8" d="M434.2,125H421.12c-1.1,0-2-1.59-2-3.53h0c0-1.94.9-3.53,2-3.53h26.67c1.1,0,2-1.59,2-3.53h0c0-1.94-.9-3.53-2-3.53H434.07"/><path class="gs13-8" d="M434.2,139.17H421.12c-1.1,0-2-1.59-2-3.53h0c0-1.94.9-3.53,2-3.53h26.67c1.1,0,2-1.59,2-3.53h0c0-1.94-.9-3.53-2-3.53H434.07"/><path class="gs13-8" d="M434.2,153.31H421.12c-1.1,0-2-1.59-2-3.53h0c0-1.94.9-3.53,2-3.53h26.67c1.1,0,2-1.59,2-3.53h0c0-1.94-.9-3.53-2-3.53H434.07"/><path class="gs13-8" d="M434.2,167.47H421.12c-1.1,0-2-1.59-2-3.53h0c0-1.94.9-3.53,2-3.53h26.67c1.1,0,2-1.59,2-3.53h0c0-1.94-.9-3.53-2-3.53H434.07"/><path class="gs13-8" d="M434.2,181.6H421.12c-1.1,0-2-1.59-2-3.53h0c0-1.94.9-3.53,2-3.53h26.67c1.1,0,2-1.59,2-3.53h0c0-1.94-.9-3.53-2-3.53H434.07"/><path class="gs13-8" d="M434.2,195.59H421.12c-1.1,0-2-1.59-2-3.53h0c0-1.94.9-3.53,2-3.53h26.67c1.1,0,2-1.59,2-3.53h0c0-1.94-.9-3.53-2-3.53H434.07"/><path class="gs13-8" d="M434.2,209.74H421.12c-1.1,0-2-1.59-2-3.53h0c0-1.94.9-3.53,2-3.53h26.67c1.1,0,2-1.59,2-3.53h0c0-1.94-.9-3.53-2-3.53H434.07"/><path class="gs13-8" d="M434.2,223.88H421.12c-1.1,0-2-1.59-2-3.53h0c0-1.94.9-3.53,2-3.53h26.67c1.1,0,2-1.59,2-3.53h0c0-1.94-.9-3.53-2-3.53H434.07"/><path class="gs13-8" d="M434.2,238H421.12c-1.1,0-2-1.59-2-3.53h0c0-1.94.9-3.53,2-3.53h26.67c1.1,0,2-1.59,2-3.53h0c0-1.94-.9-3.53-2-3.53H434.07"/><path class="gs13-8" d="M434.2,82.57H421.12c-1.1,0-2-1.59-2-3.53h0c0-1.94.9-3.53,2-3.53h26.67c1.1,0,2-1.59,2-3.53h0c0-1.94-.9-3.53-2-3.53H434.07"/><path class="gs13-8" d="M434.28,68.47H421.21c-1.1,0-2-1.59-2-3.53h0c0-1.94.9-3.53,2-3.53h26.67c1.1,0,2-1.59,2-3.53h0c0-1.94-.9-3.53-2-3.53H434.15"/><path class="gs13-8" d="M434.2,96.71H421.12c-1.1,0-2-1.59-2-3.53h0c0-1.94.9-3.53,2-3.53h26.67c1.1,0,2-1.59,2-3.53h0c0-1.94-.9-3.53-2-3.53H434.07"/><path class="gs13-8" d="M434.2,252.09H421.12c-1.1,0-2-1.59-2-3.53h0c0-1.94.9-3.53,2-3.53h26.67c1.1,0,2-1.59,2-3.53h0c0-1.94-.9-3.53-2-3.53H434.07"/><path class="gs13-8" d="M421.12,259.18h26.67c1.1,0,2-1.59,2-3.53h0c0-1.94-.9-3.53-2-3.53H434.07"/></g><rect class="gs13-5" x="415.2" y="254.25" width="38.91" height="14.5"/><g class="gs13-9"><path class="gs13-10" d="M418.67,260.66h3.75c1.72,0,2.6.79,2.6,2.12a1.91,1.91,0,0,1-1.3,2h0a1.44,1.44,0,0,1,1.17,1.66,3.57,3.57,0,0,0,.43,2.07h-1.47a2.19,2.19,0,0,1-.21-1.16c0-1.44-.3-2.08-1.56-2.08h-2v3.2h-1.37Zm1.38,3.58h2.26a1.16,1.16,0,0,0,1.34-1.25,1.13,1.13,0,0,0-1.36-1.2h-2.23v2.45Z"/><path class="gs13-10" d="M426,265.67a2.87,2.87,0,1,1,2.87,3A2.75,2.75,0,0,1,426,265.67Zm4.49,0a1.66,1.66,0,1,0-1.62,2A1.75,1.75,0,0,0,430.46,265.67Z"/><path class="gs13-10" d="M437.76,268.47h-1.23v-0.79h0a1.91,1.91,0,0,1-1.62,1c-1.49,0-2.12-.75-2.12-2.23v-3.61H434v3.49c0,1,.41,1.36,1.09,1.36a1.34,1.34,0,0,0,1.4-1.55v-3.3h1.25Z"/><path class="gs13-10" d="M438.5,262.83h1v-1.71h1.25v1.71h1.13v0.93H440.7v3c0,0.52,0,.78.61,0.78a2.15,2.15,0,0,0,.53,0v1c-0.28,0-.54.07-0.81,0.07-1.31,0-1.55-.51-1.57-1.45v-3.39h-1v-0.94Z"/><path class="gs13-10" d="M443.72,266a1.51,1.51,0,0,0,1.33,1.67h0.2a1.32,1.32,0,0,0,1.39-1h1.19a2.49,2.49,0,0,1-2.58,1.94,2.7,2.7,0,0,1-2.78-3,2.75,2.75,0,1,1,5.44.32h-4.19Zm2.93-.83a1.46,1.46,0,0,0-2.93,0h2.93Z"/><path class="gs13-10" d="M448.85,262.83H450v1.1h0a1.84,1.84,0,0,1,1.66-1.25,2.87,2.87,0,0,1,.47,0v1.21a4.36,4.36,0,0,0-.54,0c-0.86,0-1.54.69-1.54,2v2.68h-1.25Z"/></g><rect class="gs13-11" x="193.99" y="335.62" width="81.49" height="32.75" rx="3.14" ry="3.14"/><rect class="gs13-11" x="285.02" y="335.62" width="81.49" height="32.75" rx="3.14" ry="3.14"/><rect class="gs13-11" x="376.04" y="335.62" width="81.49" height="32.75" rx="3.14" ry="3.14"/><path class="gs13-12" d="M210.47,342.1h2.61c2.35,0,3.66,1.17,3.66,3.63s-1.12,4-3.66,4h-2.61V342.1Zm1,6.76h1.69c0.69,0,2.56-.19,2.56-3,0-1.81-.67-2.91-2.54-2.91h-1.7v5.91Z"/><path class="gs13-12" d="M218.51,343.2h-0.93v-1.11h0.91Zm-0.91,1h0.91v5.51h-0.93Z"/><path class="gs13-12" d="M220.21,348a1.22,1.22,0,0,0,1.48,1.07c0.57,0,1.33-.13,1.33-0.82s-0.9-.82-1.8-1-1.8-.5-1.8-1.56a1.84,1.84,0,0,1,2.06-1.57c1.22,0,2.19.38,2.26,1.73h-0.91a1.11,1.11,0,0,0-1.28-.93c-0.6,0-1.17.15-1.17,0.7s1,0.76,1.8,1,1.8,0.5,1.8,1.57c0,1.31-1.23,1.74-2.35,1.74s-2.28-.5-2.33-1.87Z"/><path class="gs13-12" d="M226,344.2h1.1V345H226v3.42c0,0.42.12,0.49,0.68,0.49h0.42v0.8h-0.69c-0.94,0-1.31-.19-1.31-1.21V345h-0.94v-0.8h0.94v-1.65H226v1.66Z"/><path class="gs13-12" d="M227.78,344.2h0.8v1.16h0a2,2,0,0,1,2-1.29v1c-1.46,0-2,.83-2,2.23v2.45h-0.91Z"/><path class="gs13-12" d="M232.05,343.2h-0.91v-1.11h0.91v1.11Zm-0.91,1h0.91v5.51h-0.91V344.2Z"/><path class="gs13-12" d="M233.22,342.1h0.91v2.85h0a1.86,1.86,0,0,1,1.76-.87c1.7,0,2.54,1.34,2.54,2.9s-0.83,2.87-2.52,2.87a2.11,2.11,0,0,1-1.78-.86h0v0.74h-0.91V342.1Zm2.56,2.77c-1.22,0-1.69,1-1.69,2.08s0.49,2.09,1.74,2.09,1.65-1.06,1.65-2.13A1.77,1.77,0,0,0,235.78,344.87Z"/><path class="gs13-12" d="M243.81,349.71H243v-0.87h0a1.92,1.92,0,0,1-1.79,1,1.71,1.71,0,0,1-1.9-2v-3.63h0.91v3.73A1,1,0,0,0,241.3,349a1.55,1.55,0,0,0,1.63-1.73V344.2h0.91Z"/><path class="gs13-12" d="M246.17,344.2h1.1V345h-1.1v3.42c0,0.42.12,0.49,0.68,0.49h0.42v0.8h-0.69c-0.94,0-1.31-.19-1.31-1.21V345h-0.94v-0.8h0.94v-1.65h0.91v1.66Z"/><path class="gs13-12" d="M252.7,348a2.22,2.22,0,0,1-2.36,1.88c-1.76,0-2.59-1.22-2.65-2.9a2.65,2.65,0,0,1,2.42-2.86h0.17c2,0,2.55,1.82,2.5,3.16h-4.13a1.62,1.62,0,0,0,1.41,1.8h0.31A1.33,1.33,0,0,0,251.8,348h0.9Zm-0.87-1.54a1.58,1.58,0,0,0-3.17,0h3.17Z"/><path class="gs13-12" d="M258.38,349.71h-0.91V349h0a1.86,1.86,0,0,1-1.76.88c-1.7,0-2.54-1.34-2.54-2.9s0.83-2.87,2.52-2.87a2.11,2.11,0,0,1,1.78.86h0v-2.84h0.91v7.62Zm-2.56-.67c1.22,0,1.68-1,1.68-2.08s-0.49-2.09-1.74-2.09-1.65,1.06-1.65,2.13a1.79,1.79,0,0,0,1.71,2h0Z"/><path class="gs13-12" d="M211,353.11h2.61c2.35,0,3.66,1.17,3.66,3.63s-1.12,4-3.66,4H211v-7.63Zm1,6.76h1.69c0.69,0,2.56-.19,2.56-3,0-1.81-.67-2.91-2.54-2.91H212v5.91Z"/><path class="gs13-12" d="M223,360.7a1.22,1.22,0,0,1-.65.15,0.73,0.73,0,0,1-.77-0.85,2.45,2.45,0,0,1-1.94.85,1.56,1.56,0,0,1-1.82-1.55c0-1.1.93-1.51,1.87-1.7s1.86-.13,1.86-0.81a1,1,0,0,0-1.23-.92,1.13,1.13,0,0,0-1.38,1H218c0.05-1.37,1.11-1.85,2.34-1.85,1,0,2.07.22,2.07,1.51v2.94c0,0.43,0,.62.29,0.62a0.77,0.77,0,0,0,.28,0v0.66Zm-1.47-2.83a4.66,4.66,0,0,1-1.64.37,1.06,1.06,0,0,0-1.11,1,0.85,0.85,0,0,0,1.07.81,1.48,1.48,0,0,0,1.69-1.25v-0.93Z"/><path class="gs13-12" d="M224.83,355.21h1.1V356h-1.1v3.46c0,0.42.12,0.49,0.68,0.49h0.42v0.8h-0.69c-0.94,0-1.31-.19-1.31-1.21V356H223v-0.8h0.94v-1.65h0.91v1.62Z"/><path class="gs13-12" d="M231.58,360.7a1.22,1.22,0,0,1-.65.15,0.73,0.73,0,0,1-.77-0.85,2.45,2.45,0,0,1-1.94.85,1.56,1.56,0,0,1-1.82-1.55c0-1.1.93-1.51,1.87-1.7s1.86-.13,1.86-0.81a1,1,0,0,0-1.23-.92,1.13,1.13,0,0,0-1.38,1h-0.94c0.05-1.37,1.11-1.85,2.34-1.85,1,0,2.07.22,2.07,1.51v2.94c0,0.43,0,.62.29,0.62a0.77,0.77,0,0,0,.28,0Zm-1.47-2.83a4.66,4.66,0,0,1-1.64.37,1.06,1.06,0,0,0-1.11,1,0.85,0.85,0,0,0,1.07.81,1.48,1.48,0,0,0,1.69-1.25v-0.93Z"/><path class="gs13-12" d="M239.37,355.34a1.66,1.66,0,0,0-1.74-1.57h-0.15c-0.85,0-1.71.31-1.71,1.3s1.22,1.08,2.44,1.35,2.43,0.7,2.43,2.2-1.59,2.27-3,2.27c-1.71,0-3.15-.83-3.15-2.69h1c0,1.28,1.07,1.83,2.22,1.83,0.92,0,1.93-.29,1.93-1.39s-1.22-1.23-2.43-1.49-2.44-.62-2.44-2,1.38-2.23,2.76-2.23c1.56,0,2.74.74,2.81,2.41h-1Z"/><path class="gs13-12" d="M242.72,355.21h1.1V356h-1.1v3.46c0,0.42.12,0.49,0.68,0.49h0.42v0.8h-0.69c-0.94,0-1.31-.19-1.31-1.21V356h-0.94v-0.8h0.94v-1.65h0.91v1.62Z"/><path class="gs13-12" d="M246.93,355.08a2.89,2.89,0,1,1-2.67,3.09q0-.1,0-0.2a2.62,2.62,0,0,1,2.33-2.88h0.35Zm0,5a2.12,2.12,0,1,0-1.72-2.08,1.79,1.79,0,0,0,1.72,2v0Z"/><path class="gs13-12" d="M250.37,355.21h0.85v1.16h0a2,2,0,0,1,2-1.29v1c-1.46,0-2,.83-2,2.23v2.45h-0.91Z"/><path class="gs13-12" d="M258.2,359a2.22,2.22,0,0,1-2.36,1.88c-1.76,0-2.59-1.22-2.65-2.9a2.65,2.65,0,0,1,2.42-2.86h0.17c2,0,2.55,1.82,2.5,3.16h-4.13a1.62,1.62,0,0,0,1.41,1.8h0.31A1.33,1.33,0,0,0,257.3,359h0.9Zm-0.87-1.54a1.58,1.58,0,0,0-3.17,0h3.17Z"/><path class="gs13-12" d="M308,344.39a2,2,0,0,0-2.13-1.62c-1.81,0-2.58,1.49-2.58,3.08S304,349,305.85,349a2.15,2.15,0,0,0,2.2-2.1s0-.07,0-0.1h1a3.1,3.1,0,0,1-3.14,3.06h-0.16c-2.37,0-3.52-1.75-3.52-4s1.26-4,3.6-4a2.91,2.91,0,0,1,3.14,2.47Z"/><path class="gs13-12" d="M312.27,344.07a2.89,2.89,0,1,1-2.67,3.09q0-.1,0-0.2a2.62,2.62,0,0,1,2.33-2.88h0.35Zm0,5a2.12,2.12,0,1,0-1.72-2.08,1.79,1.79,0,0,0,1.72,2v0Z"/><path class="gs13-12" d="M315.75,344.2h0.83v0.88h0a1.92,1.92,0,0,1,1.79-1,1.71,1.71,0,0,1,1.9,2v3.63h-0.91V346a1,1,0,0,0-1.12-1.11,1.55,1.55,0,0,0-1.63,1.73v3.11H315.7Z"/><path class="gs13-12" d="M322,348a1.22,1.22,0,0,0,1.48,1.07c0.57,0,1.33-.13,1.33-0.82s-0.9-.82-1.8-1-1.8-.5-1.8-1.56a1.84,1.84,0,0,1,2.06-1.57c1.22,0,2.19.38,2.26,1.73h-0.91a1.11,1.11,0,0,0-1.28-.93c-0.6,0-1.17.15-1.17,0.7s1,0.76,1.8,1,1.8,0.5,1.8,1.57c0,1.31-1.23,1.74-2.35,1.74s-2.28-.5-2.33-1.87Z"/><path class="gs13-12" d="M331,349.71h-0.85v-0.87h0a1.92,1.92,0,0,1-1.79,1,1.71,1.71,0,0,1-1.9-2v-3.63h0.91v3.73a1,1,0,0,0,1.12,1.11,1.55,1.55,0,0,0,1.63-1.73V344.2h0.91Z"/><path class="gs13-12" d="M332.13,344.2H333V345h0a2,2,0,0,1,1.78-.94,1.46,1.46,0,0,1,1.51.94,2,2,0,0,1,1.73-.94,1.54,1.54,0,0,1,1.83,1.6v4h-0.91V346a1,1,0,0,0-1.07-1.23,1.34,1.34,0,0,0-1.44,1.41v3.43h-0.83V346a1,1,0,0,0-1-1.23,1.49,1.49,0,0,0-1.47,1.41v3.43H332.2Z"/><path class="gs13-12" d="M345.66,348a2.22,2.22,0,0,1-2.36,1.88c-1.76,0-2.59-1.22-2.65-2.9a2.65,2.65,0,0,1,2.42-2.86h0.17c2,0,2.55,1.82,2.5,3.16h-4.16A1.62,1.62,0,0,0,343,349h0.31a1.33,1.33,0,0,0,1.43-1.08h0.93Zm-0.87-1.54a1.59,1.59,0,0,0-3.17,0h3.17Z"/><path class="gs13-12" d="M346.38,344.2h0.85v1.16h0a2,2,0,0,1,2-1.29v1c-1.46,0-2,.83-2,2.23v2.45h-0.91Z"/><path class="gs13-12" d="M296.28,353.11h1.39l2.4,6.4,2.41-6.4h1.39v7.62h-1v-6.34h0l-2.38,6.34h-0.86l-2.38-6.34h0v6.34h-1Z"/><path class="gs13-12" d="M310,360.7a1.22,1.22,0,0,1-.65.15,0.73,0.73,0,0,1-.77-0.85,2.45,2.45,0,0,1-1.94.85,1.56,1.56,0,0,1-1.82-1.55c0-1.1.93-1.51,1.87-1.7s1.86-.13,1.86-0.81a1,1,0,0,0-1.23-.92,1.13,1.13,0,0,0-1.38,1h-0.91c0-1.37,1.11-1.85,2.34-1.85,1,0,2.07.22,2.07,1.51v2.94c0,0.43,0,.62.29,0.62a0.77,0.77,0,0,0,.28,0v0.66Zm-1.44-2.82a4.66,4.66,0,0,1-1.64.37,1.06,1.06,0,0,0-1.11,1,0.85,0.85,0,0,0,1.07.81,1.48,1.48,0,0,0,1.69-1.25v-0.93Z"/><path class="gs13-12" d="M310.58,355.21h0.85v0.88h0a1.92,1.92,0,0,1,1.79-1,1.71,1.71,0,0,1,1.9,2v3.63h-0.91V357a1,1,0,0,0-1.12-1.11,1.55,1.55,0,0,0-1.63,1.73v3.11h-0.88v-5.51Z"/><path class="gs13-12" d="M321.13,360.7a1.22,1.22,0,0,1-.65.15,0.73,0.73,0,0,1-.77-0.85,2.45,2.45,0,0,1-1.94.85A1.56,1.56,0,0,1,316,359.3c0-1.1.93-1.51,1.87-1.7s1.86-.13,1.86-0.81a1,1,0,0,0-1.23-.92,1.13,1.13,0,0,0-1.38,1h-0.91c0-1.37,1.11-1.85,2.34-1.85,1,0,2.07.22,2.07,1.51v2.94c0,0.43,0,.62.29,0.62a0.77,0.77,0,0,0,.28,0v0.66Zm-1.47-2.83a4.66,4.66,0,0,1-1.64.37,1.06,1.06,0,0,0-1.11,1A0.85,0.85,0,0,0,318,360a1.48,1.48,0,0,0,1.69-1.25v-0.93Z"/><path class="gs13-12" d="M326.46,360.25c0,1.79-.82,2.71-2.56,2.71-1,0-2.23-.42-2.28-1.62h0.91c0,0.66.83,0.9,1.43,0.9,1.18,0,1.65-.85,1.65-2.09v-0.36h0a1.84,1.84,0,0,1-1.72,1,2.5,2.5,0,0,1-2.46-2.79c0-1.3.64-2.91,2.55-2.91a1.8,1.8,0,0,1,1.64.92h0v-0.79h0.85v5Zm-0.9-2.4c0-1-.43-2-1.57-2a1.75,1.75,0,0,0-1.63,2c0,1,.36,2.1,1.56,2.1s1.66-1.06,1.66-2.1h0Z"/><path class="gs13-12" d="M332.26,359a2.22,2.22,0,0,1-2.36,1.88c-1.76,0-2.59-1.22-2.65-2.9a2.65,2.65,0,0,1,2.42-2.86h0.17c2,0,2.55,1.82,2.5,3.16h-4.13a1.62,1.62,0,0,0,1.41,1.8h0.31a1.33,1.33,0,0,0,1.43-1.08h0.9Zm-0.87-1.54a1.59,1.59,0,0,0-3.17,0h3.17Z"/><path class="gs13-12" d="M333,355.21h0.85V356h0a2,2,0,0,1,1.78-.94,1.46,1.46,0,0,1,1.51.94,2,2,0,0,1,1.73-.94,1.54,1.54,0,0,1,1.83,1.6v4h-0.91v-3.62a1,1,0,0,0-1.07-1.23,1.34,1.34,0,0,0-1.44,1.41v3.43h-0.91V357a1,1,0,0,0-1-1.23,1.49,1.49,0,0,0-1.47,1.41v3.43H333v-5.45Z"/><path class="gs13-12" d="M346.58,359a2.22,2.22,0,0,1-2.36,1.88c-1.76,0-2.59-1.22-2.65-2.9a2.65,2.65,0,0,1,2.42-2.86h0.17c2,0,2.55,1.82,2.5,3.16h-4.13a1.62,1.62,0,0,0,1.41,1.8h0.31a1.33,1.33,0,0,0,1.43-1.08h0.9Zm-0.87-1.54a1.59,1.59,0,0,0-3.17,0h3.17Z"/><path class="gs13-12" d="M347.3,355.21h0.85v0.88h0a1.92,1.92,0,0,1,1.79-1,1.71,1.71,0,0,1,1.9,2v3.63h-0.91V357a1,1,0,0,0-1.12-1.11,1.55,1.55,0,0,0-1.63,1.73v3.11h-0.91Z"/><path class="gs13-12" d="M354.22,355.21h1.1V356h-1.1v3.46c0,0.42.12,0.49,0.68,0.49h0.42v0.8h-0.74c-0.94,0-1.31-.19-1.31-1.21V356h-0.94v-0.8h0.94v-1.65h0.91Z"/><path class="gs13-12" d="M400.76,347.47h3.34a2.25,2.25,0,0,1,0,4.5h-2.33v3.11h-1v-7.61Zm1,3.65h2c1.14,0,1.66-.49,1.66-1.4s-0.52-1.4-1.66-1.4h-2v2.8Z"/><path class="gs13-12" d="M407.31,347.47h0.91v7.62h-0.91v-7.62Z"/><path class="gs13-12" d="M413.92,355.09h-0.85v-0.87h0a1.92,1.92,0,0,1-1.79,1,1.71,1.71,0,0,1-1.9-2v-3.63h0.91v3.73a1,1,0,0,0,1.09,1.15,1.55,1.55,0,0,0,1.63-1.73v-3.12h0.91v5.47Z"/><path class="gs13-12" d="M419.77,354.62c0,1.79-.82,2.71-2.56,2.71-1,0-2.23-.42-2.28-1.62h0.91c0,0.66.83,0.9,1.43,0.9,1.18,0,1.65-.85,1.65-2.09v-0.36h0a1.84,1.84,0,0,1-1.72,1,2.5,2.5,0,0,1-2.46-2.79c0-1.3.64-2.91,2.55-2.91a1.8,1.8,0,0,1,1.64.92h0v-0.79h0.85v5Zm-0.9-2.4c0-1-.43-2-1.57-2a1.75,1.75,0,0,0-1.63,2c0,1,.36,2.1,1.56,2.1S418.87,353.26,418.87,352.22Z"/><path class="gs13-12" d="M421.83,348.59h-0.91v-1.12h0.91v1.12Zm-0.91,1h0.91v5.51h-0.91v-5.51Z"/><path class="gs13-12" d="M423,349.58h0.85v0.89h0a1.92,1.92,0,0,1,1.79-1,1.71,1.71,0,0,1,1.9,2v3.63h-0.93v-3.73a1,1,0,0,0-1.12-1.11,1.55,1.55,0,0,0-1.63,1.73v3.11h-0.91Z"/><path class="gs13-12" d="M429.18,353.35a1.22,1.22,0,0,0,1.48,1.07c0.57,0,1.33-.13,1.33-0.82s-0.9-.82-1.8-1-1.8-.5-1.8-1.56a1.84,1.84,0,0,1,2.06-1.57c1.22,0,2.19.38,2.26,1.73H431.8a1.11,1.11,0,0,0-1.28-.93c-0.6,0-1.17.15-1.17,0.7s1,0.76,1.8,1,1.8,0.5,1.8,1.57c0,1.31-1.23,1.74-2.35,1.74s-2.28-.5-2.33-1.87Z"/><rect class="gs13-11" x="193.38" y="302.35" width="264.87" height="25.49" rx="3.14" ry="3.14"/><path class="gs13-12" d="M255.75,313.23a2.63,2.63,0,0,0-2.8-2.13c-2.38,0-3.39,2-3.39,4,0,2.28,1,4.19,3.4,4.19a2.83,2.83,0,0,0,2.89-2.77s0-.07,0-0.11h1.33a4.07,4.07,0,0,1-4.13,4h-0.2c-3.11,0-4.62-2.3-4.62-5.21s1.65-5.27,4.73-5.27a3.83,3.83,0,0,1,4.12,3.25Z"/><path class="gs13-12" d="M264.67,317.92a2.92,2.92,0,0,1-3.1,2.46c-2.31,0-3.4-1.6-3.47-3.81a3.49,3.49,0,0,1,3.2-3.76h0.2c2.56,0,3.35,2.4,3.28,4.15h-5.42a2.13,2.13,0,0,0,2.26,2.38,1.74,1.74,0,0,0,1.88-1.41h1.17Zm-1.15-2a2.08,2.08,0,1,0-4.16,0h4.16Z"/><path class="gs13-12" d="M265.87,313H267v1.15h0a2.52,2.52,0,0,1,2.35-1.32c1.91,0,2.49,1.09,2.49,2.65v4.76h-1.15v-4.9a1.36,1.36,0,0,0-1.25-1.46h-0.22a2,2,0,0,0-2.14,2.27v4.09h-1.19V313Z"/><path class="gs13-12" d="M275.17,313h1.41v1h-1.44v4.5c0,0.55.15,0.64,0.9,0.64h0.54v1h-0.91c-1.23,0-1.72-.25-1.72-1.58V314h-1.23v-1H274v-2.17h1.19Z"/><path class="gs13-12" d="M277.75,313h1.12v1.49h0a2.63,2.63,0,0,1,2.66-1.7V314c-1.92,0-2.62,1.09-2.62,2.93v3.22h-1.19Z"/><path class="gs13-12" d="M288.72,320.19a1.6,1.6,0,0,1-.85.2,1,1,0,0,1-1-1.12,3.21,3.21,0,0,1-2.55,1.12c-1.32,0-2.4-.59-2.4-2,0-1.64,1.22-2,2.45-2.23s2.44-.17,2.44-1.06a1.38,1.38,0,0,0-1.61-1.21c-1,0-1.75.31-1.81,1.37H282.2c0.07-1.79,1.46-2.42,3.07-2.42,1.3,0,2.72.29,2.72,2v3.73c0,0.56,0,.81.38,0.81a1,1,0,0,0,.36-0.07v0.88Zm-1.93-3.72a6.12,6.12,0,0,1-2.16.49c-0.78.14-1.46,0.42-1.46,1.3s0.67,1.06,1.4,1.06c1.57,0,2.21-1,2.21-1.64v-1.21Z"/><path class="gs13-12" d="M289.76,310.22H291v10h-1.19v-10Z"/><path class="gs13-12" d="M293.91,311.68h-1.19v-1.46h1.19v1.46Zm-1.19,1.3h1.19v7.24h-1.19V313Z"/><path class="gs13-12" d="M295,319.31L299.4,314h-4.09v-1h5.63v0.81l-4.43,5.38h4.62v1H295v-0.91Z"/><path class="gs13-12" d="M308.38,317.92a2.92,2.92,0,0,1-3.1,2.46c-2.31,0-3.4-1.6-3.47-3.81a3.49,3.49,0,0,1,3.2-3.76h0.2c2.56,0,3.35,2.4,3.28,4.15h-5.42a2.13,2.13,0,0,0,2.26,2.38,1.74,1.74,0,0,0,1.88-1.41h1.17Zm-1.15-2a2.08,2.08,0,1,0-4.16,0h4.16Z"/><path class="gs13-12" d="M316.05,320.22h-1.19v-1h0a2.44,2.44,0,0,1-2.31,1.15c-2.23,0-3.33-1.76-3.33-3.81s1.09-3.77,3.31-3.77a2.77,2.77,0,0,1,2.34,1.13h0v-3.73h1.19v10Zm-3.36-.88c1.6,0,2.21-1.37,2.21-2.73s-0.64-2.75-2.28-2.75-2.17,1.39-2.17,2.8,0.7,2.68,2.24,2.68h0Z"/><path class="gs13-12" d="M328.72,313.23a2.63,2.63,0,0,0-2.8-2.13c-2.38,0-3.39,2-3.39,4,0,2.28,1,4.19,3.4,4.19a2.83,2.83,0,0,0,2.89-2.77s0-.07,0-0.11h1.33a4.07,4.07,0,0,1-4.13,4h-0.2c-3.11,0-4.62-2.3-4.62-5.21s1.65-5.27,4.73-5.27a3.83,3.83,0,0,1,4.12,3.25Z"/><path class="gs13-12" d="M334.58,312.81c2.3,0,3.52,1.67,3.52,3.8s-1.22,3.78-3.52,3.78-3.52-1.67-3.52-3.78S332.29,312.81,334.58,312.81Zm0,6.53c1.25,0,2.25-1,2.25-2.73s-1-2.75-2.25-2.75-2.26,1-2.26,2.75S333.34,319.34,334.58,319.34Z"/><path class="gs13-12" d="M339.36,313h1.12v1.15h0a2.52,2.52,0,0,1,2.35-1.32c1.91,0,2.49,1.09,2.49,2.65v4.76h-1.19v-4.9a1.36,1.36,0,0,0-1.25-1.46h-0.22a2,2,0,0,0-2.14,2.27v4.09h-1.19Z"/><path class="gs13-12" d="M347.49,314h-1.22v-1h1.22V311.9c0-1.18.7-1.79,2-1.79a2.91,2.91,0,0,1,.77.11v1a2.22,2.22,0,0,0-.67-0.1,0.74,0.74,0,0,0-.91.81v1h1.4v1h-1.4v6.19h-1.19V314Z"/><path class="gs13-12" d="M352.26,311.68h-1.19v-1.46h1.19v1.46Zm-1.19,1.3h1.19v7.24h-1.19V313Z"/><path class="gs13-12" d="M360.22,319.6c0,2.35-1.08,3.56-3.36,3.56-1.36,0-2.93-.55-3-2.13h1.19c0.06,0.87,1.09,1.18,1.88,1.18,1.55,0,2.17-1.12,2.17-2.75V319h0a2.41,2.41,0,0,1-2.25,1.32c-2.16,0-3.24-1.7-3.24-3.67,0-1.71.84-3.82,3.35-3.82a2.36,2.36,0,0,1,2.16,1.21h0v-1h1.12ZM359,316.47c0-1.28-.56-2.59-2.06-2.59s-2.14,1.25-2.14,2.63,0.48,2.76,2,2.76S359,317.81,359,316.47Z"/><path class="gs13-12" d="M367.86,320.22h-1.12v-1.15h0a2.52,2.52,0,0,1-2.35,1.32c-1.91,0-2.49-1.09-2.49-2.65V313h1.19v4.9a1.36,1.36,0,0,0,1.25,1.46h0.22a2,2,0,0,0,2.14-2.27V313h1.19Z"/><path class="gs13-12" d="M369.47,313h1.11v1.49h0a2.63,2.63,0,0,1,2.66-1.7V314c-1.92,0-2.62,1.09-2.62,2.93v3.22h-1.19Z"/><path class="gs13-12" d="M380.45,320.19a1.6,1.6,0,0,1-.85.2,1,1,0,0,1-1-1.12,3.21,3.21,0,0,1-2.55,1.12c-1.32,0-2.4-.59-2.4-2,0-1.64,1.22-2,2.45-2.23s2.44-.17,2.44-1.06a1.38,1.38,0,0,0-1.61-1.21c-1,0-1.75.31-1.81,1.37h-1.19c0.07-1.79,1.46-2.42,3.07-2.42,1.3,0,2.72.29,2.72,2v3.73c0,0.56,0,.81.38,0.81a1,1,0,0,0,.36-0.07v0.88Zm-1.93-3.72a6.12,6.12,0,0,1-2.16.49c-0.78.14-1.46,0.42-1.46,1.3s0.67,1.06,1.4,1.06c1.57,0,2.21-1,2.21-1.64v-1.21Z"/><path class="gs13-12" d="M383.06,313h1.44v1h-1.44v4.5c0,0.55.15,0.64,0.9,0.64h0.55v1h-0.93c-1.23,0-1.72-.25-1.72-1.58V314h-1.23v-1h1.23v-2.17h1.19V313Z"/><path class="gs13-12" d="M386.94,311.68h-1.19v-1.46h1.19v1.46Zm-1.19,1.3h1.19v7.24h-1.19V313Z"/><path class="gs13-12" d="M391.77,312.81c2.3,0,3.52,1.67,3.52,3.8s-1.22,3.78-3.52,3.78-3.52-1.67-3.52-3.78S389.47,312.81,391.77,312.81Zm0,6.53c1.25,0,2.25-1,2.25-2.73s-1-2.75-2.25-2.75-2.26,1-2.26,2.75S390.53,319.34,391.77,319.34Z"/><path class="gs13-12" d="M396.58,313h1.12v1.15h0a2.52,2.52,0,0,1,2.35-1.32c1.91,0,2.49,1.09,2.49,2.65v4.76h-1.19v-4.9a1.36,1.36,0,0,0-1.25-1.46h-0.22a2,2,0,0,0-2.14,2.27v4.09h-1.16V313Z"/><path class="gs13-10" d="M206.17,275.06h6.91v1.12H207.5v3.18h5.2v1.11h-5.2v3.46h5.62V285h-6.95v-10Z"/><path class="gs13-10" d="M216.12,281.25l-2.54-3.44h1.53l1.74,2.54,1.81-2.54h1.43l-2.51,3.34,2.8,3.91h-1.5l-2-3-2,3h-1.44Z"/><path class="gs13-10" d="M221.12,277.81h1.19v1h0a2.44,2.44,0,0,1,2.31-1.15c2.23,0,3.33,1.76,3.33,3.81s-1.09,3.77-3.31,3.77a2.77,2.77,0,0,1-2.34-1.13h0v3.74h-1.19v-10Zm3.36,0.88c-1.6,0-2.21,1.37-2.21,2.73s0.64,2.75,2.28,2.75,2.17-1.39,2.17-2.8-0.7-2.67-2.24-2.67h0Z"/><path class="gs13-10" d="M229,277.81h1.12v1.53h0a2.63,2.63,0,0,1,2.66-1.7v1.26c-1.92,0-2.62,1.09-2.62,2.93V285H229Z"/><path class="gs13-10" d="M239.27,282.76a2.92,2.92,0,0,1-3.1,2.46c-2.31,0-3.4-1.6-3.47-3.81a3.49,3.49,0,0,1,3.2-3.76h0.2c2.56,0,3.35,2.4,3.28,4.15H234a2.13,2.13,0,0,0,2.25,2.38,1.74,1.74,0,0,0,1.88-1.41h1.18Zm-1.15-2a2.08,2.08,0,1,0-4.16,0h4.16Z"/><path class="gs13-10" d="M241,282.77c0,1.06,1,1.4,1.95,1.4,0.74,0,1.75-.17,1.75-1.08s-1.18-1.08-2.37-1.34-2.37-.66-2.37-2,1.44-2.06,2.7-2.06c1.6,0,2.87.5,3,2.27h-1.19a1.46,1.46,0,0,0-1.68-1.22c-0.78,0-1.54.2-1.54,0.92s1.26,1,2.37,1.26S246,281.58,246,283c0,1.72-1.61,2.28-3.08,2.28s-3-.66-3.07-2.45Z"/><path class="gs13-10" d="M247.64,282.77c0,1.06,1,1.4,1.95,1.4,0.74,0,1.75-.17,1.75-1.08s-1.18-1.08-2.37-1.34-2.37-.66-2.37-2,1.44-2.06,2.7-2.06c1.6,0,2.87.5,3,2.27h-1.22a1.46,1.46,0,0,0-1.68-1.22c-0.78,0-1.54.2-1.54,0.92s1.26,1,2.37,1.26,2.37,0.66,2.37,2.06c0,1.72-1.61,2.28-3.08,2.28s-3-.66-3.07-2.45Z"/><path class="gs13-10" d="M257.3,275.06H262c1.88,0,3,1,3,2.62a2.4,2.4,0,0,1-1.74,2.54h0c1.16,0.22,1.4,1.08,1.5,2.06a5.13,5.13,0,0,0,.59,2.76h-1.48c-0.38-.41-0.17-1.48-0.36-2.47s-0.38-1.81-1.67-1.81h-3.27V285h-1.33Zm4.1,4.61c1.25,0,2.31-.32,2.31-1.78a1.58,1.58,0,0,0-1.78-1.71h-3.35v3.49h2.82Z"/><path class="gs13-10" d="M272.33,285.06h-1.12v-1.15h0a2.52,2.52,0,0,1-2.35,1.32c-1.9,0-2.49-1.09-2.49-2.65v-4.76h1.19v4.9a1.36,1.36,0,0,0,1.25,1.46H269a2,2,0,0,0,2.14-2.27v-4.09h1.19Z"/><path class="gs13-10" d="M273.77,277.81h1.12V279h0a2.52,2.52,0,0,1,2.35-1.32c1.9,0,2.49,1.09,2.49,2.65V285h-1.15v-4.9a1.36,1.36,0,0,0-1.25-1.46h-0.22A2,2,0,0,0,275,281V285h-1.19v-7.24Z"/><path class="gs13-10" d="M282.86,277.81h1.44v1h-1.44v4.5c0,0.55.15,0.64,0.9,0.64h0.55v1H283.4c-1.23,0-1.72-.25-1.72-1.58v-4.61h-1.23v-1h1.23v-2.17h1.19v2.17Z"/><path class="gs13-10" d="M286.53,276.47h-1.19V275h1.19v1.46Zm-1.19,1.3h1.19V285h-1.19v-7.24Z"/><path class="gs13-10" d="M288,277.81h1.12v1.06h0a2.67,2.67,0,0,1,2.34-1.23,1.92,1.92,0,0,1,2,1.23,2.68,2.68,0,0,1,2.27-1.23c1.44,0,2.41.6,2.41,2.1V285H297V280.3c0-.9-0.24-1.61-1.4-1.61a1.75,1.75,0,0,0-1.89,1.85V285H292.5V280.3c0-.94-0.29-1.61-1.36-1.61a2,2,0,0,0-1.93,1.85V285H288v-7.24Z"/><path class="gs13-10" d="M305.79,282.76a2.92,2.92,0,0,1-3.1,2.46c-2.31,0-3.4-1.6-3.47-3.81a3.49,3.49,0,0,1,3.2-3.76h0.2c2.56,0,3.35,2.4,3.28,4.15h-5.42a2.13,2.13,0,0,0,2.25,2.38,1.74,1.74,0,0,0,1.88-1.41h1.18Zm-1.15-2a2.08,2.08,0,1,0-4.16,0h4.16Z"/><rect class="gs13-1" x="43.68" y="69.18" width="172.12" height="250.17" rx="15" ry="15"/><path class="gs13-2" d="M79.79,196.28c0,2,1.46,2.75,3.26,2.75,2,0,2.72-1,2.72-1.94a1.53,1.53,0,0,0-1.07-1.62c-0.9-.34-2.07-0.58-3.83-1.06-2.2-.59-2.84-1.93-2.84-3.26,0-2.57,2.38-3.78,4.7-3.78,2.68,0,4.93,1.42,4.93,4.11H85.4c-0.11-1.66-1.22-2.27-2.77-2.27-1,0-2.36.38-2.36,1.67a1.74,1.74,0,0,0,1.53,1.66c0.2,0.05,3,.79,3.71,1a3.4,3.4,0,0,1,2.5,3.28c0,2.88-2.56,4-5.11,4-2.93,0-5.31-1.4-5.37-4.59Z"/><path class="gs13-2" d="M90.84,196.47A2.48,2.48,0,0,0,93,199.2h0.31a2.16,2.16,0,0,0,2.24-1.58h2a4.08,4.08,0,0,1-4.21,3.17c-2.92,0-4.55-2-4.55-4.9,0-2.65,1.73-4.92,4.5-4.92,2.93,0,4.74,2.65,4.39,5.44Zm4.74-1.38a2.4,2.4,0,1,0-4.79,0h4.79Z"/><path class="gs13-2" d="M98.79,191.25h1.93V193h0a3,3,0,0,1,2.72-2.05,5,5,0,0,1,.77.05v2a7.31,7.31,0,0,0-.88-0.09c-1.41,0-2.52,1.13-2.52,3.19v4.43h-2v-9.33Z"/><path class="gs13-2" d="M103.76,191.25H106l2.36,7.15h0l2.27-7.15h2.13l-3.33,9.31h-2.3Z"/><path class="gs13-2" d="M113.58,187.71h2.05v1.94h-2.05v-1.94Zm0,3.55h2.05v9.31h-2.05v-9.31Z"/><path class="gs13-2" d="M123.74,194.37a2,2,0,0,0-2.12-1.75c-1.06,0-2.56.56-2.56,3.38,0,1.55.69,3.19,2.47,3.19a2.21,2.21,0,0,0,2.21-2.12h2.05a4,4,0,0,1-4.23,3.75h0c-2.92,0-4.52-2.07-4.52-4.81s1.53-5,4.59-5c2.16,0,4,1.08,4.2,3.37h-2.05Z"/><path class="gs13-2" d="M128.58,196.47a2.48,2.48,0,0,0,2.19,2.74h0.31a2.16,2.16,0,0,0,2.27-1.55h1.94a4.08,4.08,0,0,1-4.21,3.17c-2.92,0-4.55-2-4.55-4.9,0-2.65,1.73-4.92,4.5-4.92,2.93,0,4.74,2.65,4.39,5.44h-6.84Zm4.79-1.35a2.4,2.4,0,1,0-4.79,0h4.79Z"/><path class="gs13-2" d="M138.12,197.57a1.81,1.81,0,0,0,2.11,1.62c0.77,0,2.12-.16,2.07-1.22s-1.55-1.21-3-1.55-3-.86-3-2.75,2.2-2.66,3.89-2.66c1.91,0,3.64.79,3.89,2.86h-2.14a1.62,1.62,0,0,0-1.89-1.24c-0.59,0-1.69.14-1.69,1s1.51,1.15,3,1.5,3,0.88,3,2.72c0,2.21-2.23,3-4.16,3-2.34,0-4.09-1-4.12-3.24Z"/><path class="gs13-2" d="M76.33,207.71h9.25v1.94h-7V213h6.48v1.84H78.58v3.76h7.13v1.94H76.33V207.71Z"/><path class="gs13-2" d="M86.93,211.25h2v1.37h0a3.33,3.33,0,0,1,2.9-1.66,3,3,0,0,1,3.29,3.17v6.39h-2v-5.85c0-1.46-.61-2.09-1.82-2.09A2.27,2.27,0,0,0,89,214.86q0,0.08,0,.17v5.49H86.93v-9.27Z"/><path class="gs13-2" d="M105.58,220.56h-1.94V219.3h0a3.09,3.09,0,0,1-2.88,1.51c-2.93,0-4.36-2.18-4.36-5,0-3.37,2-4.84,4-4.84a3.59,3.59,0,0,1,3.1,1.46h0v-4.75h2.08v12.88ZM101,219.19c1.84,0,2.61-1.67,2.61-3.29,0-2.05-1-3.28-2.57-3.28-1.93,0-2.61,1.71-2.61,3.38S99.21,219.19,101,219.19Z"/><path class="gs13-2" d="M107.42,211.25h1.94v1.22h0a3.11,3.11,0,0,1,2.88-1.51c2.93,0,4.36,2.23,4.36,5,0,2.5-1.26,4.86-4,4.86a3.62,3.62,0,0,1-3.12-1.46h0V224h-2.05V211.25Zm4.59,1.37c-1.73,0-2.61,1.31-2.61,3.29s1,3.28,2.61,3.28c1.87,0,2.58-1.66,2.58-3.28S113.7,212.62,112,212.62Z"/><path class="gs13-2" d="M117.48,215.9c0-2.84,1.71-4.9,4.7-4.9s4.7,2.05,4.7,4.9-1.71,4.92-4.7,4.92S117.48,218.76,117.48,215.9Zm7.35,0c0-1.6-.81-3.28-2.65-3.28s-2.65,1.67-2.65,3.28,0.81,3.29,2.65,3.29,2.64-1.72,2.64-3.29h0Z"/><path class="gs13-2" d="M128.19,207.71h2.05v1.94h-2.05v-1.94Zm0,3.55h2.05v9.31h-2.05v-9.31Z"/><path class="gs13-2" d="M132,211.25H134v1.37h0a3.33,3.33,0,0,1,2.9-1.66,3,3,0,0,1,3.29,3.17v6.39H138.1v-5.85c0-1.46-.61-2.09-1.82-2.09a2.27,2.27,0,0,0-2.26,2.28q0,0.08,0,.17v5.49H132Z"/><path class="gs13-2" d="M141,211.25h1.55v-2.78h2.06v2.79h1.85v1.53h-1.85v5c0,0.85.07,1.28,1,1.28a3.49,3.49,0,0,0,.86-0.07v1.58c-0.45,0-.88.11-1.33,0.11-2.14,0-2.54-.83-2.57-2.38v-5.49H141Z"/><path class="gs13-2" d="M82.14,244a14.94,14.94,0,0,1-2.59-8.3,15.34,15.34,0,0,1,2.59-8.3h1.67a16.65,16.65,0,0,0-2.21,8.3,15.9,15.9,0,0,0,2.21,8.3H82.14Z"/><path class="gs13-2" d="M84.58,227.71h5.67c3.67,0,4.38,2.38,4.38,4s-0.7,4-4.38,3.94H86.84v4.93H84.58V227.71Zm2.25,6.09h3.29a2,2,0,0,0,2.25-2.12,1.9,1.9,0,0,0-2.21-2.12H86.84v4.24Z"/><path class="gs13-2" d="M95.86,231.25h1.93V233h0a3,3,0,0,1,2.79-2.05,4.94,4.94,0,0,1,.77.05v2a7.27,7.27,0,0,0-.88-0.09c-1.4,0-2.52,1.13-2.52,3.19v4.43H95.86v-9.33Z"/><path class="gs13-2" d="M101.8,227.71h2.05v1.94H101.8v-1.94Zm0,3.55h2.05v9.31H101.8v-9.31Z"/><path class="gs13-2" d="M104.71,231.25h2.23l2.36,7.15h0l2.27-7.15h2.12l-3.33,9.31h-2.3Z"/><path class="gs13-2" d="M122.32,238.47c0,0.5.11,0.7,0.49,0.7a2.83,2.83,0,0,0,.5,0v1.42a5.13,5.13,0,0,1-1.3.23,1.37,1.37,0,0,1-1.58-1.13,4.78,4.78,0,0,1-3.22,1.13c-1.67,0-3.19-.9-3.19-2.72,0-2.32,1.85-2.7,3.58-2.9,1.48-.27,2.79-0.11,2.79-1.31s-1.1-1.26-1.93-1.26c-1.15,0-2,.47-2.05,1.48h-2.05c0.14-2.39,2.18-3.1,4.23-3.1,1.82,0,3.73.74,3.73,2.7v4.76Zm-2.05-2.59a7.33,7.33,0,0,1-2.52.56c-0.88.14-1.67,0.47-1.67,1.55,0,0.92,1.17,1.19,1.89,1.19,0.9,0,2.3-.47,2.3-1.76v-1.54Z"/><path class="gs13-2" d="M123.15,231.25h1.55v-2.78h2.05v2.79h1.83v1.53h-1.85v5c0,0.85.07,1.28,1,1.28a3.49,3.49,0,0,0,.86-0.07v1.58c-0.45,0-.88.11-1.33,0.11-2.14,0-2.54-.83-2.58-2.38v-5.49h-1.55Z"/><path class="gs13-2" d="M131.23,236.47a2.48,2.48,0,0,0,2.19,2.74h0.31a2.16,2.16,0,0,0,2.27-1.55H138a4.08,4.08,0,0,1-4.21,3.17c-2.92,0-4.56-2-4.56-4.9,0-2.65,1.73-4.92,4.5-4.92,2.93,0,4.74,2.65,4.39,5.44h-6.84Zm4.79-1.35a2.4,2.4,0,1,0-4.79,0H136Z"/><path class="gs13-2" d="M139.63,227.4a15,15,0,0,1,2.59,8.32,15.24,15.24,0,0,1-2.59,8.28H138a16.53,16.53,0,0,0,2.21-8.28A16,16,0,0,0,138,227.4h1.67Z"/><path class="gs13-2" d="M116.45,151.12H95.58a0.52,0.52,0,1,0,0,1h20.83a0.52,0.52,0,1,0,0-1h0Z"/><path class="gs13-2" d="M128.58,136h-8a5.17,5.17,0,0,0-.66-2.9c-1.2-2-3.84-3.1-7.85-3.12s-6.61,1-7.81,3a5.19,5.19,0,0,0-.67,3h-8a6,6,0,0,0-5.95,5.95v21.32a6,6,0,0,0,5.95,6h33a6,6,0,0,0,5.95-5.95V142A6,6,0,0,0,128.58,136Zm-22.18-1.76c0.71-1.19,2.66-1.81,5.66-1.79s5,0.68,5.72,1.89a2.82,2.82,0,0,1,.33,1.65h-12a2.89,2.89,0,0,1,.3-1.75h0Zm17,26.37a7.76,7.76,0,0,1-7.26-5h-6.88l-3.16-2.25-3.62,2.52-2.82-1.61-3.43,1.11-3.29-3.05,1.1-2.72h22.31a7.77,7.77,0,1,1,7,11h0.05Z"/><circle class="gs13-2" cx="126.39" cy="152.86" r="1.79"/><path class="gs13-3" d="M121.58,163.36a7.76,7.76,0,0,1-7.26-5h-6.84l-3.16-2.25-3.62,2.52L97.88,157l-3.43,1.11-3.29-3.05,1.1-2.72h22.32A7.77,7.77,0,1,1,121.58,163.36Z"/><rect class="gs13-13" x="178.27" y="0.38" width="304.29" height="405.25"/><rect class="gs13-5" x="204.2" y="267.83" width="11.87" height="2.09"/><path class="gs13-10" d="M212.88,73.82h0.83v0.83h-0.83V73.82Z"/><path class="gs13-10" d="M214.77,73.82h0.81v0.83h-0.83Z"/><path class="gs13-10" d="M216.65,73.82h0.83v0.83h-0.83V73.82Z"/><path class="gs13-14" d="M398.69,262h-0.27c0.25,0.68.5,0.08,0.76,0.08,3,0,5.4-45.71,5.4-103.26s-2.42-104.22-5.4-104.22a0.67,0.67,0,0,0-.49.43"/><path class="gs13-14" d="M398.69,55V53.54H211.22v0.13c-2.51,8.91-4.42,54-4.42,105.13s1.9,97.49,4.42,102.49A1.65,1.65,0,0,0,213,262H398.42c-2.62-7.14-4.64-50.61-4.64-103.18C393.78,104.47,395.94,59.8,398.69,55Z"/><line class="gs13-14" x1="211.45" y1="60.98" x2="218.61" y2="60.98"/><line class="gs13-14" x1="212.1" y1="261.99" x2="219.01" y2="261.99"/><rect class="gs13-15" x="241.09" y="63.3" width="66.55" height="181.17" rx="2.9" ry="2.9"/><path class="gs13-10" d="M261.05,82.82h3.44a2.32,2.32,0,0,1,0,4.64h-2.4v3.21h-1Zm1,3.76h2c1.18,0,1.72-.51,1.72-1.44s-0.54-1.44-1.72-1.44h-2v2.88Z"/><path class="gs13-10" d="M270.2,84.86a3,3,0,1,1-2.75,3.23q0-.11,0-0.23a2.7,2.7,0,0,1,2.38-3Zm0,5.13A1.86,1.86,0,0,0,272,87.84,1.8,1.8,0,1,0,270.2,90Z"/><path class="gs13-10" d="M273.84,82.82h0.94v7.86h-0.94V82.82Z"/><path class="gs13-10" d="M276.94,84H276V82.82h0.94V84ZM276,85h0.94v5.69H276V85Z"/><path class="gs13-10" d="M282,86.82a1.32,1.32,0,0,0-1.4-1.14c-1.35,0-1.77,1.07-1.77,2.22S279.28,90,280.47,90A1.47,1.47,0,0,0,282,88.6h1a2.36,2.36,0,0,1-2.5,2.21h0a2.59,2.59,0,0,1-2.66-2.9c0-1.71.88-3,2.68-3A2.18,2.18,0,0,1,283,86.78V86.9Z"/><path class="gs13-10" d="M286,91.47c-0.43,1.11-.81,1.52-1.65,1.52a1.89,1.89,0,0,1-.65-0.1V92a1.93,1.93,0,0,0,.55.13,0.81,0.81,0,0,0,.77-0.52l0.39-1L283.13,85h1.06l1.66,4.65h0l1.6-4.65h1Z"/><rect class="gs13-5" x="250.64" y="112.25" width="47.44" height="106.13" rx="2.9" ry="2.9"/><path class="gs13-16" d="M258.78,158.06h4.09c2.65,0,3.16,1.72,3.16,2.87s-0.51,2.86-3.16,2.85H260.4v3.56h-1.62v-9.28Zm1.63,4.39h2.38a1.48,1.48,0,0,0,1.63-1.53,1.39,1.39,0,0,0-1.6-1.54h-2.41v3.07Z"/><path class="gs13-16" d="M266.92,160.62h1.39v1.3h0a2.17,2.17,0,0,1,2-1.48,3.69,3.69,0,0,1,.56,0v1.43a5.41,5.41,0,0,0-.64-0.06c-1,0-1.82.82-1.82,2.3v3.2h-1.48v-6.69Z"/><path class="gs13-16" d="M270.58,164a3.4,3.4,0,1,1,3.39,3.55A3.25,3.25,0,0,1,270.58,164Zm5.3,0c0-1.16-.58-2.37-1.91-2.37s-1.91,1.21-1.91,2.37,0.58,2.38,1.91,2.38a2.12,2.12,0,0,0,2-2.38h-0.05Z"/><path class="gs13-16" d="M280.13,163.8l-2.33-3.19h1.78l1.4,2.07,1.47-2.07h1.72l-2.29,3.11,2.57,3.62h-1.78l-1.7-2.48-1.65,2.48h-1.74Z"/><path class="gs13-16" d="M284.24,160.62h1.63l1.75,5h0l1.7-5h1.55l-2.61,7.09c-0.48,1.21-.83,2.3-2.38,2.3a6.62,6.62,0,0,1-1-.08v-1.25a4.32,4.32,0,0,0,.7.09,0.94,0.94,0,0,0,1-.94l0.17-.52Z"/><path class="gs13-11" d="M216.86,53.54h8.41C224.41,53.47,220.38,53.47,216.86,53.54Z"/><path class="gs13-11" d="M225.41,53.66l175.12-.12H225.26c0.11,0,.17,0,0.17,0Z"/><path class="gs13-11" d="M211.26,53.54v0.13l5.59-.13h-5.59Z"/><path class="gs13-11" d="M258.58,262h-1.42A10.67,10.67,0,0,0,258.58,262Z"/><path class="gs13-11" d="M400.58,261.63l-3.18-19.36H276.07c-13.69,0-31.53-1.73-43.63-19.36-11.3-16.47-15.92-48-15.92-71.85,0-33.21-2-87.31,34.76-97.4h-40c-2.54,8.91-4.46,46.14-4.46,97.22s1.92,105.39,4.46,110.4A1.67,1.67,0,0,0,213,262h44.11a18.57,18.57,0,0,1-2.63-.35H400.58Z"/><path class="gs13-5" d="M220.31,247.35h4.07a2.75,2.75,0,0,1,.33,5.49h-3.13v3.8h-1.23Zm1.23,4.45H224c1.39,0,2-.6,2-1.7s-0.64-1.7-2-1.7h-2.38Z"/><path class="gs13-5" d="M229.4,248.7h-1.11v-1.35h1.11v1.35Zm-1.11,1.21h1.11v6.72h-1.11v-6.72Z"/><path class="gs13-5" d="M230.83,249.91h1.11v0.91h0a2.27,2.27,0,0,1,2.15-1.07c2.07,0,3.09,1.64,3.09,3.54s-1,3.5-3.07,3.5a2.58,2.58,0,0,1-2.17-1.05h0v3.47h-1.11v-9.3Zm3.12,0.82c-1.48,0-2.05,1.27-2.05,2.54s0.6,2.55,2.12,2.55,2-1.29,2-2.6-0.64-2.49-2.07-2.49h0Z"/><path class="gs13-5" d="M243.9,254.47a2.71,2.71,0,0,1-2.87,2.29c-2.14,0-3.16-1.48-3.22-3.54a3.24,3.24,0,0,1,3-3.49H241c2.38,0,3.11,2.22,3,3.85h-5a2,2,0,0,0,1.78,2.2h0.31a1.62,1.62,0,0,0,1.74-1.31h1.1Zm-1.07-1.87a1.93,1.93,0,0,0-3.86,0h3.86Z"/><path class="gs13-5" d="M244.89,247.35H246v9.28h-1.11v-9.28Z"/><path class="gs13-5" d="M248.58,248.7h-1.11v-1.35h1.11v1.35Zm-1.11,1.21h1.11v6.72h-1.11v-6.72Z"/><path class="gs13-5" d="M250,249.91h1V251h0a2.34,2.34,0,0,1,2.18-1.22c1.77,0,2.31,1,2.31,2.46v4.42h-1.11v-4.55a1.27,1.27,0,0,0-1.18-1.35H253a1.89,1.89,0,0,0-2,2.11v3.8h-1.1Z"/><path class="gs13-5" d="M262.58,254.47a2.71,2.71,0,0,1-2.87,2.29c-2.15,0-3.16-1.48-3.22-3.54a3.24,3.24,0,0,1,3-3.49h0.19c2.38,0,3.11,2.22,3,3.85h-5a2,2,0,0,0,1.78,2.2h0.31a1.62,1.62,0,0,0,1.74-1.31h1.1Zm-1.07-1.87a1.93,1.93,0,0,0-1.94-1.9,1.91,1.91,0,0,0-1.92,1.9h3.86Z"/><path class="gs13-5" d="M269.58,247.42c2.89,0,3.07,2.65,3.07,4.69s-0.18,4.68-3.07,4.68-3.07-2.65-3.07-4.68S266.69,247.42,269.58,247.42Zm0,8.4c1.88,0,1.9-2.34,1.9-3.72s0-3.71-1.9-3.71-1.9,2.34-1.9,3.71,0,3.71,1.9,3.71h0Z"/><path class="gs13-5" d="M275.7,251.37h0.48a1.56,1.56,0,0,0,1.74-1.36q0-.08,0-0.15a1.46,1.46,0,0,0-1.43-1.49h-0.21a1.75,1.75,0,0,0-1.74,2h-1.1c0.06-1.75,1-3,2.85-3,1.6,0,2.81.77,2.81,2.47a2.11,2.11,0,0,1-1.27,1.83h0a2.1,2.1,0,0,1,1.66,2.24c0,1.85-1.44,2.81-3.17,2.81a2.79,2.79,0,0,1-3.07-3h1.11a1.87,1.87,0,0,0,1.73,2h0.27a1.83,1.83,0,0,0,2-1.65s0-.09,0-0.13a1.76,1.76,0,0,0-1.73-1.79l-0.27,0a5.47,5.47,0,0,0-.66,0v-0.81Z"/><path class="gs13-17" d="M480.77,147l-0.1,239.75c-1.59,9.6-8.77,17-17.54,17h-268c-8.77,0-15.94-7.41-15.94-16.47V39c0-9.06,7.17-16.47,15.94-16.47l269.7-.06c8.77,0,15.94,7.41,15.94,16.47V147Z"/><path class="gs13-11" d="M248.58,378.66h10.79v2.27H251.2v3.93h7.56V387H251.2v4.39h8.38v2.27h-11v-15Z"/><path class="gs13-11" d="M264.2,387.94l-3.76-5.14h2.9l2.27,3.34L268,382.8h2.77l-3.7,5,4.16,5.84h-2.87l-2.75-4-2.67,4h-2.81Z"/><path class="gs13-11" d="M272.41,382.79h2.27v1.47h0a3.63,3.63,0,0,1,3.4-1.79c3.42,0,5.08,2.6,5.08,5.77,0,2.92-1.47,5.67-4.68,5.67a4.22,4.22,0,0,1-3.63-1.7h0v5.42h-2.39Zm5.35,1.6c-2,0-3,1.53-3,3.84s1.11,3.82,3,3.82c2.18,0,3-1.93,3-3.82s-1-3.84-3-3.84h0Z"/><path class="gs13-11" d="M285,382.79h2.25v2.1h0a3.51,3.51,0,0,1,3.17-2.39,5.75,5.75,0,0,1,.9.06v2.31a8.55,8.55,0,0,0-1-.11c-1.64,0-2.94,1.32-2.94,3.72v5.17H285V382.79Z"/><path class="gs13-11" d="M293.65,388.84c0,1.7.92,3.21,2.92,3.21a2.52,2.52,0,0,0,2.65-1.81h2.27a4.75,4.75,0,0,1-4.91,3.7c-3.4,0-5.31-2.37-5.31-5.71,0-3.09,2-5.73,5.25-5.73,3.42,0,5.52,3.09,5.12,6.34h-8Zm5.58-1.58a2.79,2.79,0,0,0-5.58,0h5.58Z"/><path class="gs13-11" d="M305.05,390.16c0.13,1.39,1.18,1.89,2.46,1.89,0.9,0,2.48-.19,2.41-1.43s-1.8-1.41-3.55-1.81-3.48-1-3.48-3.21c0-2.37,2.56-3.11,4.54-3.11,2.22,0,4.24.92,4.54,3.34h-2.5c-0.21-1.13-1.16-1.45-2.21-1.45-0.69,0-2,.17-2,1.11,0,1.18,1.76,1.34,3.53,1.74s3.51,1,3.51,3.17c0,2.58-2.6,3.53-4.85,3.53-2.73,0-4.77-1.22-4.81-3.78h2.41Z"/><path class="gs13-11" d="M315.74,390.16c0.13,1.39,1.18,1.89,2.46,1.89,0.9,0,2.48-.19,2.41-1.43s-1.8-1.41-3.55-1.81-3.48-1-3.48-3.21c0-2.37,2.56-3.11,4.54-3.11,2.22,0,4.24.92,4.54,3.34h-2.5c-0.21-1.13-1.16-1.45-2.21-1.45-0.69,0-2,.17-2,1.11,0,1.18,1.76,1.34,3.53,1.74s3.51,1,3.51,3.17c0,2.58-2.6,3.53-4.85,3.53-2.73,0-4.77-1.22-4.81-3.78h2.41Z"/><path class="gs13-11" d="M343.67,393.65H342l-0.4-1.76a5.4,5.4,0,0,1-4.51,2.12c-4.49,0-7.18-3.57-7.18-7.85s2.69-7.85,7.18-7.85c3.28,0,6,1.74,6.42,5.12h-2.56a3.58,3.58,0,0,0-3.86-3c-3.21,0-4.56,2.83-4.56,5.71s1.34,5.71,4.56,5.71a3.83,3.83,0,0,0,4.2-4.12h-4v-2h6.38v7.92Z"/><path class="gs13-11" d="M355.07,391.23c0,0.59.13,0.82,0.57,0.82a3.31,3.31,0,0,0,.59,0v1.66a6,6,0,0,1-1.51.27,1.59,1.59,0,0,1-1.85-1.32,5.57,5.57,0,0,1-3.76,1.32c-2,0-3.72-1-3.72-3.17,0-2.71,2.16-3.15,4.18-3.38,1.72-.31,3.26-0.13,3.26-1.53,0-1.24-1.28-1.47-2.25-1.47-1.34,0-2.29.54-2.39,1.72H345.8c0.17-2.79,2.54-3.61,4.94-3.61,2.12,0,4.35.86,4.35,3.15Zm-2.39-3a8.51,8.51,0,0,1-2.94.65c-1,.17-2,0.55-2,1.81,0,1.07,1.36,1.39,2.2,1.39,1,0,2.69-.55,2.69-2.06Z"/><path class="gs13-11" d="M356.36,382.79h1.8v-3.25h2.42v3.25h2.16v1.78h-2.16v5.79c0,1,.08,1.49,1.15,1.49a4.09,4.09,0,0,0,1-.08v1.85c-0.53,0-1,.13-1.55.13-2.5,0-3-1-3-2.77v-6.4h-1.8Z"/><path class="gs13-11" d="M366.1,388.84c0,1.7.92,3.21,2.92,3.21a2.52,2.52,0,0,0,2.64-1.81h2.27a4.75,4.75,0,0,1-4.91,3.7c-3.4,0-5.31-2.37-5.31-5.71,0-3.09,2-5.73,5.25-5.73,3.42,0,5.52,3.09,5.12,6.34h-8Zm5.59-1.58a2.79,2.79,0,1,0-5.59,0h5.59Z"/><path class="gs13-11" d="M374.71,382.79h2.54l2.12,8.1h0l2-8.1h2.41l2,8.1h0l2.21-8.1h2.44L387,393.64h-2.46l-2-8.06h0l-2,8.06h-2.52Z"/><path class="gs13-11" d="M400.91,391.23c0,0.59.13,0.82,0.57,0.82a3.31,3.31,0,0,0,.59,0v1.66a6,6,0,0,1-1.51.27,1.59,1.59,0,0,1-1.85-1.32A5.57,5.57,0,0,1,395,394c-2,0-3.72-1-3.72-3.17,0-2.71,2.16-3.15,4.18-3.38,1.72-.31,3.26-0.13,3.26-1.53,0-1.24-1.28-1.47-2.25-1.47-1.34,0-2.29.54-2.39,1.72h-2.39c0.17-2.79,2.54-3.61,4.94-3.61,2.12,0,4.35.86,4.35,3.15Zm-2.39-3a8.51,8.51,0,0,1-2.94.65c-1,.17-2,0.55-2,1.81,0,1.07,1.36,1.39,2.2,1.39,1,0,2.69-.55,2.69-2.06Z"/><path class="gs13-11" d="M402.09,382.79h2.63l2.83,8.1h0l2.75-8.1h2.5l-4.22,11.45c-0.78,2-1.34,3.72-3.84,3.72a10.81,10.81,0,0,1-1.66-.12v-2a7,7,0,0,0,1.13.15c1.11,0,1.39-.59,1.68-1.51l0.27-.84Z"/><rect class="gs13-18" width="679.23" height="432.67"/></svg>
