<svg id="gs-1-4" xmlns="http://www.w3.org/2000/svg" viewBox="0 0 679.23 432.67"><defs><style>.gs14-1,.gs14-15{fill:#74cfe8;}.gs14-1{opacity:0.15;}.gs14-1,.gs14-13,.gs14-3{isolation:isolate;}.gs14-2,.gs14-3{fill:#35a9c5;}.gs14-3{opacity:0.2;}.gs14-14,.gs14-18,.gs14-19,.gs14-20,.gs14-21,.gs14-4,.gs14-6,.gs14-8{fill:none;}.gs14-4{stroke:#35a9c5;}.gs14-14,.gs14-21,.gs14-4,.gs14-6,.gs14-8{stroke-linecap:round;}.gs14-14,.gs14-4,.gs14-6,.gs14-8{stroke-linejoin:round;}.gs14-14,.gs14-4{stroke-width:2px;}.gs14-13,.gs14-23,.gs14-24,.gs14-5{fill:#fff;}.gs14-6,.gs14-8{stroke:#136d7c;}.gs14-6{stroke-width:1.5px;}.gs14-7{opacity:0.4;}.gs14-8{stroke-width:2.5px;}.gs14-9{opacity:0.63;}.gs14-10{fill:#136d7c;}.gs14-11{fill:#ffc60a;}.gs14-12{fill:#37403f;}.gs14-13{opacity:0.8;}.gs14-14,.gs14-21{stroke:#ffc60a;}.gs14-16{fill:#888789;}.gs14-17{fill:#73645a;}.gs14-18,.gs14-19,.gs14-20,.gs14-22,.gs14-23{stroke:#73645a;stroke-width:4px;}.gs14-18,.gs14-19,.gs14-20,.gs14-21,.gs14-22,.gs14-23{stroke-miterlimit:10;}.gs14-19{stroke-dasharray:7.81 7.81;}.gs14-20{stroke-dasharray:8.08 8.08;}.gs14-21{stroke-width:3px;}.gs14-22{fill:#eef8f8;}.gs14-24{opacity:0;}</style></defs><title>sized</title><rect class="gs14-1" x="431.49" y="68.69" width="232.82" height="250.88" rx="15" ry="15"/><path class="gs14-2" d="M591.9,194.46h2.44l5,12.86h-2.41l-1.21-3.4h-5.13l-1.21,3.4h-2.32Zm-0.79,7.74H595l-1.93-5.53h0Z"/><path class="gs14-2" d="M600,194.46h5.67c3.67,0,4.38,2.38,4.38,4s-0.7,4-4.37,3.94h-3.42v4.94H600V194.46Zm2.25,6.08h3.29a2,2,0,0,0,2.25-2.12,1.9,1.9,0,0,0-2.21-2.12h-3.33v4.24Z"/><path class="gs14-2" d="M611.57,194.46h2.25v12.88h-2.25V194.46Z"/><path class="gs14-2" d="M566.59,214.46h9.25v1.94h-7v3.37h6.5v1.84h-6.5v3.73H576v2h-9.38V214.46Z"/><path class="gs14-2" d="M577.19,218h2v1.33h0a3.33,3.33,0,0,1,2.9-1.66,3,3,0,0,1,3.29,3.17v6.49h-2v-5.85c0-1.46-.61-2.09-1.82-2.09a2.27,2.27,0,0,0-2.26,2.28q0,0.08,0,.17v5.49h-2Z"/><path class="gs14-2" d="M595.84,227.34H593.9v-1.26h0a3.09,3.09,0,0,1-2.88,1.51c-2.93,0-4.36-2.18-4.36-5,0-3.37,2-4.84,4-4.84a3.59,3.59,0,0,1,3.1,1.46h0v-4.75h2ZM591.25,226c1.84,0,2.61-1.67,2.61-3.29,0-2.05-1-3.28-2.57-3.28-1.93,0-2.61,1.71-2.61,3.38s0.79,3.17,2.57,3.17v0Z"/><path class="gs14-2" d="M597.68,218h1.94v1.26h0a3.11,3.11,0,0,1,2.88-1.51c2.93,0,4.36,2.23,4.36,5,0,2.5-1.26,4.86-4,4.86a3.62,3.62,0,0,1-3.12-1.46h0v4.65h-2V218Zm4.59,1.37c-1.73,0-2.61,1.31-2.61,3.29s1,3.28,2.61,3.28c1.87,0,2.58-1.66,2.58-3.28s-0.89-3.33-2.58-3.33v0Z"/><path class="gs14-2" d="M607.74,222.65c0-2.84,1.71-4.9,4.7-4.9s4.7,2.05,4.7,4.9-1.71,4.92-4.7,4.92S607.74,225.52,607.74,222.65Zm7.35,0c0-1.6-.81-3.28-2.65-3.28s-2.65,1.67-2.65,3.28,0.81,3.29,2.65,3.29,2.64-1.67,2.64-3.29h0Z"/><path class="gs14-2" d="M618.45,214.46h2v1.94h-2v-1.94Zm0,3.55h2v9.33h-2V218Z"/><path class="gs14-2" d="M622.28,218h2v1.33h0a3.33,3.33,0,0,1,2.9-1.66,3,3,0,0,1,3.29,3.17v6.49h-2v-5.85c0-1.46-.61-2.09-1.82-2.09a2.27,2.27,0,0,0-2.26,2.28q0,0.08,0,.17v5.49h-2Z"/><path class="gs14-2" d="M631.23,218h1.55v-2.79h2V218h1.85v1.53h-1.85v5c0,0.85.07,1.28,1,1.28a3.49,3.49,0,0,0,.86-0.07v1.59c-0.45,0-.88.11-1.33,0.11-2.14,0-2.54-.83-2.58-2.38v-5.53h-1.55V218Z"/><path class="gs14-2" d="M575.18,250.76a15,15,0,0,1-2.59-8.3,15.35,15.35,0,0,1,2.59-8.3h1.67a16.65,16.65,0,0,0-2.21,8.3,15.89,15.89,0,0,0,2.21,8.3h-1.67Z"/><path class="gs14-2" d="M577.63,234.46h5.71c3.67,0,4.38,2.38,4.38,4s-0.7,4-4.37,3.94h-3.42v4.94h-2.25Zm2.25,6.08h3.29a2,2,0,0,0,2.25-2.12,1.9,1.9,0,0,0-2.21-2.12h-3.33v4.24Z"/><path class="gs14-2" d="M597.07,247.34h-2V246h0a3.13,3.13,0,0,1-2.65,1.55c-2.43,0-3.48-1.22-3.48-3.66V238h2v5.71c0,1.64.67,2.23,1.78,2.23,1.71,0,2.29-1.1,2.29-2.54V238h2Z"/><path class="gs14-2" d="M598.84,234.46h2v4.75h0a3.39,3.39,0,0,1,2.77-1.46c2.93,0,4.36,2.23,4.36,5,0,2.5-1.26,4.86-4,4.86a3.32,3.32,0,0,1-3.22-1.53h0v1.26h-2V234.46Zm4.59,4.92c-1.73,0-2.61,1.31-2.61,3.29s1,3.28,2.61,3.28c1.87,0,2.58-1.66,2.58-3.28s-0.89-3.33-2.58-3.33v0Z"/><path class="gs14-2" d="M609.34,234.46h2v12.88h-2V234.46Z"/><path class="gs14-2" d="M613.27,234.46h2.07v1.94h-2Zm0,3.55h2.07v9.33h-2Z"/><path class="gs14-2" d="M623.34,241.12a2,2,0,0,0-2.12-1.75c-1.06,0-2.56.56-2.56,3.38,0,1.55.68,3.19,2.47,3.19a2.21,2.21,0,0,0,2.21-2.12h2a4,4,0,0,1-4.23,3.75h0c-2.92,0-4.52-2.07-4.52-4.81s1.53-5,4.59-5c2.16,0,4,1.08,4.2,3.37h-2Z"/><path class="gs14-2" d="M627.11,234.15a15.05,15.05,0,0,1,2.59,8.32,15.24,15.24,0,0,1-2.59,8.28h-1.67a16.55,16.55,0,0,0,2.21-8.28,16,16,0,0,0-2.21-8.32h1.67Z"/><rect class="gs14-3" x="608.9" y="136.73" width="33.16" height="19.58" rx="4.53" ry="4.53"/><rect class="gs14-4" x="603.98" y="132.4" width="38.08" height="24.18" rx="1.81" ry="1.81"/><path class="gs14-2" d="M610.39,149a0.62,0.62,0,0,1-.35-0.61,3.22,3.22,0,0,0,0-.43v-0.91h0v-0.29a0.33,0.33,0,0,1,0-.18v-1.66a17.74,17.74,0,0,1,0-1.8,1.48,1.48,0,0,1,0-.38,3.17,3.17,0,0,1,0-.4V142a0.86,0.86,0,0,1,0-.35,1.49,1.49,0,0,1,.1-0.29,0.84,0.84,0,0,1,1-.3,0.68,0.68,0,0,1,.32.72v1.13a5.39,5.39,0,0,1,0,.72,1.31,1.31,0,0,0,0,.32v0.08a1.78,1.78,0,0,1,0,.42v0.46a1.32,1.32,0,0,0,0,.25v0.11c0.08,0.48.38,1.07,0.67,0.75a0.16,0.16,0,0,1,.1-0.13l0.41-.48,0.16-.16h0a4.52,4.52,0,0,1,.3-0.35l0.11-.11a1,1,0,0,1,1.28.11h0a2.07,2.07,0,0,0,.46.45c0.24,0.22.14,0.16,0.17,0.21a1.92,1.92,0,0,0,.27.33c0.42,0.33.85-.33,0.89-0.8v-2.85a1.7,1.7,0,0,1,0-.75,0.87,0.87,0,0,1,1.07-.45,0.66,0.66,0,0,1,.33.53v2.56a2.74,2.74,0,0,1,0,1v0.3a0.73,0.73,0,0,0,0,.18V147a0.92,0.92,0,0,1,0,.35v1a1,1,0,0,1-.22.66,0.88,0.88,0,0,1-1.23-.19l-0.06-.1a3.08,3.08,0,0,1-.32-0.48l-0.08-.14a3.57,3.57,0,0,0-.54-0.48,1.94,1.94,0,0,0-1.34-.62,1.7,1.7,0,0,0-1.29.67,4.31,4.31,0,0,1-.46.46,3.52,3.52,0,0,0-.61.64h0a0.9,0.9,0,0,1-1.18.37Z"/><path class="gs14-2" d="M620,149a0.62,0.62,0,0,1-.35-0.61,3.22,3.22,0,0,0,0-.43v-0.91h0v-0.29a0.33,0.33,0,0,1,0-.18v-1.66a17.74,17.74,0,0,1,0-1.8,1.48,1.48,0,0,1,0-.38,3.17,3.17,0,0,1,0-.4V142a0.86,0.86,0,0,1,0-.35,1.49,1.49,0,0,1,.1-0.29,0.84,0.84,0,0,1,1-.3,0.68,0.68,0,0,1,.32.72v1.13a5.39,5.39,0,0,1,0,.72,1.31,1.31,0,0,0,0,.32v0.08a1.78,1.78,0,0,1,0,.42v0.46a1.32,1.32,0,0,0,0,.25v0.11c0.08,0.48.38,1.07,0.67,0.75a0.17,0.17,0,0,1,.1-0.13l0.42-.48,0.16-.16h0a4.52,4.52,0,0,1,.3-0.35l0.11-.11a1,1,0,0,1,1.28.11h0a2.07,2.07,0,0,0,.46.45c0.24,0.22.14,0.16,0.17,0.21a1.92,1.92,0,0,0,.27.33c0.42,0.33.85-.33,0.89-0.8v-2.85a1.7,1.7,0,0,1,0-.75,0.87,0.87,0,0,1,1.07-.45,0.66,0.66,0,0,1,.33.53v2.56a2.74,2.74,0,0,1,0,1v0.3a0.73,0.73,0,0,0,0,.18V147a0.92,0.92,0,0,1,0,.35v1a1,1,0,0,1-.22.66,0.88,0.88,0,0,1-1.23-.19l-0.06-.1a3.08,3.08,0,0,1-.32-0.48l-0.08-.14a3.57,3.57,0,0,0-.54-0.48,1.94,1.94,0,0,0-1.34-.62,1.7,1.7,0,0,0-1.29.67,4.31,4.31,0,0,1-.46.46,3.52,3.52,0,0,0-.61.64h0a0.9,0.9,0,0,1-1.18.37Z"/><path class="gs14-2" d="M629.69,149a0.62,0.62,0,0,1-.35-0.61,3.22,3.22,0,0,0,0-.43v-0.91h0v-0.29a0.33,0.33,0,0,1,0-.18v-1.66a17.74,17.74,0,0,1,0-1.8,1.48,1.48,0,0,1,0-.38,3.17,3.17,0,0,1,0-.4V142a0.86,0.86,0,0,1,0-.35,1.49,1.49,0,0,1,.1-0.29,0.84,0.84,0,0,1,1-.3,0.68,0.68,0,0,1,.32.72v1.13a5.39,5.39,0,0,1,0,.72,1.31,1.31,0,0,0,0,.32v0.08a1.78,1.78,0,0,1,0,.42v0.46a1.32,1.32,0,0,0,0,.25v0.11c0.08,0.48.38,1.07,0.67,0.75a0.16,0.16,0,0,1,.1-0.13l0.41-.48,0.16-.16h0a4.52,4.52,0,0,1,.3-0.35l0.11-.11a1,1,0,0,1,1.28.11h0a2.07,2.07,0,0,0,.46.45c0.24,0.22.14,0.16,0.17,0.21a1.92,1.92,0,0,0,.27.33c0.42,0.33.85-.33,0.89-0.8v-2.85a1.7,1.7,0,0,1,0-.75,0.87,0.87,0,0,1,1.07-.45,0.66,0.66,0,0,1,.33.53v2.56a2.74,2.74,0,0,1,0,1v0.3a0.73,0.73,0,0,0,0,.18V147a0.92,0.92,0,0,1,0,.35v1a1,1,0,0,1-.22.66,0.88,0.88,0,0,1-1.23-.19l-0.06-.1a3.08,3.08,0,0,1-.32-0.48l-0.08-.14a3.57,3.57,0,0,0-.54-0.48,1.94,1.94,0,0,0-1.34-.62,1.7,1.7,0,0,0-1.29.67,4.31,4.31,0,0,1-.46.46,3.52,3.52,0,0,0-.61.64h0a0.9,0.9,0,0,1-1.18.37Z"/><rect class="gs14-3" x="563.46" y="130.44" width="33.16" height="19.58" rx="4.53" ry="4.53"/><rect class="gs14-4" x="558.54" y="126.1" width="38.08" height="24.18" rx="1.81" ry="1.81"/><path class="gs14-2" d="M564.95,142.71a0.62,0.62,0,0,1-.35-0.61,3.22,3.22,0,0,0,0-.43v-0.91h0v-0.29a0.33,0.33,0,0,1,0-.18v-1.66a17.74,17.74,0,0,1,0-1.8,1.48,1.48,0,0,1,0-.38,3.17,3.17,0,0,1,0-.4v-0.32a0.86,0.86,0,0,1,0-.35,1.5,1.5,0,0,1,.1-0.29,0.84,0.84,0,0,1,1-.3,0.68,0.68,0,0,1,.32.72v1.13a5.39,5.39,0,0,1,0,.72,1.31,1.31,0,0,0,0,.32v0.08a1.78,1.78,0,0,1,0,.42v0.46a1.32,1.32,0,0,0,0,.25V139c0.08,0.48.38,1.07,0.67,0.75a0.17,0.17,0,0,1,.1-0.13l0.42-.48,0.16-.16h0a4.52,4.52,0,0,1,.3-0.35l0.11-.11a1,1,0,0,1,1.28.11h0a2.07,2.07,0,0,0,.46.45c0.24,0.22.14,0.16,0.17,0.21a1.92,1.92,0,0,0,.27.33c0.42,0.33.85-.33,0.89-0.8V136a1.7,1.7,0,0,1,0-.75,0.87,0.87,0,0,1,1.07-.45,0.66,0.66,0,0,1,.33.53v2.56a2.74,2.74,0,0,1,0,1v0.3a0.73,0.73,0,0,0,0,.18v1.36a0.93,0.93,0,0,1,0,.35v1a1,1,0,0,1-.22.66,0.88,0.88,0,0,1-1.23-.19l-0.06-.1a3.08,3.08,0,0,1-.32-0.48l-0.08-.14a3.57,3.57,0,0,0-.54-0.48,1.94,1.94,0,0,0-1.34-.62,1.7,1.7,0,0,0-1.29.67,4.31,4.31,0,0,1-.46.46,3.52,3.52,0,0,0-.61.64h0a0.9,0.9,0,0,1-1.18.37Z"/><path class="gs14-2" d="M574.6,142.71a0.62,0.62,0,0,1-.35-0.61,3.22,3.22,0,0,0,0-.43v-0.91h0v-0.29a0.33,0.33,0,0,1,0-.18v-1.66a17.74,17.74,0,0,1,0-1.8,1.48,1.48,0,0,1,0-.38,3.17,3.17,0,0,1,0-.4v-0.32a0.86,0.86,0,0,1,0-.35,1.5,1.5,0,0,1,.1-0.29,0.84,0.84,0,0,1,1-.3,0.68,0.68,0,0,1,.32.72v1.13a5.39,5.39,0,0,1,0,.72,1.31,1.31,0,0,0,0,.32v0.08a1.78,1.78,0,0,1,0,.42v0.46a1.32,1.32,0,0,0,0,.25V139c0.08,0.48.38,1.07,0.67,0.75a0.16,0.16,0,0,1,.1-0.13l0.41-.48L577,139h0a4.52,4.52,0,0,1,.3-0.35l0.11-.11a1,1,0,0,1,1.28.11h0a2.07,2.07,0,0,0,.46.45c0.24,0.22.14,0.16,0.17,0.21a1.92,1.92,0,0,0,.27.33c0.42,0.33.85-.33,0.89-0.8V136a1.7,1.7,0,0,1,0-.75,0.87,0.87,0,0,1,1.07-.45,0.66,0.66,0,0,1,.33.53v2.56a2.74,2.74,0,0,1,0,1v0.3a0.73,0.73,0,0,0,0,.18v1.36a0.93,0.93,0,0,1,0,.35v1a1,1,0,0,1-.22.66,0.88,0.88,0,0,1-1.33-.34,3.08,3.08,0,0,1-.32-0.48l-0.08-.14a3.57,3.57,0,0,0-.54-0.48,1.94,1.94,0,0,0-1.34-.62,1.7,1.7,0,0,0-1.29.67,4.31,4.31,0,0,1-.46.46,3.52,3.52,0,0,0-.61.64h0a0.9,0.9,0,0,1-1.18.37Z"/><path class="gs14-2" d="M584.25,142.71a0.62,0.62,0,0,1-.35-0.61,3.22,3.22,0,0,0,0-.43v-0.91h0v-0.29a0.33,0.33,0,0,1,0-.18v-1.66a17.74,17.74,0,0,1,0-1.8,1.48,1.48,0,0,1,0-.38,3.17,3.17,0,0,1,0-.4v-0.32a0.86,0.86,0,0,1,0-.35,1.5,1.5,0,0,1,.1-0.29,0.84,0.84,0,0,1,1-.3,0.68,0.68,0,0,1,.32.72v1.13a5.39,5.39,0,0,1,0,.72,1.31,1.31,0,0,0,0,.32v0.08a1.78,1.78,0,0,1,0,.42v0.46a1.32,1.32,0,0,0,0,.25V139c0.08,0.48.38,1.07,0.67,0.75a0.17,0.17,0,0,1,.1-0.13l0.42-.48,0.16-.16h0a4.52,4.52,0,0,1,.3-0.35l0.11-.11a1,1,0,0,1,1.28.11h0a2.07,2.07,0,0,0,.46.45c0.24,0.22.14,0.16,0.17,0.21a1.92,1.92,0,0,0,.27.33c0.42,0.33.85-.33,0.89-0.8V136a1.7,1.7,0,0,1,0-.75,0.87,0.87,0,0,1,1.07-.45,0.66,0.66,0,0,1,.33.53v2.56a2.74,2.74,0,0,1,0,1v0.3a0.73,0.73,0,0,0,0,.18v1.36a0.93,0.93,0,0,1,0,.35v1a1,1,0,0,1-.22.66,0.88,0.88,0,0,1-1.23-.19l-0.06-.1a3.08,3.08,0,0,1-.32-0.48l-0.08-.14a3.57,3.57,0,0,0-.54-0.48,1.94,1.94,0,0,0-1.34-.62,1.7,1.7,0,0,0-1.29.67,4.31,4.31,0,0,1-.46.46,3.52,3.52,0,0,0-.61.64h0a0.9,0.9,0,0,1-1.18.37Z"/><rect class="gs14-5" x="574.39" y="144.08" width="51.08" height="35.76" rx="8.05" ry="8.05"/><rect class="gs14-1" x="574.39" y="144.08" width="51.08" height="35.76" rx="8.05" ry="8.05"/><rect class="gs14-3" x="585.22" y="154.12" width="33.16" height="19.58" rx="4.53" ry="4.53"/><rect class="gs14-4" x="580.3" y="149.78" width="38.08" height="24.18" rx="1.81" ry="1.81"/><path class="gs14-2" d="M586.71,166.39a0.62,0.62,0,0,1-.35-0.61,3.22,3.22,0,0,0,0-.43v-0.91h0v-0.29a0.33,0.33,0,0,1,0-.18v-1.66a17.74,17.74,0,0,1,0-1.8,1.48,1.48,0,0,1,0-.38,3.17,3.17,0,0,1,0-.4v-0.32a0.86,0.86,0,0,1,0-.35,1.5,1.5,0,0,1,.1-0.29,0.84,0.84,0,0,1,1-.3,0.68,0.68,0,0,1,.32.72v1.13a5.39,5.39,0,0,1,0,.72,1.31,1.31,0,0,0,0,.32v0.08a1.78,1.78,0,0,1,0,.42v0.46a1.32,1.32,0,0,0,0,.25v0.11c0.08,0.48.38,1.07,0.67,0.75a0.17,0.17,0,0,1,.1-0.13l0.42-.48,0.16-.16h0a4.52,4.52,0,0,1,.3-0.35l0.11-.11a1,1,0,0,1,1.28.11h0a2.07,2.07,0,0,0,.46.45c0.24,0.22.14,0.16,0.17,0.21a1.92,1.92,0,0,0,.27.33c0.42,0.33.85-.33,0.89-0.8v-2.85a1.7,1.7,0,0,1,0-.75,0.87,0.87,0,0,1,1.07-.45,0.66,0.66,0,0,1,.33.53v2.56a2.74,2.74,0,0,1,0,1v0.3a0.73,0.73,0,0,0,0,.18v1.31a0.93,0.93,0,0,1,0,.35v1a1,1,0,0,1-.22.66,0.88,0.88,0,0,1-1.23-.19l-0.06-.1a3.08,3.08,0,0,1-.32-0.48l-0.08-.14a3.57,3.57,0,0,0-.54-0.48,1.94,1.94,0,0,0-1.34-.62,1.7,1.7,0,0,0-1.29.67,4.31,4.31,0,0,1-.46.46,3.52,3.52,0,0,0-.61.64h0a0.9,0.9,0,0,1-1.18.37Z"/><path class="gs14-2" d="M596.34,166.39a0.62,0.62,0,0,1-.35-0.61,3.22,3.22,0,0,0,0-.43v-0.91h0v-0.29a0.33,0.33,0,0,1,0-.18v-1.66a17.74,17.74,0,0,1,0-1.8,1.48,1.48,0,0,1,0-.38,3.17,3.17,0,0,1,0-.4v-0.32a0.86,0.86,0,0,1,0-.35,1.5,1.5,0,0,1,.1-0.29,0.84,0.84,0,0,1,1-.3,0.68,0.68,0,0,1,.32.72v1.13a5.39,5.39,0,0,1,0,.72,1.31,1.31,0,0,0,0,.32v0.08a1.78,1.78,0,0,1,0,.42v0.46a1.32,1.32,0,0,0,0,.25v0.11c0.08,0.48.38,1.07,0.67,0.75a0.16,0.16,0,0,1,.1-0.13l0.41-.48,0.16-.16h0a4.52,4.52,0,0,1,.3-0.35l0.11-.11a1,1,0,0,1,1.28.11h0a2.07,2.07,0,0,0,.46.45c0.24,0.22.14,0.16,0.17,0.21a1.92,1.92,0,0,0,.27.33c0.42,0.33.85-.33,0.89-0.8v-2.85a1.7,1.7,0,0,1,0-.75,0.87,0.87,0,0,1,1.07-.45,0.66,0.66,0,0,1,.33.53v2.56a2.74,2.74,0,0,1,0,1v0.3a0.73,0.73,0,0,0,0,.18v1.31a0.93,0.93,0,0,1,0,.35v1a1,1,0,0,1-.22.66,0.88,0.88,0,0,1-1.23-.19l-0.06-.1a3.08,3.08,0,0,1-.32-0.48l-0.08-.14a3.57,3.57,0,0,0-.54-0.48,1.94,1.94,0,0,0-1.34-.62,1.7,1.7,0,0,0-1.29.67,4.31,4.31,0,0,1-.46.46,3.52,3.52,0,0,0-.61.64h0a0.9,0.9,0,0,1-1.14.27v0.05Z"/><path class="gs14-2" d="M606,166.39a0.62,0.62,0,0,1-.35-0.61,3.22,3.22,0,0,0,0-.43v-0.91h0v-0.29a0.33,0.33,0,0,1,0-.18v-1.66a17.74,17.74,0,0,1,0-1.8,1.48,1.48,0,0,1,0-.38,3.17,3.17,0,0,1,0-.4v-0.32a0.86,0.86,0,0,1,0-.35,1.5,1.5,0,0,1,.1-0.29,0.84,0.84,0,0,1,1-.3,0.68,0.68,0,0,1,.32.72v1.13a5.39,5.39,0,0,1,0,.72,1.31,1.31,0,0,0,0,.32v0.08a1.78,1.78,0,0,1,0,.42v0.46a1.32,1.32,0,0,0,0,.25v0.11c0.08,0.48.38,1.07,0.67,0.75a0.17,0.17,0,0,1,.1-0.13l0.42-.48,0.16-.16h0a4.52,4.52,0,0,1,.3-0.35l0.11-.11a1,1,0,0,1,1.28.11h0a2.07,2.07,0,0,0,.46.45c0.24,0.22.14,0.16,0.17,0.21a1.92,1.92,0,0,0,.27.33c0.42,0.33.85-.33,0.89-0.8v-2.85a1.7,1.7,0,0,1,0-.75,0.87,0.87,0,0,1,1.07-.45,0.66,0.66,0,0,1,.33.53v2.56a2.74,2.74,0,0,1,0,1v0.3a0.73,0.73,0,0,0,0,.18v1.31a0.93,0.93,0,0,1,0,.35v1a1,1,0,0,1-.22.66,0.88,0.88,0,0,1-1.23-.19l-0.06-.1a3.08,3.08,0,0,1-.32-0.48l-0.08-.14a3.57,3.57,0,0,0-.54-0.48,1.94,1.94,0,0,0-1.34-.62,1.7,1.7,0,0,0-1.29.67,4.31,4.31,0,0,1-.46.46,3.52,3.52,0,0,0-.61.64h0a0.9,0.9,0,0,1-1.18.37Z"/><rect class="gs14-1" y="69.05" width="197.56" height="250.17" rx="15" ry="15"/><path class="gs14-2" d="M26.55,196.15c0,2,1.46,2.75,3.26,2.75,2,0,2.72-1,2.72-1.94a1.53,1.53,0,0,0-1.07-1.62c-0.9-.34-2.07-0.58-3.83-1.06-2.2-.59-2.84-1.93-2.84-3.26,0-2.57,2.38-3.78,4.7-3.78,2.68,0,4.93,1.42,4.93,4.11H32.16c-0.11-1.66-1.22-2.27-2.77-2.27-1,0-2.36.38-2.36,1.67a1.74,1.74,0,0,0,1.53,1.66c0.2,0.05,3,.79,3.71,1a3.4,3.4,0,0,1,2.5,3.28c0,2.88-2.56,4-5.11,4-2.93,0-5.31-1.4-5.37-4.59Z"/><path class="gs14-2" d="M37.6,196.34a2.48,2.48,0,0,0,2.19,2.74H40.1a2.16,2.16,0,0,0,2.24-1.57h2a4.08,4.08,0,0,1-4.21,3.17c-2.92,0-4.55-2-4.55-4.9,0-2.65,1.73-4.92,4.5-4.92,2.93,0,4.74,2.65,4.39,5.44ZM42.34,195a2.4,2.4,0,1,0-4.79,0h4.79Z"/><path class="gs14-2" d="M45.55,191.12h1.93v1.8h0a3,3,0,0,1,2.72-2.05,5,5,0,0,1,.77.05v2a7.31,7.31,0,0,0-.88-0.09c-1.41,0-2.52,1.13-2.52,3.19v4.43h-2v-9.33Z"/><path class="gs14-2" d="M50.52,191.12h2.23l2.36,7.15h0l2.27-7.15h2.16l-3.33,9.31h-2.3Z"/><path class="gs14-2" d="M60.34,187.58h2.1v1.94h-2.1v-1.94Zm0,3.55h2.1v9.31h-2.1v-9.31Z"/><path class="gs14-2" d="M70.5,194.24a2,2,0,0,0-2.16-1.75c-1.06,0-2.56.56-2.56,3.38,0,1.55.69,3.19,2.47,3.19a2.21,2.21,0,0,0,2.21-2.12h2.05a4,4,0,0,1-4.23,3.75h0c-2.92,0-4.52-2.07-4.52-4.81s1.53-5,4.59-5c2.16,0,4,1.08,4.2,3.37h-2Z"/><path class="gs14-2" d="M75.34,196.34a2.48,2.48,0,0,0,2.19,2.74h0.31a2.16,2.16,0,0,0,2.27-1.55H82a4.08,4.08,0,0,1-4.21,3.17c-2.92,0-4.55-2-4.55-4.9,0-2.65,1.73-4.92,4.5-4.92,2.93,0,4.74,2.65,4.39,5.44H75.34ZM80.13,195a2.4,2.4,0,1,0-4.79,0h4.79Z"/><path class="gs14-2" d="M84.88,197.44A1.81,1.81,0,0,0,87,199.06c0.77,0,2.12-.16,2.07-1.22s-1.55-1.21-3-1.55-3-.86-3-2.75,2.2-2.66,3.89-2.66c1.91,0,3.64.79,3.89,2.86H88.66a1.62,1.62,0,0,0-1.89-1.24c-0.59,0-1.69.14-1.69,1s1.51,1.15,3,1.5,3,0.88,3,2.72c0,2.21-2.23,3-4.16,3-2.34,0-4.09-1-4.12-3.24Z"/><path class="gs14-2" d="M23.09,207.58h9.25v1.94h-7v3.37h6.48v1.84H25.34v3.76h7.13v1.94H23.09V207.58Z"/><path class="gs14-2" d="M33.69,211.12h2v1.37h0a3.33,3.33,0,0,1,2.9-1.66A3,3,0,0,1,41.83,214v6.39h-2v-5.85c0-1.46-.61-2.09-1.82-2.09a2.27,2.27,0,0,0-2.26,2.28q0,0.08,0,.17v5.49H33.69v-9.27Z"/><path class="gs14-2" d="M52.34,220.43H50.4v-1.26h0a3.09,3.09,0,0,1-2.88,1.51c-2.93,0-4.36-2.18-4.36-5,0-3.37,2-4.84,4-4.84a3.59,3.59,0,0,1,3.1,1.46h0v-4.75h2.08v12.88Zm-4.59-1.37c1.84,0,2.61-1.67,2.61-3.29,0-2.05-1-3.28-2.57-3.28-1.93,0-2.61,1.71-2.61,3.38S46,219.06,47.75,219.06Z"/><path class="gs14-2" d="M54.18,211.12h1.94v1.22h0A3.11,3.11,0,0,1,59,210.83c2.93,0,4.36,2.23,4.36,5,0,2.5-1.26,4.86-4,4.86a3.62,3.62,0,0,1-3.12-1.46h0v4.65H54.18V211.12Zm4.59,1.37c-1.73,0-2.61,1.31-2.61,3.29s1,3.28,2.61,3.28c1.87,0,2.58-1.66,2.58-3.28S60.46,212.49,58.77,212.49Z"/><path class="gs14-2" d="M64.24,215.77c0-2.84,1.71-4.9,4.7-4.9s4.7,2.05,4.7,4.9-1.71,4.92-4.7,4.92S64.24,218.63,64.24,215.77Zm7.35,0c0-1.6-.81-3.28-2.65-3.28s-2.6,1.68-2.6,3.28,0.81,3.29,2.65,3.29,2.59-1.72,2.59-3.29h0Z"/><path class="gs14-2" d="M75,207.58H77v1.94H75v-1.94Zm0,3.55H77v9.31H75v-9.31Z"/><path class="gs14-2" d="M78.78,211.12h1.94v1.37h0a3.33,3.33,0,0,1,2.9-1.66A3,3,0,0,1,86.91,214v6.39h-2v-5.85c0-1.46-.61-2.09-1.82-2.09a2.27,2.27,0,0,0-2.26,2.28q0,0.08,0,.17v5.49h-2v-9.27Z"/><path class="gs14-2" d="M87.73,211.12h1.55v-2.78h2.06v2.79h1.85v1.53H91.34v5c0,0.85.07,1.28,1,1.28a3.49,3.49,0,0,0,.86-0.07v1.58c-0.45,0-.88.11-1.33,0.11-2.14,0-2.54-.83-2.57-2.38v-5.49H87.73v-1.57Z"/><path class="gs14-2" d="M28.9,243.87a14.94,14.94,0,0,1-2.59-8.3,15.34,15.34,0,0,1,2.59-8.3h1.67a16.65,16.65,0,0,0-2.21,8.3,15.9,15.9,0,0,0,2.21,8.3H28.9Z"/><path class="gs14-2" d="M31.34,227.58H37c3.67,0,4.38,2.38,4.38,4s-0.7,4-4.38,3.94H33.6v4.93H31.34V227.58Zm2.25,6.09h3.29a2,2,0,0,0,2.25-2.12,1.9,1.9,0,0,0-2.21-2.12H33.6v4.24Z"/><path class="gs14-2" d="M42.62,231.12h1.93v1.8h0a3,3,0,0,1,2.79-2.05,4.94,4.94,0,0,1,.77.05v2a7.27,7.27,0,0,0-.88-0.09c-1.4,0-2.52,1.13-2.52,3.19v4.43H42.62v-9.33Z"/><path class="gs14-2" d="M48.56,227.58h2v1.94h-2v-1.94Zm0,3.55h2v9.31h-2v-9.31Z"/><path class="gs14-2" d="M51.47,231.12H53.7l2.36,7.15h0l2.28-7.15h2.12l-3.33,9.31h-2.3Z"/><path class="gs14-2" d="M69.08,238.34c0,0.5.11,0.7,0.49,0.7a2.83,2.83,0,0,0,.5,0v1.42a5.13,5.13,0,0,1-1.3.23,1.37,1.37,0,0,1-1.58-1.13A4.78,4.78,0,0,1,64,240.69c-1.67,0-3.19-.9-3.19-2.72,0-2.32,1.85-2.7,3.58-2.9,1.48-.27,2.79-0.11,2.79-1.31s-1.1-1.26-1.93-1.26c-1.15,0-2,.47-2.05,1.48h-2c0.14-2.39,2.18-3.1,4.23-3.1,1.82,0,3.73.74,3.73,2.7v4.76ZM67,235.75a7.33,7.33,0,0,1-2.52.56c-0.88.14-1.67,0.47-1.67,1.55,0,0.92,1.17,1.19,1.89,1.19,0.9,0,2.3-.47,2.3-1.76v-1.54Z"/><path class="gs14-2" d="M69.91,231.12h1.55v-2.78h2.05v2.79h1.83v1.53H73.51v5c0,0.85.07,1.28,1,1.28a3.49,3.49,0,0,0,.86-0.07v1.58c-0.45,0-.88.11-1.33,0.11-2.14,0-2.54-.83-2.58-2.38v-5.49H69.91v-1.57Z"/><path class="gs14-2" d="M78,236.34a2.48,2.48,0,0,0,2.19,2.74h0.31a2.16,2.16,0,0,0,2.27-1.55h1.95a4.08,4.08,0,0,1-4.21,3.17c-2.92,0-4.56-2-4.56-4.9,0-2.65,1.73-4.92,4.5-4.92,2.93,0,4.74,2.65,4.39,5.44H78ZM82.78,235A2.4,2.4,0,1,0,78,235h4.79Z"/><path class="gs14-2" d="M86.39,227.27A15,15,0,0,1,89,235.59a15.24,15.24,0,0,1-2.59,8.28H84.72a16.53,16.53,0,0,0,2.21-8.28,16,16,0,0,0-2.21-8.32h1.67Z"/><path class="gs14-2" d="M63.21,151H42.34a0.52,0.52,0,1,0,0,1H63.21A0.52,0.52,0,1,0,63.21,151Z"/><path class="gs14-2" d="M75.34,135.89h-8a5.17,5.17,0,0,0-.66-2.9c-1.2-2-3.84-3.1-7.85-3.12s-6.61,1-7.81,3a5.19,5.19,0,0,0-.67,3h-8a6,6,0,0,0-6,5.95v21.32a6,6,0,0,0,6,6h33a6,6,0,0,0,6-5.95V141.84A6,6,0,0,0,75.34,135.89Zm-22.18-1.76c0.71-1.19,2.66-1.81,5.66-1.79s5,0.68,5.72,1.89a2.82,2.82,0,0,1,.33,1.65h-12a2.89,2.89,0,0,1,.3-1.75h0Zm17,26.37a7.76,7.76,0,0,1-7.26-5H56.06l-3.16-2.25-3.62,2.52-2.82-1.61L43,155.27l-3.29-3.05,1.1-2.72H63.16A7.77,7.77,0,1,1,70.16,160.5Z"/><circle class="gs14-2" cx="73.15" cy="152.73" r="1.79"/><path class="gs14-3" d="M68.34,163.23a7.76,7.76,0,0,1-7.26-5H54.24L51.08,156l-3.62,2.52-2.82-1.61L41.21,158l-3.29-3.05,1.1-2.72H61.34A7.77,7.77,0,1,1,68.34,163.23Z"/><rect class="gs14-6" x="193.67" y="37.75" width="271.21" height="256.21" rx="3.14" ry="3.14"/><g class="gs14-7"><path class="gs14-8" d="M434,110.75H420.88c-1.1,0-2-1.59-2-3.53h0c0-1.94.9-3.53,2-3.53h26.67c1.1,0,2-1.59,2-3.53h0c0-1.94-.9-3.53-2-3.53H422"/><path class="gs14-8" d="M434,124.9H420.88c-1.1,0-2-1.59-2-3.53h0c0-1.94.9-3.53,2-3.53h26.67c1.1,0,2-1.59,2-3.53h0c0-1.94-.9-3.53-2-3.53H433.83"/><path class="gs14-8" d="M434,139H420.88c-1.1,0-2-1.59-2-3.53h0c0-1.94.9-3.53,2-3.53h26.67c1.1,0,2-1.59,2-3.53h0c0-1.94-.9-3.53-2-3.53H433.83"/><path class="gs14-8" d="M434,153.18H420.88c-1.1,0-2-1.59-2-3.53h0c0-1.94.9-3.53,2-3.53h26.67c1.1,0,2-1.59,2-3.53h0c0-1.94-.9-3.53-2-3.53H433.83"/><path class="gs14-8" d="M434,167.34H420.88c-1.1,0-2-1.59-2-3.53h0c0-1.94.9-3.53,2-3.53h26.67c1.1,0,2-1.59,2-3.53h0c0-1.94-.9-3.53-2-3.53H433.83"/><path class="gs14-8" d="M434,181.47H420.88c-1.1,0-2-1.59-2-3.53h0c0-1.94.9-3.53,2-3.53h26.67c1.1,0,2-1.59,2-3.53h0c0-1.94-.9-3.53-2-3.53H433.83"/><path class="gs14-8" d="M434,195.46H420.88c-1.1,0-2-1.59-2-3.53h0c0-1.94.9-3.53,2-3.53h26.67c1.1,0,2-1.59,2-3.53h0c0-1.94-.9-3.53-2-3.53H433.83"/><path class="gs14-8" d="M434,209.61H420.88c-1.1,0-2-1.59-2-3.53h0c0-1.94.9-3.53,2-3.53h26.67c1.1,0,2-1.59,2-3.53h0c0-1.94-.9-3.53-2-3.53H433.83"/><path class="gs14-8" d="M434,223.75H420.88c-1.1,0-2-1.59-2-3.53h0c0-1.94.9-3.53,2-3.53h26.67c1.1,0,2-1.59,2-3.53h0c0-1.94-.9-3.53-2-3.53H433.83"/><path class="gs14-8" d="M434,237.9H420.88c-1.1,0-2-1.59-2-3.53h0c0-1.94.9-3.53,2-3.53h26.67c1.1,0,2-1.59,2-3.53h0c0-1.94-.9-3.53-2-3.53H433.83"/><path class="gs14-8" d="M434,82.44H420.88c-1.1,0-2-1.59-2-3.53h0c0-1.94.9-3.53,2-3.53h26.67c1.1,0,2-1.59,2-3.53h0c0-1.94-.9-3.53-2-3.53H433.83"/><path class="gs14-8" d="M434,68.34H421c-1.1,0-2-1.59-2-3.53h0c0-1.94.9-3.53,2-3.53h26.67c1.1,0,2-1.59,2-3.53h0c0-1.94-.9-3.53-2-3.53H433.91"/><path class="gs14-8" d="M434,96.58H420.88c-1.1,0-2-1.59-2-3.53h0c0-1.94.9-3.53,2-3.53h26.67c1.1,0,2-1.59,2-3.53h0c0-1.94-.9-3.53-2-3.53H433.83"/><path class="gs14-8" d="M434,252H420.88c-1.1,0-2-1.59-2-3.53h0c0-1.94.9-3.53,2-3.53h26.67c1.1,0,2-1.59,2-3.53h0c0-1.94-.9-3.53-2-3.53H433.83"/><path class="gs14-8" d="M420.88,259h26.67c1.1,0,2-1.59,2-3.53h0c0-1.94-.9-3.53-2-3.53H433.83"/></g><rect class="gs14-5" x="414.96" y="254.12" width="38.91" height="14.5"/><g class="gs14-9"><path class="gs14-10" d="M418.43,260.53h3.75c1.72,0,2.6.79,2.6,2.12a1.91,1.91,0,0,1-1.3,2h0a1.44,1.44,0,0,1,1.17,1.66,3.57,3.57,0,0,0,.43,2.07h-1.47a2.19,2.19,0,0,1-.21-1.16c0-1.44-.3-2.08-1.56-2.08h-2v3.2h-1.37Zm1.38,3.58h2.26a1.16,1.16,0,0,0,1.34-1.25,1.13,1.13,0,0,0-1.36-1.2h-2.23v2.45Z"/><path class="gs14-10" d="M425.73,265.54a2.87,2.87,0,1,1,2.87,3A2.75,2.75,0,0,1,425.73,265.54Zm4.49,0a1.66,1.66,0,1,0-1.62,2A1.75,1.75,0,0,0,430.22,265.54Z"/><path class="gs14-10" d="M437.52,268.34h-1.23v-0.79h0a1.91,1.91,0,0,1-1.62,1c-1.49,0-2.12-.75-2.12-2.23v-3.61h1.25v3.49c0,1,.41,1.36,1.09,1.36a1.34,1.34,0,0,0,1.4-1.55v-3.3h1.25Z"/><path class="gs14-10" d="M438.26,262.7h1V261h1.25v1.71h1.13v0.93h-1.13v3c0,0.52,0,.78.61,0.78a2.15,2.15,0,0,0,.53,0v1c-0.28,0-.54.07-0.81,0.07-1.31,0-1.55-.51-1.57-1.45v-3.39h-1V262.7Z"/><path class="gs14-10" d="M443.48,265.87a1.51,1.51,0,0,0,1.33,1.67H445a1.32,1.32,0,0,0,1.39-1h1.19a2.49,2.49,0,0,1-2.58,1.94,2.7,2.7,0,0,1-2.78-3,2.75,2.75,0,1,1,5.44.32h-4.19Zm2.93-.83a1.46,1.46,0,0,0-2.93,0h2.93Z"/><path class="gs14-10" d="M448.61,262.7h1.18v1.1h0a1.84,1.84,0,0,1,1.66-1.25,2.87,2.87,0,0,1,.47,0v1.21a4.36,4.36,0,0,0-.54,0c-0.86,0-1.54.69-1.54,2v2.68h-1.25Z"/></g><rect class="gs14-11" x="193.75" y="335.49" width="81.49" height="32.75" rx="3.14" ry="3.14"/><rect class="gs14-11" x="284.78" y="335.49" width="81.49" height="32.75" rx="3.14" ry="3.14"/><rect class="gs14-11" x="375.8" y="335.49" width="81.49" height="32.75" rx="3.14" ry="3.14"/><path class="gs14-12" d="M210.23,342h2.61c2.35,0,3.66,1.17,3.66,3.63s-1.12,4-3.66,4h-2.61V342Zm1,6.76h1.69c0.69,0,2.56-.19,2.56-3,0-1.81-.67-2.91-2.54-2.91h-1.7v5.91Z"/><path class="gs14-12" d="M218.27,343.07h-0.93V342h0.91Zm-0.91,1h0.91v5.51h-0.93Z"/><path class="gs14-12" d="M220,347.84a1.22,1.22,0,0,0,1.48,1.07c0.57,0,1.33-.13,1.33-0.82s-0.9-.82-1.8-1-1.8-.5-1.8-1.56a1.84,1.84,0,0,1,2.06-1.57c1.22,0,2.19.38,2.26,1.73h-0.91a1.11,1.11,0,0,0-1.28-.93c-0.6,0-1.17.15-1.17,0.7s1,0.76,1.8,1,1.8,0.5,1.8,1.57c0,1.31-1.23,1.74-2.35,1.74s-2.28-.5-2.33-1.87Z"/><path class="gs14-12" d="M225.74,344.07h1.1v0.8h-1.1v3.42c0,0.42.12,0.49,0.68,0.49h0.42v0.8h-0.69c-0.94,0-1.31-.19-1.31-1.21v-3.51H223.9v-0.8h0.94v-1.65h0.91v1.66Z"/><path class="gs14-12" d="M227.54,344.07h0.8v1.16h0a2,2,0,0,1,2-1.29v1c-1.46,0-2,.83-2,2.23v2.45h-0.91Z"/><path class="gs14-12" d="M231.81,343.07H230.9V342h0.91v1.11Zm-0.91,1h0.91v5.51H230.9v-5.51Z"/><path class="gs14-12" d="M233,342h0.91v2.85h0a1.86,1.86,0,0,1,1.76-.87c1.7,0,2.54,1.34,2.54,2.9s-0.83,2.87-2.52,2.87a2.11,2.11,0,0,1-1.78-.86h0v0.74H233V342Zm2.56,2.77c-1.22,0-1.69,1-1.69,2.08s0.49,2.09,1.74,2.09,1.65-1.06,1.65-2.13A1.77,1.77,0,0,0,235.54,344.74Z"/><path class="gs14-12" d="M243.57,349.58h-0.85v-0.87h0a1.92,1.92,0,0,1-1.79,1,1.71,1.71,0,0,1-1.9-2v-3.63h0.91v3.73a1,1,0,0,0,1.12,1.11,1.55,1.55,0,0,0,1.63-1.73v-3.12h0.91Z"/><path class="gs14-12" d="M245.93,344.07H247v0.8h-1.1v3.42c0,0.42.12,0.49,0.68,0.49H247v0.8h-0.69c-0.94,0-1.31-.19-1.31-1.21v-3.51h-0.94v-0.8H245v-1.65h0.91v1.66Z"/><path class="gs14-12" d="M252.46,347.83a2.22,2.22,0,0,1-2.36,1.88c-1.76,0-2.59-1.22-2.65-2.9a2.65,2.65,0,0,1,2.42-2.86H250c2,0,2.55,1.82,2.5,3.16h-4.13a1.62,1.62,0,0,0,1.41,1.8h0.31a1.33,1.33,0,0,0,1.43-1.08h0.9Zm-0.88-1.54a1.58,1.58,0,0,0-3.17,0h3.17Z"/><path class="gs14-12" d="M258.14,349.58h-0.91v-0.75h0a1.86,1.86,0,0,1-1.76.88c-1.7,0-2.54-1.34-2.54-2.9s0.83-2.87,2.52-2.87a2.11,2.11,0,0,1,1.78.86h0V342h0.91v7.62Zm-2.56-.67c1.22,0,1.68-1,1.68-2.08s-0.49-2.09-1.74-2.09-1.65,1.06-1.65,2.13a1.79,1.79,0,0,0,1.71,2h0Z"/><path class="gs14-12" d="M210.78,353h2.61c2.35,0,3.66,1.17,3.66,3.63s-1.12,4-3.66,4h-2.61V353Zm1,6.76h1.69c0.69,0,2.56-.19,2.56-3,0-1.81-.67-2.91-2.54-2.91h-1.71v5.91Z"/><path class="gs14-12" d="M222.76,360.57a1.22,1.22,0,0,1-.65.15,0.73,0.73,0,0,1-.77-0.85,2.45,2.45,0,0,1-1.94.85,1.56,1.56,0,0,1-1.82-1.55c0-1.1.93-1.51,1.87-1.7s1.86-.13,1.86-0.81a1,1,0,0,0-1.23-.92,1.13,1.13,0,0,0-1.38,1h-0.91c0.05-1.37,1.11-1.85,2.34-1.85,1,0,2.07.22,2.07,1.51v2.94c0,0.43,0,.62.29,0.62a0.77,0.77,0,0,0,.28,0v0.66Zm-1.47-2.83a4.66,4.66,0,0,1-1.64.37,1.06,1.06,0,0,0-1.11,1,0.85,0.85,0,0,0,1.07.81,1.48,1.48,0,0,0,1.69-1.25v-0.93Z"/><path class="gs14-12" d="M224.59,355.08h1.1v0.8h-1.1v3.46c0,0.42.12,0.49,0.68,0.49h0.42v0.8H225c-0.94,0-1.31-.19-1.31-1.21v-3.51h-0.94v-0.8h0.94v-1.65h0.91v1.62Z"/><path class="gs14-12" d="M231.34,360.57a1.22,1.22,0,0,1-.65.15,0.73,0.73,0,0,1-.77-0.85,2.45,2.45,0,0,1-1.94.85,1.56,1.56,0,0,1-1.82-1.55c0-1.1.93-1.51,1.87-1.7s1.86-.13,1.86-0.81a1,1,0,0,0-1.23-.92,1.13,1.13,0,0,0-1.38,1h-0.94c0.05-1.37,1.11-1.85,2.34-1.85,1,0,2.07.22,2.07,1.51v2.94c0,0.43,0,.62.29,0.62a0.77,0.77,0,0,0,.28,0Zm-1.47-2.83a4.66,4.66,0,0,1-1.64.37,1.06,1.06,0,0,0-1.11,1,0.85,0.85,0,0,0,1.07.81,1.48,1.48,0,0,0,1.69-1.25v-0.93Z"/><path class="gs14-12" d="M239.13,355.21a1.66,1.66,0,0,0-1.74-1.57h-0.15c-0.85,0-1.71.31-1.71,1.3s1.22,1.08,2.44,1.35,2.43,0.7,2.43,2.2-1.59,2.27-3,2.27c-1.71,0-3.15-.83-3.15-2.69h1c0,1.28,1.07,1.83,2.22,1.83,0.92,0,1.93-.29,1.93-1.39s-1.22-1.23-2.43-1.49-2.44-.62-2.44-2,1.38-2.23,2.76-2.23c1.56,0,2.74.74,2.81,2.41h-1Z"/><path class="gs14-12" d="M242.48,355.08h1.1v0.8h-1.1v3.46c0,0.42.12,0.49,0.68,0.49h0.42v0.8h-0.69c-0.94,0-1.31-.19-1.31-1.21v-3.51h-0.94v-0.8h0.94v-1.65h0.91v1.62Z"/><path class="gs14-12" d="M246.69,354.95A2.89,2.89,0,1,1,244,358q0-.1,0-0.2a2.62,2.62,0,0,1,2.33-2.88h0.35Zm0,5a2.12,2.12,0,1,0-1.72-2.08,1.79,1.79,0,0,0,1.72,2v0Z"/><path class="gs14-12" d="M250.13,355.08H251v1.16h0a2,2,0,0,1,2-1.29v1c-1.46,0-2,.83-2,2.23v2.45h-0.91Z"/><path class="gs14-12" d="M258,358.84a2.22,2.22,0,0,1-2.36,1.88c-1.76,0-2.59-1.22-2.65-2.9a2.65,2.65,0,0,1,2.42-2.86h0.17c2,0,2.55,1.82,2.5,3.16h-4.13a1.62,1.62,0,0,0,1.41,1.8h0.31a1.33,1.33,0,0,0,1.43-1.08H258Zm-0.87-1.54a1.59,1.59,0,0,0-3.17,0h3.17Z"/><path class="gs14-12" d="M307.73,344.26a2,2,0,0,0-2.13-1.62c-1.81,0-2.58,1.49-2.58,3.08s0.77,3.19,2.59,3.19a2.15,2.15,0,0,0,2.2-2.1s0-.07,0-0.1h1a3.1,3.1,0,0,1-3.14,3.06h-0.16c-2.37,0-3.52-1.75-3.52-4s1.26-4,3.6-4a2.91,2.91,0,0,1,3.14,2.47Z"/><path class="gs14-12" d="M312,343.94a2.89,2.89,0,1,1-2.67,3.09q0-.1,0-0.2a2.62,2.62,0,0,1,2.33-2.88H312Zm0,5a2.12,2.12,0,1,0-1.72-2.08,1.79,1.79,0,0,0,1.72,2v0Z"/><path class="gs14-12" d="M315.51,344.07h0.83v0.88h0a1.92,1.92,0,0,1,1.79-1,1.71,1.71,0,0,1,1.9,2v3.63h-0.91v-3.73a1,1,0,0,0-1.12-1.11,1.55,1.55,0,0,0-1.63,1.73v3.11h-0.91Z"/><path class="gs14-12" d="M321.72,347.84a1.22,1.22,0,0,0,1.48,1.07c0.57,0,1.33-.13,1.33-0.82s-0.9-.82-1.8-1-1.8-.5-1.8-1.56A1.84,1.84,0,0,1,323,344c1.22,0,2.19.38,2.26,1.73h-0.91a1.11,1.11,0,0,0-1.28-.93c-0.6,0-1.17.15-1.17,0.7s1,0.76,1.8,1,1.8,0.5,1.8,1.57c0,1.31-1.23,1.74-2.35,1.74s-2.28-.5-2.33-1.87Z"/><path class="gs14-12" d="M330.8,349.58h-0.85v-0.87h0a1.92,1.92,0,0,1-1.79,1,1.71,1.71,0,0,1-1.9-2v-3.63h0.91v3.73a1,1,0,0,0,1.12,1.11,1.55,1.55,0,0,0,1.63-1.73v-3.12h0.91Z"/><path class="gs14-12" d="M331.89,344.07h0.85v0.81h0a2,2,0,0,1,1.78-.94,1.46,1.46,0,0,1,1.51.94,2,2,0,0,1,1.73-.94,1.54,1.54,0,0,1,1.83,1.6v4h-0.91v-3.62a1,1,0,0,0-1.07-1.23,1.34,1.34,0,0,0-1.44,1.41v3.43h-0.83v-3.62a1,1,0,0,0-1-1.23,1.49,1.49,0,0,0-1.47,1.41v3.43H332Z"/><path class="gs14-12" d="M345.42,347.83a2.22,2.22,0,0,1-2.36,1.88c-1.76,0-2.59-1.22-2.65-2.9a2.65,2.65,0,0,1,2.42-2.86H343c2,0,2.55,1.82,2.5,3.16h-4.16a1.62,1.62,0,0,0,1.41,1.8h0.31a1.33,1.33,0,0,0,1.43-1.08h0.93Zm-0.87-1.54a1.59,1.59,0,0,0-3.17,0h3.17Z"/><path class="gs14-12" d="M346.14,344.07H347v1.16h0a2,2,0,0,1,2-1.29v1c-1.46,0-2,.83-2,2.23v2.45h-0.91Z"/><path class="gs14-12" d="M296,353h1.39l2.4,6.4,2.41-6.4h1.39v7.62h-1v-6.34h0l-2.38,6.34h-0.86L297,354.26h0v6.34h-1Z"/><path class="gs14-12" d="M309.78,360.57a1.22,1.22,0,0,1-.65.15,0.73,0.73,0,0,1-.77-0.85,2.45,2.45,0,0,1-1.94.85,1.56,1.56,0,0,1-1.82-1.55c0-1.1.93-1.51,1.87-1.7s1.86-.13,1.86-0.81a1,1,0,0,0-1.23-.92,1.13,1.13,0,0,0-1.38,1h-0.91c0-1.37,1.11-1.85,2.34-1.85,1,0,2.07.22,2.07,1.51v2.94c0,0.43,0,.62.29,0.62a0.77,0.77,0,0,0,.28,0v0.66Zm-1.44-2.82a4.66,4.66,0,0,1-1.64.37,1.06,1.06,0,0,0-1.11,1,0.85,0.85,0,0,0,1.07.81,1.48,1.48,0,0,0,1.69-1.25v-0.93Z"/><path class="gs14-12" d="M310.34,355.08h0.85V356h0a1.92,1.92,0,0,1,1.79-1,1.71,1.71,0,0,1,1.9,2v3.63H314v-3.73a1,1,0,0,0-1.12-1.11,1.55,1.55,0,0,0-1.63,1.73v3.11h-0.88v-5.51Z"/><path class="gs14-12" d="M320.89,360.57a1.22,1.22,0,0,1-.65.15,0.73,0.73,0,0,1-.77-0.85,2.45,2.45,0,0,1-1.94.85,1.56,1.56,0,0,1-1.82-1.55c0-1.1.93-1.51,1.87-1.7s1.86-.13,1.86-0.81a1,1,0,0,0-1.23-.92,1.13,1.13,0,0,0-1.38,1h-0.91c0-1.37,1.11-1.85,2.34-1.85,1,0,2.07.22,2.07,1.51v2.94c0,0.43,0,.62.29,0.62a0.77,0.77,0,0,0,.28,0v0.66Zm-1.47-2.83a4.66,4.66,0,0,1-1.64.37,1.06,1.06,0,0,0-1.11,1,0.85,0.85,0,0,0,1.07.81,1.48,1.48,0,0,0,1.69-1.25v-0.93Z"/><path class="gs14-12" d="M326.22,360.12c0,1.79-.82,2.71-2.56,2.71-1,0-2.23-.42-2.28-1.62h0.91c0,0.66.83,0.9,1.43,0.9,1.18,0,1.65-.85,1.65-2.09v-0.36h0a1.84,1.84,0,0,1-1.72,1,2.5,2.5,0,0,1-2.46-2.79c0-1.3.64-2.91,2.55-2.91a1.8,1.8,0,0,1,1.64.92h0v-0.79h0.85v5Zm-0.9-2.4c0-1-.43-2-1.57-2a1.75,1.75,0,0,0-1.63,2c0,1,.36,2.1,1.56,2.1s1.66-1.06,1.66-2.1h0Z"/><path class="gs14-12" d="M332,358.84a2.22,2.22,0,0,1-2.36,1.88c-1.76,0-2.59-1.22-2.65-2.9a2.65,2.65,0,0,1,2.42-2.86h0.17c2,0,2.55,1.82,2.5,3.16H328a1.62,1.62,0,0,0,1.41,1.8h0.31a1.33,1.33,0,0,0,1.43-1.08H332Zm-0.87-1.54a1.59,1.59,0,0,0-3.17,0h3.17Z"/><path class="gs14-12" d="M332.78,355.08h0.85v0.81h0a2,2,0,0,1,1.78-.94,1.46,1.46,0,0,1,1.51.94,2,2,0,0,1,1.73-.94,1.54,1.54,0,0,1,1.83,1.6v4h-0.91v-3.62a1,1,0,0,0-1.07-1.23,1.34,1.34,0,0,0-1.44,1.41v3.43h-0.91v-3.62a1,1,0,0,0-1-1.23,1.49,1.49,0,0,0-1.47,1.41v3.43h-0.91v-5.45Z"/><path class="gs14-12" d="M346.34,358.84a2.22,2.22,0,0,1-2.36,1.88c-1.76,0-2.59-1.22-2.65-2.9a2.65,2.65,0,0,1,2.42-2.86h0.17c2,0,2.55,1.82,2.5,3.16h-4.13a1.62,1.62,0,0,0,1.41,1.8H344a1.33,1.33,0,0,0,1.43-1.08h0.9Zm-0.87-1.54a1.59,1.59,0,0,0-3.17,0h3.17Z"/><path class="gs14-12" d="M347.06,355.08h0.85V356h0a1.92,1.92,0,0,1,1.79-1,1.71,1.71,0,0,1,1.9,2v3.63h-0.91v-3.73a1,1,0,0,0-1.12-1.11,1.55,1.55,0,0,0-1.63,1.73v3.11H347Z"/><path class="gs14-12" d="M354,355.08h1.1v0.8H354v3.46c0,0.42.12,0.49,0.68,0.49h0.42v0.8h-0.74c-0.94,0-1.31-.19-1.31-1.21v-3.51h-0.94v-0.8H353v-1.65h0.91Z"/><path class="gs14-12" d="M400.52,347.34h3.34a2.25,2.25,0,0,1,0,4.5h-2.33v3.11h-1v-7.61Zm1,3.65h2c1.14,0,1.66-.49,1.66-1.4s-0.52-1.4-1.66-1.4h-2V351Z"/><path class="gs14-12" d="M407.07,347.34H408V355h-0.91v-7.62Z"/><path class="gs14-12" d="M413.68,355h-0.85v-0.87h0a1.92,1.92,0,0,1-1.79,1,1.71,1.71,0,0,1-1.9-2v-3.63H410v3.73a1,1,0,0,0,1.09,1.15,1.55,1.55,0,0,0,1.63-1.73v-3.12h0.91V355Z"/><path class="gs14-12" d="M419.53,354.49c0,1.79-.82,2.71-2.56,2.71-1,0-2.23-.42-2.28-1.62h0.91c0,0.66.83,0.9,1.43,0.9,1.18,0,1.65-.85,1.65-2.09V354h0a1.84,1.84,0,0,1-1.72,1,2.5,2.5,0,0,1-2.46-2.79c0-1.3.64-2.91,2.55-2.91a1.8,1.8,0,0,1,1.64.92h0v-0.79h0.85v5Zm-0.9-2.4c0-1-.43-2-1.57-2a1.75,1.75,0,0,0-1.63,2c0,1,.36,2.1,1.56,2.1S418.63,353.13,418.63,352.09Z"/><path class="gs14-12" d="M421.59,348.46h-0.91v-1.12h0.91v1.12Zm-0.91,1h0.91V355h-0.91v-5.51Z"/><path class="gs14-12" d="M422.73,349.45h0.85v0.89h0a1.92,1.92,0,0,1,1.79-1,1.71,1.71,0,0,1,1.9,2V355h-0.93v-3.73a1,1,0,0,0-1.12-1.11,1.55,1.55,0,0,0-1.63,1.73V355h-0.91Z"/><path class="gs14-12" d="M428.94,353.23a1.22,1.22,0,0,0,1.48,1.07c0.57,0,1.33-.13,1.33-0.82s-0.9-.82-1.8-1-1.8-.5-1.8-1.56a1.84,1.84,0,0,1,2.06-1.57c1.22,0,2.19.38,2.26,1.73h-0.91a1.11,1.11,0,0,0-1.28-.93c-0.6,0-1.17.15-1.17,0.7s1,0.76,1.8,1,1.8,0.5,1.8,1.57c0,1.31-1.23,1.74-2.35,1.74s-2.28-.5-2.33-1.87Z"/><rect class="gs14-11" x="193.14" y="302.22" width="264.87" height="25.49" rx="3.14" ry="3.14"/><path class="gs14-12" d="M255.51,313.1a2.63,2.63,0,0,0-2.8-2.13c-2.38,0-3.39,2-3.39,4,0,2.28,1,4.19,3.4,4.19a2.83,2.83,0,0,0,2.89-2.77s0-.07,0-0.11h1.33a4.07,4.07,0,0,1-4.13,4h-0.2c-3.11,0-4.62-2.3-4.62-5.21s1.65-5.27,4.73-5.27a3.83,3.83,0,0,1,4.12,3.25Z"/><path class="gs14-12" d="M264.43,317.79a2.92,2.92,0,0,1-3.1,2.46c-2.31,0-3.4-1.6-3.47-3.81a3.49,3.49,0,0,1,3.2-3.76h0.2c2.56,0,3.35,2.4,3.28,4.15h-5.42a2.13,2.13,0,0,0,2.26,2.38,1.74,1.74,0,0,0,1.88-1.41h1.17Zm-1.15-2a2.08,2.08,0,1,0-4.16,0h4.16Z"/><path class="gs14-12" d="M265.63,312.85h1.12V314h0a2.52,2.52,0,0,1,2.35-1.32c1.91,0,2.49,1.09,2.49,2.65v4.76h-1.15v-4.9a1.36,1.36,0,0,0-1.25-1.46H269a2,2,0,0,0-2.14,2.27v4.09h-1.19v-7.24Z"/><path class="gs14-12" d="M274.93,312.85h1.41v1H274.9v4.5c0,0.55.15,0.64,0.9,0.64h0.54v1h-0.91c-1.23,0-1.72-.25-1.72-1.58V313.9h-1.23v-1h1.23v-2.17h1.19Z"/><path class="gs14-12" d="M277.51,312.85h1.12v1.49h0a2.63,2.63,0,0,1,2.66-1.7v1.26c-1.92,0-2.62,1.09-2.62,2.93V320h-1.19Z"/><path class="gs14-12" d="M288.48,320.06a1.6,1.6,0,0,1-.85.2,1,1,0,0,1-1-1.12,3.21,3.21,0,0,1-2.55,1.12c-1.32,0-2.4-.59-2.4-2,0-1.64,1.22-2,2.45-2.23s2.44-.17,2.44-1.06a1.38,1.38,0,0,0-1.61-1.21c-1,0-1.75.31-1.81,1.37H282c0.07-1.79,1.46-2.42,3.07-2.42,1.3,0,2.72.29,2.72,2v3.73c0,0.56,0,.81.38,0.81a1,1,0,0,0,.36-0.07v0.88Zm-1.93-3.72a6.12,6.12,0,0,1-2.16.49c-0.78.14-1.46,0.42-1.46,1.3s0.67,1.06,1.4,1.06c1.57,0,2.21-1,2.21-1.64v-1.21Z"/><path class="gs14-12" d="M289.52,310.09h1.19v10h-1.19v-10Z"/><path class="gs14-12" d="M293.67,311.55h-1.19v-1.46h1.19v1.46Zm-1.19,1.3h1.19v7.24h-1.19v-7.24Z"/><path class="gs14-12" d="M294.79,319.18l4.37-5.28h-4.09v-1h5.63v0.81L296.27,319h4.62v1h-6.11v-0.91Z"/><path class="gs14-12" d="M308.14,317.79a2.92,2.92,0,0,1-3.1,2.46c-2.31,0-3.4-1.6-3.47-3.81a3.49,3.49,0,0,1,3.2-3.76H305c2.56,0,3.35,2.4,3.28,4.15h-5.42a2.13,2.13,0,0,0,2.26,2.38,1.74,1.74,0,0,0,1.88-1.41h1.17Zm-1.15-2a2.08,2.08,0,1,0-4.16,0H307Z"/><path class="gs14-12" d="M315.81,320.09h-1.19v-1h0a2.44,2.44,0,0,1-2.31,1.15c-2.23,0-3.33-1.76-3.33-3.81s1.09-3.77,3.31-3.77a2.77,2.77,0,0,1,2.34,1.13h0v-3.73h1.19v10Zm-3.36-.88c1.6,0,2.21-1.37,2.21-2.73s-0.64-2.75-2.28-2.75-2.17,1.39-2.17,2.8,0.7,2.68,2.24,2.68h0Z"/><path class="gs14-12" d="M328.48,313.1a2.63,2.63,0,0,0-2.8-2.13c-2.38,0-3.39,2-3.39,4,0,2.28,1,4.19,3.4,4.19a2.83,2.83,0,0,0,2.89-2.77s0-.07,0-0.11h1.33a4.07,4.07,0,0,1-4.13,4h-0.2c-3.11,0-4.62-2.3-4.62-5.21s1.65-5.27,4.73-5.27a3.83,3.83,0,0,1,4.12,3.25Z"/><path class="gs14-12" d="M334.34,312.68c2.3,0,3.52,1.67,3.52,3.8s-1.22,3.78-3.52,3.78-3.52-1.67-3.52-3.78S332,312.68,334.34,312.68Zm0,6.53c1.25,0,2.25-1,2.25-2.73s-1-2.75-2.25-2.75-2.26,1-2.26,2.75S333.1,319.21,334.34,319.21Z"/><path class="gs14-12" d="M339.12,312.85h1.12V314h0a2.52,2.52,0,0,1,2.35-1.32c1.91,0,2.49,1.09,2.49,2.65v4.76h-1.19v-4.9a1.36,1.36,0,0,0-1.25-1.46h-0.22a2,2,0,0,0-2.14,2.27v4.09h-1.19Z"/><path class="gs14-12" d="M347.25,313.9H346v-1h1.22v-1.08c0-1.18.7-1.79,2-1.79a2.91,2.91,0,0,1,.77.11v1a2.22,2.22,0,0,0-.67-0.1,0.74,0.74,0,0,0-.91.81v1h1.4v1h-1.4V320h-1.19V313.9Z"/><path class="gs14-12" d="M352,311.55h-1.19v-1.46H352v1.46Zm-1.19,1.3H352v7.24h-1.19v-7.24Z"/><path class="gs14-12" d="M360,319.48c0,2.35-1.08,3.56-3.36,3.56-1.36,0-2.93-.55-3-2.13h1.19c0.06,0.87,1.09,1.18,1.88,1.18,1.55,0,2.17-1.12,2.17-2.75v-0.48h0a2.41,2.41,0,0,1-2.25,1.32c-2.16,0-3.24-1.7-3.24-3.67,0-1.71.84-3.82,3.35-3.82a2.36,2.36,0,0,1,2.16,1.21h0v-1H360Zm-1.18-3.14c0-1.28-.56-2.59-2.06-2.59s-2.14,1.25-2.14,2.63,0.48,2.76,2,2.76S358.8,317.68,358.8,316.34Z"/><path class="gs14-12" d="M367.62,320.09H366.5v-1.15h0a2.52,2.52,0,0,1-2.35,1.32c-1.91,0-2.49-1.09-2.49-2.65v-4.76h1.19v4.9a1.36,1.36,0,0,0,1.25,1.46h0.22a2,2,0,0,0,2.14-2.27v-4.09h1.19Z"/><path class="gs14-12" d="M369.23,312.85h1.11v1.49h0a2.63,2.63,0,0,1,2.66-1.7v1.26c-1.92,0-2.62,1.09-2.62,2.93V320h-1.19Z"/><path class="gs14-12" d="M380.21,320.06a1.6,1.6,0,0,1-.85.2,1,1,0,0,1-1-1.12,3.21,3.21,0,0,1-2.55,1.12c-1.32,0-2.4-.59-2.4-2,0-1.64,1.22-2,2.45-2.23s2.44-.17,2.44-1.06a1.38,1.38,0,0,0-1.61-1.21c-1,0-1.75.31-1.81,1.37h-1.19c0.07-1.79,1.46-2.42,3.07-2.42,1.3,0,2.72.29,2.72,2v3.73c0,0.56,0,.81.38,0.81a1,1,0,0,0,.36-0.07v0.88Zm-1.93-3.72a6.12,6.12,0,0,1-2.16.49c-0.78.14-1.46,0.42-1.46,1.3s0.67,1.06,1.4,1.06c1.57,0,2.21-1,2.21-1.64v-1.21Z"/><path class="gs14-12" d="M382.82,312.85h1.44v1h-1.44v4.5c0,0.55.15,0.64,0.9,0.64h0.55v1h-0.93c-1.23,0-1.72-.25-1.72-1.58V313.9h-1.23v-1h1.23v-2.17h1.19v2.17Z"/><path class="gs14-12" d="M386.7,311.55h-1.19v-1.46h1.19v1.46Zm-1.19,1.3h1.19v7.24h-1.19v-7.24Z"/><path class="gs14-12" d="M391.53,312.68c2.3,0,3.52,1.67,3.52,3.8s-1.22,3.78-3.52,3.78-3.52-1.67-3.52-3.78S389.23,312.68,391.53,312.68Zm0,6.53c1.25,0,2.25-1,2.25-2.73s-1-2.75-2.25-2.75-2.26,1-2.26,2.75S390.29,319.21,391.53,319.21Z"/><path class="gs14-12" d="M396.34,312.85h1.12V314h0a2.52,2.52,0,0,1,2.35-1.32c1.91,0,2.49,1.09,2.49,2.65v4.76h-1.19v-4.9a1.36,1.36,0,0,0-1.25-1.46h-0.22A2,2,0,0,0,397.5,316v4.09h-1.16v-7.24Z"/><path class="gs14-10" d="M205.93,274.93h6.91V276h-5.58v3.18h5.2v1.11h-5.2v3.46h5.62v1.12h-6.95v-10Z"/><path class="gs14-10" d="M215.88,281.12l-2.54-3.44h1.53l1.74,2.54,1.81-2.54h1.43L217.34,281l2.8,3.91h-1.5l-2-3-2,3H213.2Z"/><path class="gs14-10" d="M220.88,277.68h1.19v1h0a2.44,2.44,0,0,1,2.31-1.15c2.23,0,3.33,1.77,3.33,3.81s-1.09,3.77-3.31,3.77a2.77,2.77,0,0,1-2.34-1.13h0v3.74h-1.19v-10Zm3.36,0.88c-1.6,0-2.21,1.37-2.21,2.73s0.64,2.74,2.28,2.74,2.17-1.39,2.17-2.8-0.7-2.66-2.24-2.66h0Z"/><path class="gs14-10" d="M228.75,277.68h1.12v1.53h0a2.64,2.64,0,0,1,2.66-1.7v1.26c-1.92,0-2.62,1.09-2.62,2.93v3.22h-1.19Z"/><path class="gs14-10" d="M239,282.63a2.92,2.92,0,0,1-3.1,2.46c-2.31,0-3.4-1.6-3.47-3.81a3.49,3.49,0,0,1,3.2-3.76h0.2c2.56,0,3.35,2.4,3.28,4.15h-5.42A2.13,2.13,0,0,0,236,284a1.74,1.74,0,0,0,1.88-1.41H239Zm-1.15-2a2.08,2.08,0,1,0-4.16,0h4.16Z"/><path class="gs14-10" d="M240.75,282.64c0,1.06,1,1.4,1.95,1.4,0.74,0,1.75-.17,1.75-1.08s-1.18-1.08-2.37-1.34-2.37-.66-2.37-2,1.44-2.06,2.7-2.06c1.6,0,2.87.51,3,2.27h-1.19a1.46,1.46,0,0,0-1.68-1.22c-0.78,0-1.54.2-1.54,0.93s1.26,1,2.37,1.26,2.37,0.66,2.37,2.06c0,1.72-1.61,2.28-3.08,2.28s-3-.66-3.07-2.45Z"/><path class="gs14-10" d="M247.4,282.64c0,1.06,1,1.4,1.95,1.4,0.74,0,1.75-.17,1.75-1.08s-1.18-1.08-2.37-1.34-2.37-.66-2.37-2,1.44-2.06,2.7-2.06c1.6,0,2.87.51,3,2.27h-1.22a1.46,1.46,0,0,0-1.68-1.22c-0.78,0-1.54.2-1.54,0.93s1.26,1,2.37,1.26,2.37,0.66,2.37,2.06c0,1.72-1.61,2.28-3.08,2.28s-3-.66-3.07-2.45Z"/><path class="gs14-10" d="M257.06,274.93h4.71c1.88,0,3,1,3,2.62a2.4,2.4,0,0,1-1.74,2.54h0c1.16,0.22,1.4,1.08,1.5,2.06a5.13,5.13,0,0,0,.59,2.76h-1.48c-0.38-.41-0.17-1.48-0.36-2.46s-0.38-1.81-1.67-1.81h-3.27v4.27H257Zm4.1,4.61c1.25,0,2.31-.32,2.31-1.78a1.58,1.58,0,0,0-1.78-1.71h-3.35v3.49h2.82Z"/><path class="gs14-10" d="M272.09,284.93H271v-1.15h0a2.52,2.52,0,0,1-2.35,1.32c-1.9,0-2.49-1.09-2.49-2.65v-4.76h1.19v4.9a1.36,1.36,0,0,0,1.25,1.46h0.22a2,2,0,0,0,2.14-2.27v-4.09h1.19Z"/><path class="gs14-10" d="M273.53,277.68h1.12v1.15h0a2.52,2.52,0,0,1,2.35-1.32c1.9,0,2.49,1.09,2.49,2.65v4.76h-1.15V280a1.36,1.36,0,0,0-1.25-1.46h-0.22a2,2,0,0,0-2.14,2.27v4.09h-1.19v-7.24Z"/><path class="gs14-10" d="M282.62,277.68h1.44v1h-1.44v4.5c0,0.55.15,0.64,0.9,0.64h0.55v1h-0.91c-1.23,0-1.72-.25-1.72-1.58v-4.61h-1.23v-1h1.23v-2.17h1.19v2.17Z"/><path class="gs14-10" d="M286.29,276.34H285.1v-1.46h1.19v1.46Zm-1.19,1.3h1.19v7.24H285.1v-7.24Z"/><path class="gs14-10" d="M287.79,277.68h1.12v1.06h0a2.67,2.67,0,0,1,2.34-1.23,1.92,1.92,0,0,1,2,1.23,2.68,2.68,0,0,1,2.27-1.23c1.44,0,2.41.6,2.41,2.1v5.31h-1.19v-4.75c0-.9-0.24-1.61-1.4-1.61a1.75,1.75,0,0,0-1.89,1.85v4.51h-1.19v-4.75c0-.94-0.29-1.61-1.36-1.61a2,2,0,0,0-1.93,1.85v4.51h-1.19v-7.24Z"/><path class="gs14-10" d="M305.55,282.63a2.92,2.92,0,0,1-3.1,2.46c-2.31,0-3.4-1.6-3.47-3.81a3.49,3.49,0,0,1,3.2-3.76h0.2c2.56,0,3.35,2.4,3.28,4.15h-5.42a2.13,2.13,0,0,0,2.25,2.38,1.74,1.74,0,0,0,1.88-1.41h1.18Zm-1.15-2a2.08,2.08,0,1,0-4.16,0h4.16Z"/><rect class="gs14-13" x="175.79" y="0.25" width="306.94" height="424.64"/><rect class="gs14-5" x="203.96" y="267.7" width="11.87" height="2.09"/><path class="gs14-10" d="M212.64,73.69h0.83v0.83h-0.83V73.69Z"/><path class="gs14-10" d="M214.53,73.69h0.81v0.83h-0.83Z"/><path class="gs14-10" d="M216.41,73.69h0.83v0.83h-0.83V73.69Z"/><path class="gs14-14" d="M398.45,261.85h-0.27c0.25,0.68.5,0.08,0.76,0.08,3,0,5.4-45.71,5.4-103.26s-2.42-104.22-5.4-104.22a0.67,0.67,0,0,0-.49.43"/><path class="gs14-14" d="M398.45,54.88V53.41H211v0.13c-2.51,8.91-4.42,54-4.42,105.13s1.9,97.49,4.42,102.49a1.65,1.65,0,0,0,1.74.69H398.18c-2.62-7.14-4.64-50.61-4.64-103.18C393.54,104.34,395.7,59.67,398.45,54.88Z"/><line class="gs14-14" x1="211.21" y1="60.85" x2="218.37" y2="60.85"/><line class="gs14-14" x1="211.86" y1="261.86" x2="218.77" y2="261.86"/><rect class="gs14-15" x="240.85" y="63.17" width="66.55" height="181.17" rx="2.9" ry="2.9"/><path class="gs14-10" d="M260.81,82.69h3.44a2.32,2.32,0,0,1,0,4.64h-2.4v3.21h-1Zm1,3.76h2c1.18,0,1.72-.51,1.72-1.44s-0.54-1.44-1.72-1.44h-2v2.88Z"/><path class="gs14-10" d="M270,84.73A3,3,0,1,1,267.21,88q0-.11,0-0.23a2.7,2.7,0,0,1,2.38-3Zm0,5.13a1.86,1.86,0,0,0,1.77-2.15A1.8,1.8,0,1,0,270,89.86Z"/><path class="gs14-10" d="M273.6,82.69h0.94v7.86H273.6V82.69Z"/><path class="gs14-10" d="M276.7,83.84h-0.94V82.69h0.94v1.15Zm-0.94,1h0.94v5.69h-0.94V84.84Z"/><path class="gs14-10" d="M281.74,86.69a1.32,1.32,0,0,0-1.4-1.14c-1.35,0-1.77,1.07-1.77,2.22s0.47,2.08,1.66,2.08a1.47,1.47,0,0,0,1.56-1.38h1a2.36,2.36,0,0,1-2.5,2.21h0a2.59,2.59,0,0,1-2.66-2.9c0-1.71.88-3,2.68-3a2.18,2.18,0,0,1,2.44,1.89v0.11Z"/><path class="gs14-10" d="M285.74,91.34c-0.43,1.11-.81,1.52-1.65,1.52a1.88,1.88,0,0,1-.65-0.1V91.9A1.93,1.93,0,0,0,284,92a0.81,0.81,0,0,0,.77-0.52l0.39-1-2.26-5.65h1.06l1.66,4.65h0l1.6-4.65h1Z"/><rect class="gs14-5" x="244.4" y="112.12" width="47.44" height="106.13" rx="2.9" ry="2.9"/><path class="gs14-16" d="M258.54,157.93h4.09c2.65,0,3.16,1.72,3.16,2.87s-0.51,2.86-3.16,2.85h-2.47v3.56h-1.62v-9.28Zm1.63,4.39h2.38a1.48,1.48,0,0,0,1.63-1.53,1.38,1.38,0,0,0-1.6-1.53h-2.41v3.06Z"/><path class="gs14-16" d="M266.68,160.49h1.39v1.3h0a2.17,2.17,0,0,1,2-1.48,3.56,3.56,0,0,1,.56,0v1.43a5.41,5.41,0,0,0-.64-0.06c-1,0-1.82.82-1.82,2.3v3.2h-1.48v-6.69Z"/><path class="gs14-16" d="M270.34,163.84a3.4,3.4,0,1,1,3.39,3.55A3.25,3.25,0,0,1,270.34,163.84Zm5.3,0c0-1.16-.58-2.37-1.91-2.37s-1.91,1.21-1.91,2.37,0.58,2.38,1.91,2.38a2.12,2.12,0,0,0,2-2.38h-0.05Z"/><path class="gs14-16" d="M279.89,163.67l-2.33-3.19h1.78l1.4,2.07,1.47-2.07h1.72l-2.29,3.11,2.57,3.61h-1.78l-1.7-2.48-1.65,2.48h-1.74Z"/><path class="gs14-16" d="M284,160.49h1.63l1.75,5h0l1.7-5h1.55L288,167.58c-0.48,1.21-.83,2.3-2.38,2.3a6.74,6.74,0,0,1-1-.08v-1.25a4.32,4.32,0,0,0,.7.09,0.94,0.94,0,0,0,1-.94l0.17-.52Z"/><path class="gs14-11" d="M216.62,53.41H225C224.17,53.34,220.14,53.34,216.62,53.41Z"/><path class="gs14-11" d="M225.17,53.53l175.12-.12H225c0.11,0,.17,0,0.17,0Z"/><path class="gs14-11" d="M211,53.41v0.13l5.59-.13H211Z"/><path class="gs14-11" d="M258.34,261.85h-1.42A10.67,10.67,0,0,0,258.34,261.85Z"/><path class="gs14-11" d="M400.34,261.5l-3.18-19.36H275.83c-13.69,0-31.53-1.73-43.63-19.36-11.3-16.47-15.92-48-15.92-71.85,0-33.21-2-87.31,34.76-97.4H211c-2.54,8.91-4.46,46.14-4.46,97.22s1.92,105.39,4.46,110.4a1.67,1.67,0,0,0,1.76.69h44.11a18.57,18.57,0,0,1-2.63-.35H400.34Z"/><path class="gs14-5" d="M220.07,247.22h4.07a2.75,2.75,0,0,1,.33,5.49h-3.13v3.8h-1.23Zm1.23,4.45h2.42c1.39,0,2-.6,2-1.7s-0.64-1.7-2-1.7h-2.38Z"/><path class="gs14-5" d="M229.16,248.57h-1.11v-1.35h1.11v1.35Zm-1.11,1.21h1.11v6.72h-1.11v-6.72Z"/><path class="gs14-5" d="M230.59,249.78h1.11v0.91h0a2.27,2.27,0,0,1,2.15-1.07c2.07,0,3.09,1.64,3.09,3.54s-1,3.5-3.07,3.5a2.58,2.58,0,0,1-2.17-1.05h0v3.47h-1.11v-9.3Zm3.12,0.82c-1.48,0-2.05,1.27-2.05,2.54s0.6,2.55,2.12,2.55,2-1.29,2-2.6-0.64-2.49-2.07-2.49h0Z"/><path class="gs14-5" d="M243.66,254.34a2.71,2.71,0,0,1-2.87,2.29c-2.14,0-3.16-1.48-3.22-3.54a3.24,3.24,0,0,1,3-3.49h0.19c2.38,0,3.11,2.22,3,3.85h-5a2,2,0,0,0,1.78,2.2h0.31a1.62,1.62,0,0,0,1.74-1.31h1.1Zm-1.07-1.87a1.93,1.93,0,0,0-3.86,0h3.86Z"/><path class="gs14-5" d="M244.65,247.22h1.11v9.28h-1.11v-9.28Z"/><path class="gs14-5" d="M248.34,248.57h-1.11v-1.35h1.11v1.35Zm-1.11,1.21h1.11v6.72h-1.11v-6.72Z"/><path class="gs14-5" d="M249.71,249.78h1v1.07h0a2.34,2.34,0,0,1,2.18-1.22c1.77,0,2.31,1,2.31,2.46v4.42h-1.11V252a1.27,1.27,0,0,0-1.18-1.35h-0.19a1.89,1.89,0,0,0-2,2.11v3.8h-1.1Z"/><path class="gs14-5" d="M262.34,254.34a2.71,2.71,0,0,1-2.87,2.29c-2.15,0-3.16-1.48-3.22-3.54a3.24,3.24,0,0,1,3-3.49h0.19c2.38,0,3.11,2.22,3,3.85h-5a2,2,0,0,0,1.78,2.2h0.31a1.62,1.62,0,0,0,1.74-1.31h1.1Zm-1.07-1.87a1.93,1.93,0,0,0-1.94-1.9,1.91,1.91,0,0,0-1.92,1.9h3.86Z"/><path class="gs14-5" d="M269.34,247.29c2.89,0,3.07,2.65,3.07,4.69s-0.18,4.68-3.07,4.68-3.07-2.65-3.07-4.68S266.45,247.29,269.34,247.29Zm0,8.4c1.88,0,1.9-2.34,1.9-3.72s0-3.71-1.9-3.71-1.9,2.34-1.9,3.71,0,3.71,1.9,3.71h0Z"/><path class="gs14-5" d="M275.46,251.24h0.48a1.56,1.56,0,0,0,1.74-1.36q0-.08,0-0.15a1.46,1.46,0,0,0-1.43-1.49H276a1.75,1.75,0,0,0-1.74,2h-1.1c0.06-1.75,1-3,2.85-3,1.6,0,2.81.77,2.81,2.47a2.11,2.11,0,0,1-1.27,1.83h0a2.1,2.1,0,0,1,1.66,2.24c0,1.85-1.44,2.81-3.17,2.81a2.79,2.79,0,0,1-3.07-3h1.11a1.87,1.87,0,0,0,1.73,2h0.27a1.83,1.83,0,0,0,2-1.65s0-.09,0-0.13A1.76,1.76,0,0,0,276.4,252l-0.27,0a5.47,5.47,0,0,0-.66,0v-0.81Z"/><path class="gs14-17" d="M490.34,121.43h1.77v1.65h0a2.75,2.75,0,0,1,2.49-1.88,4.47,4.47,0,0,1,.71,0V123a6.67,6.67,0,0,0-.81-0.08c-1.29,0-2.31,1-2.31,2.92v4.06h-1.85v-8.48Z"/><path class="gs14-17" d="M497.34,126.18a2.27,2.27,0,0,0,2,2.51h0.28a2,2,0,0,0,2.08-1.42h1.78a3.74,3.74,0,0,1-3.86,2.9c-2.67,0-4.17-1.86-4.17-4.49a4.13,4.13,0,1,1,8.15.48h-6.27Zm4.39-1.24a2.2,2.2,0,0,0-4.39,0h4.39Z"/><path class="gs14-17" d="M513.11,133.11h-1.88v-4.26h0a3.31,3.31,0,0,1-2.85,1.34c-2.52,0-3.68-2.16-3.68-4.45,0-2.49,1.3-4.54,4-4.54a2.85,2.85,0,0,1,2.64,1.39h0v-1.15h1.78v11.67Zm-4.21-4.4c1.63,0,2.39-1.22,2.39-3s-0.82-3-2.39-3-2.36,1.47-2.36,3,0.64,3,2.36,3h0Z"/><path class="gs14-17" d="M522.64,130h-1.85v-1.19h0a2.86,2.86,0,0,1-2.43,1.42c-2.23,0-3.18-1.12-3.18-3.35v-5.41h1.88v5.23c0,1.5.61,2,1.63,2,1.57,0,2.1-1,2.1-2.33v-4.95h1.88Z"/><path class="gs14-17" d="M526.09,126.18a2.27,2.27,0,0,0,2,2.51h0.28a2,2,0,0,0,2.08-1.42h1.78a3.73,3.73,0,0,1-3.86,2.9c-2.67,0-4.17-1.86-4.17-4.49a4.13,4.13,0,1,1,8.15.48h-6.27Zm4.39-1.24a2.2,2.2,0,1,0-4.39,0h4.39Z"/><path class="gs14-17" d="M535.22,127.22a1.66,1.66,0,0,0,1.93,1.48c0.71,0,2-.15,1.9-1.12s-1.42-1.11-2.79-1.42-2.74-.79-2.74-2.52,2-2.44,3.56-2.44c1.75,0,3.33.73,3.56,2.62h-2a1.5,1.5,0,0,0-1.73-1.14c-0.54,0-1.55.13-1.55,0.87,0,0.92,1.38,1.06,2.77,1.37s2.76,0.81,2.76,2.49c0,2-2,2.77-3.81,2.77-2.14,0-3.74-1-3.78-3Z"/><path class="gs14-17" d="M541.5,121.43h1.42v-2.56h1.88v2.56h1.7v1.4h-1.7v4.51c0,0.78.07,1.17,0.91,1.17a3.25,3.25,0,0,0,.79-0.07v1.45c-0.41,0-.81.1-1.22,0.1-2,0-2.33-.76-2.36-2.18v-5H541.5v-1.38Z"/><line class="gs14-18" x1="475.34" y1="125.01" x2="471.34" y2="125.01"/><line class="gs14-19" x1="463.53" y1="125.01" x2="186.25" y2="125.01"/><line class="gs14-18" x1="182.34" y1="125.01" x2="178.34" y2="125.01"/><path class="gs14-11" d="M276,112.34h87a12.75,12.75,0,0,1,12.75,12.75h0A12.75,12.75,0,0,1,363,137.84H276a12.75,12.75,0,0,1-12.75-12.75h0A12.75,12.75,0,0,1,276,112.34Z"/><path class="gs14-12" d="M272.58,120.7h3.76c1.72,0,2.6.79,2.6,2.12a1.91,1.91,0,0,1-1.3,2h0a1.44,1.44,0,0,1,1.17,1.66,3.57,3.57,0,0,0,.43,2.07h-1.47a2.19,2.19,0,0,1-.21-1.16c0-1.44-.3-2.08-1.56-2.08h-2v3.23h-1.37Zm1.38,3.58h2.26a1.16,1.16,0,0,0,1.34-1.25,1.13,1.13,0,0,0-1.36-1.2H274v2.45Z"/><path class="gs14-12" d="M280.86,126a1.51,1.51,0,0,0,1.33,1.67h0.2a1.32,1.32,0,0,0,1.39-.95H285a2.49,2.49,0,0,1-2.57,1.94,2.7,2.7,0,0,1-2.78-3,2.75,2.75,0,1,1,5.44.32h-4.2Zm2.93-.83a1.46,1.46,0,0,0-2.93,0h2.93Z"/><path class="gs14-12" d="M291.08,130.66h-1.25v-2.84h0a2.21,2.21,0,0,1-1.9.89c-1.68,0-2.45-1.44-2.45-3a2.7,2.7,0,0,1,2.66-3,1.9,1.9,0,0,1,1.76.92h0v-0.77h1.19v7.8Zm-2.8-2.94c1.09,0,1.59-.81,1.59-2s-0.55-2-1.59-2a1.77,1.77,0,0,0-1.57,2c0,1,.42,2,1.56,2h0Z"/><path class="gs14-12" d="M297.16,128.56h-1.23v-0.79h0a1.91,1.91,0,0,1-1.62.95c-1.49,0-2.12-.75-2.12-2.23v-3.61h1.25v3.46c0,1,.41,1.36,1.09,1.36a1.34,1.34,0,0,0,1.4-1.55v-3.3h1.25Z"/><path class="gs14-12" d="M299.18,126a1.51,1.51,0,0,0,1.33,1.67h0.2a1.32,1.32,0,0,0,1.39-.95h1.19a2.49,2.49,0,0,1-2.57,1.94,2.7,2.7,0,0,1-2.78-3,2.75,2.75,0,1,1,5.44.32h-4.2Zm2.93-.83a1.46,1.46,0,1,0-2.93,0h2.93Z"/><path class="gs14-12" d="M305,126.73a1.12,1.12,0,0,0,1.29,1c0.47,0,1.3-.1,1.26-0.75s-1-.74-1.86-0.95-1.83-.53-1.83-1.68,1.34-1.63,2.38-1.63a2.17,2.17,0,0,1,2.38,1.75h-1.27a1,1,0,0,0-1.16-.76c-0.36,0-1,.09-1,0.58s0.92,0.7,1.85.91,1.84,0.54,1.84,1.66c0,1.35-1.36,1.85-2.54,1.85-1.43,0-2.5-.64-2.52-2Z"/><path class="gs14-12" d="M308.91,122.87h1v-1.71h1.25v1.71h1.13v0.93h-1.13v3c0,0.52,0,.78.61,0.78a2.15,2.15,0,0,0,.53,0v1c-0.28,0-.54.07-0.81,0.07-1.31,0-1.55-.51-1.57-1.45v-3.36h-1v-1Z"/><path class="gs14-12" d="M315.09,122.87H316V122.4c0-1.45.76-1.69,1.57-1.69a3.54,3.54,0,0,1,.88.08v1a2.13,2.13,0,0,0-.58-0.07,0.53,0.53,0,0,0-.62.59v0.58h1.06v0.93h-1.07v4.75H316v-4.75h-0.94v-0.95Z"/><path class="gs14-12" d="M318.58,125.71a2.87,2.87,0,1,1,2.87,3A2.75,2.75,0,0,1,318.58,125.71Zm4.49,0a1.66,1.66,0,1,0-1.62,2,1.75,1.75,0,0,0,1.62-2h0Z"/><path class="gs14-12" d="M325.09,122.87h1.18V124h0a1.84,1.84,0,0,1,1.66-1.25,2.87,2.87,0,0,1,.47,0v1.21a4.36,4.36,0,0,0-.54-0.05c-0.86,0-1.54.69-1.54,1.95v2.71h-1.25Z"/><path class="gs14-12" d="M328.17,122.87h1.33l1.11,4.25h0l1.07-4.25h1.26l1,4.25h0l1.16-4.25h1.28l-1.78,5.69h-1.26l-1-4.22h0l-1,4.22H330Z"/><path class="gs14-12" d="M341.73,127.34c0,0.31.07,0.43,0.3,0.43h0.31v0.87a3.14,3.14,0,0,1-.79.14,0.89,0.89,0,0,1-1-.69,2.92,2.92,0,0,1-2,.69,1.73,1.73,0,0,1-1.94-1.49q0-.08,0-0.17c0-1.42,1.13-1.65,2.19-1.77,0.9-.17,1.71-0.07,1.71-0.8s-0.67-.77-1.18-0.77a1.06,1.06,0,0,0-1.25.9h-1.25c0.09-1.46,1.33-1.89,2.58-1.89s2.28,0.45,2.28,1.65Zm-1.25-1.58a4.48,4.48,0,0,1-1.54.34,1,1,0,0,0-1,.95,0.93,0.93,0,0,0,1.16.73,1.33,1.33,0,0,0,1.41-1.08Z"/><path class="gs14-12" d="M342.81,122.87H344V124h0a1.84,1.84,0,0,1,1.66-1.25,2.87,2.87,0,0,1,.47,0v1.21a4.36,4.36,0,0,0-.54-0.05c-0.86,0-1.54.69-1.54,1.95v2.71h-1.25Z"/><path class="gs14-12" d="M351.57,128.56h-1.23v-0.77h0a1.89,1.89,0,0,1-1.76.92c-1.79,0-2.66-1.33-2.66-3,0-2.06,1.22-3,2.46-3a2.19,2.19,0,0,1,1.89.89h0v-2.9h1.25Zm-2.8-.84a1.73,1.73,0,0,0,1.59-2c0-1.25-.61-2-1.57-2-1.18,0-1.59,1-1.59,2.07s0.47,1.93,1.56,1.93h0Z"/><path class="gs14-12" d="M352.69,120.7h1.25v1.19h-1.25V120.7Zm0,2.17h1.25v5.69h-1.25v-5.69Z"/><path class="gs14-12" d="M355,122.87h1.19v0.84h0a2,2,0,0,1,1.77-1,1.8,1.8,0,0,1,2,1.94v3.91h-1.25V125a1,1,0,0,0-1.11-1.28,1.39,1.39,0,0,0-1.37,1.41s0,0.06,0,.09v3.36H355Z"/><path class="gs14-12" d="M366.34,128.26c0,1.71-1,2.55-2.79,2.55-1.14,0-2.43-.44-2.54-1.77h1.25a1.16,1.16,0,0,0,1.36.84,1.29,1.29,0,0,0,1.46-1.45v-0.87h0a2,2,0,0,1-1.71,1c-1.8,0-2.55-1.36-2.55-3a2.63,2.63,0,0,1,2.4-2.84h0.17a1.79,1.79,0,0,1,1.68.94h0v-0.78h1.27v5.39Zm-1.25-2.67a1.6,1.6,0,0,0-1.53-1.88c-1.09,0-1.5,1-1.5,2a1.6,1.6,0,0,0,1.5,1.88,1.74,1.74,0,0,0,1.51-2h0Z"/><path class="gs14-17" d="M103.89,194.62h1.77v1.65h0a2.75,2.75,0,0,1,2.49-1.88,4.45,4.45,0,0,1,.71,0v1.81a6.66,6.66,0,0,0-.81-0.08c-1.29,0-2.31,1-2.31,2.92v4.06h-1.88Z"/><path class="gs14-17" d="M110.88,199.34a2.27,2.27,0,0,0,2,2.51h0.28a2,2,0,0,0,2.08-1.42H117a3.73,3.73,0,0,1-3.86,2.9c-2.67,0-4.17-1.86-4.17-4.49a4.13,4.13,0,1,1,8.15.48h-6.27Zm4.39-1.24a2.19,2.19,0,1,0-4.39,0h4.39Z"/><path class="gs14-17" d="M120,200.41a1.66,1.66,0,0,0,1.93,1.48c0.71,0,1.95-.15,1.9-1.12s-1.42-1.11-2.79-1.42-2.74-.79-2.74-2.52,2-2.44,3.56-2.44c1.75,0,3.33.73,3.56,2.62h-2a1.51,1.51,0,0,0-1.73-1.14c-0.54,0-1.55.13-1.55,0.87,0,0.92,1.39,1.06,2.77,1.37s2.75,0.81,2.75,2.49c0,2-2,2.77-3.81,2.77-2.14,0-3.74-1-3.78-3Z"/><path class="gs14-17" d="M127.19,194.62H129v1.15h0a2.85,2.85,0,0,1,2.64-1.39c2.69,0,4,2,4,4.54,0,2.29-1.15,4.45-3.68,4.45a3.32,3.32,0,0,1-2.85-1.34h0v4.31H127.2V194.62Zm4.21,1.25c-1.58,0-2.39,1.2-2.39,3s0.87,3,2.39,3c1.72,0,2.36-1.52,2.36-3s-0.81-3-2.36-3h0Z"/><path class="gs14-17" d="M136.83,198.87c0-2.61,1.57-4.49,4.31-4.49s4.3,1.88,4.3,4.49-1.57,4.5-4.3,4.5S136.83,201.49,136.83,198.87Zm6.73,0c0-1.47-.74-3-2.42-3s-2.42,1.53-2.42,3,0.74,3,2.42,3S143.56,200.34,143.56,198.87Z"/><path class="gs14-17" d="M147,194.62h1.78v1.25h0a3.06,3.06,0,0,1,2.66-1.52,2.7,2.7,0,0,1,3,2.9v5.86h-1.88v-5.36c0-1.34-.56-1.91-1.67-1.91a2.08,2.08,0,0,0-2.07,2.09s0,0.1,0,.15v5H147Z"/><path class="gs14-17" d="M157.9,200.41a1.66,1.66,0,0,0,1.93,1.48c0.71,0,1.95-.15,1.9-1.12s-1.39-1.11-2.79-1.43-2.74-.79-2.74-2.52,2-2.44,3.56-2.44c1.75,0,3.33.73,3.56,2.62h-2a1.51,1.51,0,0,0-1.73-1.14c-0.54,0-1.55.13-1.55,0.87,0,0.92,1.39,1.06,2.77,1.37s2.75,0.81,2.75,2.49c0,2-2,2.77-3.81,2.77-2.14,0-3.74-1-3.78-3Z"/><path class="gs14-17" d="M166.51,199.34a2.27,2.27,0,0,0,2,2.51h0.28a2,2,0,0,0,2.08-1.42h1.78a3.73,3.73,0,0,1-3.86,2.9c-2.67,0-4.17-1.86-4.17-4.49a4.13,4.13,0,1,1,8.15.48h-6.27Zm4.39-1.24a2.19,2.19,0,1,0-4.39,0h4.39Z"/><line class="gs14-18" x1="478.22" y1="198.34" x2="474.22" y2="198.34"/><line class="gs14-20" x1="466.14" y1="198.34" x2="195.38" y2="198.34"/><line class="gs14-18" x1="191.34" y1="198.34" x2="187.34" y2="198.34"/><path class="gs14-11" d="M271.12,185.34h97.12A12.75,12.75,0,0,1,381,198.09h0a12.75,12.75,0,0,1-12.75,12.75H271.12a12.75,12.75,0,0,1-12.75-12.75h0A12.75,12.75,0,0,1,271.12,185.34Z"/><path class="gs14-12" d="M268.44,193.7h3.75c1.72,0,2.6.79,2.6,2.12a1.91,1.91,0,0,1-1.3,2h0a1.44,1.44,0,0,1,1.17,1.66,3.57,3.57,0,0,0,.43,2.07h-1.47a2.19,2.19,0,0,1-.21-1.16c0-1.44-.3-2.08-1.56-2.08h-2v3.23h-1.41V193.7Zm1.38,3.58h2.26a1.16,1.16,0,0,0,1.34-1.25,1.13,1.13,0,0,0-1.36-1.2h-2.23v2.45Z"/><path class="gs14-12" d="M276.71,199A1.51,1.51,0,0,0,278,200.7h0.2a1.32,1.32,0,0,0,1.39-.95h1.19a2.49,2.49,0,0,1-2.58,1.94,2.7,2.7,0,0,1-2.78-3,2.75,2.75,0,1,1,5.44.32h-4.19Zm2.93-.83a1.46,1.46,0,0,0-2.93,0h2.93Z"/><path class="gs14-12" d="M282.52,199.73a1.12,1.12,0,0,0,1.29,1c0.47,0,1.3-.1,1.26-0.75s-1-.74-1.86-0.95-1.87-.54-1.87-1.69,1.34-1.63,2.38-1.63a2.17,2.17,0,0,1,2.38,1.75h-1.31a1,1,0,0,0-1.16-.76c-0.36,0-1,.09-1,0.58s0.92,0.7,1.85.91,1.84,0.54,1.84,1.66c0,1.35-1.36,1.85-2.54,1.85-1.43,0-2.5-.64-2.52-2Z"/><path class="gs14-12" d="M287,195.87h1.19v0.77h0a1.9,1.9,0,0,1,1.76-.92c1.79,0,2.66,1.36,2.66,3s-0.77,3-2.45,3a2.21,2.21,0,0,1-1.9-.89h0v2.84H287v-7.8Zm2.8,0.84c-1.06,0-1.59.8-1.59,2s0.58,2,1.59,2a2.07,2.07,0,0,0,0-4h0Z"/><path class="gs14-12" d="M293.19,198.7a2.87,2.87,0,1,1,2.87,3A2.75,2.75,0,0,1,293.19,198.7Zm4.49,0a1.66,1.66,0,1,0-1.62,2A1.75,1.75,0,0,0,297.68,198.7Z"/><path class="gs14-12" d="M299.7,195.87h1.19v0.84h0a2,2,0,0,1,1.77-1,1.8,1.8,0,0,1,2,1.94v3.91h-1.22V198a1,1,0,0,0-1.11-1.28A1.39,1.39,0,0,0,301,198.1s0,0.06,0,.09v3.36h-1.25v-5.69Z"/><path class="gs14-12" d="M306.68,199.73a1.12,1.12,0,0,0,1.29,1c0.47,0,1.3-.1,1.26-0.75s-1-.74-1.86-0.95-1.83-.53-1.83-1.68,1.34-1.63,2.38-1.63a2.17,2.17,0,0,1,2.38,1.75H309a1,1,0,0,0-1.16-.76c-0.36,0-1,.09-1,0.58s0.92,0.7,1.85.91,1.84,0.54,1.84,1.66c0,1.35-1.36,1.85-2.54,1.85-1.43,0-2.5-.64-2.52-2Z"/><path class="gs14-12" d="M312.15,199a1.51,1.51,0,0,0,1.33,1.67h0.2a1.32,1.32,0,0,0,1.39-.95h1.19a2.49,2.49,0,0,1-2.58,1.94,2.7,2.7,0,0,1-2.78-3,2.75,2.75,0,1,1,5.44.32h-4.19Zm2.93-.83a1.46,1.46,0,1,0-2.93,0h2.93Z"/><path class="gs14-12" d="M319.23,195.87h0.94V195.4c0-1.45.76-1.69,1.57-1.69a3.54,3.54,0,0,1,.88.08v1a2.13,2.13,0,0,0-.58-0.07,0.53,0.53,0,0,0-.62.59v0.58h1.07v0.93h-1.07v4.75h-1.25v-4.75h-0.94v-0.95Z"/><path class="gs14-12" d="M322.72,198.7a2.87,2.87,0,1,1,2.87,3A2.75,2.75,0,0,1,322.72,198.7Zm4.49,0a1.66,1.66,0,1,0-1.62,2A1.75,1.75,0,0,0,327.21,198.7Z"/><path class="gs14-12" d="M329.23,195.87h1.18V197h0a1.84,1.84,0,0,1,1.66-1.25,2.87,2.87,0,0,1,.47,0v1.21a4.36,4.36,0,0,0-.54-0.05c-0.86,0-1.54.69-1.54,1.95v2.71h-1.25Z"/><path class="gs14-12" d="M332.34,195.87h1.33l1.11,4.25h0l1.07-4.25h1.26l1,4.25h0l1.16-4.25h1.28l-1.78,5.69h-1.29l-1-4.22h0l-1,4.22h-1.32Z"/><path class="gs14-12" d="M345.88,200.29c0,0.31.07,0.43,0.3,0.43h0.31v0.87a3.14,3.14,0,0,1-.79.14,0.89,0.89,0,0,1-1-.69,2.92,2.92,0,0,1-2,.69,1.73,1.73,0,0,1-1.94-1.49q0-.08,0-0.17c0-1.42,1.13-1.65,2.19-1.77,0.9-.17,1.71-0.07,1.71-0.8s-0.67-.77-1.18-0.77a1.06,1.06,0,0,0-1.25.9H341c0.09-1.46,1.33-1.89,2.58-1.89s2.28,0.45,2.28,1.65Zm-1.25-1.58a4.48,4.48,0,0,1-1.54.34,1,1,0,0,0-1,.95,0.93,0.93,0,0,0,1.16.73,1.33,1.33,0,0,0,1.41-1.08Z"/><path class="gs14-12" d="M346.95,195.87h1.18V197h0a1.84,1.84,0,0,1,1.66-1.25,2.87,2.87,0,0,1,.47,0v1.21a4.36,4.36,0,0,0-.54-0.05c-0.86,0-1.54.69-1.54,1.95v2.71h-1.25Z"/><path class="gs14-12" d="M355.71,201.55h-1.19v-0.77h0a1.89,1.89,0,0,1-1.76.92c-1.79,0-2.66-1.33-2.66-3,0-2.06,1.22-3,2.46-3a2.19,2.19,0,0,1,1.89.89h0v-2.9h1.25v7.86Zm-2.8-.84a1.73,1.73,0,0,0,1.59-2c0-1.25-.61-2-1.57-2-1.18,0-1.59,1-1.59,2.07s0.48,1.94,1.57,1.94h0Z"/><path class="gs14-12" d="M356.83,193.7h1.25v1.19h-1.25V193.7Zm0,2.17h1.25v5.69h-1.25v-5.69Z"/><path class="gs14-12" d="M359.18,195.87h1.16v0.84h0a2,2,0,0,1,1.77-1,1.8,1.8,0,0,1,2,1.94v3.91h-1.25V198a1,1,0,0,0-1.11-1.28,1.39,1.39,0,0,0-1.37,1.41s0,0.06,0,.09v3.36h-1.25Z"/><path class="gs14-12" d="M370.47,201.26c0,1.71-1,2.55-2.79,2.55-1.14,0-2.43-.44-2.54-1.77h1.25a1.16,1.16,0,0,0,1.36.84,1.29,1.29,0,0,0,1.46-1.45v-0.87h0a2,2,0,0,1-1.71,1c-1.8,0-2.55-1.36-2.55-3a2.63,2.63,0,0,1,2.4-2.84h0.17a1.79,1.79,0,0,1,1.68.94h0v-0.78h1.25Zm-1.25-2.67a1.6,1.6,0,0,0-1.53-1.88c-1.09,0-1.5,1-1.5,2a1.6,1.6,0,0,0,1.5,1.88,1.76,1.76,0,0,0,1.53-2h0Z"/><path class="gs14-21" d="M480.53,146.9l-0.1,239.75c-1.59,9.6-8.77,17-17.54,17h-268c-8.77,0-15.94-7.41-15.94-16.47V38.87c0-9.06,7.17-16.47,15.94-16.47l269.7-.06c8.77,0,15.94,7.41,15.94,16.47V146.9Z"/><path class="gs14-11" d="M248.34,378.53h10.79v2.27H251v3.93h7.56v2.14H251v4.39h8.38v2.27h-11v-15Z"/><path class="gs14-11" d="M264,387.81l-3.76-5.14h2.9l2.27,3.34,2.37-3.34h2.77l-3.7,5,4.16,5.84h-2.88l-2.75-4-2.67,4h-2.81Z"/><path class="gs14-11" d="M272.17,382.66h2.27v1.47h0a3.63,3.63,0,0,1,3.4-1.79c3.42,0,5.08,2.6,5.08,5.77,0,2.92-1.47,5.67-4.68,5.67a4.22,4.22,0,0,1-3.63-1.7h0v5.42h-2.39Zm5.36,1.6c-2,0-3,1.53-3,3.84s1.11,3.82,3,3.82c2.18,0,3-1.93,3-3.82s-1-3.84-3-3.84h0Z"/><path class="gs14-11" d="M284.73,382.66H287v2.1h0a3.5,3.5,0,0,1,3.17-2.39,5.71,5.71,0,0,1,.9.06v2.31a8.52,8.52,0,0,0-1-.11c-1.64,0-2.94,1.32-2.94,3.72v5.17h-2.39V382.66Z"/><path class="gs14-11" d="M293.41,388.71c0,1.7.92,3.21,2.92,3.21a2.52,2.52,0,0,0,2.64-1.81h2.27a4.75,4.75,0,0,1-4.91,3.7c-3.4,0-5.31-2.37-5.31-5.71,0-3.09,2-5.73,5.25-5.73,3.42,0,5.52,3.09,5.12,6.34h-8Zm5.59-1.58a2.79,2.79,0,1,0-5.59,0H299Z"/><path class="gs14-11" d="M304.81,390c0.13,1.39,1.18,1.89,2.46,1.89,0.9,0,2.48-.19,2.42-1.43s-1.81-1.41-3.55-1.81-3.49-1-3.49-3.21c0-2.37,2.56-3.11,4.54-3.11,2.23,0,4.24.92,4.54,3.34h-2.5c-0.21-1.13-1.15-1.45-2.21-1.45-0.69,0-2,.17-2,1.11,0,1.18,1.76,1.34,3.53,1.74s3.51,1,3.51,3.17c0,2.58-2.6,3.53-4.85,3.53-2.73,0-4.77-1.22-4.81-3.78h2.41Z"/><path class="gs14-11" d="M315.5,390c0.13,1.39,1.18,1.89,2.46,1.89,0.9,0,2.48-.19,2.42-1.43s-1.81-1.41-3.55-1.81-3.49-1-3.49-3.21c0-2.37,2.56-3.11,4.54-3.11,2.23,0,4.24.92,4.54,3.34h-2.5c-0.21-1.13-1.15-1.45-2.21-1.45-0.69,0-2,.17-2,1.11,0,1.18,1.76,1.34,3.53,1.74s3.51,1,3.51,3.17c0,2.58-2.6,3.53-4.85,3.53-2.73,0-4.77-1.22-4.81-3.78h2.41Z"/><path class="gs14-11" d="M343.43,393.52h-1.68l-0.4-1.76a5.41,5.41,0,0,1-4.52,2.12c-4.49,0-7.18-3.57-7.18-7.85s2.69-7.85,7.18-7.85c3.28,0,6,1.74,6.43,5.12H340.7a3.58,3.58,0,0,0-3.86-3c-3.21,0-4.55,2.83-4.55,5.71s1.34,5.71,4.55,5.71a3.81,3.81,0,0,0,4.2-4.12h-4v-2h6.38v7.92Z"/><path class="gs14-11" d="M354.83,391.1c0,0.59.13,0.82,0.57,0.82a3.31,3.31,0,0,0,.59,0v1.66a6,6,0,0,1-1.51.27,1.59,1.59,0,0,1-1.85-1.32,5.57,5.57,0,0,1-3.76,1.32c-2,0-3.71-1-3.71-3.17,0-2.71,2.16-3.15,4.18-3.38,1.72-.31,3.25-0.13,3.25-1.53,0-1.24-1.28-1.47-2.25-1.47-1.34,0-2.29.54-2.39,1.72h-2.39c0.17-2.79,2.54-3.61,4.93-3.61,2.12,0,4.35.86,4.35,3.15v5.54Zm-2.39-3a8.52,8.52,0,0,1-2.94.65c-1,.17-2,0.55-2,1.81,0,1.07,1.37,1.39,2.21,1.39,1,0,2.69-.55,2.69-2.06Z"/><path class="gs14-11" d="M356.11,382.66h1.81v-3.25h2.42v3.25h2.16v1.78h-2.16v5.79c0,1,.08,1.49,1.15,1.49a4.09,4.09,0,0,0,1-.08v1.85c-0.52,0-1,.13-1.55.13-2.5,0-3-1-3-2.77v-6.4h-1.81Z"/><path class="gs14-11" d="M365.86,388.71c0,1.7.92,3.21,2.92,3.21a2.52,2.52,0,0,0,2.65-1.81h2.27a4.75,4.75,0,0,1-4.91,3.7c-3.4,0-5.31-2.37-5.31-5.71,0-3.09,2-5.73,5.25-5.73,3.42,0,5.52,3.09,5.12,6.34h-8Zm5.58-1.58a2.79,2.79,0,0,0-5.58,0h5.58Z"/><path class="gs14-11" d="M374.47,382.66H377l2.12,8.1h0l2-8.1h2.41l2,8.1h0l2.2-8.1h2.44l-3.4,10.85h-2.46l-2-8.06h0l-2,8.06H377.8Z"/><path class="gs14-11" d="M400.67,391.1c0,0.59.13,0.82,0.57,0.82a3.31,3.31,0,0,0,.59,0v1.66a6,6,0,0,1-1.51.27,1.59,1.59,0,0,1-1.85-1.32,5.57,5.57,0,0,1-3.76,1.32c-2,0-3.71-1-3.71-3.17,0-2.71,2.16-3.15,4.18-3.38,1.72-.31,3.25-0.13,3.25-1.53,0-1.24-1.28-1.47-2.25-1.47-1.34,0-2.29.54-2.39,1.72H391.4c0.17-2.79,2.54-3.61,4.93-3.61,2.12,0,4.35.86,4.35,3.15v5.54Zm-2.39-3a8.52,8.52,0,0,1-2.94.65c-1,.17-2,0.55-2,1.81,0,1.07,1.37,1.39,2.21,1.39,1,0,2.69-.55,2.69-2.06Z"/><path class="gs14-11" d="M401.85,382.66h2.63l2.83,8.1h0l2.75-8.1h2.5l-4.22,11.45c-0.78,2-1.34,3.72-3.84,3.72a10.83,10.83,0,0,1-1.66-.12v-2a7.05,7.05,0,0,0,1.13.15c1.11,0,1.38-.59,1.68-1.51l0.27-.84Z"/><polyline class="gs14-22" points="487.75 110.2 473.13 124.82 487.75 139.45"/><polyline class="gs14-22" points="172.93 212.67 187.55 198.04 172.93 183.42"/><polyline class="gs14-18" points="182.33 110.15 167.71 124.78 182.33 139.4"/><polyline class="gs14-23" points="473.35 212.72 487.98 198.09 473.35 183.47"/><rect class="gs14-24" width="679.23" height="432.67"/></svg>
