<svg id="gs-1-2" xmlns="http://www.w3.org/2000/svg" viewBox="0 0 679.23 432.67"><defs><style>.gs12-1,.gs12-12,.gs12-17{fill:#fff;}.gs12-14,.gs12-2{fill:#74cfe8;}.gs12-2{opacity:0.15;}.gs12-12,.gs12-2,.gs12-4{isolation:isolate;}.gs12-3,.gs12-4{fill:#35a9c5;}.gs12-4{opacity:0.2;}.gs12-13,.gs12-16,.gs12-5,.gs12-7{fill:none;stroke-linecap:round;}.gs12-5,.gs12-7{stroke:#136d7c;}.gs12-13,.gs12-5,.gs12-7{stroke-linejoin:round;}.gs12-5{stroke-width:1.5px;}.gs12-6{opacity:0.4;}.gs12-7{stroke-width:2.5px;}.gs12-8{opacity:0.63;}.gs12-9{fill:#136d7c;}.gs12-10{fill:#ffc60a;}.gs12-11{fill:#37403f;}.gs12-12{opacity:0.8;}.gs12-13,.gs12-16{stroke:#ffc60a;}.gs12-13{stroke-width:2px;}.gs12-15{fill:#888789;}.gs12-16{stroke-miterlimit:10;stroke-width:3px;}.gs12-17{opacity:0;}</style></defs><title>sized</title><path class="gs12-1" d="M480.63,146.81l-0.1,239.75c-1.59,9.6-8.77,17-17.54,17H195c-8.77,0-15.94-7.41-15.94-16.47V38.78c0-9.06,7.17-16.47,15.94-16.47l269.7-.06c8.77,0,15.94,7.41,15.94,16.47V146.81Z"/><rect class="gs12-2" x="34.54" y="68.96" width="172.12" height="250.17" rx="15" ry="15"/><path class="gs12-3" d="M70.65,196.06c0,2,1.46,2.75,3.26,2.75,2,0,2.72-1,2.72-1.94a1.53,1.53,0,0,0-1.07-1.62c-0.9-.34-2.07-0.58-3.83-1.06-2.2-.59-2.84-1.93-2.84-3.26,0-2.57,2.38-3.78,4.7-3.78,2.68,0,4.93,1.42,4.93,4.11H76.26C76.15,189.6,75,189,73.49,189c-1,0-2.36.38-2.36,1.67a1.74,1.74,0,0,0,1.53,1.66c0.2,0.05,3,.79,3.71,1a3.4,3.4,0,0,1,2.5,3.28c0,2.88-2.56,4-5.11,4-2.93,0-5.31-1.4-5.37-4.59Z"/><path class="gs12-3" d="M81.7,196.25A2.48,2.48,0,0,0,83.9,199H84.2a2.16,2.16,0,0,0,2.24-1.58h2a4.08,4.08,0,0,1-4.21,3.17c-2.92,0-4.55-2-4.55-4.9,0-2.65,1.73-4.92,4.5-4.92,2.93,0,4.74,2.65,4.39,5.44Zm4.74-1.38a2.4,2.4,0,1,0-4.79,0h4.79Z"/><path class="gs12-3" d="M89.65,191h1.93v1.8h0a3,3,0,0,1,2.72-2.05,5,5,0,0,1,.77.05v2a7.31,7.31,0,0,0-.88-0.09c-1.41,0-2.52,1.13-2.52,3.19v4.43h-2V191Z"/><path class="gs12-3" d="M94.62,191h2.23l2.36,7.15h0l2.27-7.15h2.16l-3.33,9.31H98Z"/><path class="gs12-3" d="M104.44,187.49h2.05v1.94h-2.05v-1.94Zm0,3.55h2.05v9.31h-2.05V191Z"/><path class="gs12-3" d="M114.6,194.15a2,2,0,0,0-2.12-1.75c-1.06,0-2.56.56-2.56,3.38,0,1.55.69,3.19,2.47,3.19a2.21,2.21,0,0,0,2.21-2.12h2.05a4,4,0,0,1-4.23,3.75h0c-2.92,0-4.52-2.07-4.52-4.81s1.53-5,4.59-5c2.16,0,4,1.08,4.2,3.37H114.6Z"/><path class="gs12-3" d="M119.44,196.25a2.48,2.48,0,0,0,2.19,2.74h0.31a2.16,2.16,0,0,0,2.27-1.55h1.94a4.08,4.08,0,0,1-4.21,3.17c-2.92,0-4.55-2-4.55-4.9,0-2.65,1.73-4.92,4.5-4.92,2.93,0,4.74,2.65,4.39,5.44h-6.84Zm4.79-1.35a2.4,2.4,0,1,0-4.79,0h4.79Z"/><path class="gs12-3" d="M129,197.35a1.81,1.81,0,0,0,2.11,1.62c0.77,0,2.12-.16,2.07-1.22s-1.55-1.21-3-1.55-3-.86-3-2.75,2.2-2.66,3.89-2.66c1.91,0,3.64.79,3.89,2.86H132.8a1.62,1.62,0,0,0-1.89-1.24c-0.59,0-1.69.14-1.69,1s1.51,1.15,3,1.5,3,0.88,3,2.72c0,2.21-2.23,3-4.16,3-2.34,0-4.09-1-4.12-3.24Z"/><path class="gs12-3" d="M67.19,207.49h9.25v1.94h-7v3.37h6.48v1.84H69.44v3.76h7.13v1.94H67.19V207.49Z"/><path class="gs12-3" d="M77.79,211h2v1.37h0a3.33,3.33,0,0,1,2.9-1.66,3,3,0,0,1,3.29,3.17v6.39h-2v-5.85c0-1.46-.61-2.09-1.82-2.09a2.27,2.27,0,0,0-2.26,2.28q0,0.08,0,.17v5.49H77.79V211Z"/><path class="gs12-3" d="M96.44,220.34H94.5v-1.26h0a3.09,3.09,0,0,1-2.88,1.51c-2.93,0-4.36-2.18-4.36-5,0-3.37,2-4.84,4-4.84a3.59,3.59,0,0,1,3.1,1.46h0v-4.75h2.08v12.88ZM91.85,219c1.84,0,2.61-1.67,2.61-3.29,0-2.05-1-3.28-2.57-3.28-1.93,0-2.61,1.71-2.61,3.38S90.07,219,91.85,219Z"/><path class="gs12-3" d="M98.28,211h1.94v1.22h0a3.11,3.11,0,0,1,2.88-1.51c2.93,0,4.36,2.23,4.36,5,0,2.5-1.26,4.86-4,4.86a3.62,3.62,0,0,1-3.12-1.46h0v4.65H98.28V211Zm4.59,1.37c-1.73,0-2.61,1.31-2.61,3.29s1,3.28,2.61,3.28c1.87,0,2.58-1.66,2.58-3.28S104.56,212.4,102.87,212.4Z"/><path class="gs12-3" d="M108.34,215.68c0-2.84,1.71-4.9,4.7-4.9s4.7,2.05,4.7,4.9S116,220.6,113,220.6,108.34,218.54,108.34,215.68Zm7.35,0c0-1.6-.81-3.28-2.65-3.28s-2.65,1.67-2.65,3.28S111.2,219,113,219s2.64-1.72,2.64-3.29h0Z"/><path class="gs12-3" d="M119.05,207.49h2.05v1.94h-2.05v-1.94Zm0,3.55h2.05v9.31h-2.05V211Z"/><path class="gs12-3" d="M122.88,211h1.94v1.37h0a3.33,3.33,0,0,1,2.9-1.66,3,3,0,0,1,3.29,3.17v6.39H129v-5.85c0-1.46-.61-2.09-1.82-2.09a2.27,2.27,0,0,0-2.26,2.28q0,0.08,0,.17v5.49h-2.05Z"/><path class="gs12-3" d="M131.83,211h1.55v-2.78h2.06V211h1.85v1.53h-1.85v5c0,0.85.07,1.28,1,1.28a3.49,3.49,0,0,0,.86-0.07v1.58c-0.45,0-.88.11-1.33,0.11-2.14,0-2.54-.83-2.57-2.38V212.6h-1.55Z"/><path class="gs12-3" d="M73,243.78a14.94,14.94,0,0,1-2.59-8.3,15.34,15.34,0,0,1,2.59-8.3h1.67a16.65,16.65,0,0,0-2.21,8.3,15.9,15.9,0,0,0,2.21,8.3H73Z"/><path class="gs12-3" d="M75.44,227.49h5.67c3.67,0,4.38,2.38,4.38,4s-0.7,4-4.38,3.94H77.7v4.93H75.44V227.49Zm2.25,6.09H81a2,2,0,0,0,2.25-2.12A1.9,1.9,0,0,0,81,229.34H77.7v4.24Z"/><path class="gs12-3" d="M86.72,231h1.93v1.8h0a3,3,0,0,1,2.79-2.05,4.94,4.94,0,0,1,.77.05v2a7.27,7.27,0,0,0-.88-0.09c-1.4,0-2.52,1.13-2.52,3.19v4.43H86.72V231Z"/><path class="gs12-3" d="M92.66,227.49h2.05v1.94H92.66v-1.94Zm0,3.55h2.05v9.31H92.66V231Z"/><path class="gs12-3" d="M95.57,231H97.8l2.36,7.15h0l2.28-7.15h2.12l-3.33,9.31h-2.3Z"/><path class="gs12-3" d="M113.18,238.25c0,0.5.11,0.7,0.49,0.7a2.83,2.83,0,0,0,.5,0v1.42a5.13,5.13,0,0,1-1.3.23,1.37,1.37,0,0,1-1.58-1.13,4.78,4.78,0,0,1-3.22,1.13c-1.67,0-3.19-.9-3.19-2.72,0-2.32,1.85-2.7,3.58-2.9,1.48-.27,2.79-0.11,2.79-1.31s-1.1-1.26-1.93-1.26c-1.15,0-2,.47-2.05,1.48h-2c0.14-2.39,2.18-3.1,4.23-3.1,1.82,0,3.73.74,3.73,2.7v4.76Zm-2.05-2.59a7.33,7.33,0,0,1-2.52.56c-0.88.14-1.67,0.47-1.67,1.55,0,0.92,1.17,1.19,1.89,1.19,0.9,0,2.3-.47,2.3-1.76v-1.54Z"/><path class="gs12-3" d="M114,231h1.55v-2.78h2.05V231h1.83v1.53h-1.85v5c0,0.85.07,1.28,1,1.28a3.49,3.49,0,0,0,.86-0.07v1.58c-0.45,0-.88.11-1.33,0.11-2.14,0-2.54-.83-2.58-2.38V232.6H114Z"/><path class="gs12-3" d="M122.09,236.25a2.48,2.48,0,0,0,2.19,2.74h0.31a2.16,2.16,0,0,0,2.27-1.55h1.95a4.08,4.08,0,0,1-4.21,3.17c-2.92,0-4.56-2-4.56-4.9,0-2.65,1.73-4.92,4.5-4.92,2.93,0,4.74,2.65,4.39,5.44h-6.84Zm4.79-1.35a2.4,2.4,0,1,0-4.79,0h4.79Z"/><path class="gs12-3" d="M130.49,227.18a15,15,0,0,1,2.59,8.32,15.24,15.24,0,0,1-2.59,8.28h-1.67A16.53,16.53,0,0,0,131,235.5a16,16,0,0,0-2.21-8.32h1.67Z"/><path class="gs12-3" d="M107.31,150.9H86.44a0.52,0.52,0,1,0,0,1h20.83a0.52,0.52,0,1,0,0-1h0Z"/><path class="gs12-3" d="M119.44,135.8h-8a5.17,5.17,0,0,0-.66-2.9c-1.2-2-3.84-3.1-7.85-3.12s-6.61,1-7.81,3a5.19,5.19,0,0,0-.67,3h-8a6,6,0,0,0-5.95,5.95V163a6,6,0,0,0,5.95,6h33a6,6,0,0,0,5.95-5.95V141.75A6,6,0,0,0,119.44,135.8ZM97.26,134c0.71-1.19,2.66-1.81,5.66-1.79s5,0.68,5.72,1.89a2.82,2.82,0,0,1,.33,1.65H97a2.89,2.89,0,0,1,.3-1.75h0Zm17,26.37a7.76,7.76,0,0,1-7.26-5h-6.84L97,153.16l-3.62,2.52-2.82-1.61-3.43,1.11-3.29-3.05,1.1-2.72h22.31a7.77,7.77,0,1,1,7,11h0Z"/><circle class="gs12-3" cx="117.25" cy="152.64" r="1.79"/><path class="gs12-4" d="M112.44,163.14a7.76,7.76,0,0,1-7.26-5H98.34l-3.16-2.25-3.62,2.52-2.82-1.61-3.43,1.11L82,154.86l1.1-2.72h22.32A7.77,7.77,0,1,1,112.44,163.14Z"/><rect class="gs12-5" x="193.77" y="37.66" width="271.21" height="256.21" rx="3.14" ry="3.14"/><g class="gs12-6"><path class="gs12-7" d="M434.06,110.66H421c-1.1,0-2-1.59-2-3.53h0c0-1.94.9-3.53,2-3.53h26.67c1.1,0,2-1.59,2-3.53h0c0-1.94-.9-3.53-2-3.53H422.08"/><path class="gs12-7" d="M434.06,124.81H421c-1.1,0-2-1.59-2-3.53h0c0-1.94.9-3.53,2-3.53h26.67c1.1,0,2-1.59,2-3.53h0c0-1.94-.9-3.53-2-3.53H433.93"/><path class="gs12-7" d="M434.06,138.95H421c-1.1,0-2-1.59-2-3.53h0c0-1.94.9-3.53,2-3.53h26.67c1.1,0,2-1.59,2-3.53h0c0-1.94-.9-3.53-2-3.53H433.93"/><path class="gs12-7" d="M434.06,153.09H421c-1.1,0-2-1.59-2-3.53h0c0-1.94.9-3.53,2-3.53h26.67c1.1,0,2-1.59,2-3.53h0c0-1.94-.9-3.53-2-3.53H433.93"/><path class="gs12-7" d="M434.06,167.25H421c-1.1,0-2-1.59-2-3.53h0c0-1.94.9-3.53,2-3.53h26.67c1.1,0,2-1.59,2-3.53h0c0-1.94-.9-3.53-2-3.53H433.93"/><path class="gs12-7" d="M434.06,181.38H421c-1.1,0-2-1.59-2-3.53h0c0-1.94.9-3.53,2-3.53h26.67c1.1,0,2-1.59,2-3.53h0c0-1.94-.9-3.53-2-3.53H433.93"/><path class="gs12-7" d="M434.06,195.37H421c-1.1,0-2-1.59-2-3.53h0c0-1.94.9-3.53,2-3.53h26.67c1.1,0,2-1.59,2-3.53h0c0-1.94-.9-3.53-2-3.53H433.93"/><path class="gs12-7" d="M434.06,209.52H421c-1.1,0-2-1.59-2-3.53h0c0-1.94.9-3.53,2-3.53h26.67c1.1,0,2-1.59,2-3.53h0c0-1.94-.9-3.53-2-3.53H433.93"/><path class="gs12-7" d="M434.06,223.66H421c-1.1,0-2-1.59-2-3.53h0c0-1.94.9-3.53,2-3.53h26.67c1.1,0,2-1.59,2-3.53h0c0-1.94-.9-3.53-2-3.53H433.93"/><path class="gs12-7" d="M434.06,237.81H421c-1.1,0-2-1.59-2-3.53h0c0-1.94.9-3.53,2-3.53h26.67c1.1,0,2-1.59,2-3.53h0c0-1.94-.9-3.53-2-3.53H433.93"/><path class="gs12-7" d="M434.06,82.35H421c-1.1,0-2-1.59-2-3.53h0c0-1.94.9-3.53,2-3.53h26.67c1.1,0,2-1.59,2-3.53h0c0-1.94-.9-3.53-2-3.53H433.93"/><path class="gs12-7" d="M434.14,68.25H421.07c-1.1,0-2-1.59-2-3.53h0c0-1.94.9-3.53,2-3.53h26.67c1.1,0,2-1.59,2-3.53h0c0-1.94-.9-3.53-2-3.53H434"/><path class="gs12-7" d="M434.06,96.49H421c-1.1,0-2-1.59-2-3.53h0c0-1.94.9-3.53,2-3.53h26.67c1.1,0,2-1.59,2-3.53h0c0-1.94-.9-3.53-2-3.53H433.93"/><path class="gs12-7" d="M434.06,251.87H421c-1.1,0-2-1.59-2-3.53h0c0-1.94.9-3.53,2-3.53h26.67c1.1,0,2-1.59,2-3.53h0c0-1.94-.9-3.53-2-3.53H433.93"/><path class="gs12-7" d="M421,259h26.67c1.1,0,2-1.59,2-3.53h0c0-1.94-.9-3.53-2-3.53H433.93"/></g><rect class="gs12-1" x="415.06" y="254.03" width="38.91" height="14.5"/><g class="gs12-8"><path class="gs12-9" d="M418.53,260.44h3.75c1.72,0,2.6.79,2.6,2.12a1.91,1.91,0,0,1-1.3,2h0a1.44,1.44,0,0,1,1.17,1.66,3.57,3.57,0,0,0,.43,2.07h-1.47a2.19,2.19,0,0,1-.21-1.16c0-1.44-.3-2.08-1.56-2.08h-2v3.2h-1.37Zm1.38,3.58h2.26a1.16,1.16,0,0,0,1.34-1.25,1.13,1.13,0,0,0-1.36-1.2h-2.23V264Z"/><path class="gs12-9" d="M425.83,265.45a2.87,2.87,0,1,1,2.87,3A2.75,2.75,0,0,1,425.83,265.45Zm4.49,0a1.66,1.66,0,1,0-1.62,2A1.75,1.75,0,0,0,430.32,265.45Z"/><path class="gs12-9" d="M437.62,268.25h-1.23v-0.79h0a1.91,1.91,0,0,1-1.62,1c-1.49,0-2.12-.75-2.12-2.23v-3.61h1.25v3.49c0,1,.41,1.36,1.09,1.36a1.34,1.34,0,0,0,1.4-1.55v-3.3h1.25Z"/><path class="gs12-9" d="M438.36,262.61h1V260.9h1.25v1.71h1.13v0.93h-1.13v3c0,0.52,0,.78.61,0.78a2.15,2.15,0,0,0,.53,0v1c-0.28,0-.54.07-0.81,0.07-1.31,0-1.55-.51-1.57-1.45v-3.39h-1v-0.94Z"/><path class="gs12-9" d="M443.58,265.78a1.51,1.51,0,0,0,1.33,1.67h0.2a1.32,1.32,0,0,0,1.39-1h1.19a2.49,2.49,0,0,1-2.58,1.94,2.7,2.7,0,0,1-2.78-3,2.75,2.75,0,1,1,5.44.32h-4.19Zm2.93-.83a1.46,1.46,0,0,0-2.93,0h2.93Z"/><path class="gs12-9" d="M448.71,262.61h1.18v1.1h0a1.84,1.84,0,0,1,1.66-1.25,2.87,2.87,0,0,1,.47,0v1.21a4.36,4.36,0,0,0-.54,0c-0.86,0-1.54.69-1.54,2v2.68h-1.25Z"/></g><rect class="gs12-10" x="193.85" y="335.4" width="81.49" height="32.75" rx="3.14" ry="3.14"/><rect class="gs12-10" x="284.88" y="335.4" width="81.49" height="32.75" rx="3.14" ry="3.14"/><rect class="gs12-10" x="375.9" y="335.4" width="81.49" height="32.75" rx="3.14" ry="3.14"/><path class="gs12-11" d="M210.33,341.88h2.61c2.35,0,3.66,1.17,3.66,3.63s-1.12,4-3.66,4h-2.61v-7.63Zm1,6.76H213c0.69,0,2.56-.19,2.56-3,0-1.81-.67-2.91-2.54-2.91h-1.7v5.91Z"/><path class="gs12-11" d="M218.37,343h-0.93v-1.11h0.91Zm-0.91,1h0.91v5.52h-0.93Z"/><path class="gs12-11" d="M220.07,347.75a1.22,1.22,0,0,0,1.48,1.07c0.57,0,1.33-.13,1.33-0.82s-0.9-.82-1.8-1-1.8-.5-1.8-1.56a1.84,1.84,0,0,1,2.06-1.57c1.22,0,2.19.38,2.26,1.73h-0.91a1.1,1.1,0,0,0-1.28-.93c-0.6,0-1.17.15-1.17,0.71s1,0.76,1.8,1,1.8,0.5,1.8,1.57c0,1.31-1.23,1.74-2.35,1.74s-2.28-.5-2.33-1.87Z"/><path class="gs12-11" d="M225.84,344h1.1v0.8h-1.1v3.42c0,0.42.12,0.49,0.68,0.49h0.42v0.8h-0.69c-0.94,0-1.31-.19-1.31-1.21v-3.51H224V344h0.94v-1.65h0.91V344Z"/><path class="gs12-11" d="M227.64,344h0.8v1.16h0a2,2,0,0,1,2-1.29v1c-1.46,0-2,.83-2,2.23v2.45h-0.91Z"/><path class="gs12-11" d="M231.91,343H231v-1.11h0.91V343ZM231,344h0.91v5.52H231V344Z"/><path class="gs12-11" d="M233.08,341.88H234v2.85h0a1.85,1.85,0,0,1,1.76-.87c1.7,0,2.54,1.34,2.54,2.9s-0.83,2.87-2.52,2.87a2.11,2.11,0,0,1-1.78-.86h0v0.74h-0.91v-7.63Zm2.56,2.77c-1.22,0-1.69,1-1.69,2.08s0.49,2.09,1.74,2.09,1.65-1.06,1.65-2.13A1.77,1.77,0,0,0,235.64,344.65Z"/><path class="gs12-11" d="M243.67,349.49h-0.85v-0.87h0a1.92,1.92,0,0,1-1.79,1,1.71,1.71,0,0,1-1.9-2V344H240v3.73a1,1,0,0,0,1.12,1.11,1.55,1.55,0,0,0,1.63-1.73V344h0.91Z"/><path class="gs12-11" d="M246,344h1.1v0.8H246v3.42c0,0.42.12,0.49,0.68,0.49h0.42v0.8h-0.69c-0.94,0-1.31-.19-1.31-1.21v-3.51h-0.94V344h0.94v-1.65H246V344Z"/><path class="gs12-11" d="M252.56,347.74a2.22,2.22,0,0,1-2.36,1.88c-1.76,0-2.59-1.21-2.65-2.9a2.65,2.65,0,0,1,2.42-2.86h0.17c2,0,2.55,1.82,2.5,3.16h-4.13a1.62,1.62,0,0,0,1.41,1.8h0.31a1.33,1.33,0,0,0,1.43-1.08h0.9Zm-0.87-1.54a1.58,1.58,0,0,0-3.17,0h3.17Z"/><path class="gs12-11" d="M258.24,349.49h-0.91v-0.75h0a1.85,1.85,0,0,1-1.76.88c-1.7,0-2.54-1.34-2.54-2.9s0.83-2.87,2.52-2.87a2.11,2.11,0,0,1,1.78.86h0v-2.84h0.91v7.62Zm-2.56-.67c1.22,0,1.68-1,1.68-2.08s-0.49-2.09-1.74-2.09-1.65,1.06-1.65,2.13a1.79,1.79,0,0,0,1.71,2h0Z"/><path class="gs12-11" d="M210.88,352.89h2.61c2.35,0,3.66,1.17,3.66,3.63s-1.12,4-3.66,4h-2.61v-7.63Zm1,6.76h1.69c0.69,0,2.56-.19,2.56-3,0-1.81-.67-2.91-2.54-2.91h-1.71v5.91Z"/><path class="gs12-11" d="M222.86,360.48a1.22,1.22,0,0,1-.65.15,0.73,0.73,0,0,1-.77-0.85,2.45,2.45,0,0,1-1.94.85,1.56,1.56,0,0,1-1.82-1.55c0-1.25.93-1.52,1.87-1.7s1.86-.13,1.86-0.81a1,1,0,0,0-1.23-.92,1.12,1.12,0,0,0-1.38,1h-0.91c0.05-1.37,1.11-1.85,2.34-1.85,1,0,2.07.22,2.07,1.52v2.93c0,0.43,0,.62.29,0.62a0.77,0.77,0,0,0,.28,0v0.66Zm-1.47-2.83a4.64,4.64,0,0,1-1.64.37,1.06,1.06,0,0,0-1.11,1,0.85,0.85,0,0,0,1.07.81,1.48,1.48,0,0,0,1.69-1.25v-0.93Z"/><path class="gs12-11" d="M224.69,355h1.1v0.8h-1.1v3.46c0,0.42.12,0.49,0.68,0.49h0.42v0.8H225.1c-0.94,0-1.31-.19-1.31-1.21v-3.51h-0.94V355h0.94v-1.65h0.91V355Z"/><path class="gs12-11" d="M231.44,360.48a1.22,1.22,0,0,1-.65.15,0.73,0.73,0,0,1-.77-0.85,2.45,2.45,0,0,1-1.94.85,1.56,1.56,0,0,1-1.82-1.55c0-1.25.93-1.52,1.87-1.7s1.86-.13,1.86-0.81a1,1,0,0,0-1.23-.92,1.12,1.12,0,0,0-1.38,1h-0.94c0.05-1.37,1.11-1.85,2.34-1.85,1,0,2.07.22,2.07,1.52v2.93c0,0.43,0,.62.29,0.62a0.77,0.77,0,0,0,.28,0ZM230,357.65a4.64,4.64,0,0,1-1.64.37,1.06,1.06,0,0,0-1.11,1,0.85,0.85,0,0,0,1.07.81,1.48,1.48,0,0,0,1.69-1.25v-0.93Z"/><path class="gs12-11" d="M239.23,355.12a1.66,1.66,0,0,0-1.74-1.57h-0.15c-0.85,0-1.71.31-1.71,1.3s1.22,1.08,2.44,1.36,2.43,0.7,2.43,2.2-1.59,2.27-3,2.27c-1.71,0-3.15-.83-3.15-2.69h1c0,1.28,1.07,1.83,2.22,1.83,0.92,0,1.93-.29,1.93-1.39s-1.22-1.23-2.43-1.49-2.44-.62-2.44-2c0-1.55,1.38-2.23,2.76-2.23,1.56,0,2.74.74,2.81,2.41h-1Z"/><path class="gs12-11" d="M242.58,355h1.1v0.8h-1.1v3.46c0,0.42.12,0.49,0.68,0.49h0.42v0.8H243c-0.94,0-1.31-.19-1.31-1.21v-3.51h-0.94V355h0.94v-1.65h0.91V355Z"/><path class="gs12-11" d="M246.79,354.86a2.89,2.89,0,1,1-2.67,3.09q0-.1,0-0.2a2.62,2.62,0,0,1,2.33-2.88h0.35Zm0,5a2.12,2.12,0,1,0-1.72-2.08,1.79,1.79,0,0,0,1.72,2v0Z"/><path class="gs12-11" d="M250.23,355h0.85v1.16h0a2,2,0,0,1,2-1.29v1c-1.46,0-2,.83-2,2.23v2.45h-0.91Z"/><path class="gs12-11" d="M258.06,358.75a2.22,2.22,0,0,1-2.36,1.88c-1.76,0-2.59-1.22-2.65-2.9a2.66,2.66,0,0,1,2.44-2.86h0.15c2,0,2.55,1.82,2.5,3.16H254a1.62,1.62,0,0,0,1.41,1.8h0.31a1.33,1.33,0,0,0,1.43-1.08h0.9Zm-0.87-1.54a1.58,1.58,0,0,0-3.17,0h3.17Z"/><path class="gs12-11" d="M307.83,344.17a2,2,0,0,0-2.13-1.62c-1.81,0-2.58,1.49-2.58,3.08s0.77,3.19,2.59,3.19a2.16,2.16,0,0,0,2.2-2.12s0-.05,0-0.08h1a3.1,3.1,0,0,1-3.14,3.06h-0.16c-2.37,0-3.52-1.75-3.52-4s1.26-4,3.6-4a2.91,2.91,0,0,1,3.14,2.47Z"/><path class="gs12-11" d="M312.13,343.85a2.89,2.89,0,1,1-2.67,3.09q0-.1,0-0.2a2.62,2.62,0,0,1,2.33-2.88h0.35Zm0,5a2.12,2.12,0,1,0-1.72-2.08,1.79,1.79,0,0,0,1.72,2v0Z"/><path class="gs12-11" d="M315.61,344h0.83v0.88h0a1.92,1.92,0,0,1,1.79-1,1.71,1.71,0,0,1,1.9,2v3.63h-0.91v-3.73a1,1,0,0,0-1.12-1.11,1.55,1.55,0,0,0-1.63,1.73v3.12h-0.91Z"/><path class="gs12-11" d="M321.82,347.75a1.22,1.22,0,0,0,1.48,1.07c0.57,0,1.33-.13,1.33-0.82s-0.9-.82-1.8-1-1.8-.5-1.8-1.56a1.84,1.84,0,0,1,2.06-1.57c1.22,0,2.19.38,2.26,1.73h-0.91a1.1,1.1,0,0,0-1.28-.93c-0.6,0-1.17.15-1.17,0.71s1,0.76,1.8,1,1.8,0.5,1.8,1.57c0,1.31-1.23,1.74-2.35,1.74s-2.28-.5-2.33-1.87Z"/><path class="gs12-11" d="M330.9,349.49h-0.85v-0.87h0a1.92,1.92,0,0,1-1.79,1,1.71,1.71,0,0,1-1.9-2V344h0.91v3.73a1,1,0,0,0,1.12,1.11A1.55,1.55,0,0,0,330,347.1V344h0.91Z"/><path class="gs12-11" d="M332,344h0.85v0.81h0a2,2,0,0,1,1.78-.94,1.46,1.46,0,0,1,1.51.94,2,2,0,0,1,1.73-.94,1.54,1.54,0,0,1,1.83,1.6v4h-0.91v-3.62a1,1,0,0,0-1.07-1.23,1.34,1.34,0,0,0-1.44,1.41v3.44h-0.83v-3.62a1,1,0,0,0-1-1.23A1.49,1.49,0,0,0,333,346v3.44h-0.91Z"/><path class="gs12-11" d="M345.52,347.74a2.22,2.22,0,0,1-2.36,1.88c-1.76,0-2.59-1.21-2.65-2.9a2.65,2.65,0,0,1,2.42-2.86h0.17c2,0,2.55,1.82,2.5,3.16h-4.16a1.62,1.62,0,0,0,1.41,1.8h0.31a1.33,1.33,0,0,0,1.43-1.08h0.93Zm-0.87-1.54a1.59,1.59,0,0,0-3.17,0h3.17Z"/><path class="gs12-11" d="M346.24,344h0.85v1.16h0a2,2,0,0,1,2-1.29v1c-1.46,0-2,.83-2,2.23v2.45h-0.91Z"/><path class="gs12-11" d="M296.14,352.89h1.39l2.4,6.4,2.41-6.4h1.39v7.62h-1v-6.34h0l-2.38,6.34h-0.86l-2.38-6.34h0v6.34h-1Z"/><path class="gs12-11" d="M309.88,360.48a1.22,1.22,0,0,1-.65.15,0.73,0.73,0,0,1-.77-0.85,2.45,2.45,0,0,1-1.94.85,1.56,1.56,0,0,1-1.82-1.55c0-1.25.93-1.52,1.87-1.7s1.86-.13,1.86-0.81a1,1,0,0,0-1.23-.92,1.12,1.12,0,0,0-1.38,1h-0.91c0-1.37,1.11-1.85,2.34-1.85,1,0,2.07.22,2.07,1.52v2.93c0,0.43,0,.62.29,0.62a0.77,0.77,0,0,0,.28,0v0.66Zm-1.44-2.83a4.64,4.64,0,0,1-1.64.37,1.06,1.06,0,0,0-1.11,1,0.85,0.85,0,0,0,1.07.81,1.48,1.48,0,0,0,1.69-1.25v-0.93Z"/><path class="gs12-11" d="M310.44,355h0.85v0.88h0a1.92,1.92,0,0,1,1.79-1,1.71,1.71,0,0,1,1.9,2v3.63h-0.91v-3.73a1,1,0,0,0-1.12-1.11,1.55,1.55,0,0,0-1.63,1.73v3.11h-0.88V355Z"/><path class="gs12-11" d="M321,360.48a1.22,1.22,0,0,1-.65.15,0.73,0.73,0,0,1-.77-0.85,2.45,2.45,0,0,1-1.94.85,1.56,1.56,0,0,1-1.82-1.55c0-1.25.93-1.52,1.87-1.7s1.86-.13,1.86-0.81a1,1,0,0,0-1.23-.92,1.12,1.12,0,0,0-1.38,1H316c0-1.37,1.11-1.85,2.34-1.85,1,0,2.07.22,2.07,1.52v2.93c0,0.43,0,.62.29,0.62a0.77,0.77,0,0,0,.28,0v0.66Zm-1.47-2.83a4.64,4.64,0,0,1-1.64.37,1.06,1.06,0,0,0-1.11,1,0.85,0.85,0,0,0,1.07.81,1.48,1.48,0,0,0,1.69-1.25v-0.93Z"/><path class="gs12-11" d="M326.32,360c0,1.79-.82,2.71-2.56,2.71-1,0-2.23-.42-2.28-1.62h0.91c0,0.66.83,0.9,1.43,0.9,1.18,0,1.65-.85,1.65-2.09v-0.36h0a1.84,1.84,0,0,1-1.72,1,2.5,2.5,0,0,1-2.46-2.79c0-1.3.64-2.91,2.55-2.91a1.8,1.8,0,0,1,1.64.92h0V355h0.85v5Zm-0.9-2.4c0-1-.43-2-1.57-2a1.72,1.72,0,0,0-1.63,2c0,1,.36,2.1,1.56,2.1s1.66-1.06,1.66-2.1h0Z"/><path class="gs12-11" d="M332.12,358.75a2.22,2.22,0,0,1-2.36,1.88c-1.76,0-2.59-1.22-2.65-2.9a2.66,2.66,0,0,1,2.44-2.86h0.15c2,0,2.55,1.82,2.5,3.16h-4.13a1.62,1.62,0,0,0,1.41,1.8h0.31a1.33,1.33,0,0,0,1.43-1.08h0.9Zm-0.87-1.54a1.59,1.59,0,0,0-3.17,0h3.17Z"/><path class="gs12-11" d="M332.88,355h0.85v0.81h0a2,2,0,0,1,1.78-.94,1.46,1.46,0,0,1,1.51.94,2,2,0,0,1,1.73-.94,1.54,1.54,0,0,1,1.83,1.6v4h-0.91v-3.62a1,1,0,0,0-1.07-1.23,1.34,1.34,0,0,0-1.44,1.41v3.43h-0.91v-3.62a1,1,0,0,0-1-1.23,1.49,1.49,0,0,0-1.47,1.41v3.43h-0.91V355Z"/><path class="gs12-11" d="M346.44,358.75a2.22,2.22,0,0,1-2.36,1.88c-1.76,0-2.59-1.22-2.65-2.9a2.66,2.66,0,0,1,2.44-2.86H344c2,0,2.55,1.82,2.5,3.16h-4.13a1.62,1.62,0,0,0,1.41,1.8h0.31a1.33,1.33,0,0,0,1.43-1.08h0.9Zm-0.87-1.54a1.59,1.59,0,0,0-3.17,0h3.17Z"/><path class="gs12-11" d="M347.16,355H348v0.88h0a1.92,1.92,0,0,1,1.79-1,1.71,1.71,0,0,1,1.9,2v3.63h-0.91v-3.73a1,1,0,0,0-1.12-1.11,1.55,1.55,0,0,0-1.63,1.73v3.11h-0.91Z"/><path class="gs12-11" d="M354.08,355h1.1v0.8h-1.1v3.46c0,0.42.12,0.49,0.68,0.49h0.42v0.8h-0.74c-0.94,0-1.31-.19-1.31-1.21v-3.51h-0.94V355h0.94v-1.65H354Z"/><path class="gs12-11" d="M400.62,347.25H404a2.25,2.25,0,0,1,0,4.5h-2.33v3.12h-1v-7.62Zm1,3.65h2c1.14,0,1.66-.49,1.66-1.4s-0.52-1.4-1.66-1.4h-2v2.8Z"/><path class="gs12-11" d="M407.17,347.25h0.91v7.62h-0.91v-7.62Z"/><path class="gs12-11" d="M413.78,354.87h-0.85V354h0a1.92,1.92,0,0,1-1.79,1,1.71,1.71,0,0,1-1.9-2v-3.63h0.91v3.73a1,1,0,0,0,1.09,1.15,1.55,1.55,0,0,0,1.63-1.73V349.4h0.91v5.47Z"/><path class="gs12-11" d="M419.63,354.4c0,1.79-.82,2.71-2.56,2.71-1,0-2.23-.42-2.28-1.62h0.91c0,0.66.83,0.9,1.43,0.9,1.18,0,1.65-.85,1.65-2.09v-0.36h0a1.84,1.84,0,0,1-1.72,1,2.5,2.5,0,0,1-2.46-2.79c0-1.3.64-2.91,2.55-2.91a1.8,1.8,0,0,1,1.64.92h0v-0.79h0.85v5Zm-0.9-2.4c0-1-.43-2-1.57-2a1.75,1.75,0,0,0-1.63,2c0,1,.36,2.1,1.56,2.1S418.73,353,418.73,352Z"/><path class="gs12-11" d="M421.69,348.37h-0.91v-1.12h0.91v1.12Zm-0.91,1h0.91v5.52h-0.91v-5.52Z"/><path class="gs12-11" d="M422.83,349.36h0.85v0.89h0a1.92,1.92,0,0,1,1.79-1,1.71,1.71,0,0,1,1.9,2v3.63h-0.93v-3.73a1,1,0,0,0-1.12-1.11,1.55,1.55,0,0,0-1.63,1.73v3.12h-0.91Z"/><path class="gs12-11" d="M429,353.13a1.22,1.22,0,0,0,1.48,1.07c0.57,0,1.33-.13,1.33-0.82s-0.9-.82-1.8-1-1.8-.5-1.8-1.56a1.84,1.84,0,0,1,2.06-1.57c1.22,0,2.19.38,2.26,1.73h-0.91a1.1,1.1,0,0,0-1.28-.93c-0.6,0-1.17.15-1.17,0.71s1,0.76,1.8,1,1.8,0.5,1.8,1.57c0,1.31-1.23,1.74-2.35,1.74s-2.28-.5-2.33-1.87Z"/><rect class="gs12-10" x="193.24" y="302.13" width="264.87" height="25.49" rx="3.14" ry="3.14"/><path class="gs12-11" d="M255.61,313a2.63,2.63,0,0,0-2.8-2.13c-2.38,0-3.39,2-3.39,4,0,2.28,1,4.19,3.4,4.19a2.83,2.83,0,0,0,2.89-2.77s0-.07,0-0.11H257a4.07,4.07,0,0,1-4.13,4h-0.2c-3.11,0-4.62-2.3-4.62-5.21s1.65-5.27,4.73-5.27a3.83,3.83,0,0,1,4.12,3.25Z"/><path class="gs12-11" d="M264.53,317.7a2.92,2.92,0,0,1-3.1,2.46c-2.31,0-3.4-1.6-3.47-3.81a3.49,3.49,0,0,1,3.2-3.76h0.2c2.56,0,3.35,2.4,3.28,4.15h-5.42a2.13,2.13,0,0,0,2.26,2.38,1.74,1.74,0,0,0,1.88-1.41h1.17Zm-1.15-2a2.08,2.08,0,1,0-4.16,0h4.16Z"/><path class="gs12-11" d="M265.73,312.76h1.12v1.15h0a2.52,2.52,0,0,1,2.35-1.32c1.91,0,2.49,1.09,2.49,2.65V320h-1.15v-4.9a1.36,1.36,0,0,0-1.25-1.46h-0.22a2,2,0,0,0-2.14,2.27V320h-1.19v-7.24Z"/><path class="gs12-11" d="M275,312.76h1.41v1H275v4.5c0,0.55.15,0.64,0.9,0.64h0.54v1h-0.91c-1.23,0-1.72-.25-1.72-1.58v-4.61h-1.23v-1h1.23v-2.17H275Z"/><path class="gs12-11" d="M277.61,312.76h1.12v1.49h0a2.63,2.63,0,0,1,2.66-1.7v1.26c-1.92,0-2.62,1.09-2.62,2.93V320h-1.19Z"/><path class="gs12-11" d="M288.58,320a1.6,1.6,0,0,1-.85.2,1,1,0,0,1-1-1.12,3.21,3.21,0,0,1-2.55,1.12c-1.32,0-2.4-.59-2.4-2,0-1.64,1.22-2,2.45-2.23s2.44-.17,2.44-1.06a1.38,1.38,0,0,0-1.61-1.21c-1,0-1.75.31-1.81,1.37h-1.19c0.07-1.79,1.46-2.42,3.07-2.42,1.3,0,2.72.29,2.72,2v3.73c0,0.56,0,.81.38,0.81a1,1,0,0,0,.36-0.07V320Zm-1.93-3.72a6.12,6.12,0,0,1-2.16.49c-0.78.14-1.46,0.42-1.46,1.3s0.67,1.06,1.4,1.06c1.57,0,2.21-1,2.21-1.64v-1.21Z"/><path class="gs12-11" d="M289.62,310h1.19v10h-1.19V310Z"/><path class="gs12-11" d="M293.77,311.46h-1.19V310h1.19v1.46Zm-1.19,1.3h1.19V320h-1.19v-7.24Z"/><path class="gs12-11" d="M294.89,319.09l4.37-5.28h-4.09v-1h5.63v0.81l-4.43,5.38H301v1h-6.11v-0.91Z"/><path class="gs12-11" d="M308.24,317.7a2.92,2.92,0,0,1-3.1,2.46c-2.31,0-3.4-1.6-3.47-3.81a3.49,3.49,0,0,1,3.2-3.76h0.2c2.56,0,3.35,2.4,3.28,4.15h-5.42a2.13,2.13,0,0,0,2.26,2.38,1.74,1.74,0,0,0,1.88-1.41h1.17Zm-1.15-2a2.08,2.08,0,1,0-4.16,0h4.16Z"/><path class="gs12-11" d="M315.91,320h-1.19v-1h0a2.44,2.44,0,0,1-2.31,1.15c-2.23,0-3.33-1.76-3.33-3.81s1.09-3.77,3.31-3.77a2.77,2.77,0,0,1,2.34,1.13h0V310h1.19v10Zm-3.36-.88c1.6,0,2.21-1.37,2.21-2.73s-0.64-2.75-2.28-2.75-2.17,1.39-2.17,2.8,0.7,2.68,2.24,2.68h0Z"/><path class="gs12-11" d="M328.58,313a2.63,2.63,0,0,0-2.8-2.13c-2.38,0-3.39,2-3.39,4,0,2.28,1,4.19,3.4,4.19a2.83,2.83,0,0,0,2.89-2.77s0-.07,0-0.11H330a4.07,4.07,0,0,1-4.13,4h-0.2c-3.11,0-4.62-2.3-4.62-5.21s1.65-5.27,4.73-5.27a3.83,3.83,0,0,1,4.12,3.25Z"/><path class="gs12-11" d="M334.44,312.59c2.3,0,3.52,1.67,3.52,3.8s-1.22,3.78-3.52,3.78-3.52-1.67-3.52-3.78S332.15,312.59,334.44,312.59Zm0,6.53c1.25,0,2.25-1,2.25-2.73s-1-2.75-2.25-2.75-2.26,1-2.26,2.75S333.2,319.12,334.44,319.12Z"/><path class="gs12-11" d="M339.22,312.76h1.12v1.15h0a2.52,2.52,0,0,1,2.35-1.32c1.91,0,2.49,1.09,2.49,2.65V320H344v-4.9a1.36,1.36,0,0,0-1.25-1.46h-0.22a2,2,0,0,0-2.14,2.27V320h-1.19Z"/><path class="gs12-11" d="M347.35,313.81h-1.22v-1h1.22v-1.08c0-1.18.7-1.79,2-1.79a2.91,2.91,0,0,1,.77.11v1a2.22,2.22,0,0,0-.67-0.1,0.74,0.74,0,0,0-.91.81v1h1.4v1h-1.4v6.19h-1.19v-6.14Z"/><path class="gs12-11" d="M352.12,311.46h-1.19V310h1.19v1.46Zm-1.19,1.3h1.19V320h-1.19v-7.24Z"/><path class="gs12-11" d="M360.08,319.38c0,2.35-1.08,3.56-3.36,3.56-1.36,0-2.93-.55-3-2.13h1.19C355,321.68,356,322,356.79,322c1.55,0,2.17-1.12,2.17-2.75v-0.48h0a2.41,2.41,0,0,1-2.25,1.32c-2.16,0-3.24-1.7-3.24-3.67,0-1.71.84-3.82,3.35-3.82A2.36,2.36,0,0,1,359,313.8h0v-1h1.12Zm-1.18-3.13c0-1.28-.56-2.59-2.06-2.59s-2.14,1.25-2.14,2.63,0.48,2.76,2,2.76S358.9,317.59,358.9,316.25Z"/><path class="gs12-11" d="M367.72,320H366.6v-1.15h0a2.52,2.52,0,0,1-2.35,1.32c-1.91,0-2.49-1.09-2.49-2.65v-4.76H363v4.9a1.36,1.36,0,0,0,1.25,1.46h0.22a2,2,0,0,0,2.14-2.27v-4.09h1.19Z"/><path class="gs12-11" d="M369.33,312.76h1.11v1.49h0a2.63,2.63,0,0,1,2.66-1.7v1.26c-1.92,0-2.62,1.09-2.62,2.93V320h-1.19Z"/><path class="gs12-11" d="M380.31,320a1.6,1.6,0,0,1-.85.2,1,1,0,0,1-1-1.12,3.21,3.21,0,0,1-2.55,1.12c-1.32,0-2.4-.59-2.4-2,0-1.64,1.22-2,2.45-2.23s2.44-.17,2.44-1.06a1.38,1.38,0,0,0-1.61-1.21c-1,0-1.75.31-1.81,1.37h-1.19c0.07-1.79,1.46-2.42,3.07-2.42,1.3,0,2.72.29,2.72,2v3.73c0,0.56,0,.81.38,0.81a1,1,0,0,0,.36-0.07V320Zm-1.93-3.72a6.12,6.12,0,0,1-2.16.49c-0.78.14-1.46,0.42-1.46,1.3s0.67,1.06,1.4,1.06c1.57,0,2.21-1,2.21-1.64v-1.21Z"/><path class="gs12-11" d="M382.92,312.76h1.44v1h-1.44v4.5c0,0.55.15,0.64,0.9,0.64h0.55v1h-0.93c-1.23,0-1.72-.25-1.72-1.58v-4.61h-1.23v-1h1.23v-2.17h1.19v2.17Z"/><path class="gs12-11" d="M386.8,311.46h-1.19V310h1.19v1.46Zm-1.19,1.3h1.19V320h-1.19v-7.24Z"/><path class="gs12-11" d="M391.63,312.59c2.3,0,3.52,1.67,3.52,3.8s-1.22,3.78-3.52,3.78-3.52-1.67-3.52-3.78S389.33,312.59,391.63,312.59Zm0,6.53c1.25,0,2.25-1,2.25-2.73s-1-2.75-2.25-2.75-2.26,1-2.26,2.75S390.39,319.12,391.63,319.12Z"/><path class="gs12-11" d="M396.44,312.76h1.12v1.15h0a2.52,2.52,0,0,1,2.35-1.32c1.91,0,2.49,1.09,2.49,2.65V320h-1.19v-4.9a1.36,1.36,0,0,0-1.25-1.46h-0.22a2,2,0,0,0-2.14,2.27V320h-1.16v-7.24Z"/><path class="gs12-9" d="M206,274.83h6.91v1.12h-5.58v3.18h5.2v1.12h-5.2v3.46H213v1.12H206v-10Z"/><path class="gs12-9" d="M216,281l-2.54-3.44H215l1.74,2.54,1.81-2.54H220l-2.51,3.34,2.8,3.91h-1.5l-2-3-2,3H213.3Z"/><path class="gs12-9" d="M221,277.59h1.19v1h0a2.44,2.44,0,0,1,2.31-1.15c2.23,0,3.33,1.76,3.33,3.81S226.72,285,224.5,285a2.77,2.77,0,0,1-2.34-1.13h0v3.74H221v-10Zm3.36,0.88c-1.6,0-2.21,1.37-2.21,2.73s0.64,2.75,2.28,2.75,2.17-1.39,2.17-2.8-0.7-2.67-2.24-2.67h0Z"/><path class="gs12-9" d="M228.85,277.59H230v1.53h0a2.63,2.63,0,0,1,2.66-1.7v1.26c-1.92,0-2.62,1.09-2.62,2.93v3.22h-1.19Z"/><path class="gs12-9" d="M239.13,282.54A2.92,2.92,0,0,1,236,285c-2.31,0-3.4-1.6-3.47-3.81a3.49,3.49,0,0,1,3.2-3.76H236c2.56,0,3.35,2.4,3.28,4.15h-5.42a2.13,2.13,0,0,0,2.25,2.38,1.74,1.74,0,0,0,1.88-1.41h1.18Zm-1.15-2a2.08,2.08,0,1,0-4.16,0H238Z"/><path class="gs12-9" d="M240.85,282.55c0,1.06,1,1.4,1.95,1.4,0.74,0,1.75-.17,1.75-1.08s-1.18-1.08-2.37-1.34-2.37-.66-2.37-2,1.44-2.06,2.7-2.06c1.6,0,2.87.5,3,2.27h-1.19a1.46,1.46,0,0,0-1.68-1.22c-0.78,0-1.54.2-1.54,0.92s1.26,1,2.37,1.26,2.37,0.66,2.37,2.06c0,1.72-1.61,2.28-3.08,2.28s-3-.66-3.07-2.45Z"/><path class="gs12-9" d="M247.5,282.55c0,1.06,1,1.4,1.95,1.4,0.74,0,1.75-.17,1.75-1.08s-1.18-1.08-2.37-1.34-2.37-.66-2.37-2,1.44-2.06,2.7-2.06c1.6,0,2.87.5,3,2.27h-1.22a1.46,1.46,0,0,0-1.68-1.22c-0.78,0-1.54.2-1.54,0.92s1.26,1,2.37,1.26,2.37,0.66,2.37,2.06c0,1.72-1.61,2.28-3.08,2.28s-3-.66-3.07-2.45Z"/><path class="gs12-9" d="M257.16,274.83h4.71c1.88,0,3,1,3,2.62a2.4,2.4,0,0,1-1.74,2.54h0c1.16,0.22,1.4,1.08,1.5,2.06a5.13,5.13,0,0,0,.59,2.76h-1.48c-0.38-.41-0.17-1.48-0.36-2.47s-0.38-1.81-1.67-1.81h-3.27v4.27h-1.33Zm4.1,4.61c1.25,0,2.31-.32,2.31-1.78a1.58,1.58,0,0,0-1.78-1.71h-3.35v3.49h2.82Z"/><path class="gs12-9" d="M272.19,284.84h-1.12v-1.15h0a2.52,2.52,0,0,1-2.35,1.32c-1.9,0-2.49-1.09-2.49-2.65V277.6h1.19v4.9a1.36,1.36,0,0,0,1.25,1.46h0.22a2,2,0,0,0,2.14-2.27V277.6h1.19Z"/><path class="gs12-9" d="M273.63,277.59h1.12v1.15h0a2.52,2.52,0,0,1,2.35-1.32c1.9,0,2.49,1.09,2.49,2.65v4.76h-1.15v-4.9a1.36,1.36,0,0,0-1.25-1.46H277a2,2,0,0,0-2.14,2.27v4.09h-1.19v-7.24Z"/><path class="gs12-9" d="M282.72,277.59h1.44v1h-1.44v4.5c0,0.55.15,0.64,0.9,0.64h0.55v1h-0.91c-1.23,0-1.72-.25-1.72-1.58v-4.61h-1.23v-1h1.23v-2.17h1.19v2.17Z"/><path class="gs12-9" d="M286.39,276.25H285.2v-1.46h1.19v1.46Zm-1.19,1.3h1.19v7.24H285.2v-7.24Z"/><path class="gs12-9" d="M287.89,277.59H289v1.06h0a2.67,2.67,0,0,1,2.34-1.23,1.92,1.92,0,0,1,2,1.23,2.68,2.68,0,0,1,2.27-1.23c1.44,0,2.41.6,2.41,2.1v5.31h-1.19v-4.75c0-.9-0.24-1.61-1.4-1.61a1.75,1.75,0,0,0-1.89,1.85v4.51h-1.19v-4.75c0-.94-0.29-1.61-1.36-1.61a2,2,0,0,0-1.93,1.85v4.51h-1.19v-7.24Z"/><path class="gs12-9" d="M305.65,282.54a2.92,2.92,0,0,1-3.1,2.46c-2.31,0-3.4-1.6-3.47-3.81a3.49,3.49,0,0,1,3.2-3.76h0.2c2.56,0,3.35,2.4,3.28,4.15h-5.42a2.13,2.13,0,0,0,2.25,2.38,1.74,1.74,0,0,0,1.88-1.41h1.18Zm-1.15-2a2.08,2.08,0,1,0-4.16,0h4.16Z"/><rect class="gs12-12" x="178.91" y="21.62" width="302.03" height="381.66" rx="17.63" ry="17.63"/><rect class="gs12-1" x="204.06" y="267.61" width="11.87" height="2.09"/><path class="gs12-9" d="M212.74,73.6h0.83v0.83h-0.83V73.6Z"/><path class="gs12-9" d="M214.63,73.6h0.81v0.83h-0.83Z"/><path class="gs12-9" d="M216.51,73.6h0.83v0.83h-0.83V73.6Z"/><line class="gs12-13" x1="211.31" y1="60.76" x2="218.47" y2="60.76"/><line class="gs12-13" x1="211.96" y1="261.77" x2="218.87" y2="261.77"/><rect class="gs12-14" x="240.96" y="63.08" width="66.55" height="181.38" rx="2.9" ry="2.9"/><path class="gs12-9" d="M260.91,82.6h3.44a2.32,2.32,0,0,1,0,4.64H262v3.21h-1Zm1,3.76h2c1.18,0,1.72-.51,1.72-1.44s-0.54-1.44-1.72-1.44h-2v2.88Z"/><path class="gs12-9" d="M270.06,84.64a3,3,0,1,1-2.75,3.23q0-.11,0-0.23a2.7,2.7,0,0,1,2.38-3Zm0,5.13a1.86,1.86,0,0,0,1.77-2.15A1.8,1.8,0,1,0,270.06,89.77Z"/><path class="gs12-9" d="M273.7,82.6h0.94v7.86H273.7V82.6Z"/><path class="gs12-9" d="M276.8,83.75h-0.94V82.6h0.94v1.15Zm-0.94,1h0.94v5.69h-0.94V84.75Z"/><path class="gs12-9" d="M281.84,86.6a1.32,1.32,0,0,0-1.4-1.14c-1.35,0-1.77,1.07-1.77,2.22s0.47,2.08,1.66,2.08a1.47,1.47,0,0,0,1.56-1.38h1a2.36,2.36,0,0,1-2.5,2.21h0a2.59,2.59,0,0,1-2.66-2.9c0-1.71.88-3,2.68-3a2.18,2.18,0,0,1,2.44,1.89v0.11Z"/><path class="gs12-9" d="M285.84,91.25c-0.43,1.11-.81,1.52-1.65,1.52a1.88,1.88,0,0,1-.65-0.1V91.81a1.93,1.93,0,0,0,.55.13,0.81,0.81,0,0,0,.77-0.52l0.39-1L283,84.77h1.06l1.66,4.65h0l1.6-4.65h1Z"/><rect class="gs12-1" x="250.5" y="112.03" width="47.44" height="106.13" rx="2.9" ry="2.9"/><path class="gs12-15" d="M258.64,157.84h4.09c2.65,0,3.16,1.72,3.16,2.87s-0.51,2.86-3.16,2.85h-2.47v3.56h-1.62v-9.28Zm1.63,4.39h2.38a1.48,1.48,0,0,0,1.63-1.53,1.38,1.38,0,0,0-1.6-1.53h-2.41v3.06Z"/><path class="gs12-15" d="M266.78,160.4h1.39v1.3h0a2.17,2.17,0,0,1,2-1.48,3.56,3.56,0,0,1,.56,0v1.43a5.41,5.41,0,0,0-.64-0.06c-1,0-1.82.82-1.82,2.3v3.2h-1.48V160.4Z"/><path class="gs12-15" d="M270.44,163.75a3.4,3.4,0,1,1,3.39,3.55A3.25,3.25,0,0,1,270.44,163.75Zm5.3,0c0-1.16-.58-2.37-1.91-2.37s-1.91,1.21-1.91,2.37,0.58,2.38,1.91,2.38a2.12,2.12,0,0,0,2-2.38h-0.05Z"/><path class="gs12-15" d="M280,163.58l-2.33-3.19h1.78l1.4,2.07,1.47-2.07H284l-2.29,3.11,2.57,3.61h-1.78l-1.7-2.48-1.65,2.48h-1.74Z"/><path class="gs12-15" d="M284.1,160.4h1.63l1.75,5h0l1.7-5h1.55l-2.61,7.09c-0.48,1.21-.83,2.3-2.38,2.3a6.74,6.74,0,0,1-1-.08v-1.25a4.32,4.32,0,0,0,.7.09,0.94,0.94,0,0,0,1-.94l0.17-.52Z"/><path class="gs12-13" d="M398.55,261.76h-0.27c0.25,0.68.5,0.08,0.76,0.08,3,0,5.4-45.71,5.4-103.26S402,54.36,399,54.36a0.67,0.67,0,0,0-.49.43"/><path class="gs12-13" d="M398.55,54.79V53.32H211.08v0.13c-2.51,8.91-4.42,54-4.42,105.13s1.9,97.49,4.42,102.49a1.65,1.65,0,0,0,1.74.69H398.28c-2.62-7.14-4.64-50.61-4.64-103.18C393.64,104.25,395.8,59.58,398.55,54.79Z"/><path class="gs12-10" d="M216.72,53.32h8.41C224.27,53.25,220.24,53.25,216.72,53.32Z"/><path class="gs12-10" d="M225.27,53.44l175.12-.12H225.12c0.11,0,.17,0,0.17,0Z"/><path class="gs12-10" d="M211.12,53.32v0.13l5.59-.13h-5.59Z"/><path class="gs12-10" d="M258.44,261.76H257A10.67,10.67,0,0,0,258.44,261.76Z"/><path class="gs12-10" d="M400.44,261.41L397.26,242H275.93c-13.69,0-31.53-1.73-43.63-19.36-11.3-16.47-15.92-48-15.92-71.85,0-33.21-2-87.31,34.76-97.4h-40c-2.54,8.91-4.46,46.14-4.46,97.22s1.92,105.39,4.46,110.4a1.67,1.67,0,0,0,1.76.69H257a18.57,18.57,0,0,1-2.63-.35H400.44Z"/><path class="gs12-1" d="M220.17,247.13h4.07a2.75,2.75,0,0,1,.33,5.49h-3.13v3.8h-1.23Zm1.23,4.45h2.42c1.39,0,2-.6,2-1.7s-0.64-1.7-2-1.7h-2.38Z"/><path class="gs12-1" d="M229.26,248.48h-1.11v-1.35h1.11v1.35Zm-1.11,1.21h1.11v6.72h-1.11v-6.72Z"/><path class="gs12-1" d="M230.69,249.69h1.11v0.91h0a2.27,2.27,0,0,1,2.15-1.07c2.07,0,3.09,1.64,3.09,3.54s-1,3.5-3.07,3.5a2.58,2.58,0,0,1-2.17-1.05h0V259h-1.11v-9.3Zm3.12,0.82c-1.48,0-2.05,1.27-2.05,2.54s0.6,2.55,2.12,2.55,2-1.29,2-2.6-0.64-2.49-2.07-2.49h0Z"/><path class="gs12-1" d="M243.76,254.25a2.71,2.71,0,0,1-2.87,2.29c-2.14,0-3.16-1.48-3.22-3.54a3.24,3.24,0,0,1,3-3.49h0.19c2.38,0,3.11,2.22,3,3.85h-5a2,2,0,0,0,1.78,2.2h0.31a1.62,1.62,0,0,0,1.74-1.31h1.1Zm-1.07-1.87a1.93,1.93,0,0,0-3.86,0h3.86Z"/><path class="gs12-1" d="M244.75,247.13h1.11v9.28h-1.11v-9.28Z"/><path class="gs12-1" d="M248.44,248.48h-1.11v-1.35h1.11v1.35Zm-1.11,1.21h1.11v6.72h-1.11v-6.72Z"/><path class="gs12-1" d="M249.81,249.69h1v1.07h0a2.34,2.34,0,0,1,2.18-1.22c1.77,0,2.31,1,2.31,2.46v4.42h-1.11v-4.55a1.27,1.27,0,0,0-1.18-1.35h-0.19a1.89,1.89,0,0,0-2,2.11v3.8h-1.1Z"/><path class="gs12-1" d="M262.44,254.25a2.71,2.71,0,0,1-2.87,2.29c-2.15,0-3.16-1.48-3.22-3.54a3.24,3.24,0,0,1,3-3.49h0.19c2.38,0,3.11,2.22,3,3.85h-5a2,2,0,0,0,1.78,2.2h0.31a1.62,1.62,0,0,0,1.74-1.31h1.1Zm-1.07-1.87a1.93,1.93,0,0,0-1.94-1.9,1.91,1.91,0,0,0-1.92,1.9h3.86Z"/><path class="gs12-1" d="M269.44,247.2c2.89,0,3.07,2.65,3.07,4.69s-0.18,4.68-3.07,4.68-3.07-2.65-3.07-4.68S266.55,247.2,269.44,247.2Zm0,8.4c1.88,0,1.9-2.34,1.9-3.72s0-3.71-1.9-3.71-1.9,2.34-1.9,3.71,0,3.71,1.9,3.71h0Z"/><path class="gs12-1" d="M275.56,251.15H276a1.56,1.56,0,0,0,1.74-1.36q0-.08,0-0.15a1.46,1.46,0,0,0-1.43-1.49h-0.21a1.75,1.75,0,0,0-1.74,2h-1.1c0.06-1.75,1-3,2.85-3,1.6,0,2.81.77,2.81,2.47a2.11,2.11,0,0,1-1.27,1.83h0a2.1,2.1,0,0,1,1.66,2.24c0,1.85-1.44,2.81-3.17,2.81a2.79,2.79,0,0,1-3.07-3h1.11a1.87,1.87,0,0,0,1.73,2h0.27a1.83,1.83,0,0,0,2-1.65s0-.09,0-0.13a1.76,1.76,0,0,0-1.73-1.79l-0.27,0a5.47,5.47,0,0,0-.66,0v-0.81Z"/><path class="gs12-16" d="M480.63,146.81l-0.1,239.75c-1.59,9.6-8.77,17-17.54,17H195c-8.77,0-15.94-7.41-15.94-16.47V38.78c0-9.06,7.17-16.47,15.94-16.47l269.7-.06c8.77,0,15.94,7.41,15.94,16.47V146.81Z"/><path class="gs12-10" d="M248.44,378.44h10.79v2.27h-8.17v3.93h7.56v2.14h-7.56v4.39h8.38v2.27h-11v-15Z"/><path class="gs12-10" d="M264.06,387.72l-3.76-5.14h2.9l2.27,3.34,2.37-3.34h2.77l-3.7,5,4.16,5.84H268.2l-2.75-4-2.67,4H260Z"/><path class="gs12-10" d="M272.27,382.57h2.27V384h0a3.63,3.63,0,0,1,3.4-1.79c3.42,0,5.08,2.6,5.08,5.77,0,2.92-1.47,5.67-4.68,5.67a4.22,4.22,0,0,1-3.63-1.7h0v5.42h-2.39Zm5.35,1.6c-2,0-3,1.53-3,3.84s1.11,3.82,3,3.82c2.18,0,3-1.93,3-3.82s-1-3.84-3-3.84h0Z"/><path class="gs12-10" d="M284.83,382.57h2.25v2.1h0a3.51,3.51,0,0,1,3.17-2.39,5.75,5.75,0,0,1,.9.06v2.31a8.55,8.55,0,0,0-1-.11c-1.64,0-2.94,1.32-2.94,3.72v5.17h-2.39V382.57Z"/><path class="gs12-10" d="M293.51,388.62c0,1.7.92,3.21,2.92,3.21a2.52,2.52,0,0,0,2.65-1.81h2.27a4.75,4.75,0,0,1-4.91,3.7c-3.4,0-5.31-2.37-5.31-5.71,0-3.09,2-5.73,5.25-5.73,3.42,0,5.52,3.09,5.12,6.34h-8Zm5.58-1.58a2.79,2.79,0,1,0-5.58,0h5.58Z"/><path class="gs12-10" d="M304.91,389.94c0.13,1.39,1.18,1.89,2.46,1.89,0.9,0,2.48-.19,2.41-1.43s-1.8-1.41-3.55-1.81-3.48-1-3.48-3.21c0-2.37,2.56-3.11,4.54-3.11,2.22,0,4.24.92,4.54,3.34h-2.5c-0.21-1.13-1.16-1.45-2.21-1.45-0.69,0-2,.17-2,1.11,0,1.18,1.76,1.34,3.53,1.74s3.51,1,3.51,3.17c0,2.58-2.6,3.53-4.85,3.53-2.73,0-4.77-1.22-4.81-3.78h2.41Z"/><path class="gs12-10" d="M315.6,389.94c0.13,1.39,1.18,1.89,2.46,1.89,0.9,0,2.48-.19,2.41-1.43s-1.8-1.41-3.55-1.81-3.48-1-3.48-3.21c0-2.37,2.56-3.11,4.54-3.11,2.22,0,4.24.92,4.54,3.34H320c-0.21-1.13-1.16-1.45-2.21-1.45-0.69,0-2,.17-2,1.11,0,1.18,1.76,1.34,3.53,1.74s3.51,1,3.51,3.17c0,2.58-2.6,3.53-4.85,3.53-2.73,0-4.77-1.22-4.81-3.78h2.41Z"/><path class="gs12-10" d="M343.53,393.43h-1.68l-0.4-1.76a5.4,5.4,0,0,1-4.51,2.12c-4.49,0-7.18-3.57-7.18-7.85s2.69-7.85,7.18-7.85c3.28,0,6,1.74,6.42,5.12H340.8a3.58,3.58,0,0,0-3.86-3c-3.21,0-4.56,2.83-4.56,5.71s1.34,5.71,4.56,5.71a3.83,3.83,0,0,0,4.2-4.12h-4v-2h6.38v7.92Z"/><path class="gs12-10" d="M354.93,391c0,0.59.13,0.82,0.57,0.82a3.31,3.31,0,0,0,.59,0v1.66a6,6,0,0,1-1.51.27,1.59,1.59,0,0,1-1.85-1.32,5.57,5.57,0,0,1-3.76,1.32c-2,0-3.72-1-3.72-3.17,0-2.71,2.16-3.15,4.18-3.38,1.72-.31,3.26-0.13,3.26-1.53,0-1.24-1.28-1.47-2.25-1.47-1.34,0-2.29.54-2.39,1.72h-2.39c0.17-2.79,2.54-3.61,4.94-3.61,2.12,0,4.35.86,4.35,3.15Zm-2.39-3a8.51,8.51,0,0,1-2.94.65c-1,.17-2,0.55-2,1.81,0,1.07,1.36,1.39,2.2,1.39,1,0,2.69-.55,2.69-2.06Z"/><path class="gs12-10" d="M356.22,382.57H358v-3.25h2.42v3.25h2.16v1.78h-2.16v5.79c0,1,.08,1.49,1.15,1.49a4.09,4.09,0,0,0,1-.08v1.85c-0.53,0-1,.13-1.55.13-2.5,0-3-1-3-2.77v-6.4h-1.8Z"/><path class="gs12-10" d="M366,388.62c0,1.7.92,3.21,2.92,3.21a2.52,2.52,0,0,0,2.64-1.81h2.27a4.75,4.75,0,0,1-4.91,3.7c-3.4,0-5.31-2.37-5.31-5.71,0-3.09,2-5.73,5.25-5.73,3.42,0,5.52,3.09,5.12,6.34h-8Zm5.59-1.58a2.79,2.79,0,1,0-5.59,0h5.59Z"/><path class="gs12-10" d="M374.57,382.57h2.54l2.12,8.1h0l2-8.1h2.41l2,8.1h0l2.21-8.1h2.44l-3.4,10.85h-2.46l-2-8.06h0l-2,8.06h-2.52Z"/><path class="gs12-10" d="M400.77,391c0,0.59.13,0.82,0.57,0.82a3.31,3.31,0,0,0,.59,0v1.66a6,6,0,0,1-1.51.27,1.59,1.59,0,0,1-1.85-1.32,5.57,5.57,0,0,1-3.76,1.32c-2,0-3.72-1-3.72-3.17,0-2.71,2.16-3.15,4.18-3.38,1.72-.31,3.26-0.13,3.26-1.53,0-1.24-1.28-1.47-2.25-1.47-1.34,0-2.29.54-2.39,1.72H391.5c0.17-2.79,2.54-3.61,4.94-3.61,2.12,0,4.35.86,4.35,3.15Zm-2.39-3a8.51,8.51,0,0,1-2.94.65c-1,.17-2,0.55-2,1.81,0,1.07,1.36,1.39,2.2,1.39,1,0,2.69-.55,2.69-2.06Z"/><path class="gs12-10" d="M402,382.57h2.63l2.83,8.1h0l2.75-8.1h2.5L408.44,394c-0.78,2-1.34,3.72-3.84,3.72a10.81,10.81,0,0,1-1.66-.12v-2a7,7,0,0,0,1.13.15c1.11,0,1.39-.59,1.68-1.51l0.27-.84Z"/><rect class="gs12-17" width="679.23" height="432.67"/></svg>
