<svg id="gs-1-3" xmlns="http://www.w3.org/2000/svg" viewBox="0 0 679.23 432.67"><defs><style>.gs13-1,.gs13-15{fill:#74cfe8}.gs13-1{opacity:.15}.gs13-1,.gs13-13,.gs13-3{isolation:isolate}.gs13-2,.gs13-3{fill:#35a9c5}.gs13-3{opacity:.2}.gs13-14,.gs13-17,.gs13-4,.gs13-6,.gs13-8{fill:none;stroke-linecap:round}.gs13-4{stroke:#35a9c5}.gs13-14,.gs13-4,.gs13-6,.gs13-8{stroke-linejoin:round}.gs13-14,.gs13-4{stroke-width:2px}.gs13-13,.gs13-18,.gs13-5{fill:#fff}.gs13-6,.gs13-8{stroke:#136d7c}.gs13-6{stroke-width:1.5px}.gs13-7{opacity:.4}.gs13-8{stroke-width:2.5px}.gs13-9{opacity:.63}.gs13-10{fill:#136d7c}.gs13-11{fill:#ffc60a}.gs13-12{fill:#37403f}.gs13-13{opacity:.8}.gs13-14,.gs13-17{stroke:#ffc60a}.gs13-16{fill:#888789}.gs13-17{stroke-miterlimit:10;stroke-width:3px}.gs13-18{opacity:0}</style></defs><title>sized</title><rect class="gs13-1" x="431.73" y="68.82" width="187.41" height="250.88" rx="15" ry="15"/><path class="gs13-2" d="M541.64 194.59H544l5 12.86h-2.45l-1.21-3.4h-5.13l-1.21 3.4h-2.32zm-.79 7.74h3.92l-1.93-5.53zM549.76 194.59h5.67c3.67 0 4.38 2.38 4.38 4s-.7 4-4.37 3.94H552v4.94h-2.25v-12.88zm2.25 6.08h3.29a2 2 0 0 0 2.25-2.12 1.9 1.9 0 0 0-2.21-2.12H552v4.24zM561.31 194.59h2.27v12.88h-2.25zM516.33 214.59h9.25v1.94h-7v3.37h6.48v1.84h-6.48v3.73h7.13v2h-9.38v-12.88zM526.93 218.14h2v1.33a3.33 3.33 0 0 1 2.9-1.66 3 3 0 0 1 3.29 3.17v6.49h-2v-5.85c0-1.46-.61-2.09-1.82-2.09a2.27 2.27 0 0 0-2.26 2.28v5.66h-2zM545.58 227.47h-1.94v-1.26a3.09 3.09 0 0 1-2.88 1.51c-2.93 0-4.36-2.18-4.36-5 0-3.37 2-4.84 4-4.84a3.59 3.59 0 0 1 3.1 1.46v-4.75h2.08v12.88zM541 226.1c1.84 0 2.61-1.67 2.61-3.29 0-2.05-1-3.28-2.57-3.28-1.93 0-2.61 1.71-2.61 3.38s.79 3.17 2.57 3.17zM547.42 218.14h1.94v1.26a3.11 3.11 0 0 1 2.88-1.51c2.93 0 4.36 2.23 4.36 5 0 2.5-1.26 4.86-4 4.86a3.62 3.62 0 0 1-3.12-1.46v4.65h-2v-12.8zm4.59 1.37c-1.73 0-2.61 1.31-2.61 3.29s1 3.28 2.61 3.28c1.87 0 2.58-1.66 2.58-3.28s-.89-3.33-2.58-3.33zM557.48 222.78c0-2.84 1.71-4.9 4.7-4.9s4.7 2.05 4.7 4.9-1.71 4.92-4.7 4.92-4.7-2.06-4.7-4.92zm7.35 0c0-1.6-.81-3.28-2.65-3.28s-2.65 1.67-2.65 3.28.81 3.29 2.65 3.29 2.65-1.67 2.65-3.29zM568.19 214.59h2v1.94h-2v-1.94zm0 3.55h2v9.33h-2v-9.33zM572 218.14h2v1.33a3.33 3.33 0 0 1 2.9-1.66 3 3 0 0 1 3.29 3.17v6.49h-2v-5.85c0-1.46-.61-2.09-1.82-2.09a2.27 2.27 0 0 0-2.26 2.28v5.66h-2zM581 218.14h1.55v-2.79h2.06v2.79h1.85v1.53h-1.85v5c0 .85.07 1.28 1 1.28a3.49 3.49 0 0 0 .86-.07v1.59c-.45 0-.88.11-1.33.11-2.14 0-2.54-.83-2.58-2.38v-5.53H581v-1.53zM524.93 250.89a15 15 0 0 1-2.59-8.3 15.35 15.35 0 0 1 2.59-8.3h1.65a16.65 16.65 0 0 0-2.21 8.3 15.89 15.89 0 0 0 2.21 8.3h-1.65zM527.37 234.59H533c3.67 0 4.38 2.38 4.38 4s-.7 4-4.37 3.94h-3.47v4.94h-2.25zm2.25 6.08h3.29a2 2 0 0 0 2.25-2.12 1.9 1.9 0 0 0-2.21-2.12h-3.37zM546.82 247.47h-2v-1.3a3.13 3.13 0 0 1-2.65 1.55c-2.43 0-3.48-1.22-3.48-3.66v-5.91h2v5.71c0 1.64.67 2.23 1.78 2.23 1.71 0 2.29-1.1 2.29-2.54v-5.4h2zM548.58 234.59h2v4.75a3.39 3.39 0 0 1 2.77-1.46c2.93 0 4.36 2.23 4.36 5 0 2.5-1.26 4.86-4 4.86a3.32 3.32 0 0 1-3.13-1.57v1.3h-2v-12.88zm4.59 4.92c-1.73 0-2.61 1.31-2.61 3.29s1 3.28 2.61 3.28c1.87 0 2.58-1.66 2.58-3.28s-.89-3.33-2.58-3.33zM559.13 234.59h2v12.88h-2v-12.88zM563 234.59h2v1.94h-2v-1.94zm0 3.55h2v9.33h-2v-9.33zM573.13 241.25a2 2 0 0 0-2.13-1.75c-1.06 0-2.56.56-2.56 3.38 0 1.55.68 3.19 2.47 3.19a2.21 2.21 0 0 0 2.21-2.12h2a4 4 0 0 1-4.23 3.75c-2.92 0-4.52-2.07-4.52-4.81s1.53-5 4.59-5c2.16 0 4 1.08 4.2 3.37h-2zM576.85 234.28a15.05 15.05 0 0 1 2.59 8.32 15.24 15.24 0 0 1-2.59 8.28h-1.67a16.55 16.55 0 0 0 2.21-8.28 16 16 0 0 0-2.21-8.32h1.67z"/><rect class="gs13-3" x="558.64" y="136.86" width="33.16" height="19.58" rx="4.53" ry="4.53"/><rect class="gs13-4" x="553.72" y="132.53" width="38.08" height="24.18" rx="1.81" ry="1.81"/><path class="gs13-2" d="M560.13 149.14a.62.62 0 0 1-.35-.61 3.22 3.22 0 0 0 0-.43v-1.2a.33.33 0 0 1 0-.18v-1.66a17.74 17.74 0 0 1 0-1.8 1.48 1.48 0 0 1 0-.38 3.17 3.17 0 0 1 0-.4v-.32a.86.86 0 0 1 0-.35 1.49 1.49 0 0 1 .1-.29.84.84 0 0 1 1-.3.68.68 0 0 1 .32.72v1.13a5.39 5.39 0 0 1 0 .72 1.31 1.31 0 0 0 0 .32v.08a1.78 1.78 0 0 1 0 .42v.46a1.32 1.32 0 0 0 0 .25v.11c.08.48.38 1.07.67.75a.16.16 0 0 1 .13-.18l.41-.48.16-.16a4.52 4.52 0 0 1 .3-.35l.11-.11a1 1 0 0 1 1.28.11 2.07 2.07 0 0 0 .46.45c.24.22.14.16.17.21a1.92 1.92 0 0 0 .27.33c.42.33.85-.33.89-.8v-2.8a1.7 1.7 0 0 1 0-.75.87.87 0 0 1 1.07-.45.66.66 0 0 1 .33.53v2.56a2.74 2.74 0 0 1 0 1v.3a.73.73 0 0 0 0 .18v1.36a.92.92 0 0 1 0 .35v1a1 1 0 0 1-.22.66.88.88 0 0 1-1.23-.19l-.06-.1a3.08 3.08 0 0 1-.32-.48l-.08-.14a3.57 3.57 0 0 0-.54-.48 1.94 1.94 0 0 0-1.34-.62 1.7 1.7 0 0 0-1.29.67 4.31 4.31 0 0 1-.46.46 3.52 3.52 0 0 0-.61.64.9.9 0 0 1-1.18.37zM569.78 149.14a.62.62 0 0 1-.35-.61 3.22 3.22 0 0 0 0-.43v-1.2a.33.33 0 0 1 0-.18v-1.66a17.74 17.74 0 0 1 0-1.8 1.48 1.48 0 0 1 0-.38 3.17 3.17 0 0 1 0-.4v-.32a.86.86 0 0 1 0-.35 1.49 1.49 0 0 1 .1-.29.84.84 0 0 1 1-.3.68.68 0 0 1 .32.72v1.13a5.39 5.39 0 0 1 0 .72 1.31 1.31 0 0 0 0 .32v.08a1.78 1.78 0 0 1 0 .42v.46a1.32 1.32 0 0 0 0 .25v.11c.08.48.38 1.07.67.75a.17.17 0 0 1 .1-.13l.42-.48.16-.16a4.52 4.52 0 0 1 .3-.35l.11-.11a1 1 0 0 1 1.28.11 2.07 2.07 0 0 0 .46.45c.24.22.14.16.17.21a1.92 1.92 0 0 0 .27.33c.42.33.85-.33.89-.8v-2.85a1.7 1.7 0 0 1 0-.75.87.87 0 0 1 1.07-.45.66.66 0 0 1 .33.53v2.56a2.74 2.74 0 0 1 0 1v.3a.73.73 0 0 0 0 .18v1.36a.92.92 0 0 1 0 .35v1a1 1 0 0 1-.22.66.88.88 0 0 1-1.23-.19l-.06-.1a3.08 3.08 0 0 1-.32-.48l-.08-.14a3.57 3.57 0 0 0-.54-.48 1.94 1.94 0 0 0-1.34-.62 1.7 1.7 0 0 0-1.29.67 4.31 4.31 0 0 1-.46.46 3.52 3.52 0 0 0-.61.64.9.9 0 0 1-1.18.37zM579.44 149.14a.62.62 0 0 1-.35-.61 3.22 3.22 0 0 0 0-.43v-1.2a.33.33 0 0 1 0-.18v-1.66a17.74 17.74 0 0 1 0-1.8 1.48 1.48 0 0 1 0-.38 3.17 3.17 0 0 1 0-.4v-.32a.86.86 0 0 1 0-.35 1.49 1.49 0 0 1 .1-.29.84.84 0 0 1 1-.3.68.68 0 0 1 .32.72v1.13a5.39 5.39 0 0 1 0 .72 1.31 1.31 0 0 0 0 .32v.08a1.78 1.78 0 0 1 0 .42v.46a1.32 1.32 0 0 0 0 .25v.11c.08.48.38 1.07.67.75a.16.16 0 0 1 .1-.13l.41-.48.16-.16a4.52 4.52 0 0 1 .3-.35l.11-.11a1 1 0 0 1 1.28.11 2.07 2.07 0 0 0 .46.45c.24.22.14.16.17.21a1.92 1.92 0 0 0 .27.33c.42.33.85-.33.89-.8v-2.85a1.7 1.7 0 0 1 0-.75.87.87 0 0 1 1.07-.45.66.66 0 0 1 .33.53v2.56a2.74 2.74 0 0 1 0 1v.3a.73.73 0 0 0 0 .18v1.36a.92.92 0 0 1 0 .35v1a1 1 0 0 1-.22.66.88.88 0 0 1-1.23-.19l-.06-.1a3.08 3.08 0 0 1-.32-.48l-.08-.14a3.57 3.57 0 0 0-.54-.48 1.94 1.94 0 0 0-1.34-.62 1.7 1.7 0 0 0-1.29.67 4.31 4.31 0 0 1-.46.46 3.52 3.52 0 0 0-.61.64.9.9 0 0 1-1.18.37z"/><rect class="gs13-3" x="513.2" y="130.57" width="33.16" height="19.58" rx="4.53" ry="4.53"/><rect class="gs13-4" x="508.28" y="126.23" width="38.08" height="24.18" rx="1.81" ry="1.81"/><path class="gs13-2" d="M514.69 142.84a.62.62 0 0 1-.35-.61 3.22 3.22 0 0 0 0-.43v-1.2a.33.33 0 0 1 0-.18v-1.66a17.74 17.74 0 0 1 0-1.8 1.48 1.48 0 0 1 0-.38 3.17 3.17 0 0 1 0-.4v-.32a.86.86 0 0 1 0-.35 1.5 1.5 0 0 1 .1-.29.84.84 0 0 1 1-.3.68.68 0 0 1 .32.72v1.13a5.38 5.38 0 0 1 0 .72 1.31 1.31 0 0 0 0 .32v.08a1.78 1.78 0 0 1 0 .42v.46a1.32 1.32 0 0 0 0 .25v.11c.08.48.38 1.07.67.75a.17.17 0 0 1 .1-.13l.42-.48.16-.16a4.53 4.53 0 0 1 .3-.35l.11-.11a1 1 0 0 1 1.28.11 2.07 2.07 0 0 0 .46.45c.24.22.14.16.17.21a1.92 1.92 0 0 0 .27.33c.42.33.85-.33.89-.8v-2.85a1.7 1.7 0 0 1 0-.75.87.87 0 0 1 1.07-.45.66.66 0 0 1 .33.53V138a2.74 2.74 0 0 1 0 1v.3a.73.73 0 0 0 0 .18v1.36a.93.93 0 0 1 0 .35v1a1 1 0 0 1-.22.66.88.88 0 0 1-1.23-.19l-.06-.1a3.08 3.08 0 0 1-.32-.48l-.08-.14a3.57 3.57 0 0 0-.54-.48 1.94 1.94 0 0 0-1.34-.62 1.7 1.7 0 0 0-1.29.67 4.31 4.31 0 0 1-.46.46 3.52 3.52 0 0 0-.61.64.9.9 0 0 1-1.18.37zM524.34 142.84a.62.62 0 0 1-.35-.61 3.22 3.22 0 0 0 0-.43v-1.2a.33.33 0 0 1 0-.18v-1.66a17.74 17.74 0 0 1 0-1.8 1.48 1.48 0 0 1 0-.38 3.17 3.17 0 0 1 0-.4v-.32a.86.86 0 0 1 0-.35 1.5 1.5 0 0 1 .1-.29.84.84 0 0 1 1-.3.68.68 0 0 1 .32.72v1.13a5.39 5.39 0 0 1 0 .72 1.31 1.31 0 0 0 0 .32v.08a1.78 1.78 0 0 1 0 .42v.46a1.32 1.32 0 0 0 0 .25v.11c.08.48.38 1.07.67.75a.16.16 0 0 1 .1-.13l.41-.48.16-.16a4.52 4.52 0 0 1 .3-.35l.11-.11a1 1 0 0 1 1.28.11 2.07 2.07 0 0 0 .46.45c.24.22.14.16.17.21a1.92 1.92 0 0 0 .27.33c.42.33.85-.33.89-.8v-2.85a1.7 1.7 0 0 1 0-.75.87.87 0 0 1 1.07-.45.66.66 0 0 1 .33.53V138a2.74 2.74 0 0 1 0 1v.3a.73.73 0 0 0 0 .18v1.36a.93.93 0 0 1 0 .35v1a1 1 0 0 1-.22.66.88.88 0 0 1-1.23-.19l-.06-.1a3.08 3.08 0 0 1-.32-.48l-.08-.14a3.57 3.57 0 0 0-.54-.48 1.94 1.94 0 0 0-1.34-.62 1.7 1.7 0 0 0-1.29.67 4.31 4.31 0 0 1-.46.46 3.52 3.52 0 0 0-.61.64.9.9 0 0 1-1.18.37zM534 142.84a.62.62 0 0 1-.35-.61 3.22 3.22 0 0 0 0-.43v-1.2a.33.33 0 0 1 0-.18v-1.66a17.74 17.74 0 0 1 0-1.8 1.48 1.48 0 0 1 0-.38 3.17 3.17 0 0 1 0-.4v-.32a.86.86 0 0 1 0-.35 1.5 1.5 0 0 1 .1-.29.84.84 0 0 1 1-.3.68.68 0 0 1 .32.72v1.13a5.39 5.39 0 0 1 0 .72 1.31 1.31 0 0 0 0 .32v.08a1.78 1.78 0 0 1 0 .42v.46a1.32 1.32 0 0 0 0 .25v.11c.08.48.38 1.07.67.75a.17.17 0 0 1 .1-.13l.42-.48.16-.16a4.52 4.52 0 0 1 .3-.35l.11-.11a1 1 0 0 1 1.28.11 2.07 2.07 0 0 0 .46.45c.24.22.14.16.17.21a1.92 1.92 0 0 0 .27.33c.42.33.85-.33.89-.8v-2.85a1.7 1.7 0 0 1 0-.75.87.87 0 0 1 1.07-.45.66.66 0 0 1 .33.53V138a2.74 2.74 0 0 1 0 1v.3a.73.73 0 0 0 0 .18v1.36a.93.93 0 0 1 0 .35v1a1 1 0 0 1-.22.66.88.88 0 0 1-1.23-.19l-.06-.1a3.08 3.08 0 0 1-.32-.48l-.08-.14a3.57 3.57 0 0 0-.54-.48 1.94 1.94 0 0 0-1.34-.62 1.7 1.7 0 0 0-1.29.67 4.31 4.31 0 0 1-.46.46 3.52 3.52 0 0 0-.61.64.9.9 0 0 1-1.18.37z"/><rect class="gs13-5" x="524.13" y="144.21" width="51.08" height="35.76" rx="8.05" ry="8.05"/><rect class="gs13-1" x="524.13" y="144.21" width="51.08" height="35.76" rx="8.05" ry="8.05"/><rect class="gs13-3" x="534.96" y="154.25" width="33.16" height="19.58" rx="4.53" ry="4.53"/><rect class="gs13-4" x="530.04" y="149.91" width="38.08" height="24.18" rx="1.81" ry="1.81"/><path class="gs13-2" d="M536.45 166.52a.62.62 0 0 1-.35-.61 3.22 3.22 0 0 0 0-.43v-1.2a.33.33 0 0 1 0-.18v-1.66a17.74 17.74 0 0 1 0-1.8 1.48 1.48 0 0 1 0-.38 3.17 3.17 0 0 1 0-.4v-.32a.86.86 0 0 1 0-.35 1.5 1.5 0 0 1 .1-.29.84.84 0 0 1 1-.3.68.68 0 0 1 .32.72v1.13a5.39 5.39 0 0 1 0 .72 1.31 1.31 0 0 0 0 .32v.08a1.78 1.78 0 0 1 0 .42v.46a1.32 1.32 0 0 0 0 .25v.11c.08.48.38 1.07.67.75a.17.17 0 0 1 .1-.13l.42-.48.16-.16a4.52 4.52 0 0 1 .3-.35l.11-.11a1 1 0 0 1 1.3.14 2.07 2.07 0 0 0 .46.45c.24.22.14.16.17.21a1.92 1.92 0 0 0 .27.33c.42.33.85-.33.89-.8v-2.85a1.7 1.7 0 0 1 0-.75.87.87 0 0 1 1.07-.45.66.66 0 0 1 .33.53v2.56a2.74 2.74 0 0 1 0 1v.3a.73.73 0 0 0 0 .18v1.28a.93.93 0 0 1 0 .35v1a1 1 0 0 1-.22.66.88.88 0 0 1-1.23-.19l-.06-.1a3.08 3.08 0 0 1-.32-.48l-.08-.14a3.57 3.57 0 0 0-.54-.48 1.94 1.94 0 0 0-1.34-.62 1.7 1.7 0 0 0-1.29.67 4.31 4.31 0 0 1-.46.46 3.52 3.52 0 0 0-.61.64.9.9 0 0 1-1.18.37v-.05zM546.1 166.52a.62.62 0 0 1-.35-.61 3.22 3.22 0 0 0 0-.43v-1.2a.33.33 0 0 1 0-.18v-1.66a17.74 17.74 0 0 1 0-1.8 1.48 1.48 0 0 1 0-.38 3.17 3.17 0 0 1 0-.4v-.32a.86.86 0 0 1 0-.35 1.5 1.5 0 0 1 .1-.29.84.84 0 0 1 1-.3.68.68 0 0 1 .32.72v1.13a5.39 5.39 0 0 1 0 .72 1.31 1.31 0 0 0 0 .32v.08a1.78 1.78 0 0 1 0 .42v.46a1.32 1.32 0 0 0 0 .25v.11c.08.48.38 1.07.67.75a.16.16 0 0 1 .1-.13l.41-.48.16-.16a4.52 4.52 0 0 1 .3-.35l.11-.11a1 1 0 0 1 1.28.11 2.07 2.07 0 0 0 .46.45c.24.22.14.16.17.21a1.92 1.92 0 0 0 .27.33c.42.33.85-.33.89-.8v-2.85a1.7 1.7 0 0 1 0-.75.87.87 0 0 1 1.07-.45.66.66 0 0 1 .33.53v2.56a2.74 2.74 0 0 1 0 1v.33a.73.73 0 0 0 0 .18v1.31a.93.93 0 0 1 0 .35v1a1 1 0 0 1-.22.66.88.88 0 0 1-1.23-.19l-.06-.1a3.08 3.08 0 0 1-.32-.48l-.08-.14a3.57 3.57 0 0 0-.54-.48 1.94 1.94 0 0 0-1.34-.62 1.7 1.7 0 0 0-1.29.67 4.31 4.31 0 0 1-.46.46 3.52 3.52 0 0 0-.61.64.9.9 0 0 1-1.18.37zM555.75 166.52a.62.62 0 0 1-.35-.61 3.22 3.22 0 0 0 0-.43v-1.2a.33.33 0 0 1 0-.18v-1.66a17.74 17.74 0 0 1 0-1.8 1.48 1.48 0 0 1 0-.38 3.17 3.17 0 0 1 0-.4v-.32a.86.86 0 0 1 0-.35 1.5 1.5 0 0 1 .1-.29.84.84 0 0 1 1-.3.68.68 0 0 1 .32.72v1.13a5.39 5.39 0 0 1 0 .72 1.31 1.31 0 0 0 0 .32v.08a1.78 1.78 0 0 1 0 .42v.46a1.32 1.32 0 0 0 0 .25v.11c.08.48.38 1.07.67.75a.17.17 0 0 1 .1-.13l.42-.48.16-.16a4.52 4.52 0 0 1 .3-.35l.11-.11a1 1 0 0 1 1.28.11 2.07 2.07 0 0 0 .46.45c.24.22.14.16.17.21a1.92 1.92 0 0 0 .27.33c.42.33.85-.33.89-.8v-2.85a1.7 1.7 0 0 1 0-.75.87.87 0 0 1 1.07-.45.66.66 0 0 1 .33.53v2.56a2.74 2.74 0 0 1 0 1v.33a.73.73 0 0 0 0 .18v1.31a.93.93 0 0 1 0 .35v1a1 1 0 0 1-.22.66.88.88 0 0 1-1.23-.19l-.06-.1a3.08 3.08 0 0 1-.32-.48l-.08-.14a3.57 3.57 0 0 0-.54-.48 1.94 1.94 0 0 0-1.34-.62 1.7 1.7 0 0 0-1.29.67 4.31 4.31 0 0 1-.46.46 3.52 3.52 0 0 0-.61.64.9.9 0 0 1-1.18.37z"/><rect class="gs13-6" x="193.91" y="37.88" width="271.21" height="256.21" rx="3.14" ry="3.14"/><g class="gs13-7"><path class="gs13-8" d="M434.2 110.88h-13.08c-1.1 0-2-1.59-2-3.53 0-1.94.9-3.53 2-3.53h26.67c1.1 0 2-1.59 2-3.53 0-1.94-.9-3.53-2-3.53h-25.57M434.2 125h-13.08c-1.1 0-2-1.59-2-3.53 0-1.94.9-3.53 2-3.53h26.67c1.1 0 2-1.59 2-3.53 0-1.94-.9-3.53-2-3.53h-13.72M434.2 139.17h-13.08c-1.1 0-2-1.59-2-3.53 0-1.94.9-3.53 2-3.53h26.67c1.1 0 2-1.59 2-3.53 0-1.94-.9-3.53-2-3.53h-13.72M434.2 153.31h-13.08c-1.1 0-2-1.59-2-3.53 0-1.94.9-3.53 2-3.53h26.67c1.1 0 2-1.59 2-3.53 0-1.94-.9-3.53-2-3.53h-13.72M434.2 167.47h-13.08c-1.1 0-2-1.59-2-3.53 0-1.94.9-3.53 2-3.53h26.67c1.1 0 2-1.59 2-3.53 0-1.94-.9-3.53-2-3.53h-13.72M434.2 181.6h-13.08c-1.1 0-2-1.59-2-3.53 0-1.94.9-3.53 2-3.53h26.67c1.1 0 2-1.59 2-3.53 0-1.94-.9-3.53-2-3.53h-13.72"/><path class="gs13-8" d="M434.2 195.59h-13.08c-1.1 0-2-1.59-2-3.53 0-1.94.9-3.53 2-3.53h26.67c1.1 0 2-1.59 2-3.53 0-1.94-.9-3.53-2-3.53h-13.72M434.2 209.74h-13.08c-1.1 0-2-1.59-2-3.53 0-1.94.9-3.53 2-3.53h26.67c1.1 0 2-1.59 2-3.53 0-1.94-.9-3.53-2-3.53h-13.72M434.2 223.88h-13.08c-1.1 0-2-1.59-2-3.53 0-1.94.9-3.53 2-3.53h26.67c1.1 0 2-1.59 2-3.53 0-1.94-.9-3.53-2-3.53h-13.72M434.2 238h-13.08c-1.1 0-2-1.59-2-3.53 0-1.94.9-3.53 2-3.53h26.67c1.1 0 2-1.59 2-3.53 0-1.94-.9-3.53-2-3.53h-13.72M434.2 82.57h-13.08c-1.1 0-2-1.59-2-3.53 0-1.94.9-3.53 2-3.53h26.67c1.1 0 2-1.59 2-3.53 0-1.94-.9-3.53-2-3.53h-13.72"/><path class="gs13-8" d="M434.28 68.47h-13.07c-1.1 0-2-1.59-2-3.53 0-1.94.9-3.53 2-3.53h26.67c1.1 0 2-1.59 2-3.53 0-1.94-.9-3.53-2-3.53h-13.73M434.2 96.71h-13.08c-1.1 0-2-1.59-2-3.53 0-1.94.9-3.53 2-3.53h26.67c1.1 0 2-1.59 2-3.53 0-1.94-.9-3.53-2-3.53h-13.72M434.2 252.09h-13.08c-1.1 0-2-1.59-2-3.53 0-1.94.9-3.53 2-3.53h26.67c1.1 0 2-1.59 2-3.53 0-1.94-.9-3.53-2-3.53h-13.72M421.12 259.18h26.67c1.1 0 2-1.59 2-3.53 0-1.94-.9-3.53-2-3.53h-13.72"/></g><path class="gs13-5" d="M415.2 254.25h38.91v14.5H415.2z"/><g class="gs13-9"><path class="gs13-10" d="M418.67 260.66h3.75c1.72 0 2.6.79 2.6 2.12a1.91 1.91 0 0 1-1.3 2 1.44 1.44 0 0 1 1.17 1.66 3.57 3.57 0 0 0 .43 2.07h-1.47a2.19 2.19 0 0 1-.21-1.16c0-1.44-.3-2.08-1.56-2.08h-2v3.2h-1.37zm1.38 3.58h2.26a1.16 1.16 0 0 0 1.34-1.25 1.13 1.13 0 0 0-1.36-1.2h-2.23v2.45zM426 265.67a2.87 2.87 0 1 1 2.87 3 2.75 2.75 0 0 1-2.87-3zm4.49 0a1.66 1.66 0 1 0-1.62 2 1.75 1.75 0 0 0 1.59-2zM437.76 268.47h-1.23v-.79a1.91 1.91 0 0 1-1.62 1c-1.49 0-2.12-.75-2.12-2.23v-3.61H434v3.49c0 1 .41 1.36 1.09 1.36a1.34 1.34 0 0 0 1.4-1.55v-3.3h1.25zM438.5 262.83h1v-1.71h1.25v1.71h1.13v.93h-1.18v3c0 .52 0 .78.61.78a2.15 2.15 0 0 0 .53 0v1c-.28 0-.54.07-.81.07-1.31 0-1.55-.51-1.57-1.45v-3.39h-1v-.94zM443.72 266a1.51 1.51 0 0 0 1.33 1.67h.2a1.32 1.32 0 0 0 1.39-1h1.19a2.49 2.49 0 0 1-2.58 1.94 2.7 2.7 0 0 1-2.78-3 2.75 2.75 0 1 1 5.44.32h-4.19zm2.93-.83a1.46 1.46 0 0 0-2.93 0h2.93zM448.85 262.83H450v1.1a1.84 1.84 0 0 1 1.66-1.25 2.87 2.87 0 0 1 .47 0v1.21a4.36 4.36 0 0 0-.54 0c-.86 0-1.54.69-1.54 2v2.68h-1.25z"/></g><rect class="gs13-11" x="193.99" y="335.62" width="81.49" height="32.75" rx="3.14" ry="3.14"/><rect class="gs13-11" x="285.02" y="335.62" width="81.49" height="32.75" rx="3.14" ry="3.14"/><rect class="gs13-11" x="376.04" y="335.62" width="81.49" height="32.75" rx="3.14" ry="3.14"/><path class="gs13-12" d="M210.47 342.1h2.61c2.35 0 3.66 1.17 3.66 3.63s-1.12 4-3.66 4h-2.61v-7.63zm1 6.76h1.69c.69 0 2.56-.19 2.56-3 0-1.81-.67-2.91-2.54-2.91h-1.7v5.91zM218.51 343.2h-.93v-1.11h.91zm-.91 1h.91v5.51h-.93zM220.21 348a1.22 1.22 0 0 0 1.48 1.07c.57 0 1.33-.13 1.33-.82s-.9-.82-1.8-1-1.8-.5-1.8-1.56a1.84 1.84 0 0 1 2.06-1.57c1.22 0 2.19.38 2.26 1.73h-.91a1.11 1.11 0 0 0-1.28-.93c-.6 0-1.17.15-1.17.7s1 .76 1.8 1 1.8.5 1.8 1.57c0 1.31-1.23 1.74-2.35 1.74s-2.28-.5-2.33-1.87zM226 344.2h1.1v.8H226v3.42c0 .42.12.49.68.49h.42v.8h-.69c-.94 0-1.31-.19-1.31-1.21V345h-.94v-.8h.94v-1.65h.9v1.66zM227.78 344.2h.8v1.16a2 2 0 0 1 2-1.29v1c-1.46 0-2 .83-2 2.23v2.45h-.91zM232.05 343.2h-.91v-1.11h.91v1.11zm-.91 1h.91v5.51h-.91v-5.51zM233.22 342.1h.91v2.85a1.86 1.86 0 0 1 1.76-.87c1.7 0 2.54 1.34 2.54 2.9s-.83 2.87-2.52 2.87a2.11 2.11 0 0 1-1.78-.86v.74h-.91v-7.63zm2.56 2.77c-1.22 0-1.69 1-1.69 2.08s.49 2.09 1.74 2.09 1.65-1.06 1.65-2.13a1.77 1.77 0 0 0-1.7-2.04zM243.81 349.71H243v-.87a1.92 1.92 0 0 1-1.79 1 1.71 1.71 0 0 1-1.9-2v-3.63h.91v3.73a1 1 0 0 0 1.08 1.06 1.55 1.55 0 0 0 1.63-1.73v-3.07h.91zM246.17 344.2h1.1v.8h-1.1v3.42c0 .42.12.49.68.49h.42v.8h-.69c-.94 0-1.31-.19-1.31-1.21V345h-.94v-.8h.94v-1.65h.91v1.66zM252.7 348a2.22 2.22 0 0 1-2.36 1.88c-1.76 0-2.59-1.22-2.65-2.9a2.65 2.65 0 0 1 2.42-2.86h.17c2 0 2.55 1.82 2.5 3.16h-4.13a1.62 1.62 0 0 0 1.41 1.8h.31a1.33 1.33 0 0 0 1.43-1.08h.9zm-.87-1.54a1.58 1.58 0 0 0-3.17 0h3.17zM258.38 349.71h-.91V349a1.86 1.86 0 0 1-1.76.88c-1.7 0-2.54-1.34-2.54-2.9s.83-2.87 2.52-2.87a2.11 2.11 0 0 1 1.78.86v-2.84h.91v7.62zm-2.56-.67c1.22 0 1.68-1 1.68-2.08s-.49-2.09-1.74-2.09-1.65 1.06-1.65 2.13a1.79 1.79 0 0 0 1.71 2zM211 353.11h2.61c2.35 0 3.66 1.17 3.66 3.63s-1.12 4-3.66 4H211v-7.63zm1 6.76h1.69c.69 0 2.56-.19 2.56-3 0-1.81-.67-2.91-2.54-2.91H212v5.91zM223 360.7a1.22 1.22 0 0 1-.65.15.73.73 0 0 1-.77-.85 2.45 2.45 0 0 1-1.94.85 1.56 1.56 0 0 1-1.82-1.55c0-1.1.93-1.51 1.87-1.7s1.86-.13 1.86-.81a1 1 0 0 0-1.23-.92 1.13 1.13 0 0 0-1.38 1H218c.05-1.37 1.11-1.85 2.34-1.85 1 0 2.07.22 2.07 1.51v2.94c0 .43 0 .62.29.62a.77.77 0 0 0 .28 0v.66zm-1.47-2.83a4.66 4.66 0 0 1-1.64.37 1.06 1.06 0 0 0-1.11 1 .85.85 0 0 0 1.07.81 1.48 1.48 0 0 0 1.69-1.25v-.93zM224.83 355.21h1.1v.79h-1.1v3.46c0 .42.12.49.68.49h.42v.8h-.69c-.94 0-1.31-.19-1.31-1.21V356H223v-.8h.94v-1.65h.91v1.62zM231.58 360.7a1.22 1.22 0 0 1-.65.15.73.73 0 0 1-.77-.85 2.45 2.45 0 0 1-1.94.85 1.56 1.56 0 0 1-1.82-1.55c0-1.1.93-1.51 1.87-1.7s1.86-.13 1.86-.81a1 1 0 0 0-1.23-.92 1.13 1.13 0 0 0-1.38 1h-.94c.05-1.37 1.11-1.85 2.34-1.85 1 0 2.07.22 2.07 1.51v2.94c0 .43 0 .62.29.62a.77.77 0 0 0 .28 0zm-1.47-2.83a4.66 4.66 0 0 1-1.64.37 1.06 1.06 0 0 0-1.11 1 .85.85 0 0 0 1.07.81 1.48 1.48 0 0 0 1.69-1.25v-.93zM239.37 355.34a1.66 1.66 0 0 0-1.74-1.57h-.15c-.85 0-1.71.31-1.71 1.3s1.22 1.08 2.44 1.35 2.43.7 2.43 2.2-1.59 2.27-3 2.27c-1.71 0-3.15-.83-3.15-2.69h1c0 1.28 1.07 1.83 2.22 1.83.92 0 1.93-.29 1.93-1.39s-1.22-1.23-2.43-1.49-2.44-.62-2.44-2 1.38-2.23 2.76-2.23c1.56 0 2.74.74 2.81 2.41h-1zM242.72 355.21h1.1v.79h-1.1v3.46c0 .42.12.49.68.49h.42v.8h-.69c-.94 0-1.31-.19-1.31-1.21V356h-.94v-.8h.94v-1.65h.91v1.62zM246.93 355.08a2.89 2.89 0 1 1-2.67 3.09v-.2a2.62 2.62 0 0 1 2.33-2.88h.35zm0 5a2.12 2.12 0 1 0-1.72-2.08 1.79 1.79 0 0 0 1.72 2zM250.37 355.21h.85v1.16a2 2 0 0 1 2-1.29v1c-1.46 0-2 .83-2 2.23v2.45h-.91zM258.2 359a2.22 2.22 0 0 1-2.36 1.88c-1.76 0-2.59-1.22-2.65-2.9a2.65 2.65 0 0 1 2.42-2.86h.17c2 0 2.55 1.82 2.5 3.16h-4.13a1.62 1.62 0 0 0 1.41 1.8h.31a1.33 1.33 0 0 0 1.43-1.08h.9zm-.87-1.54a1.58 1.58 0 0 0-3.17 0h3.17zM308 344.39a2 2 0 0 0-2.13-1.62c-1.81 0-2.58 1.49-2.58 3.08s.71 3.15 2.56 3.15a2.15 2.15 0 0 0 2.2-2.1v-.1h1a3.1 3.1 0 0 1-3.14 3.06h-.16c-2.37 0-3.52-1.75-3.52-4s1.26-4 3.6-4a2.91 2.91 0 0 1 3.14 2.47zM312.27 344.07a2.89 2.89 0 1 1-2.67 3.09v-.2a2.62 2.62 0 0 1 2.33-2.88h.35zm0 5a2.12 2.12 0 1 0-1.72-2.08 1.79 1.79 0 0 0 1.72 2zM315.75 344.2h.83v.88a1.92 1.92 0 0 1 1.79-1 1.71 1.71 0 0 1 1.9 2v3.63h-.91V346a1 1 0 0 0-1.12-1.11 1.55 1.55 0 0 0-1.63 1.73v3.11h-.91zM322 348a1.22 1.22 0 0 0 1.48 1.07c.57 0 1.33-.13 1.33-.82s-.9-.82-1.8-1-1.8-.5-1.8-1.56a1.84 1.84 0 0 1 2.06-1.57c1.22 0 2.19.38 2.26 1.73h-.91a1.11 1.11 0 0 0-1.28-.93c-.6 0-1.17.15-1.17.7s1 .76 1.8 1 1.8.5 1.8 1.57c0 1.31-1.23 1.74-2.35 1.74s-2.28-.5-2.33-1.87zM331 349.71h-.85v-.87a1.92 1.92 0 0 1-1.79 1 1.71 1.71 0 0 1-1.9-2v-3.63h.91v3.73a1 1 0 0 0 1.12 1.11 1.55 1.55 0 0 0 1.63-1.73v-3.12h.91zM332.13 344.2h.87v.8a2 2 0 0 1 1.78-.94 1.46 1.46 0 0 1 1.51.94 2 2 0 0 1 1.73-.94 1.54 1.54 0 0 1 1.83 1.6v4h-.91V346a1 1 0 0 0-1.07-1.23 1.34 1.34 0 0 0-1.44 1.41v3.43h-.83V346a1 1 0 0 0-1-1.23 1.49 1.49 0 0 0-1.47 1.41v3.43h-.93zM345.66 348a2.22 2.22 0 0 1-2.36 1.88c-1.76 0-2.59-1.22-2.65-2.9a2.65 2.65 0 0 1 2.42-2.86h.17c2 0 2.55 1.82 2.5 3.16h-4.16A1.62 1.62 0 0 0 343 349h.31a1.33 1.33 0 0 0 1.43-1.08h.93zm-.87-1.54a1.59 1.59 0 0 0-3.17 0h3.17zM346.38 344.2h.85v1.16a2 2 0 0 1 2-1.29v1c-1.46 0-2 .83-2 2.23v2.45h-.91zM296.28 353.11h1.39l2.4 6.4 2.41-6.4h1.39v7.62h-1v-6.34l-2.38 6.34h-.86l-2.38-6.34v6.34h-1zM310 360.7a1.22 1.22 0 0 1-.65.15.73.73 0 0 1-.77-.85 2.45 2.45 0 0 1-1.94.85 1.56 1.56 0 0 1-1.82-1.55c0-1.1.93-1.51 1.87-1.7s1.86-.13 1.86-.81a1 1 0 0 0-1.23-.92 1.13 1.13 0 0 0-1.38 1h-.91c0-1.37 1.11-1.85 2.34-1.85 1 0 2.07.22 2.07 1.51v2.94c0 .43 0 .62.29.62a.77.77 0 0 0 .28 0v.66zm-1.44-2.82a4.66 4.66 0 0 1-1.64.37 1.06 1.06 0 0 0-1.11 1 .85.85 0 0 0 1.07.81 1.48 1.48 0 0 0 1.69-1.25v-.93zM310.58 355.21h.85v.88a1.92 1.92 0 0 1 1.79-1 1.71 1.71 0 0 1 1.9 2v3.63h-.91V357a1 1 0 0 0-1.12-1.11 1.55 1.55 0 0 0-1.63 1.73v3.11h-.88v-5.51zM321.13 360.7a1.22 1.22 0 0 1-.65.15.73.73 0 0 1-.77-.85 2.45 2.45 0 0 1-1.94.85 1.56 1.56 0 0 1-1.77-1.55c0-1.1.93-1.51 1.87-1.7s1.86-.13 1.86-.81a1 1 0 0 0-1.23-.92 1.13 1.13 0 0 0-1.38 1h-.91c0-1.37 1.11-1.85 2.34-1.85 1 0 2.07.22 2.07 1.51v2.94c0 .43 0 .62.29.62a.77.77 0 0 0 .28 0v.66zm-1.47-2.83a4.66 4.66 0 0 1-1.64.37 1.06 1.06 0 0 0-1.11 1 .85.85 0 0 0 1.09.76 1.48 1.48 0 0 0 1.69-1.25v-.93zM326.46 360.25c0 1.79-.82 2.71-2.56 2.71-1 0-2.23-.42-2.28-1.62h.91c0 .66.83.9 1.43.9 1.18 0 1.65-.85 1.65-2.09v-.36a1.84 1.84 0 0 1-1.72 1 2.5 2.5 0 0 1-2.46-2.79c0-1.3.64-2.91 2.55-2.91a1.8 1.8 0 0 1 1.64.92v-.79h.85v5zm-.9-2.4c0-1-.43-2-1.57-2a1.75 1.75 0 0 0-1.63 2c0 1 .36 2.1 1.56 2.1s1.66-1.06 1.66-2.1zM332.26 359a2.22 2.22 0 0 1-2.36 1.88c-1.76 0-2.59-1.22-2.65-2.9a2.65 2.65 0 0 1 2.42-2.86h.17c2 0 2.55 1.82 2.5 3.16h-4.13a1.62 1.62 0 0 0 1.41 1.8h.31a1.33 1.33 0 0 0 1.43-1.08h.9zm-.87-1.54a1.59 1.59 0 0 0-3.17 0h3.17zM333 355.21h.85v.79a2 2 0 0 1 1.78-.94 1.46 1.46 0 0 1 1.51.94 2 2 0 0 1 1.73-.94 1.54 1.54 0 0 1 1.83 1.6v4h-.91v-3.62a1 1 0 0 0-1.07-1.23 1.34 1.34 0 0 0-1.44 1.41v3.43h-.91V357a1 1 0 0 0-1-1.23 1.49 1.49 0 0 0-1.47 1.41v3.43h-.9v-5.45zM346.58 359a2.22 2.22 0 0 1-2.36 1.88c-1.76 0-2.59-1.22-2.65-2.9a2.65 2.65 0 0 1 2.42-2.86h.17c2 0 2.55 1.82 2.5 3.16h-4.13a1.62 1.62 0 0 0 1.41 1.8h.31a1.33 1.33 0 0 0 1.43-1.08h.9zm-.87-1.54a1.59 1.59 0 0 0-3.17 0h3.17zM347.3 355.21h.85v.88a1.92 1.92 0 0 1 1.79-1 1.71 1.71 0 0 1 1.9 2v3.63h-.91V357a1 1 0 0 0-1.12-1.11 1.55 1.55 0 0 0-1.63 1.73v3.11h-.91zM354.22 355.21h1.1v.79h-1.1v3.46c0 .42.12.49.68.49h.42v.8h-.74c-.94 0-1.31-.19-1.31-1.21V356h-.94v-.8h.94v-1.65h.91zM400.76 347.47h3.34a2.25 2.25 0 0 1 0 4.5h-2.33v3.11h-1v-7.61zm1 3.65h2c1.14 0 1.66-.49 1.66-1.4s-.52-1.4-1.66-1.4h-2v2.8zM407.31 347.47h.91v7.62h-.91v-7.62zM413.92 355.09h-.85v-.87a1.92 1.92 0 0 1-1.79 1 1.71 1.71 0 0 1-1.9-2v-3.63h.91v3.73a1 1 0 0 0 1.09 1.15 1.55 1.55 0 0 0 1.63-1.73v-3.12h.91v5.47zM419.77 354.62c0 1.79-.82 2.71-2.56 2.71-1 0-2.23-.42-2.28-1.62h.91c0 .66.83.9 1.43.9 1.18 0 1.65-.85 1.65-2.09v-.36a1.84 1.84 0 0 1-1.72 1 2.5 2.5 0 0 1-2.46-2.79c0-1.3.64-2.91 2.55-2.91a1.8 1.8 0 0 1 1.64.92v-.79h.85v5zm-.9-2.4c0-1-.43-2-1.57-2a1.75 1.75 0 0 0-1.63 2c0 1 .36 2.1 1.56 2.1s1.64-1.06 1.64-2.1zM421.83 348.59h-.91v-1.12h.91v1.12zm-.91 1h.91v5.51h-.91v-5.51zM423 349.58h.85v.89a1.92 1.92 0 0 1 1.79-1 1.71 1.71 0 0 1 1.9 2v3.63h-.93v-3.73a1 1 0 0 0-1.12-1.11 1.55 1.55 0 0 0-1.63 1.73v3.11h-.91zM429.18 353.35a1.22 1.22 0 0 0 1.48 1.07c.57 0 1.33-.13 1.33-.82s-.9-.82-1.8-1-1.8-.5-1.8-1.56a1.84 1.84 0 0 1 2.06-1.57c1.22 0 2.19.38 2.26 1.73h-.91a1.11 1.11 0 0 0-1.28-.93c-.6 0-1.17.15-1.17.7s1 .76 1.8 1 1.8.5 1.8 1.57c0 1.31-1.23 1.74-2.35 1.74s-2.28-.5-2.33-1.87z"/><rect class="gs13-11" x="193.38" y="302.35" width="264.87" height="25.49" rx="3.14" ry="3.14"/><path class="gs13-12" d="M255.75 313.23a2.63 2.63 0 0 0-2.8-2.13c-2.38 0-3.39 2-3.39 4 0 2.28 1 4.19 3.4 4.19a2.83 2.83 0 0 0 2.89-2.77v-.11h1.33a4.07 4.07 0 0 1-4.13 4h-.2c-3.11 0-4.62-2.3-4.62-5.21s1.65-5.27 4.73-5.27a3.83 3.83 0 0 1 4.12 3.25zM264.67 317.92a2.92 2.92 0 0 1-3.1 2.46c-2.31 0-3.4-1.6-3.47-3.81a3.49 3.49 0 0 1 3.2-3.76h.2c2.56 0 3.35 2.4 3.28 4.15h-5.42a2.13 2.13 0 0 0 2.26 2.38 1.74 1.74 0 0 0 1.88-1.41h1.17zm-1.15-2a2.08 2.08 0 1 0-4.16 0h4.16zM265.87 313H267v1.15a2.52 2.52 0 0 1 2.35-1.32c1.91 0 2.49 1.09 2.49 2.65v4.76h-1.15v-4.9a1.36 1.36 0 0 0-1.25-1.46h-.22a2 2 0 0 0-2.14 2.27v4.09h-1.19V313zM275.17 313h1.41v1h-1.44v4.5c0 .55.15.64.9.64h.54v1h-.91c-1.23 0-1.72-.25-1.72-1.58V314h-1.23v-1H274v-2.17h1.19zM277.75 313h1.12v1.49a2.63 2.63 0 0 1 2.66-1.7V314c-1.92 0-2.62 1.09-2.62 2.93v3.22h-1.19zM288.72 320.19a1.6 1.6 0 0 1-.85.2 1 1 0 0 1-1-1.12 3.21 3.21 0 0 1-2.55 1.12c-1.32 0-2.4-.59-2.4-2 0-1.64 1.22-2 2.45-2.23s2.44-.17 2.44-1.06a1.38 1.38 0 0 0-1.61-1.21c-1 0-1.75.31-1.81 1.37h-1.19c.07-1.79 1.46-2.42 3.07-2.42 1.3 0 2.72.29 2.72 2v3.73c0 .56 0 .81.38.81a1 1 0 0 0 .36-.07v.88zm-1.93-3.72a6.12 6.12 0 0 1-2.16.49c-.78.14-1.46.42-1.46 1.3s.67 1.06 1.4 1.06c1.57 0 2.21-1 2.21-1.64v-1.21zM289.76 310.22H291v10h-1.19v-10zM293.91 311.68h-1.19v-1.46h1.19v1.46zm-1.19 1.3h1.19v7.24h-1.19V313zM295 319.31l4.4-5.31h-4.09v-1h5.63v.81l-4.43 5.38h4.62v1H295v-.91zM308.38 317.92a2.92 2.92 0 0 1-3.1 2.46c-2.31 0-3.4-1.6-3.47-3.81a3.49 3.49 0 0 1 3.2-3.76h.2c2.56 0 3.35 2.4 3.28 4.15h-5.42a2.13 2.13 0 0 0 2.26 2.38 1.74 1.74 0 0 0 1.88-1.41h1.17zm-1.15-2a2.08 2.08 0 1 0-4.16 0h4.16zM316.05 320.22h-1.19v-1a2.44 2.44 0 0 1-2.31 1.15c-2.23 0-3.33-1.76-3.33-3.81s1.09-3.77 3.31-3.77a2.77 2.77 0 0 1 2.34 1.13v-3.73h1.19v10zm-3.36-.88c1.6 0 2.21-1.37 2.21-2.73s-.64-2.75-2.28-2.75-2.17 1.39-2.17 2.8.7 2.68 2.24 2.68zM328.72 313.23a2.63 2.63 0 0 0-2.8-2.13c-2.38 0-3.39 2-3.39 4 0 2.28 1 4.19 3.4 4.19a2.83 2.83 0 0 0 2.89-2.77v-.11h1.33a4.07 4.07 0 0 1-4.13 4h-.2c-3.11 0-4.62-2.3-4.62-5.21s1.65-5.27 4.73-5.27a3.83 3.83 0 0 1 4.12 3.25zM334.58 312.81c2.3 0 3.52 1.67 3.52 3.8s-1.22 3.78-3.52 3.78-3.52-1.67-3.52-3.78 1.23-3.8 3.52-3.8zm0 6.53c1.25 0 2.25-1 2.25-2.73s-1-2.75-2.25-2.75-2.26 1-2.26 2.75 1.02 2.73 2.26 2.73zM339.36 313h1.12v1.15a2.52 2.52 0 0 1 2.35-1.32c1.91 0 2.49 1.09 2.49 2.65v4.76h-1.19v-4.9a1.36 1.36 0 0 0-1.25-1.46h-.22a2 2 0 0 0-2.14 2.27v4.09h-1.19zM347.49 314h-1.22v-1h1.22v-1.1c0-1.18.7-1.79 2-1.79a2.91 2.91 0 0 1 .77.11v1a2.22 2.22 0 0 0-.67-.1.74.74 0 0 0-.91.81v1h1.4v1h-1.4v6.19h-1.19V314zM352.26 311.68h-1.19v-1.46h1.19v1.46zm-1.19 1.3h1.19v7.24h-1.19V313zM360.22 319.6c0 2.35-1.08 3.56-3.36 3.56-1.36 0-2.93-.55-3-2.13h1.19c.06.87 1.09 1.18 1.88 1.18 1.55 0 2.17-1.12 2.17-2.75V319a2.41 2.41 0 0 1-2.25 1.32c-2.16 0-3.24-1.7-3.24-3.67 0-1.71.84-3.82 3.35-3.82a2.36 2.36 0 0 1 2.16 1.21v-1h1.12zm-1.22-3.13c0-1.28-.56-2.59-2.06-2.59s-2.14 1.25-2.14 2.63.48 2.76 2 2.76 2.2-1.46 2.2-2.8zM367.86 320.22h-1.12v-1.15a2.52 2.52 0 0 1-2.35 1.32c-1.91 0-2.49-1.09-2.49-2.65V313h1.19v4.9a1.36 1.36 0 0 0 1.25 1.46h.22a2 2 0 0 0 2.14-2.27V313h1.19zM369.47 313h1.11v1.49a2.63 2.63 0 0 1 2.66-1.7V314c-1.92 0-2.62 1.09-2.62 2.93v3.22h-1.19zM380.45 320.19a1.6 1.6 0 0 1-.85.2 1 1 0 0 1-1-1.12 3.21 3.21 0 0 1-2.55 1.12c-1.32 0-2.4-.59-2.4-2 0-1.64 1.22-2 2.45-2.23s2.44-.17 2.44-1.06a1.38 1.38 0 0 0-1.61-1.21c-1 0-1.75.31-1.81 1.37h-1.19c.07-1.79 1.46-2.42 3.07-2.42 1.3 0 2.72.29 2.72 2v3.73c0 .56 0 .81.38.81a1 1 0 0 0 .36-.07v.88zm-1.93-3.72a6.12 6.12 0 0 1-2.16.49c-.78.14-1.46.42-1.46 1.3s.67 1.06 1.4 1.06c1.57 0 2.21-1 2.21-1.64v-1.21zM383.06 313h1.44v1h-1.44v4.5c0 .55.15.64.9.64h.55v1h-.93c-1.23 0-1.72-.25-1.72-1.58V314h-1.23v-1h1.23v-2.17h1.19V313zM386.94 311.68h-1.19v-1.46h1.19v1.46zm-1.19 1.3h1.19v7.24h-1.19V313zM391.77 312.81c2.3 0 3.52 1.67 3.52 3.8s-1.22 3.78-3.52 3.78-3.52-1.67-3.52-3.78 1.22-3.8 3.52-3.8zm0 6.53c1.25 0 2.25-1 2.25-2.73s-1-2.75-2.25-2.75-2.26 1-2.26 2.75 1.02 2.73 2.26 2.73zM396.58 313h1.12v1.15a2.52 2.52 0 0 1 2.35-1.32c1.91 0 2.49 1.09 2.49 2.65v4.76h-1.19v-4.9a1.36 1.36 0 0 0-1.25-1.46h-.22a2 2 0 0 0-2.14 2.27v4.09h-1.16V313z"/><path class="gs13-10" d="M206.17 275.06h6.91v1.12h-5.58v3.18h5.2v1.11h-5.2v3.46h5.62V285h-6.95v-10zM216.12 281.25l-2.54-3.44h1.53l1.74 2.54 1.81-2.54h1.43l-2.51 3.34 2.8 3.91h-1.5l-2-3-2 3h-1.44zM221.12 277.81h1.19v1a2.44 2.44 0 0 1 2.31-1.15c2.23 0 3.33 1.76 3.33 3.81s-1.09 3.77-3.31 3.77a2.77 2.77 0 0 1-2.34-1.13v3.74h-1.19v-10zm3.36.88c-1.6 0-2.21 1.37-2.21 2.73s.64 2.75 2.28 2.75 2.17-1.39 2.17-2.8-.7-2.67-2.24-2.67zM229 277.81h1.12v1.53a2.63 2.63 0 0 1 2.66-1.7v1.26c-1.92 0-2.62 1.09-2.62 2.93V285H229zM239.27 282.76a2.92 2.92 0 0 1-3.1 2.46c-2.31 0-3.4-1.6-3.47-3.81a3.49 3.49 0 0 1 3.2-3.76h.2c2.56 0 3.35 2.4 3.28 4.15H234a2.13 2.13 0 0 0 2.25 2.38 1.74 1.74 0 0 0 1.88-1.41h1.18zm-1.15-2a2.08 2.08 0 1 0-4.16 0h4.16zM241 282.77c0 1.06 1 1.4 1.95 1.4.74 0 1.75-.17 1.75-1.08s-1.18-1.08-2.37-1.34-2.37-.66-2.37-2 1.44-2.06 2.7-2.06c1.6 0 2.87.5 3 2.27h-1.19a1.46 1.46 0 0 0-1.68-1.22c-.78 0-1.54.2-1.54.92s1.26 1 2.37 1.26 2.38.66 2.38 2.08c0 1.72-1.61 2.28-3.08 2.28s-3-.66-3.07-2.45zM247.64 282.77c0 1.06 1 1.4 1.95 1.4.74 0 1.75-.17 1.75-1.08s-1.18-1.08-2.37-1.34-2.37-.66-2.37-2 1.44-2.06 2.7-2.06c1.6 0 2.87.5 3 2.27h-1.22a1.46 1.46 0 0 0-1.68-1.22c-.78 0-1.54.2-1.54.92s1.26 1 2.37 1.26 2.37.66 2.37 2.06c0 1.72-1.61 2.28-3.08 2.28s-3-.66-3.07-2.45zM257.3 275.06h4.7c1.88 0 3 1 3 2.62a2.4 2.4 0 0 1-1.74 2.54c1.16.22 1.4 1.08 1.5 2.06a5.13 5.13 0 0 0 .59 2.76h-1.48c-.38-.41-.17-1.48-.36-2.47s-.38-1.81-1.67-1.81h-3.27V285h-1.33zm4.1 4.61c1.25 0 2.31-.32 2.31-1.78a1.58 1.58 0 0 0-1.78-1.71h-3.35v3.49h2.82zM272.33 285.06h-1.12v-1.15a2.52 2.52 0 0 1-2.35 1.32c-1.9 0-2.49-1.09-2.49-2.65v-4.76h1.19v4.9a1.36 1.36 0 0 0 1.25 1.46h.19a2 2 0 0 0 2.14-2.27v-4.09h1.19zM273.77 277.81h1.12V279a2.52 2.52 0 0 1 2.35-1.32c1.9 0 2.49 1.09 2.49 2.65V285h-1.15v-4.9a1.36 1.36 0 0 0-1.25-1.46h-.22A2 2 0 0 0 275 281v4h-1.19v-7.24zM282.86 277.81h1.44v1h-1.44v4.5c0 .55.15.64.9.64h.55v1h-.91c-1.23 0-1.72-.25-1.72-1.58v-4.61h-1.23v-1h1.23v-2.17h1.19v2.17zM286.53 276.47h-1.19V275h1.19v1.46zm-1.19 1.3h1.19V285h-1.19v-7.24zM288 277.81h1.12v1.06a2.67 2.67 0 0 1 2.34-1.23 1.92 1.92 0 0 1 2 1.23 2.68 2.68 0 0 1 2.27-1.23c1.44 0 2.41.6 2.41 2.1V285H297v-4.7c0-.9-.24-1.61-1.4-1.61a1.75 1.75 0 0 0-1.89 1.85V285h-1.21v-4.7c0-.94-.29-1.61-1.36-1.61a2 2 0 0 0-1.93 1.85V285H288v-7.24zM305.79 282.76a2.92 2.92 0 0 1-3.1 2.46c-2.31 0-3.4-1.6-3.47-3.81a3.49 3.49 0 0 1 3.2-3.76h.2c2.56 0 3.35 2.4 3.28 4.15h-5.42a2.13 2.13 0 0 0 2.25 2.38 1.74 1.74 0 0 0 1.88-1.41h1.18zm-1.15-2a2.08 2.08 0 1 0-4.16 0h4.16z"/><rect class="gs13-1" x="43.68" y="69.18" width="172.12" height="250.17" rx="15" ry="15"/><path class="gs13-2" d="M79.79 196.28c0 2 1.46 2.75 3.26 2.75 2 0 2.72-1 2.72-1.94a1.53 1.53 0 0 0-1.07-1.62c-.9-.34-2.07-.58-3.83-1.06-2.2-.59-2.84-1.93-2.84-3.26 0-2.57 2.38-3.78 4.7-3.78 2.68 0 4.93 1.42 4.93 4.11H85.4c-.11-1.66-1.22-2.27-2.77-2.27-1 0-2.36.38-2.36 1.67a1.74 1.74 0 0 0 1.53 1.66c.2.05 3 .79 3.71 1a3.4 3.4 0 0 1 2.5 3.28c0 2.88-2.56 4-5.11 4-2.93 0-5.31-1.4-5.37-4.59zM90.84 196.47A2.48 2.48 0 0 0 93 199.2h.31a2.16 2.16 0 0 0 2.24-1.58h2a4.08 4.08 0 0 1-4.21 3.17c-2.92 0-4.55-2-4.55-4.9 0-2.65 1.73-4.92 4.5-4.92 2.93 0 4.74 2.65 4.39 5.44zm4.74-1.38a2.4 2.4 0 1 0-4.79 0h4.79zM98.79 191.25h1.93V193a3 3 0 0 1 2.72-2.05 5 5 0 0 1 .77.05v2a7.31 7.31 0 0 0-.88-.09c-1.41 0-2.52 1.13-2.52 3.19v4.43h-2v-9.33z"/><path class="gs13-2" d="M103.76 191.25H106l2.36 7.15 2.27-7.15h2.13l-3.33 9.31h-2.3zM113.58 187.71h2.05v1.94h-2.05v-1.94zm0 3.55h2.05v9.31h-2.05v-9.31zM123.74 194.37a2 2 0 0 0-2.12-1.75c-1.06 0-2.56.56-2.56 3.38 0 1.55.69 3.19 2.47 3.19a2.21 2.21 0 0 0 2.21-2.12h2.05a4 4 0 0 1-4.23 3.75c-2.92 0-4.52-2.07-4.52-4.81s1.53-5 4.59-5c2.16 0 4 1.08 4.2 3.37h-2.05zM128.58 196.47a2.48 2.48 0 0 0 2.19 2.74h.31a2.16 2.16 0 0 0 2.27-1.55h1.94a4.08 4.08 0 0 1-4.21 3.17c-2.92 0-4.55-2-4.55-4.9 0-2.65 1.73-4.92 4.5-4.92 2.93 0 4.74 2.65 4.39 5.44h-6.84zm4.79-1.35a2.4 2.4 0 1 0-4.79 0h4.79zM138.12 197.57a1.81 1.81 0 0 0 2.11 1.62c.77 0 2.12-.16 2.07-1.22s-1.55-1.21-3-1.55-3-.86-3-2.75 2.2-2.66 3.89-2.66c1.91 0 3.64.79 3.89 2.86h-2.14a1.62 1.62 0 0 0-1.89-1.24c-.59 0-1.69.14-1.69 1s1.51 1.15 3 1.5 3 .88 3 2.72c0 2.21-2.23 3-4.16 3-2.34 0-4.09-1-4.12-3.24zM76.33 207.71h9.25v1.94h-7V213h6.48v1.84h-6.48v3.76h7.13v1.94h-9.38v-12.83zM86.93 211.25h2v1.37a3.33 3.33 0 0 1 2.9-1.66 3 3 0 0 1 3.29 3.17v6.39h-2v-5.85c0-1.46-.61-2.09-1.82-2.09a2.27 2.27 0 0 0-2.3 2.28v5.66h-2.07v-9.27zM105.58 220.56h-1.94v-1.26a3.09 3.09 0 0 1-2.88 1.51c-2.93 0-4.36-2.18-4.36-5 0-3.37 2-4.84 4-4.84a3.59 3.59 0 0 1 3.1 1.46v-4.75h2.08v12.88zm-4.58-1.37c1.84 0 2.61-1.67 2.61-3.29 0-2.05-1-3.28-2.57-3.28-1.93 0-2.61 1.71-2.61 3.38s.78 3.19 2.57 3.19zM107.42 211.25h1.94v1.22a3.11 3.11 0 0 1 2.88-1.51c2.93 0 4.36 2.23 4.36 5 0 2.5-1.26 4.86-4 4.86a3.62 3.62 0 0 1-3.12-1.46V224h-2.05v-12.75zm4.59 1.37c-1.73 0-2.61 1.31-2.61 3.29s1 3.28 2.61 3.28c1.87 0 2.58-1.66 2.58-3.28s-.89-3.29-2.59-3.29zM117.48 215.9c0-2.84 1.71-4.9 4.7-4.9s4.7 2.05 4.7 4.9-1.71 4.92-4.7 4.92-4.7-2.06-4.7-4.92zm7.35 0c0-1.6-.81-3.28-2.65-3.28s-2.65 1.67-2.65 3.28.81 3.29 2.65 3.29 2.64-1.72 2.64-3.29zM128.19 207.71h2.05v1.94h-2.05v-1.94zm0 3.55h2.05v9.31h-2.05v-9.31zM132 211.25h2v1.37a3.33 3.33 0 0 1 2.9-1.66 3 3 0 0 1 3.29 3.17v6.39h-2.09v-5.85c0-1.46-.61-2.09-1.82-2.09a2.27 2.27 0 0 0-2.26 2.28v5.66H132zM141 211.25h1.55v-2.78h2.06v2.79h1.85v1.53h-1.85v5c0 .85.07 1.28 1 1.28a3.49 3.49 0 0 0 .86-.07v1.58c-.45 0-.88.11-1.33.11-2.14 0-2.54-.83-2.57-2.38v-5.49H141zM82.14 244a14.94 14.94 0 0 1-2.59-8.3 15.34 15.34 0 0 1 2.59-8.3h1.67a16.65 16.65 0 0 0-2.21 8.3 15.9 15.9 0 0 0 2.21 8.3h-1.67zM84.58 227.71h5.67c3.67 0 4.38 2.38 4.38 4s-.7 4-4.38 3.94h-3.41v4.93h-2.26v-12.87zm2.25 6.09h3.29a2 2 0 0 0 2.25-2.12 1.9 1.9 0 0 0-2.21-2.12h-3.32v4.24zM95.86 231.25h1.93V233a3 3 0 0 1 2.79-2.05 4.94 4.94 0 0 1 .77.05v2a7.27 7.27 0 0 0-.88-.09c-1.4 0-2.52 1.13-2.52 3.19v4.43h-2.09v-9.33zM101.8 227.71h2.05v1.94h-2.05v-1.94zm0 3.55h2.05v9.31h-2.05v-9.31zM104.71 231.25h2.23l2.36 7.15 2.27-7.15h2.12l-3.33 9.31h-2.3zM122.32 238.47c0 .5.11.7.49.7a2.83 2.83 0 0 0 .5 0v1.42a5.13 5.13 0 0 1-1.3.23 1.37 1.37 0 0 1-1.58-1.13 4.78 4.78 0 0 1-3.22 1.13c-1.67 0-3.19-.9-3.19-2.72 0-2.32 1.85-2.7 3.58-2.9 1.48-.27 2.79-.11 2.79-1.31s-1.1-1.26-1.93-1.26c-1.15 0-2 .47-2.05 1.48h-2.05c.14-2.39 2.18-3.1 4.23-3.1 1.82 0 3.73.74 3.73 2.7v4.76zm-2.05-2.59a7.33 7.33 0 0 1-2.52.56c-.88.14-1.67.47-1.67 1.55 0 .92 1.17 1.19 1.89 1.19.9 0 2.3-.47 2.3-1.76v-1.54zM123.15 231.25h1.55v-2.78h2.05v2.79h1.83v1.53h-1.85v5c0 .85.07 1.28 1 1.28a3.49 3.49 0 0 0 .86-.07v1.58c-.45 0-.88.11-1.33.11-2.14 0-2.54-.83-2.58-2.38v-5.49h-1.55zM131.23 236.47a2.48 2.48 0 0 0 2.19 2.74h.31a2.16 2.16 0 0 0 2.27-1.55h2a4.08 4.08 0 0 1-4.21 3.17c-2.92 0-4.56-2-4.56-4.9 0-2.65 1.73-4.92 4.5-4.92 2.93 0 4.74 2.65 4.39 5.44h-6.84zm4.79-1.35a2.4 2.4 0 1 0-4.79 0H136z"/><path class="gs13-2" d="M139.63 227.4a15 15 0 0 1 2.59 8.32 15.24 15.24 0 0 1-2.59 8.28H138a16.53 16.53 0 0 0 2.21-8.28 16 16 0 0 0-2.21-8.32h1.67zM116.45 151.12H95.58a.52.52 0 1 0 0 1h20.83a.52.52 0 1 0 0-1z"/><path class="gs13-2" d="M128.58 136h-8a5.17 5.17 0 0 0-.66-2.9c-1.2-2-3.84-3.1-7.85-3.12s-6.61 1-7.81 3a5.19 5.19 0 0 0-.67 3h-8a6 6 0 0 0-5.95 5.95v21.32a6 6 0 0 0 5.95 6h33a6 6 0 0 0 5.95-5.95V142a6 6 0 0 0-5.96-6zm-22.18-1.76c.71-1.19 2.66-1.81 5.66-1.79s5 .68 5.72 1.89a2.82 2.82 0 0 1 .33 1.65h-12a2.89 2.89 0 0 1 .3-1.75zm17 26.37a7.76 7.76 0 0 1-7.26-5h-6.88l-3.16-2.25-3.62 2.52-2.82-1.61-3.43 1.11-3.29-3.05 1.1-2.72h22.31a7.77 7.77 0 1 1 7 11h.05z"/><circle class="gs13-2" cx="126.39" cy="152.86" r="1.79"/><path class="gs13-3" d="M121.58 163.36a7.76 7.76 0 0 1-7.26-5h-6.84l-3.16-2.25-3.62 2.52-2.82-1.63-3.43 1.11-3.29-3.05 1.1-2.72h22.32a7.77 7.77 0 1 1 7 11.02z"/><path class="gs13-13" d="M178.27.38h304.29v405.25H178.27z"/><path class="gs13-5" d="M204.2 267.83h11.87v2.09H204.2z"/><path class="gs13-10" d="M212.88 73.82h.83v.83h-.83v-.83zM214.77 73.82h.81v.83h-.83zM216.65 73.82h.83v.83h-.83v-.83z"/><path class="gs13-14" d="M398.69 262h-.27c.25.68.5.08.76.08 3 0 5.4-45.71 5.4-103.26s-2.42-104.22-5.4-104.22a.67.67 0 0 0-.49.43M398.69 55v-1.46H211.22v.13c-2.51 8.91-4.42 54-4.42 105.13s1.9 97.49 4.42 102.49a1.65 1.65 0 0 0 1.78.71h185.42c-2.62-7.14-4.64-50.61-4.64-103.18 0-54.35 2.16-99.02 4.91-103.82zM211.45 60.98h7.16M212.1 261.99h6.91"/><rect class="gs13-15" x="241.09" y="63.3" width="66.55" height="181.17" rx="2.9" ry="2.9"/><path class="gs13-10" d="M261.05 82.82h3.44a2.32 2.32 0 0 1 0 4.64h-2.4v3.21h-1zm1 3.76h2c1.18 0 1.72-.51 1.72-1.44s-.54-1.44-1.72-1.44h-2v2.88zM270.2 84.86a3 3 0 1 1-2.75 3.23v-.23a2.7 2.7 0 0 1 2.38-3zm0 5.13a1.86 1.86 0 0 0 1.8-2.15 1.8 1.8 0 1 0-1.8 2.16zM273.84 82.82h.94v7.86h-.94v-7.86zM276.94 84H276v-1.18h.94V84zm-.94 1h.94v5.69H276V85zM282 86.82a1.32 1.32 0 0 0-1.4-1.14c-1.35 0-1.77 1.07-1.77 2.22s.45 2.1 1.64 2.1a1.47 1.47 0 0 0 1.53-1.4h1a2.36 2.36 0 0 1-2.5 2.21 2.59 2.59 0 0 1-2.66-2.9c0-1.71.88-3 2.68-3a2.18 2.18 0 0 1 2.48 1.87v.12zM286 91.47c-.43 1.11-.81 1.52-1.65 1.52a1.89 1.89 0 0 1-.65-.1V92a1.93 1.93 0 0 0 .55.13.81.81 0 0 0 .77-.52l.39-1-2.28-5.61h1.06l1.66 4.65 1.6-4.65h1z"/><rect class="gs13-5" x="250.64" y="112.25" width="47.44" height="106.13" rx="2.9" ry="2.9"/><path class="gs13-16" d="M258.78 158.06h4.09c2.65 0 3.16 1.72 3.16 2.87s-.51 2.86-3.16 2.85h-2.47v3.56h-1.62v-9.28zm1.63 4.39h2.38a1.48 1.48 0 0 0 1.63-1.53 1.39 1.39 0 0 0-1.6-1.54h-2.41v3.07zM266.92 160.62h1.39v1.3a2.17 2.17 0 0 1 2-1.48 3.69 3.69 0 0 1 .56 0v1.43a5.41 5.41 0 0 0-.64-.06c-1 0-1.82.82-1.82 2.3v3.2h-1.48v-6.69zM270.58 164a3.4 3.4 0 1 1 3.39 3.55 3.25 3.25 0 0 1-3.39-3.55zm5.3 0c0-1.16-.58-2.37-1.91-2.37s-1.91 1.21-1.91 2.37.58 2.38 1.91 2.38a2.12 2.12 0 0 0 2-2.38h-.05z"/><path class="gs13-16" d="M280.13 163.8l-2.33-3.19h1.78l1.4 2.07 1.47-2.07h1.72l-2.29 3.11 2.57 3.62h-1.78l-1.7-2.48-1.65 2.48h-1.74zM284.24 160.62h1.63l1.75 5 1.7-5h1.55l-2.61 7.09c-.48 1.21-.83 2.3-2.38 2.3a6.62 6.62 0 0 1-1-.08v-1.25a4.32 4.32 0 0 0 .7.09.94.94 0 0 0 1-.94l.17-.52z"/><path class="gs13-11" d="M216.86 53.54h8.41c-.86-.07-4.89-.07-8.41 0zM225.41 53.66l175.12-.12H225.26h.17zM211.26 53.54v.13l5.59-.13h-5.59zM258.58 262h-1.42a10.67 10.67 0 0 0 1.42 0z"/><path class="gs13-11" d="M400.58 261.63l-3.18-19.36H276.07c-13.69 0-31.53-1.73-43.63-19.36-11.3-16.47-15.92-48-15.92-71.85 0-33.21-2-87.31 34.76-97.4h-40c-2.54 8.91-4.46 46.14-4.46 97.22s1.92 105.39 4.46 110.4a1.67 1.67 0 0 0 1.72.72h44.11a18.57 18.57 0 0 1-2.63-.35h146.1z"/><path class="gs13-5" d="M220.31 247.35h4.07a2.75 2.75 0 0 1 .33 5.49h-3.13v3.8h-1.23zm1.23 4.45H224c1.39 0 2-.6 2-1.7s-.64-1.7-2-1.7h-2.38zM229.4 248.7h-1.11v-1.35h1.11v1.35zm-1.11 1.21h1.11v6.72h-1.11v-6.72zM230.83 249.91h1.11v.91a2.27 2.27 0 0 1 2.15-1.07c2.07 0 3.09 1.64 3.09 3.54s-1 3.5-3.07 3.5a2.58 2.58 0 0 1-2.17-1.05v3.47h-1.11v-9.3zm3.12.82c-1.48 0-2.05 1.27-2.05 2.54s.6 2.55 2.12 2.55 2-1.29 2-2.6-.64-2.49-2.07-2.49zM243.9 254.47a2.71 2.71 0 0 1-2.87 2.29c-2.14 0-3.16-1.48-3.22-3.54a3.24 3.24 0 0 1 3-3.49h.19c2.38 0 3.11 2.22 3 3.85h-5a2 2 0 0 0 1.78 2.2h.31a1.62 1.62 0 0 0 1.74-1.31h1.1zm-1.07-1.87a1.93 1.93 0 0 0-3.86 0h3.86zM244.89 247.35H246v9.28h-1.11v-9.28zM248.58 248.7h-1.11v-1.35h1.11v1.35zm-1.11 1.21h1.11v6.72h-1.11v-6.72zM250 249.91h1V251a2.34 2.34 0 0 1 2.18-1.22c1.77 0 2.31 1 2.31 2.46v4.42h-1.11v-4.55a1.27 1.27 0 0 0-1.18-1.35h-.2a1.89 1.89 0 0 0-2 2.11v3.8h-1.1zM262.58 254.47a2.71 2.71 0 0 1-2.87 2.29c-2.15 0-3.16-1.48-3.22-3.54a3.24 3.24 0 0 1 3-3.49h.19c2.38 0 3.11 2.22 3 3.85h-5a2 2 0 0 0 1.78 2.2h.31a1.62 1.62 0 0 0 1.74-1.31h1.1zm-1.07-1.87a1.93 1.93 0 0 0-1.94-1.9 1.91 1.91 0 0 0-1.92 1.9h3.86zM269.58 247.42c2.89 0 3.07 2.65 3.07 4.69s-.18 4.68-3.07 4.68-3.07-2.65-3.07-4.68.18-4.69 3.07-4.69zm0 8.4c1.88 0 1.9-2.34 1.9-3.72s0-3.71-1.9-3.71-1.9 2.34-1.9 3.71 0 3.71 1.9 3.71zM275.7 251.37h.48a1.56 1.56 0 0 0 1.74-1.36v-.15a1.46 1.46 0 0 0-1.43-1.49h-.21a1.75 1.75 0 0 0-1.74 2h-1.1c.06-1.75 1-3 2.85-3 1.6 0 2.81.77 2.81 2.47a2.11 2.11 0 0 1-1.27 1.83 2.1 2.1 0 0 1 1.66 2.24c0 1.85-1.44 2.81-3.17 2.81a2.79 2.79 0 0 1-3.07-3h1.11a1.87 1.87 0 0 0 1.73 2h.27a1.83 1.83 0 0 0 2-1.65v-.13a1.76 1.76 0 0 0-1.73-1.79h-.27a5.47 5.47 0 0 0-.66 0v-.81z"/><path class="gs13-17" d="M480.77 147l-.1 239.75c-1.59 9.6-8.77 17-17.54 17h-268c-8.77 0-15.94-7.41-15.94-16.47V39c0-9.06 7.17-16.47 15.94-16.47l269.7-.06c8.77 0 15.94 7.41 15.94 16.47V147z"/><path class="gs13-11" d="M248.58 378.66h10.79v2.27h-8.17v3.93h7.56V387h-7.56v4.39h8.38v2.27h-11v-15zM264.2 387.94l-3.76-5.14h2.9l2.27 3.34 2.39-3.34h2.77l-3.7 5 4.16 5.84h-2.87l-2.75-4-2.67 4h-2.81zM272.41 382.79h2.27v1.47a3.63 3.63 0 0 1 3.4-1.79c3.42 0 5.08 2.6 5.08 5.77 0 2.92-1.47 5.67-4.68 5.67a4.22 4.22 0 0 1-3.63-1.7v5.42h-2.39zm5.35 1.6c-2 0-3 1.53-3 3.84s1.11 3.82 3 3.82c2.18 0 3-1.93 3-3.82s-1-3.84-3-3.84zM285 382.79h2.25v2.1a3.51 3.51 0 0 1 3.17-2.39 5.75 5.75 0 0 1 .9.06v2.31a8.55 8.55 0 0 0-1-.11c-1.64 0-2.94 1.32-2.94 3.72v5.17H285v-10.86zM293.65 388.84c0 1.7.92 3.21 2.92 3.21a2.52 2.52 0 0 0 2.65-1.81h2.27a4.75 4.75 0 0 1-4.91 3.7c-3.4 0-5.31-2.37-5.31-5.71 0-3.09 2-5.73 5.25-5.73 3.42 0 5.52 3.09 5.12 6.34h-8zm5.58-1.58a2.79 2.79 0 0 0-5.58 0h5.58zM305.05 390.16c.13 1.39 1.18 1.89 2.46 1.89.9 0 2.48-.19 2.41-1.43s-1.8-1.41-3.55-1.81-3.48-1-3.48-3.21c0-2.37 2.56-3.11 4.54-3.11 2.22 0 4.24.92 4.54 3.34h-2.5c-.21-1.13-1.16-1.45-2.21-1.45-.69 0-2 .17-2 1.11 0 1.18 1.76 1.34 3.53 1.74s3.51 1 3.51 3.17c0 2.58-2.6 3.53-4.85 3.53-2.73 0-4.77-1.22-4.81-3.78h2.41zM315.74 390.16c.13 1.39 1.18 1.89 2.46 1.89.9 0 2.48-.19 2.41-1.43s-1.8-1.41-3.55-1.81-3.48-1-3.48-3.21c0-2.37 2.56-3.11 4.54-3.11 2.22 0 4.24.92 4.54 3.34h-2.5c-.21-1.13-1.16-1.45-2.21-1.45-.69 0-2 .17-2 1.11 0 1.18 1.76 1.34 3.53 1.74s3.51 1 3.51 3.17c0 2.58-2.6 3.53-4.85 3.53-2.73 0-4.77-1.22-4.81-3.78h2.41zM343.67 393.65H342l-.4-1.76a5.4 5.4 0 0 1-4.51 2.12c-4.49 0-7.18-3.57-7.18-7.85s2.69-7.85 7.18-7.85c3.28 0 6 1.74 6.42 5.12h-2.56a3.58 3.58 0 0 0-3.86-3c-3.21 0-4.56 2.83-4.56 5.71s1.34 5.71 4.56 5.71a3.83 3.83 0 0 0 4.2-4.12h-4v-2h6.38v7.92zM355.07 391.23c0 .59.13.82.57.82a3.31 3.31 0 0 0 .59 0v1.66a6 6 0 0 1-1.51.27 1.59 1.59 0 0 1-1.85-1.32 5.57 5.57 0 0 1-3.76 1.32c-2 0-3.72-1-3.72-3.17 0-2.71 2.16-3.15 4.18-3.38 1.72-.31 3.26-.13 3.26-1.53 0-1.24-1.28-1.47-2.25-1.47-1.34 0-2.29.54-2.39 1.72h-2.39c.17-2.79 2.54-3.61 4.94-3.61 2.12 0 4.35.86 4.35 3.15zm-2.39-3a8.51 8.51 0 0 1-2.94.65c-1 .17-2 .55-2 1.81 0 1.07 1.36 1.39 2.2 1.39 1 0 2.69-.55 2.69-2.06zM356.36 382.79h1.8v-3.25h2.42v3.25h2.16v1.78h-2.16v5.79c0 1 .08 1.49 1.15 1.49a4.09 4.09 0 0 0 1-.08v1.85c-.53 0-1 .13-1.55.13-2.5 0-3-1-3-2.77v-6.4h-1.8zM366.1 388.84c0 1.7.92 3.21 2.92 3.21a2.52 2.52 0 0 0 2.64-1.81h2.27a4.75 4.75 0 0 1-4.91 3.7c-3.4 0-5.31-2.37-5.31-5.71 0-3.09 2-5.73 5.25-5.73 3.42 0 5.52 3.09 5.12 6.34h-8zm5.59-1.58a2.79 2.79 0 1 0-5.59 0h5.59zM374.71 382.79h2.54l2.12 8.1 2-8.1h2.41l2 8.1 2.21-8.1h2.44L387 393.64h-2.46l-2-8.06-2 8.06h-2.52zM400.91 391.23c0 .59.13.82.57.82a3.31 3.31 0 0 0 .59 0v1.66a6 6 0 0 1-1.51.27 1.59 1.59 0 0 1-1.85-1.32A5.57 5.57 0 0 1 395 394c-2 0-3.72-1-3.72-3.17 0-2.71 2.16-3.15 4.18-3.38 1.72-.31 3.26-.13 3.26-1.53 0-1.24-1.28-1.47-2.25-1.47-1.34 0-2.29.54-2.39 1.72h-2.39c.17-2.79 2.54-3.61 4.94-3.61 2.12 0 4.35.86 4.35 3.15zm-2.39-3a8.51 8.51 0 0 1-2.94.65c-1 .17-2 .55-2 1.81 0 1.07 1.36 1.39 2.2 1.39 1 0 2.69-.55 2.69-2.06zM402.09 382.79h2.63l2.83 8.1 2.75-8.1h2.5l-4.22 11.45c-.78 2-1.34 3.72-3.84 3.72a10.81 10.81 0 0 1-1.66-.12v-2a7 7 0 0 0 1.13.15c1.11 0 1.39-.59 1.68-1.51l.27-.84z"/><path class="gs13-18" d="M0 0h679.23v432.67H0z"/></svg>