<svg id="gs-2-2" xmlns="http://www.w3.org/2000/svg" viewBox="0 0 679.23 432.67"><defs><style>.gs22-1,.gs22-15{fill:#74cfe8}.gs22-1{opacity:.15}.gs22-1,.gs22-14,.gs22-3{isolation:isolate}.gs22-2,.gs22-3{fill:#35a9c5}.gs22-3{opacity:.2}.gs22-13,.gs22-16,.gs22-17,.gs22-18,.gs22-4,.gs22-6,.gs22-8{fill:none;stroke-linecap:round}.gs22-4{stroke:#35a9c5}.gs22-13,.gs22-17,.gs22-4,.gs22-6,.gs22-8{stroke-linejoin:round}.gs22-13,.gs22-4{stroke-width:2px}.gs22-14,.gs22-19,.gs22-5{fill:#fff}.gs22-17,.gs22-6,.gs22-8{stroke:#136d7c}.gs22-6{stroke-width:1.5px}.gs22-7{opacity:.4}.gs22-8{stroke-width:2.5px}.gs22-9{opacity:.63}.gs22-10{fill:#136d7c}.gs22-11{fill:#ffc60a}.gs22-12{fill:#37403f}.gs22-13,.gs22-16{stroke:#ffc60a}.gs22-14{opacity:.8}.gs22-16,.gs22-18{stroke-miterlimit:10}.gs22-16{stroke-width:3px}.gs22-18{stroke:#37403f}.gs22-19{opacity:0}</style></defs><title>sized</title><rect class="gs22-1" x="425.55" y="69.28" width="187.41" height="250.88" rx="15" ry="15"/><path class="gs22-2" d="M535.46 195.05h2.39l5 12.86h-2.45l-1.21-3.4h-5.13l-1.21 3.4h-2.32zm-.79 7.74h3.92l-1.93-5.53zM543.58 195.05h5.67c3.67 0 4.38 2.38 4.38 4s-.7 4-4.37 3.94h-3.42v4.94h-2.25v-12.88zm2.25 6.09h3.29a2 2 0 0 0 2.25-2.12 1.9 1.9 0 0 0-2.21-2.12h-3.33v4.24zM555.13 195.05h2.27v12.88h-2.25zM510.15 215.05h9.25V217h-7v3.37h6.48v1.84h-6.48v3.72h7.13v2h-9.38v-12.88zM520.75 218.6h2v1.33a3.34 3.34 0 0 1 2.9-1.66 3 3 0 0 1 3.29 3.17v6.49h-2v-5.85c0-1.46-.61-2.09-1.82-2.09a2.27 2.27 0 0 0-2.26 2.28v5.66h-2zM539.4 227.93h-1.94v-1.26a3.09 3.09 0 0 1-2.88 1.51c-2.93 0-4.36-2.18-4.36-5 0-3.37 2-4.84 4-4.84a3.59 3.59 0 0 1 3.1 1.46v-4.75h2.08v12.88zm-4.59-1.37c1.84 0 2.61-1.68 2.61-3.29 0-2.05-1-3.28-2.57-3.28-1.93 0-2.61 1.71-2.61 3.38s.79 3.17 2.57 3.17zM541.24 218.6h1.94v1.26a3.11 3.11 0 0 1 2.88-1.51c2.93 0 4.36 2.23 4.36 5 0 2.5-1.26 4.86-4 4.86a3.62 3.62 0 0 1-3.12-1.46v4.64h-2V218.6zm4.59 1.37c-1.73 0-2.61 1.31-2.61 3.29s1 3.28 2.61 3.28c1.87 0 2.58-1.66 2.58-3.28s-.89-3.33-2.58-3.33zM551.3 223.24c0-2.85 1.71-4.9 4.7-4.9s4.7 2.05 4.7 4.9-1.71 4.91-4.7 4.91-4.7-2.05-4.7-4.91zm7.35 0c0-1.6-.81-3.28-2.65-3.28s-2.65 1.67-2.65 3.28.81 3.29 2.65 3.29 2.65-1.67 2.65-3.29zM562 215.05h2V217h-2v-1.95zm0 3.55h2v9.33h-2v-9.33zM565.84 218.6h2v1.33a3.34 3.34 0 0 1 2.9-1.66 3 3 0 0 1 3.29 3.17v6.49h-2v-5.85c0-1.46-.61-2.09-1.82-2.09a2.27 2.27 0 0 0-2.26 2.28v5.66h-2zM574.79 218.6h1.55v-2.79h2.06v2.79h1.85v1.53h-1.85v5c0 .85.07 1.28 1 1.28a3.49 3.49 0 0 0 .86-.07v1.59c-.45 0-.88.11-1.33.11-2.14 0-2.54-.83-2.58-2.38v-5.53h-1.55v-1.53zM518.75 251.34a14.94 14.94 0 0 1-2.59-8.3 15.36 15.36 0 0 1 2.59-8.3h1.65a16.66 16.66 0 0 0-2.21 8.3 15.89 15.89 0 0 0 2.21 8.3h-1.65zM521.19 235.05h5.67c3.67 0 4.38 2.38 4.38 4s-.7 4-4.37 3.94h-3.47v4.94h-2.25zm2.25 6.09h3.29A2 2 0 0 0 529 239a1.9 1.9 0 0 0-2.21-2.12h-3.39zM540.64 247.93h-2v-1.29a3.12 3.12 0 0 1-2.65 1.55c-2.43 0-3.48-1.22-3.48-3.65v-5.91h2v5.71c0 1.64.67 2.23 1.78 2.23 1.71 0 2.29-1.1 2.29-2.54v-5.4h2zM542.4 235.05h2v4.75a3.39 3.39 0 0 1 2.77-1.46c2.93 0 4.36 2.23 4.36 5 0 2.5-1.26 4.86-4 4.86a3.32 3.32 0 0 1-3.13-1.57v1.3h-2v-12.88zM547 240c-1.73 0-2.61 1.31-2.61 3.29s1 3.28 2.61 3.28c1.87 0 2.58-1.66 2.58-3.28s-.89-3.33-2.58-3.33zM552.95 235.05h2v12.88h-2v-12.88zM556.83 235.05h2V237h-2v-1.95zm0 3.55h2v9.33h-2v-9.33zM566.95 241.71a2 2 0 0 0-2.12-1.75c-1.06 0-2.56.56-2.56 3.38 0 1.55.68 3.19 2.47 3.19a2.21 2.21 0 0 0 2.21-2.12h2a4 4 0 0 1-4.24 3.74c-2.92 0-4.52-2.07-4.52-4.81s1.53-5 4.59-5c2.16 0 4 1.08 4.2 3.37h-2zM570.67 234.74a15.06 15.06 0 0 1 2.59 8.32 15.24 15.24 0 0 1-2.59 8.28H569a16.54 16.54 0 0 0 2.21-8.28 16 16 0 0 0-2.21-8.32h1.67z"/><rect class="gs22-3" x="552.46" y="137.32" width="33.16" height="19.58" rx="4.53" ry="4.53"/><rect class="gs22-4" x="547.54" y="132.99" width="38.08" height="24.18" rx="1.81" ry="1.81"/><path class="gs22-2" d="M553.95 149.6a.62.62 0 0 1-.35-.61 3.2 3.2 0 0 0 0-.43v-1.2a.33.33 0 0 1 0-.18v-1.66a17.74 17.74 0 0 1 0-1.8 1.48 1.48 0 0 1 0-.38 3.17 3.17 0 0 1 0-.4v-.32a.85.85 0 0 1 0-.35 1.5 1.5 0 0 1 .1-.29.84.84 0 0 1 1-.3.68.68 0 0 1 .32.72v1.13a5.41 5.41 0 0 1 0 .72 1.3 1.3 0 0 0 0 .32v.08a1.78 1.78 0 0 1 0 .42v.46a1.32 1.32 0 0 0 0 .25v.11c.08.48.38 1.07.67.75a.17.17 0 0 1 .1-.13l.41-.48.16-.16a4.19 4.19 0 0 1 .3-.35l.11-.11a1 1 0 0 1 1.28.11 2.07 2.07 0 0 0 .46.45c.24.22.14.16.17.21a1.87 1.87 0 0 0 .27.33c.42.34.85-.33.89-.8v-2.85a1.7 1.7 0 0 1 0-.75.87.87 0 0 1 1.07-.45.66.66 0 0 1 .33.53v2.55a2.74 2.74 0 0 1 0 1v.26a.72.72 0 0 0 0 .18v1.35a.93.93 0 0 1 0 .35v1a1 1 0 0 1-.22.66.88.88 0 0 1-1.23-.19l-.06-.1a3 3 0 0 1-.32-.48l-.08-.14a3.46 3.46 0 0 0-.54-.48 1.94 1.94 0 0 0-1.34-.62 1.7 1.7 0 0 0-1.29.67 4.14 4.14 0 0 1-.46.46 3.49 3.49 0 0 0-.61.64.9.9 0 0 1-1.18.37zM563.6 149.6a.62.62 0 0 1-.35-.61 3.2 3.2 0 0 0 0-.43v-1.2a.33.33 0 0 1 0-.18v-1.66a17.74 17.74 0 0 1 0-1.8 1.48 1.48 0 0 1 0-.38 3.17 3.17 0 0 1 0-.4v-.32a.85.85 0 0 1 0-.35 1.5 1.5 0 0 1 .1-.29.84.84 0 0 1 1-.3.68.68 0 0 1 .32.72v1.13a5.41 5.41 0 0 1 0 .72 1.3 1.3 0 0 0 0 .32v.08a1.78 1.78 0 0 1 0 .42v.46a1.32 1.32 0 0 0 0 .25v.11c.08.48.38 1.07.67.75a.17.17 0 0 1 .1-.13l.42-.48.16-.16a4.19 4.19 0 0 1 .3-.35l.11-.11a1 1 0 0 1 1.28.11 2.07 2.07 0 0 0 .46.45c.24.22.14.16.17.21a1.87 1.87 0 0 0 .27.33c.42.34.85-.33.89-.8v-2.85a1.7 1.7 0 0 1 0-.75.87.87 0 0 1 1.07-.45.66.66 0 0 1 .33.53v2.55a2.74 2.74 0 0 1 0 1v.26a.72.72 0 0 0 0 .18v1.35a.93.93 0 0 1 0 .35v1a1 1 0 0 1-.22.66.88.88 0 0 1-1.23-.19l-.06-.1a3 3 0 0 1-.32-.48l-.08-.14a3.46 3.46 0 0 0-.54-.48 1.94 1.94 0 0 0-1.34-.62 1.7 1.7 0 0 0-1.29.67 4.14 4.14 0 0 1-.46.46 3.49 3.49 0 0 0-.61.64.9.9 0 0 1-1.18.37zM573.26 149.6a.62.62 0 0 1-.35-.61 3.2 3.2 0 0 0 0-.43v-1.2a.33.33 0 0 1 0-.18v-1.66a17.74 17.74 0 0 1 0-1.8 1.48 1.48 0 0 1 0-.38 3.17 3.17 0 0 1 0-.4v-.32a.85.85 0 0 1 0-.35 1.5 1.5 0 0 1 .09-.27.84.84 0 0 1 1-.3.68.68 0 0 1 .32.72v1.13a5.41 5.41 0 0 1 0 .72 1.3 1.3 0 0 0 0 .32v.08a1.78 1.78 0 0 1 0 .42v.46a1.32 1.32 0 0 0 0 .25v.11c.08.48.38 1.07.67.75a.17.17 0 0 1 .1-.13l.41-.48.16-.16a4.19 4.19 0 0 1 .3-.35l.11-.11a1 1 0 0 1 1.28.11 2.07 2.07 0 0 0 .46.45c.24.22.14.16.17.21a1.87 1.87 0 0 0 .27.33c.42.34.85-.33.89-.8v-2.85a1.7 1.7 0 0 1 0-.75.87.87 0 0 1 1.07-.45.66.66 0 0 1 .33.53v2.55a2.74 2.74 0 0 1 0 1v.24a.72.72 0 0 0 0 .18v1.35a.93.93 0 0 1 0 .35v1a1 1 0 0 1-.22.66.88.88 0 0 1-1.23-.19l-.06-.1a3 3 0 0 1-.32-.48l-.08-.14a3.46 3.46 0 0 0-.54-.48 1.94 1.94 0 0 0-1.34-.62 1.7 1.7 0 0 0-1.29.67 4.14 4.14 0 0 1-.46.46 3.49 3.49 0 0 0-.61.64.9.9 0 0 1-1.18.37z"/><rect class="gs22-3" x="507.02" y="131.03" width="33.16" height="19.58" rx="4.53" ry="4.53"/><rect class="gs22-4" x="502.1" y="126.69" width="38.08" height="24.18" rx="1.81" ry="1.81"/><path class="gs22-2" d="M508.51 143.3a.62.62 0 0 1-.35-.61 3.24 3.24 0 0 0 0-.43v-1.2a.33.33 0 0 1 0-.18v-1.66a17.72 17.72 0 0 1 0-1.8 1.48 1.48 0 0 1 0-.38 3.17 3.17 0 0 1 0-.4v-.32a.86.86 0 0 1 0-.35 1.48 1.48 0 0 1 .1-.29.84.84 0 0 1 1-.3.68.68 0 0 1 .32.72v1.13a5.37 5.37 0 0 1 0 .72 1.32 1.32 0 0 0 0 .32v.08a1.77 1.77 0 0 1 0 .41v.46a1.33 1.33 0 0 0 0 .26v.11c.08.48.38 1.07.67.75a.16.16 0 0 1 .1-.13l.42-.48.16-.16.3-.35.11-.11a1 1 0 0 1 1.28.11 2.07 2.07 0 0 0 .46.45c.24.22.14.16.17.21a2 2 0 0 0 .27.34c.42.33.85-.34.89-.8v-2.85a1.7 1.7 0 0 1 0-.75.87.87 0 0 1 1.07-.45.67.67 0 0 1 .33.53v2.56a2.74 2.74 0 0 1 0 1v.3a.74.74 0 0 0 0 .18v1.36a.93.93 0 0 1 0 .35v1a1 1 0 0 1-.22.65.88.88 0 0 1-1.23-.19l-.06-.1a3.17 3.17 0 0 1-.32-.48l-.08-.14a3.68 3.68 0 0 0-.54-.48 2 2 0 0 0-1.34-.62 1.7 1.7 0 0 0-1.29.67 4.5 4.5 0 0 1-.46.46 3.55 3.55 0 0 0-.61.64.89.89 0 0 1-1.18.37zM518.16 143.3a.62.62 0 0 1-.35-.61 3.24 3.24 0 0 0 0-.43v-1.2a.33.33 0 0 1 0-.18v-1.66a17.74 17.74 0 0 1 0-1.8 1.48 1.48 0 0 1 0-.38 3.17 3.17 0 0 1 0-.4v-.32a.86.86 0 0 1 0-.35 1.48 1.48 0 0 1 .1-.29.84.84 0 0 1 1-.3.68.68 0 0 1 .32.72v1.13a5.37 5.37 0 0 1 0 .72 1.32 1.32 0 0 0 0 .32v.08a1.77 1.77 0 0 1 0 .41v.46a1.33 1.33 0 0 0 0 .26v.11c.08.48.38 1.07.67.75a.16.16 0 0 1 .1-.13l.41-.48.16-.16.3-.35.11-.11a1 1 0 0 1 1.28.11 2.07 2.07 0 0 0 .46.45c.24.22.14.16.17.21a2 2 0 0 0 .27.34c.42.33.85-.34.89-.8v-2.85a1.7 1.7 0 0 1 0-.75.87.87 0 0 1 1.07-.45.67.67 0 0 1 .33.53v2.56a2.74 2.74 0 0 1 0 1v.3a.74.74 0 0 0 0 .18v1.36a.93.93 0 0 1 0 .35v1a1 1 0 0 1-.22.65.88.88 0 0 1-1.23-.19l-.06-.1a3.17 3.17 0 0 1-.32-.48l-.08-.14a3.68 3.68 0 0 0-.54-.48 2 2 0 0 0-1.34-.62 1.7 1.7 0 0 0-1.29.67 4.5 4.5 0 0 1-.46.46 3.55 3.55 0 0 0-.61.64.89.89 0 0 1-1.18.37zM527.81 143.3a.62.62 0 0 1-.35-.61 3.24 3.24 0 0 0 0-.43v-1.2a.33.33 0 0 1 0-.18v-1.66a17.74 17.74 0 0 1 0-1.8 1.48 1.48 0 0 1 0-.38 3.17 3.17 0 0 1 0-.4v-.32a.86.86 0 0 1 0-.35 1.48 1.48 0 0 1 .1-.29.84.84 0 0 1 1-.3.68.68 0 0 1 .32.72v1.13a5.37 5.37 0 0 1 0 .72 1.32 1.32 0 0 0 0 .32v.08a1.77 1.77 0 0 1 0 .41v.46a1.33 1.33 0 0 0 0 .26v.11c.08.48.38 1.07.67.75a.16.16 0 0 1 .1-.13l.42-.48.16-.16.3-.35.11-.11a1 1 0 0 1 1.28.11 2.07 2.07 0 0 0 .46.45c.24.22.14.16.17.21a2 2 0 0 0 .27.34c.42.33.85-.34.89-.8v-2.85a1.7 1.7 0 0 1 0-.75.87.87 0 0 1 1.07-.45.67.67 0 0 1 .33.53v2.56a2.74 2.74 0 0 1 0 1v.3a.74.74 0 0 0 0 .18v1.36a.93.93 0 0 1 0 .35v1a1 1 0 0 1-.22.65.88.88 0 0 1-1.23-.19l-.06-.1a3.17 3.17 0 0 1-.32-.48l-.08-.14a3.68 3.68 0 0 0-.54-.48 2 2 0 0 0-1.34-.62 1.7 1.7 0 0 0-1.29.67 4.5 4.5 0 0 1-.46.46 3.55 3.55 0 0 0-.61.64.89.89 0 0 1-1.18.37z"/><rect class="gs22-5" x="517.95" y="144.67" width="51.08" height="35.76" rx="8.05" ry="8.05"/><rect class="gs22-1" x="517.95" y="144.67" width="51.08" height="35.76" rx="8.05" ry="8.05"/><rect class="gs22-3" x="528.78" y="154.71" width="33.16" height="19.58" rx="4.53" ry="4.53"/><rect class="gs22-4" x="523.86" y="150.37" width="38.08" height="24.18" rx="1.81" ry="1.81"/><path class="gs22-2" d="M530.27 167a.62.62 0 0 1-.35-.61 3.24 3.24 0 0 0 0-.43v-1.25a.33.33 0 0 1 0-.18v-1.63a17.74 17.74 0 0 1 0-1.8 1.48 1.48 0 0 1 0-.38 3.17 3.17 0 0 1 0-.4V160a.86.86 0 0 1 0-.35 1.48 1.48 0 0 1 .1-.29.84.84 0 0 1 1-.3.68.68 0 0 1 .32.72v1.13a5.37 5.37 0 0 1 0 .72 1.32 1.32 0 0 0 0 .32v.05a1.77 1.77 0 0 1 0 .41v.46a1.33 1.33 0 0 0 0 .26v.11c.08.48.38 1.07.67.75a.16.16 0 0 1 .1-.13l.42-.48.16-.16.3-.35.11-.11a1 1 0 0 1 1.28.11 2.07 2.07 0 0 0 .46.45c.24.22.14.16.17.21a2 2 0 0 0 .27.34c.42.33.85-.34.89-.8v-2.85a1.7 1.7 0 0 1 0-.75.87.87 0 0 1 1.07-.45.67.67 0 0 1 .33.53v2.56a2.74 2.74 0 0 1 0 1v.3a.74.74 0 0 0 0 .18v1.3a.93.93 0 0 1 0 .35v1a1 1 0 0 1-.22.65.88.88 0 0 1-1.23-.19l-.06-.1a3.17 3.17 0 0 1-.32-.48l-.08-.14a3.68 3.68 0 0 0-.54-.48 2 2 0 0 0-1.34-.62 1.7 1.7 0 0 0-1.29.67 4.5 4.5 0 0 1-.46.46 3.55 3.55 0 0 0-.61.64.89.89 0 0 1-1.18.37zM539.92 167a.62.62 0 0 1-.35-.61 3.24 3.24 0 0 0 0-.43v-1.25a.33.33 0 0 1 0-.18v-1.63a17.74 17.74 0 0 1 0-1.8 1.48 1.48 0 0 1 0-.38 3.17 3.17 0 0 1 0-.4V160a.86.86 0 0 1 0-.35 1.48 1.48 0 0 1 .1-.29.84.84 0 0 1 1-.3.68.68 0 0 1 .32.72v1.13a5.37 5.37 0 0 1 0 .72 1.32 1.32 0 0 0 0 .32v.05a1.77 1.77 0 0 1 0 .41v.46a1.33 1.33 0 0 0 0 .26v.11c.08.48.38 1.07.67.75a.16.16 0 0 1 .1-.13l.41-.48.16-.16.3-.35.11-.11a1 1 0 0 1 1.28.11 2.07 2.07 0 0 0 .46.45c.24.22.14.16.17.21a2 2 0 0 0 .27.34c.42.33.85-.34.89-.8v-2.85a1.7 1.7 0 0 1 0-.75.87.87 0 0 1 1.07-.45.67.67 0 0 1 .33.53v2.56a2.74 2.74 0 0 1 0 1v.3a.74.74 0 0 0 0 .18v1.3a.93.93 0 0 1 0 .35v1a1 1 0 0 1-.22.65.88.88 0 0 1-1.23-.19l-.06-.1a3.17 3.17 0 0 1-.32-.48l-.08-.12a3.68 3.68 0 0 0-.54-.48 2 2 0 0 0-1.34-.62 1.7 1.7 0 0 0-1.29.67 4.5 4.5 0 0 1-.46.46 3.55 3.55 0 0 0-.61.64.89.89 0 0 1-1.18.37zM549.57 167a.62.62 0 0 1-.35-.61 3.24 3.24 0 0 0 0-.43v-1.25a.33.33 0 0 1 0-.18v-1.63a17.74 17.74 0 0 1 0-1.8 1.48 1.48 0 0 1 0-.38 3.17 3.17 0 0 1 0-.4V160a.86.86 0 0 1 0-.35 1.48 1.48 0 0 1 .1-.29.84.84 0 0 1 1-.3.68.68 0 0 1 .32.72v1.13a5.37 5.37 0 0 1 0 .72 1.32 1.32 0 0 0 0 .32v.05a1.77 1.77 0 0 1 0 .41v.46a1.33 1.33 0 0 0 0 .26v.11c.08.48.38 1.07.67.75a.16.16 0 0 1 .1-.13l.42-.48.16-.16.3-.35.11-.11a1 1 0 0 1 1.28.11 2.07 2.07 0 0 0 .46.45c.24.22.14.16.17.21a2 2 0 0 0 .27.34c.42.33.85-.34.89-.8v-2.85a1.7 1.7 0 0 1 0-.75.87.87 0 0 1 1.07-.45.67.67 0 0 1 .33.53v2.56a2.74 2.74 0 0 1 0 1v.3a.74.74 0 0 0 0 .18v1.3a.93.93 0 0 1 0 .35v1a1 1 0 0 1-.22.65.88.88 0 0 1-1.23-.19l-.06-.1a3.17 3.17 0 0 1-.32-.48L555 166a3.68 3.68 0 0 0-.54-.48 2 2 0 0 0-1.34-.62 1.7 1.7 0 0 0-1.29.67 4.5 4.5 0 0 1-.46.46 3.55 3.55 0 0 0-.61.64.89.89 0 0 1-1.18.37z"/><rect class="gs22-1" x="34.5" y="69.64" width="172.12" height="250.17" rx="15" ry="15"/><path class="gs22-2" d="M70.61 196.74c0 2 1.46 2.75 3.26 2.75 2 0 2.72-1 2.72-1.94a1.53 1.53 0 0 0-1.07-1.62c-.9-.34-2.07-.58-3.83-1.06-2.2-.59-2.84-1.93-2.84-3.26 0-2.57 2.38-3.78 4.7-3.78 2.68 0 4.93 1.42 4.93 4.11h-2.26c-.11-1.66-1.22-2.27-2.77-2.27-1 0-2.36.38-2.36 1.68a1.74 1.74 0 0 0 1.53 1.65c.2.05 3 .79 3.71 1a3.4 3.4 0 0 1 2.5 3.28c0 2.88-2.56 4-5.11 4-2.93 0-5.31-1.4-5.37-4.59zM81.66 196.93a2.48 2.48 0 0 0 2.19 2.74h.31a2.16 2.16 0 0 0 2.24-1.58h2a4.08 4.08 0 0 1-4.21 3.17c-2.92 0-4.55-2-4.55-4.9 0-2.65 1.73-4.91 4.5-4.91 2.93 0 4.74 2.65 4.39 5.44zm4.74-1.38a2.4 2.4 0 1 0-4.79 0h4.79zM89.61 191.71h1.93v1.8a3 3 0 0 1 2.72-2.05 5 5 0 0 1 .77.05v2a7.52 7.52 0 0 0-.88-.09c-1.41 0-2.52 1.13-2.52 3.19V201h-2v-9.33z"/><path class="gs22-2" d="M94.58 191.71h2.23l2.36 7.15 2.27-7.15h2.13l-3.33 9.29h-2.3zM104.4 188.17h2.05v1.94h-2.05v-1.94zm0 3.55h2.05V201h-2.05v-9.31zM114.56 194.83a2 2 0 0 0-2.12-1.75c-1.06 0-2.56.56-2.56 3.38 0 1.55.69 3.19 2.47 3.19a2.21 2.21 0 0 0 2.21-2.12h2.05a4 4 0 0 1-4.23 3.75c-2.92 0-4.52-2.07-4.52-4.81s1.53-5 4.59-5c2.16 0 4 1.08 4.2 3.37h-2.05zM119.4 196.93a2.48 2.48 0 0 0 2.19 2.74h.31a2.16 2.16 0 0 0 2.27-1.55h1.94a4.08 4.08 0 0 1-4.21 3.17c-2.92 0-4.55-2-4.55-4.9 0-2.65 1.73-4.91 4.5-4.91 2.93 0 4.74 2.65 4.39 5.44h-6.84zm4.79-1.35a2.4 2.4 0 1 0-4.79 0h4.79zM128.94 198a1.81 1.81 0 0 0 2.11 1.62c.77 0 2.12-.16 2.07-1.22s-1.55-1.21-3-1.55-3-.86-3-2.75 2.2-2.66 3.89-2.66c1.91 0 3.64.79 3.89 2.86h-2.14a1.62 1.62 0 0 0-1.89-1.24c-.59 0-1.69.14-1.69 1s1.51 1.15 3 1.49 3 .88 3 2.72c0 2.21-2.23 3-4.16 3-2.34 0-4.09-1-4.12-3.24zM67.15 208.17h9.25v1.94h-7v3.37h6.48v1.84H69.4v3.76h7.13V221h-9.38v-12.83zM77.75 211.71h2v1.37a3.33 3.33 0 0 1 2.9-1.66 3 3 0 0 1 3.29 3.17V221h-2v-5.85c0-1.46-.61-2.09-1.82-2.09a2.27 2.27 0 0 0-2.26 2.28V221h-2.11v-9.27zM96.4 221h-1.94v-1.26a3.09 3.09 0 0 1-2.88 1.51c-2.93 0-4.36-2.18-4.36-5 0-3.37 2-4.84 4-4.84a3.59 3.59 0 0 1 3.1 1.46v-4.75h2.08V221zm-4.59-1.37c1.84 0 2.61-1.67 2.61-3.29 0-2.05-1-3.28-2.57-3.28-1.93 0-2.61 1.71-2.61 3.38s.76 3.21 2.57 3.21zM98.24 211.71h1.94v1.22a3.11 3.11 0 0 1 2.88-1.51c2.93 0 4.36 2.23 4.36 5 0 2.5-1.26 4.86-4 4.86a3.62 3.62 0 0 1-3.12-1.46v4.65h-2.05v-12.76zm4.59 1.37c-1.73 0-2.61 1.31-2.61 3.29s1 3.28 2.61 3.28c1.87 0 2.58-1.66 2.58-3.28s-.89-3.29-2.58-3.29zM108.3 216.36c0-2.84 1.71-4.9 4.7-4.9s4.7 2.05 4.7 4.9-1.71 4.92-4.7 4.92-4.7-2.06-4.7-4.92zm7.35 0c0-1.6-.81-3.28-2.65-3.28s-2.65 1.68-2.65 3.28.81 3.29 2.65 3.29 2.64-1.72 2.64-3.29zM119 208.17h2.05v1.94H119v-1.94zm0 3.55h2.05V221H119v-9.31zM122.84 211.71h1.94v1.37a3.33 3.33 0 0 1 2.9-1.66 3 3 0 0 1 3.29 3.17V221h-2.05v-5.85c0-1.46-.61-2.09-1.82-2.09a2.27 2.27 0 0 0-2.26 2.28V221h-2.04zM131.79 211.71h1.55v-2.78h2.06v2.79h1.85v1.53h-1.85v5c0 .85.07 1.28 1 1.28a3.49 3.49 0 0 0 .86-.07v1.59c-.45 0-.88.11-1.33.11-2.14 0-2.54-.83-2.57-2.38v-5.49h-1.55zM73 244.46a14.94 14.94 0 0 1-2.59-8.3 15.34 15.34 0 0 1 2.59-8.3h1.67a16.65 16.65 0 0 0-2.21 8.3 15.91 15.91 0 0 0 2.21 8.3H73zM75.4 228.17h5.67c3.67 0 4.38 2.38 4.38 4s-.7 4-4.38 3.94h-3.41V241H75.4v-12.83zm2.25 6.09h3.29a2 2 0 0 0 2.25-2.12A1.9 1.9 0 0 0 81 230h-3.34v4.24zM86.68 231.71h1.93v1.8a3 3 0 0 1 2.79-2.05 5 5 0 0 1 .77.05v2a7.47 7.47 0 0 0-.88-.09c-1.4 0-2.52 1.13-2.52 3.19V241h-2.09v-9.33zM92.62 228.17h2.05v1.94h-2.05v-1.94zm0 3.55h2.05V241h-2.05v-9.31zM95.53 231.71h2.23l2.36 7.15 2.27-7.15h2.12l-3.33 9.29h-2.3zM113.14 238.93c0 .5.11.7.49.7a2.91 2.91 0 0 0 .5 0v1.42a5.18 5.18 0 0 1-1.3.23 1.37 1.37 0 0 1-1.58-1.13 4.77 4.77 0 0 1-3.22 1.13c-1.67 0-3.19-.9-3.19-2.72 0-2.32 1.85-2.7 3.58-2.9 1.48-.27 2.79-.11 2.79-1.31s-1.1-1.26-1.93-1.26c-1.15 0-2 .47-2.05 1.48h-2.05c.14-2.39 2.18-3.1 4.23-3.1 1.82 0 3.73.74 3.73 2.7v4.76zm-2.05-2.59a7.33 7.33 0 0 1-2.52.56c-.88.14-1.67.47-1.67 1.55 0 .92 1.17 1.19 1.89 1.19.9 0 2.3-.47 2.3-1.76v-1.54zM114 231.71h1.55v-2.78h2.05v2.79h1.83v1.53h-1.85v5c0 .85.07 1.28 1 1.28a3.49 3.49 0 0 0 .86-.07v1.59c-.45 0-.88.11-1.33.11-2.14 0-2.54-.83-2.58-2.38v-5.49h-1.55zM122 236.93a2.48 2.48 0 0 0 2.19 2.74h.31a2.16 2.16 0 0 0 2.27-1.55h1.95a4.08 4.08 0 0 1-4.21 3.17c-2.92 0-4.56-2-4.56-4.9 0-2.65 1.73-4.91 4.5-4.91 2.93 0 4.74 2.65 4.39 5.44H122zm4.79-1.35a2.4 2.4 0 1 0-4.79 0h4.79z"/><path class="gs22-2" d="M130.45 227.86a15 15 0 0 1 2.59 8.32 15.25 15.25 0 0 1-2.59 8.28h-1.67a16.53 16.53 0 0 0 2.21-8.28 16 16 0 0 0-2.21-8.32h1.67zM107.27 151.58H86.4a.52.52 0 1 0 0 1h20.83a.52.52 0 1 0 0-1z"/><path class="gs22-2" d="M119.4 136.48h-8a5.17 5.17 0 0 0-.66-2.9c-1.2-2-3.84-3.1-7.85-3.12s-6.61 1-7.81 3a5.19 5.19 0 0 0-.67 3h-8a6 6 0 0 0-5.95 5.95v21.32a6 6 0 0 0 5.95 6h33a6 6 0 0 0 5.95-5.95v-21.35a6 6 0 0 0-5.96-5.95zm-22.18-1.76c.71-1.19 2.66-1.81 5.66-1.79s5 .68 5.72 1.89a2.82 2.82 0 0 1 .33 1.65h-12a2.89 2.89 0 0 1 .3-1.75zm17 26.37a7.76 7.76 0 0 1-7.26-5h-6.88l-3.16-2.25-3.62 2.52-2.82-1.61-3.48 1.11-3.29-3.05 1.1-2.72h22.31a7.77 7.77 0 1 1 7 11h.05z"/><circle class="gs22-2" cx="117.21" cy="153.32" r="1.79"/><path class="gs22-3" d="M112.4 163.82a7.76 7.76 0 0 1-7.26-5H98.3l-3.16-2.25-3.62 2.52-2.82-1.61-3.43 1.11-3.27-3.05 1.1-2.72h22.3a7.77 7.77 0 1 1 7 11z"/><rect class="gs22-6" x="193.73" y="37.65" width="271.21" height="256.21" rx="3.14" ry="3.14"/><g class="gs22-7"><path class="gs22-8" d="M434 110.65h-13.06c-1.1 0-2-1.59-2-3.53 0-1.94.9-3.53 2-3.53h26.67c1.1 0 2-1.59 2-3.53 0-1.94-.9-3.53-2-3.53H422M434 124.79h-13.06c-1.1 0-2-1.59-2-3.53 0-1.94.9-3.53 2-3.53h26.67c1.1 0 2-1.59 2-3.53 0-1.94-.9-3.53-2-3.53h-13.72M434 138.93h-13.06c-1.1 0-2-1.59-2-3.53 0-1.94.9-3.53 2-3.53h26.67c1.1 0 2-1.59 2-3.53 0-1.94-.9-3.53-2-3.53h-13.72M434 153.08h-13.06c-1.1 0-2-1.59-2-3.53 0-1.94.9-3.53 2-3.53h26.67c1.1 0 2-1.59 2-3.53 0-1.94-.9-3.53-2-3.53h-13.72M434 167.22h-13.06c-1.1 0-2-1.59-2-3.53 0-1.94.9-3.53 2-3.53h26.67c1.1 0 2-1.59 2-3.53 0-1.94-.9-3.53-2-3.53h-13.72M434 181.37h-13.06c-1.1 0-2-1.59-2-3.53 0-1.94.9-3.53 2-3.53h26.67c1.1 0 2-1.59 2-3.53 0-1.94-.9-3.53-2-3.53h-13.72"/><path class="gs22-8" d="M434 195.36h-13.06c-1.1 0-2-1.59-2-3.53 0-1.94.9-3.53 2-3.53h26.67c1.1 0 2-1.59 2-3.53 0-1.94-.9-3.53-2-3.53h-13.72M434 209.51h-13.06c-1.1 0-2-1.59-2-3.53 0-1.94.9-3.53 2-3.53h26.67c1.1 0 2-1.59 2-3.53 0-1.94-.9-3.53-2-3.53h-13.72M434 223.65h-13.06c-1.1 0-2-1.59-2-3.53 0-1.94.9-3.53 2-3.53h26.67c1.1 0 2-1.59 2-3.53 0-1.94-.9-3.53-2-3.53h-13.72M434 237.79h-13.06c-1.1 0-2-1.59-2-3.53 0-1.94.9-3.53 2-3.53h26.67c1.1 0 2-1.59 2-3.53 0-1.94-.9-3.53-2-3.53h-13.72M434 82.33h-13.06c-1.1 0-2-1.59-2-3.53 0-1.94.9-3.53 2-3.53h26.67c1.1 0 2-1.59 2-3.53 0-1.94-.9-3.53-2-3.53h-13.72M434.1 68.19H421c-1.1 0-2-1.59-2-3.53 0-1.94.9-3.53 2-3.53h26.7c1.1 0 2-1.59 2-3.53 0-1.94-.9-3.53-2-3.53H434M434 96.48h-13.06c-1.1 0-2-1.59-2-3.53 0-1.94.9-3.53 2-3.53h26.67c1.1 0 2-1.59 2-3.53 0-1.94-.9-3.53-2-3.53h-13.72"/><path class="gs22-8" d="M434 251.86h-13.06c-1.1 0-2-1.59-2-3.53 0-1.94.9-3.53 2-3.53h26.67c1.1 0 2-1.59 2-3.53 0-1.94-.9-3.53-2-3.53h-13.72M420.94 258.93h26.67c1.1 0 2-1.59 2-3.53 0-1.94-.9-3.53-2-3.53h-13.72"/></g><path class="gs22-5" d="M415.02 254.02h38.91v14.5h-38.91z"/><g class="gs22-9"><path class="gs22-10" d="M418.49 260.43h3.75c1.72 0 2.6.79 2.6 2.12a1.91 1.91 0 0 1-1.3 2 1.44 1.44 0 0 1 1.17 1.66 3.57 3.57 0 0 0 .43 2.07h-1.47a2.19 2.19 0 0 1-.21-1.16c0-1.44-.3-2.08-1.56-2.08h-2v3.23h-1.37zm1.38 3.58h2.26a1.16 1.16 0 0 0 1.34-1.25 1.13 1.13 0 0 0-1.36-1.2h-2.23V264zM425.79 265.44a2.87 2.87 0 1 1 2.87 3 2.75 2.75 0 0 1-2.87-3zm4.49 0a1.66 1.66 0 1 0-1.62 2 1.75 1.75 0 0 0 1.62-2zM437.58 268.29h-1.23v-.79a1.91 1.91 0 0 1-1.62 1c-1.49 0-2.12-.75-2.12-2.23v-3.61h1.25v3.49c0 1 .41 1.36 1.09 1.36a1.34 1.34 0 0 0 1.4-1.55v-3.3h1.25zM438.32 262.6h1v-1.67h1.25v1.71h1.13v.93h-1.13v3c0 .52 0 .78.61.78a2.15 2.15 0 0 0 .53 0v1c-.28 0-.54.07-.81.07-1.31 0-1.55-.51-1.57-1.45v-3.44h-1v-.93zM443.54 265.77a1.51 1.51 0 0 0 1.33 1.67h.2a1.32 1.32 0 0 0 1.39-1h1.19a2.49 2.49 0 0 1-2.58 1.94 2.7 2.7 0 0 1-2.78-3 2.75 2.75 0 1 1 5.44.32h-4.19zm2.93-.83a1.46 1.46 0 0 0-2.93 0h2.93zM448.67 262.6h1.18v1.1a1.84 1.84 0 0 1 1.66-1.25 2.87 2.87 0 0 1 .47 0v1.21a4.36 4.36 0 0 0-.54 0c-.86 0-1.54.69-1.54 2v2.71h-1.25z"/></g><rect class="gs22-11" x="193.81" y="335.39" width="81.49" height="32.75" rx="3.14" ry="3.14"/><rect class="gs22-11" x="375.86" y="335.39" width="81.49" height="32.75" rx="3.14" ry="3.14"/><path class="gs22-12" d="M210.29 341.86h2.61c2.35 0 3.66 1.17 3.66 3.63s-1.12 4-3.66 4h-2.61v-7.63zm1 6.76H213c.69 0 2.56-.19 2.56-3 0-1.81-.67-2.91-2.54-2.91h-1.7v5.91zM218.33 342.93h-.93v-1.11h.91zm-.91 1h.91v5.51h-.93zM220 347.74a1.22 1.22 0 0 0 1.48 1.07c.57 0 1.33-.13 1.33-.82s-.9-.82-1.8-1-1.8-.5-1.8-1.56a1.84 1.84 0 0 1 2.06-1.57c1.22 0 2.19.38 2.26 1.73h-.91a1.11 1.11 0 0 0-1.28-.93c-.6 0-1.17.15-1.17.7s1 .76 1.8 1 1.8.5 1.8 1.57c0 1.31-1.23 1.74-2.35 1.74s-2.28-.5-2.33-1.87zM225.8 343.93h1.1v.8h-1.1v3.42c0 .42.12.49.68.49h.42v.8h-.69c-.94 0-1.31-.19-1.31-1.21v-3.51h-.9v-.79h.94v-1.65h.91v1.65zM227.6 343.93h.8v1.16a2 2 0 0 1 2-1.29v1c-1.46 0-2 .83-2 2.23v2.45h-.91zM231.87 342.93H231v-1.11h.91v1.11zm-.91 1h.91v5.51H231v-5.51zM233 341.86h.91v2.85a1.86 1.86 0 0 1 1.76-.87c1.7 0 2.54 1.34 2.54 2.9s-.83 2.87-2.52 2.87a2.11 2.11 0 0 1-1.78-.86v.74H233v-7.63zm2.56 2.77c-1.22 0-1.69 1-1.69 2.08s.49 2.09 1.74 2.09 1.65-1.06 1.65-2.13a1.77 1.77 0 0 0-1.7-2zM243.63 349.48h-.85v-.87a1.92 1.92 0 0 1-1.79 1 1.71 1.71 0 0 1-1.9-2v-3.68h.91v3.73a1 1 0 0 0 1.12 1.11 1.55 1.55 0 0 0 1.63-1.73v-3.11h.91zM246 343.93h1.1v.8H246v3.42c0 .42.12.49.68.49h.42v.8h-.7c-.94 0-1.31-.19-1.31-1.21v-3.51h-.94v-.79h.94v-1.65h.91v1.65zM252.52 347.73a2.22 2.22 0 0 1-2.36 1.88c-1.76 0-2.59-1.22-2.65-2.9a2.65 2.65 0 0 1 2.42-2.86h.17c2 0 2.55 1.82 2.5 3.16h-4.13a1.62 1.62 0 0 0 1.41 1.8h.31a1.33 1.33 0 0 0 1.43-1.08h.9zm-.87-1.54a1.58 1.58 0 0 0-3.17 0h3.17zM258.2 349.48h-.91v-.75a1.86 1.86 0 0 1-1.76.88c-1.7 0-2.54-1.34-2.54-2.9s.83-2.87 2.52-2.87a2.11 2.11 0 0 1 1.78.86v-2.84h.91v7.62zm-2.56-.67c1.22 0 1.68-1 1.68-2.08s-.49-2.09-1.74-2.09-1.65 1.06-1.65 2.13a1.79 1.79 0 0 0 1.71 2zM210.84 352.88h2.61c2.35 0 3.66 1.17 3.66 3.63s-1.12 4-3.66 4h-2.61v-7.63zm1 6.76h1.69c.69 0 2.56-.19 2.56-3 0-1.81-.67-2.91-2.54-2.91h-1.71v5.91zM222.82 360.47a1.22 1.22 0 0 1-.65.15.73.73 0 0 1-.77-.85 2.45 2.45 0 0 1-1.94.85 1.56 1.56 0 0 1-1.82-1.55c0-1.1.93-1.51 1.87-1.7s1.86-.13 1.86-.81a1 1 0 0 0-1.23-.92 1.13 1.13 0 0 0-1.38 1h-.91c.05-1.37 1.11-1.85 2.34-1.85 1 0 2.07.22 2.07 1.51v2.84c0 .43 0 .62.29.62a.77.77 0 0 0 .28 0v.76zm-1.47-2.83a4.66 4.66 0 0 1-1.64.37 1.06 1.06 0 0 0-1.11 1 .85.85 0 0 0 1.07.81 1.48 1.48 0 0 0 1.69-1.25v-.93zM224.65 354.93h1.1v.8h-1.1v3.42c0 .42.12.49.68.49h.42v.8h-.69c-.94 0-1.31-.19-1.31-1.21v-3.51h-.94v-.79h.94v-1.65h.91v1.65zM231.4 360.47a1.22 1.22 0 0 1-.65.15.73.73 0 0 1-.77-.85 2.45 2.45 0 0 1-1.94.85 1.56 1.56 0 0 1-1.82-1.55c0-1.1.93-1.51 1.87-1.7s1.86-.13 1.86-.81a1 1 0 0 0-1.23-.92 1.13 1.13 0 0 0-1.38 1h-.94c.05-1.37 1.11-1.85 2.34-1.85 1 0 2.07.22 2.07 1.51v2.84c0 .43 0 .62.29.62a.77.77 0 0 0 .28 0zm-1.47-2.83a4.66 4.66 0 0 1-1.64.37 1.06 1.06 0 0 0-1.11 1 .85.85 0 0 0 1.07.81 1.48 1.48 0 0 0 1.69-1.25v-.93zM239.19 355.1a1.66 1.66 0 0 0-1.74-1.57h-.15c-.85 0-1.71.31-1.71 1.3s1.22 1.08 2.44 1.35 2.43.7 2.43 2.2-1.59 2.27-3 2.27c-1.71 0-3.15-.83-3.15-2.69h1c0 1.28 1.07 1.83 2.22 1.83.92 0 1.93-.29 1.93-1.39s-1.22-1.23-2.43-1.49-2.44-.62-2.44-2 1.38-2.23 2.76-2.23c1.56 0 2.74.74 2.81 2.41h-1zM242.54 354.93h1.1v.8h-1.1v3.42c0 .42.12.49.68.49h.42v.8h-.69c-.94 0-1.31-.19-1.31-1.21v-3.51h-.94v-.79h.94v-1.65h.91v1.65zM246.75 354.85a2.89 2.89 0 1 1-2.67 3.09v-.2a2.62 2.62 0 0 1 2.33-2.88h.35zm0 5a2.12 2.12 0 1 0-1.72-2.08 1.79 1.79 0 0 0 1.72 2zM250.19 354.93h.81v1.16a2 2 0 0 1 2-1.29v1c-1.46 0-2 .83-2 2.23v2.45h-.91zM258 358.74a2.22 2.22 0 0 1-2.36 1.88c-1.76 0-2.59-1.22-2.65-2.9a2.65 2.65 0 0 1 2.42-2.86h.17c2 0 2.55 1.82 2.5 3.16H254a1.62 1.62 0 0 0 1.41 1.8h.31a1.33 1.33 0 0 0 1.43-1.08h.85zm-.87-1.54a1.59 1.59 0 0 0-3.17 0h3.17zM400.58 347.25h3.34a2.25 2.25 0 0 1 0 4.5h-2.33v3.11h-1v-7.61zm1 3.65h2c1.14 0 1.66-.49 1.66-1.4s-.52-1.4-1.66-1.4h-2v2.8zM407.13 347.25h.87v7.62h-.91v-7.62zM413.74 354.86h-.85V354a1.92 1.92 0 0 1-1.79 1 1.71 1.71 0 0 1-1.9-2v-3.63h.91v3.73a1 1 0 0 0 1.12 1.11 1.55 1.55 0 0 0 1.63-1.73v-3.12h.91zM419.59 354.39c0 1.79-.82 2.71-2.56 2.71-1 0-2.23-.42-2.28-1.62h.91c0 .66.83.9 1.43.9 1.18 0 1.65-.85 1.65-2.09v-.36a1.84 1.84 0 0 1-1.72 1 2.5 2.5 0 0 1-2.46-2.79c0-1.3.64-2.91 2.55-2.91a1.8 1.8 0 0 1 1.64.92v-.79h.85v5zm-.9-2.4c0-1-.43-2-1.57-2a1.75 1.75 0 0 0-1.63 2c0 1 .36 2.1 1.56 2.1s1.64-1.09 1.64-2.09zM421.65 348.35h-.91v-1.11h.91v1.11zm-.91 1h.91v5.51h-.91v-5.51zM422.79 349.35h.85v.88a1.92 1.92 0 0 1 1.79-1 1.71 1.71 0 0 1 1.9 2v3.63h-.93v-3.73a1 1 0 0 0-1.12-1.11 1.55 1.55 0 0 0-1.63 1.73v3.11h-.91zM429 353.12a1.22 1.22 0 0 0 1.48 1.07c.57 0 1.33-.13 1.33-.82s-.9-.82-1.8-1-1.8-.5-1.8-1.56a1.84 1.84 0 0 1 2.06-1.57c1.22 0 2.19.38 2.26 1.73h-.91a1.11 1.11 0 0 0-1.28-.93c-.6 0-1.17.15-1.17.7s1 .76 1.8 1 1.8.5 1.8 1.57c0 1.31-1.23 1.74-2.35 1.74s-2.28-.5-2.33-1.87z"/><rect class="gs22-11" x="193.2" y="302.12" width="264.87" height="25.49" rx="3.14" ry="3.14"/><path class="gs22-12" d="M255.57 313a2.63 2.63 0 0 0-2.8-2.13c-2.38 0-3.39 2-3.39 4 0 2.28 1 4.19 3.4 4.19a2.83 2.83 0 0 0 2.89-2.77v-.11H257a4.07 4.07 0 0 1-4.13 4h-.2c-3.11 0-4.62-2.3-4.62-5.21s1.65-5.27 4.73-5.27a3.83 3.83 0 0 1 4.12 3.3zM264.49 317.69a2.92 2.92 0 0 1-3.1 2.46c-2.31 0-3.4-1.6-3.47-3.81a3.49 3.49 0 0 1 3.2-3.76h.2c2.56 0 3.35 2.4 3.28 4.15h-5.42a2.13 2.13 0 0 0 2.26 2.38 1.74 1.74 0 0 0 1.88-1.41h1.17zm-1.15-2a2.08 2.08 0 1 0-4.16 0h4.16zM265.69 312.75h1.12v1.18a2.52 2.52 0 0 1 2.35-1.32c1.91 0 2.49 1.09 2.49 2.65V320h-1.15v-4.9a1.36 1.36 0 0 0-1.25-1.46H269a2 2 0 0 0-2.14 2.27V320h-1.16v-7.27zM275 312.75h1.41v1H275v4.5c0 .55.15.64.9.64h.54v1h-.91c-1.23 0-1.72-.25-1.72-1.58v-4.51h-1.23v-1h1.23v-2.17H275zM277.56 312.75h1.12v1.53a2.64 2.64 0 0 1 2.66-1.7v1.26c-1.92 0-2.62 1.09-2.62 2.93V320h-1.19zM288.54 319.93a1.61 1.61 0 0 1-.85.2 1 1 0 0 1-1-1.12 3.22 3.22 0 0 1-2.55 1.12c-1.32 0-2.4-.59-2.4-2 0-1.64 1.22-2 2.45-2.23s2.44-.17 2.44-1.06a1.38 1.38 0 0 0-1.61-1.21c-1 0-1.75.31-1.81 1.37H282c.07-1.79 1.46-2.42 3.07-2.42 1.3 0 2.72.29 2.72 2v3.72c0 .56 0 .81.38.81a1 1 0 0 0 .36-.07v.89zm-1.93-3.71a6.1 6.1 0 0 1-2.16.49c-.78.14-1.46.42-1.46 1.3s.67 1.06 1.4 1.06c1.57 0 2.21-1 2.21-1.64v-1.21zM289.58 310h1.19v10h-1.19v-10zM293.73 311.44h-1.19V310h1.19v1.46zm-1.19 1.3h1.19V320h-1.19v-7.24zM294.85 319.08l4.37-5.28h-4.09v-1h5.63v.81l-4.42 5.37H301v1h-6.11v-.9zM308.2 317.69a2.92 2.92 0 0 1-3.1 2.46c-2.31 0-3.4-1.6-3.47-3.81a3.49 3.49 0 0 1 3.2-3.76h.17c2.56 0 3.35 2.4 3.28 4.15h-5.42a2.13 2.13 0 0 0 2.26 2.38 1.74 1.74 0 0 0 1.88-1.41h1.17zm-1.15-2a2.08 2.08 0 1 0-4.16 0H307zM315.87 320h-1.19v-1a2.44 2.44 0 0 1-2.31 1.15c-2.23 0-3.33-1.76-3.33-3.81s1.09-3.77 3.31-3.77a2.78 2.78 0 0 1 2.34 1.13V310h1.19v10zm-3.36-.88c1.6 0 2.21-1.37 2.21-2.73s-.64-2.75-2.28-2.75-2.17 1.39-2.17 2.8.7 2.67 2.24 2.67zM328.54 313a2.63 2.63 0 0 0-2.8-2.13c-2.38 0-3.39 2-3.39 4 0 2.28 1 4.19 3.4 4.19a2.83 2.83 0 0 0 2.89-2.77v-.11H330a4.07 4.07 0 0 1-4.13 4h-.2c-3.11 0-4.62-2.3-4.62-5.21s1.65-5.27 4.73-5.27a3.83 3.83 0 0 1 4.12 3.25zM334.4 312.58c2.3 0 3.52 1.67 3.52 3.8s-1.22 3.78-3.52 3.78-3.52-1.67-3.52-3.78 1.23-3.8 3.52-3.8zm0 6.53c1.25 0 2.25-1 2.25-2.73s-1-2.75-2.25-2.75-2.26 1-2.26 2.75 1 2.72 2.26 2.72zM339.18 312.75h1.12v1.18a2.52 2.52 0 0 1 2.35-1.32c1.91 0 2.49 1.09 2.49 2.65V320h-1.19v-4.9a1.36 1.36 0 0 0-1.25-1.46h-.22a2 2 0 0 0-2.08 2.27V320h-1.19zM347.31 313.8h-1.22v-1h1.22v-1.08c0-1.18.7-1.79 2-1.79a2.91 2.91 0 0 1 .77.11v1a2.22 2.22 0 0 0-.67-.1.74.74 0 0 0-.91.81v1h1.4v1h-1.4v6.19h-1.19v-6.14zM352.08 311.44h-1.19V310h1.19v1.46zm-1.19 1.3h1.19V320h-1.19v-7.24zM360 319.37c0 2.35-1.08 3.56-3.36 3.56-1.36 0-2.93-.54-3-2.13h1.19c.06.87 1.09 1.18 1.88 1.18 1.55 0 2.17-1.12 2.17-2.75v-.48a2.41 2.41 0 0 1-2.25 1.32c-2.16 0-3.24-1.7-3.24-3.67 0-1.71.84-3.82 3.35-3.82a2.36 2.36 0 0 1 2.16 1.21v-1h1.12zm-1.18-3.15c0-1.28-.56-2.59-2.06-2.59s-2.14 1.25-2.14 2.63.48 2.76 2 2.76 2.2-1.44 2.2-2.8zM367.68 320h-1.12v-1.15a2.52 2.52 0 0 1-2.35 1.32c-1.91 0-2.49-1.09-2.49-2.65v-4.76h1.19v4.9a1.36 1.36 0 0 0 1.25 1.46h.22a2 2 0 0 0 2.14-2.27v-4.09h1.19zM369.29 312.75h1.11v1.53a2.64 2.64 0 0 1 2.66-1.7v1.26c-1.92 0-2.62 1.09-2.62 2.93V320h-1.19zM380.27 319.93a1.61 1.61 0 0 1-.85.2 1 1 0 0 1-1-1.12 3.22 3.22 0 0 1-2.55 1.12c-1.32 0-2.4-.59-2.4-2 0-1.64 1.22-2 2.45-2.23s2.44-.17 2.44-1.06a1.38 1.38 0 0 0-1.61-1.21c-1 0-1.75.31-1.81 1.37h-1.19c.07-1.79 1.46-2.42 3.07-2.42 1.3 0 2.72.29 2.72 2v3.72c0 .56 0 .81.38.81a1 1 0 0 0 .36-.07v.89zm-1.93-3.71a6.1 6.1 0 0 1-2.16.49c-.78.14-1.46.42-1.46 1.3s.67 1.06 1.4 1.06c1.57 0 2.21-1 2.21-1.64v-1.21zM382.88 312.75h1.44v1h-1.44v4.5c0 .55.15.64.9.64h.55v1h-.93c-1.23 0-1.72-.25-1.72-1.58v-4.51h-1.23v-1h1.23v-2.17h1.19v2.17zM386.76 311.44h-1.19V310h1.19v1.46zm-1.19 1.3h1.19V320h-1.19v-7.24zM391.59 312.58c2.3 0 3.52 1.67 3.52 3.8s-1.22 3.78-3.52 3.78-3.52-1.67-3.52-3.78 1.22-3.8 3.52-3.8zm0 6.53c1.25 0 2.25-1 2.25-2.73s-1-2.75-2.25-2.75-2.26 1-2.26 2.75 1 2.72 2.26 2.72zM396.4 312.75h1.12v1.18a2.52 2.52 0 0 1 2.35-1.32c1.91 0 2.49 1.09 2.49 2.65V320h-1.19v-4.9a1.36 1.36 0 0 0-1.25-1.46h-.22a2 2 0 0 0-2.14 2.27V320h-1.16v-7.27z"/><path class="gs22-10" d="M206 274.82h6.91v1.11h-5.58v3.18h5.2v1.12h-5.2v3.46h5.62v1.12H206v-10zM215.94 281l-2.54-3.43h1.53l1.74 2.54 1.81-2.54h1.43l-2.51 3.35 2.8 3.91h-1.5l-2-3-2 3h-1.44zM220.94 277.58h1.19v1a2.44 2.44 0 0 1 2.31-1.15c2.23 0 3.33 1.76 3.33 3.81s-1.09 3.77-3.31 3.77a2.77 2.77 0 0 1-2.34-1.13v3.74h-1.19v-10zm3.36.88c-1.6 0-2.21 1.37-2.21 2.73s.64 2.74 2.31 2.74 2.17-1.39 2.17-2.8-.73-2.67-2.27-2.67zM228.81 277.58h1.12v1.53a2.63 2.63 0 0 1 2.66-1.7v1.26c-1.92 0-2.62 1.09-2.62 2.93v3.22h-1.19zM239.09 282.53A2.92 2.92 0 0 1 236 285c-2.31 0-3.4-1.6-3.47-3.81a3.49 3.49 0 0 1 3.2-3.76h.2c2.56 0 3.35 2.4 3.28 4.15h-5.42a2.13 2.13 0 0 0 2.25 2.38 1.74 1.74 0 0 0 1.88-1.41h1.18zm-1.15-2a2.08 2.08 0 0 0-4.16 0h4.16zM240.81 282.54c0 1.06 1 1.4 1.95 1.4.74 0 1.75-.17 1.75-1.08s-1.18-1.08-2.37-1.34-2.37-.66-2.37-2 1.44-2.06 2.7-2.06c1.6 0 2.87.5 3 2.27h-1.19a1.46 1.46 0 0 0-1.68-1.22c-.78 0-1.54.2-1.54.92s1.26 1 2.37 1.26 2.37.66 2.37 2.06c0 1.72-1.61 2.28-3.08 2.28s-3-.66-3.07-2.45zM247.46 282.54c0 1.06 1 1.4 1.95 1.4.74 0 1.75-.17 1.75-1.08s-1.18-1.08-2.37-1.34-2.37-.66-2.37-2 1.44-2.06 2.7-2.06c1.6 0 2.87.5 3 2.27h-1.22a1.46 1.46 0 0 0-1.68-1.22c-.78 0-1.54.2-1.54.92s1.26 1 2.37 1.26 2.37.66 2.37 2.06c0 1.72-1.61 2.28-3.08 2.28s-3-.66-3.07-2.45zM257.12 274.82h4.71c1.88 0 3 1 3 2.62a2.4 2.4 0 0 1-1.74 2.54c1.16.22 1.4 1.08 1.5 2.06a5.13 5.13 0 0 0 .59 2.76h-1.48c-.38-.41-.17-1.48-.36-2.47s-.38-1.81-1.67-1.81h-3.27v4.27h-1.33zm4.1 4.61c1.25 0 2.31-.32 2.31-1.78a1.58 1.58 0 0 0-1.78-1.71h-3.35v3.49h2.82zM272.15 284.82H271v-1.15a2.52 2.52 0 0 1-2.35 1.32c-1.9 0-2.49-1.09-2.49-2.65v-4.76h1.19v4.9a1.36 1.36 0 0 0 1.25 1.46h.22a2 2 0 0 0 2.14-2.27v-4.09h1.19zM273.59 277.58h1.12v1.15a2.52 2.52 0 0 1 2.35-1.32c1.9 0 2.49 1.09 2.49 2.65v4.76h-1.15v-4.89a1.36 1.36 0 0 0-1.25-1.46h-.22a2 2 0 0 0-2.14 2.27v4.09h-1.19v-7.25zM282.68 277.58h1.44v1h-1.44v4.5c0 .55.15.64.9.64h.55v1h-.91c-1.23 0-1.72-.25-1.72-1.58v-4.61h-1.23v-1h1.23v-2.17h1.19v2.17zM286.35 276.28h-1.19v-1.46h1.19v1.46zm-1.19 1.3h1.19v7.24h-1.19v-7.24zM287.85 277.58H289v1.06a2.67 2.67 0 0 1 2.34-1.23 1.92 1.92 0 0 1 2 1.23 2.68 2.68 0 0 1 2.27-1.23c1.44 0 2.41.6 2.41 2.1v5.31h-1.22v-4.75c0-.9-.24-1.61-1.4-1.61a1.75 1.75 0 0 0-1.89 1.85v4.51h-1.19v-4.75c0-.94-.29-1.61-1.36-1.61a2 2 0 0 0-1.93 1.85v4.51h-1.19v-7.24zM305.61 282.53a2.92 2.92 0 0 1-3.1 2.46c-2.31 0-3.4-1.6-3.47-3.81a3.49 3.49 0 0 1 3.2-3.76h.2c2.56 0 3.35 2.4 3.28 4.15h-5.42a2.13 2.13 0 0 0 2.25 2.38 1.74 1.74 0 0 0 1.85-1.41h1.21zm-1.15-2a2.08 2.08 0 0 0-4.16 0h4.16z"/><path class="gs22-5" d="M204.02 267.6h11.87v2.09h-11.87z"/><path class="gs22-10" d="M212.7 73.59h.83v.83h-.83v-.83zM214.59 73.59h.81v.83h-.83zM216.47 73.59h.83v.83h-.83v-.83z"/><path class="gs22-13" d="M211.27 60.74h7.16M211.92 261.76h6.91"/><path class="gs22-14" d="M175.85.15v424.64h306.94V.15H175.85zm197 401.48h-94.5v-71.5h94.5v71.5z"/><path class="gs22-13" d="M398.51 261.74h-.27c.25.68.5.08.76.08 3 0 5.4-45.71 5.4-103.26S402 54.34 399 54.34a.67.67 0 0 0-.49.43"/><path class="gs22-13" d="M398.51 54.78v-1.47H211v.13c-2.51 8.91-4.42 54-4.42 105.13s1.9 97.49 4.42 102.49a1.65 1.65 0 0 0 1.74.69h185.5c-2.62-7.14-4.64-50.61-4.64-103.18 0-54.37 2.16-99.01 4.91-103.79z"/><rect class="gs22-15" x="240.91" y="63.07" width="66.55" height="181.17" rx="2.9" ry="2.9"/><path class="gs22-10" d="M260.87 82.59h3.44a2.32 2.32 0 0 1 0 4.64h-2.4v3.21h-1zm1 3.76h2c1.18 0 1.72-.51 1.72-1.44s-.54-1.44-1.72-1.44h-2v2.88zM270 84.63a3 3 0 1 1-2.75 3.23v-.23a2.7 2.7 0 0 1 2.38-3zm0 5.13a1.86 1.86 0 0 0 1.77-2.15 1.81 1.81 0 1 0-3.54 0 1.86 1.86 0 0 0 1.77 2.14zM273.66 82.59h.94v7.86h-.94v-7.86zM276.76 83.74h-.94v-1.15h.94v1.15zm-.94 1h.94v5.69h-.94v-5.69zM281.8 86.59a1.32 1.32 0 0 0-1.4-1.14c-1.35 0-1.77 1.07-1.77 2.22s.47 2.08 1.66 2.08a1.47 1.47 0 0 0 1.56-1.38h1a2.36 2.36 0 0 1-2.5 2.21 2.59 2.59 0 0 1-2.66-2.9c0-1.71.88-3 2.68-3a2.18 2.18 0 0 1 2.44 1.89v.11zM285.8 91.21c-.43 1.11-.81 1.52-1.65 1.52a1.88 1.88 0 0 1-.65-.1v-.86a1.93 1.93 0 0 0 .55.13.81.81 0 0 0 .77-.52l.39-1-2.26-5.65H284l1.66 4.65 1.6-4.65h1z"/><rect class="gs22-5" x="250.47" y="112.01" width="47.44" height="106.13" rx="2.9" ry="2.9"/><path class="gs22-12" d="M258.6 157.82h4.09c2.65 0 3.16 1.72 3.16 2.87s-.51 2.86-3.16 2.85h-2.47v3.56h-1.62v-9.28zm1.63 4.39h2.38a1.48 1.48 0 0 0 1.63-1.53 1.38 1.38 0 0 0-1.6-1.53h-2.41v3.06zM266.74 160.38h1.39v1.3a2.17 2.17 0 0 1 2-1.48 3.56 3.56 0 0 1 .56 0v1.43a5.41 5.41 0 0 0-.64-.06c-1 0-1.82.82-1.82 2.3v3.2h-1.48v-6.69zM270.4 163.74a3.4 3.4 0 1 1 3.39 3.55 3.25 3.25 0 0 1-3.39-3.55zm5.3 0c0-1.16-.58-2.37-1.91-2.37s-1.91 1.21-1.91 2.37.58 2.38 1.91 2.38a2.11 2.11 0 0 0 2-2.38h-.09z"/><path class="gs22-12" d="M279.95 163.57l-2.33-3.19h1.78l1.4 2.07 1.47-2.07H284l-2.29 3.11 2.57 3.61h-1.78l-1.7-2.48-1.65 2.48h-1.75zM284.06 160.38h1.63l1.75 5 1.7-5h1.55l-2.61 7.09c-.48 1.21-.83 2.3-2.38 2.3a6.74 6.74 0 0 1-1-.08v-1.25a4.32 4.32 0 0 0 .7.09.94.94 0 0 0 1-.94l.17-.52z"/><path class="gs22-11" d="M216.68 53.31h8.41c-.86-.12-4.89-.07-8.41 0zM225.23 53.43l175.12-.12H225.08h.17zM211.08 53.31v.13l5.59-.13h-5.59zM258.4 261.74H257a10.67 10.67 0 0 0 1.4 0z"/><path class="gs22-11" d="M400.4 261.4l-3.18-19.4H275.89c-13.69 0-31.53-1.73-43.63-19.36-11.3-16.47-15.92-48-15.92-71.85 0-33.21-2-87.31 34.76-97.4h-40c-2.54 8.91-4.46 46.14-4.46 97.22s1.92 105.39 4.46 110.4a1.67 1.67 0 0 0 1.76.69H257a18.57 18.57 0 0 1-2.63-.35H400.4z"/><path class="gs22-5" d="M220.13 247.12h4.07a2.75 2.75 0 0 1 .33 5.49h-3.13v3.8h-1.23zm1.23 4.45h2.42c1.39 0 2-.6 2-1.7s-.64-1.7-2-1.7h-2.38zM229.22 248.47h-1.11v-1.35h1.11v1.35zm-1.11 1.21h1.11v6.72h-1.11v-6.72zM230.65 249.68h1.11v.91a2.27 2.27 0 0 1 2.15-1.07c2.07 0 3.09 1.64 3.09 3.54s-1 3.5-3.07 3.5a2.58 2.58 0 0 1-2.17-1.05v3.42h-1.11v-9.25zm3.12.82c-1.48 0-2.05 1.27-2.05 2.54s.6 2.55 2.12 2.55 2-1.29 2-2.6-.64-2.49-2.07-2.49zM243.72 254.27a2.71 2.71 0 0 1-2.87 2.29c-2.14 0-3.16-1.48-3.22-3.54a3.24 3.24 0 0 1 3-3.49h.19c2.38 0 3.11 2.22 3 3.85h-5a2 2 0 0 0 1.78 2.2h.31a1.62 1.62 0 0 0 1.74-1.31h1.1zm-1.07-1.87a1.93 1.93 0 0 0-3.86 0h3.86zM244.71 247.12h1.11v9.28h-1.11v-9.28zM248.4 248.47h-1.11v-1.35h1.11v1.35zm-1.11 1.21h1.11v6.72h-1.11v-6.72zM249.77 249.68h1v1.07a2.34 2.34 0 0 1 2.18-1.22c1.77 0 2.31 1 2.31 2.46v4.42h-1.11v-4.55a1.27 1.27 0 0 0-1.18-1.35h-.19a1.89 1.89 0 0 0-2 2.11v3.8h-1.1zM262.4 254.27a2.71 2.71 0 0 1-2.87 2.29c-2.15 0-3.16-1.48-3.22-3.54a3.24 3.24 0 0 1 3-3.49h.19c2.38 0 3.11 2.22 3 3.85h-5a2 2 0 0 0 1.78 2.2h.31a1.62 1.62 0 0 0 1.74-1.31h1.1zm-1.07-1.87a1.93 1.93 0 0 0-1.94-1.9 1.91 1.91 0 0 0-1.92 1.9h3.86zM269.4 247.18c2.89 0 3.07 2.65 3.07 4.69s-.18 4.68-3.07 4.68-3.07-2.65-3.07-4.68.18-4.69 3.07-4.69zm0 8.4c1.88 0 1.9-2.34 1.9-3.72s0-3.71-1.9-3.71-1.9 2.34-1.9 3.71.01 3.72 1.9 3.72zM275.52 251.14h.48a1.56 1.56 0 0 0 1.74-1.36v-.15a1.46 1.46 0 0 0-1.43-1.49h-.21a1.75 1.75 0 0 0-1.74 2h-1.1c.06-1.75 1-3 2.85-3 1.6 0 2.81.77 2.81 2.47a2.11 2.11 0 0 1-1.27 1.83 2.1 2.1 0 0 1 1.66 2.24c0 1.85-1.44 2.81-3.17 2.81a2.79 2.79 0 0 1-3.07-3h1.11a1.87 1.87 0 0 0 1.73 2h.27a1.83 1.83 0 0 0 2-1.65v-.13a1.76 1.76 0 0 0-1.73-1.79h-.27a5.47 5.47 0 0 0-.66 0v-.81zM277.77 366.38h98.06v34.95h-98.06z"/><path class="gs22-12" d="M506.68 361.85h97.12a12.75 12.75 0 0 1 12.75 12.75 12.75 12.75 0 0 1-12.75 12.75h-97.12a12.75 12.75 0 0 1-12.75-12.75 12.75 12.75 0 0 1 12.75-12.75z"/><path class="gs22-5" d="M506.69 370.21h1.46l3 7.86h-1.47l-.74-2.07h-3.14l-.74 2.08h-1.42zm-.48 4.73h2.4l-1.21-3.37zM511.65 370.21h3.47c2.24 0 2.67 1.45 2.67 2.43s-.43 2.42-2.67 2.41H513v3h-1.37v-7.84zm1.38 3.72h2a1.25 1.25 0 0 0 1.38-1.3 1.19 1.19 0 0 0-1.35-1.3h-2zM518.72 370.21h1.38v7.86h-1.37v-7.86zM529.58 372.71a1.88 1.88 0 0 0-2-1.56c-1.68 0-2.39 1.49-2.39 3s.7 3 2.39 3a2 2 0 0 0 2-2v-.06h1.34a3.22 3.22 0 0 1-3.26 3.18h-.08c-2.35 0-3.76-1.87-3.76-4.12s1.41-4.11 3.76-4.11a3.07 3.07 0 0 1 3.33 2.68h-1.33zM531.51 375.22a2.87 2.87 0 1 1 2.87 3 2.75 2.75 0 0 1-2.87-3zm4.49 0a1.66 1.66 0 1 0-1.62 2 1.75 1.75 0 0 0 1.62-2zM538 372.38h1.19v.84a2 2 0 0 1 1.77-1 1.8 1.8 0 0 1 2 1.94v3.91h-1.25v-3.58a1 1 0 0 0-1.11-1.28 1.39 1.39 0 0 0-1.37 1.41V378.07H538zM545 376.24a1.12 1.12 0 0 0 1.29 1c.47 0 1.3-.1 1.26-.75s-1-.74-1.86-1-1.83-.53-1.83-1.68 1.34-1.63 2.38-1.63a2.17 2.17 0 0 1 2.38 1.75h-1.31a1 1 0 0 0-1.16-.76c-.36 0-1 .09-1 .58s.92.7 1.85.91 1.84.54 1.84 1.66c0 1.35-1.36 1.85-2.54 1.85-1.43 0-2.5-.64-2.52-2zM554.49 378.07h-1.23v-.79a1.91 1.91 0 0 1-1.62 1c-1.49 0-2.12-.75-2.12-2.23v-3.61h1.25v3.49c0 1 .41 1.36 1.09 1.36a1.34 1.34 0 0 0 1.4-1.55v-3.3h1.25zM555.53 372.38h1.19v.79a1.9 1.9 0 0 1 1.75-1 1.61 1.61 0 0 1 1.59 1 2 2 0 0 1 1.78-1 1.67 1.67 0 0 1 1.9 1.91v3.93h-1.25v-3.32c0-.9 0-1.53-1-1.53s-1.21.56-1.21 1.52v3.33H559v-3.65c0-.78-.24-1.2-1-1.2a1.32 1.32 0 0 0-1.25 1.39v3.46h-1.25v-5.68zM565.81 375.55a1.51 1.51 0 0 0 1.33 1.67h.2a1.32 1.32 0 0 0 1.39-1h1.19a2.49 2.49 0 0 1-2.57 1.94 2.7 2.7 0 0 1-2.78-3 2.75 2.75 0 1 1 5.44.32h-4.2zm2.93-.83a1.46 1.46 0 0 0-2.93 0h2.93zM570.67 372.38h1.18v1.1a1.84 1.84 0 0 1 1.66-1.25 2.87 2.87 0 0 1 .47 0v1.21a4.36 4.36 0 0 0-.54 0c-.86 0-1.54.69-1.54 2v2.71h-1.25zM578.4 370.85a1 1 0 0 0-.67 1h.67v1.49H577v-1.51a1.72 1.72 0 0 1 1.38-1.62v.64zm2.19 0a1 1 0 0 0-.67 1h.67v1.49h-1.37v-1.51a1.72 1.72 0 0 1 1.38-1.62v.64zM581.83 370.21h3.82c1.41 0 2.33.64 2.33 2a1.73 1.73 0 0 1-1.12 1.67 1.87 1.87 0 0 1 1.47 2c0 1.23-.86 2.19-2.89 2.19h-3.61v-7.81zm1.38 3.29h2.25a1 1 0 0 0 1.15-1.09 1 1 0 0 0-1.15-1.08h-2.25v2.17zm0 3.44h2.43a1.24 1.24 0 0 0 .22-2.46h-2.65v2.45zM588.86 375.22a2.87 2.87 0 1 1 2.87 3 2.75 2.75 0 0 1-2.87-3zm4.49 0a1.66 1.66 0 1 0-1.62 2 1.75 1.75 0 0 0 1.62-2zM595.4 370.21h1.25v2.9a2.07 2.07 0 0 1 1.69-.89c1.79 0 2.66 1.36 2.66 3s-.77 3-2.45 3a2 2 0 0 1-2-.94v.78h-1.15v-7.85zm2.8 3c-1.06 0-1.59.8-1.59 2s.58 2 1.59 2a1.79 1.79 0 0 0 1.57-2 1.76 1.76 0 0 0-1.56-2zM601.82 372.68a1 1 0 0 0 .67-1h-.67v-1.49h1.38v1.49a1.72 1.72 0 0 1-1.37 1.62v-.62zm2.19 0a1 1 0 0 0 .67-1H604v-1.49h1.39v1.49a1.72 1.72 0 0 1-1.39 1.62z"/><path class="gs22-16" d="M480.59 155.82l-.1 257.11c-1.59 10.29-8.77 18.24-17.54 18.24h-268c-8.77 0-15.94-8-15.94-17.66V39.93c0-9.71 7.17-17.66 15.94-17.66l269.73-.11c8.77 0 15.94 8 15.94 17.66z"/><path class="gs22-11" d="M260 408.42h9.26v1.94h-7v3.37h6.48v1.84h-6.44v3.76h7.1v1.94H260zM273.4 416.38l-3.2-4.45h2.48l2 2.86 2-2.86H279l-3.17 4.3 3.56 5h-2.47l-2.36-3.44-2.29 3.44h-2.41zM280.46 411.93h1.94v1.26a3.11 3.11 0 0 1 2.88-1.51c2.94 0 4.36 2.23 4.36 5 0 2.5-1.26 4.86-4 4.86a3.62 3.62 0 0 1-3.12-1.46v4.65h-2v-12.8zm4.54 1.37c-1.73 0-2.61 1.31-2.61 3.29s1 3.28 2.61 3.28c1.87 0 2.57-1.66 2.57-3.28s-.88-3.26-2.57-3.26zM291.22 411.93h1.93v1.8a3 3 0 0 1 2.72-2 5 5 0 0 1 .78 0v2a7.35 7.35 0 0 0-.88-.09c-1.4 0-2.52 1.13-2.52 3.19v4.43h-2zM298.66 417.15a2.48 2.48 0 0 0 2.19 2.74h.31a2.16 2.16 0 0 0 2.27-1.55h2a4.08 4.08 0 0 1-4.21 3.17c-2.92 0-4.56-2-4.56-4.9 0-2.65 1.73-4.92 4.5-4.92 2.94 0 4.74 2.65 4.39 5.44h-6.86zm4.79-1.35a2.4 2.4 0 1 0-4.79 0h4.79zM308.4 418.28a1.81 1.81 0 0 0 2.11 1.62c.77 0 2.13-.16 2.07-1.22s-1.55-1.21-3-1.55-3-.86-3-2.75 2.2-2.66 3.89-2.66c1.91 0 3.64.79 3.89 2.86h-2.14a1.62 1.62 0 0 0-1.89-1.24c-.59 0-1.69.14-1.69 1s1.51 1.15 3 1.5 3 .88 3 2.72c0 2.21-2.23 3-4.16 3-2.34 0-4.09-1-4.12-3.24zM317.59 418.28a1.81 1.81 0 0 0 2.11 1.62c.77 0 2.13-.16 2.07-1.22s-1.55-1.21-3-1.55-3-.86-3-2.75 2.2-2.66 3.89-2.66c1.91 0 3.64.79 3.89 2.86h-2.15a1.62 1.62 0 0 0-1.89-1.24c-.59 0-1.69.14-1.69 1s1.51 1.15 3 1.5 3 .88 3 2.72c0 2.21-2.23 3-4.16 3-2.34 0-4.09-1-4.12-3.24zM341.54 421.27h-1.44l-.34-1.51a4.63 4.63 0 0 1-3.87 1.82c-3.85 0-6.16-3.06-6.16-6.73s2.3-6.73 6.16-6.73c2.81 0 5.17 1.5 5.51 4.39h-2.2a3.07 3.07 0 0 0-3.31-2.56c-2.76 0-3.91 2.43-3.91 4.9s1.15 4.9 3.91 4.9a3.27 3.27 0 0 0 3.6-3.53h-3.42v-1.71h5.47v6.76zM351.31 419.2c0 .5.11.7.48.7a2.84 2.84 0 0 0 .51 0v1.42a5.15 5.15 0 0 1-1.3.23 1.37 1.37 0 0 1-1.58-1.13 4.78 4.78 0 0 1-3.22 1.13c-1.67 0-3.19-.9-3.19-2.72 0-2.32 1.85-2.7 3.58-2.9 1.48-.27 2.79-.11 2.79-1.31s-1.1-1.26-1.93-1.26c-1.15 0-2 .47-2 1.48h-2c.14-2.39 2.18-3.1 4.23-3.1 1.82 0 3.73.74 3.73 2.7zm-2-2.59a7.34 7.34 0 0 1-2.52.56c-.88.14-1.67.47-1.67 1.55 0 .92 1.17 1.19 1.89 1.19.9 0 2.3-.47 2.3-1.76v-1.54zM352.4 411.93h1.55v-2.79h2v2.79h1.86v1.53H356v5c0 .85.07 1.28 1 1.28a3.5 3.5 0 0 0 .87-.07v1.58c-.45 0-.88.11-1.33.11-2.14 0-2.54-.83-2.58-2.38v-5.49h-1.56v-1.56zM360.76 417.15a2.48 2.48 0 0 0 2.19 2.74h.31a2.16 2.16 0 0 0 2.27-1.55h1.94a4.07 4.07 0 0 1-4.21 3.17c-2.92 0-4.55-2-4.55-4.9 0-2.65 1.73-4.92 4.5-4.92 2.93 0 4.73 2.65 4.39 5.44h-6.84zm4.79-1.35a2.4 2.4 0 1 0-4.79 0h4.79zM368.14 411.93h2.18l1.82 7 1.75-7H376l1.68 7 1.89-7h2.09l-2.92 9.31h-2.11l-1.73-6.91-1.71 6.91H371zM390.6 419.2c0 .5.11.7.49.7a2.82 2.82 0 0 0 .5 0v1.42a5.13 5.13 0 0 1-1.3.23 1.37 1.37 0 0 1-1.58-1.13 4.78 4.78 0 0 1-3.22 1.13c-1.67 0-3.19-.9-3.19-2.72 0-2.32 1.86-2.7 3.58-2.9 1.48-.27 2.79-.11 2.79-1.31s-1.1-1.26-1.93-1.26c-1.15 0-2 .47-2 1.48h-2c.14-2.39 2.18-3.1 4.23-3.1 1.82 0 3.73.74 3.73 2.7v4.76zm-2-2.59a7.34 7.34 0 0 1-2.52.56c-.88.14-1.68.47-1.68 1.55 0 .92 1.17 1.19 1.89 1.19.9 0 2.3-.47 2.3-1.76v-1.54zM391.61 411.93h2.25l2.43 7 2.36-7h2.14l-3.62 9.81c-.67 1.67-1.15 3.19-3.29 3.19a9.23 9.23 0 0 1-1.42-.11v-1.69a6 6 0 0 0 1 .13c1 0 1.19-.5 1.44-1.3l.23-.72z"/><rect class="gs22-11" x="284.84" y="335.39" width="81.49" height="62.96" rx="3.14" ry="3.14"/><path class="gs22-10" d="M296.9 386.84h3.2c1.18 0 2 .54 2 1.63a1.45 1.45 0 0 1-.94 1.4 1.57 1.57 0 0 1 1.24 1.7c0 1-.72 1.84-2.43 1.84h-3zm1.1 2.76h1.88a.88.88 0 0 0 1-.91.82.82 0 0 0-1-.9H298v1.81zm0 2.89h2a1 1 0 1 0 .12-2H298v2zM302.8 391a2.41 2.41 0 1 1 2.41 2.52 2.31 2.31 0 0 1-2.41-2.52zm3.77 0a1.39 1.39 0 1 0-1.36 1.69 1.48 1.48 0 0 0 1.36-1.69zM308.3 386.84h1v2.44a1.74 1.74 0 0 1 1.42-.75 2.24 2.24 0 0 1 2.23 2.54c0 1.28-.65 2.49-2.06 2.49a1.71 1.71 0 0 1-1.65-.78v.66h-1v-6.6zm2.35 2.52c-.89 0-1.34.67-1.34 1.69a1.42 1.42 0 0 0 1.34 1.68 1.74 1.74 0 0 0 0-3.37z"/><path class="gs22-5" d="M312.4 374c0 5.58-3.17 10.1-7.07 10.1S299 379 299 373.44c0-2.48-.56-4.39 1.13-5.08s3.55-2.3 3.5-3c-.06-.94.72-.23 1.69-.23 3.98-.03 7.08 3.27 7.08 8.87z"/><path class="gs22-17" d="M311.65 377.41c.1-.52.78-.32 1.07-1.55.43-1.8-.44-2.07-1-1.71M299.4 377.41c.57 3.81 3.09 6.67 6.11 6.67s5.54-2.87 6.11-6.67M302.81 376.78h1.42M307.28 376.78h1.42M303.94 381.06a2.47 2.47 0 0 0 3.21 0"/><path class="gs22-17" d="M304.06 365.16a2.62 2.62 0 0 1-.43 1.39c-.63.9-1.54.79-2.61 1.43a4.91 4.91 0 0 0-2.17 3.17 5.11 5.11 0 0 0 1 3.85 7.19 7.19 0 0 1 1.27-3.5 9.89 9.89 0 0 0 7.38 3 13.16 13.16 0 0 1-.59-1.24c-.19-.46-.33-.85-.46-1.24q.77.65 1.63 1.3c.8.61 1.58 1.16 2.34 1.66a6.36 6.36 0 0 0 .83-4.33c-.63-2.98-3.95-5.4-8.19-5.49z"/><path class="gs22-12" d="M307.79 344.16a2 2 0 0 0-2.13-1.62c-1.81 0-2.58 1.49-2.58 3.08s.77 3.19 2.59 3.19a2.15 2.15 0 0 0 2.2-2.1v-.1h1a3.1 3.1 0 0 1-3.14 3.06h-.16c-2.37 0-3.52-1.75-3.52-4s1.26-4 3.6-4a2.91 2.91 0 0 1 3.14 2.47zM312.09 343.84a2.89 2.89 0 1 1-2.68 3.08v-.19a2.62 2.62 0 0 1 2.33-2.88h.36zm0 5a2.12 2.12 0 1 0-1.72-2.08 1.79 1.79 0 0 0 1.72 2zM315.57 343.93h.83v.88a1.92 1.92 0 0 1 1.79-1 1.71 1.71 0 0 1 1.9 2v3.63h-.91v-3.73a1 1 0 0 0-1.12-1.11 1.55 1.55 0 0 0-1.63 1.73v3.11h-.91zM321.78 347.74a1.22 1.22 0 0 0 1.48 1.07c.57 0 1.33-.13 1.33-.82s-.9-.82-1.8-1-1.8-.5-1.8-1.56a1.84 1.84 0 0 1 2.06-1.57c1.22 0 2.19.38 2.26 1.73h-.91a1.11 1.11 0 0 0-1.28-.93c-.6 0-1.17.15-1.17.7s1 .76 1.8 1 1.8.5 1.8 1.57c0 1.31-1.23 1.74-2.35 1.74s-2.28-.5-2.33-1.87zM330.86 349.48H330v-.87a1.92 1.92 0 0 1-1.79 1 1.71 1.71 0 0 1-1.9-2v-3.68h.91v3.73a1 1 0 0 0 1.12 1.11A1.55 1.55 0 0 0 330 347v-3.11h.91zM331.95 343.93h.85v.81a2 2 0 0 1 1.78-.94 1.46 1.46 0 0 1 1.51.94 2 2 0 0 1 1.73-.94 1.54 1.54 0 0 1 1.83 1.6v4h-.91v-3.62a1 1 0 0 0-1.07-1.23 1.34 1.34 0 0 0-1.44 1.41v3.43h-.83v-3.62a1 1 0 0 0-1-1.23 1.49 1.49 0 0 0-1.47 1.41v3.43H332zM345.48 347.73a2.22 2.22 0 0 1-2.36 1.88c-1.76 0-2.59-1.22-2.65-2.9a2.65 2.65 0 0 1 2.42-2.86h.17c2 0 2.55 1.82 2.5 3.16h-4.16a1.62 1.62 0 0 0 1.41 1.8h.31a1.33 1.33 0 0 0 1.43-1.08h.93zm-.87-1.54a1.59 1.59 0 0 0-3.17 0h3.17zM346.2 343.93h.8v1.16a2 2 0 0 1 2-1.29v1c-1.46 0-2 .83-2 2.23v2.45h-.91zM296.1 352.88h1.39l2.4 6.4 2.41-6.4h1.39v7.62h-1v-6.34l-2.38 6.34h-.86l-2.38-6.34v6.34h-1zM309.84 360.47a1.22 1.22 0 0 1-.65.15.73.73 0 0 1-.77-.85 2.45 2.45 0 0 1-1.94.85 1.56 1.56 0 0 1-1.82-1.55c0-1.1.93-1.51 1.87-1.7s1.86-.13 1.86-.81a1 1 0 0 0-1.23-.92 1.13 1.13 0 0 0-1.38 1h-.91c0-1.37 1.11-1.85 2.34-1.85 1 0 2.07.22 2.07 1.51v2.84c0 .43 0 .62.29.62a.77.77 0 0 0 .28 0v.76zm-1.44-2.83a4.66 4.66 0 0 1-1.64.37 1.06 1.06 0 0 0-1.11 1 .85.85 0 0 0 1.07.81 1.48 1.48 0 0 0 1.69-1.25v-.93zM310.4 354.93h.85v.88a1.92 1.92 0 0 1 1.79-1 1.71 1.71 0 0 1 1.9 2v3.63H314v-3.73a1 1 0 0 0-1.12-1.11 1.55 1.55 0 0 0-1.63 1.73v3.11h-.85v-5.51zM320.95 360.47a1.22 1.22 0 0 1-.65.15.73.73 0 0 1-.77-.85 2.45 2.45 0 0 1-1.94.85 1.56 1.56 0 0 1-1.82-1.55c0-1.1.93-1.51 1.87-1.7s1.86-.13 1.86-.81a1 1 0 0 0-1.23-.92 1.13 1.13 0 0 0-1.38 1H316c0-1.37 1.11-1.85 2.34-1.85 1 0 2.07.22 2.07 1.51v2.84c0 .43 0 .62.29.62a.77.77 0 0 0 .28 0v.76zm-1.47-2.83a4.66 4.66 0 0 1-1.64.37 1.06 1.06 0 0 0-1.11 1 .85.85 0 0 0 1.07.81 1.48 1.48 0 0 0 1.69-1.25v-.93zM326.28 360c0 1.79-.82 2.71-2.56 2.71-1 0-2.23-.42-2.28-1.62h.91c0 .66.83.9 1.43.9 1.18 0 1.65-.85 1.65-2.09v-.36a1.84 1.84 0 0 1-1.72 1 2.5 2.5 0 0 1-2.46-2.79c0-1.3.64-2.91 2.55-2.91a1.8 1.8 0 0 1 1.64.92v-.85h.85V360zm-.9-2.4c0-1-.43-2-1.57-2a1.75 1.75 0 0 0-1.63 2c0 1 .36 2.1 1.56 2.1s1.66-1.06 1.66-2.1zM332.08 358.74a2.22 2.22 0 0 1-2.36 1.88c-1.76 0-2.59-1.22-2.65-2.9a2.65 2.65 0 0 1 2.42-2.86h.17c2 0 2.55 1.82 2.5 3.16H328a1.62 1.62 0 0 0 1.41 1.8h.31a1.33 1.33 0 0 0 1.43-1.08h.9zm-.87-1.54a1.59 1.59 0 0 0-3.17 0h3.17zM332.84 354.93h.85v.81a2 2 0 0 1 1.78-.94 1.46 1.46 0 0 1 1.51.94 2 2 0 0 1 1.73-.94 1.54 1.54 0 0 1 1.83 1.6v4h-.91v-3.62a1 1 0 0 0-1.07-1.23 1.34 1.34 0 0 0-1.44 1.41v3.43h-.91v-3.62a1 1 0 0 0-1-1.23 1.49 1.49 0 0 0-1.47 1.41v3.43h-.91v-5.45zM346.4 358.74a2.22 2.22 0 0 1-2.36 1.88c-1.76 0-2.59-1.22-2.65-2.9a2.65 2.65 0 0 1 2.42-2.86h.19c2 0 2.55 1.82 2.5 3.16h-4.13a1.62 1.62 0 0 0 1.41 1.8h.31a1.33 1.33 0 0 0 1.43-1.08h.9zm-.87-1.54a1.59 1.59 0 0 0-3.17 0h3.17zM347.12 354.93h.88v.88a1.92 1.92 0 0 1 1.79-1 1.71 1.71 0 0 1 1.9 2v3.63h-.91v-3.73a1 1 0 0 0-1.12-1.11 1.55 1.55 0 0 0-1.63 1.73v3.11h-.91zM354 354.93h1.1v.8H354v3.42c0 .42.12.49.68.49h.42v.8h-.7c-.94 0-1.31-.19-1.31-1.21v-3.51h-.94v-.79h.94v-1.65h.91z"/><path class="gs22-18" d="M487.4 374.51h-168"/><path class="gs22-19" d="M0 0h679.23v432.67H0z"/></svg>