<svg id="gs-2-1" xmlns="http://www.w3.org/2000/svg" viewBox="0 0 679.23 432.67"><defs><style>.gs21-1,.gs21-15{fill:#74cfe8;}.gs21-1{opacity:0.15;}.gs21-1,.gs21-14,.gs21-3{isolation:isolate;}.gs21-2,.gs21-3{fill:#35a9c5;}.gs21-3{opacity:0.2;}.gs21-13,.gs21-16,.gs21-17,.gs21-18,.gs21-4,.gs21-6,.gs21-8{fill:none;stroke-linecap:round;}.gs21-4{stroke:#35a9c5;}.gs21-13,.gs21-17,.gs21-4,.gs21-6,.gs21-8{stroke-linejoin:round;}.gs21-13,.gs21-4{stroke-width:2px;}.gs21-14,.gs21-19,.gs21-5{fill:#fff;}.gs21-17,.gs21-6,.gs21-8{stroke:#136d7c;}.gs21-6{stroke-width:1.5px;}.gs21-7{opacity:0.4;}.gs21-8{stroke-width:2.5px;}.gs21-9{opacity:0.63;}.gs21-10{fill:#136d7c;}.gs21-11{fill:#ffc60a;}.gs21-12{fill:#37403f;}.gs21-13,.gs21-16{stroke:#ffc60a;}.gs21-14{opacity:0.8;}.gs21-16,.gs21-18{stroke-miterlimit:10;}.gs21-16{stroke-width:3px;}.gs21-18{stroke:#37403f;}.gs21-19{opacity:0;}</style></defs><title>sized</title><rect class="gs21-1" x="425.6" y="69.28" width="187.41" height="250.88" rx="15" ry="15"/><path class="gs21-2" d="M535.51,195.05h2.39l5,12.86h-2.45l-1.21-3.4h-5.13l-1.21,3.4h-2.32Zm-0.79,7.74h3.92l-1.93-5.53h0Z"/><path class="gs21-2" d="M543.63,195.05h5.67c3.67,0,4.38,2.38,4.38,4s-0.7,4-4.37,3.94h-3.42v4.94h-2.25V195.05Zm2.25,6.08h3.29a2,2,0,0,0,2.25-2.12,1.9,1.9,0,0,0-2.21-2.12h-3.33v4.24Z"/><path class="gs21-2" d="M555.18,195.05h2.27v12.88H555.2Z"/><path class="gs21-2" d="M510.2,215.05h9.25V217h-7v3.37h6.48v1.84h-6.48v3.73h7.13v2H510.2V215.05Z"/><path class="gs21-2" d="M520.8,218.6h2v1.33h0a3.33,3.33,0,0,1,2.9-1.66,3,3,0,0,1,3.29,3.17v6.49h-2v-5.85c0-1.46-.61-2.09-1.82-2.09a2.27,2.27,0,0,0-2.26,2.28q0,0.08,0,.17v5.49h-2Z"/><path class="gs21-2" d="M539.45,227.93h-1.94v-1.26h0a3.09,3.09,0,0,1-2.88,1.51c-2.93,0-4.36-2.18-4.36-5,0-3.37,2-4.84,4-4.84a3.59,3.59,0,0,1,3.1,1.46h0v-4.75h2.08v12.88Zm-4.59-1.37c1.84,0,2.61-1.67,2.61-3.29,0-2.05-1-3.28-2.57-3.28-1.93,0-2.61,1.71-2.61,3.38s0.79,3.17,2.57,3.17v0Z"/><path class="gs21-2" d="M541.29,218.6h1.94v1.26h0a3.11,3.11,0,0,1,2.88-1.51c2.93,0,4.36,2.23,4.36,5,0,2.5-1.26,4.86-4,4.86a3.62,3.62,0,0,1-3.12-1.46h0v4.65h-2V218.6Zm4.59,1.37c-1.73,0-2.61,1.31-2.61,3.29s1,3.28,2.61,3.28c1.87,0,2.58-1.66,2.58-3.28s-0.89-3.33-2.58-3.33v0Z"/><path class="gs21-2" d="M551.35,223.24c0-2.84,1.71-4.9,4.7-4.9s4.7,2.05,4.7,4.9-1.71,4.92-4.7,4.92S551.35,226.1,551.35,223.24Zm7.35,0c0-1.6-.81-3.28-2.65-3.28s-2.65,1.67-2.65,3.28,0.81,3.29,2.65,3.29S558.7,224.86,558.7,223.24Z"/><path class="gs21-2" d="M562.06,215.05h2V217h-2v-1.94Zm0,3.55h2v9.33h-2V218.6Z"/><path class="gs21-2" d="M565.89,218.6h2v1.33h0a3.33,3.33,0,0,1,2.9-1.66,3,3,0,0,1,3.29,3.17v6.49h-2v-5.85c0-1.46-.61-2.09-1.82-2.09a2.27,2.27,0,0,0-2.26,2.28q0,0.08,0,.17v5.49h-2Z"/><path class="gs21-2" d="M574.84,218.6h1.55v-2.79h2.06v2.79h1.85v1.53h-1.85v5c0,0.85.07,1.28,1,1.28a3.49,3.49,0,0,0,.86-0.07v1.59c-0.45,0-.88.11-1.33,0.11-2.14,0-2.54-.83-2.58-2.38v-5.53h-1.55V218.6Z"/><path class="gs21-2" d="M518.8,251.34a15,15,0,0,1-2.59-8.3,15.35,15.35,0,0,1,2.59-8.3h1.65a16.65,16.65,0,0,0-2.21,8.3,15.89,15.89,0,0,0,2.21,8.3H518.8Z"/><path class="gs21-2" d="M521.24,235.05h5.67c3.67,0,4.38,2.38,4.38,4s-0.7,4-4.37,3.94h-3.47v4.94H521.2Zm2.21,6.08h3.29A2,2,0,0,0,529,239a1.9,1.9,0,0,0-2.21-2.12h-3.33v4.24Z"/><path class="gs21-2" d="M540.69,247.93h-2v-1.3h0a3.13,3.13,0,0,1-2.65,1.55c-2.43,0-3.48-1.22-3.48-3.66v-5.91h2v5.71c0,1.64.67,2.23,1.78,2.23,1.71,0,2.29-1.1,2.29-2.54v-5.4h2Z"/><path class="gs21-2" d="M542.45,235.05h2v4.75h0a3.39,3.39,0,0,1,2.77-1.46c2.93,0,4.36,2.23,4.36,5,0,2.5-1.26,4.86-4,4.86a3.32,3.32,0,0,1-3.13-1.57h0v1.3h-2V235.05ZM547,240c-1.73,0-2.61,1.31-2.61,3.29s1,3.28,2.61,3.28c1.87,0,2.58-1.66,2.58-3.28s-0.89-3.33-2.58-3.33v0Z"/><path class="gs21-2" d="M553,235.05h2v12.88h-2V235.05Z"/><path class="gs21-2" d="M556.88,235.05h2V237h-2v-1.94Zm0,3.55h2v9.33h-2V238.6Z"/><path class="gs21-2" d="M567,241.71a2,2,0,0,0-2.12-1.75c-1.06,0-2.56.56-2.56,3.38,0,1.55.68,3.19,2.47,3.19a2.21,2.21,0,0,0,2.21-2.12h2a4,4,0,0,1-4.23,3.75h0c-2.92,0-4.52-2.07-4.52-4.81s1.53-5,4.59-5c2.16,0,4,1.08,4.2,3.37h-2Z"/><path class="gs21-2" d="M570.72,234.74a15.05,15.05,0,0,1,2.59,8.32,15.24,15.24,0,0,1-2.59,8.28h-1.67a16.55,16.55,0,0,0,2.21-8.28,16,16,0,0,0-2.21-8.32h1.67Z"/><rect class="gs21-3" x="552.51" y="137.32" width="33.16" height="19.58" rx="4.53" ry="4.53"/><rect class="gs21-4" x="547.59" y="132.99" width="38.08" height="24.18" rx="1.81" ry="1.81"/><path class="gs21-2" d="M554,149.6a0.62,0.62,0,0,1-.35-0.61,3.22,3.22,0,0,0,0-.43v-0.91h0v-0.29a0.33,0.33,0,0,1,0-.18v-1.66a17.74,17.74,0,0,1,0-1.8,1.48,1.48,0,0,1,0-.38,3.17,3.17,0,0,1,0-.4v-0.32a0.86,0.86,0,0,1,0-.35,1.49,1.49,0,0,1,.1-0.29,0.84,0.84,0,0,1,1-.3,0.68,0.68,0,0,1,.32.72v1.13a5.39,5.39,0,0,1,0,.72,1.31,1.31,0,0,0,0,.32v0.08a1.78,1.78,0,0,1,0,.42v0.46a1.32,1.32,0,0,0,0,.25v0.11c0.08,0.48.38,1.07,0.67,0.75a0.16,0.16,0,0,1,.1-0.13l0.41-.48,0.16-.16h0a4.52,4.52,0,0,1,.3-0.35l0.11-.11a1,1,0,0,1,1.28.11h0a2.07,2.07,0,0,0,.46.45c0.24,0.22.14,0.16,0.17,0.21a1.92,1.92,0,0,0,.27.33c0.42,0.33.85-.33,0.89-0.8v-2.85a1.7,1.7,0,0,1,0-.75,0.87,0.87,0,0,1,1.07-.45,0.66,0.66,0,0,1,.33.53v2.56a2.74,2.74,0,0,1,0,1v0.3a0.73,0.73,0,0,0,0,.18v1.36a0.92,0.92,0,0,1,0,.35v1a1,1,0,0,1-.22.66,0.88,0.88,0,0,1-1.23-.19l-0.06-.1a3.08,3.08,0,0,1-.32-0.48l-0.08-.14a3.57,3.57,0,0,0-.54-0.48,1.94,1.94,0,0,0-1.34-.62,1.7,1.7,0,0,0-1.29.67,4.31,4.31,0,0,1-.46.46,3.52,3.52,0,0,0-.61.64h0a0.9,0.9,0,0,1-1.18.37Z"/><path class="gs21-2" d="M563.65,149.6a0.62,0.62,0,0,1-.35-0.61,3.22,3.22,0,0,0,0-.43v-0.91h0v-0.29a0.33,0.33,0,0,1,0-.18v-1.66a17.74,17.74,0,0,1,0-1.8,1.48,1.48,0,0,1,0-.38,3.17,3.17,0,0,1,0-.4v-0.32a0.86,0.86,0,0,1,0-.35,1.49,1.49,0,0,1,.1-0.29,0.84,0.84,0,0,1,1-.3,0.68,0.68,0,0,1,.32.72v1.13a5.39,5.39,0,0,1,0,.72,1.31,1.31,0,0,0,0,.32v0.08a1.78,1.78,0,0,1,0,.42v0.46a1.32,1.32,0,0,0,0,.25v0.11c0.08,0.48.38,1.07,0.67,0.75a0.17,0.17,0,0,1,.1-0.13l0.42-.48,0.16-.16h0a4.52,4.52,0,0,1,.3-0.35l0.11-.11a1,1,0,0,1,1.28.11h0a2.07,2.07,0,0,0,.46.45c0.24,0.22.14,0.16,0.17,0.21a1.92,1.92,0,0,0,.27.33c0.42,0.33.85-.33,0.89-0.8v-2.85a1.7,1.7,0,0,1,0-.75,0.87,0.87,0,0,1,1.07-.45,0.66,0.66,0,0,1,.33.53v2.56a2.74,2.74,0,0,1,0,1v0.3a0.73,0.73,0,0,0,0,.18v1.36a0.92,0.92,0,0,1,0,.35v1a1,1,0,0,1-.22.66,0.88,0.88,0,0,1-1.23-.19l-0.06-.1a3.08,3.08,0,0,1-.32-0.48l-0.08-.14a3.57,3.57,0,0,0-.54-0.48,1.94,1.94,0,0,0-1.34-.62,1.7,1.7,0,0,0-1.29.67,4.31,4.31,0,0,1-.46.46,3.52,3.52,0,0,0-.61.64h0a0.9,0.9,0,0,1-1.18.37Z"/><path class="gs21-2" d="M573.31,149.6A0.62,0.62,0,0,1,573,149a3.22,3.22,0,0,0,0-.43v-0.91h0v-0.29a0.33,0.33,0,0,1,0-.18v-1.66a17.74,17.74,0,0,1,0-1.8,1.48,1.48,0,0,1,0-.38,3.17,3.17,0,0,1,0-.4v-0.32a0.86,0.86,0,0,1,0-.35,1.49,1.49,0,0,1,.1-0.29,0.84,0.84,0,0,1,1-.3,0.68,0.68,0,0,1,.32.72v1.13a5.39,5.39,0,0,1,0,.72,1.31,1.31,0,0,0,0,.32v0.08a1.78,1.78,0,0,1,0,.42v0.46a1.32,1.32,0,0,0,0,.25v0.11c0.08,0.48.38,1.07,0.67,0.75a0.16,0.16,0,0,1,.1-0.13l0.41-.48,0.16-.16h0a4.52,4.52,0,0,1,.3-0.35l0.11-.11a1,1,0,0,1,1.28.11h0a2.07,2.07,0,0,0,.46.45c0.24,0.22.14,0.16,0.17,0.21a1.92,1.92,0,0,0,.27.33c0.42,0.33.85-.33,0.89-0.8v-2.85a1.7,1.7,0,0,1,0-.75,0.87,0.87,0,0,1,1.07-.45,0.66,0.66,0,0,1,.33.53v2.56a2.74,2.74,0,0,1,0,1v0.3a0.73,0.73,0,0,0,0,.18v1.36a0.92,0.92,0,0,1,0,.35v1a1,1,0,0,1-.22.66,0.88,0.88,0,0,1-1.23-.19l-0.06-.1a3.08,3.08,0,0,1-.32-0.48l-0.08-.14a3.57,3.57,0,0,0-.54-0.48,1.94,1.94,0,0,0-1.34-.62,1.7,1.7,0,0,0-1.29.67,4.31,4.31,0,0,1-.46.46,3.52,3.52,0,0,0-.61.64h0a0.9,0.9,0,0,1-1.18.37Z"/><rect class="gs21-3" x="507.07" y="131.03" width="33.16" height="19.58" rx="4.53" ry="4.53"/><rect class="gs21-4" x="502.15" y="126.69" width="38.08" height="24.18" rx="1.81" ry="1.81"/><path class="gs21-2" d="M508.56,143.3a0.62,0.62,0,0,1-.35-0.61,3.22,3.22,0,0,0,0-.43v-0.91h0v-0.29a0.33,0.33,0,0,1,0-.18v-1.66a17.74,17.74,0,0,1,0-1.8,1.48,1.48,0,0,1,0-.38,3.17,3.17,0,0,1,0-.4v-0.32a0.86,0.86,0,0,1,0-.35,1.5,1.5,0,0,1,.1-0.29,0.84,0.84,0,0,1,1-.3,0.68,0.68,0,0,1,.32.72v1.13a5.39,5.39,0,0,1,0,.72,1.31,1.31,0,0,0,0,.32v0.08a1.78,1.78,0,0,1,0,.42v0.46a1.32,1.32,0,0,0,0,.25v0.11c0.08,0.48.38,1.07,0.67,0.75a0.17,0.17,0,0,1,.1-0.13l0.42-.48,0.16-.16h0a4.52,4.52,0,0,1,.3-0.35l0.11-.11a1,1,0,0,1,1.28.11h0a2.07,2.07,0,0,0,.46.45c0.24,0.22.14,0.16,0.17,0.21a1.92,1.92,0,0,0,.27.33c0.42,0.33.85-.33,0.89-0.8v-2.85a1.7,1.7,0,0,1,0-.75,0.87,0.87,0,0,1,1.07-.45,0.66,0.66,0,0,1,.33.53v2.56a2.74,2.74,0,0,1,0,1v0.3a0.73,0.73,0,0,0,0,.18v1.36a0.93,0.93,0,0,1,0,.35v1a1,1,0,0,1-.22.66,0.88,0.88,0,0,1-1.23-.19l-0.06-.1a3.08,3.08,0,0,1-.32-0.48l-0.08-.14a3.57,3.57,0,0,0-.54-0.48,1.94,1.94,0,0,0-1.34-.62,1.7,1.7,0,0,0-1.29.67,4.31,4.31,0,0,1-.46.46,3.52,3.52,0,0,0-.61.64h0a0.9,0.9,0,0,1-1.18.37Z"/><path class="gs21-2" d="M518.21,143.3a0.62,0.62,0,0,1-.35-0.61,3.22,3.22,0,0,0,0-.43v-0.91h0v-0.29a0.33,0.33,0,0,1,0-.18v-1.66a17.74,17.74,0,0,1,0-1.8,1.48,1.48,0,0,1,0-.38,3.17,3.17,0,0,1,0-.4v-0.32a0.86,0.86,0,0,1,0-.35,1.5,1.5,0,0,1,.1-0.29,0.84,0.84,0,0,1,1-.3,0.68,0.68,0,0,1,.32.72v1.13a5.39,5.39,0,0,1,0,.72,1.31,1.31,0,0,0,0,.32v0.08a1.78,1.78,0,0,1,0,.42v0.46a1.32,1.32,0,0,0,0,.25v0.11c0.08,0.48.38,1.07,0.67,0.75a0.16,0.16,0,0,1,.1-0.13l0.41-.48,0.16-.16h0a4.52,4.52,0,0,1,.3-0.35l0.11-.11a1,1,0,0,1,1.28.11h0a2.07,2.07,0,0,0,.46.45c0.24,0.22.14,0.16,0.17,0.21a1.92,1.92,0,0,0,.27.33c0.42,0.33.85-.33,0.89-0.8v-2.85a1.7,1.7,0,0,1,0-.75,0.87,0.87,0,0,1,1.07-.45,0.66,0.66,0,0,1,.33.53v2.56a2.74,2.74,0,0,1,0,1v0.3a0.73,0.73,0,0,0,0,.18v1.36a0.93,0.93,0,0,1,0,.35v1a1,1,0,0,1-.22.66,0.88,0.88,0,0,1-1.23-.19L524,143a3.08,3.08,0,0,1-.32-0.48l-0.08-.14a3.57,3.57,0,0,0-.54-0.48,1.94,1.94,0,0,0-1.34-.62,1.7,1.7,0,0,0-1.29.67,4.31,4.31,0,0,1-.46.46,3.52,3.52,0,0,0-.61.64h0a0.9,0.9,0,0,1-1.18.37Z"/><path class="gs21-2" d="M527.86,143.3a0.62,0.62,0,0,1-.35-0.61,3.22,3.22,0,0,0,0-.43v-0.91h0v-0.29a0.33,0.33,0,0,1,0-.18v-1.66a17.74,17.74,0,0,1,0-1.8,1.48,1.48,0,0,1,0-.38,3.17,3.17,0,0,1,0-.4v-0.32a0.86,0.86,0,0,1,0-.35,1.5,1.5,0,0,1,.1-0.29,0.84,0.84,0,0,1,1-.3,0.68,0.68,0,0,1,.32.72v1.13a5.39,5.39,0,0,1,0,.72,1.31,1.31,0,0,0,0,.32v0.08a1.78,1.78,0,0,1,0,.42v0.46a1.32,1.32,0,0,0,0,.25v0.11c0.08,0.48.38,1.07,0.67,0.75a0.17,0.17,0,0,1,.1-0.13l0.42-.48,0.16-.16h0a4.52,4.52,0,0,1,.3-0.35l0.11-.11a1,1,0,0,1,1.28.11h0a2.07,2.07,0,0,0,.46.45c0.24,0.22.14,0.16,0.17,0.21a1.92,1.92,0,0,0,.27.33c0.42,0.33.85-.33,0.89-0.8v-2.85a1.7,1.7,0,0,1,0-.75,0.87,0.87,0,0,1,1.07-.45,0.66,0.66,0,0,1,.33.53v2.56a2.74,2.74,0,0,1,0,1v0.3a0.73,0.73,0,0,0,0,.18v1.36a0.93,0.93,0,0,1,0,.35v1a1,1,0,0,1-.22.66,0.88,0.88,0,0,1-1.23-.19l-0.06-.1a3.08,3.08,0,0,1-.32-0.48l-0.08-.14a3.57,3.57,0,0,0-.54-0.48,1.94,1.94,0,0,0-1.34-.62,1.7,1.7,0,0,0-1.29.67,4.31,4.31,0,0,1-.46.46,3.52,3.52,0,0,0-.61.64h0a0.9,0.9,0,0,1-1.18.37Z"/><rect class="gs21-5" x="518" y="144.67" width="51.08" height="35.76" rx="8.05" ry="8.05"/><rect class="gs21-1" x="518" y="144.67" width="51.08" height="35.76" rx="8.05" ry="8.05"/><rect class="gs21-3" x="528.83" y="154.71" width="33.16" height="19.58" rx="4.53" ry="4.53"/><rect class="gs21-4" x="523.91" y="150.37" width="38.08" height="24.18" rx="1.81" ry="1.81"/><path class="gs21-2" d="M530.32,167a0.62,0.62,0,0,1-.35-0.61,3.22,3.22,0,0,0,0-.43V165h0v-0.29a0.33,0.33,0,0,1,0-.18V162.9a17.74,17.74,0,0,1,0-1.8,1.48,1.48,0,0,1,0-.38,3.17,3.17,0,0,1,0-.4V160a0.86,0.86,0,0,1,0-.35,1.5,1.5,0,0,1,.1-0.29,0.84,0.84,0,0,1,1-.3,0.68,0.68,0,0,1,.32.72v1.13a5.39,5.39,0,0,1,0,.72,1.31,1.31,0,0,0,0,.32V162a1.78,1.78,0,0,1,0,.42v0.46a1.32,1.32,0,0,0,0,.25v0.11c0.08,0.48.38,1.07,0.67,0.75a0.17,0.17,0,0,1,.1-0.13l0.42-.48,0.16-.16h0a4.52,4.52,0,0,1,.3-0.35l0.11-.11a1,1,0,0,1,1.3.14h0a2.07,2.07,0,0,0,.46.45c0.24,0.22.14,0.16,0.17,0.21a1.92,1.92,0,0,0,.27.33c0.42,0.33.85-.33,0.89-0.8v-2.85a1.7,1.7,0,0,1,0-.75,0.87,0.87,0,0,1,1.07-.45,0.66,0.66,0,0,1,.33.53v2.56a2.74,2.74,0,0,1,0,1v0.3a0.73,0.73,0,0,0,0,.18v1.28a0.93,0.93,0,0,1,0,.35v1a1,1,0,0,1-.22.66,0.88,0.88,0,0,1-1.23-.19l-0.06-.1a3.08,3.08,0,0,1-.32-0.48l-0.08-.14a3.57,3.57,0,0,0-.54-0.48,1.94,1.94,0,0,0-1.34-.62,1.7,1.7,0,0,0-1.29.67,4.31,4.31,0,0,1-.46.46,3.52,3.52,0,0,0-.61.64h0a0.9,0.9,0,0,1-1.18.37V167Z"/><path class="gs21-2" d="M540,167a0.62,0.62,0,0,1-.35-0.61,3.22,3.22,0,0,0,0-.43V165h0v-0.29a0.33,0.33,0,0,1,0-.18V162.9a17.74,17.74,0,0,1,0-1.8,1.48,1.48,0,0,1,0-.38,3.17,3.17,0,0,1,0-.4V160a0.86,0.86,0,0,1,0-.35,1.5,1.5,0,0,1,.1-0.29,0.84,0.84,0,0,1,1-.3,0.68,0.68,0,0,1,.32.72v1.13a5.39,5.39,0,0,1,0,.72,1.31,1.31,0,0,0,0,.32V162a1.78,1.78,0,0,1,0,.42v0.46a1.32,1.32,0,0,0,0,.25v0.11c0.08,0.48.38,1.07,0.67,0.75a0.16,0.16,0,0,1,.1-0.13l0.41-.48,0.16-.16h0a4.52,4.52,0,0,1,.3-0.35l0.11-.11a1,1,0,0,1,1.28.11h0a2.07,2.07,0,0,0,.46.45c0.24,0.22.14,0.16,0.17,0.21a1.92,1.92,0,0,0,.27.33c0.42,0.33.85-.33,0.89-0.8v-2.85a1.7,1.7,0,0,1,0-.75,0.87,0.87,0,0,1,1.07-.45,0.66,0.66,0,0,1,.33.53v2.56a2.74,2.74,0,0,1,0,1v0.3a0.73,0.73,0,0,0,0,.18v1.31a0.93,0.93,0,0,1,0,.35v1a1,1,0,0,1-.22.66,0.88,0.88,0,0,1-1.23-.19l-0.06-.1a3.08,3.08,0,0,1-.32-0.48l-0.08-.14a3.57,3.57,0,0,0-.54-0.48,1.94,1.94,0,0,0-1.34-.62,1.7,1.7,0,0,0-1.29.67,4.31,4.31,0,0,1-.46.46,3.52,3.52,0,0,0-.61.64h0a0.9,0.9,0,0,1-1.18.37Z"/><path class="gs21-2" d="M549.62,167a0.62,0.62,0,0,1-.35-0.61,3.22,3.22,0,0,0,0-.43V165h0v-0.29a0.33,0.33,0,0,1,0-.18V162.9a17.74,17.74,0,0,1,0-1.8,1.48,1.48,0,0,1,0-.38,3.17,3.17,0,0,1,0-.4V160a0.86,0.86,0,0,1,0-.35,1.5,1.5,0,0,1,.1-0.29,0.84,0.84,0,0,1,1-.3,0.68,0.68,0,0,1,.32.72v1.13a5.39,5.39,0,0,1,0,.72,1.31,1.31,0,0,0,0,.32V162a1.78,1.78,0,0,1,0,.42v0.46a1.32,1.32,0,0,0,0,.25v0.11c0.08,0.48.38,1.07,0.67,0.75a0.17,0.17,0,0,1,.1-0.13l0.42-.48,0.16-.16h0a4.52,4.52,0,0,1,.3-0.35l0.11-.11a1,1,0,0,1,1.28.11h0a2.07,2.07,0,0,0,.46.45c0.24,0.22.14,0.16,0.17,0.21a1.92,1.92,0,0,0,.27.33c0.42,0.33.85-.33,0.89-0.8v-2.85a1.7,1.7,0,0,1,0-.75,0.87,0.87,0,0,1,1.07-.45,0.66,0.66,0,0,1,.33.53v2.56a2.74,2.74,0,0,1,0,1v0.3a0.73,0.73,0,0,0,0,.18v1.31a0.93,0.93,0,0,1,0,.35v1a1,1,0,0,1-.22.66,0.88,0.88,0,0,1-1.23-.19l-0.06-.1a3.08,3.08,0,0,1-.32-0.48L555,166a3.57,3.57,0,0,0-.54-0.48,1.94,1.94,0,0,0-1.34-.62,1.7,1.7,0,0,0-1.29.67,4.31,4.31,0,0,1-.46.46,3.52,3.52,0,0,0-.61.64h0a0.9,0.9,0,0,1-1.18.37Z"/><rect class="gs21-1" x="34.55" y="69.64" width="172.12" height="250.17" rx="15" ry="15"/><path class="gs21-2" d="M70.66,196.74c0,2,1.46,2.75,3.26,2.75,2,0,2.72-1,2.72-1.94a1.53,1.53,0,0,0-1.07-1.62c-0.9-.34-2.07-0.58-3.83-1.06-2.2-.59-2.84-1.93-2.84-3.26,0-2.57,2.38-3.78,4.7-3.78,2.68,0,4.93,1.42,4.93,4.11H76.27c-0.11-1.66-1.22-2.27-2.77-2.27-1,0-2.36.38-2.36,1.67A1.74,1.74,0,0,0,72.67,193c0.2,0.05,3,.79,3.71,1a3.4,3.4,0,0,1,2.5,3.28c0,2.88-2.56,4-5.11,4-2.93,0-5.31-1.4-5.37-4.59Z"/><path class="gs21-2" d="M81.71,196.93a2.48,2.48,0,0,0,2.19,2.74h0.31a2.16,2.16,0,0,0,2.24-1.58h2a4.08,4.08,0,0,1-4.21,3.17c-2.92,0-4.55-2-4.55-4.9,0-2.65,1.73-4.92,4.5-4.92,2.93,0,4.74,2.65,4.39,5.44Zm4.74-1.38a2.4,2.4,0,1,0-4.79,0h4.79Z"/><path class="gs21-2" d="M89.66,191.71h1.93v1.8h0a3,3,0,0,1,2.72-2.05,5,5,0,0,1,.77.05v2a7.31,7.31,0,0,0-.88-0.09c-1.41,0-2.52,1.13-2.52,3.19V201h-2v-9.33Z"/><path class="gs21-2" d="M94.63,191.71h2.23l2.36,7.15h0l2.27-7.15h2.13L100.29,201H98Z"/><path class="gs21-2" d="M104.45,188.17h2.05v1.94h-2.05v-1.94Zm0,3.55h2.05V201h-2.05v-9.31Z"/><path class="gs21-2" d="M114.61,194.83a2,2,0,0,0-2.12-1.75c-1.06,0-2.56.56-2.56,3.38,0,1.55.69,3.19,2.47,3.19a2.21,2.21,0,0,0,2.21-2.12h2.05a4,4,0,0,1-4.23,3.75h0c-2.92,0-4.52-2.07-4.52-4.81s1.53-5,4.59-5c2.16,0,4,1.08,4.2,3.37h-2.05Z"/><path class="gs21-2" d="M119.45,196.93a2.48,2.48,0,0,0,2.19,2.74H122a2.16,2.16,0,0,0,2.27-1.55h1.94A4.08,4.08,0,0,1,122,201.3c-2.92,0-4.55-2-4.55-4.9,0-2.65,1.73-4.92,4.5-4.92,2.93,0,4.74,2.65,4.39,5.44h-6.84Zm4.79-1.35a2.4,2.4,0,1,0-4.79,0h4.79Z"/><path class="gs21-2" d="M129,198a1.81,1.81,0,0,0,2.11,1.62c0.77,0,2.12-.16,2.07-1.22s-1.55-1.21-3-1.55-3-.86-3-2.75,2.2-2.66,3.89-2.66c1.91,0,3.64.79,3.89,2.86h-2.14a1.62,1.62,0,0,0-1.89-1.24c-0.59,0-1.69.14-1.69,1s1.51,1.15,3,1.5,3,0.88,3,2.72c0,2.21-2.23,3-4.16,3-2.34,0-4.09-1-4.12-3.24Z"/><path class="gs21-2" d="M67.2,208.17h9.25v1.94h-7v3.37h6.48v1.84H69.45v3.76h7.13V221H67.2V208.17Z"/><path class="gs21-2" d="M77.8,211.71h2v1.37h0a3.33,3.33,0,0,1,2.9-1.66,3,3,0,0,1,3.29,3.17V221h-2v-5.85c0-1.46-.61-2.09-1.82-2.09a2.27,2.27,0,0,0-2.26,2.28q0,0.08,0,.17V221H77.8v-9.27Z"/><path class="gs21-2" d="M96.45,221H94.51v-1.26h0a3.09,3.09,0,0,1-2.88,1.51c-2.93,0-4.36-2.18-4.36-5,0-3.37,2-4.84,4-4.84a3.59,3.59,0,0,1,3.1,1.46h0v-4.75h2.08V221Zm-4.59-1.37c1.84,0,2.61-1.67,2.61-3.29,0-2.05-1-3.28-2.57-3.28-1.93,0-2.61,1.71-2.61,3.38S90.08,219.65,91.86,219.65Z"/><path class="gs21-2" d="M98.29,211.71h1.94v1.22h0a3.11,3.11,0,0,1,2.88-1.51c2.93,0,4.36,2.23,4.36,5,0,2.5-1.26,4.86-4,4.86a3.62,3.62,0,0,1-3.12-1.46h0v4.65H98.3V211.71Zm4.59,1.37c-1.73,0-2.61,1.31-2.61,3.29s1,3.28,2.61,3.28c1.87,0,2.58-1.66,2.58-3.28S104.57,213.08,102.88,213.08Z"/><path class="gs21-2" d="M108.35,216.36c0-2.84,1.71-4.9,4.7-4.9s4.7,2.05,4.7,4.9-1.71,4.92-4.7,4.92S108.35,219.22,108.35,216.36Zm7.35,0c0-1.6-.81-3.28-2.65-3.28s-2.65,1.67-2.65,3.28,0.81,3.29,2.65,3.29,2.64-1.72,2.64-3.29h0Z"/><path class="gs21-2" d="M119.06,208.17h2.05v1.94h-2.05v-1.94Zm0,3.55h2.05V221h-2.05v-9.31Z"/><path class="gs21-2" d="M122.89,211.71h1.94v1.37h0a3.33,3.33,0,0,1,2.9-1.66,3,3,0,0,1,3.29,3.17V221H129v-5.85c0-1.46-.61-2.09-1.82-2.09a2.27,2.27,0,0,0-2.26,2.28q0,0.08,0,.17V221h-2.05Z"/><path class="gs21-2" d="M131.84,211.71h1.55v-2.78h2.06v2.79h1.85v1.53h-1.85v5c0,0.85.07,1.28,1,1.28a3.49,3.49,0,0,0,.86-0.07V221c-0.45,0-.88.11-1.33,0.11-2.14,0-2.54-.83-2.57-2.38v-5.49h-1.55Z"/><path class="gs21-2" d="M73,244.46a14.94,14.94,0,0,1-2.59-8.3,15.34,15.34,0,0,1,2.59-8.3h1.67a16.65,16.65,0,0,0-2.21,8.3,15.9,15.9,0,0,0,2.21,8.3H73Z"/><path class="gs21-2" d="M75.45,228.17h5.67c3.67,0,4.38,2.38,4.38,4s-0.7,4-4.38,3.94H77.71V241H75.45V228.17Zm2.25,6.09H81a2,2,0,0,0,2.25-2.12A1.9,1.9,0,0,0,81,230H77.71v4.24Z"/><path class="gs21-2" d="M86.73,231.71h1.93v1.8h0a3,3,0,0,1,2.79-2.05,4.94,4.94,0,0,1,.77.05v2a7.27,7.27,0,0,0-.88-0.09c-1.4,0-2.52,1.13-2.52,3.19V241H86.73v-9.33Z"/><path class="gs21-2" d="M92.67,228.17h2.05v1.94H92.67v-1.94Zm0,3.55h2.05V241H92.67v-9.31Z"/><path class="gs21-2" d="M95.58,231.71h2.23l2.36,7.15h0l2.27-7.15h2.12L101.23,241h-2.3Z"/><path class="gs21-2" d="M113.19,238.93c0,0.5.11,0.7,0.49,0.7a2.83,2.83,0,0,0,.5,0v1.42a5.13,5.13,0,0,1-1.3.23,1.37,1.37,0,0,1-1.58-1.13,4.78,4.78,0,0,1-3.22,1.13c-1.67,0-3.19-.9-3.19-2.72,0-2.32,1.85-2.7,3.58-2.9,1.48-.27,2.79-0.11,2.79-1.31s-1.1-1.26-1.93-1.26c-1.15,0-2,.47-2.05,1.48h-2.05c0.14-2.39,2.18-3.1,4.23-3.1,1.82,0,3.73.74,3.73,2.7v4.76Zm-2.05-2.59a7.33,7.33,0,0,1-2.52.56c-0.88.14-1.67,0.47-1.67,1.55,0,0.92,1.17,1.19,1.89,1.19,0.9,0,2.3-.47,2.3-1.76v-1.54Z"/><path class="gs21-2" d="M114,231.71h1.55v-2.78h2.05v2.79h1.83v1.53H117.6v5c0,0.85.07,1.28,1,1.28a3.49,3.49,0,0,0,.86-0.07V241c-0.45,0-.88.11-1.33,0.11-2.14,0-2.54-.83-2.58-2.38v-5.49H114Z"/><path class="gs21-2" d="M122.1,236.93a2.48,2.48,0,0,0,2.19,2.74h0.31a2.16,2.16,0,0,0,2.27-1.55h1.95a4.08,4.08,0,0,1-4.21,3.17c-2.92,0-4.56-2-4.56-4.9,0-2.65,1.73-4.92,4.5-4.92,2.93,0,4.74,2.65,4.39,5.44H122.1Zm4.79-1.35a2.4,2.4,0,1,0-4.79,0h4.79Z"/><path class="gs21-2" d="M130.5,227.86a15,15,0,0,1,2.59,8.32,15.24,15.24,0,0,1-2.59,8.28h-1.67a16.53,16.53,0,0,0,2.21-8.28,16,16,0,0,0-2.21-8.32h1.67Z"/><path class="gs21-2" d="M107.32,151.58H86.45a0.52,0.52,0,1,0,0,1h20.83a0.52,0.52,0,1,0,0-1h0Z"/><path class="gs21-2" d="M119.45,136.48h-8a5.17,5.17,0,0,0-.66-2.9c-1.2-2-3.84-3.1-7.85-3.12s-6.61,1-7.81,3a5.19,5.19,0,0,0-.67,3h-8a6,6,0,0,0-5.95,5.95v21.32a6,6,0,0,0,5.95,6h33a6,6,0,0,0,5.95-5.95V142.43A6,6,0,0,0,119.45,136.48Zm-22.18-1.76c0.71-1.19,2.66-1.81,5.66-1.79s5,0.68,5.72,1.89a2.82,2.82,0,0,1,.33,1.65H97a2.89,2.89,0,0,1,.3-1.75h0Zm17,26.37a7.76,7.76,0,0,1-7.26-5h-6.88L97,153.84l-3.62,2.52-2.82-1.61-3.43,1.11-3.29-3.05,1.1-2.72h22.31a7.77,7.77,0,1,1,7,11h0.05Z"/><circle class="gs21-2" cx="117.26" cy="153.32" r="1.79"/><path class="gs21-3" d="M112.45,163.82a7.76,7.76,0,0,1-7.26-5H98.35l-3.16-2.25-3.62,2.52-2.82-1.61-3.43,1.11L82,155.54l1.1-2.72h22.32A7.77,7.77,0,1,1,112.45,163.82Z"/><rect class="gs21-6" x="193.78" y="37.65" width="271.21" height="256.21" rx="3.14" ry="3.14"/><g class="gs21-7"><path class="gs21-8" d="M434.07,110.65H421c-1.1,0-2-1.59-2-3.53h0c0-1.94.9-3.53,2-3.53h26.67c1.1,0,2-1.59,2-3.53h0c0-1.94-.9-3.53-2-3.53H422.09"/><path class="gs21-8" d="M434.07,124.79H421c-1.1,0-2-1.59-2-3.53h0c0-1.94.9-3.53,2-3.53h26.67c1.1,0,2-1.59,2-3.53h0c0-1.94-.9-3.53-2-3.53H433.94"/><path class="gs21-8" d="M434.07,138.93H421c-1.1,0-2-1.59-2-3.53h0c0-1.94.9-3.53,2-3.53h26.67c1.1,0,2-1.59,2-3.53h0c0-1.94-.9-3.53-2-3.53H433.94"/><path class="gs21-8" d="M434.07,153.08H421c-1.1,0-2-1.59-2-3.53h0c0-1.94.9-3.53,2-3.53h26.67c1.1,0,2-1.59,2-3.53h0c0-1.94-.9-3.53-2-3.53H433.94"/><path class="gs21-8" d="M434.07,167.22H421c-1.1,0-2-1.59-2-3.53h0c0-1.94.9-3.53,2-3.53h26.67c1.1,0,2-1.59,2-3.53h0c0-1.94-.9-3.53-2-3.53H433.94"/><path class="gs21-8" d="M434.07,181.37H421c-1.1,0-2-1.59-2-3.53h0c0-1.94.9-3.53,2-3.53h26.67c1.1,0,2-1.59,2-3.53h0c0-1.94-.9-3.53-2-3.53H433.94"/><path class="gs21-8" d="M434.07,195.36H421c-1.1,0-2-1.59-2-3.53h0c0-1.94.9-3.53,2-3.53h26.67c1.1,0,2-1.59,2-3.53h0c0-1.94-.9-3.53-2-3.53H433.94"/><path class="gs21-8" d="M434.07,209.51H421c-1.1,0-2-1.59-2-3.53h0c0-1.94.9-3.53,2-3.53h26.67c1.1,0,2-1.59,2-3.53h0c0-1.94-.9-3.53-2-3.53H433.94"/><path class="gs21-8" d="M434.07,223.65H421c-1.1,0-2-1.59-2-3.53h0c0-1.94.9-3.53,2-3.53h26.67c1.1,0,2-1.59,2-3.53h0c0-1.94-.9-3.53-2-3.53H433.94"/><path class="gs21-8" d="M434.07,237.79H421c-1.1,0-2-1.59-2-3.53h0c0-1.94.9-3.53,2-3.53h26.67c1.1,0,2-1.59,2-3.53h0c0-1.94-.9-3.53-2-3.53H433.94"/><path class="gs21-8" d="M434.07,82.33H421c-1.1,0-2-1.59-2-3.53h0c0-1.94.9-3.53,2-3.53h26.67c1.1,0,2-1.59,2-3.53h0c0-1.94-.9-3.53-2-3.53H433.94"/><path class="gs21-8" d="M434.15,68.19H421.08c-1.1,0-2-1.59-2-3.53h0c0-1.94.9-3.53,2-3.53h26.67c1.1,0,2-1.59,2-3.53h0c0-1.94-.9-3.53-2-3.53H434"/><path class="gs21-8" d="M434.07,96.48H421c-1.1,0-2-1.59-2-3.53h0c0-1.94.9-3.53,2-3.53h26.67c1.1,0,2-1.59,2-3.53h0c0-1.94-.9-3.53-2-3.53H433.94"/><path class="gs21-8" d="M434.07,251.86H421c-1.1,0-2-1.59-2-3.53h0c0-1.94.9-3.53,2-3.53h26.67c1.1,0,2-1.59,2-3.53h0c0-1.94-.9-3.53-2-3.53H433.94"/><path class="gs21-8" d="M421,258.93h26.67c1.1,0,2-1.59,2-3.53h0c0-1.94-.9-3.53-2-3.53H433.94"/></g><rect class="gs21-5" x="415.07" y="254.02" width="38.91" height="14.5"/><g class="gs21-9"><path class="gs21-10" d="M418.54,260.43h3.75c1.72,0,2.6.79,2.6,2.12a1.91,1.91,0,0,1-1.3,2h0a1.44,1.44,0,0,1,1.17,1.66,3.57,3.57,0,0,0,.43,2.07h-1.47a2.2,2.2,0,0,1-.21-1.16c0-1.44-.3-2.08-1.56-2.08h-2v3.23h-1.37Zm1.38,3.58h2.26a1.16,1.16,0,0,0,1.34-1.26,1.13,1.13,0,0,0-1.36-1.2h-2.23V264Z"/><path class="gs21-10" d="M425.84,265.44a2.87,2.87,0,1,1,2.87,3A2.75,2.75,0,0,1,425.84,265.44Zm4.49,0a1.66,1.66,0,1,0-1.62,2A1.75,1.75,0,0,0,430.33,265.44Z"/><path class="gs21-10" d="M437.63,268.29H436.4V267.5h0a1.91,1.91,0,0,1-1.62,1c-1.49,0-2.12-.75-2.12-2.23v-3.61h1.25v3.49c0,1,.41,1.37,1.09,1.37a1.34,1.34,0,0,0,1.4-1.55v-3.3h1.25Z"/><path class="gs21-10" d="M438.37,262.6h1v-1.67h1.25v1.71h1.13v0.93h-1.13v3c0,0.52,0,.78.61,0.78a2.11,2.11,0,0,0,.53,0v1c-0.28,0-.54.07-0.81,0.07-1.31,0-1.55-.51-1.57-1.45v-3.44h-1V262.6Z"/><path class="gs21-10" d="M443.59,265.77a1.51,1.51,0,0,0,1.33,1.67h0.2a1.32,1.32,0,0,0,1.39-1h1.19a2.49,2.49,0,0,1-2.58,1.94,2.7,2.7,0,0,1-2.78-3,2.75,2.75,0,1,1,5.44.32h-4.19Zm2.93-.83a1.46,1.46,0,0,0-2.93,0h2.93Z"/><path class="gs21-10" d="M448.72,262.6h1.18v1.1h0a1.83,1.83,0,0,1,1.66-1.25,2.87,2.87,0,0,1,.47,0v1.21a4.55,4.55,0,0,0-.54,0c-0.86,0-1.54.69-1.54,2v2.71H448.7Z"/></g><rect class="gs21-11" x="193.86" y="335.39" width="81.49" height="32.75" rx="3.14" ry="3.14"/><rect class="gs21-11" x="375.91" y="335.39" width="81.49" height="32.75" rx="3.14" ry="3.14"/><path class="gs21-12" d="M210.34,341.86H213c2.35,0,3.66,1.17,3.66,3.63s-1.12,4-3.66,4h-2.61v-7.63Zm1,6.76H213c0.69,0,2.56-.19,2.56-3,0-1.81-.67-2.91-2.54-2.91h-1.7v5.91Z"/><path class="gs21-12" d="M218.38,342.93h-0.93v-1.11h0.91Zm-0.91,1h0.91v5.51h-0.93Z"/><path class="gs21-12" d="M220.08,347.74a1.22,1.22,0,0,0,1.48,1.07c0.57,0,1.33-.13,1.33-0.82s-0.9-.82-1.8-1-1.8-.5-1.8-1.56a1.84,1.84,0,0,1,2.06-1.57c1.22,0,2.19.38,2.26,1.73H222.7a1.11,1.11,0,0,0-1.28-.93c-0.6,0-1.17.15-1.17,0.7s1,0.76,1.8,1,1.8,0.5,1.8,1.57c0,1.31-1.23,1.74-2.35,1.74s-2.28-.5-2.33-1.87Z"/><path class="gs21-12" d="M225.85,343.93H227v0.8h-1.1v3.42c0,0.42.12,0.49,0.68,0.49H227v0.8h-0.69c-0.94,0-1.31-.19-1.31-1.21v-3.51H224v-0.79H225v-1.65h0.91v1.65Z"/><path class="gs21-12" d="M227.65,343.93h0.8v1.16h0a2,2,0,0,1,2-1.29v1c-1.46,0-2,.83-2,2.23v2.45h-0.91Z"/><path class="gs21-12" d="M231.92,342.93H231v-1.11h0.91v1.11Zm-0.91,1h0.91v5.51H231v-5.51Z"/><path class="gs21-12" d="M233.09,341.86H234v2.85h0a1.86,1.86,0,0,1,1.76-.87c1.7,0,2.54,1.34,2.54,2.9s-0.83,2.87-2.52,2.87a2.11,2.11,0,0,1-1.78-.86h0v0.74h-0.91v-7.63Zm2.56,2.77c-1.22,0-1.69,1-1.69,2.08s0.49,2.09,1.74,2.09,1.65-1.06,1.65-2.13a1.77,1.77,0,0,0-1.7-2h0Z"/><path class="gs21-12" d="M243.68,349.48h-0.85v-0.87h0a1.92,1.92,0,0,1-1.79,1,1.71,1.71,0,0,1-1.9-2v-3.68h0.91v3.73a1,1,0,0,0,1.12,1.11A1.55,1.55,0,0,0,242.8,347v-3.11h0.91Z"/><path class="gs21-12" d="M246,343.93h1.1v0.8H246v3.42c0,0.42.12,0.49,0.68,0.49h0.42v0.8h-0.69c-0.94,0-1.31-.19-1.31-1.21v-3.51H244.2v-0.79h0.94v-1.65h0.91v1.65Z"/><path class="gs21-12" d="M252.57,347.73a2.22,2.22,0,0,1-2.36,1.88c-1.76,0-2.59-1.22-2.65-2.9a2.65,2.65,0,0,1,2.42-2.86h0.17c2,0,2.55,1.82,2.5,3.16h-4.13a1.62,1.62,0,0,0,1.41,1.8h0.31a1.33,1.33,0,0,0,1.43-1.08h0.9Zm-0.87-1.54a1.58,1.58,0,0,0-3.17,0h3.17Z"/><path class="gs21-12" d="M258.25,349.48h-0.91v-0.75h0a1.86,1.86,0,0,1-1.76.88c-1.7,0-2.54-1.34-2.54-2.9s0.83-2.87,2.52-2.87a2.11,2.11,0,0,1,1.78.86h0v-2.84h0.91v7.62Zm-2.56-.67c1.22,0,1.68-1,1.68-2.08s-0.49-2.09-1.74-2.09S254,345.7,254,346.77a1.79,1.79,0,0,0,1.71,2h0Z"/><path class="gs21-12" d="M210.89,352.88h2.61c2.35,0,3.66,1.17,3.66,3.63s-1.12,4-3.66,4h-2.61v-7.63Zm1,6.76h1.69c0.69,0,2.56-.19,2.56-3,0-1.81-.67-2.91-2.54-2.91h-1.71v5.91Z"/><path class="gs21-12" d="M222.87,360.47a1.22,1.22,0,0,1-.65.15,0.73,0.73,0,0,1-.77-0.85,2.45,2.45,0,0,1-1.94.85,1.56,1.56,0,0,1-1.82-1.55c0-1.1.93-1.51,1.87-1.7s1.86-.13,1.86-0.81a1,1,0,0,0-1.23-.92,1.13,1.13,0,0,0-1.38,1H217.9c0.05-1.37,1.11-1.85,2.34-1.85,1,0,2.07.22,2.07,1.51v2.84c0,0.43,0,.62.29,0.62a0.77,0.77,0,0,0,.28,0v0.76Zm-1.47-2.83a4.66,4.66,0,0,1-1.64.37,1.06,1.06,0,0,0-1.11,1,0.85,0.85,0,0,0,1.07.81,1.48,1.48,0,0,0,1.69-1.25v-0.93Z"/><path class="gs21-12" d="M224.7,354.93h1.1v0.8h-1.1v3.42c0,0.42.12,0.49,0.68,0.49h0.42v0.8h-0.69c-0.94,0-1.31-.19-1.31-1.21v-3.51h-0.94v-0.79h0.94v-1.65h0.91v1.65Z"/><path class="gs21-12" d="M231.45,360.47a1.22,1.22,0,0,1-.65.15,0.73,0.73,0,0,1-.77-0.85,2.45,2.45,0,0,1-1.94.85,1.56,1.56,0,0,1-1.82-1.55c0-1.1.93-1.51,1.87-1.7s1.86-.13,1.86-0.81a1,1,0,0,0-1.23-.92,1.13,1.13,0,0,0-1.38,1h-0.94c0.05-1.37,1.11-1.85,2.34-1.85,1,0,2.07.22,2.07,1.51v2.84c0,0.43,0,.62.29,0.62a0.77,0.77,0,0,0,.28,0ZM230,357.64a4.66,4.66,0,0,1-1.64.37,1.06,1.06,0,0,0-1.11,1,0.85,0.85,0,0,0,1.07.81,1.48,1.48,0,0,0,1.69-1.25v-0.93Z"/><path class="gs21-12" d="M239.24,355.1a1.66,1.66,0,0,0-1.74-1.57h-0.15c-0.85,0-1.71.31-1.71,1.3s1.22,1.08,2.44,1.35,2.43,0.7,2.43,2.2-1.59,2.27-3,2.27c-1.71,0-3.15-.83-3.15-2.69h1c0,1.28,1.07,1.83,2.22,1.83,0.92,0,1.93-.29,1.93-1.39s-1.22-1.23-2.43-1.49-2.44-.62-2.44-2,1.38-2.23,2.76-2.23c1.56,0,2.74.74,2.81,2.41h-1Z"/><path class="gs21-12" d="M242.59,354.93h1.1v0.8h-1.1v3.42c0,0.42.12,0.49,0.68,0.49h0.42v0.8H243c-0.94,0-1.31-.19-1.31-1.21v-3.51h-0.94v-0.79h0.94v-1.65h0.91v1.65Z"/><path class="gs21-12" d="M246.8,354.85a2.89,2.89,0,1,1-2.67,3.09q0-.1,0-0.2a2.62,2.62,0,0,1,2.33-2.88h0.35Zm0,5a2.12,2.12,0,1,0-1.72-2.08,1.79,1.79,0,0,0,1.72,2v0Z"/><path class="gs21-12" d="M250.24,354.93h0.85v1.16h0a2,2,0,0,1,2-1.29v1c-1.46,0-2,.83-2,2.23v2.45h-0.91Z"/><path class="gs21-12" d="M258.07,358.74a2.22,2.22,0,0,1-2.36,1.88c-1.76,0-2.59-1.22-2.65-2.9a2.65,2.65,0,0,1,2.42-2.86h0.17c2,0,2.55,1.82,2.5,3.16H254a1.62,1.62,0,0,0,1.41,1.8h0.31a1.33,1.33,0,0,0,1.43-1.08h0.9Zm-0.87-1.54a1.59,1.59,0,0,0-3.17,0h3.17Z"/><path class="gs21-12" d="M400.63,347.25H404a2.25,2.25,0,0,1,0,4.5h-2.33v3.11h-1v-7.61Zm1,3.65h2c1.14,0,1.66-.49,1.66-1.4s-0.52-1.4-1.66-1.4h-2v2.8Z"/><path class="gs21-12" d="M407.18,347.25h0.91v7.62h-0.91v-7.62Z"/><path class="gs21-12" d="M413.79,354.86h-0.85V354h0a1.92,1.92,0,0,1-1.79,1,1.71,1.71,0,0,1-1.9-2v-3.63h0.91v3.73a1,1,0,0,0,1.12,1.11,1.55,1.55,0,0,0,1.63-1.73v-3.12h0.91Z"/><path class="gs21-12" d="M419.64,354.39c0,1.79-.82,2.71-2.56,2.71-1,0-2.23-.42-2.28-1.62h0.91c0,0.66.83,0.9,1.43,0.9,1.18,0,1.65-.85,1.65-2.09v-0.36h0a1.84,1.84,0,0,1-1.72,1,2.5,2.5,0,0,1-2.46-2.79c0-1.3.64-2.91,2.55-2.91a1.8,1.8,0,0,1,1.64.92h0v-0.79h0.85v5Zm-0.9-2.4c0-1-.43-2-1.57-2a1.75,1.75,0,0,0-1.63,2c0,1,.36,2.1,1.56,2.1S418.74,353,418.74,352Z"/><path class="gs21-12" d="M421.7,348.35h-0.91v-1.11h0.91v1.11Zm-0.91,1h0.91v5.51h-0.91v-5.51Z"/><path class="gs21-12" d="M422.84,349.35h0.85v0.88h0a1.92,1.92,0,0,1,1.79-1,1.71,1.71,0,0,1,1.9,2v3.63h-0.93v-3.73a1,1,0,0,0-1.12-1.11,1.55,1.55,0,0,0-1.63,1.73v3.11h-0.91Z"/><path class="gs21-12" d="M429.05,353.12a1.22,1.22,0,0,0,1.48,1.07c0.57,0,1.33-.13,1.33-0.82s-0.9-.82-1.8-1-1.8-.5-1.8-1.56a1.84,1.84,0,0,1,2.06-1.57c1.22,0,2.19.38,2.26,1.73h-0.91a1.11,1.11,0,0,0-1.28-.93c-0.6,0-1.17.15-1.17,0.7s1,0.76,1.8,1,1.8,0.5,1.8,1.57c0,1.31-1.23,1.74-2.35,1.74s-2.28-.5-2.33-1.87Z"/><rect class="gs21-11" x="193.25" y="302.12" width="264.87" height="25.49" rx="3.14" ry="3.14"/><path class="gs21-12" d="M255.62,313a2.63,2.63,0,0,0-2.8-2.13c-2.38,0-3.39,2-3.39,4,0,2.28,1,4.19,3.4,4.19a2.83,2.83,0,0,0,2.89-2.77s0-.07,0-0.11h1.33a4.07,4.07,0,0,1-4.13,4h-0.2c-3.11,0-4.62-2.3-4.62-5.21s1.65-5.27,4.73-5.27A3.83,3.83,0,0,1,257,313Z"/><path class="gs21-12" d="M264.54,317.69a2.92,2.92,0,0,1-3.1,2.46c-2.31,0-3.4-1.6-3.47-3.81a3.49,3.49,0,0,1,3.2-3.76h0.2c2.56,0,3.35,2.4,3.28,4.15h-5.42a2.13,2.13,0,0,0,2.26,2.38,1.74,1.74,0,0,0,1.88-1.41h1.17Zm-1.15-2a2.08,2.08,0,1,0-4.16,0h4.16Z"/><path class="gs21-12" d="M265.74,312.75h1.12v1.18h0a2.52,2.52,0,0,1,2.35-1.32c1.91,0,2.49,1.09,2.49,2.65V320h-1.15v-4.9a1.36,1.36,0,0,0-1.25-1.46h-0.22a2,2,0,0,0-2.14,2.27V320h-1.19v-7.27Z"/><path class="gs21-12" d="M275,312.75h1.41v1H275v4.5c0,0.55.15,0.64,0.9,0.64h0.54v1h-0.91c-1.23,0-1.72-.25-1.72-1.58V313.8h-1.23v-1h1.23v-2.17H275Z"/><path class="gs21-12" d="M277.61,312.75h1.12v1.53h0a2.63,2.63,0,0,1,2.66-1.7v1.26c-1.92,0-2.62,1.09-2.62,2.93V320h-1.19Z"/><path class="gs21-12" d="M288.59,319.93a1.6,1.6,0,0,1-.85.2,1,1,0,0,1-1-1.12,3.21,3.21,0,0,1-2.55,1.12c-1.32,0-2.4-.59-2.4-2,0-1.64,1.22-2,2.45-2.23s2.44-.17,2.44-1.06a1.38,1.38,0,0,0-1.61-1.21c-1,0-1.75.31-1.81,1.37h-1.19c0.07-1.79,1.46-2.42,3.07-2.42,1.3,0,2.72.29,2.72,2v3.73c0,0.56,0,.81.38,0.81a1,1,0,0,0,.36-0.07v0.88Zm-1.93-3.71a6.12,6.12,0,0,1-2.16.49c-0.78.14-1.46,0.42-1.46,1.3s0.67,1.06,1.4,1.06c1.57,0,2.21-1,2.21-1.64v-1.21Z"/><path class="gs21-12" d="M289.63,310h1.19v10h-1.19V310Z"/><path class="gs21-12" d="M293.78,311.44h-1.19V310h1.19v1.46Zm-1.19,1.3h1.19V320h-1.19v-7.24Z"/><path class="gs21-12" d="M294.9,319.08l4.37-5.28h-4.09v-1h5.63v0.81l-4.42,5.37H301v1H294.9v-0.9Z"/><path class="gs21-12" d="M308.25,317.69a2.92,2.92,0,0,1-3.1,2.46c-2.31,0-3.4-1.6-3.47-3.81a3.49,3.49,0,0,1,3.2-3.76h0.2c2.56,0,3.35,2.4,3.28,4.15h-5.42a2.13,2.13,0,0,0,2.26,2.38,1.74,1.74,0,0,0,1.88-1.41h1.17Zm-1.15-2a2.08,2.08,0,1,0-4.16,0h4.16Z"/><path class="gs21-12" d="M315.92,320h-1.19v-1h0a2.44,2.44,0,0,1-2.31,1.15c-2.23,0-3.33-1.76-3.33-3.81s1.09-3.77,3.31-3.77a2.77,2.77,0,0,1,2.34,1.13h0V310h1.19v10Zm-3.36-.88c1.6,0,2.21-1.37,2.21-2.73s-0.64-2.75-2.28-2.75-2.17,1.39-2.17,2.8,0.7,2.67,2.24,2.67h0Z"/><path class="gs21-12" d="M328.59,313a2.63,2.63,0,0,0-2.8-2.13c-2.38,0-3.39,2-3.39,4,0,2.28,1,4.19,3.4,4.19a2.83,2.83,0,0,0,2.89-2.77s0-.07,0-0.11H330a4.07,4.07,0,0,1-4.13,4h-0.2c-3.11,0-4.62-2.3-4.62-5.21s1.65-5.27,4.73-5.27a3.83,3.83,0,0,1,4.12,3.25Z"/><path class="gs21-12" d="M334.45,312.58c2.3,0,3.52,1.67,3.52,3.8s-1.22,3.78-3.52,3.78-3.52-1.67-3.52-3.78S332.16,312.58,334.45,312.58Zm0,6.53c1.25,0,2.25-1,2.25-2.73s-1-2.75-2.25-2.75-2.26,1-2.26,2.75,1,2.72,2.26,2.72h0Z"/><path class="gs21-12" d="M339.23,312.75h1.12v1.18h0a2.52,2.52,0,0,1,2.35-1.32c1.91,0,2.49,1.09,2.49,2.65V320H344v-4.9a1.36,1.36,0,0,0-1.25-1.46h-0.22a2,2,0,0,0-2.08,2.27V320h-1.19Z"/><path class="gs21-12" d="M347.36,313.8h-1.22v-1h1.22v-1.08c0-1.18.7-1.79,2-1.79a2.91,2.91,0,0,1,.77.11v1a2.22,2.22,0,0,0-.67-0.1,0.74,0.74,0,0,0-.91.81v1H350v1h-1.4v6.19h-1.19V313.8Z"/><path class="gs21-12" d="M352.13,311.44h-1.19V310h1.19v1.46Zm-1.19,1.3h1.19V320h-1.19v-7.24Z"/><path class="gs21-12" d="M360.09,319.37c0,2.35-1.08,3.56-3.36,3.56-1.36,0-2.93-.55-3-2.13h1.19C355,321.67,356,322,356.8,322c1.55,0,2.17-1.12,2.17-2.75v-0.48h0a2.41,2.41,0,0,1-2.25,1.32c-2.16,0-3.24-1.7-3.24-3.67,0-1.71.84-3.82,3.35-3.82a2.36,2.36,0,0,1,2.16,1.21h0v-1h1.12Zm-1.18-3.15c0-1.28-.56-2.59-2.06-2.59s-2.14,1.25-2.14,2.63,0.48,2.76,2,2.76,2.2-1.44,2.2-2.8h0Z"/><path class="gs21-12" d="M367.73,320h-1.12v-1.15h0a2.52,2.52,0,0,1-2.35,1.32c-1.91,0-2.49-1.09-2.49-2.65v-4.76H363v4.9a1.36,1.36,0,0,0,1.25,1.46h0.22a2,2,0,0,0,2.14-2.27v-4.09h1.19Z"/><path class="gs21-12" d="M369.34,312.75h1.11v1.53h0a2.63,2.63,0,0,1,2.66-1.7v1.26c-1.92,0-2.62,1.09-2.62,2.93V320H369.3Z"/><path class="gs21-12" d="M380.32,319.93a1.6,1.6,0,0,1-.85.2,1,1,0,0,1-1-1.12,3.21,3.21,0,0,1-2.55,1.12c-1.32,0-2.4-.59-2.4-2,0-1.64,1.22-2,2.45-2.23s2.44-.17,2.44-1.06a1.38,1.38,0,0,0-1.61-1.21c-1,0-1.75.31-1.81,1.37H373.8c0.07-1.79,1.46-2.42,3.07-2.42,1.3,0,2.72.29,2.72,2v3.73c0,0.56,0,.81.38,0.81a1,1,0,0,0,.36-0.07v0.88Zm-1.93-3.71a6.12,6.12,0,0,1-2.16.49c-0.78.14-1.46,0.42-1.46,1.3s0.67,1.06,1.4,1.06c1.57,0,2.21-1,2.21-1.64v-1.21Z"/><path class="gs21-12" d="M382.93,312.75h1.44v1h-1.44v4.5c0,0.55.15,0.64,0.9,0.64h0.55v1h-0.93c-1.23,0-1.72-.25-1.72-1.58V313.8H380.5v-1h1.23v-2.17h1.19v2.17Z"/><path class="gs21-12" d="M386.81,311.44h-1.19V310h1.19v1.46Zm-1.19,1.3h1.19V320h-1.19v-7.24Z"/><path class="gs21-12" d="M391.64,312.58c2.3,0,3.52,1.67,3.52,3.8s-1.22,3.78-3.52,3.78-3.52-1.67-3.52-3.78S389.34,312.58,391.64,312.58Zm0,6.53c1.25,0,2.25-1,2.25-2.73s-1-2.75-2.25-2.75-2.26,1-2.26,2.75,1,2.72,2.26,2.72h0Z"/><path class="gs21-12" d="M396.45,312.75h1.12v1.18h0a2.52,2.52,0,0,1,2.35-1.32c1.91,0,2.49,1.09,2.49,2.65V320h-1.19v-4.9a1.36,1.36,0,0,0-1.25-1.46h-0.22a2,2,0,0,0-2.14,2.27V320h-1.16v-7.27Z"/><path class="gs21-10" d="M206,274.82H213v1.11h-5.58v3.18h5.2v1.12h-5.2v3.46H213v1.12H206v-10Z"/><path class="gs21-10" d="M216,281l-2.54-3.43H215l1.74,2.54,1.81-2.54H220l-2.51,3.35,2.8,3.91h-1.5l-2-3-2,3h-1.44Z"/><path class="gs21-10" d="M221,277.58h1.19v1h0a2.44,2.44,0,0,1,2.31-1.15c2.23,0,3.33,1.76,3.33,3.81s-1.09,3.77-3.31,3.77a2.77,2.77,0,0,1-2.34-1.13h0v3.74H221v-10Zm3.36,0.88c-1.6,0-2.21,1.37-2.21,2.73s0.64,2.74,2.31,2.74,2.17-1.39,2.17-2.8S225.89,278.46,224.35,278.46Z"/><path class="gs21-10" d="M228.86,277.58H230v1.53h0a2.63,2.63,0,0,1,2.66-1.7v1.26c-1.92,0-2.62,1.09-2.62,2.93v3.22h-1.19Z"/><path class="gs21-10" d="M239.14,282.53A2.92,2.92,0,0,1,236,285c-2.31,0-3.4-1.6-3.47-3.81a3.49,3.49,0,0,1,3.2-3.76H236c2.56,0,3.35,2.4,3.28,4.15h-5.42a2.13,2.13,0,0,0,2.25,2.38,1.74,1.74,0,0,0,1.88-1.41h1.18Zm-1.15-2a2.08,2.08,0,0,0-4.16,0H238Z"/><path class="gs21-10" d="M240.86,282.54c0,1.06,1,1.4,1.95,1.4,0.74,0,1.75-.17,1.75-1.08s-1.18-1.08-2.37-1.34-2.37-.66-2.37-2,1.44-2.06,2.7-2.06c1.6,0,2.87.5,3,2.27h-1.19a1.46,1.46,0,0,0-1.68-1.22c-0.78,0-1.54.2-1.54,0.92s1.26,1,2.37,1.26,2.37,0.66,2.37,2.06c0,1.72-1.61,2.28-3.08,2.28s-3-.66-3.07-2.45Z"/><path class="gs21-10" d="M247.51,282.54c0,1.06,1,1.4,1.95,1.4,0.74,0,1.75-.17,1.75-1.08s-1.18-1.08-2.37-1.34-2.37-.66-2.37-2,1.44-2.06,2.7-2.06c1.6,0,2.87.5,3,2.27H251a1.46,1.46,0,0,0-1.68-1.22c-0.78,0-1.54.2-1.54,0.92s1.26,1,2.37,1.26,2.37,0.66,2.37,2.06c0,1.72-1.61,2.28-3.08,2.28s-3-.66-3.07-2.45Z"/><path class="gs21-10" d="M257.17,274.82h4.71c1.88,0,3,1,3,2.62a2.4,2.4,0,0,1-1.74,2.54h0c1.16,0.22,1.4,1.08,1.5,2.06a5.13,5.13,0,0,0,.59,2.76h-1.48c-0.38-.41-0.17-1.48-0.36-2.47s-0.38-1.81-1.67-1.81h-3.27v4.27h-1.33Zm4.1,4.61c1.25,0,2.31-.32,2.31-1.78a1.58,1.58,0,0,0-1.78-1.71h-3.35v3.49h2.82Z"/><path class="gs21-10" d="M272.2,284.82h-1.12v-1.15h0a2.52,2.52,0,0,1-2.35,1.32c-1.9,0-2.49-1.09-2.49-2.65v-4.76h1.19v4.9a1.36,1.36,0,0,0,1.25,1.46h0.22a2,2,0,0,0,2.14-2.27v-4.09h1.19Z"/><path class="gs21-10" d="M273.64,277.58h1.12v1.15h0a2.52,2.52,0,0,1,2.35-1.32c1.9,0,2.49,1.09,2.49,2.65v4.76h-1.15v-4.89a1.36,1.36,0,0,0-1.25-1.46H277a2,2,0,0,0-2.14,2.27v4.09h-1.19v-7.25Z"/><path class="gs21-10" d="M282.73,277.58h1.44v1h-1.44v4.5c0,0.55.15,0.64,0.9,0.64h0.55v1h-0.91c-1.23,0-1.72-.25-1.72-1.58v-4.61h-1.23v-1h1.23v-2.17h1.19v2.17Z"/><path class="gs21-10" d="M286.4,276.28h-1.19v-1.46h1.19v1.46Zm-1.19,1.3h1.19v7.24h-1.19v-7.24Z"/><path class="gs21-10" d="M287.9,277.58H289v1.06h0a2.67,2.67,0,0,1,2.34-1.23,1.92,1.92,0,0,1,2,1.23,2.68,2.68,0,0,1,2.27-1.23c1.44,0,2.41.6,2.41,2.1v5.31h-1.19v-4.75c0-.9-0.24-1.61-1.4-1.61a1.75,1.75,0,0,0-1.89,1.85v4.51h-1.19v-4.75c0-.94-0.29-1.61-1.36-1.61a2,2,0,0,0-1.93,1.85v4.51h-1.19v-7.24Z"/><path class="gs21-10" d="M305.66,282.53a2.92,2.92,0,0,1-3.1,2.46c-2.31,0-3.4-1.6-3.47-3.81a3.49,3.49,0,0,1,3.2-3.76h0.2c2.56,0,3.35,2.4,3.28,4.15h-5.42a2.13,2.13,0,0,0,2.25,2.38,1.74,1.74,0,0,0,1.85-1.41h1.21Zm-1.15-2a2.08,2.08,0,0,0-4.16,0h4.16Z"/><rect class="gs21-5" x="204.07" y="267.6" width="11.87" height="2.09"/><path class="gs21-10" d="M212.75,73.59h0.83v0.83h-0.83V73.59Z"/><path class="gs21-10" d="M214.64,73.59h0.81v0.83h-0.83Z"/><path class="gs21-10" d="M216.52,73.59h0.83v0.83h-0.83V73.59Z"/><line class="gs21-13" x1="211.32" y1="60.74" x2="218.48" y2="60.74"/><line class="gs21-13" x1="211.97" y1="261.76" x2="218.88" y2="261.76"/><path class="gs21-14" d="M175.9,0.15V424.79H482.84V0.15H175.9Zm197,401.48H278.4v-71.5h94.5v71.5Z"/><path class="gs21-13" d="M398.56,261.74h-0.27c0.25,0.68.5,0.08,0.76,0.08,3,0,5.4-45.71,5.4-103.26S402,54.34,399.05,54.34a0.67,0.67,0,0,0-.49.43"/><path class="gs21-13" d="M398.56,54.78V53.31H211.09v0.13c-2.51,8.91-4.42,54-4.42,105.13s1.9,97.49,4.42,102.49a1.65,1.65,0,0,0,1.74.69H398.29c-2.62-7.14-4.64-50.61-4.64-103.18C393.65,104.2,395.81,59.56,398.56,54.78Z"/><rect class="gs21-15" x="240.96" y="63.07" width="66.55" height="181.17" rx="2.9" ry="2.9"/><path class="gs21-10" d="M260.92,82.59h3.44a2.32,2.32,0,0,1,0,4.64H262v3.21h-1Zm1,3.76h2c1.18,0,1.72-.51,1.72-1.44s-0.54-1.44-1.72-1.44h-2v2.88Z"/><path class="gs21-10" d="M270.07,84.63a3,3,0,1,1-2.75,3.23q0-.11,0-0.23a2.7,2.7,0,0,1,2.38-3Zm0,5.13a1.86,1.86,0,0,0,1.77-2.15,1.81,1.81,0,1,0-3.54,0,1.86,1.86,0,0,0,1.77,2.14h0Z"/><path class="gs21-10" d="M273.71,82.59h0.94v7.86h-0.94V82.59Z"/><path class="gs21-10" d="M276.81,83.74h-0.94V82.59h0.94v1.15Zm-0.94,1h0.94v5.69h-0.94V84.74Z"/><path class="gs21-10" d="M281.85,86.59a1.32,1.32,0,0,0-1.4-1.14c-1.35,0-1.77,1.07-1.77,2.22s0.47,2.08,1.66,2.08a1.47,1.47,0,0,0,1.56-1.38h1a2.36,2.36,0,0,1-2.5,2.21h0a2.59,2.59,0,0,1-2.66-2.9c0-1.71.88-3,2.68-3a2.18,2.18,0,0,1,2.44,1.89v0.11Z"/><path class="gs21-10" d="M285.85,91.2c-0.43,1.11-.81,1.52-1.65,1.52a1.89,1.89,0,0,1-.65-0.1V91.76a1.93,1.93,0,0,0,.55.13,0.81,0.81,0,0,0,.77-0.52l0.39-1L283,84.72h1.06l1.66,4.65h0l1.6-4.65h1Z"/><rect class="gs21-5" x="250.52" y="112.01" width="47.44" height="106.13" rx="2.9" ry="2.9"/><path class="gs21-12" d="M258.65,157.82h4.09c2.65,0,3.16,1.72,3.16,2.87s-0.51,2.86-3.16,2.85h-2.47v3.56h-1.62v-9.28Zm1.63,4.39h2.38a1.48,1.48,0,0,0,1.63-1.53,1.38,1.38,0,0,0-1.6-1.53h-2.41v3.06Z"/><path class="gs21-12" d="M266.79,160.38h1.39v1.3h0a2.17,2.17,0,0,1,2-1.48,3.56,3.56,0,0,1,.56,0v1.43a5.41,5.41,0,0,0-.64-0.06c-1,0-1.82.82-1.82,2.3v3.2H266.8v-6.69Z"/><path class="gs21-12" d="M270.45,163.74a3.4,3.4,0,1,1,3.39,3.55A3.25,3.25,0,0,1,270.45,163.74Zm5.3,0c0-1.16-.58-2.37-1.91-2.37s-1.91,1.21-1.91,2.37,0.58,2.38,1.91,2.38a2.11,2.11,0,0,0,2-2.38h-0.05Z"/><path class="gs21-12" d="M280,163.57l-2.33-3.19h1.78l1.4,2.07,1.47-2.07H284l-2.29,3.11,2.57,3.61h-1.78l-1.7-2.48-1.65,2.48h-1.74Z"/><path class="gs21-12" d="M284.11,160.38h1.63l1.75,5h0l1.7-5h1.55l-2.61,7.09c-0.48,1.21-.83,2.3-2.38,2.3a6.74,6.74,0,0,1-1-.08v-1.25a4.32,4.32,0,0,0,.7.09,0.94,0.94,0,0,0,1-.94l0.17-.52Z"/><path class="gs21-11" d="M216.73,53.31h8.41C224.28,53.19,220.25,53.24,216.73,53.31Z"/><path class="gs21-11" d="M225.28,53.43l175.12-.12H225.13c0.11,0,.17,0,0.17,0Z"/><path class="gs21-11" d="M211.13,53.31v0.13l5.59-.13h-5.59Z"/><path class="gs21-11" d="M258.45,261.74H257A10.67,10.67,0,0,0,258.45,261.74Z"/><path class="gs21-11" d="M400.45,261.4L397.27,242H275.94c-13.69,0-31.53-1.73-43.63-19.36-11.3-16.47-15.92-48-15.92-71.85,0-33.21-2-87.31,34.76-97.4h-40c-2.54,8.91-4.46,46.14-4.46,97.22s1.92,105.39,4.46,110.4a1.67,1.67,0,0,0,1.76.69H257a18.57,18.57,0,0,1-2.63-.35H400.45Z"/><path class="gs21-5" d="M220.18,247.12h4.07a2.75,2.75,0,0,1,.33,5.49h-3.13v3.8h-1.23Zm1.23,4.45h2.42c1.39,0,2-.6,2-1.7s-0.64-1.7-2-1.7h-2.38Z"/><path class="gs21-5" d="M229.27,248.47h-1.11v-1.35h1.11v1.35Zm-1.11,1.21h1.11v6.72h-1.11v-6.72Z"/><path class="gs21-5" d="M230.7,249.68h1.11v0.91h0a2.27,2.27,0,0,1,2.15-1.07c2.07,0,3.09,1.64,3.09,3.54s-1,3.5-3.07,3.5a2.58,2.58,0,0,1-2.17-1.05h0v3.42H230.7v-9.25Zm3.12,0.82c-1.48,0-2.05,1.27-2.05,2.54s0.6,2.55,2.12,2.55,2-1.29,2-2.6S235.25,250.5,233.82,250.5Z"/><path class="gs21-5" d="M243.77,254.27a2.71,2.71,0,0,1-2.87,2.29c-2.14,0-3.16-1.48-3.22-3.54a3.24,3.24,0,0,1,3-3.49h0.19c2.38,0,3.11,2.22,3,3.85h-5a2,2,0,0,0,1.78,2.2h0.31a1.62,1.62,0,0,0,1.74-1.31h1.1Zm-1.07-1.87a1.93,1.93,0,0,0-3.86,0h3.86Z"/><path class="gs21-5" d="M244.76,247.12h1.11v9.28h-1.11v-9.28Z"/><path class="gs21-5" d="M248.45,248.47h-1.11v-1.35h1.11v1.35Zm-1.11,1.21h1.11v6.72h-1.11v-6.72Z"/><path class="gs21-5" d="M249.82,249.68h1v1.07h0a2.34,2.34,0,0,1,2.18-1.22c1.77,0,2.31,1,2.31,2.46v4.42H254.2v-4.55a1.27,1.27,0,0,0-1.18-1.35h-0.19a1.89,1.89,0,0,0-2,2.11v3.8h-1.1Z"/><path class="gs21-5" d="M262.45,254.27a2.71,2.71,0,0,1-2.87,2.29c-2.15,0-3.16-1.48-3.22-3.54a3.24,3.24,0,0,1,3-3.49h0.19c2.38,0,3.11,2.22,3,3.85h-5a2,2,0,0,0,1.78,2.2h0.31a1.62,1.62,0,0,0,1.74-1.31h1.1Zm-1.07-1.87a1.93,1.93,0,0,0-1.94-1.9,1.91,1.91,0,0,0-1.92,1.9h3.86Z"/><path class="gs21-5" d="M269.45,247.18c2.89,0,3.07,2.65,3.07,4.69s-0.18,4.68-3.07,4.68-3.07-2.65-3.07-4.68S266.56,247.18,269.45,247.18Zm0,8.4c1.88,0,1.9-2.34,1.9-3.72s0-3.71-1.9-3.71-1.9,2.34-1.9,3.71S267.56,255.58,269.45,255.58Z"/><path class="gs21-5" d="M275.57,251.14h0.48a1.56,1.56,0,0,0,1.74-1.36q0-.08,0-0.15a1.46,1.46,0,0,0-1.43-1.49h-0.21a1.75,1.75,0,0,0-1.74,2h-1.1c0.06-1.75,1-3,2.85-3,1.6,0,2.81.77,2.81,2.47a2.11,2.11,0,0,1-1.27,1.83h0a2.1,2.1,0,0,1,1.66,2.24c0,1.85-1.44,2.81-3.17,2.81a2.79,2.79,0,0,1-3.07-3h1.11a1.87,1.87,0,0,0,1.73,2h0.27a1.83,1.83,0,0,0,2-1.65s0-.09,0-0.13a1.76,1.76,0,0,0-1.73-1.79l-0.27,0a5.47,5.47,0,0,0-.66,0v-0.81Z"/><rect class="gs21-5" x="277.82" y="366.38" width="98.06" height="34.95"/><path class="gs21-12" d="M506.73,361.85h97.12A12.75,12.75,0,0,1,616.6,374.6h0a12.75,12.75,0,0,1-12.75,12.75H506.73A12.75,12.75,0,0,1,494,374.6h0A12.75,12.75,0,0,1,506.73,361.85Z"/><path class="gs21-5" d="M525.88,370.21h3.82c1.41,0,2.33.64,2.33,2a1.73,1.73,0,0,1-1.12,1.67h0a1.87,1.87,0,0,1,1.47,2c0,1.23-.86,2.19-2.89,2.19h-3.61v-7.81Zm1.38,3.29h2.19a1,1,0,0,0,1.15-1.09,1,1,0,0,0-1.15-1.08h-2.2v2.17Zm0,3.44h2.43a1.24,1.24,0,0,0,.22-2.46h-2.66v2.45Z"/><path class="gs21-5" d="M532.91,375.22a2.87,2.87,0,1,1,2.87,3A2.75,2.75,0,0,1,532.91,375.22Zm4.49,0a1.66,1.66,0,1,0-1.62,2,1.75,1.75,0,0,0,1.62-2h0Z"/><path class="gs21-5" d="M539.45,370.21h1.25v2.9h0a2.07,2.07,0,0,1,1.69-.89c1.79,0,2.66,1.36,2.66,3s-0.77,3-2.45,3a2,2,0,0,1-2-.94h0v0.78h-1.15v-7.85Zm2.8,3c-1.06,0-1.59.8-1.59,2s0.58,2,1.59,2a1.79,1.79,0,0,0,1.57-2,1.76,1.76,0,0,0-1.57-2h0Z"/><path class="gs21-5" d="M552.45,374.29a1.2,1.2,0,0,0-1.3-1.07c-0.65,0-1.56.34-1.56,2.07,0,1,.42,2,1.51,2a1.35,1.35,0,0,0,1.35-1.31h1.25a2.45,2.45,0,0,1-2.6,2.29h0a2.68,2.68,0,0,1-2.76-2.94,2.74,2.74,0,0,1,2.81-3.06,2.3,2.3,0,0,1,2.55,2v0h-1.25Z"/><path class="gs21-5" d="M554.45,372.38h1.18v1.1h0a1.84,1.84,0,0,1,1.66-1.25,2.87,2.87,0,0,1,.47,0v1.21a4.36,4.36,0,0,0-.54,0c-0.86,0-1.54.69-1.54,2v2.71h-1.23v-5.67Z"/><path class="gs21-5" d="M558.87,375.55a1.51,1.51,0,0,0,1.33,1.67h0.2a1.32,1.32,0,0,0,1.39-1H563a2.49,2.49,0,0,1-2.58,1.94,2.7,2.7,0,0,1-2.78-3,2.75,2.75,0,1,1,5.44.32h-4.19Zm2.93-.83a1.46,1.46,0,1,0-2.93,0h2.93Z"/><path class="gs21-5" d="M568.45,376.8c0,0.31.07,0.43,0.3,0.43h0.31v0.87a3.14,3.14,0,0,1-.79.14,0.89,0.89,0,0,1-1-.69,2.92,2.92,0,0,1-2,.69,1.73,1.73,0,0,1-1.94-1.49q0-.08,0-0.17c0-1.42,1.13-1.65,2.19-1.77,0.9-.17,1.71-0.07,1.71-0.8s-0.67-.77-1.18-0.77a1.06,1.06,0,0,0-1.25.9h-1.25c0.09-1.46,1.33-1.89,2.58-1.89s2.28,0.45,2.28,1.65Zm-1.25-1.58a4.48,4.48,0,0,1-1.54.34,1,1,0,0,0-1,1,0.93,0.93,0,0,0,1.16.73,1.33,1.33,0,0,0,1.41-1.08Z"/><path class="gs21-5" d="M569,372.38h1v-1.71h1.25v1.71h1.13v0.93H571.2v3c0,0.52,0,.78.61,0.78a2.15,2.15,0,0,0,.53,0v1c-0.28,0-.54.07-0.81,0.07-1.31,0-1.55-.51-1.57-1.45v-3.36h-1v-1Z"/><path class="gs21-5" d="M573.94,375.55a1.51,1.51,0,0,0,1.33,1.67h0.18a1.32,1.32,0,0,0,1.39-1H578a2.49,2.49,0,0,1-2.57,1.94,2.7,2.7,0,0,1-2.78-3,2.75,2.75,0,1,1,5.44.32h-4.18Zm2.93-.83a1.46,1.46,0,0,0-2.93,0h2.93Z"/><path class="gs21-5" d="M584.16,378.07H583V377.3h0a1.89,1.89,0,0,1-1.76.92c-1.79,0-2.66-1.33-2.66-3,0-2.06,1.22-3,2.46-3a2.19,2.19,0,0,1,1.89.89h0v-2.9h1.25v7.86Zm-2.8-.84a1.73,1.73,0,0,0,1.59-2c0-1.25-.61-2-1.57-2-1.18,0-1.59,1-1.59,2.07s0.47,1.93,1.56,1.93h0Z"/><path class="gs21-16" d="M480.64,155.82l-0.1,257.11c-1.59,10.29-8.77,18.24-17.54,18.24H195c-8.77,0-15.94-8-15.94-17.66V39.93c0-9.71,7.17-17.66,15.94-17.66l269.73-.11c8.77,0,15.94,8,15.94,17.66Z"/><path class="gs21-11" d="M260.09,408.42h9.26v1.94h-7v3.37h6.48v1.84h-6.48v3.76h7.1v1.94h-9.38Z"/><path class="gs21-11" d="M273.45,416.38l-3.2-4.45h2.48l2,2.86,2-2.86h2.38l-3.17,4.3,3.56,5H277l-2.36-3.44-2.29,3.44h-2.41Z"/><path class="gs21-11" d="M280.51,411.93h1.94v1.26h0a3.11,3.11,0,0,1,2.88-1.51c2.94,0,4.36,2.23,4.36,5,0,2.5-1.26,4.86-4,4.86a3.62,3.62,0,0,1-3.12-1.46h0v4.65h-2v-12.8Zm4.59,1.37c-1.73,0-2.61,1.31-2.61,3.29s1,3.28,2.61,3.28c1.87,0,2.57-1.66,2.57-3.28s-0.88-3.26-2.57-3.26v0Z"/><path class="gs21-11" d="M291.27,411.93h1.93v1.8h0a3,3,0,0,1,2.72-2,5,5,0,0,1,.78,0v2a7.35,7.35,0,0,0-.88-0.09c-1.4,0-2.52,1.13-2.52,3.19v4.43h-2Z"/><path class="gs21-11" d="M298.71,417.15a2.48,2.48,0,0,0,2.19,2.74h0.31a2.16,2.16,0,0,0,2.27-1.55h2a4.08,4.08,0,0,1-4.21,3.17c-2.92,0-4.56-2-4.56-4.9,0-2.65,1.73-4.92,4.5-4.92,2.94,0,4.74,2.65,4.39,5.44h-6.86Zm4.79-1.35a2.4,2.4,0,1,0-4.79,0h4.79Z"/><path class="gs21-11" d="M308.45,418.28a1.81,1.81,0,0,0,2.11,1.62c0.77,0,2.13-.16,2.07-1.22s-1.55-1.21-3-1.55-3-.86-3-2.75,2.2-2.66,3.89-2.66c1.91,0,3.64.79,3.89,2.86h-2.14a1.62,1.62,0,0,0-1.89-1.24c-0.59,0-1.69.14-1.69,1s1.51,1.15,3,1.5,3,0.88,3,2.72c0,2.21-2.23,3-4.16,3-2.34,0-4.09-1-4.12-3.24Z"/><path class="gs21-11" d="M317.64,418.28a1.81,1.81,0,0,0,2.11,1.62c0.77,0,2.13-.16,2.07-1.22s-1.55-1.21-3-1.55-3-.86-3-2.75,2.2-2.66,3.89-2.66c1.91,0,3.64.79,3.89,2.86h-2.15a1.62,1.62,0,0,0-1.89-1.24c-0.59,0-1.69.14-1.69,1s1.51,1.15,3,1.5,3,0.88,3,2.72c0,2.21-2.23,3-4.16,3-2.34,0-4.09-1-4.12-3.24Z"/><path class="gs21-11" d="M341.59,421.27h-1.44l-0.34-1.51a4.63,4.63,0,0,1-3.87,1.82c-3.85,0-6.16-3.06-6.16-6.73s2.3-6.73,6.16-6.73c2.81,0,5.17,1.5,5.51,4.39h-2.2a3.07,3.07,0,0,0-3.31-2.56c-2.76,0-3.91,2.43-3.91,4.9s1.15,4.9,3.91,4.9a3.27,3.27,0,0,0,3.6-3.53h-3.42v-1.71h5.47v6.76Z"/><path class="gs21-11" d="M351.36,419.2c0,0.5.11,0.7,0.48,0.7a2.84,2.84,0,0,0,.51,0v1.42a5.15,5.15,0,0,1-1.3.23,1.37,1.37,0,0,1-1.58-1.13,4.78,4.78,0,0,1-3.22,1.13c-1.67,0-3.19-.9-3.19-2.72,0-2.32,1.85-2.7,3.58-2.9,1.48-.27,2.79-0.11,2.79-1.31s-1.1-1.26-1.93-1.26c-1.15,0-2,.47-2,1.48h-2c0.14-2.39,2.18-3.1,4.23-3.1,1.82,0,3.73.74,3.73,2.7Zm-2-2.59a7.34,7.34,0,0,1-2.52.56c-0.88.14-1.67,0.47-1.67,1.55,0,0.92,1.17,1.19,1.89,1.19,0.9,0,2.3-.47,2.3-1.76v-1.54Z"/><path class="gs21-11" d="M352.45,411.93H354v-2.79h2v2.79h1.86v1.53h-1.86v5c0,0.85.07,1.28,1,1.28a3.5,3.5,0,0,0,.87-0.07v1.58c-0.45,0-.88.11-1.33,0.11-2.14,0-2.54-.83-2.58-2.38v-5.49h-1.56v-1.56Z"/><path class="gs21-11" d="M360.81,417.15a2.48,2.48,0,0,0,2.19,2.74h0.31a2.16,2.16,0,0,0,2.27-1.55h1.94a4.07,4.07,0,0,1-4.21,3.17c-2.92,0-4.55-2-4.55-4.9,0-2.65,1.73-4.92,4.5-4.92,2.93,0,4.73,2.65,4.39,5.44h-6.84Zm4.79-1.35a2.4,2.4,0,1,0-4.79,0h4.79Z"/><path class="gs21-11" d="M368.19,411.93h2.18l1.82,7h0l1.75-7H376l1.68,7h0l1.89-7h2.09l-2.92,9.31h-2.11l-1.73-6.91h0l-1.71,6.91H371Z"/><path class="gs21-11" d="M390.65,419.2c0,0.5.11,0.7,0.49,0.7a2.82,2.82,0,0,0,.5,0v1.42a5.13,5.13,0,0,1-1.3.23,1.37,1.37,0,0,1-1.58-1.13,4.78,4.78,0,0,1-3.22,1.13c-1.67,0-3.19-.9-3.19-2.72,0-2.32,1.86-2.7,3.58-2.9,1.48-.27,2.79-0.11,2.79-1.31s-1.1-1.26-1.93-1.26c-1.15,0-2,.47-2,1.48h-2c0.14-2.39,2.18-3.1,4.23-3.1,1.82,0,3.73.74,3.73,2.7v4.76Zm-2-2.59a7.34,7.34,0,0,1-2.52.56c-0.88.14-1.68,0.47-1.68,1.55,0,0.92,1.17,1.19,1.89,1.19,0.9,0,2.3-.47,2.3-1.76v-1.54Z"/><path class="gs21-11" d="M391.66,411.93h2.25l2.43,7h0l2.36-7h2.14l-3.62,9.81c-0.67,1.67-1.15,3.19-3.29,3.19a9.23,9.23,0,0,1-1.42-.11v-1.69a6,6,0,0,0,1,.13c1,0,1.19-.5,1.44-1.3l0.23-.72Z"/><rect class="gs21-11" x="284.89" y="335.39" width="81.49" height="62.96" rx="3.14" ry="3.14"/><path class="gs21-10" d="M297,386.84h3.2c1.18,0,2,.54,2,1.63a1.45,1.45,0,0,1-.94,1.4h0a1.57,1.57,0,0,1,1.24,1.7c0,1-.72,1.84-2.43,1.84h-3Zm1.15,2.76H300a0.88,0.88,0,0,0,1-.91,0.82,0.82,0,0,0-1-.9H298.1v1.81Zm0,2.89h2a1,1,0,1,0,.12-2H298.1v2Z"/><path class="gs21-10" d="M302.85,391a2.41,2.41,0,1,1,2.41,2.52A2.31,2.31,0,0,1,302.85,391Zm3.77,0a1.39,1.39,0,1,0-1.36,1.69,1.48,1.48,0,0,0,1.36-1.69h0Z"/><path class="gs21-10" d="M308.35,386.84h1v2.44h0a1.74,1.74,0,0,1,1.42-.75,2.24,2.24,0,0,1,2.23,2.54c0,1.28-.65,2.49-2.06,2.49a1.71,1.71,0,0,1-1.65-.78h0v0.66h-1v-6.6Zm2.35,2.52c-0.89,0-1.34.67-1.34,1.69a1.42,1.42,0,0,0,1.34,1.68A1.74,1.74,0,0,0,310.7,389.36Z"/><path class="gs21-5" d="M312.45,374c0,5.58-3.17,10.1-7.07,10.1s-6.28-5.06-6.28-10.64c0-2.48-.56-4.39,1.13-5.08s3.55-2.3,3.5-3c-0.06-.94.72-0.23,1.69-0.23C309.35,365.1,312.45,368.4,312.45,374Z"/><path class="gs21-17" d="M311.7,377.41c0.1-.52.78-0.32,1.07-1.55,0.43-1.8-.44-2.07-1-1.71"/><path class="gs21-17" d="M299.45,377.41c0.57,3.81,3.09,6.67,6.11,6.67s5.54-2.87,6.11-6.67"/><line class="gs21-17" x1="302.86" y1="376.78" x2="304.28" y2="376.78"/><line class="gs21-17" x1="307.33" y1="376.78" x2="308.75" y2="376.78"/><path class="gs21-17" d="M304,381.06a2.47,2.47,0,0,0,3.21,0"/><path class="gs21-17" d="M304.11,365.16a2.62,2.62,0,0,1-.43,1.39c-0.63.9-1.54,0.79-2.61,1.43a4.91,4.91,0,0,0-2.17,3.17,5.11,5.11,0,0,0,1,3.85,7.19,7.19,0,0,1,1.27-3.5,9.89,9.89,0,0,0,7.38,3,13.16,13.16,0,0,1-.59-1.24c-0.19-.46-0.33-0.85-0.46-1.24q0.77,0.65,1.63,1.3c0.8,0.61,1.58,1.16,2.34,1.66a6.36,6.36,0,0,0,.83-4.33C311.67,367.67,308.35,365.25,304.11,365.16Z"/><path class="gs21-12" d="M307.84,344.16a2,2,0,0,0-2.13-1.62c-1.81,0-2.58,1.49-2.58,3.08s0.77,3.19,2.59,3.19a2.15,2.15,0,0,0,2.2-2.1s0-.07,0-0.1h1a3.1,3.1,0,0,1-3.14,3.06h-0.16c-2.37,0-3.52-1.75-3.52-4s1.26-4,3.6-4a2.91,2.91,0,0,1,3.14,2.47Z"/><path class="gs21-12" d="M312.14,343.84a2.89,2.89,0,1,1-2.68,3.08q0-.1,0-0.19a2.62,2.62,0,0,1,2.33-2.88h0.36Zm0,5a2.12,2.12,0,1,0-1.72-2.08,1.79,1.79,0,0,0,1.72,2v0Z"/><path class="gs21-12" d="M315.62,343.93h0.83v0.88h0a1.92,1.92,0,0,1,1.79-1,1.71,1.71,0,0,1,1.9,2v3.63h-0.91v-3.73a1,1,0,0,0-1.12-1.11,1.55,1.55,0,0,0-1.63,1.73v3.11h-0.91Z"/><path class="gs21-12" d="M321.83,347.74a1.22,1.22,0,0,0,1.48,1.07c0.57,0,1.33-.13,1.33-0.82s-0.9-.82-1.8-1-1.8-.5-1.8-1.56a1.84,1.84,0,0,1,2.06-1.57c1.22,0,2.19.38,2.26,1.73h-0.91a1.11,1.11,0,0,0-1.28-.93c-0.6,0-1.17.15-1.17,0.7s1,0.76,1.8,1,1.8,0.5,1.8,1.57c0,1.31-1.23,1.74-2.35,1.74s-2.28-.5-2.33-1.87Z"/><path class="gs21-12" d="M330.91,349.48h-0.85v-0.87h0a1.92,1.92,0,0,1-1.79,1,1.71,1.71,0,0,1-1.9-2v-3.68h0.91v3.73a1,1,0,0,0,1.12,1.11A1.55,1.55,0,0,0,330,347v-3.11h0.91Z"/><path class="gs21-12" d="M332,343.93h0.85v0.81h0a2,2,0,0,1,1.78-.94,1.46,1.46,0,0,1,1.51.94,2,2,0,0,1,1.73-.94,1.54,1.54,0,0,1,1.83,1.6v4h-0.91v-3.62a1,1,0,0,0-1.07-1.23,1.34,1.34,0,0,0-1.44,1.41v3.43h-0.83v-3.62a1,1,0,0,0-1-1.23A1.49,1.49,0,0,0,333,346v3.43h-0.91Z"/><path class="gs21-12" d="M345.53,347.73a2.22,2.22,0,0,1-2.36,1.88c-1.76,0-2.59-1.22-2.65-2.9a2.65,2.65,0,0,1,2.42-2.86h0.17c2,0,2.55,1.82,2.5,3.16h-4.16a1.62,1.62,0,0,0,1.41,1.8h0.31a1.33,1.33,0,0,0,1.43-1.08h0.93Zm-0.87-1.54a1.59,1.59,0,0,0-3.17,0h3.17Z"/><path class="gs21-12" d="M346.25,343.93h0.85v1.16h0a2,2,0,0,1,2-1.29v1c-1.46,0-2,.83-2,2.23v2.45h-0.91Z"/><path class="gs21-12" d="M296.15,352.88h1.39l2.4,6.4,2.41-6.4h1.39v7.62h-1v-6.34h0l-2.38,6.34H299.5l-2.38-6.34h0v6.34h-1Z"/><path class="gs21-12" d="M309.89,360.47a1.22,1.22,0,0,1-.65.15,0.73,0.73,0,0,1-.77-0.85,2.45,2.45,0,0,1-1.94.85,1.56,1.56,0,0,1-1.82-1.55c0-1.1.93-1.51,1.87-1.7s1.86-.13,1.86-0.81a1,1,0,0,0-1.23-.92,1.13,1.13,0,0,0-1.38,1h-0.91c0-1.37,1.11-1.85,2.34-1.85,1,0,2.07.22,2.07,1.51v2.84c0,0.43,0,.62.29,0.62a0.77,0.77,0,0,0,.28,0v0.76Zm-1.44-2.83a4.66,4.66,0,0,1-1.64.37,1.06,1.06,0,0,0-1.11,1,0.85,0.85,0,0,0,1.07.81,1.48,1.48,0,0,0,1.69-1.25v-0.93Z"/><path class="gs21-12" d="M310.45,354.93h0.85v0.88h0a1.92,1.92,0,0,1,1.79-1,1.71,1.71,0,0,1,1.9,2v3.63h-0.91v-3.73A1,1,0,0,0,313,355.6a1.55,1.55,0,0,0-1.63,1.73v3.11h-0.88v-5.51Z"/><path class="gs21-12" d="M321,360.47a1.22,1.22,0,0,1-.65.15,0.73,0.73,0,0,1-.77-0.85,2.45,2.45,0,0,1-1.94.85,1.56,1.56,0,0,1-1.82-1.55c0-1.1.93-1.51,1.87-1.7s1.86-.13,1.86-0.81a1,1,0,0,0-1.23-.92,1.13,1.13,0,0,0-1.38,1H316c0-1.37,1.11-1.85,2.34-1.85,1,0,2.07.22,2.07,1.51v2.84c0,0.43,0,.62.29,0.62a0.77,0.77,0,0,0,.28,0v0.76Zm-1.47-2.83a4.66,4.66,0,0,1-1.64.37,1.06,1.06,0,0,0-1.11,1,0.85,0.85,0,0,0,1.07.81,1.48,1.48,0,0,0,1.69-1.25v-0.93Z"/><path class="gs21-12" d="M326.33,360c0,1.79-.82,2.71-2.56,2.71-1,0-2.23-.42-2.28-1.62h0.91c0,0.66.83,0.9,1.43,0.9,1.18,0,1.65-.85,1.65-2.09v-0.36h0a1.84,1.84,0,0,1-1.72,1,2.5,2.5,0,0,1-2.46-2.79c0-1.3.64-2.91,2.55-2.91a1.8,1.8,0,0,1,1.64.92h0v-0.85h0.85V360Zm-0.9-2.4c0-1-.43-2-1.57-2a1.75,1.75,0,0,0-1.63,2c0,1,.36,2.1,1.56,2.1s1.66-1.06,1.66-2.1h0Z"/><path class="gs21-12" d="M332.13,358.74a2.22,2.22,0,0,1-2.36,1.88c-1.76,0-2.59-1.22-2.65-2.9a2.65,2.65,0,0,1,2.42-2.86h0.17c2,0,2.55,1.82,2.5,3.16h-4.13a1.62,1.62,0,0,0,1.41,1.8h0.31a1.33,1.33,0,0,0,1.43-1.08h0.9Zm-0.87-1.54a1.59,1.59,0,0,0-3.17,0h3.17Z"/><path class="gs21-12" d="M332.89,354.93h0.85v0.81h0a2,2,0,0,1,1.78-.94,1.46,1.46,0,0,1,1.51.94,2,2,0,0,1,1.73-.94,1.54,1.54,0,0,1,1.83,1.6v4h-0.91v-3.62a1,1,0,0,0-1.07-1.23,1.34,1.34,0,0,0-1.44,1.41v3.43h-0.91v-3.62a1,1,0,0,0-1-1.23,1.49,1.49,0,0,0-1.47,1.41v3.43h-0.91v-5.45Z"/><path class="gs21-12" d="M346.45,358.74a2.22,2.22,0,0,1-2.36,1.88c-1.76,0-2.59-1.22-2.65-2.9a2.65,2.65,0,0,1,2.42-2.86H344c2,0,2.55,1.82,2.5,3.16H342.4a1.62,1.62,0,0,0,1.41,1.8h0.31a1.33,1.33,0,0,0,1.43-1.08h0.9Zm-0.87-1.54a1.59,1.59,0,0,0-3.17,0h3.17Z"/><path class="gs21-12" d="M347.17,354.93H348v0.88h0a1.92,1.92,0,0,1,1.79-1,1.71,1.71,0,0,1,1.9,2v3.63H350.8v-3.73a1,1,0,0,0-1.12-1.11,1.55,1.55,0,0,0-1.63,1.73v3.11h-0.91Z"/><path class="gs21-12" d="M354.09,354.93h1.1v0.8h-1.1v3.42c0,0.42.12,0.49,0.68,0.49h0.42v0.8h-0.74c-0.94,0-1.31-.19-1.31-1.21v-3.51H352.2v-0.79h0.94v-1.65h0.91Z"/><line class="gs21-18" x1="487.45" y1="374.51" x2="319.45" y2="374.51"/><rect class="gs21-19" width="679.23" height="432.67"/></svg>
