<svg id="gs-3-3" xmlns="http://www.w3.org/2000/svg" viewBox="0 0 679.23 432.67"><defs><style>.gs33-1,.gs33-15{fill:#74cfe8}.gs33-1{opacity:.15}.gs33-1,.gs33-14,.gs33-3{isolation:isolate}.gs33-2,.gs33-3{fill:#35a9c5}.gs33-3{opacity:.2}.gs33-13,.gs33-16,.gs33-17,.gs33-18,.gs33-4,.gs33-6,.gs33-8{fill:none;stroke-linecap:round}.gs33-4{stroke:#35a9c5}.gs33-13,.gs33-17,.gs33-4,.gs33-6,.gs33-8{stroke-linejoin:round}.gs33-13,.gs33-4{stroke-width:2px}.gs33-14,.gs33-19,.gs33-5{fill:#fff}.gs33-17,.gs33-6,.gs33-8{stroke:#136d7c}.gs33-6{stroke-width:1.5px}.gs33-7{opacity:.4}.gs33-8{stroke-width:2.5px}.gs33-9{opacity:.63}.gs33-10{fill:#136d7c}.gs33-11{fill:#ffc60a}.gs33-12{fill:#37403f}.gs33-13,.gs33-16{stroke:#ffc60a}.gs33-14{opacity:.8}.gs33-16,.gs33-18{stroke-miterlimit:10}.gs33-16{stroke-width:3px}.gs33-18{stroke:#37403f}.gs33-19{opacity:0}</style></defs><title>sized</title><rect class="gs33-1" x="422.52" y="68.93" width="187.41" height="250.88" rx="15" ry="15"/><path class="gs33-2" d="M532.43 194.7h2.39l5 12.86h-2.45l-1.21-3.4H531l-1.21 3.4h-2.29zm-.79 7.74h3.92l-1.93-5.53zM540.55 194.7h5.67c3.67 0 4.38 2.38 4.38 4s-.7 4-4.37 3.94h-3.42v4.94h-2.25V194.7zm2.25 6.08h3.29a2 2 0 0 0 2.25-2.12 1.9 1.9 0 0 0-2.21-2.12h-3.33v4.24zM552.1 194.7h2.27v12.88h-2.25zM507.12 214.7h9.25v1.94h-7V220h6.48v1.84h-6.48v3.73h7.13v2h-9.38V214.7zM517.72 218.25h2v1.33a3.33 3.33 0 0 1 2.9-1.66 3 3 0 0 1 3.29 3.17v6.49h-2v-5.85c0-1.46-.61-2.09-1.82-2.09a2.27 2.27 0 0 0-2.26 2.28v5.66h-2zM536.37 227.58h-1.94v-1.26a3.09 3.09 0 0 1-2.88 1.51c-2.93 0-4.36-2.18-4.36-5 0-3.37 2-4.84 4-4.84a3.59 3.59 0 0 1 3.1 1.46v-4.75h2.08v12.88zm-4.59-1.37c1.84 0 2.61-1.67 2.61-3.29 0-2.05-1-3.28-2.57-3.28-1.93 0-2.61 1.71-2.61 3.38s.79 3.17 2.57 3.17zM538.21 218.25h1.94v1.26A3.11 3.11 0 0 1 543 218c2.93 0 4.36 2.23 4.36 5 0 2.5-1.26 4.86-4 4.86a3.62 3.62 0 0 1-3.12-1.46v4.6h-2v-12.8zm4.59 1.37c-1.73 0-2.61 1.31-2.61 3.29s1 3.28 2.61 3.28c1.87 0 2.58-1.66 2.58-3.28s-.89-3.33-2.58-3.33zM548.27 222.89c0-2.84 1.71-4.9 4.7-4.9s4.7 2.05 4.7 4.9-1.71 4.92-4.7 4.92-4.7-2.06-4.7-4.92zm7.35 0c0-1.6-.81-3.28-2.65-3.28s-2.65 1.67-2.65 3.28.81 3.29 2.65 3.29 2.65-1.67 2.65-3.29zM559 214.7h2v1.94h-2v-1.94zm0 3.55h2v9.33h-2v-9.33zM562.81 218.25h2v1.33a3.33 3.33 0 0 1 2.9-1.66 3 3 0 0 1 3.29 3.17v6.49h-2v-5.85c0-1.46-.61-2.09-1.82-2.09a2.27 2.27 0 0 0-2.26 2.28v5.66h-2zM571.76 218.25h1.55v-2.79h2.06v2.79h1.85v1.53h-1.85v5c0 .85.07 1.28 1 1.28a3.49 3.49 0 0 0 .86-.07v1.59c-.45 0-.88.11-1.33.11-2.14 0-2.54-.83-2.58-2.38v-5.53h-1.55v-1.53zM515.72 251a15 15 0 0 1-2.59-8.3 15.35 15.35 0 0 1 2.59-8.3h1.65a16.65 16.65 0 0 0-2.21 8.3 15.89 15.89 0 0 0 2.21 8.3h-1.65zM518.16 234.7h5.67c3.67 0 4.38 2.38 4.38 4s-.7 4-4.37 3.94h-3.47v4.94h-2.25zm2.21 6.08h3.29a2 2 0 0 0 2.25-2.12 1.9 1.9 0 0 0-2.21-2.12h-3.33v4.24zM537.61 247.58h-2v-1.3a3.13 3.13 0 0 1-2.65 1.55c-2.43 0-3.48-1.22-3.48-3.66v-5.91h2V244c0 1.64.67 2.23 1.78 2.23 1.71 0 2.29-1.1 2.29-2.54v-5.4h2zM539.37 234.7h2v4.75a3.39 3.39 0 0 1 2.77-1.46c2.93 0 4.36 2.23 4.36 5 0 2.5-1.26 4.86-4 4.86a3.32 3.32 0 0 1-3.13-1.57v1.3h-2V234.7zm4.59 4.92c-1.73 0-2.61 1.31-2.61 3.29s1 3.28 2.61 3.28c1.87 0 2.58-1.66 2.58-3.28s-.89-3.33-2.58-3.33zM549.92 234.7h2v12.88h-2V234.7zM553.8 234.7h2v1.94h-2v-1.94zm0 3.55h2v9.33h-2v-9.33zM563.92 241.36a2 2 0 0 0-2.12-1.75c-1.06 0-2.56.56-2.56 3.38 0 1.55.68 3.19 2.47 3.19a2.21 2.21 0 0 0 2.21-2.12h2a4 4 0 0 1-4.23 3.75c-2.92 0-4.52-2.07-4.52-4.81s1.53-5 4.59-5c2.16 0 4 1.08 4.2 3.37h-2zM567.64 234.39a15.05 15.05 0 0 1 2.59 8.32 15.24 15.24 0 0 1-2.59 8.28H566a16.55 16.55 0 0 0 2.21-8.28 16 16 0 0 0-2.21-8.32h1.67z"/><rect class="gs33-3" x="549.43" y="136.97" width="33.16" height="19.58" rx="4.53" ry="4.53"/><rect class="gs33-4" x="544.51" y="132.64" width="38.08" height="24.18" rx="1.81" ry="1.81"/><path class="gs33-2" d="M550.92 149.25a.62.62 0 0 1-.35-.61 3.22 3.22 0 0 0 0-.43V147a.33.33 0 0 1 0-.18v-1.66a17.74 17.74 0 0 1 0-1.8 1.48 1.48 0 0 1 0-.38 3.17 3.17 0 0 1 0-.4v-.32a.86.86 0 0 1 0-.35 1.49 1.49 0 0 1 .1-.29.84.84 0 0 1 1-.3.68.68 0 0 1 .32.72v1.13a5.39 5.39 0 0 1 0 .72 1.31 1.31 0 0 0 0 .32v.08a1.78 1.78 0 0 1 0 .42v.46a1.32 1.32 0 0 0 0 .25v.11c.08.48.38 1.07.67.75a.16.16 0 0 1 .1-.13l.41-.48.16-.16a4.52 4.52 0 0 1 .3-.35l.11-.11a1 1 0 0 1 1.28.11 2.07 2.07 0 0 0 .46.45c.24.22.14.16.17.21a1.92 1.92 0 0 0 .27.33c.42.33.85-.33.89-.8v-2.85a1.7 1.7 0 0 1 0-.75.87.87 0 0 1 1.07-.45.66.66 0 0 1 .33.53v2.56a2.74 2.74 0 0 1 0 1v.3a.73.73 0 0 0 0 .18v1.36a.92.92 0 0 1 0 .35v1a1 1 0 0 1-.22.66.88.88 0 0 1-1.23-.19l-.06-.1a3.08 3.08 0 0 1-.32-.48l-.08-.14a3.57 3.57 0 0 0-.54-.48 1.94 1.94 0 0 0-1.34-.62 1.7 1.7 0 0 0-1.29.67 4.31 4.31 0 0 1-.46.46 3.52 3.52 0 0 0-.61.64.9.9 0 0 1-1.18.37zM560.57 149.25a.62.62 0 0 1-.35-.61 3.22 3.22 0 0 0 0-.43V147a.33.33 0 0 1 0-.18v-1.66a17.74 17.74 0 0 1 0-1.8 1.48 1.48 0 0 1 0-.38 3.17 3.17 0 0 1 0-.4v-.32a.86.86 0 0 1 0-.35 1.49 1.49 0 0 1 .1-.29.84.84 0 0 1 1-.3.68.68 0 0 1 .32.72v1.13a5.39 5.39 0 0 1 0 .72 1.31 1.31 0 0 0 0 .32v.08a1.78 1.78 0 0 1 0 .42v.46a1.32 1.32 0 0 0 0 .25v.11c.08.48.38 1.07.67.75a.17.17 0 0 1 .1-.13l.42-.48.16-.16a4.52 4.52 0 0 1 .3-.35l.11-.11a1 1 0 0 1 1.28.11 2.07 2.07 0 0 0 .46.45c.24.22.14.16.17.21a1.92 1.92 0 0 0 .27.33c.42.33.85-.33.89-.8v-2.85a1.7 1.7 0 0 1 0-.75.87.87 0 0 1 1.07-.45.66.66 0 0 1 .33.53v2.56a2.74 2.74 0 0 1 0 1v.3a.73.73 0 0 0 0 .18v1.36a.92.92 0 0 1 0 .35v1a1 1 0 0 1-.22.66.88.88 0 0 1-1.23-.19l-.06-.1a3.08 3.08 0 0 1-.32-.48l-.08-.14a3.57 3.57 0 0 0-.54-.48 1.94 1.94 0 0 0-1.34-.62 1.7 1.7 0 0 0-1.29.67 4.31 4.31 0 0 1-.46.46 3.52 3.52 0 0 0-.61.64.9.9 0 0 1-1.18.37zM570.23 149.25a.62.62 0 0 1-.35-.61 3.22 3.22 0 0 0 0-.43V147a.33.33 0 0 1 0-.18v-1.66a17.74 17.74 0 0 1 0-1.8 1.48 1.48 0 0 1 0-.38 3.17 3.17 0 0 1 0-.4v-.32a.86.86 0 0 1 0-.35 1.49 1.49 0 0 1 .1-.29.84.84 0 0 1 1-.3.68.68 0 0 1 .32.72v1.13a5.39 5.39 0 0 1 0 .72 1.31 1.31 0 0 0 0 .32v.08a1.78 1.78 0 0 1 0 .42v.46a1.32 1.32 0 0 0 0 .25v.11c.08.48.38 1.07.67.75a.16.16 0 0 1 .1-.13l.41-.48.16-.16a4.52 4.52 0 0 1 .3-.35l.11-.11a1 1 0 0 1 1.28.11 2.07 2.07 0 0 0 .46.45c.24.22.14.16.17.21a1.92 1.92 0 0 0 .27.33c.42.33.85-.33.89-.8v-2.85a1.7 1.7 0 0 1 0-.75.87.87 0 0 1 1.07-.45.66.66 0 0 1 .33.53v2.56a2.74 2.74 0 0 1 0 1v.3a.73.73 0 0 0 0 .18v1.36a.92.92 0 0 1 0 .35v1a1 1 0 0 1-.22.66.88.88 0 0 1-1.23-.19l-.06-.1a3.08 3.08 0 0 1-.32-.48l-.08-.14a3.57 3.57 0 0 0-.54-.48 1.94 1.94 0 0 0-1.34-.62 1.7 1.7 0 0 0-1.29.67 4.31 4.31 0 0 1-.46.46 3.52 3.52 0 0 0-.61.64.9.9 0 0 1-1.18.37z"/><rect class="gs33-3" x="503.99" y="130.68" width="33.16" height="19.58" rx="4.53" ry="4.53"/><rect class="gs33-4" x="499.07" y="126.34" width="38.08" height="24.18" rx="1.81" ry="1.81"/><path class="gs33-2" d="M505.48 142.95a.62.62 0 0 1-.35-.61 3.22 3.22 0 0 0 0-.43v-1.2a.33.33 0 0 1 0-.18v-1.66a17.74 17.74 0 0 1 0-1.8 1.48 1.48 0 0 1 0-.38 3.17 3.17 0 0 1 0-.4V136a.86.86 0 0 1 0-.35 1.5 1.5 0 0 1 .1-.29.84.84 0 0 1 1-.3.68.68 0 0 1 .32.72v1.13a5.38 5.38 0 0 1 0 .72 1.31 1.31 0 0 0 0 .32v.05a1.78 1.78 0 0 1 0 .42v.46a1.32 1.32 0 0 0 0 .25v.11c.08.48.38 1.07.67.75a.17.17 0 0 1 .1-.13l.42-.48.16-.16a4.53 4.53 0 0 1 .3-.35l.11-.11a1 1 0 0 1 1.28.11 2.07 2.07 0 0 0 .46.45c.24.22.14.16.17.21a1.92 1.92 0 0 0 .27.33c.42.33.85-.33.89-.8v-2.85a1.7 1.7 0 0 1 0-.75.87.87 0 0 1 1.07-.45.66.66 0 0 1 .33.53v2.56a2.74 2.74 0 0 1 0 1v.3a.73.73 0 0 0 0 .18v1.36a.93.93 0 0 1 0 .35v1a1 1 0 0 1-.22.66.88.88 0 0 1-1.23-.19l-.06-.1a3.08 3.08 0 0 1-.32-.48l-.08-.14a3.57 3.57 0 0 0-.54-.48 1.94 1.94 0 0 0-1.34-.62 1.7 1.7 0 0 0-1.29.67 4.31 4.31 0 0 1-.46.46 3.52 3.52 0 0 0-.61.64.9.9 0 0 1-1.18.37zM515.13 142.95a.62.62 0 0 1-.35-.61 3.22 3.22 0 0 0 0-.43v-1.2a.33.33 0 0 1 0-.18v-1.66a17.74 17.74 0 0 1 0-1.8 1.48 1.48 0 0 1 0-.38 3.17 3.17 0 0 1 0-.4V136a.86.86 0 0 1 0-.35 1.5 1.5 0 0 1 .1-.29.84.84 0 0 1 1-.3.68.68 0 0 1 .32.72v1.13a5.39 5.39 0 0 1 0 .72 1.31 1.31 0 0 0 0 .32v.05a1.78 1.78 0 0 1 0 .42v.46a1.32 1.32 0 0 0 0 .25v.11c.08.48.38 1.07.67.75a.16.16 0 0 1 .1-.13l.41-.48.16-.16a4.52 4.52 0 0 1 .3-.35l.11-.11a1 1 0 0 1 1.28.11 2.07 2.07 0 0 0 .46.45c.24.22.14.16.17.21a1.92 1.92 0 0 0 .27.33c.42.33.85-.33.89-.8v-2.85a1.7 1.7 0 0 1 0-.75.87.87 0 0 1 1.07-.45.66.66 0 0 1 .33.53v2.56a2.74 2.74 0 0 1 0 1v.3a.73.73 0 0 0 0 .18v1.36a.93.93 0 0 1 0 .35v1a1 1 0 0 1-.22.66.88.88 0 0 1-1.23-.19l-.06-.1a3.08 3.08 0 0 1-.32-.48l-.08-.14a3.57 3.57 0 0 0-.54-.48 1.94 1.94 0 0 0-1.34-.62 1.7 1.7 0 0 0-1.29.67 4.31 4.31 0 0 1-.46.46 3.52 3.52 0 0 0-.61.64.9.9 0 0 1-1.18.37zM524.78 142.95a.62.62 0 0 1-.35-.61 3.22 3.22 0 0 0 0-.43v-1.2a.33.33 0 0 1 0-.18v-1.66a17.74 17.74 0 0 1 0-1.8 1.48 1.48 0 0 1 0-.38 3.17 3.17 0 0 1 0-.4V136a.86.86 0 0 1 0-.35 1.5 1.5 0 0 1 .1-.29.84.84 0 0 1 1-.3.68.68 0 0 1 .32.72v1.13a5.39 5.39 0 0 1 0 .72 1.31 1.31 0 0 0 0 .32v.05a1.78 1.78 0 0 1 0 .42v.46a1.32 1.32 0 0 0 0 .25v.11c.08.48.38 1.07.67.75a.17.17 0 0 1 .1-.13l.42-.48.16-.16a4.52 4.52 0 0 1 .3-.35l.11-.11a1 1 0 0 1 1.28.11 2.07 2.07 0 0 0 .46.45c.24.22.14.16.17.21a1.92 1.92 0 0 0 .27.33c.42.33.85-.33.89-.8v-2.85a1.7 1.7 0 0 1 0-.75.87.87 0 0 1 1.07-.45.66.66 0 0 1 .33.53v2.56a2.74 2.74 0 0 1 0 1v.3a.73.73 0 0 0 0 .18v1.36a.93.93 0 0 1 0 .35v1a1 1 0 0 1-.22.66.88.88 0 0 1-1.23-.19l-.06-.1a3.08 3.08 0 0 1-.32-.48l-.08-.14a3.57 3.57 0 0 0-.54-.48 1.94 1.94 0 0 0-1.34-.62 1.7 1.7 0 0 0-1.29.67 4.31 4.31 0 0 1-.46.46 3.52 3.52 0 0 0-.61.64.9.9 0 0 1-1.18.37z"/><rect class="gs33-5" x="514.92" y="144.32" width="51.08" height="35.76" rx="8.05" ry="8.05"/><rect class="gs33-1" x="514.92" y="144.32" width="51.08" height="35.76" rx="8.05" ry="8.05"/><rect class="gs33-3" x="525.75" y="154.36" width="33.16" height="19.58" rx="4.53" ry="4.53"/><rect class="gs33-4" x="520.83" y="150.02" width="38.08" height="24.18" rx="1.81" ry="1.81"/><path class="gs33-2" d="M527.24 166.63a.62.62 0 0 1-.35-.61 3.22 3.22 0 0 0 0-.43v-1.2a.33.33 0 0 1 0-.18v-1.66a17.74 17.74 0 0 1 0-1.8 1.48 1.48 0 0 1 0-.38 3.17 3.17 0 0 1 0-.4v-.32a.86.86 0 0 1 0-.35 1.5 1.5 0 0 1 .11-.3.84.84 0 0 1 1-.3.68.68 0 0 1 .32.72v1.13a5.39 5.39 0 0 1 0 .72 1.31 1.31 0 0 0 0 .32v.08a1.78 1.78 0 0 1 0 .42v.46a1.32 1.32 0 0 0 0 .25v.11c.08.48.38 1.07.67.75a.17.17 0 0 1 .1-.13l.42-.48.16-.16a4.52 4.52 0 0 1 .3-.35l.11-.11a1 1 0 0 1 1.28.11 2.07 2.07 0 0 0 .46.45c.24.22.14.16.17.21a1.92 1.92 0 0 0 .27.33c.42.33.85-.33.89-.8v-2.85a1.7 1.7 0 0 1 0-.75.87.87 0 0 1 1.07-.45.66.66 0 0 1 .33.53v2.56a2.74 2.74 0 0 1 0 1v.3a.73.73 0 0 0 0 .18v1.31a.93.93 0 0 1 0 .35v1a1 1 0 0 1-.22.66.88.88 0 0 1-1.23-.19l-.06-.1a3.08 3.08 0 0 1-.32-.48l-.08-.14a3.57 3.57 0 0 0-.54-.48 1.94 1.94 0 0 0-1.34-.62 1.7 1.7 0 0 0-1.29.67 4.31 4.31 0 0 1-.46.46 3.52 3.52 0 0 0-.61.64.9.9 0 0 1-1.18.37zM536.89 166.63a.62.62 0 0 1-.35-.61 3.22 3.22 0 0 0 0-.43v-1.2a.33.33 0 0 1 0-.18v-1.66a17.74 17.74 0 0 1 0-1.8 1.48 1.48 0 0 1 0-.38 3.17 3.17 0 0 1 0-.4v-.32a.86.86 0 0 1 0-.35 1.5 1.5 0 0 1 .1-.29.84.84 0 0 1 1-.3.68.68 0 0 1 .32.72v1.13a5.39 5.39 0 0 1 0 .72 1.31 1.31 0 0 0 0 .32v.08a1.78 1.78 0 0 1 0 .42v.46a1.32 1.32 0 0 0 0 .25v.11c.08.48.38 1.07.67.75a.16.16 0 0 1 .1-.13l.41-.48.16-.16a4.52 4.52 0 0 1 .3-.35l.11-.11a1 1 0 0 1 1.28.11 2.07 2.07 0 0 0 .46.45c.24.22.14.16.17.21a1.92 1.92 0 0 0 .27.33c.42.33.85-.33.89-.8v-2.85a1.7 1.7 0 0 1 0-.75.87.87 0 0 1 1.07-.45.66.66 0 0 1 .33.53v2.56a2.74 2.74 0 0 1 0 1v.3a.73.73 0 0 0 0 .18v1.31a.93.93 0 0 1 0 .35v1a1 1 0 0 1-.22.66.88.88 0 0 1-1.23-.19l-.06-.1a3.08 3.08 0 0 1-.32-.48l-.08-.14a3.57 3.57 0 0 0-.54-.48 1.94 1.94 0 0 0-1.34-.62 1.7 1.7 0 0 0-1.29.67 4.31 4.31 0 0 1-.46.46 3.52 3.52 0 0 0-.61.64.9.9 0 0 1-1.18.37zM546.54 166.63a.62.62 0 0 1-.35-.61 3.22 3.22 0 0 0 0-.43v-1.2a.33.33 0 0 1 0-.18v-1.66a17.74 17.74 0 0 1 0-1.8 1.48 1.48 0 0 1 0-.38 3.17 3.17 0 0 1 0-.4v-.32a.86.86 0 0 1 0-.35 1.5 1.5 0 0 1 .1-.29.84.84 0 0 1 1-.3.68.68 0 0 1 .32.72v1.13a5.39 5.39 0 0 1 0 .72 1.31 1.31 0 0 0 0 .32v.08a1.78 1.78 0 0 1 0 .42v.46a1.32 1.32 0 0 0 0 .25v.11c.08.48.38 1.07.67.75a.17.17 0 0 1 .1-.13l.42-.48.16-.16a4.52 4.52 0 0 1 .3-.35l.11-.11a1 1 0 0 1 1.28.11 2.07 2.07 0 0 0 .46.45c.24.22.14.16.17.21a1.92 1.92 0 0 0 .27.33c.42.33.85-.33.89-.8v-2.85a1.7 1.7 0 0 1 0-.75.87.87 0 0 1 1.07-.45.66.66 0 0 1 .33.53v2.56a2.74 2.74 0 0 1 0 1v.3a.73.73 0 0 0 0 .18v1.31a.93.93 0 0 1 0 .35v1a1 1 0 0 1-.22.66.88.88 0 0 1-1.23-.19l-.06-.1a3.08 3.08 0 0 1-.32-.48l-.08-.14a3.57 3.57 0 0 0-.54-.48 1.94 1.94 0 0 0-1.34-.62 1.7 1.7 0 0 0-1.29.67 4.31 4.31 0 0 1-.46.46 3.52 3.52 0 0 0-.61.64.9.9 0 0 1-1.18.37z"/><rect class="gs33-1" x="34.47" y="69.29" width="172.12" height="250.17" rx="15" ry="15"/><path class="gs33-2" d="M70.58 196.39c0 2 1.46 2.75 3.26 2.75 2 0 2.72-1 2.72-1.94a1.53 1.53 0 0 0-1.07-1.62c-.9-.34-2.07-.58-3.83-1.06-2.2-.59-2.84-1.93-2.84-3.26 0-2.57 2.38-3.78 4.7-3.78 2.68 0 4.93 1.42 4.93 4.11h-2.26c-.11-1.66-1.22-2.27-2.77-2.27-1 0-2.36.38-2.36 1.67a1.74 1.74 0 0 0 1.53 1.66c.2.05 3 .79 3.71 1a3.4 3.4 0 0 1 2.5 3.28c0 2.88-2.56 4-5.11 4-2.93 0-5.31-1.4-5.37-4.59zM81.63 196.58a2.48 2.48 0 0 0 2.19 2.74h.31a2.16 2.16 0 0 0 2.24-1.58h2a4.08 4.08 0 0 1-4.21 3.17c-2.92 0-4.55-2-4.55-4.9 0-2.65 1.73-4.92 4.5-4.92 2.93 0 4.74 2.65 4.39 5.44zm4.74-1.38a2.4 2.4 0 1 0-4.79 0h4.79zM89.58 191.36h1.93v1.8a3 3 0 0 1 2.72-2.05 5 5 0 0 1 .77.05v2a7.31 7.31 0 0 0-.88-.09c-1.41 0-2.52 1.13-2.52 3.19v4.43h-2v-9.33z"/><path class="gs33-2" d="M94.55 191.36h2.23l2.36 7.15 2.27-7.15h2.13l-3.33 9.31h-2.3zM104.37 187.82h2.05v1.94h-2.05v-1.94zm0 3.55h2.05v9.31h-2.05v-9.31zM114.53 194.48a2 2 0 0 0-2.12-1.75c-1.06 0-2.56.56-2.56 3.38 0 1.55.69 3.19 2.47 3.19a2.21 2.21 0 0 0 2.21-2.12h2.05a4 4 0 0 1-4.23 3.75c-2.92 0-4.52-2.07-4.52-4.81s1.53-5 4.59-5c2.16 0 4 1.08 4.2 3.37h-2.05zM119.37 196.58a2.48 2.48 0 0 0 2.19 2.74h.31a2.16 2.16 0 0 0 2.27-1.55h1.94a4.08 4.08 0 0 1-4.21 3.17c-2.92 0-4.55-2-4.55-4.9 0-2.65 1.73-4.92 4.5-4.92 2.93 0 4.74 2.65 4.39 5.44h-6.84zm4.79-1.35a2.4 2.4 0 1 0-4.79 0h4.79zM128.91 197.68a1.81 1.81 0 0 0 2.09 1.62c.77 0 2.12-.16 2.07-1.22s-1.55-1.21-3-1.55-3-.86-3-2.75 2.2-2.66 3.89-2.66c1.91 0 3.64.79 3.89 2.86h-2.14a1.62 1.62 0 0 0-1.89-1.24c-.59 0-1.69.14-1.69 1s1.51 1.15 3 1.5 3 .88 3 2.72c0 2.21-2.23 3-4.16 3-2.34 0-4.09-1-4.12-3.24zM67.12 207.82h9.25v1.94h-7v3.37h6.48V215h-6.48v3.76h7.13v1.94h-9.38v-12.88zM77.72 211.36h2v1.37a3.33 3.33 0 0 1 2.9-1.66 3 3 0 0 1 3.29 3.17v6.39h-2v-5.85c0-1.46-.61-2.09-1.82-2.09a2.27 2.27 0 0 0-2.32 2.31v5.66h-2.05v-9.27zM96.37 220.67h-1.94v-1.26a3.09 3.09 0 0 1-2.88 1.51c-2.93 0-4.36-2.18-4.36-5 0-3.37 2-4.84 4-4.84a3.59 3.59 0 0 1 3.1 1.46v-4.75h2.08v12.88zm-4.59-1.37c1.84 0 2.61-1.67 2.61-3.29 0-2.05-1-3.28-2.57-3.28-1.93 0-2.61 1.71-2.61 3.38s.79 3.19 2.57 3.19zM98.21 211.36h1.94v1.22a3.11 3.11 0 0 1 2.88-1.51c2.93 0 4.36 2.23 4.36 5 0 2.5-1.26 4.86-4 4.86a3.62 3.62 0 0 1-3.12-1.46v4.65h-2.05v-12.76zm4.59 1.37c-1.73 0-2.61 1.31-2.61 3.29s1 3.28 2.61 3.28c1.87 0 2.58-1.66 2.58-3.28s-.89-3.29-2.58-3.29zM108.27 216c0-2.84 1.71-4.9 4.7-4.9s4.7 2.05 4.7 4.9-1.71 4.92-4.7 4.92-4.7-2.05-4.7-4.92zm7.35 0c0-1.6-.81-3.28-2.65-3.28s-2.65 1.67-2.65 3.28.81 3.29 2.65 3.29 2.64-1.72 2.64-3.29zM119 207.82h2v1.94h-2v-1.94zm0 3.55h2v9.31h-2v-9.31zM122.81 211.36h1.94v1.37a3.33 3.33 0 0 1 2.9-1.66 3 3 0 0 1 3.29 3.17v6.39h-2.05v-5.85c0-1.46-.61-2.09-1.82-2.09a2.27 2.27 0 0 0-2.26 2.28v5.66h-2.05zM131.76 211.36h1.55v-2.78h2.06v2.79h1.85v1.53h-1.85v5c0 .85.07 1.28 1 1.28a3.49 3.49 0 0 0 .86-.07v1.58c-.45 0-.88.11-1.33.11-2.14 0-2.54-.83-2.57-2.38v-5.49h-1.55zM72.93 244.11a14.94 14.94 0 0 1-2.59-8.3 15.34 15.34 0 0 1 2.59-8.3h1.67a16.65 16.65 0 0 0-2.21 8.3 15.9 15.9 0 0 0 2.21 8.3h-1.67zM75.37 227.82H81c3.67 0 4.38 2.38 4.38 4s-.7 4-4.38 3.94h-3.37v4.93h-2.26v-12.87zm2.25 6.09h3.29a2 2 0 0 0 2.25-2.12 1.9 1.9 0 0 0-2.16-2.12h-3.37v4.24zM86.65 231.36h1.93v1.8a3 3 0 0 1 2.79-2.05 4.94 4.94 0 0 1 .77.05v2a7.27 7.27 0 0 0-.88-.09c-1.4 0-2.52 1.13-2.52 3.19v4.43h-2.09v-9.33zM92.59 227.82h2.05v1.94h-2.05v-1.94zm0 3.55h2.05v9.31h-2.05v-9.31zM95.5 231.36h2.23l2.36 7.15 2.27-7.15h2.12l-3.33 9.31h-2.3zM113.11 238.58c0 .5.11.7.49.7a2.83 2.83 0 0 0 .5 0v1.42a5.13 5.13 0 0 1-1.3.23 1.37 1.37 0 0 1-1.58-1.13 4.78 4.78 0 0 1-3.22 1.13c-1.67 0-3.19-.9-3.19-2.72 0-2.32 1.85-2.7 3.58-2.9 1.48-.27 2.79-.11 2.79-1.31s-1.1-1.26-1.93-1.26c-1.15 0-2 .47-2.05 1.48h-2.05c.14-2.39 2.18-3.1 4.23-3.1 1.82 0 3.73.74 3.73 2.7v4.76zm-2.05-2.58a7.33 7.33 0 0 1-2.52.56c-.88.14-1.67.47-1.67 1.55 0 .92 1.17 1.19 1.89 1.19.9 0 2.3-.47 2.3-1.76V236zM113.94 231.36h1.55v-2.78h2.05v2.79h1.83v1.53h-1.85v5c0 .85.07 1.28 1 1.28a3.49 3.49 0 0 0 .86-.07v1.58c-.45 0-.88.11-1.33.11-2.14 0-2.54-.83-2.58-2.38v-5.49h-1.55zM122 236.58a2.48 2.48 0 0 0 2.19 2.74h.31a2.16 2.16 0 0 0 2.27-1.55h1.95a4.08 4.08 0 0 1-4.21 3.17c-2.92 0-4.56-2-4.56-4.9 0-2.65 1.73-4.92 4.5-4.92 2.93 0 4.74 2.65 4.39 5.44H122zm4.79-1.35a2.4 2.4 0 1 0-4.79 0h4.79z"/><path class="gs33-2" d="M130.42 227.51a15 15 0 0 1 2.59 8.32 15.24 15.24 0 0 1-2.59 8.28h-1.67a16.53 16.53 0 0 0 2.21-8.28 16 16 0 0 0-2.21-8.32h1.67zM107.24 151.23H86.37a.52.52 0 1 0 0 1h20.83a.52.52 0 1 0 0-1z"/><path class="gs33-2" d="M119.37 136.13h-8a5.17 5.17 0 0 0-.66-2.9c-1.2-2-3.84-3.1-7.85-3.12s-6.61 1-7.81 3a5.19 5.19 0 0 0-.67 3h-8a6 6 0 0 0-5.95 5.95v21.32a6 6 0 0 0 5.95 6h33a6 6 0 0 0 5.95-5.95v-21.35a6 6 0 0 0-5.96-5.95zm-22.18-1.76c.71-1.19 2.66-1.81 5.66-1.79s5 .68 5.72 1.89a2.82 2.82 0 0 1 .33 1.65h-12a2.89 2.89 0 0 1 .3-1.75zm17 26.37a7.76 7.76 0 0 1-7.26-5h-6.88l-3.16-2.25-3.62 2.51-2.82-1.61-3.45 1.12-3.29-3.05 1.1-2.72h22.31a7.77 7.77 0 1 1 7 11h.05z"/><circle class="gs33-2" cx="117.18" cy="152.97" r="1.79"/><path class="gs33-3" d="M112.37 163.47a7.76 7.76 0 0 1-7.26-5h-6.84l-3.16-2.25-3.62 2.52-2.82-1.61-3.43 1.11-3.24-3.05 1.1-2.72h22.32a7.77 7.77 0 1 1 6.95 11z"/><rect class="gs33-6" x="193.7" y="37.56" width="271.21" height="256.21" rx="3.14" ry="3.14"/><g class="gs33-7"><path class="gs33-8" d="M434 110.58h-13.09c-1.1 0-2-1.59-2-3.53 0-1.94.9-3.53 2-3.53h26.67c1.1 0 2-1.59 2-3.53 0-1.94-.9-3.53-2-3.53H422M434 124.71h-13.09c-1.1 0-2-1.59-2-3.53 0-1.94.9-3.53 2-3.53h26.67c1.1 0 2-1.59 2-3.53 0-1.94-.9-3.53-2-3.53h-13.72M434 138.85h-13.09c-1.1 0-2-1.59-2-3.53 0-1.94.9-3.53 2-3.53h26.67c1.1 0 2-1.59 2-3.53 0-1.94-.9-3.53-2-3.53h-13.72M434 153h-13.09c-1.1 0-2-1.59-2-3.53 0-1.94.9-3.53 2-3.53h26.67c1.1 0 2-1.59 2-3.53 0-1.94-.9-3.53-2-3.53h-13.72M434 167.14h-13.09c-1.1 0-2-1.59-2-3.53 0-1.94.9-3.53 2-3.53h26.67c1.1 0 2-1.59 2-3.53 0-1.94-.9-3.53-2-3.53h-13.72M434 181.29h-13.09c-1.1 0-2-1.59-2-3.53 0-1.94.9-3.53 2-3.53h26.67c1.1 0 2-1.59 2-3.53 0-1.94-.9-3.53-2-3.53h-13.72"/><path class="gs33-8" d="M434 195.28h-13.09c-1.1 0-2-1.59-2-3.53 0-1.94.9-3.53 2-3.53h26.67c1.1 0 2-1.59 2-3.53 0-1.94-.9-3.53-2-3.53h-13.72M434 209.42h-13.09c-1.1 0-2-1.59-2-3.53 0-1.94.9-3.53 2-3.53h26.67c1.1 0 2-1.59 2-3.53 0-1.94-.9-3.53-2-3.53h-13.72M434 223.58h-13.09c-1.1 0-2-1.59-2-3.53 0-1.94.9-3.53 2-3.53h26.67c1.1 0 2-1.59 2-3.53 0-1.94-.9-3.53-2-3.53h-13.72M434 237.71h-13.09c-1.1 0-2-1.59-2-3.53 0-1.94.9-3.53 2-3.53h26.67c1.1 0 2-1.59 2-3.53 0-1.94-.9-3.53-2-3.53h-13.72M434 82.25h-13.09c-1.1 0-2-1.59-2-3.53 0-1.94.9-3.53 2-3.53h26.67c1.1 0 2-1.59 2-3.53 0-1.94-.9-3.53-2-3.53h-13.72M434.07 68.11H421c-1.1 0-2-1.59-2-3.53 0-1.94.9-3.53 2-3.53h26.67c1.1 0 2-1.59 2-3.53 0-1.94-.9-3.53-2-3.53h-13.73M434 96.4h-13.09c-1.1 0-2-1.59-2-3.53 0-1.94.9-3.53 2-3.53h26.67c1.1 0 2-1.59 2-3.53 0-1.94-.9-3.53-2-3.53h-13.72"/><path class="gs33-8" d="M434 251.78h-13.09c-1.1 0-2-1.59-2-3.53 0-1.94.9-3.53 2-3.53h26.67c1.1 0 2-1.59 2-3.53 0-1.94-.9-3.53-2-3.53h-13.72M420.91 258.86h26.67c1.1 0 2-1.59 2-3.53 0-1.94-.9-3.53-2-3.53h-13.72"/></g><path class="gs33-5" d="M414.99 253.93h38.91v14.5h-38.91z"/><g class="gs33-9"><path class="gs33-10" d="M418.46 260.35h3.75c1.72 0 2.6.79 2.6 2.12a1.91 1.91 0 0 1-1.3 2 1.44 1.44 0 0 1 1.17 1.66 3.57 3.57 0 0 0 .43 2.07h-1.47a2.2 2.2 0 0 1-.21-1.16c0-1.44-.3-2.08-1.56-2.08h-2v3.23h-1.37zm1.38 3.58h2.26a1.16 1.16 0 0 0 1.34-1.26 1.13 1.13 0 0 0-1.36-1.2h-2.23v2.46zM425.76 265.35a2.87 2.87 0 1 1 2.87 3 2.75 2.75 0 0 1-2.87-3zm4.49 0a1.66 1.66 0 1 0-1.62 2 1.75 1.75 0 0 0 1.62-2zM437.55 268.2h-1.23v-.79a1.91 1.91 0 0 1-1.62 1c-1.49 0-2.12-.75-2.12-2.23v-3.61h1.25V266c0 1 .41 1.37 1.09 1.37a1.34 1.34 0 0 0 1.4-1.55v-3.3h1.25zM438.29 262.51h1v-1.71h1.25v1.71h1.13v.93h-1.13v3c0 .52 0 .78.61.78a2.11 2.11 0 0 0 .53 0v1c-.28 0-.54.07-.81.07-1.31 0-1.55-.51-1.57-1.45v-3.36h-1v-1zM443.51 265.68a1.51 1.51 0 0 0 1.33 1.67h.16a1.32 1.32 0 0 0 1.39-1h1.19a2.49 2.49 0 0 1-2.58 1.94 2.7 2.7 0 0 1-2.78-3 2.75 2.75 0 1 1 5.44.32h-4.19zm2.93-.83a1.46 1.46 0 0 0-2.93 0h2.93zM448.64 262.51h1.18v1.07a1.83 1.83 0 0 1 1.66-1.25 2.87 2.87 0 0 1 .47 0v1.25a4.55 4.55 0 0 0-.54 0c-.86 0-1.54.69-1.54 2v2.71h-1.25z"/></g><rect class="gs33-11" x="193.78" y="335.3" width="81.49" height="32.75" rx="3.14" ry="3.14"/><rect class="gs33-11" x="375.83" y="335.3" width="81.49" height="32.75" rx="3.14" ry="3.14"/><path class="gs33-12" d="M210.26 341.78h2.61c2.35 0 3.66 1.17 3.66 3.63s-1.12 4-3.66 4h-2.61v-7.63zm1 6.76H213c.69 0 2.56-.19 2.56-3 0-1.81-.67-2.91-2.54-2.91h-1.7v5.91zM218.3 342.89h-.93v-1.11h.91zm-.91 1h.91v5.51h-.93zM220 347.65a1.22 1.22 0 0 0 1.48 1.07c.57 0 1.33-.13 1.33-.82s-.9-.82-1.8-1-1.8-.5-1.8-1.56a1.84 1.84 0 0 1 2.06-1.57c1.22 0 2.19.38 2.26 1.73h-.91a1.11 1.11 0 0 0-1.28-.93c-.6 0-1.17.15-1.17.7s1 .76 1.8 1 1.8.5 1.8 1.57c0 1.31-1.23 1.74-2.35 1.74s-2.28-.5-2.33-1.87zM225.77 343.88h1.1v.8h-1.1v3.42c0 .42.12.49.68.49h.42v.8h-.69c-.94 0-1.31-.19-1.31-1.21v-3.5h-.94v-.8h.94v-1.65h.91v1.65zM227.57 343.88h.8V345a2 2 0 0 1 2-1.29v1c-1.46 0-2 .83-2 2.23v2.45h-.91zM231.84 342.89h-.91v-1.11h.91v1.11zm-.91 1h.91v5.51h-.91v-5.51zM233 341.78h.91v2.8a1.86 1.86 0 0 1 1.76-.87c1.7 0 2.54 1.34 2.54 2.9s-.83 2.87-2.52 2.87a2.11 2.11 0 0 1-1.78-.86v.74H233v-7.58zm2.56 2.8c-1.22 0-1.69 1-1.69 2.08s.49 2.09 1.74 2.09 1.65-1.06 1.65-2.13a1.77 1.77 0 0 0-1.69-2.04zM243.6 349.39h-.85v-.87a1.92 1.92 0 0 1-1.79 1 1.71 1.71 0 0 1-1.9-2v-3.64h.94v3.7a1 1 0 0 0 1.12 1.11 1.55 1.55 0 0 0 1.63-1.73v-3.08h.91zM246 343.88h1.1v.8H246v3.42c0 .42.12.49.68.49h.42v.8h-.69c-.94 0-1.31-.19-1.31-1.21v-3.5h-.94v-.8h.94v-1.65h.9v1.65zM252.49 347.64a2.22 2.22 0 0 1-2.36 1.88c-1.76 0-2.59-1.22-2.65-2.9a2.65 2.65 0 0 1 2.42-2.86h.17c2 0 2.55 1.82 2.5 3.16h-4.13a1.62 1.62 0 0 0 1.41 1.8h.31a1.33 1.33 0 0 0 1.43-1.08h.9zm-.88-1.54a1.58 1.58 0 0 0-3.17 0h3.17zM258.17 349.39h-.91v-.75a1.86 1.86 0 0 1-1.76.88c-1.7 0-2.54-1.34-2.54-2.9s.83-2.87 2.52-2.87a2.11 2.11 0 0 1 1.78.86v-2.83h.91v7.61zm-2.56-.67c1.22 0 1.68-1 1.68-2.08s-.49-2.09-1.74-2.09-1.65 1.06-1.65 2.13a1.79 1.79 0 0 0 1.71 2zM210.81 352.79h2.61c2.35 0 3.66 1.17 3.66 3.63s-1.12 4-3.66 4h-2.61v-7.63zm1 6.76h1.69c.69 0 2.56-.19 2.56-3 0-1.81-.67-2.91-2.54-2.91h-1.71v5.91zM222.79 360.38a1.22 1.22 0 0 1-.65.15.73.73 0 0 1-.77-.85 2.45 2.45 0 0 1-1.94.85 1.56 1.56 0 0 1-1.82-1.55c0-1.1.93-1.51 1.87-1.7s1.86-.13 1.86-.81a1 1 0 0 0-1.23-.92 1.13 1.13 0 0 0-1.38 1h-.91c.05-1.37 1.11-1.85 2.34-1.85 1 0 2.07.22 2.07 1.51V359c0 .43 0 .62.29.62a.77.77 0 0 0 .28 0v.76zm-1.47-2.8a4.66 4.66 0 0 1-1.64.37 1.06 1.06 0 0 0-1.11 1 .85.85 0 0 0 1.07.81 1.48 1.48 0 0 0 1.69-1.25v-.93zM224.62 354.89h1.1v.8h-1.1v3.42c0 .42.12.49.68.49h.42v.8H225c-.94 0-1.31-.19-1.31-1.21v-3.51h-.94v-.8h.94v-1.65h.91v1.66zM231.37 360.38a1.22 1.22 0 0 1-.65.15.73.73 0 0 1-.77-.85 2.45 2.45 0 0 1-1.94.85 1.56 1.56 0 0 1-1.82-1.55c0-1.1.93-1.51 1.87-1.7s1.86-.13 1.86-.81a1 1 0 0 0-1.23-.92 1.13 1.13 0 0 0-1.38 1h-.94c.05-1.37 1.11-1.85 2.34-1.85 1 0 2.07.22 2.07 1.51V359c0 .43 0 .62.29.62a.77.77 0 0 0 .28 0zm-1.5-2.8a4.66 4.66 0 0 1-1.64.37 1.06 1.06 0 0 0-1.11 1 .85.85 0 0 0 1.07.81 1.48 1.48 0 0 0 1.69-1.25v-.93zM239.16 355a1.66 1.66 0 0 0-1.74-1.57h-.15c-.85 0-1.71.31-1.71 1.3s1.22 1.08 2.44 1.35 2.43.7 2.43 2.2-1.59 2.27-3 2.27c-1.71 0-3.15-.83-3.15-2.69h1c0 1.28 1.07 1.83 2.22 1.83.92 0 1.93-.29 1.93-1.39s-1.22-1.23-2.43-1.49-2.44-.62-2.44-2 1.38-2.23 2.76-2.23c1.56 0 2.74.74 2.81 2.41h-1zM242.51 354.89h1.1v.8h-1.1v3.42c0 .42.12.49.68.49h.42v.8h-.69c-.94 0-1.31-.19-1.31-1.21v-3.51h-.94v-.8h.94v-1.65h.91v1.66zM246.72 354.76a2.89 2.89 0 1 1-2.67 3.09v-.2a2.62 2.62 0 0 1 2.33-2.88h.35zm0 5a2.12 2.12 0 1 0-1.72-2.08 1.79 1.79 0 0 0 1.72 2zM250.16 354.89h.84V356a2 2 0 0 1 2-1.29v1c-1.46 0-2 .83-2 2.23v2.45h-.9zM258 358.66a2.22 2.22 0 0 1-2.36 1.88c-1.76 0-2.59-1.22-2.65-2.9a2.65 2.65 0 0 1 2.42-2.86h.17c2 0 2.55 1.82 2.5 3.16h-4.13a1.62 1.62 0 0 0 1.41 1.8h.31a1.33 1.33 0 0 0 1.43-1.08h.9zm-.87-1.54a1.59 1.59 0 1 0-3.17 0h3.17zM400.55 347.16h3.34a2.25 2.25 0 0 1 0 4.5h-2.33v3.11h-1v-7.61zm1 3.65h2c1.14 0 1.66-.49 1.66-1.4s-.52-1.4-1.66-1.4h-2v2.8zM407.1 347.16h.9v7.62h-.9v-7.62zM413.71 354.78h-.85v-.87a1.92 1.92 0 0 1-1.79 1 1.71 1.71 0 0 1-1.9-2v-3.63h.91V353a1 1 0 0 0 1.12 1.11 1.55 1.55 0 0 0 1.63-1.73v-3.12h.91zM419.56 354.31c0 1.79-.82 2.71-2.56 2.71-1 0-2.23-.42-2.28-1.62h.91c0 .66.83.9 1.43.9 1.18 0 1.65-.85 1.65-2.09v-.36a1.84 1.84 0 0 1-1.72 1 2.5 2.5 0 0 1-2.46-2.79c0-1.3.64-2.91 2.55-2.91a1.8 1.8 0 0 1 1.64.92v-.79h.85v5zm-.9-2.4c0-1-.43-2-1.57-2a1.75 1.75 0 0 0-1.63 2c0 1 .36 2.1 1.56 2.1s1.64-1.07 1.64-2.1zM421.62 348.27h-.91v-1.11h.91v1.11zm-.91 1h.91v5.51h-.91v-5.51zM422.76 349.26h.85v.88a1.92 1.92 0 0 1 1.79-1 1.71 1.71 0 0 1 1.9 2v3.63h-.93V351a1 1 0 0 0-1.12-1.11 1.55 1.55 0 0 0-1.63 1.73v3.11h-.91zM429 353a1.22 1.22 0 0 0 1.48 1.07c.57 0 1.33-.13 1.33-.82s-.9-.82-1.8-1-1.8-.5-1.8-1.56a1.84 1.84 0 0 1 2.06-1.57c1.22 0 2.19.38 2.26 1.73h-.91a1.11 1.11 0 0 0-1.28-.93c-.6 0-1.17.15-1.17.7s1 .76 1.8 1 1.8.5 1.8 1.57c0 1.31-1.23 1.74-2.35 1.74s-2.28-.5-2.33-1.87z"/><rect class="gs33-11" x="193.17" y="302.04" width="264.87" height="25.49" rx="3.14" ry="3.14"/><path class="gs33-12" d="M255.54 312.91a2.63 2.63 0 0 0-2.8-2.13c-2.38 0-3.39 2-3.39 4 0 2.28 1 4.19 3.4 4.19a2.83 2.83 0 0 0 2.89-2.77v-.11H257a4.07 4.07 0 0 1-4.13 4h-.2c-3.11 0-4.62-2.3-4.62-5.21s1.65-5.27 4.73-5.27a3.83 3.83 0 0 1 4.12 3.25zM264.46 317.58a2.92 2.92 0 0 1-3.1 2.46c-2.31 0-3.4-1.6-3.47-3.81a3.49 3.49 0 0 1 3.2-3.76h.2c2.56 0 3.35 2.39 3.28 4.15h-5.42a2.13 2.13 0 0 0 2.26 2.38 1.75 1.75 0 0 0 1.88-1.41h1.17zm-1.15-2a2.08 2.08 0 1 0-4.16 0h4.16zM265.66 312.66h1.12v1.15a2.52 2.52 0 0 1 2.35-1.32c1.91 0 2.49 1.09 2.49 2.65v4.76h-1.15V315a1.36 1.36 0 0 0-1.25-1.46H269a2 2 0 0 0-2.14 2.27v4.09h-1.19v-7.24zM275 312.66h1.41v1h-1.44v4.5c0 .55.15.64.9.64h.54v1h-.91c-1.23 0-1.72-.25-1.72-1.58v-4.61h-1.23v-1h1.23v-2.17h1.19zM277.54 312.66h1.12v1.53a2.63 2.63 0 0 1 2.66-1.7v1.26c-1.92 0-2.62 1.09-2.62 2.93v3.22h-1.19zM288.51 319.87a1.6 1.6 0 0 1-.85.2 1 1 0 0 1-1-1.12 3.21 3.21 0 0 1-2.55 1.12c-1.32 0-2.4-.59-2.4-2 0-1.64 1.22-2 2.45-2.23s2.44-.17 2.44-1.06a1.38 1.38 0 0 0-1.61-1.21c-1 0-1.75.31-1.81 1.37H282c.07-1.79 1.46-2.42 3.07-2.42 1.3 0 2.72.29 2.72 2v3.73c0 .56 0 .81.38.81a1 1 0 0 0 .36-.07v.88zm-1.93-3.71a6.15 6.15 0 0 1-2.16.49c-.78.14-1.46.42-1.46 1.3s.67 1.06 1.4 1.06c1.57 0 2.21-1 2.21-1.64v-1.21zM289.55 309.9h1.19v10h-1.19v-10zM293.7 311.36h-1.19v-1.46h1.19v1.46zm-1.19 1.3h1.19v7.24h-1.19v-7.24zM294.82 319l4.37-5.28h-4.09v-1h5.63v.81l-4.43 5.38h4.62v1h-6.11V319zM308.17 317.58a2.92 2.92 0 0 1-3.1 2.46c-2.31 0-3.4-1.6-3.47-3.81a3.49 3.49 0 0 1 3.2-3.76h.2c2.56 0 3.35 2.39 3.28 4.15h-5.42a2.13 2.13 0 0 0 2.26 2.38 1.75 1.75 0 0 0 1.88-1.41h1.17zm-1.15-2a2.08 2.08 0 1 0-4.16 0H307zM315.84 319.9h-1.19v-1a2.44 2.44 0 0 1-2.31 1.15c-2.23 0-3.33-1.77-3.33-3.81s1.09-3.77 3.31-3.77a2.77 2.77 0 0 1 2.34 1.13v-3.73h1.19v10zm-3.36-.88c1.6 0 2.21-1.37 2.21-2.73s-.64-2.71-2.32-2.71-2.17 1.39-2.17 2.8.74 2.64 2.28 2.64zM328.51 312.91a2.63 2.63 0 0 0-2.8-2.13c-2.38 0-3.39 2-3.39 4 0 2.28 1 4.19 3.4 4.19a2.83 2.83 0 0 0 2.89-2.77v-.11h1.33a4.07 4.07 0 0 1-4.13 4h-.2c-3.11 0-4.62-2.3-4.62-5.21s1.65-5.27 4.73-5.27a3.83 3.83 0 0 1 4.12 3.25zM334.37 312.49c2.3 0 3.52 1.67 3.52 3.79s-1.22 3.78-3.52 3.78-3.52-1.67-3.52-3.78 1.23-3.79 3.52-3.79zm0 6.53c1.25 0 2.25-1 2.25-2.73s-1-2.74-2.25-2.74-2.26 1-2.26 2.74 1.02 2.71 2.26 2.71zM339.15 312.66h1.12v1.15a2.52 2.52 0 0 1 2.35-1.32c1.91 0 2.49 1.09 2.49 2.65v4.76h-1.19V315a1.36 1.36 0 0 0-1.25-1.46h-.22a2 2 0 0 0-2.14 2.27v4.09h-1.19zM347.28 313.71h-1.22v-1h1.22v-1.08c0-1.18.7-1.79 2-1.79a2.91 2.91 0 0 1 .77.11v1a2.22 2.22 0 0 0-.67-.1.74.74 0 0 0-.91.81v1h1.4v1h-1.4v6.19h-1.19v-6.14zM352.05 311.36h-1.19v-1.46h1.19v1.46zm-1.19 1.3h1.19v7.24h-1.19v-7.24zM360 319.29c0 2.35-1.08 3.56-3.36 3.56-1.36 0-2.93-.55-3-2.13h1.19c.06.87 1.09 1.18 1.88 1.18 1.55 0 2.17-1.12 2.17-2.75v-.47a2.42 2.42 0 0 1-2.25 1.32c-2.16 0-3.24-1.7-3.24-3.67 0-1.71.84-3.82 3.35-3.82a2.36 2.36 0 0 1 2.16 1.21v-1h1.1zm-1.18-3.15c0-1.28-.56-2.59-2.06-2.59s-2.14 1.25-2.14 2.63.48 2.76 2 2.76 2.2-1.45 2.2-2.8zM367.65 319.9h-1.12v-1.15a2.52 2.52 0 0 1-2.35 1.32c-1.91 0-2.49-1.09-2.49-2.65v-4.76h1.19v4.92a1.36 1.36 0 0 0 1.25 1.46h.22a2 2 0 0 0 2.14-2.27v-4.09h1.19zM369.26 312.66h1.11v1.53a2.63 2.63 0 0 1 2.66-1.7v1.26c-1.92 0-2.62 1.09-2.62 2.93v3.22h-1.19zM380.24 319.87a1.6 1.6 0 0 1-.85.2 1 1 0 0 1-1-1.12 3.21 3.21 0 0 1-2.55 1.12c-1.32 0-2.4-.59-2.4-2 0-1.64 1.22-2 2.45-2.23s2.44-.17 2.44-1.06a1.38 1.38 0 0 0-1.61-1.21c-1 0-1.75.31-1.81 1.37h-1.19c.07-1.79 1.46-2.42 3.07-2.42 1.3 0 2.72.29 2.72 2v3.73c0 .56 0 .81.38.81a1 1 0 0 0 .36-.07v.88zm-1.93-3.71a6.15 6.15 0 0 1-2.16.49c-.78.14-1.46.42-1.46 1.3s.67 1.06 1.4 1.06c1.57 0 2.21-1 2.21-1.64v-1.21zM382.85 312.66h1.44v1h-1.44v4.5c0 .55.15.64.9.64h.55v1h-.93c-1.23 0-1.72-.25-1.72-1.58v-4.61h-1.23v-1h1.23v-2.17h1.19v2.17zM386.73 311.36h-1.19v-1.46h1.19v1.46zm-1.19 1.3h1.19v7.24h-1.19v-7.24zM391.56 312.49c2.3 0 3.52 1.67 3.52 3.79s-1.22 3.78-3.52 3.78-3.52-1.67-3.52-3.78 1.22-3.79 3.52-3.79zm0 6.53c1.25 0 2.25-1 2.25-2.73s-1-2.74-2.25-2.74-2.26 1-2.26 2.74 1.02 2.71 2.26 2.71zM396.37 312.66h1.12v1.15a2.52 2.52 0 0 1 2.35-1.32c1.91 0 2.49 1.09 2.49 2.65v4.76h-1.19V315a1.36 1.36 0 0 0-1.29-1.42h-.18a2 2 0 0 0-2.14 2.27v4.09h-1.16v-7.28z"/><path class="gs33-10" d="M206 274.74h6.91v1.12h-5.58V279h5.2v1.12h-5.2v3.42h5.62v1.12H206v-10zM215.91 280.93l-2.54-3.43h1.53l1.74 2.54 1.81-2.54h1.43l-2.51 3.33 2.8 3.91h-1.5l-2-3-2 3h-1.44zM220.91 277.5h1.19v1a2.44 2.44 0 0 1 2.31-1.15c2.23 0 3.33 1.76 3.33 3.81s-1.09 3.77-3.31 3.77a2.77 2.77 0 0 1-2.34-1.13v3.74h-1.19v-10zm3.36.88c-1.6 0-2.21 1.37-2.21 2.73s.64 2.75 2.28 2.75 2.17-1.39 2.17-2.8-.7-2.68-2.24-2.68zM228.78 277.5h1.12v1.5a2.63 2.63 0 0 1 2.66-1.7v1.25c-1.92 0-2.62 1.09-2.62 2.93v3.22h-1.19zM239.06 282.44a2.92 2.92 0 0 1-3.1 2.46c-2.31 0-3.4-1.6-3.47-3.81a3.49 3.49 0 0 1 3.2-3.76h.2c2.56 0 3.35 2.4 3.28 4.15h-5.42a2.13 2.13 0 0 0 2.25 2.38 1.74 1.74 0 0 0 1.88-1.41h1.18zm-1.15-2a2.08 2.08 0 1 0-4.16 0h4.16zM240.78 282.45c0 1.06 1 1.4 1.95 1.4.74 0 1.75-.17 1.75-1.08s-1.18-1.08-2.37-1.34-2.37-.66-2.37-2 1.44-2.06 2.7-2.06c1.6 0 2.87.5 3 2.27h-1.19a1.46 1.46 0 0 0-1.68-1.22c-.78 0-1.54.2-1.54.92s1.26 1 2.37 1.26 2.37.66 2.37 2.06c0 1.72-1.61 2.28-3.08 2.28s-3-.66-3.07-2.45zM247.43 282.45c0 1.06 1 1.4 1.95 1.4.74 0 1.75-.17 1.75-1.08s-1.18-1.08-2.37-1.34-2.37-.66-2.37-2 1.44-2.06 2.7-2.06c1.6 0 2.87.5 3 2.27h-1.22a1.46 1.46 0 0 0-1.68-1.22c-.78 0-1.54.2-1.54.92s1.26 1 2.37 1.26 2.37.66 2.37 2.06c0 1.72-1.61 2.28-3.08 2.28s-3-.66-3.07-2.45zM257.09 274.74h4.71c1.88 0 3 1 3 2.62a2.4 2.4 0 0 1-1.74 2.54c1.16.22 1.4 1.08 1.5 2.06a5.13 5.13 0 0 0 .59 2.76h-1.48c-.38-.41-.17-1.48-.36-2.47s-.38-1.81-1.67-1.81h-3.27v4.27H257zm4.1 4.61c1.25 0 2.31-.32 2.31-1.78a1.58 1.58 0 0 0-1.78-1.71h-3.35v3.49h2.82zM272.12 284.74H271v-1.16a2.52 2.52 0 0 1-2.35 1.32c-1.9 0-2.49-1.09-2.49-2.65v-4.76h1.19v4.9a1.36 1.36 0 0 0 1.25 1.46h.22a2 2 0 0 0 2.14-2.27v-4.09h1.19zM273.56 277.5h1.12v1.15a2.52 2.52 0 0 1 2.35-1.32c1.9 0 2.49 1.09 2.49 2.65v4.76h-1.15v-4.9a1.36 1.36 0 0 0-1.25-1.46h-.22a2 2 0 0 0-2.14 2.27v4.09h-1.19v-7.24zM282.65 277.5h1.44v1.08h-1.44v4.5c0 .55.15.64.9.64h.55v1h-.91c-1.23 0-1.72-.25-1.72-1.58v-4.61h-1.23v-1h1.23v-2.17h1.19v2.14zM286.32 276.19h-1.19v-1.46h1.19v1.46zm-1.19 1.3h1.19v7.24h-1.19v-7.24zM287.82 277.5h1.12v1.08a2.67 2.67 0 0 1 2.34-1.23 1.92 1.92 0 0 1 2 1.23 2.68 2.68 0 0 1 2.27-1.23c1.44 0 2.41.6 2.41 2.1v5.31h-1.19V280c0-.9-.24-1.61-1.4-1.61a1.75 1.75 0 0 0-1.89 1.85v4.51h-1.19V280c0-.94-.29-1.61-1.36-1.61a2 2 0 0 0-1.93 1.85v4.51h-1.19v-7.25zM305.58 282.44a2.92 2.92 0 0 1-3.1 2.46c-2.31 0-3.4-1.6-3.47-3.81a3.49 3.49 0 0 1 3.2-3.76h.2c2.56 0 3.35 2.4 3.28 4.15h-5.42a2.13 2.13 0 0 0 2.25 2.38 1.74 1.74 0 0 0 1.88-1.41h1.18zm-1.15-2a2.08 2.08 0 1 0-4.16 0h4.16z"/><path class="gs33-5" d="M203.99 267.51h11.87v2.09h-11.87z"/><path class="gs33-10" d="M212.67 73.5h.83v.83h-.83v-.83zM214.56 73.5h.81v.83h-.83zM216.44 73.5h.83v.83h-.83v-.83z"/><path class="gs33-13" d="M211.24 60.66h7.16M211.89 261.67h6.91"/><path class="gs33-14" d="M175.82.07V424.7h306.94V.07H175.82zm197 401.51h-94.5v-71.5h94.5v71.5z"/><path class="gs33-13" d="M398.48 261.66h-.27c.25.68.5.08.76.08 3 0 5.4-45.71 5.4-103.26S402 54.26 399 54.26a.67.67 0 0 0-.49.43"/><path class="gs33-13" d="M398.48 54.69v-1.47H211v.13c-2.51 8.91-4.42 54-4.42 105.13S208.49 256 211 261a1.65 1.65 0 0 0 1.74.69h185.47c-2.62-7.14-4.64-50.61-4.64-103.18 0-54.4 2.16-99.03 4.91-103.82z"/><rect class="gs33-15" x="240.88" y="62.98" width="66.55" height="181.17" rx="2.9" ry="2.9"/><path class="gs33-10" d="M260.84 82.51h3.44a2.32 2.32 0 0 1 0 4.64h-2.4v3.21h-1zm1 3.76h2c1.18 0 1.72-.51 1.72-1.44s-.54-1.44-1.72-1.44h-2v2.88zM270 84.58a3 3 0 1 1-2.75 3.23v-.23a2.7 2.7 0 0 1 2.38-3zm0 5.13a1.86 1.86 0 0 0 1.77-2.15 1.81 1.81 0 1 0-3.54 0 1.83 1.83 0 0 0 1.77 2.11zM273.63 82.51h.94v7.86h-.94v-7.86zM276.73 83.65h-.94v-1.14h.94v1.14zm-.94 1h.94v5.69h-.94v-5.69zM281.77 86.5a1.32 1.32 0 0 0-1.4-1.13c-1.35 0-1.77 1.07-1.77 2.22s.47 2.08 1.66 2.08a1.47 1.47 0 0 0 1.56-1.38h1a2.36 2.36 0 0 1-2.5 2.21 2.59 2.59 0 0 1-2.66-2.9c0-1.71.88-3 2.68-3a2.18 2.18 0 0 1 2.44 1.89v.11zM285.77 91.12c-.43 1.11-.81 1.52-1.65 1.52a1.88 1.88 0 0 1-.65-.1v-.86a1.93 1.93 0 0 0 .55.13.81.81 0 0 0 .77-.52l.39-1-2.26-5.65H284l1.66 4.65 1.6-4.65h1z"/><rect class="gs33-5" x="250.44" y="111.93" width="47.44" height="106.13" rx="2.9" ry="2.9"/><path class="gs33-12" d="M258.57 157.74h4.09c2.65 0 3.16 1.72 3.16 2.87s-.51 2.86-3.16 2.85h-2.47V167h-1.62v-9.28zm1.63 4.39h2.38a1.48 1.48 0 0 0 1.63-1.53 1.38 1.38 0 0 0-1.6-1.53h-2.41v3.06zM266.71 160.3h1.39v1.28a2.17 2.17 0 0 1 2-1.48 3.56 3.56 0 0 1 .56 0v1.48a5.41 5.41 0 0 0-.64-.06c-1 0-1.82.82-1.82 2.3V167h-1.48v-6.7zM270.37 163.65a3.4 3.4 0 1 1 3.39 3.55 3.25 3.25 0 0 1-3.39-3.55zm5.3 0c0-1.16-.58-2.37-1.91-2.37s-1.91 1.21-1.91 2.37.58 2.38 1.91 2.38a2.12 2.12 0 0 0 2-2.38h-.05z"/><path class="gs33-12" d="M279.92 163.49l-2.33-3.19h1.78l1.4 2.07 1.47-2.07H284l-2.29 3.11 2.57 3.61h-1.78l-1.7-2.48-1.69 2.46h-1.74zM284 160.3h1.63l1.75 5 1.7-5h1.55l-2.61 7.09c-.48 1.21-.83 2.3-2.38 2.3a6.74 6.74 0 0 1-1-.08v-1.25a4.32 4.32 0 0 0 .7.09.94.94 0 0 0 1-.94l.17-.52z"/><rect class="gs33-15" x="314.21" y="62.98" width="66.55" height="181.17" rx="2.9" ry="2.9"/><path class="gs33-10" d="M334.17 82.51h3.44a2.32 2.32 0 0 1 0 4.64h-2.4v3.21h-1zm1 3.76h2c1.18 0 1.72-.51 1.72-1.44s-.54-1.44-1.72-1.44h-2v2.88zM343.37 84.58a3 3 0 1 1-2.75 3.23v-.23a2.7 2.7 0 0 1 2.38-3zm0 5.13a1.86 1.86 0 0 0 1.77-2.15 1.81 1.81 0 1 0-3.54 0 1.82 1.82 0 0 0 1.77 2.11zM347 82.51h.94v7.86H347v-7.86zM350.07 83.65h-.94v-1.14h.94v1.14zm-.94 1h.94v5.69h-.94v-5.69zM355.1 86.5a1.32 1.32 0 0 0-1.41-1.13c-1.35 0-1.77 1.07-1.77 2.22s.47 2.08 1.66 2.08a1.47 1.47 0 0 0 1.56-1.38h1a2.36 2.36 0 0 1-2.5 2.21 2.59 2.59 0 0 1-2.66-2.9c0-1.71.88-3 2.68-3a2.18 2.18 0 0 1 2.45 1.88v.12zM359.11 91.12c-.43 1.11-.81 1.52-1.65 1.52a1.89 1.89 0 0 1-.65-.1v-.86a1.94 1.94 0 0 0 .55.13.81.81 0 0 0 .77-.52l.39-1-2.26-5.65h1.06l1.68 4.65 1.6-4.65h1z"/><rect class="gs33-5" x="323.77" y="111.94" width="47.44" height="106.13" rx="2.9" ry="2.9"/><path class="gs33-12" d="M337.37 152.86H339v4.22l4.13-4.22h2l-3.71 3.72 4 5.58h-2l-3-4.43-1.33 1.27v3.12h-1.72v-9.3zM346.89 159.16a1.79 1.79 0 0 0 1.57 2h.24a1.56 1.56 0 0 0 1.64-1.12h1.4a2.94 2.94 0 0 1-3 2.29c-2.11 0-3.29-1.47-3.29-3.54a3.25 3.25 0 1 1 6.42.38h-5zm3.46-1a1.73 1.73 0 0 0-3.46 0h3.46zM351.9 155.42h1.63l1.75 5 1.7-5h1.55l-2.61 7.09c-.48 1.21-.83 2.3-2.38 2.3a6.73 6.73 0 0 1-1-.08v-1.25a4.33 4.33 0 0 0 .7.09.94.94 0 0 0 1-.94l.17-.52zM337.49 166.1h1.73l3.58 9.28h-1.74l-.87-2.46h-3.72l-.87 2.46h-1.68zm-.57 5.59h2.83l-1.39-4zM349.05 175.39h-1.46v-.94a2.26 2.26 0 0 1-1.91 1.12c-1.75 0-2.51-.88-2.51-2.64v-4.26h1.48v4.12c0 1.18.48 1.61 1.29 1.61a1.55 1.55 0 0 0 1.65-1.83v-3.9h1.48zM349.6 168.66h1.12v-2h1.48v2h1.34v1.11h-1.34v3.59c0 .61 0 .92.71.92a2.54 2.54 0 0 0 .62-.05v1.14c-.33 0-.64.08-1 .08-1.55 0-1.83-.6-1.86-1.72v-4h-1.12zM354.29 166.1h1.48v3.48a2.35 2.35 0 0 1 2-1.07 2.13 2.13 0 0 1 2.38 2.29v4.62h-1.48v-4.23a1.24 1.24 0 0 0-1.31-1.51 1.64 1.64 0 0 0-1.63 1.65v4.12h-1.48z"/><path class="gs33-11" d="M216.65 53.22h8.41c-.86-.11-4.89-.07-8.41 0zM225.2 53.34l175.12-.12H225.05h.17zM211.05 53.22v.13l5.59-.13h-5.59zM258.37 261.66H257a10.67 10.67 0 0 0 1.37 0z"/><path class="gs33-11" d="M400.37 261.31l-3.18-19.36H275.86c-13.69 0-31.53-1.73-43.63-19.36-11.3-16.47-15.92-48-15.92-71.85 0-33.21-2-87.31 34.76-97.4h-40c-2.54 8.91-4.46 46.14-4.46 97.22s1.92 105.39 4.46 110.4a1.67 1.67 0 0 0 1.76.69h44.11a18.57 18.57 0 0 1-2.63-.35h146.06z"/><path class="gs33-5" d="M220.1 247h4.07a2.75 2.75 0 0 1 .33 5.49h-3.13v3.8h-1.23zm1.27 4.45h2.42c1.39 0 2-.6 2-1.7s-.64-1.7-2-1.7h-2.42v3.4zM229.19 248.39h-1.11V247h1.11v1.35zm-1.11 1.19h1.11v6.72h-1.11v-6.72zM230.62 249.58h1.11v.91a2.27 2.27 0 0 1 2.15-1.07c2.07 0 3.09 1.64 3.09 3.54s-1 3.5-3.07 3.5a2.58 2.58 0 0 1-2.17-1.05v3.47h-1.11v-9.3zm3.12.82c-1.48 0-2.05 1.27-2.05 2.54s.6 2.55 2.12 2.55 2-1.29 2-2.6-.64-2.48-2.07-2.48zM243.69 254.18a2.71 2.71 0 0 1-2.87 2.29c-2.14 0-3.16-1.48-3.22-3.54a3.24 3.24 0 0 1 3-3.49h.19c2.38 0 3.11 2.22 3 3.85h-5a2 2 0 0 0 1.78 2.2h.31a1.62 1.62 0 0 0 1.74-1.31h1.1zm-1.07-1.87a1.93 1.93 0 1 0-3.86 0h3.86zM244.68 247h1.11v9.28h-1.11V247zM248.37 248.39h-1.11V247h1.11v1.35zm-1.13 1.19h1.13v6.72h-1.11zM249.74 249.58h1v1.07a2.34 2.34 0 0 1 2.18-1.22c1.77 0 2.31 1 2.31 2.46v4.42h-1.11v-4.55a1.27 1.27 0 0 0-1.18-1.35h-.19a1.89 1.89 0 0 0-2 2.11v3.8h-1.1zM262.37 254.18a2.71 2.71 0 0 1-2.87 2.29c-2.15 0-3.16-1.48-3.22-3.54a3.24 3.24 0 0 1 3-3.49h.19c2.38 0 3.11 2.22 3 3.85h-5a2 2 0 0 0 1.78 2.2h.31a1.62 1.62 0 0 0 1.74-1.31h1.1zm-1.07-1.87a1.93 1.93 0 0 0-1.94-1.9 1.91 1.91 0 0 0-1.92 1.9h3.86zM269.37 247.1c2.89 0 3.07 2.65 3.07 4.69s-.18 4.68-3.07 4.68-3.07-2.65-3.07-4.68.18-4.69 3.07-4.69zm0 8.4c1.88 0 1.9-2.34 1.9-3.72s0-3.71-1.9-3.71-1.9 2.34-1.9 3.71.01 3.72 1.9 3.72zM275.49 251h.51a1.56 1.56 0 0 0 1.74-1.36v-.15a1.46 1.46 0 0 0-1.44-1.49h-.21a1.75 1.75 0 0 0-1.74 2h-1.1c.06-1.75 1-3 2.85-3 1.6 0 2.81.77 2.81 2.47a2.11 2.11 0 0 1-1.27 1.83 2.1 2.1 0 0 1 1.66 2.24c0 1.85-1.44 2.81-3.17 2.81a2.79 2.79 0 0 1-3.07-3h1.11a1.87 1.87 0 0 0 1.73 2h.27a1.83 1.83 0 0 0 2-1.65v-.13a1.76 1.76 0 0 0-1.73-1.79h-.27a5.47 5.47 0 0 0-.66 0V251zM277.74 366.29h98.06v34.95h-98.06z"/><path class="gs33-12" d="M506.65 361.77h109.46a12.75 12.75 0 0 1 12.75 12.75 12.75 12.75 0 0 1-12.75 12.75H506.65a12.75 12.75 0 0 1-12.75-12.75 12.75 12.75 0 0 1 12.75-12.75z"/><path class="gs33-5" d="M506.47 370.13h1.46l3 7.86h-1.47l-.74-2.08h-3.14l-.74 2.09h-1.42zm-.47 4.73h2.38l-1.18-3.38zM511.43 370.13h3.47c2.24 0 2.67 1.45 2.67 2.43s-.43 2.44-2.67 2.44h-2.09v3h-1.37v-7.84zm1.38 3.72h2a1.25 1.25 0 0 0 1.38-1.3 1.19 1.19 0 0 0-1.35-1.3h-2zM518.49 370.13h1.38V378h-1.37v-7.86zM523.91 370.13h1.25v4.45l2.27-2.3H529l-2.18 2.09 2.39 3.6h-1.53l-1.74-2.76-.75.73v2h-1.25v-7.81zM530.49 375.46a1.51 1.51 0 0 0 1.33 1.67h.18a1.32 1.32 0 0 0 1.39-1h1.19a2.49 2.49 0 0 1-2.57 1.94 2.7 2.7 0 0 1-2.78-3 2.75 2.75 0 1 1 5.44.32h-4.2zm2.93-.83a1.46 1.46 0 0 0-2.93 0h2.93zM534.73 372.3h1.38l1.49 4.25 1.4-4.25h1.33l-2.21 6c-.41 1-.7 2-2 2a5.68 5.68 0 0 1-.87-.07v-1.06a3.64 3.64 0 0 0 .59.08.84.84 0 0 0 .88-.79l.14-.44zM548.37 376.72c0 .31.07.43.3.43h.33v.85a3.14 3.14 0 0 1-.79.14.89.89 0 0 1-1-.69 2.92 2.92 0 0 1-2 .69 1.73 1.73 0 0 1-1.94-1.49v-.17c0-1.42 1.13-1.65 2.19-1.77.9-.17 1.71-.07 1.71-.8s-.67-.77-1.18-.77a1.06 1.06 0 0 0-1.25.9h-1.24c.09-1.46 1.33-1.89 2.58-1.89s2.28.45 2.28 1.65zm-1.25-1.58a4.48 4.48 0 0 1-1.54.34 1 1 0 0 0-1 1 .93.93 0 0 0 1.16.73 1.33 1.33 0 0 0 1.41-1.08zM550.37 376.16a1.12 1.12 0 0 0 1.29 1c.47 0 1.3-.1 1.26-.75s-1-.74-1.86-1-1.83-.53-1.83-1.68 1.34-1.63 2.38-1.63a2.17 2.17 0 0 1 2.39 1.8h-1.32a1 1 0 0 0-1.16-.76c-.36 0-1 .09-1 .58s.92.7 1.85.91 1.84.54 1.84 1.66c0 1.35-1.36 1.85-2.54 1.85-1.43 0-2.5-.64-2.52-2zM555.79 376.16a1.12 1.12 0 0 0 1.29 1c.47 0 1.3-.1 1.26-.75s-1-.74-1.86-1-1.83-.53-1.83-1.68 1.34-1.63 2.38-1.63a2.17 2.17 0 0 1 2.38 1.75h-1.31a1 1 0 0 0-1.16-.76c-.36 0-1 .09-1 .58s.92.7 1.85.91 1.84.54 1.84 1.66c0 1.35-1.36 1.85-2.54 1.85-1.43 0-2.5-.64-2.52-2zM560.31 370.13h1.25v1.19h-1.25v-1.19zm0 2.17h1.25v5.7h-1.25v-5.7zM567.91 377.69c0 1.71-1 2.55-2.79 2.55-1.14 0-2.43-.44-2.54-1.77h1.25a1.16 1.16 0 0 0 1.36.84 1.29 1.29 0 0 0 1.46-1.45V377a2 2 0 0 1-1.71 1c-1.8 0-2.55-1.36-2.55-3a2.63 2.63 0 0 1 2.4-2.84h.21a1.79 1.79 0 0 1 1.68.94v-.8h1.25zm-1.25-2.69a1.6 1.6 0 0 0-1.53-1.88c-1.09 0-1.5 1-1.5 2a1.6 1.6 0 0 0 1.5 1.88 1.76 1.76 0 0 0 1.53-2zM568.9 372.3h1.19v.84a2 2 0 0 1 1.77-1 1.8 1.8 0 0 1 2 1.94V378h-1.25v-3.58a1 1 0 0 0-1.11-1.28 1.39 1.39 0 0 0-1.37 1.41V378h-1.25zM575.92 375.46a1.51 1.51 0 0 0 1.33 1.67h.2a1.32 1.32 0 0 0 1.39-1H580a2.49 2.49 0 0 1-2.57 1.94 2.7 2.7 0 0 1-2.78-3 2.75 2.75 0 1 1 5.44.32h-4.2zm2.93-.83a1.46 1.46 0 0 0-2.93 0h2.93zM586.14 378H585v-.77a1.89 1.89 0 0 1-1.76.92c-1.79 0-2.66-1.33-2.66-3 0-2.06 1.22-3 2.46-3a2.19 2.19 0 0 1 1.89.89v-2.9h1.25V378zm-2.8-.84a1.73 1.73 0 0 0 1.59-2c0-1.25-.61-2-1.57-2-1.18 0-1.59 1-1.59 2.07s.48 1.94 1.6 1.94zM589.44 372.3h.93v-1.72h1.25v1.71h1.13v.93h-1.13v3c0 .52 0 .78.61.78a2.15 2.15 0 0 0 .53 0v1c-.28 0-.54.07-.81.07-1.31 0-1.55-.51-1.57-1.45v-3.36h-1v-1zM593.14 375.13a2.87 2.87 0 1 1 2.87 3 2.75 2.75 0 0 1-2.87-3zm4.49 0a1.66 1.66 0 1 0-1.62 2 1.75 1.75 0 0 0 1.62-2zM602.61 370.13h3.82c1.41 0 2.33.64 2.33 2a1.73 1.73 0 0 1-1.12 1.67 1.87 1.87 0 0 1 1.47 2c0 1.23-.86 2.19-2.89 2.19h-3.61v-7.81zm1.38 3.29h2.25a1 1 0 0 0 1.15-1.09 1 1 0 0 0-1.15-1.08H604v2.17zm0 3.44h2.38a1.24 1.24 0 0 0 .22-2.46h-2.65zM609.63 375.13a2.87 2.87 0 1 1 2.87 3 2.75 2.75 0 0 1-2.87-3zm4.49 0a1.66 1.66 0 1 0-1.62 2 1.75 1.75 0 0 0 1.62-2zM616.18 370.13h1.25V373a2.07 2.07 0 0 1 1.69-.89c1.79 0 2.66 1.36 2.66 3s-.77 3-2.45 3a2 2 0 0 1-2-.94v.83h-1.19zm2.8 3c-1.06 0-1.59.8-1.59 2s.58 2 1.59 2a1.79 1.79 0 0 0 1.57-2 1.77 1.77 0 0 0-1.55-2z"/><path class="gs33-16" d="M480.56 155.74l-.1 257.11c-1.59 10.29-8.77 18.24-17.54 18.24h-268c-8.77 0-15.94-8-15.94-17.66V39.89c0-9.71 7.17-17.66 15.94-17.66l269.73-.11c8.77 0 15.94 8 15.94 17.66z"/><path class="gs33-11" d="M260 408.33h9.26v1.94h-7v3.37h6.48v1.84h-6.48v3.76h7.1v1.94H260zM273.37 416.29l-3.22-4.41h2.48l2 2.86 2-2.86H279l-3.17 4.3 3.56 5h-2.47l-2.36-3.44-2.29 3.44h-2.41zM280.43 411.88h1.94v1.26a3.11 3.11 0 0 1 2.88-1.51c2.94 0 4.36 2.23 4.36 5 0 2.5-1.26 4.86-4 4.86a3.62 3.62 0 0 1-3.12-1.46v4.55h-2v-12.7zm4.59 1.37c-1.73 0-2.61 1.31-2.61 3.29s1 3.28 2.61 3.28c1.87 0 2.57-1.66 2.57-3.28s-.88-3.29-2.57-3.29zM291.19 411.88h1.93v1.8a3 3 0 0 1 2.75-2.1 5 5 0 0 1 .78 0v2a7.35 7.35 0 0 0-.88-.09c-1.4 0-2.52 1.13-2.52 3.19v4.43h-2v-9.28zM298.63 417.07a2.48 2.48 0 0 0 2.19 2.74h.31a2.16 2.16 0 0 0 2.27-1.55h2a4.08 4.08 0 0 1-4.21 3.17c-2.92 0-4.56-2-4.56-4.9 0-2.65 1.73-4.92 4.5-4.92 2.94 0 4.74 2.65 4.39 5.44h-6.86zm4.79-1.35a2.4 2.4 0 1 0-4.79 0h4.79zM308.37 418.2a1.81 1.81 0 0 0 2.11 1.62c.77 0 2.13-.16 2.07-1.22s-1.55-1.21-3-1.55-3-.86-3-2.75 2.2-2.66 3.89-2.66c1.91 0 3.64.79 3.89 2.86h-2.14a1.62 1.62 0 0 0-1.89-1.24c-.59 0-1.69.14-1.69 1s1.51 1.15 3 1.5 3 .88 3 2.72c0 2.21-2.23 3-4.16 3-2.34 0-4.09-1-4.12-3.24zM317.56 418.2a1.81 1.81 0 0 0 2.11 1.62c.77 0 2.13-.16 2.07-1.22s-1.55-1.21-3-1.55-3-.86-3-2.75 2.2-2.66 3.89-2.66c1.91 0 3.64.79 3.89 2.86h-2.15a1.62 1.62 0 0 0-1.89-1.24c-.59 0-1.69.14-1.69 1s1.51 1.15 3 1.5 3 .88 3 2.72c0 2.21-2.23 3-4.16 3-2.34 0-4.09-1-4.12-3.24zM341.51 421.19h-1.44l-.34-1.51a4.63 4.63 0 0 1-3.87 1.82c-3.85 0-6.16-3.06-6.16-6.73s2.3-6.77 6.16-6.77c2.81 0 5.17 1.5 5.51 4.39h-2.2a3.07 3.07 0 0 0-3.31-2.56c-2.76 0-3.91 2.43-3.91 4.9s1.15 4.9 3.91 4.9a3.27 3.27 0 0 0 3.6-3.53H336v-1.71h5.47v6.76zM351.28 419.12c0 .5.11.7.48.7a2.84 2.84 0 0 0 .51 0v1.42a5.15 5.15 0 0 1-1.3.23 1.37 1.37 0 0 1-1.58-1.13 4.78 4.78 0 0 1-3.22 1.13c-1.67 0-3.19-.9-3.19-2.72 0-2.32 1.85-2.7 3.58-2.9 1.48-.27 2.79-.11 2.79-1.31s-1.1-1.26-1.93-1.26c-1.15 0-2 .47-2 1.48h-2c.14-2.39 2.18-3.1 4.23-3.1 1.82 0 3.73.74 3.73 2.7zm-2-2.59a7.34 7.34 0 0 1-2.52.56c-.88.14-1.67.47-1.67 1.55 0 .92 1.17 1.19 1.89 1.19.9 0 2.3-.47 2.3-1.76v-1.54zM352.37 411.88h1.55v-2.79h2v2.79h1.86v1.53H356v5c0 .85.07 1.28 1 1.28a3.5 3.5 0 0 0 .87-.07v1.58c-.45 0-.88.11-1.33.11-2.14 0-2.54-.83-2.58-2.38v-5.49h-1.56v-1.56zM360.73 417.07a2.48 2.48 0 0 0 2.19 2.74h.31a2.16 2.16 0 0 0 2.27-1.55h1.94a4.07 4.07 0 0 1-4.21 3.17c-2.92 0-4.55-2-4.55-4.9 0-2.65 1.73-4.92 4.5-4.92 2.93 0 4.73 2.65 4.39 5.44h-6.84zm4.79-1.35a2.4 2.4 0 1 0-4.79 0h4.79zM368.11 411.88h2.18l1.82 7 1.75-7h2.07l1.68 7 1.89-7h2.09l-2.92 9.31h-2.11l-1.73-6.91-1.71 6.91H371zM390.57 419.12c0 .5.11.7.49.7a2.82 2.82 0 0 0 .5 0v1.42a5.13 5.13 0 0 1-1.3.23 1.37 1.37 0 0 1-1.58-1.13 4.78 4.78 0 0 1-3.22 1.13c-1.67 0-3.19-.9-3.19-2.72 0-2.32 1.86-2.7 3.58-2.9 1.48-.27 2.79-.11 2.79-1.31s-1.1-1.26-1.93-1.26c-1.15 0-2 .47-2 1.48h-2c.14-2.39 2.18-3.1 4.23-3.1 1.82 0 3.73.74 3.73 2.7v4.76zm-2-2.59a7.34 7.34 0 0 1-2.52.56c-.88.14-1.68.47-1.68 1.55 0 .92 1.17 1.19 1.89 1.19.9 0 2.3-.47 2.3-1.76v-1.54zM391.58 411.88h2.25l2.43 7 2.36-7h2.14l-3.62 9.81c-.67 1.67-1.15 3.19-3.29 3.19a9.23 9.23 0 0 1-1.42-.11V423a6 6 0 0 0 1 .13c1 0 1.19-.5 1.44-1.3l.23-.72z"/><rect class="gs33-11" x="284.81" y="335.04" width="81.49" height="62.96" rx="3.14" ry="3.14"/><path class="gs33-12" d="M307.76 343.8a2 2 0 0 0-2.13-1.62c-1.81 0-2.58 1.49-2.58 3.08s.77 3.19 2.59 3.19a2.15 2.15 0 0 0 2.2-2.1v-.1h1a3.1 3.1 0 0 1-3.14 3.06h-.16c-2.37 0-3.52-1.75-3.52-4s1.26-4 3.6-4a2.91 2.91 0 0 1 3.14 2.47zM312.06 343.48a2.89 2.89 0 1 1-2.67 3.09v-.2a2.62 2.62 0 0 1 2.33-2.88h.35zm0 5a2.12 2.12 0 1 0-1.72-2.08 1.79 1.79 0 0 0 1.72 2zM315.54 343.58h.83v.88a1.92 1.92 0 0 1 1.79-1 1.71 1.71 0 0 1 1.9 2v3.63h-.91v-3.73a1 1 0 0 0-1.12-1.11 1.55 1.55 0 0 0-1.63 1.75v3.11h-.91zM321.75 347.39a1.22 1.22 0 0 0 1.48 1.07c.57 0 1.33-.13 1.33-.82s-.9-.82-1.8-1-1.8-.5-1.8-1.56a1.84 1.84 0 0 1 2.06-1.57c1.22 0 2.19.38 2.26 1.73h-.91a1.11 1.11 0 0 0-1.28-.93c-.6 0-1.17.15-1.17.7s1 .76 1.8 1 1.8.5 1.8 1.57c0 1.31-1.23 1.74-2.35 1.74s-2.28-.5-2.33-1.87zM330.83 349.13H330v-.87a1.92 1.92 0 0 1-1.79 1 1.71 1.71 0 0 1-1.9-2v-3.68h.91v3.73a1 1 0 0 0 1.12 1.11 1.55 1.55 0 0 0 1.63-1.73v-3.11h.91zM331.92 343.58h.85v.81a2 2 0 0 1 1.78-.94 1.46 1.46 0 0 1 1.51.94 2 2 0 0 1 1.73-.94 1.54 1.54 0 0 1 1.83 1.6v4h-.91v-3.62a1 1 0 0 0-1.07-1.23 1.34 1.34 0 0 0-1.44 1.41V349h-.83v-3.62a1 1 0 0 0-1-1.23 1.49 1.49 0 0 0-1.47 1.41V349h-.9zM345.45 347.38a2.22 2.22 0 0 1-2.36 1.88c-1.76 0-2.59-1.22-2.65-2.9a2.65 2.65 0 0 1 2.42-2.86h.14c2 0 2.55 1.82 2.5 3.16h-4.16a1.62 1.62 0 0 0 1.41 1.8h.31a1.33 1.33 0 0 0 1.43-1.08h.93zm-.87-1.54a1.59 1.59 0 0 0-3.17 0h3.17zM346.17 343.58h.83v1.16a2 2 0 0 1 2-1.29v1c-1.46 0-2 .83-2 2.23v2.45h-.91zM296.07 352.52h1.39l2.4 6.4 2.41-6.4h1.39v7.62h-1v-6.34l-2.38 6.34h-.86L297 353.8v6.34h-1zM309.81 360.12a1.22 1.22 0 0 1-.65.15.73.73 0 0 1-.77-.85 2.45 2.45 0 0 1-1.94.85 1.56 1.56 0 0 1-1.82-1.55c0-1.1.93-1.51 1.87-1.7s1.86-.13 1.86-.81a1 1 0 0 0-1.23-.92 1.13 1.13 0 0 0-1.38 1h-.91c0-1.37 1.11-1.85 2.34-1.85 1 0 2.07.22 2.07 1.51v2.84c0 .43 0 .62.29.62a.77.77 0 0 0 .28 0v.76zm-1.44-2.83a4.66 4.66 0 0 1-1.64.37 1.06 1.06 0 0 0-1.11 1 .85.85 0 0 0 1.07.81 1.48 1.48 0 0 0 1.69-1.25v-.93zM310.37 354.58h.85v.88a1.92 1.92 0 0 1 1.79-1 1.71 1.71 0 0 1 1.9 2v3.63H314v-3.73a1 1 0 0 0-1.12-1.11 1.55 1.55 0 0 0-1.63 1.73v3.11h-.88v-5.51zM320.92 360.12a1.22 1.22 0 0 1-.65.15.73.73 0 0 1-.77-.85 2.45 2.45 0 0 1-1.94.85 1.56 1.56 0 0 1-1.82-1.55c0-1.1.93-1.51 1.87-1.7s1.86-.13 1.86-.81a1 1 0 0 0-1.23-.92 1.13 1.13 0 0 0-1.38 1H316c0-1.37 1.11-1.85 2.34-1.85 1 0 2.07.22 2.07 1.51v2.84c0 .43 0 .62.29.62a.77.77 0 0 0 .28 0v.76zm-1.47-2.83a4.66 4.66 0 0 1-1.64.37 1.06 1.06 0 0 0-1.11 1 .85.85 0 0 0 1.07.81 1.48 1.48 0 0 0 1.69-1.25v-.93zM326.25 359.67c0 1.79-.82 2.71-2.56 2.71-1 0-2.23-.42-2.28-1.62h.91c0 .66.83.9 1.43.9 1.18 0 1.65-.85 1.65-2.09v-.36a1.84 1.84 0 0 1-1.72 1 2.5 2.5 0 0 1-2.46-2.79c0-1.3.64-2.91 2.55-2.91a1.8 1.8 0 0 1 1.64.92v-.85h.85v5.09zm-.9-2.4c0-1-.43-2-1.57-2a1.75 1.75 0 0 0-1.63 2c0 1 .36 2.1 1.56 2.1s1.66-1.07 1.66-2.1zM332.05 358.39a2.22 2.22 0 0 1-2.36 1.88c-1.76 0-2.59-1.22-2.65-2.9a2.65 2.65 0 0 1 2.42-2.86h.17c2 0 2.55 1.82 2.5 3.16H328a1.62 1.62 0 0 0 1.41 1.8h.31a1.33 1.33 0 0 0 1.43-1.08h.9zm-.87-1.54a1.59 1.59 0 0 0-3.17 0h3.17zM332.81 354.58h.85v.81a2 2 0 0 1 1.78-.94 1.46 1.46 0 0 1 1.51.94 2 2 0 0 1 1.73-.94 1.54 1.54 0 0 1 1.83 1.6v4h-.91v-3.62a1 1 0 0 0-1.07-1.23 1.34 1.34 0 0 0-1.44 1.41V360h-.91v-3.62a1 1 0 0 0-1-1.23 1.49 1.49 0 0 0-1.47 1.41V360h-.91v-5.45zM346.37 358.39a2.22 2.22 0 0 1-2.36 1.88c-1.76 0-2.59-1.22-2.65-2.9a2.65 2.65 0 0 1 2.42-2.86h.22c2 0 2.55 1.82 2.5 3.16h-4.13a1.62 1.62 0 0 0 1.41 1.8h.22a1.33 1.33 0 0 0 1.43-1.08h.9zm-.87-1.54a1.59 1.59 0 0 0-3.17 0h3.17zM347.09 354.58h.85v.88a1.92 1.92 0 0 1 1.79-1 1.71 1.71 0 0 1 1.9 2v3.63h-.91v-3.73a1 1 0 0 0-1.12-1.11A1.55 1.55 0 0 0 348 357v3.11h-.91zM354 354.58h1.1v.8H354v3.42c0 .42.12.49.68.49h.42v.8h-.74c-.94 0-1.31-.19-1.31-1.21v-3.51h-.94v-.79h.94v-1.65h.95z"/><path class="gs33-10" d="M296.87 386.49h3.2c1.18 0 2 .54 2 1.63a1.45 1.45 0 0 1-.94 1.4 1.57 1.57 0 0 1 1.24 1.7c0 1-.72 1.84-2.43 1.84h-3zm1.15 2.76h1.88a.88.88 0 0 0 1-.91.82.82 0 0 0-1-.9H298v1.81zm0 2.89h2a1 1 0 1 0 .12-2H298v2zM302.77 390.69a2.41 2.41 0 1 1 2.41 2.52 2.31 2.31 0 0 1-2.41-2.52zm3.77 0a1.39 1.39 0 1 0-1.36 1.69 1.48 1.48 0 0 0 1.36-1.69zM308.27 386.49h1v2.44a1.74 1.74 0 0 1 1.42-.75 2.24 2.24 0 0 1 2.23 2.54c0 1.28-.65 2.49-2.06 2.49a1.71 1.71 0 0 1-1.65-.78v.66h-1v-6.6zm2.35 2.52c-.89 0-1.34.67-1.34 1.69a1.42 1.42 0 0 0 1.34 1.68 1.74 1.74 0 0 0 0-3.38z"/><path class="gs33-5" d="M312.37 373.63c0 5.58-3.17 10.1-7.07 10.1s-6.3-5.06-6.3-10.64c0-2.48-.56-4.39 1.13-5.08s3.55-2.3 3.5-3c-.06-.94.72-.23 1.69-.23 3.95-.03 7.05 3.22 7.05 8.85z"/><path class="gs33-17" d="M311.62 377.06c.1-.52.78-.32 1.07-1.55.43-1.8-.44-2.07-1-1.71M299.37 377.06c.57 3.81 3.09 6.67 6.11 6.67s5.54-2.87 6.11-6.67M302.78 376.43h1.42M307.25 376.43h1.42M303.91 380.71a2.47 2.47 0 0 0 3.21 0"/><path class="gs33-17" d="M304 364.81a2.62 2.62 0 0 1-.43 1.39c-.63.9-1.54.79-2.61 1.43a4.91 4.91 0 0 0-2.17 3.17 5.11 5.11 0 0 0 1 3.85 7.19 7.19 0 0 1 1.27-3.5 9.89 9.89 0 0 0 7.38 3 13.16 13.16 0 0 1-.59-1.24c-.19-.46-.33-.85-.46-1.24q.77.65 1.63 1.3c.8.61 1.58 1.16 2.34 1.66a6.36 6.36 0 0 0 .83-4.33c-.6-2.98-3.92-5.4-8.19-5.49z"/><path class="gs33-10" d="M339.21 386.28h1.08v3.85l2-2h1.33l-1.88 1.8 2.06 3.1h-1.32l-1.5-2.38-.64.63V393h-1.08z"/><path class="gs33-10" d="M344.87 390.87a1.3 1.3 0 0 0 1.14 1.44h.18a1.14 1.14 0 0 0 1.19-.82h1a2.15 2.15 0 0 1-2.22 1.67 2.32 2.32 0 0 1-2.4-2.58 2.37 2.37 0 1 1 4.68.27h-3.57zm2.52-.71a1.26 1.26 0 0 0-2.52 0h2.52zM348.52 388.14h1.18l1.3 3.66 1.24-3.66h1.15l-1.9 5.17c-.35.88-.61 1.68-1.73 1.68a4.85 4.85 0 0 1-.75-.06V394a3 3 0 0 0 .51.07.72.72 0 0 0 .76-.68l.12-.38zM326.3 373.81h1.22v2.42h2.41v1.22h-2.41v2.42h-1.22v-2.42h-2.41v-1.22h2.41v-2.42z"/><path class="gs33-5" d="M355.68 366.58a5.43 5.43 0 0 0-9 5.52l-6.84 6.84.47 3 3 .47.55-2.31 1.64.12 1.14-1.14-.41-1.55 1.52.44.86-.86 1.53-1.53a5.43 5.43 0 0 0 5.52-9zm-2 4.37a1.66 1.66 0 1 1 0-2.35 1.66 1.66 0 0 1 0 2.35z"/><circle class="gs33-17" cx="352.56" cy="369.83" r="1.66" transform="rotate(-45 352.566 369.823)"/><path class="gs33-17" d="M346.75 372.15l-6.84 6.84.47 3.01 3.01.48.55-2.32 1.65.12 1.14-1.14-.4-1.55 1.52.43.85-.85M350.24 375.63a5.44 5.44 0 1 0-3.49-3.49"/><path class="gs33-18" d="M486.87 374.39H361.56"/><path class="gs33-19" d="M0 0h679.23v432.67H0z"/></svg>