<svg id="Layer_8" data-name="Layer 8" xmlns="http://www.w3.org/2000/svg" viewBox="0 0 644.7 432.5"><defs><style>.gs35-1,.gs35-15{fill:#74cfe8;}.gs35-1{opacity:0.15;}.gs35-1,.gs35-14,.gs35-3{isolation:isolate;}.gs35-2,.gs35-3{fill:#35a9c5;}.gs35-3{opacity:0.2;}.gs35-12,.gs35-16,.gs35-17,.gs35-18,.gs35-19,.gs35-20,.gs35-21,.gs35-4,.gs35-6{fill:none;}.gs35-17,.gs35-4,.gs35-6{stroke:#136d7c;}.gs35-12,.gs35-16,.gs35-17,.gs35-18,.gs35-19,.gs35-4,.gs35-6{stroke-linecap:round;}.gs35-12,.gs35-17,.gs35-18,.gs35-19,.gs35-4,.gs35-6{stroke-linejoin:round;}.gs35-4{stroke-width:1.5px;}.gs35-5{opacity:0.4;}.gs35-6{stroke-width:2.5px;}.gs35-14,.gs35-7{fill:#fff;}.gs35-8{opacity:0.63;}.gs35-9{fill:#136d7c;}.gs35-10{fill:#ffc60a;}.gs35-11{fill:#37403f;}.gs35-12,.gs35-16{stroke:#ffc60a;}.gs35-12,.gs35-19{stroke-width:2px;}.gs35-13{fill:#73645a;}.gs35-14{opacity:0.8;}.gs35-16,.gs35-20,.gs35-21,.gs35-22{stroke-miterlimit:10;}.gs35-16{stroke-width:3px;}.gs35-18,.gs35-20,.gs35-21,.gs35-22{stroke:#73645a;}.gs35-19{stroke:#35a9c5;}.gs35-20,.gs35-21,.gs35-22{stroke-width:4px;}.gs35-21{stroke-dasharray:8.08 8.08;}.gs35-22{fill:#eef8f8;}</style></defs><title>gs-3-5</title><path class="gs35-1" d="M15,69.2H157.1a15,15,0,0,1,15,15V304.4a15,15,0,0,1-15,15H15a15,15,0,0,1-15-15V84.2A15,15,0,0,1,15,69.2Z"/><path class="gs35-2" d="M36.1,196.3a5.85,5.85,0,0,0,.2,1.3,5.5,5.5,0,0,0,.7.9,3.13,3.13,0,0,0,1,.5,2.77,2.77,0,0,0,1.3.1,3,3,0,0,0,1.3-.2,2,2,0,0,0,.8-0.4,2.65,2.65,0,0,0,.5-0.6,1.7,1.7,0,0,0,.1-0.7,2,2,0,0,0-.3-1.1,3,3,0,0,0-.7-0.5c-0.5-.2-1.1-0.3-1.6-0.5l-2.2-.6a3.51,3.51,0,0,1-1.4-.6,6.47,6.47,0,0,1-.9-0.8,3,3,0,0,1-.4-1,3.4,3.4,0,0,1-.1-1,3.29,3.29,0,0,1,.4-1.7,3.18,3.18,0,0,1,1.1-1.2,5.07,5.07,0,0,1,1.5-.7,5,5,0,0,1,1.7-.2,6.28,6.28,0,0,1,1.9.3,4.81,4.81,0,0,1,1.6.8,3.75,3.75,0,0,1,1.5,3.1H41.8a2.5,2.5,0,0,0-.8-1.8,3.2,3.2,0,0,0-1.9-.5,2.2,2.2,0,0,0-.8.1,1.33,1.33,0,0,0-.8.3,2.65,2.65,0,0,0-.6.5,1.51,1.51,0,0,0,.2,1.9,2.38,2.38,0,0,0,1.1.6l0.6,0.1,1.1,0.3,1.2,0.3,0.8,0.2a3.7,3.7,0,0,1,1.1.5,3,3,0,0,1,.8.8,4.05,4.05,0,0,1,.5.9c0.1,0.3.1,0.7,0.2,1a3.66,3.66,0,0,1-.4,1.8,3.45,3.45,0,0,1-1.2,1.2,5.58,5.58,0,0,1-1.6.7,11.08,11.08,0,0,1-1.9.2,7.61,7.61,0,0,1-2.1-.3,4.44,4.44,0,0,1-2.9-2.2A3.61,3.61,0,0,1,34,196l2.1,0.3h0Z"/><path class="gs35-2" d="M47.2,196.5a3.55,3.55,0,0,0,.2,1,4.05,4.05,0,0,0,.5.9,1.56,1.56,0,0,0,.8.6,2.15,2.15,0,0,0,1.1.2,2.3,2.3,0,0,0,1.4-.4,2,2,0,0,0,.8-1.2h2a4.12,4.12,0,0,1-1.5,2.4,3.38,3.38,0,0,1-1.2.6,7.84,7.84,0,0,1-1.4.2,4.06,4.06,0,0,1-1.9-.4,4.51,4.51,0,0,1-1.4-1,4.17,4.17,0,0,1-.9-1.6,6.45,6.45,0,0,1-.3-2,6.28,6.28,0,0,1,.3-1.9,5.07,5.07,0,0,1,.9-1.6,4.31,4.31,0,0,1,3.2-1.4,3.51,3.51,0,0,1,2,.5,3.33,3.33,0,0,1,1.4,1.2,3.81,3.81,0,0,1,.8,1.7,4.52,4.52,0,0,1,.1,2l-6.9.2h0Zm4.7-1.4a2.92,2.92,0,0,0-.2-0.9,2.18,2.18,0,0,0-.5-0.8,1.79,1.79,0,0,0-.7-0.5,2.92,2.92,0,0,0-.9-0.2,3.55,3.55,0,0,0-1,.2,3.51,3.51,0,0,0-.8.5,2.18,2.18,0,0,0-.5.8,3.55,3.55,0,0,0-.2,1l4.8-.1h0Z"/><path class="gs35-2" d="M55.1,191.3H57v1.8h0a4.87,4.87,0,0,1,.3-0.7c0.2-.2.4-0.5,0.6-0.7a2.62,2.62,0,0,1,.9-0.5,2.92,2.92,0,0,1,.9-0.2h0.8v2l-0.4-.1H59.7a3.55,3.55,0,0,0-1,.2,1.56,1.56,0,0,0-.8.6,3.13,3.13,0,0,0-.5,1,5.9,5.9,0,0,0-.2,1.4v4.4h-2v-9.2H55.1Z"/><path class="gs35-2" d="M60.1,191.3h2.2l2.4,7.1h0l2.3-7.1h2.1l-3.3,9.3H63.5Z"/><path class="gs35-2" d="M69.9,187.8H72v1.9H69.9v-1.9Zm0,3.5H72v9.3H69.9v-9.3Z"/><path class="gs35-2" d="M80.1,194.4a1.71,1.71,0,0,0-.7-1.3,1.79,1.79,0,0,0-1.4-.4c-0.3,0-.6.1-0.8,0.1a2.18,2.18,0,0,0-.8.5,2.07,2.07,0,0,0-.6,1,3.33,3.33,0,0,0-.2,1.7,3.75,3.75,0,0,0,.1,1.1,3,3,0,0,0,.4,1,2.7,2.7,0,0,0,.8.7,2,2,0,0,0,1.1.3,2.2,2.2,0,0,0,1.5-.6,2.36,2.36,0,0,0,.7-1.6h2.1a4.44,4.44,0,0,1-1.4,2.8,4.27,4.27,0,0,1-2.9,1,4.06,4.06,0,0,1-1.9-.4,4.51,4.51,0,0,1-1.4-1,4.62,4.62,0,0,1-.9-1.5,6.28,6.28,0,0,1-.3-1.9,6.45,6.45,0,0,1,.3-2,5.07,5.07,0,0,1,.9-1.6,4.86,4.86,0,0,1,1.4-1.1,4.48,4.48,0,0,1,2-.4,7.72,7.72,0,0,1,1.5.2,3.1,3.1,0,0,1,1.3.6,3.1,3.1,0,0,1,1.3,2.5l-2.1.3h0Z"/><path class="gs35-2" d="M84.9,196.5a3.55,3.55,0,0,0,.2,1,4.05,4.05,0,0,0,.5.9,1.56,1.56,0,0,0,.8.6,2.15,2.15,0,0,0,1.1.2,2.82,2.82,0,0,0,1.5-.4,2,2,0,0,0,.8-1.2h1.9a4.12,4.12,0,0,1-1.5,2.4,3.38,3.38,0,0,1-1.2.6,7.84,7.84,0,0,1-1.4.2,4.06,4.06,0,0,1-1.9-.4,4.51,4.51,0,0,1-1.4-1,4.17,4.17,0,0,1-.9-1.6,6.45,6.45,0,0,1-.3-2,6.28,6.28,0,0,1,.3-1.9,5.07,5.07,0,0,1,.9-1.6,4.13,4.13,0,0,1,3.3-1.5,3.51,3.51,0,0,1,2,.5,3.33,3.33,0,0,1,1.4,1.2,3.81,3.81,0,0,1,.8,1.7,4.52,4.52,0,0,1,.1,2l-7,.3h0Zm4.8-1.4a2.92,2.92,0,0,0-.2-0.9,2.18,2.18,0,0,0-.5-0.8,1.79,1.79,0,0,0-.7-0.5,2.92,2.92,0,0,0-.9-0.2,3.55,3.55,0,0,0-1,.2,3.51,3.51,0,0,0-.8.5,2.18,2.18,0,0,0-.5.8,3.55,3.55,0,0,0-.2,1l4.8-.1h0Z"/><path class="gs35-2" d="M94.4,197.6a1.71,1.71,0,0,0,.7,1.3,2.39,2.39,0,0,0,1.5.3h0.7A1.85,1.85,0,0,0,98,199a1,1,0,0,0,.5-0.4,1.42,1.42,0,0,0,.2-0.6,0.71,0.71,0,0,0-.3-0.6,1.61,1.61,0,0,0-.7-0.4c-0.3-.1-0.7-0.2-1-0.3l-1.1-.2-1.1-.3a3.13,3.13,0,0,1-1-.5,2.7,2.7,0,0,1-.7-0.8,1.72,1.72,0,0,1-.2-1.2,2,2,0,0,1,.4-1.3,3.45,3.45,0,0,1,.9-0.8,2.84,2.84,0,0,1,1.3-.4,5.7,5.7,0,0,1,1.3-.1,6.6,6.6,0,0,1,1.4.1,6.12,6.12,0,0,1,1.2.5,2,2,0,0,1,.9.9,3.26,3.26,0,0,1,.4,1.3H98.3a1.2,1.2,0,0,0-.7-1,1.72,1.72,0,0,0-1.2-.2H95.9c-0.2,0-.4.1-0.6,0.1a1.38,1.38,0,0,0-.4.3,0.76,0.76,0,0,0-.2.5,0.71,0.71,0,0,0,.3.6,1.61,1.61,0,0,0,.7.4c0.3,0.1.7,0.2,1,.3l1.1,0.2,1.1,0.3a3.13,3.13,0,0,1,1,.5,2.7,2.7,0,0,1,.7.8,2.61,2.61,0,0,1,.3,1.1,2.3,2.3,0,0,1-.4,1.4,2.84,2.84,0,0,1-1,.9,6.94,6.94,0,0,1-1.3.5,7.72,7.72,0,0,1-1.5.2,8.75,8.75,0,0,1-1.6-.2,3.1,3.1,0,0,1-1.3-.6,2.84,2.84,0,0,1-.9-1,3.19,3.19,0,0,1-.3-1.4h1.8Z"/><path class="gs35-2" d="M32.7,207.8h9.2v1.9h-7v3.4h6.5v1.8H34.9v3.8H42v1.9H32.6V207.8h0.1Z"/><path class="gs35-2" d="M43.2,211.3h1.9v1.4h0a3.45,3.45,0,0,1,1.2-1.2,3.29,3.29,0,0,1,1.7-.4,3.49,3.49,0,0,1,2.4.8,3,3,0,0,1,.9,2.4v6.4h-2v-5.9a2.35,2.35,0,0,0-.5-1.6,1.66,1.66,0,0,0-1.3-.5,2.92,2.92,0,0,0-.9.2,1.79,1.79,0,0,0-.7.5,2,2,0,0,0-.4.8,3.55,3.55,0,0,0-.2,1v5.5H43.2v-9.4h0Z"/><path class="gs35-2" d="M61.9,220.6H60v-1.3h0a3.45,3.45,0,0,1-1.2,1.2,4.71,4.71,0,0,1-1.7.4,4.06,4.06,0,0,1-1.9-.4,3.6,3.6,0,0,1-1.4-1.1,4.81,4.81,0,0,1-.8-1.6,6.45,6.45,0,0,1-.3-2,8.33,8.33,0,0,1,.3-2.2,3.77,3.77,0,0,1,.9-1.5,3.81,3.81,0,0,1,1.3-.9,4,4,0,0,1,1.5-.3,2.77,2.77,0,0,1,.9.1,3.18,3.18,0,0,1,.9.3,3.51,3.51,0,0,1,.8.5,4.35,4.35,0,0,1,.6.7h0v-4.8H62l-0.1,12.9h0Zm-7.2-4.5a2.54,2.54,0,0,0,.2,1.2,3.13,3.13,0,0,0,.5,1,2.22,2.22,0,0,0,2,1,2.66,2.66,0,0,0,1.2-.3,2,2,0,0,0,.8-0.8,3.7,3.7,0,0,0,.5-1.1,5,5,0,0,0,.2-1.2,3.41,3.41,0,0,0-.7-2.4,2.46,2.46,0,0,0-1.9-.9,2.66,2.66,0,0,0-1.2.3,3,3,0,0,0-.8.8,2.1,2.1,0,0,0-.4,1.1,2,2,0,0,0-.4,1.3h0Z"/><path class="gs35-2" d="M63.7,211.3h1.9v1.3h0a3.45,3.45,0,0,1,1.2-1.2,4.71,4.71,0,0,1,1.7-.4,4.06,4.06,0,0,1,1.9.4,3.6,3.6,0,0,1,1.4,1.1,4.81,4.81,0,0,1,.8,1.6,6.28,6.28,0,0,1,.3,1.9,11,11,0,0,1-.2,1.8,4.59,4.59,0,0,1-.7,1.6,3.56,3.56,0,0,1-3,1.5,2.77,2.77,0,0,1-.9-0.1,3.18,3.18,0,0,1-.9-0.3,3.51,3.51,0,0,1-.8-0.5,4.35,4.35,0,0,1-.6-0.7h0v4.6H63.7V211.3h0Zm7.2,4.7a5,5,0,0,0-.2-1.2,5.36,5.36,0,0,0-.5-1.1,1.78,1.78,0,0,0-.8-0.7,2,2,0,0,0-1.1-.3,2.25,2.25,0,0,0-2,.9,4,4,0,0,0-.7,2.4,5.85,5.85,0,0,0,.2,1.3,3.13,3.13,0,0,0,.5,1,2.7,2.7,0,0,0,.8.7,1.39,1.39,0,0,0,1.1.2,2.66,2.66,0,0,0,1.2-.3,2,2,0,0,0,.8-0.8,1.78,1.78,0,0,0,.4-1,2,2,0,0,0,.3-1.1h0Z"/><path class="gs35-2" d="M78.5,220.9a4.48,4.48,0,0,1-2-.4,4,4,0,0,1-1.5-1,4.17,4.17,0,0,1-.9-1.6,6.82,6.82,0,0,1,0-4,5.07,5.07,0,0,1,.9-1.6,4,4,0,0,1,1.5-1,5.52,5.52,0,0,1,4,0,4,4,0,0,1,1.5,1,4.17,4.17,0,0,1,.9,1.6,6.82,6.82,0,0,1,0,4,5.07,5.07,0,0,1-.9,1.6,4,4,0,0,1-1.5,1A6.47,6.47,0,0,1,78.5,220.9Zm0-1.7a2.66,2.66,0,0,0,1.2-.3,2,2,0,0,0,.8-0.8A3.7,3.7,0,0,0,81,217a4.88,4.88,0,0,0,0-2.4,5.36,5.36,0,0,0-.5-1.1,3,3,0,0,0-.8-0.8,2.55,2.55,0,0,0-2.4,0,2,2,0,0,0-.8.8,3.7,3.7,0,0,0-.5,1.1,4.88,4.88,0,0,0,0,2.4,5.36,5.36,0,0,0,.5,1.1,3,3,0,0,0,.8.8,2.66,2.66,0,0,0,1.2.3h0Z"/><path class="gs35-2" d="M84.5,207.8h2.1v1.9H84.5v-1.9h0Zm0,3.5h2.1v9.3H84.5v-9.3h0Z"/><path class="gs35-2" d="M88.3,211.3h1.9v1.4h0a3.74,3.74,0,0,1,1.3-1.2,3.29,3.29,0,0,1,1.7-.4,3.49,3.49,0,0,1,2.4.8,3,3,0,0,1,.9,2.4v6.4H94.4v-5.9a2.35,2.35,0,0,0-.5-1.6,1.74,1.74,0,0,0-1.4-.5,2.92,2.92,0,0,0-.9.2,1.79,1.79,0,0,0-.7.5,2,2,0,0,0-.4.8,3.55,3.55,0,0,0-.2,1v5.5H88.2l0.1-9.4h0Z"/><path class="gs35-2" d="M97.3,211.3h1.6v-2.8H101v2.8h1.9v1.5H101v5.6c0,0.1.1,0.3,0.1,0.4a0.53,0.53,0,0,0,.3.2,1.09,1.09,0,0,0,.5.1h0.4a0.6,0.6,0,0,0,.4-0.1v1.6l-0.7.1h-0.7a5.7,5.7,0,0,1-1.3-.1,1.41,1.41,0,0,1-1.2-1.2,3.4,3.4,0,0,1-.1-1v-5.5H97.1l0.2-1.6h0Z"/><path class="gs35-2" d="M38.5,244a16.18,16.18,0,0,1-1-1.8,15.39,15.39,0,0,1-.8-1.9l-0.6-2.1a19.42,19.42,0,0,1-.2-2.4,12.51,12.51,0,0,1,.7-4.3,18.39,18.39,0,0,1,1.9-4h1.7a20,20,0,0,0-1.7,4,15.93,15.93,0,0,0-.6,4.3,20.24,20.24,0,0,0,.5,4.3,14.19,14.19,0,0,0,1.7,4l-1.6-.1h0Z"/><path class="gs35-2" d="M40.9,227.8h5.7a5.38,5.38,0,0,1,2.2.4,3.25,3.25,0,0,1,1.3,1,3.1,3.1,0,0,1,.6,1.3,4.33,4.33,0,0,1,0,2.6,3.1,3.1,0,0,1-.6,1.3,4.12,4.12,0,0,1-1.3,1,5.7,5.7,0,0,1-2.2.4H43.2v4.9H41V227.8H40.9Zm2.3,6h3.3a2.2,2.2,0,0,0,.8-0.1,1.61,1.61,0,0,0,.7-0.4,2.65,2.65,0,0,0,.5-0.6,2.6,2.6,0,0,0,0-2A1.79,1.79,0,0,0,48,230a0.91,0.91,0,0,0-.7-0.3,2.49,2.49,0,0,0-.8-0.1H43.2v4.2h0Z"/><path class="gs35-2" d="M52.2,231.3h1.9v1.8h0a4.87,4.87,0,0,1,.3-0.7c0.2-.2.4-0.5,0.6-0.7a2.18,2.18,0,0,1,.8-0.5,2.92,2.92,0,0,1,.9-0.2h0.8v2l-0.4-.1H56.7a3.55,3.55,0,0,0-1,.2,1.56,1.56,0,0,0-.8.6,3.13,3.13,0,0,0-.5,1,5.9,5.9,0,0,0-.2,1.4v4.4h-2v-9.2h0Z"/><path class="gs35-2" d="M58.1,227.8h2.1v1.9H58.1v-1.9Zm0,3.5h2.1v9.3H58.1v-9.3Z"/><path class="gs35-2" d="M61,231.3h2.2l2.4,7.1h0l2.3-7.1H70l-3.3,9.3H64.4Z"/><path class="gs35-2" d="M78.6,238.5a0.75,0.75,0,0,0,.1.5,0.52,0.52,0,0,0,.4.2h0.5v1.4l-0.3.1-0.3.1-0.4.1H78.3a3.55,3.55,0,0,1-1-.2,1.05,1.05,0,0,1-.5-0.9,3.77,3.77,0,0,1-1.5.9,5.08,5.08,0,0,1-1.7.3,5,5,0,0,1-1.2-.2,3.13,3.13,0,0,1-1-.5,2.18,2.18,0,0,1-.7-0.9,2.66,2.66,0,0,1-.3-1.2,3.19,3.19,0,0,1,.3-1.4,3.45,3.45,0,0,1,.8-0.9,2.45,2.45,0,0,1,1.2-.4,5.85,5.85,0,0,1,1.3-.2,4.1,4.1,0,0,1,1.1-.1c0.3,0,.6-0.1.9-0.1l0.6-.3a0.84,0.84,0,0,0,.2-0.7,1.07,1.07,0,0,0-.2-0.6,1,1,0,0,0-.5-0.4,1.42,1.42,0,0,0-.6-0.2H74.8a2.3,2.3,0,0,0-1.4.4,1.25,1.25,0,0,0-.6,1.1H70.7a4.19,4.19,0,0,1,.4-1.5,2.41,2.41,0,0,1,1-1,6.94,6.94,0,0,1,1.3-.5,7.57,7.57,0,0,1,1.5-.1,5.28,5.28,0,0,1,1.3.1,3.08,3.08,0,0,1,1.2.5,3,3,0,0,1,.8.8,2.66,2.66,0,0,1,.3,1.2l0.1,4.6h0Zm-2-2.6a3.37,3.37,0,0,1-1.2.4,6.75,6.75,0,0,0-1.4.2c-0.2,0-.4.1-0.6,0.1a2.19,2.19,0,0,0-.5.3,1.51,1.51,0,0,0-.4.4,1.48,1.48,0,0,0-.1.7,1.42,1.42,0,0,0,.2.6,1,1,0,0,0,.5.4,1.42,1.42,0,0,0,.6.2,1.27,1.27,0,0,1,.6.1,1.7,1.7,0,0,0,.7-0.1c0.3-.1.5-0.2,0.8-0.3a1.7,1.7,0,0,0,.6-0.6,1.08,1.08,0,0,0,.2-0.8v-1.6h0Z"/><path class="gs35-2" d="M79.5,231.3H81v-2.8h2.1v2.8h1.8v1.5H83.1v5.6c0,0.1.1,0.3,0.1,0.4a0.53,0.53,0,0,0,.3.2,1.09,1.09,0,0,0,.5.1h0.4a0.6,0.6,0,0,0,.4-0.1v1.6l-0.7.1H83.4a5.7,5.7,0,0,1-1.3-.1,1.41,1.41,0,0,1-1.2-1.2,3.4,3.4,0,0,1-.1-1v-5.5H79.2l0.3-1.6h0Z"/><path class="gs35-2" d="M87.6,236.5c0,0.3.1,0.7,0.1,1a4.05,4.05,0,0,0,.5.9,1.56,1.56,0,0,0,.8.6,2.15,2.15,0,0,0,1.1.2,2.3,2.3,0,0,0,1.4-.4,2,2,0,0,0,.8-1.2h1.9a4.12,4.12,0,0,1-1.5,2.4,3.38,3.38,0,0,1-1.2.6,7.84,7.84,0,0,1-1.4.2,4.06,4.06,0,0,1-1.9-.4,4.51,4.51,0,0,1-1.4-1,4.17,4.17,0,0,1-.9-1.6,6.45,6.45,0,0,1-.3-2,6.28,6.28,0,0,1,.3-1.9,5.07,5.07,0,0,1,.9-1.6,4.13,4.13,0,0,1,3.3-1.5,3.51,3.51,0,0,1,2,.5,3.33,3.33,0,0,1,1.4,1.2,3.81,3.81,0,0,1,.8,1.7,4.52,4.52,0,0,1,.1,2l-6.8.3h0Zm4.8-1.4a2.92,2.92,0,0,0-.2-0.9,2.18,2.18,0,0,0-.5-0.8,1.79,1.79,0,0,0-.7-0.5,2.92,2.92,0,0,0-.9-0.2,3.55,3.55,0,0,0-1,.2,3.51,3.51,0,0,0-.8.5,2.18,2.18,0,0,0-.5.8,3.55,3.55,0,0,0-.2,1l4.8-.1h0Z"/><path class="gs35-2" d="M96,227.4a16.18,16.18,0,0,1,1,1.8,15.39,15.39,0,0,1,.8,1.9l0.6,2.1a19.42,19.42,0,0,1,.2,2.4,12.51,12.51,0,0,1-.7,4.3,18.39,18.39,0,0,1-1.9,4H94.3a15.22,15.22,0,0,0,1.6-4,15.93,15.93,0,0,0,.6-4.3,20.24,20.24,0,0,0-.5-4.3,15.54,15.54,0,0,0-1.7-4l1.7,0.1h0Z"/><path class="gs35-2" d="M72.8,151.2H51.9a0.51,0.51,0,1,0-.2,1H72.8a0.51,0.51,0,1,0,.2-1H72.8Z"/><path class="gs35-2" d="M84.9,136.1h-8a5,5,0,0,0-.7-2.9c-1.2-2-3.8-3.1-7.8-3.1s-6.6,1-7.8,3a5.32,5.32,0,0,0-.7,3h-8A5.91,5.91,0,0,0,46,142v21.3a5.91,5.91,0,0,0,5.9,5.9h33a6.06,6.06,0,0,0,6-5.9V142A6,6,0,0,0,84.9,136.1Zm-22.2-1.8c0.7-1.2,2.7-1.8,5.7-1.8s5,0.7,5.7,1.9a2.32,2.32,0,0,1,.3,1.6h-12a2.49,2.49,0,0,1,.3-1.7h0Zm17,26.4a7.91,7.91,0,0,1-7.3-5H65.5l-3.2-2.2L58.7,156l-2.8-1.6-3.4,1.1-3.3-3.1,1.1-2.7H72.6a7.76,7.76,0,0,1,14.1,6.5,7.62,7.62,0,0,1-7,4.5h0Z"/><circle class="gs35-2" cx="82.7" cy="152.9" r="1.8"/><path class="gs35-3" d="M77.9,163.4a7.91,7.91,0,0,1-7.3-5H63.7l-3.2-2.2-3.6,2.5-2.8-1.6-3.4,1.1-3.3-3.1,1.1-2.7H70.8a7.76,7.76,0,1,1,14.1,6.5A7.51,7.51,0,0,1,77.9,163.4Z"/><path class="gs35-1" d="M421,68.6H629.7a15,15,0,0,1,15,15V320a15,15,0,0,1-15,15H421a15,15,0,0,1-15-15V83.6A15,15,0,0,1,421,68.6Z"/><path class="gs35-4" d="M162.4,37.5H427.3a3.12,3.12,0,0,1,3.1,3.1V290.5a3.12,3.12,0,0,1-3.1,3.1H162.4a3.12,3.12,0,0,1-3.1-3.1V40.6A3,3,0,0,1,162.4,37.5Z"/><g class="gs35-5"><path class="gs35-6" d="M399.5,110.5H386.4c-1.1,0-2-1.6-2-3.5h0c0-1.9.9-3.5,2-3.5h26.7c1.1,0,2-1.6,2-3.5h0c0-1.9-.9-3.5-2-3.5H387.6"/><path class="gs35-6" d="M399.5,124.6H386.4c-1.1,0-2-1.6-2-3.5h0c0-1.9.9-3.5,2-3.5h26.7c1.1,0,2-1.6,2-3.5h0c0-1.9-.9-3.5-2-3.5H399.4"/><path class="gs35-6" d="M399.5,138.8H386.4c-1.1,0-2-1.6-2-3.5h0c0-1.9.9-3.5,2-3.5h26.7c1.1,0,2-1.6,2-3.5h0c0-1.9-.9-3.5-2-3.5H399.4"/><path class="gs35-6" d="M399.5,152.9H386.4c-1.1,0-2-1.6-2-3.5h0c0-1.9.9-3.5,2-3.5h26.7c1.1,0,2-1.6,2-3.5h0c0-1.9-.9-3.5-2-3.5H399.4"/><path class="gs35-6" d="M399.5,167.1H386.4c-1.1,0-2-1.6-2-3.5h0c0-1.9.9-3.5,2-3.5h26.7c1.1,0,2-1.6,2-3.5h0c0-1.9-.9-3.5-2-3.5H399.4"/><path class="gs35-6" d="M399.5,181.2H386.4c-1.1,0-2-1.6-2-3.5h0c0-1.9.9-3.5,2-3.5h26.7c1.1,0,2-1.6,2-3.5h0c0-1.9-.9-3.5-2-3.5H399.4"/><path class="gs35-6" d="M399.5,195.2H386.4c-1.1,0-2-1.6-2-3.5h0c0-1.9.9-3.5,2-3.5h26.7c1.1,0,2-1.6,2-3.5h0c0-1.9-.9-3.5-2-3.5H399.4"/><path class="gs35-6" d="M399.5,209.4H386.4c-1.1,0-2-1.6-2-3.5h0c0-1.9.9-3.5,2-3.5h26.7c1.1,0,2-1.6,2-3.5h0c0-1.9-.9-3.5-2-3.5H399.4"/><path class="gs35-6" d="M399.5,223.5H386.4c-1.1,0-2-1.6-2-3.5h0c0-1.9.9-3.5,2-3.5h26.7c1.1,0,2-1.6,2-3.5h0c0-1.9-.9-3.5-2-3.5H399.4"/><path class="gs35-6" d="M399.5,237.6H386.4c-1.1,0-2-1.6-2-3.5h0c0-1.9.9-3.5,2-3.5h26.7c1.1,0,2-1.6,2-3.5h0c0-1.9-.9-3.5-2-3.5H399.4"/><path class="gs35-6" d="M399.5,82.2H386.4c-1.1,0-2-1.6-2-3.5h0c0-1.9.9-3.5,2-3.5h26.7c1.1,0,2-1.6,2-3.5h0c0-1.9-.9-3.5-2-3.5H399.4"/><path class="gs35-6" d="M399.6,68h-13c-1.1,0-2-1.6-2-3.5h0c0-1.9.9-3.5,2-3.5h26.7c1.1,0,2-1.6,2-3.5h0c0-1.9-.9-3.5-2-3.5H399.5"/><path class="gs35-6" d="M399.5,96.3H386.4c-1.1,0-2-1.6-2-3.5h0c0-1.9.9-3.5,2-3.5h26.7c1.1,0,2-1.6,2-3.5h0c0-1.9-.9-3.5-2-3.5H399.4"/><path class="gs35-6" d="M399.5,251.7H386.4c-1.1,0-2-1.6-2-3.5h0c0-1.9.9-3.5,2-3.5h26.7c1.1,0,2-1.6,2-3.5h0c0-1.9-.9-3.5-2-3.5H399.4"/><path class="gs35-6" d="M386.4,258.8h26.7c1.1,0,2-1.6,2-3.5h0c0-1.9-.9-3.5-2-3.5H399.4"/></g><rect class="gs35-7" x="380.5" y="253.9" width="38.9" height="14.5"/><g class="gs35-8"><path class="gs35-9" d="M384,260.3h3.8a2.52,2.52,0,0,1,2,.6,1.91,1.91,0,0,1,.6,1.6,1.49,1.49,0,0,1-.2.9,2.09,2.09,0,0,1-.4.6c-0.1.1-.3,0.2-0.4,0.3l-0.3.1h0c0.1,0,.3.1,0.4,0.1s0.3,0.2.4,0.3a2.18,2.18,0,0,1,.3.5,2,2,0,0,1,.1.8,6.15,6.15,0,0,0,.1,1.3,1.14,1.14,0,0,0,.3.8h-1.5a1.42,1.42,0,0,1-.2-0.6V267a2.77,2.77,0,0,0-.1-0.9,1.07,1.07,0,0,0-.2-0.6,1,1,0,0,0-.5-0.4,2.2,2.2,0,0,0-.8-0.1h-2v3.2H384v-7.9h0Zm1.4,3.6h2.2a1.69,1.69,0,0,0,1-.3,1,1,0,0,0,.3-0.9,1.27,1.27,0,0,0-.1-0.6c-0.1-.1-0.2-0.3-0.3-0.4a0.76,0.76,0,0,0-.4-0.2h-2.7v2.4h0Z"/><path class="gs35-9" d="M394.2,268.3a5,5,0,0,1-1.2-.2,4.7,4.7,0,0,1-.9-0.6,3.33,3.33,0,0,1-.6-1,3.7,3.7,0,0,1,0-2.4,2.07,2.07,0,0,1,.6-1,2.36,2.36,0,0,1,.9-0.6,3.31,3.31,0,0,1,2.4,0,4.7,4.7,0,0,1,.9.6,3.33,3.33,0,0,1,.6,1,3.7,3.7,0,0,1,0,2.4,2.07,2.07,0,0,1-.6,1,2.36,2.36,0,0,1-.9.6A5,5,0,0,1,394.2,268.3Zm0-1a1.45,1.45,0,0,0,.7-0.2,1.2,1.2,0,0,0,.5-0.5l0.3-.6a3.79,3.79,0,0,0,0-1.5l-0.3-.6a2.36,2.36,0,0,0-.5-0.5,2,2,0,0,0-1.5,0,1.2,1.2,0,0,0-.5.5l-0.3.6a3.79,3.79,0,0,0,0,1.5l0.3,0.6a1.43,1.43,0,0,0,1.3.7h0Z"/><path class="gs35-9" d="M403.1,268.1h-1.2v-0.8h0a2.34,2.34,0,0,1-.7.7,1.61,1.61,0,0,1-.9.3,1.91,1.91,0,0,1-1.6-.6,2.62,2.62,0,0,1-.5-1.7v-3.6h1.2v3.5a2,2,0,0,0,.3,1.1,1.14,1.14,0,0,0,.8.3,1.7,1.7,0,0,0,.7-0.1,1.38,1.38,0,0,0,.4-0.3,0.76,0.76,0,0,0,.2-0.5c0-.2.1-0.4,0.1-0.6v-3.3h1.2v5.6h0Z"/><path class="gs35-9" d="M403.8,262.5h1v-1.7H406v1.7h1.1v0.9H406v3.3c0,0.1,0,.2.1,0.2s0.1,0.1.2,0.1h0.9v1h-0.8a2.2,2.2,0,0,1-.8-0.1,1.33,1.33,0,0,1-.5-0.3,0.76,0.76,0,0,1-.2-0.5c0-.2-0.1-0.4-0.1-0.6v-3.4h-1v-0.6h0Z"/><path class="gs35-9" d="M409,265.6a1.27,1.27,0,0,0,.1.6,2.19,2.19,0,0,0,.3.5,1,1,0,0,0,.5.4,1.48,1.48,0,0,0,.7.1,2.92,2.92,0,0,0,.9-0.2,1.79,1.79,0,0,0,.5-0.7h1.2a1.94,1.94,0,0,1-.9,1.4,2,2,0,0,1-.8.4,2.77,2.77,0,0,1-.9.1,5,5,0,0,1-1.2-.2,4.7,4.7,0,0,1-.9-0.6,3.13,3.13,0,0,1-.5-1,5,5,0,0,1-.2-1.2,3.59,3.59,0,0,1,.2-1.1,3.13,3.13,0,0,1,.5-1,2.52,2.52,0,0,1,2-.9,2.66,2.66,0,0,1,1.2.3,5.5,5.5,0,0,1,.9.7,3.7,3.7,0,0,1,.5,1.1,4.87,4.87,0,0,1,.1,1.2l-4.2.1h0Zm3-.8c0-.2-0.1-0.4-0.1-0.6s-0.2-.3-0.3-0.5-0.3-.2-0.4-0.3a1.85,1.85,0,0,0-1.2,0c-0.2.1-.3,0.2-0.5,0.3a2.18,2.18,0,0,0-.3.5,1.27,1.27,0,0,0-.1.6H412Z"/><path class="gs35-9" d="M414.2,262.5h1.2v1.1h0a1.06,1.06,0,0,1,.2-0.5,0.78,0.78,0,0,1,.4-0.4c0.2-.1.3-0.2,0.5-0.3a1.27,1.27,0,0,1,.6-0.1h0.5v1.2H417a1.27,1.27,0,0,0-.6.1,1,1,0,0,0-.5.4,1.69,1.69,0,0,0-.3.6,2.48,2.48,0,0,0-.1.8v2.7h-1.2v-5.6h-0.1Z"/></g><path class="gs35-10" d="M162.4,335.2h75.2a3.12,3.12,0,0,1,3.1,3.1v26.5a3.12,3.12,0,0,1-3.1,3.1H162.4a3.12,3.12,0,0,1-3.1-3.1V338.3A3.12,3.12,0,0,1,162.4,335.2Z"/><path class="gs35-10" d="M344.5,335.2h75.2a3.12,3.12,0,0,1,3.1,3.1v26.5a3.12,3.12,0,0,1-3.1,3.1H344.5a3.12,3.12,0,0,1-3.1-3.1V338.3A3.12,3.12,0,0,1,344.5,335.2Z"/><path class="gs35-11" d="M178.4,341.7a3.7,3.7,0,0,1,2.7.9,3.78,3.78,0,0,1,1,2.7,9.85,9.85,0,0,1-.2,1.7,1.85,1.85,0,0,1-.7,1.2,4.44,4.44,0,0,1-1.1.8,4.53,4.53,0,0,1-1.6.3h-2.6v-7.6h2.5Zm0.1,6.8h0.4a4.33,4.33,0,0,0,.5-0.1l0.6-.3a1.21,1.21,0,0,0,.5-0.5,3,3,0,0,0,.4-0.8,7.25,7.25,0,0,0,0-2.4,3.55,3.55,0,0,0-.4-0.9,1.56,1.56,0,0,0-.8-0.6,5,5,0,0,0-1.2-.2h-1.7v5.9l1.7-.1h0Z"/><path class="gs35-11" d="M182.9,342.8v-1.1h0.9v1.1h-0.9Zm0.9,1v5.5h-0.9v-5.5h0.9Z"/><path class="gs35-11" d="M185.7,348.1l0.3,0.3a2.57,2.57,0,0,0,.5.2,0.83,0.83,0,0,0,.5,0h0.5c0.1,0,.3-0.1.4-0.1s0.2-.1.3-0.2a0.6,0.6,0,0,0,.1-0.4,0.55,0.55,0,0,0-.3-0.5,4.87,4.87,0,0,0-.7-0.3c-0.3-.1-0.6-0.1-0.9-0.2a3.18,3.18,0,0,1-.9-0.3,1.79,1.79,0,0,1-.7-0.5,1.14,1.14,0,0,1-.3-0.8,1.85,1.85,0,0,1,.2-0.7,1.21,1.21,0,0,1,.5-0.5,4.87,4.87,0,0,1,.7-0.3,1.7,1.7,0,0,1,.7-0.1,2.77,2.77,0,0,1,.9.1,1.08,1.08,0,0,1,.7.3,1.21,1.21,0,0,1,.5.5,2.35,2.35,0,0,1,.2.8H188a2.27,2.27,0,0,0-.1-0.4l-0.3-.3a0.6,0.6,0,0,0-.4-0.1h-0.8c-0.1,0-.3.1-0.4,0.1a0.53,0.53,0,0,0-.3.2,0.48,0.48,0,0,0-.1.4,0.76,0.76,0,0,0,.2.4c0.1,0.1.3,0.2,0.4,0.3s0.4,0.1.6,0.2l0.6,0.1a1.85,1.85,0,0,1,.7.2l0.6,0.3a1.51,1.51,0,0,1,.4.4,1.45,1.45,0,0,1,.2.7,1.88,1.88,0,0,1-.2.8,1.21,1.21,0,0,1-.5.5,6.88,6.88,0,0,1-.8.3,2.49,2.49,0,0,1-.8.1,2.77,2.77,0,0,1-.9-0.1,4.88,4.88,0,0,1-.7-0.3,1,1,0,0,1-.5-0.6,2.92,2.92,0,0,1-.2-0.9h0.9A0.76,0.76,0,0,0,185.7,348.1Z"/><path class="gs35-11" d="M192.4,343.8v0.8h-1.1v3.7c0,0.1,0,.1.1,0.1s0.1,0.1.2,0.1h0.8v0.8h-1.3a0.76,0.76,0,0,1-.4-0.2,0.52,0.52,0,0,1-.2-0.4,1.27,1.27,0,0,1-.1-0.6v-3.5h-0.9v-0.8h0.9v-1.7h0.9v1.6l1.1,0.1h0Z"/><path class="gs35-11" d="M194,343.8V345h0a3.92,3.92,0,0,1,.8-1,2.66,2.66,0,0,1,1.2-.3v1a2.77,2.77,0,0,0-.9.1,1.28,1.28,0,0,0-.6.4,0.91,0.91,0,0,0-.3.7,2.77,2.77,0,0,0-.1.9v2.5h-0.9v-5.5H194Z"/><path class="gs35-11" d="M196.5,342.8v-1.1h0.9v1.1h-0.9Zm0.9,1v5.5h-0.9v-5.5h0.9Z"/><path class="gs35-11" d="M199.5,341.7v2.9h0a1.58,1.58,0,0,1,.7-0.7,3.12,3.12,0,0,1,2.2,0,2.41,2.41,0,0,1,.8.6,4.05,4.05,0,0,1,.5.9,4.25,4.25,0,0,1,.2,1.1,4.1,4.1,0,0,1-.1,1.1,4.05,4.05,0,0,1-.5.9,1.56,1.56,0,0,1-.8.6,2,2,0,0,1-1.1.2H201c-0.2,0-.3-0.1-0.5-0.1s-0.3-.2-0.5-0.3l-0.4-.4h0v0.7h-0.9v-7.6l0.8,0.1h0Zm3.2,4.1c-0.1-.2-0.2-0.5-0.3-0.7a1.21,1.21,0,0,0-.5-0.5,1.88,1.88,0,0,0-.8-0.2,2.35,2.35,0,0,0-.8.2,1.21,1.21,0,0,0-.5.5,4.88,4.88,0,0,0-.3.7,2,2,0,0,0-.1.8,2.2,2.2,0,0,0,.1.8c0.1,0.2.2,0.5,0.3,0.7a1.21,1.21,0,0,0,.5.5,1.88,1.88,0,0,0,.8.2,2.35,2.35,0,0,0,.8-0.2,1.21,1.21,0,0,0,.5-0.5,4.88,4.88,0,0,0,.3-0.7,2.2,2.2,0,0,0,.1-0.8,2,2,0,0,0-.1-0.8h0Z"/><path class="gs35-11" d="M208.3,349.3v-0.9h0a2.7,2.7,0,0,1-.7.8,2,2,0,0,1-1.1.2,2.77,2.77,0,0,1-.9-0.1,2.09,2.09,0,0,1-.6-0.4,0.86,0.86,0,0,1-.3-0.6,2.2,2.2,0,0,1-.1-0.8v-3.6h0.9v3.7a1,1,0,0,0,1.1,1.1,1.7,1.7,0,0,0,.7-0.1,1,1,0,0,0,.5-0.4c0.1-.2.2-0.3,0.3-0.5a1.7,1.7,0,0,0,.1-0.7v-3.1h0.9v5.5l-0.8-.1h0Z"/><path class="gs35-11" d="M212.6,343.8v0.8h-1.1v3.7c0,0.1,0,.1.1,0.1s0.1,0.1.2,0.1h0.8v0.8h-1.3a0.76,0.76,0,0,1-.4-0.2,0.52,0.52,0,0,1-.2-0.4,1.27,1.27,0,0,1-.1-0.6v-3.5h-0.9v-0.8h0.9v-1.7h0.9v1.6l1.1,0.1h0Z"/><path class="gs35-11" d="M217.2,349a3,3,0,0,1-1.6.5,3.59,3.59,0,0,1-1.1-.2,1.56,1.56,0,0,1-.8-0.6,4.05,4.05,0,0,1-.5-0.9,5,5,0,0,1-.2-1.2,3.6,3.6,0,0,1,.2-1.1,4.05,4.05,0,0,1,.5-0.9,1.56,1.56,0,0,1,.8-0.6,3.55,3.55,0,0,1,1-.2,2.38,2.38,0,0,1,1.2.3,3,3,0,0,1,.8.8,3,3,0,0,1,.4,1,3.75,3.75,0,0,1,.1,1.1h-4.1a1.7,1.7,0,0,0,.1.7l0.3,0.6a1,1,0,0,0,.5.4,1.06,1.06,0,0,0,.8.1,1.4,1.4,0,0,0,.9-0.3,1.37,1.37,0,0,0,.5-0.8h0.9A2.11,2.11,0,0,1,217.2,349Zm-0.2-3.6a2.19,2.19,0,0,0-.3-0.5,0.85,0.85,0,0,0-.5-0.3,1.85,1.85,0,0,0-1.2,0c-0.2.1-.3,0.2-0.5,0.3a2.19,2.19,0,0,0-.3.5,1.27,1.27,0,0,0-.1.6h3.2A1.69,1.69,0,0,1,217,345.4Z"/><path class="gs35-11" d="M222.8,349.3v-0.8h0a1.58,1.58,0,0,1-.7.7,3.12,3.12,0,0,1-2.2,0,2.41,2.41,0,0,1-.8-0.6,4.05,4.05,0,0,1-.5-0.9,4.25,4.25,0,0,1-.2-1.1,4.1,4.1,0,0,1,.1-1.1,4.05,4.05,0,0,1,.5-0.9,1.56,1.56,0,0,1,.8-0.6,2,2,0,0,1,1.1-.2h0.5c0.2,0,.3.1,0.5,0.1s0.3,0.2.5,0.3l0.4,0.4h0v-2.8h0.9v7.6l-0.9-.1h0Zm-3.3-2a3.33,3.33,0,0,0,.3.6,1.21,1.21,0,0,0,.5.5,1.88,1.88,0,0,0,.8.2,2.35,2.35,0,0,0,.8-0.2,1.21,1.21,0,0,0,.5-0.5,4.88,4.88,0,0,0,.3-0.7,2,2,0,0,0,.1-0.8,2.2,2.2,0,0,0-.1-0.8c-0.1-.2-0.2-0.5-0.3-0.7a1.21,1.21,0,0,0-.5-0.5,1.88,1.88,0,0,0-.8-0.2,2.35,2.35,0,0,0-.8.2,1.21,1.21,0,0,0-.5.5,4.88,4.88,0,0,0-.3.7,2.2,2.2,0,0,0-.1.8c0,0.4.1,0.7,0.1,0.9h0Z"/><path class="gs35-11" d="M179,352.7a3.7,3.7,0,0,1,2.7.9,3.78,3.78,0,0,1,1,2.7,9.85,9.85,0,0,1-.2,1.7,1.85,1.85,0,0,1-.7,1.2,4.44,4.44,0,0,1-1.1.8,4.53,4.53,0,0,1-1.6.3h-2.6v-7.6H179Zm0,6.8h0.4a4.33,4.33,0,0,0,.5-0.1l0.6-.3a1.21,1.21,0,0,0,.5-0.5,3,3,0,0,0,.4-0.8,7.25,7.25,0,0,0,0-2.4,3.55,3.55,0,0,0-.4-0.9,1.56,1.56,0,0,0-.8-0.6,5,5,0,0,0-1.2-.2h-1.7v5.9l1.7-.1h0Z"/><path class="gs35-11" d="M188.3,360.3a0.66,0.66,0,0,1-.6.1,1.42,1.42,0,0,1-.6-0.2,0.73,0.73,0,0,1-.2-0.6,1.46,1.46,0,0,1-.9.6,2.79,2.79,0,0,1-1.8.1,1.69,1.69,0,0,1-.6-0.3,1,1,0,0,1-.4-0.5,1.7,1.7,0,0,1-.1-0.7,1.2,1.2,0,0,1,.2-0.8,1,1,0,0,1,.4-0.5l0.6-.3a6.37,6.37,0,0,1,.7-0.2c0.2,0,.5-0.1.7-0.1s0.4-.1.6-0.1a0.52,0.52,0,0,0,.4-0.2,0.3,0.3,0,0,0,.1-0.4,0.9,0.9,0,0,0-.1-0.5l-0.3-.3a0.6,0.6,0,0,0-.4-0.1h-0.4a3.55,3.55,0,0,0-1,.2,0.91,0.91,0,0,0-.4.8h-0.9a2.92,2.92,0,0,1,.2-0.9,2.65,2.65,0,0,1,.5-0.6,2.12,2.12,0,0,1,.7-0.3,2.77,2.77,0,0,1,.9-0.1h0.7a1.85,1.85,0,0,1,.7.2,1.21,1.21,0,0,1,.5.5,1.88,1.88,0,0,1,.2.8v3.3c0,0.1.1,0.2,0.2,0.1h0.3l0.1,1h0Zm-1.5-2.8a0.76,0.76,0,0,1-.4.2l-0.6.1-0.6.1c-0.2,0-.4.1-0.6,0.1a1.38,1.38,0,0,0-.4.3,1.06,1.06,0,0,0-.2.5,0.6,0.6,0,0,0,.1.4,0.38,0.38,0,0,0,.2.2,0.37,0.37,0,0,0,.3.1H185a1.68,1.68,0,0,0,1.3-.4,1.38,1.38,0,0,0,.3-0.4,0.6,0.6,0,0,0,.1-0.4l0.1-.8h0Z"/><path class="gs35-11" d="M191.2,354.8v0.8h-1.1v3.7c0,0.1,0,.1.1,0.1s0.1,0.1.2,0.1h0.8v0.8H190a0.71,0.71,0,0,1-.6-0.6,1.27,1.27,0,0,1-.1-0.6v-3.5h-0.9v-0.8h0.9v-1.7h0.9v1.6l1,0.1h0Z"/><path class="gs35-11" d="M196.9,360.3a0.66,0.66,0,0,1-.6.1,1.42,1.42,0,0,1-.6-0.2,0.73,0.73,0,0,1-.2-0.6,1.46,1.46,0,0,1-.9.6,2.79,2.79,0,0,1-1.8.1,1.69,1.69,0,0,1-.6-0.3,1,1,0,0,1-.4-0.5,1.7,1.7,0,0,1-.1-0.7,1.2,1.2,0,0,1,.2-0.8,1,1,0,0,1,.4-0.5l0.6-.3a6.37,6.37,0,0,1,.7-0.2c0.2,0,.5-0.1.7-0.1s0.4-.1.6-0.1a0.52,0.52,0,0,0,.4-0.2,0.3,0.3,0,0,0,.1-0.4,0.9,0.9,0,0,0-.1-0.5l-0.3-.3a0.6,0.6,0,0,0-.4-0.1h-0.4a3.55,3.55,0,0,0-1,.2,0.91,0.91,0,0,0-.4.8h-0.9a2.92,2.92,0,0,1,.2-0.9,2.65,2.65,0,0,1,.5-0.6,2.12,2.12,0,0,1,.7-0.3,2.77,2.77,0,0,1,.9-0.1h0.7a1.85,1.85,0,0,1,.7.2,1.21,1.21,0,0,1,.5.5,1.88,1.88,0,0,1,.2.8v3.3c0,0.1.1,0.2,0.2,0.1h0.3l0.1,1h0Zm-1.5-2.8a0.76,0.76,0,0,1-.4.2l-0.6.1-0.6.1c-0.2,0-.4.1-0.6,0.1a1.38,1.38,0,0,0-.4.3,1.06,1.06,0,0,0-.2.5,0.6,0.6,0,0,0,.1.4,0.38,0.38,0,0,0,.2.2,0.37,0.37,0,0,0,.3.1h0.4a1.68,1.68,0,0,0,1.3-.4,1.38,1.38,0,0,0,.3-0.4,0.6,0.6,0,0,0,.1-0.4l0.1-.8h0Z"/><path class="gs35-11" d="M204.1,353.8a2,2,0,0,0-1.3-.4,1.27,1.27,0,0,0-.6.1,0.76,0.76,0,0,0-.5.2,0.78,0.78,0,0,0-.4.4,1.27,1.27,0,0,0-.1.6,1.42,1.42,0,0,0,.2.6,1.76,1.76,0,0,0,.5.4,2.35,2.35,0,0,0,.8.2l0.9,0.2c0.3,0.1.6,0.1,0.9,0.2a3,3,0,0,1,.8.4l0.6,0.6a2,2,0,0,1-.1,2,2.34,2.34,0,0,1-.7.7,3,3,0,0,1-1,.4,3.4,3.4,0,0,1-1,.1,5,5,0,0,1-1.2-.2,3.13,3.13,0,0,1-1-.5,2.7,2.7,0,0,1-.7-0.8,1.72,1.72,0,0,1-.2-1.2h1a1.88,1.88,0,0,0,.2.8,2.65,2.65,0,0,0,.5.6,1.08,1.08,0,0,0,.7.3,2.2,2.2,0,0,0,.8.1,1.7,1.7,0,0,0,.7-0.1,1.42,1.42,0,0,0,.6-0.2,1.76,1.76,0,0,0,.5-0.4,1.45,1.45,0,0,0,.2-0.7,1.07,1.07,0,0,0-.2-0.6,1.27,1.27,0,0,0-.6-0.4,2.35,2.35,0,0,0-.8-0.2l-0.9-.2c-0.3-.1-0.6-0.1-0.9-0.2a3,3,0,0,1-.8-0.4,1,1,0,0,1-.5-0.6,2.92,2.92,0,0,1-.2-0.9,2,2,0,0,1,.9-1.7,3.55,3.55,0,0,1,.9-0.4,3.4,3.4,0,0,1,1-.1,4.1,4.1,0,0,1,1.1.1,3.55,3.55,0,0,1,.9.4,1.56,1.56,0,0,1,.6.8,2,2,0,0,1,.2,1.1h-1A2.84,2.84,0,0,0,204.1,353.8Z"/><path class="gs35-11" d="M209.1,354.8v0.8H208v3.7c0,0.1,0,.1.1,0.1s0.1,0.1.2,0.1h0.8v0.8h-1.3a0.71,0.71,0,0,1-.6-0.6,1.27,1.27,0,0,1-.1-0.6v-3.5h-0.9v-0.8h0.9v-1.7H208v1.6l1.1,0.1h0Z"/><path class="gs35-11" d="M209.7,356.5a2.62,2.62,0,0,1,.5-0.9,1.56,1.56,0,0,1,.8-0.6,3.05,3.05,0,0,1,2.3,0,1.56,1.56,0,0,1,.8.6,4.05,4.05,0,0,1,.5.9,5.16,5.16,0,0,1,.2,1.1,3.6,3.6,0,0,1-.2,1.1,4.05,4.05,0,0,1-.5.9,1.56,1.56,0,0,1-.8.6,3.05,3.05,0,0,1-2.3,0,1.56,1.56,0,0,1-.8-0.6,4.05,4.05,0,0,1-.5-0.9,4.25,4.25,0,0,1-.2-1.1C209.6,357.2,209.6,356.8,209.7,356.5Zm1,2a1.27,1.27,0,0,0,.4.6,1.76,1.76,0,0,0,.5.4,1.48,1.48,0,0,0,1.3,0,1,1,0,0,0,.5-0.4,2.09,2.09,0,0,0,.4-0.6,2.78,2.78,0,0,0,0-1.8,2.51,2.51,0,0,0-.4-0.7,1.76,1.76,0,0,0-.5-0.4,1.48,1.48,0,0,0-1.3,0,1,1,0,0,0-.5.4,1.61,1.61,0,0,0-.4.7,2.78,2.78,0,0,0,0,1.8h0Z"/><path class="gs35-11" d="M216.6,354.8V356h0a3.92,3.92,0,0,1,.8-1,2.66,2.66,0,0,1,1.2-.3v1a2.77,2.77,0,0,0-.9.1,1.28,1.28,0,0,0-.6.4,0.91,0.91,0,0,0-.3.7,2.77,2.77,0,0,0-.1.9v2.5h-0.9v-5.5h0.8Z"/><path class="gs35-11" d="M222.7,360a3,3,0,0,1-1.6.5,3.59,3.59,0,0,1-1.1-.2,1.56,1.56,0,0,1-.8-0.6,4.05,4.05,0,0,1-.5-0.9,5,5,0,0,1-.2-1.2,3.6,3.6,0,0,1,.2-1.1,4.05,4.05,0,0,1,.5-0.9,1.56,1.56,0,0,1,.8-0.6,3.55,3.55,0,0,1,1-.2,2.38,2.38,0,0,1,1.2.3,3,3,0,0,1,.8.8,3,3,0,0,1,.4,1,3.4,3.4,0,0,1,.1,1h-4.1a1.7,1.7,0,0,0,.1.7l0.3,0.6a1,1,0,0,0,.5.4,1.06,1.06,0,0,0,.8.1,1.4,1.4,0,0,0,.9-0.3,1.37,1.37,0,0,0,.5-0.8h0.9A1.75,1.75,0,0,1,222.7,360Zm-0.2-3.6a1.5,1.5,0,0,0-1.4-1,1.27,1.27,0,0,0-.6.1c-0.2.1-.3,0.2-0.5,0.3a2.19,2.19,0,0,0-.3.5,1.27,1.27,0,0,0-.1.6h3.2a0.85,0.85,0,0,1-.3-0.5h0Z"/><path class="gs35-11" d="M369.4,347.1a2.52,2.52,0,0,1,1.7.6,2.57,2.57,0,0,1,0,3.3,2.72,2.72,0,0,1-1.7.6h-2.3v3.1h-1v-7.6h3.3Zm-0.3,3.6a2.2,2.2,0,0,0,1.3-.4,1.45,1.45,0,0,0,0-2,2,2,0,0,0-1.3-.4h-2v2.8h2Z"/><path class="gs35-11" d="M373.6,347.1v7.6h-0.9v-7.6h0.9Z"/><path class="gs35-11" d="M378.4,354.7v-0.9h0a2.7,2.7,0,0,1-.7.8,1.8,1.8,0,0,1-1,.2,2.77,2.77,0,0,1-.9-0.1,2.09,2.09,0,0,1-.6-0.4,0.86,0.86,0,0,1-.3-0.6,2.2,2.2,0,0,1-.1-0.8v-3.6h0.9V353a1,1,0,0,0,1.1,1.1,1.7,1.7,0,0,0,.7-0.1,1,1,0,0,0,.5-0.4c0.1-.2.2-0.3,0.3-0.5a1.7,1.7,0,0,0,.1-0.7v-3.1h0.9v5.5h-0.9v-0.1Z"/><path class="gs35-11" d="M384.5,356.3a2.64,2.64,0,0,1-1.9.7,2.2,2.2,0,0,1-.8-0.1,1.49,1.49,0,0,1-.7-0.3,1.2,1.2,0,0,1-.5-0.5,1.88,1.88,0,0,1-.2-0.8h0.9a2.27,2.27,0,0,0,.1.4,1.38,1.38,0,0,0,.4.3,0.75,0.75,0,0,0,.5.1h0.5a2.2,2.2,0,0,0,.8-0.1,1,1,0,0,0,.5-0.4l0.3-.6a2.48,2.48,0,0,0,.1-0.8v-0.4h0a1.78,1.78,0,0,1-.7.8,1.8,1.8,0,0,1-1,.2,4.25,4.25,0,0,1-1.1-.2,1.56,1.56,0,0,1-.8-0.6,4.05,4.05,0,0,1-.5-0.9,2,2,0,0,1-.1-1.1,3.4,3.4,0,0,1,.1-1,2.47,2.47,0,0,1,.4-0.9,2.7,2.7,0,0,1,.8-0.7,2.66,2.66,0,0,1,1.2-.3,3.55,3.55,0,0,1,1,.2,2.34,2.34,0,0,1,.7.7h0v-0.8h0.9v5A5.58,5.58,0,0,1,384.5,356.3Zm-1.2-2.5a1.2,1.2,0,0,0,.5-0.5,4.87,4.87,0,0,0,.3-0.7,2.2,2.2,0,0,0,.1-0.8,2.15,2.15,0,0,0-.4-1.3,2.36,2.36,0,0,0-.5-0.5,1.85,1.85,0,0,0-.7-0.2,2.35,2.35,0,0,0-.8.2,2.18,2.18,0,0,0-.5.4l-0.3.6a2,2,0,0,0-.1.8,2.2,2.2,0,0,0,.1.8,1.08,1.08,0,0,0,.3.7,1.2,1.2,0,0,0,.5.5,1.88,1.88,0,0,0,.8.2A1.85,1.85,0,0,0,383.3,353.8Z"/><path class="gs35-11" d="M386.2,348.2v-1.1h0.9v1.1h-0.9Zm1,1v5.5h-0.9v-5.5h0.9Z"/><path class="gs35-11" d="M389.1,349.2v0.9h0a1.9,1.9,0,0,1,1.8-1,2.77,2.77,0,0,1,.9.1,2.09,2.09,0,0,1,.6.4,0.86,0.86,0,0,1,.3.6,2.2,2.2,0,0,1,.1.8v3.6h-0.9V351a1,1,0,0,0-1.1-1.1,1.7,1.7,0,0,0-.7.1,1,1,0,0,0-.5.4c-0.1.2-.2,0.3-0.3,0.5a1.7,1.7,0,0,0-.1.7v3.1h-0.9v-5.5h0.8Z"/><path class="gs35-11" d="M394.6,353.5l0.3,0.3a2.57,2.57,0,0,0,.5.2,0.83,0.83,0,0,0,.5,0h0.5c0.1,0,.3-0.1.4-0.1s0.2-.1.3-0.2a0.6,0.6,0,0,0,.1-0.4,0.55,0.55,0,0,0-.3-0.5,4.87,4.87,0,0,0-.7-0.3c-0.3-.1-0.6-0.1-0.9-0.2a3.18,3.18,0,0,1-.9-0.3,1.79,1.79,0,0,1-.7-0.5,1.14,1.14,0,0,1-.3-0.8,1.85,1.85,0,0,1,.2-0.7,1.2,1.2,0,0,1,.5-0.5,4.87,4.87,0,0,1,.7-0.3,1.7,1.7,0,0,1,.7-0.1,2.77,2.77,0,0,1,.9.1,1.08,1.08,0,0,1,.7.3,1.2,1.2,0,0,1,.5.5,2.35,2.35,0,0,1,.2.8h-0.9a2.27,2.27,0,0,0-.1-0.4l-0.3-.3a0.6,0.6,0,0,0-.4-0.1h-0.8c-0.1,0-.3.1-0.4,0.1a0.53,0.53,0,0,0-.3.2,0.48,0.48,0,0,0-.1.4,0.76,0.76,0,0,0,.2.4c0.1,0.1.3,0.2,0.4,0.3s0.4,0.1.6,0.2l0.6,0.1a1.85,1.85,0,0,1,.7.2l0.6,0.3a1.51,1.51,0,0,1,.4.4,1.45,1.45,0,0,1,.2.7,1.88,1.88,0,0,1-.2.8,1.2,1.2,0,0,1-.5.5,6.89,6.89,0,0,1-.8.3,2.48,2.48,0,0,1-.8.1,2.77,2.77,0,0,1-.9-0.1,4.88,4.88,0,0,1-.7-0.3,1,1,0,0,1-.5-0.6,2.92,2.92,0,0,1-.2-0.9h0.9A2.28,2.28,0,0,1,394.6,353.5Z"/><path class="gs35-10" d="M161.8,302H420.4a3.12,3.12,0,0,1,3.1,3.1v19.2a3.12,3.12,0,0,1-3.1,3.1H161.8a3.12,3.12,0,0,1-3.1-3.1V305.1A3.12,3.12,0,0,1,161.8,302Z"/><path class="gs35-11" d="M220.1,311.2a2.9,2.9,0,0,0-1.8-.5,3.65,3.65,0,0,0-1.5.3,2.84,2.84,0,0,0-1,.9,3.1,3.1,0,0,0-.6,1.3,7.72,7.72,0,0,0-.2,1.5,8.75,8.75,0,0,0,.2,1.6,3.1,3.1,0,0,0,.6,1.3,2.44,2.44,0,0,0,1.1.9,2.7,2.7,0,0,0,1.5.3,5,5,0,0,0,1.2-.2,2.36,2.36,0,0,0,.9-0.6,4.7,4.7,0,0,0,.6-0.9,5.16,5.16,0,0,0,.2-1.1h1.3a4.34,4.34,0,0,1-1.3,2.9,4.06,4.06,0,0,1-3,1,4.48,4.48,0,0,1-2-.4,3.14,3.14,0,0,1-1.4-1.1,5.07,5.07,0,0,1-.9-1.6,6.82,6.82,0,0,1,0-4,5.56,5.56,0,0,1,.9-1.7,3.27,3.27,0,0,1,1.5-1.1,4.48,4.48,0,0,1,2-.4,7.72,7.72,0,0,1,1.5.2,2.73,2.73,0,0,1,1.2.6,2.84,2.84,0,0,1,.9,1,3.36,3.36,0,0,1,.5,1.4h-1.4A2.75,2.75,0,0,0,220.1,311.2Z"/><path class="gs35-11" d="M228.9,319.4a3.61,3.61,0,0,1-2,.6,4,4,0,0,1-1.5-.3,2.84,2.84,0,0,1-1.1-.8,3.38,3.38,0,0,1-.6-1.2,3.89,3.89,0,0,1-.2-1.5,7.72,7.72,0,0,1,.2-1.5,7.46,7.46,0,0,1,.7-1.2,4.44,4.44,0,0,1,1.1-.8,3.19,3.19,0,0,1,1.4-.3,2.93,2.93,0,0,1,1.6.4,4.74,4.74,0,0,1,1,1,3.49,3.49,0,0,1,.5,1.3,6.6,6.6,0,0,1,.1,1.4h-5.4a2.77,2.77,0,0,0,.1.9,3,3,0,0,0,.4.8,1.79,1.79,0,0,0,.7.5,3.55,3.55,0,0,0,1,.2,1.75,1.75,0,0,0,1.2-.4,1.52,1.52,0,0,0,.6-1.1h1.2A2.46,2.46,0,0,1,228.9,319.4Zm-0.3-4.7a1.27,1.27,0,0,0-.4-0.6,2,2,0,0,0-1.5-.6,1.88,1.88,0,0,0-.8.2,3.11,3.11,0,0,0-.6.4,2.09,2.09,0,0,0-.4.6,2.35,2.35,0,0,0-.2.8h4.2A2.61,2.61,0,0,0,228.6,314.7Z"/><path class="gs35-11" d="M232.3,312.6v1.1h0a2.43,2.43,0,0,1,2.4-1.3,5,5,0,0,1,1.2.2,2.18,2.18,0,0,1,.8.5,2,2,0,0,1,.4.8,4.1,4.1,0,0,1,.1,1.1v4.8H236v-4.9a1.38,1.38,0,0,0-1.5-1.5,2.92,2.92,0,0,0-.9.2,1.79,1.79,0,0,0-.7.5,2.51,2.51,0,0,0-.4.7,2.77,2.77,0,0,0-.1.9v4.1h-1.2v-7.2h1.1Z"/><path class="gs35-11" d="M241.9,312.6v1h-1.4v4.8a0.35,0.35,0,0,0,.1.2,0.37,0.37,0,0,0,.3.1h1v1H241a2.2,2.2,0,0,1-.8-0.1,0.76,0.76,0,0,1-.5-0.2,1.68,1.68,0,0,1-.4-1.3v-4.6H238v-1h1.2v-2.2h1.2v2.2l1.5,0.1h0Z"/><path class="gs35-11" d="M244.2,312.6v1.5h0a2.76,2.76,0,0,1,1.1-1.3,2.93,2.93,0,0,1,1.6-.4v1.3a5,5,0,0,0-1.2.2,1.56,1.56,0,0,0-.8.6,4.05,4.05,0,0,0-.5.9,4.87,4.87,0,0,0-.1,1.2v3.2H243v-7.2h1.2Z"/><path class="gs35-11" d="M254,319.8a2.92,2.92,0,0,1-.9.2,0.91,0.91,0,0,1-.7-0.3,1.22,1.22,0,0,1-.3-0.9,3.13,3.13,0,0,1-1.1.9,3.63,3.63,0,0,1-2.3.1,3,3,0,0,1-.8-0.4,2.65,2.65,0,0,1-.5-0.6,2.92,2.92,0,0,1-.2-0.9,3.55,3.55,0,0,1,.2-1,1,1,0,0,1,.5-0.6,2,2,0,0,1,.8-0.4c0.3-.1.6-0.1,0.9-0.2a2.77,2.77,0,0,1,.9-0.1c0.3,0,.5-0.1.8-0.1a0.55,0.55,0,0,0,.5-0.3,0.76,0.76,0,0,0,.2-0.5,1.27,1.27,0,0,0-.1-0.6,0.78,0.78,0,0,0-.4-0.4c-0.2-.1-0.3-0.1-0.5-0.2h-0.6a3.08,3.08,0,0,0-1.3.3,1,1,0,0,0-.5,1.1h-1.2a2,2,0,0,1,.3-1.1,2.7,2.7,0,0,1,.7-0.8,3,3,0,0,1,1-.4,4.48,4.48,0,0,1,1.1-.1,3.4,3.4,0,0,1,1,.1,1.61,1.61,0,0,1,.9.3,1.17,1.17,0,0,1,.6.6,1.8,1.8,0,0,1,.2,1v4.3a0.34,0.34,0,0,0,.3.2,0.76,0.76,0,0,0,.4-0.1l0.1,0.9h0Zm-1.9-3.7a1.42,1.42,0,0,1-.6.2,2,2,0,0,1-.8.1l-0.8.1a1.45,1.45,0,0,0-.7.2,1,1,0,0,0-.5.4,1.85,1.85,0,0,0-.2.7,0.9,0.9,0,0,0,.1.5l0.3,0.3c0.1,0.1.3,0.1,0.4,0.2a0.83,0.83,0,0,0,.5,0,1.8,1.8,0,0,0,1-.2,1.61,1.61,0,0,0,.7-0.4,1,1,0,0,0,.4-0.5,1.09,1.09,0,0,0,.1-0.5l0.1-1.1h0Z"/><path class="gs35-11" d="M256.3,309.8v10h-1.2v-10h1.2Z"/><path class="gs35-11" d="M258,311.3v-1.5h1.2v1.5H258Zm1.2,1.3v7.2H258v-7.2h1.2Z"/><path class="gs35-11" d="M264.7,313.6h-4.1v-1h5.6v0.8l-4.4,5.4h4.6v1h-6.1v-0.9Z"/><path class="gs35-11" d="M272.6,319.4a3.61,3.61,0,0,1-2,.6,4,4,0,0,1-1.5-.3,2.84,2.84,0,0,1-1.1-.8,3.38,3.38,0,0,1-.6-1.2,3.89,3.89,0,0,1-.2-1.5,7.72,7.72,0,0,1,.2-1.5,7.46,7.46,0,0,1,.7-1.2,4.44,4.44,0,0,1,1.1-.8,3.19,3.19,0,0,1,1.4-.3,2.93,2.93,0,0,1,1.6.4,4.74,4.74,0,0,1,1,1,3.49,3.49,0,0,1,.5,1.3,6.6,6.6,0,0,1,.1,1.4h-5.4a2.77,2.77,0,0,0,.1.9,3,3,0,0,0,.4.8,1.79,1.79,0,0,0,.7.5,3.55,3.55,0,0,0,1,.2,1.75,1.75,0,0,0,1.2-.4,1.52,1.52,0,0,0,.6-1.1h1.2A2.46,2.46,0,0,1,272.6,319.4Zm-0.2-4.7a1.28,1.28,0,0,0-.4-0.6,2,2,0,0,0-1.5-.6,1.88,1.88,0,0,0-.8.2,3.11,3.11,0,0,0-.6.4,2.09,2.09,0,0,0-.4.6,2.35,2.35,0,0,0-.2.8h4.2a2.61,2.61,0,0,1-.3-0.8h0Z"/><path class="gs35-11" d="M280.2,319.8v-1h0a2,2,0,0,1-.9.9,3.19,3.19,0,0,1-1.4.3,4,4,0,0,1-1.5-.3,3.92,3.92,0,0,1-1-.8,3.38,3.38,0,0,1-.6-1.2,5.72,5.72,0,0,1,0-3,3.38,3.38,0,0,1,.6-1.2,3.92,3.92,0,0,1,1-.8,4,4,0,0,1,1.5-.3,1.27,1.27,0,0,1,.6.1,1.42,1.42,0,0,1,.6.2,2.09,2.09,0,0,1,.6.4,1.2,1.2,0,0,1,.5.5h0v-3.7h1.2v10l-1.2-.1h0Zm-4.3-2.5a3.55,3.55,0,0,0,.4.9,1.34,1.34,0,0,0,.7.6,1.8,1.8,0,0,0,1,.2,2,2,0,0,0,1.7-.9,3.55,3.55,0,0,0,.4-0.9,5,5,0,0,0,0-2,3.55,3.55,0,0,0-.4-0.9,1.34,1.34,0,0,0-.7-0.6,1.8,1.8,0,0,0-1-.2,3.55,3.55,0,0,0-1,.2,4.35,4.35,0,0,0-.7.6,3.55,3.55,0,0,0-.4.9,3.4,3.4,0,0,0-.1,1,4.1,4.1,0,0,0,.1,1.1h0Z"/><path class="gs35-11" d="M293.1,311.2a2.9,2.9,0,0,0-1.8-.5,3.65,3.65,0,0,0-1.5.3,2.84,2.84,0,0,0-1,.9,3.1,3.1,0,0,0-.6,1.3,7.72,7.72,0,0,0-.2,1.5,8.75,8.75,0,0,0,.2,1.6,3.1,3.1,0,0,0,.6,1.3,2.44,2.44,0,0,0,1.1.9,2.7,2.7,0,0,0,1.5.3,5,5,0,0,0,1.2-.2,2.36,2.36,0,0,0,.9-0.6,4.7,4.7,0,0,0,.6-0.9,5.16,5.16,0,0,0,.2-1.1h1.3a4.34,4.34,0,0,1-1.3,2.9,4.06,4.06,0,0,1-3,1,4.48,4.48,0,0,1-2-.4,3.14,3.14,0,0,1-1.4-1.1,5.07,5.07,0,0,1-.9-1.6,6.82,6.82,0,0,1,0-4,5.56,5.56,0,0,1,.9-1.7,3.27,3.27,0,0,1,1.5-1.1,4.48,4.48,0,0,1,2-.4,7.72,7.72,0,0,1,1.5.2,2.73,2.73,0,0,1,1.2.6,2.84,2.84,0,0,1,.9,1,3.36,3.36,0,0,1,.5,1.4h-1.3A3.55,3.55,0,0,0,293.1,311.2Z"/><path class="gs35-11" d="M296.6,314.7a2.92,2.92,0,0,1,.7-1.2,4.44,4.44,0,0,1,1.1-.8,3.9,3.9,0,0,1,3,0,4.44,4.44,0,0,1,1.1.8,4.73,4.73,0,0,1,.7,1.2,3.89,3.89,0,0,1,.2,1.5,7.72,7.72,0,0,1-.2,1.5,3.75,3.75,0,0,1-.7,1.2,4.44,4.44,0,0,1-1.1.8,3.9,3.9,0,0,1-3,0,4.44,4.44,0,0,1-1.1-.8,7.46,7.46,0,0,1-.7-1.2,3.89,3.89,0,0,1-.2-1.5A2.62,2.62,0,0,1,296.6,314.7Zm1.2,2.7a4.05,4.05,0,0,0,.5.9,1.79,1.79,0,0,0,.7.5,2.77,2.77,0,0,0,1.8,0,1.79,1.79,0,0,0,.7-0.5,1.93,1.93,0,0,0,.5-0.9,4.48,4.48,0,0,0,0-2.3,4.05,4.05,0,0,0-.5-0.9,1.79,1.79,0,0,0-.7-0.5,2.77,2.77,0,0,0-1.8,0,1.79,1.79,0,0,0-.7.5,2.62,2.62,0,0,0-.5.9,4.48,4.48,0,0,0,0,2.3h0Z"/><path class="gs35-11" d="M305.8,312.6v1.1h0a2.43,2.43,0,0,1,2.4-1.3,5,5,0,0,1,1.2.2,2.18,2.18,0,0,1,.8.5,2,2,0,0,1,.4.8,4.1,4.1,0,0,1,.1,1.1v4.8h-1.2v-4.9a1.38,1.38,0,0,0-1.5-1.5,2.92,2.92,0,0,0-.9.2,1.79,1.79,0,0,0-.7.5,2.51,2.51,0,0,0-.4.7,2.77,2.77,0,0,0-.1.9v4.1h-1.2v-7.2h1.1Z"/><path class="gs35-11" d="M311.6,313.6v-1h1.2v-1.1a1.9,1.9,0,0,1,.5-1.3,2.69,2.69,0,0,1,1.5-.5h0.4a0.6,0.6,0,0,1,.4.1v1c-0.1,0-.2-0.1-0.3-0.1H315a1,1,0,0,0-.7.2,0.52,0.52,0,0,0-.2.6v1h1.4v1H314v6.2h-1.2v-6.2l-1.2.1h0Z"/><path class="gs35-11" d="M316.4,311.3v-1.5h1.2v1.5h-1.2Zm1.2,1.3v7.2h-1.2v-7.2h1.2Z"/><path class="gs35-11" d="M324.7,321.9a4.17,4.17,0,0,1-3.5.8,3,3,0,0,1-1-.4,2.34,2.34,0,0,1-.7-0.7,1.69,1.69,0,0,1-.3-1h1.2a0.76,0.76,0,0,0,.2.5,2.18,2.18,0,0,0,.5.4,1.42,1.42,0,0,0,.6.2c0.2,0,.4.1,0.6,0.1a3.55,3.55,0,0,0,1-.2,1.34,1.34,0,0,0,.7-0.6,2.47,2.47,0,0,0,.4-0.9,4.1,4.1,0,0,0,.1-1.1v-0.5h0a2.19,2.19,0,0,1-.9,1,3.08,3.08,0,0,1-1.3.3,3.19,3.19,0,0,1-1.4-.3,3.92,3.92,0,0,1-1-.8,2.28,2.28,0,0,1-.6-1.2,6.75,6.75,0,0,1-.2-1.4,5.85,5.85,0,0,1,.2-1.3,2.73,2.73,0,0,1,.6-1.2,2.84,2.84,0,0,1,1-.9,2.93,2.93,0,0,1,1.6-.4,3.08,3.08,0,0,1,1.3.3,2,2,0,0,1,.9.9h0v-1h1.2v6.6A7.92,7.92,0,0,1,324.7,321.9Zm-1.5-3.3a4.35,4.35,0,0,0,.7-0.6,3.55,3.55,0,0,0,.4-0.9,3.4,3.4,0,0,0,.1-1,2.77,2.77,0,0,0-.1-0.9,2,2,0,0,0-.4-0.8l-0.6-.6a1.8,1.8,0,0,0-1-.2,3.55,3.55,0,0,0-1,.2,1.34,1.34,0,0,0-.7.6,3,3,0,0,0-.4.8,5,5,0,0,0,0,2l0.3,0.9a1.7,1.7,0,0,0,.6.6,1.16,1.16,0,0,0,1,.2,2,2,0,0,0,1.1-.3h0Z"/><path class="gs35-11" d="M332.1,319.8v-1.1h0a2.41,2.41,0,0,1-1,1,3.19,3.19,0,0,1-1.4.3,5,5,0,0,1-1.2-.2,2.18,2.18,0,0,1-.8-0.5,2,2,0,0,1-.4-0.8,4.1,4.1,0,0,1-.1-1.1v-4.8h1.2v4.9a1.38,1.38,0,0,0,1.5,1.5,4.4,4.4,0,0,0,1-.2,1.79,1.79,0,0,0,.7-0.5,2.51,2.51,0,0,0,.4-0.7,2.77,2.77,0,0,0,.1-0.9v-4.1h1.2v7.2h-1.2Z"/><path class="gs35-11" d="M335.9,312.6v1.5h0a2.76,2.76,0,0,1,1.1-1.3,2.93,2.93,0,0,1,1.6-.4v1.3a5,5,0,0,0-1.2.2,1.56,1.56,0,0,0-.8.6,4.05,4.05,0,0,0-.5.9,4.87,4.87,0,0,0-.1,1.2v3.2h-1.2v-7.2h1.1Z"/><path class="gs35-11" d="M345.8,319.8a2.92,2.92,0,0,1-.9.2,0.91,0.91,0,0,1-.7-0.3,1.22,1.22,0,0,1-.3-0.9,3.13,3.13,0,0,1-1.1.9,3.63,3.63,0,0,1-2.3.1,3,3,0,0,1-.8-0.4,2.65,2.65,0,0,1-.5-0.6,2.92,2.92,0,0,1-.2-0.9,3.55,3.55,0,0,1,.2-1,1,1,0,0,1,.5-0.6,2,2,0,0,1,.8-0.4c0.3-.1.6-0.1,0.9-0.2a2.77,2.77,0,0,1,.9-0.1c0.3,0,.5-0.1.8-0.1a0.55,0.55,0,0,0,.5-0.3,0.76,0.76,0,0,0,.2-0.5,1.27,1.27,0,0,0-.1-0.6,0.78,0.78,0,0,0-.4-0.4c-0.2-.1-0.3-0.1-0.5-0.2h-0.6a3.08,3.08,0,0,0-1.3.3,1,1,0,0,0-.5,1.1h-1.2a2,2,0,0,1,.3-1.1,2.7,2.7,0,0,1,.7-0.8,3,3,0,0,1,1-.4,4.48,4.48,0,0,1,1.1-.1,3.4,3.4,0,0,1,1,.1,1.61,1.61,0,0,1,.9.3,1.17,1.17,0,0,1,.6.6,1.8,1.8,0,0,1,.2,1v4.3a0.34,0.34,0,0,0,.3.2,0.76,0.76,0,0,0,.4-0.1l0.1,0.9h0Zm-2-3.7a1.42,1.42,0,0,1-.6.2,2,2,0,0,1-.8.1l-0.8.1a1.45,1.45,0,0,0-.7.2,1,1,0,0,0-.5.4,1.85,1.85,0,0,0-.2.7,0.9,0.9,0,0,0,.1.5l0.3,0.3c0.1,0.1.3,0.1,0.4,0.2a0.83,0.83,0,0,0,.5,0,1.8,1.8,0,0,0,1-.2,1.61,1.61,0,0,0,.7-0.4,1,1,0,0,0,.4-0.5,1.09,1.09,0,0,0,.1-0.5l0.1-1.1h0Z"/><path class="gs35-11" d="M349.8,312.6v1h-1.4v4.8a0.35,0.35,0,0,0,.1.2,0.37,0.37,0,0,0,.3.1h1v1h-0.9a2.2,2.2,0,0,1-.8-0.1,0.76,0.76,0,0,1-.5-0.2,1.68,1.68,0,0,1-.4-1.3v-4.6H346v-1h1.2v-2.2h1.2v2.2l1.4,0.1h0Z"/><path class="gs35-11" d="M351.1,311.3v-1.5h1.2v1.5h-1.2Zm1.2,1.3v7.2h-1.2v-7.2h1.2Z"/><path class="gs35-11" d="M353.8,314.7a2.92,2.92,0,0,1,.7-1.2,4.44,4.44,0,0,1,1.1-.8,3.9,3.9,0,0,1,3,0,4.44,4.44,0,0,1,1.1.8,4.73,4.73,0,0,1,.7,1.2,5.72,5.72,0,0,1,0,3,3.75,3.75,0,0,1-.7,1.2,4.44,4.44,0,0,1-1.1.8,3.9,3.9,0,0,1-3,0,4.44,4.44,0,0,1-1.1-.8,7.46,7.46,0,0,1-.7-1.2A5.72,5.72,0,0,1,353.8,314.7Zm1.2,2.7a4.05,4.05,0,0,0,.5.9,1.79,1.79,0,0,0,.7.5,2.77,2.77,0,0,0,1.8,0,1.79,1.79,0,0,0,.7-0.5,1.93,1.93,0,0,0,.5-0.9,4.48,4.48,0,0,0,0-2.3,4.05,4.05,0,0,0-.5-0.9,1.79,1.79,0,0,0-.7-0.5,2.77,2.77,0,0,0-1.8,0,1.79,1.79,0,0,0-.7.5,2.62,2.62,0,0,0-.5.9A4.48,4.48,0,0,0,355,317.4Z"/><path class="gs35-11" d="M363,312.6v1.1h0a2.43,2.43,0,0,1,2.4-1.3,5,5,0,0,1,1.2.2,2.18,2.18,0,0,1,.8.5,2,2,0,0,1,.4.8,4.1,4.1,0,0,1,.1,1.1v4.8h-1.2v-4.9a1.38,1.38,0,0,0-1.5-1.5,2.92,2.92,0,0,0-.9.2,1.79,1.79,0,0,0-.7.5,2.51,2.51,0,0,0-.4.7,2.77,2.77,0,0,0-.1.9v4.1h-1.2v-7.2H363Z"/><path class="gs35-9" d="M178.4,274.7v1.1h-5.6V279H178v1.1h-5.2v3.5h5.6v1.1h-6.9v-10h6.9Z"/><path class="gs35-9" d="M178.9,277.4h1.5l1.7,2.5,1.8-2.5h1.4l-2.5,3.3,2.8,3.9h-1.5l-2-3-2,3h-1.4l2.7-3.8Z"/><path class="gs35-9" d="M187.6,277.4v1h0a2,2,0,0,1,.9-0.9,3.19,3.19,0,0,1,1.4-.3,4,4,0,0,1,1.5.3,3.92,3.92,0,0,1,1,.8,3.38,3.38,0,0,1,.6,1.2,5.73,5.73,0,0,1,0,3,3.38,3.38,0,0,1-.6,1.2,3.92,3.92,0,0,1-1,.8,4,4,0,0,1-1.5.3,1.27,1.27,0,0,1-.6-0.1,1.42,1.42,0,0,1-.6-0.2l-0.6-.3a1.21,1.21,0,0,1-.5-0.5h0v3.7h-1.2v-10h1.2Zm4.3,2.6a3.55,3.55,0,0,0-.4-0.9,1.34,1.34,0,0,0-.7-0.6,1.8,1.8,0,0,0-1-.2,2,2,0,0,0-1.7.9,3.55,3.55,0,0,0-.4.9,3.41,3.41,0,0,0,0,2,3.55,3.55,0,0,0,.4.9,1.34,1.34,0,0,0,.7.6,1.8,1.8,0,0,0,1,.2,3.55,3.55,0,0,0,1-.2,4.35,4.35,0,0,0,.7-0.6,3.55,3.55,0,0,0,.4-0.9,3.4,3.4,0,0,0,.1-1A3.75,3.75,0,0,0,191.9,280Z"/><path class="gs35-9" d="M195.4,277.4v1.5h0a2.76,2.76,0,0,1,1.1-1.3,2.93,2.93,0,0,1,1.6-.4v1.3a5,5,0,0,0-1.2.2,1.56,1.56,0,0,0-.8.6,4.05,4.05,0,0,0-.5.9,4.87,4.87,0,0,0-.1,1.2v3.2h-1.2v-7.2h1.1Z"/><path class="gs35-9" d="M203.6,284.2a3.61,3.61,0,0,1-2,.6,4,4,0,0,1-1.5-.3,2.84,2.84,0,0,1-1.1-.8,3.38,3.38,0,0,1-.6-1.2,3.89,3.89,0,0,1-.2-1.5,7.72,7.72,0,0,1,.2-1.5,7.46,7.46,0,0,1,.7-1.2,4.44,4.44,0,0,1,1.1-.8,3.19,3.19,0,0,1,1.4-.3,2.93,2.93,0,0,1,1.6.4,4.74,4.74,0,0,1,1,1,3.49,3.49,0,0,1,.5,1.3,6.6,6.6,0,0,1,.1,1.4h-5.5a2.77,2.77,0,0,0,.1.9,3,3,0,0,0,.4.8,1.79,1.79,0,0,0,.7.5,3.55,3.55,0,0,0,1,.2,1.75,1.75,0,0,0,1.2-.4,1.52,1.52,0,0,0,.6-1.1h1.2A2.69,2.69,0,0,1,203.6,284.2Zm-0.3-4.7a1.83,1.83,0,0,0-1.9-1.2,1.88,1.88,0,0,0-.8.2,3.11,3.11,0,0,0-.6.4,2.09,2.09,0,0,0-.4.6,2.35,2.35,0,0,0-.2.8h4.2a1.91,1.91,0,0,1-.3-0.8h0Z"/><path class="gs35-9" d="M206.5,283a1.51,1.51,0,0,0,.4.4,1.42,1.42,0,0,0,.6.2c0.2,0,.5.1,0.7,0.1h0.6c0.2,0,.4-0.1.6-0.1a1.38,1.38,0,0,0,.4-0.3,1.69,1.69,0,0,0,.2-0.5,0.75,0.75,0,0,0-.4-0.7,3.55,3.55,0,0,0-.9-0.4l-1.1-.3c-0.4-.1-0.8-0.2-1.1-0.3a2.36,2.36,0,0,1-.9-0.6,2.1,2.1,0,0,1-.4-1.1,2.39,2.39,0,0,1,.2-0.9,1.7,1.7,0,0,1,.6-0.6,3.55,3.55,0,0,1,.9-0.4,3.4,3.4,0,0,1,1-.1,3.75,3.75,0,0,1,1.1.1,3.55,3.55,0,0,1,.9.4,1.34,1.34,0,0,1,.6.7,2,2,0,0,1,.3,1.1h-1.2a1.42,1.42,0,0,0-.2-0.6,0.78,0.78,0,0,0-.4-0.4,1.06,1.06,0,0,0-.5-0.2c-0.2,0-.4-0.1-0.6-0.1h-0.5c-0.2,0-.3.1-0.5,0.1s-0.3.2-.4,0.3a0.75,0.75,0,0,0-.1.5,0.76,0.76,0,0,0,.2.5,1.33,1.33,0,0,0,.5.3,1.88,1.88,0,0,0,.8.2l0.8,0.2c0.3,0.1.6,0.1,0.9,0.2a3,3,0,0,1,.8.4,2.65,2.65,0,0,1,.5.6,2.92,2.92,0,0,1,.2.9,2,2,0,0,1-.3,1.1,2.34,2.34,0,0,1-.7.7,3,3,0,0,1-1,.4,4.1,4.1,0,0,1-1.1.1,3.75,3.75,0,0,1-1.1-.1,3,3,0,0,1-1-.4,2.7,2.7,0,0,1-.7-0.8,2.28,2.28,0,0,1-.3-1.1h1.2A1,1,0,0,1,206.5,283Z"/><path class="gs35-9" d="M213.1,283a1.51,1.51,0,0,0,.4.4,1.42,1.42,0,0,0,.6.2c0.2,0,.5.1,0.7,0.1h0.6c0.2,0,.4-0.1.6-0.1a1.38,1.38,0,0,0,.4-0.3,1.69,1.69,0,0,0,.2-0.5,0.75,0.75,0,0,0-.4-0.7,3.55,3.55,0,0,0-.9-0.4l-1.1-.3c-0.4-.1-0.8-0.2-1.1-0.3a2.36,2.36,0,0,1-.9-0.6,2.1,2.1,0,0,1-.4-1.1,2.39,2.39,0,0,1,.2-0.9,1.7,1.7,0,0,1,.6-0.6,3.55,3.55,0,0,1,.9-0.4,3.4,3.4,0,0,1,1-.1,3.75,3.75,0,0,1,1.1.1,3.55,3.55,0,0,1,.9.4,1.34,1.34,0,0,1,.6.7,2,2,0,0,1,.3,1.1h-1.2a1.42,1.42,0,0,0-.2-0.6,0.78,0.78,0,0,0-.4-0.4,1.06,1.06,0,0,0-.5-0.2c-0.2,0-.4-0.1-0.6-0.1H214c-0.2,0-.3.1-0.5,0.1s-0.3.2-.4,0.3a0.75,0.75,0,0,0-.1.5,0.76,0.76,0,0,0,.2.5,1.14,1.14,0,0,0,.6.3,1.88,1.88,0,0,0,.8.2l0.8,0.2c0.3,0.1.6,0.1,0.9,0.2a3,3,0,0,1,.8.4,2.65,2.65,0,0,1,.5.6,2.92,2.92,0,0,1,.2.9,2,2,0,0,1-.3,1.1,2.34,2.34,0,0,1-.7.7,3,3,0,0,1-1,.4,4.1,4.1,0,0,1-1.1.1,3.75,3.75,0,0,1-1.1-.1,3,3,0,0,1-1-.4,2.7,2.7,0,0,1-.7-0.8,2.28,2.28,0,0,1-.3-1.1h1.2A0.85,0.85,0,0,1,213.1,283Z"/><path class="gs35-9" d="M227.3,274.7a3.41,3.41,0,0,1,2.2.7,2.73,2.73,0,0,1,.8,1.9,2.93,2.93,0,0,1-.4,1.6,2,2,0,0,1-1.3.9h0a0.91,0.91,0,0,1,.7.3,1,1,0,0,1,.4.5,1.42,1.42,0,0,1,.2.6,1.7,1.7,0,0,1,.1.7v0.7a1.7,1.7,0,0,0,.1.7,1.85,1.85,0,0,0,.2.7l0.3,0.6h-1.5a0.76,0.76,0,0,1-.2-0.4c0-.2-0.1-0.4-0.1-0.6v-0.7a1.7,1.7,0,0,0-.1-0.7c0-.2-0.1-0.5-0.1-0.7a1.69,1.69,0,0,0-.3-0.6,1,1,0,0,0-.5-0.4,1.06,1.06,0,0,0-.8-0.1h-3.2v4.3h-1.4v-10h4.9Zm0.3,4.5a0.91,0.91,0,0,0,.7-0.3,1.21,1.21,0,0,0,.5-0.5,2.92,2.92,0,0,0,.2-0.9,1.75,1.75,0,0,0-.4-1.2,1.87,1.87,0,0,0-1.4-.5h-3.3v3.5h2.8C227,279.3,227.3,279.2,227.6,279.2Z"/><path class="gs35-9" d="M236.6,284.7v-1.1h0a2.41,2.41,0,0,1-1,1,3.19,3.19,0,0,1-1.4.3,5,5,0,0,1-1.2-.2,2.18,2.18,0,0,1-.8-0.5,2,2,0,0,1-.4-0.8,4.1,4.1,0,0,1-.1-1.1v-4.8h1.2v4.9a1.38,1.38,0,0,0,1.5,1.5,2.92,2.92,0,0,0,.9-0.2,1.79,1.79,0,0,0,.7-0.5,2.51,2.51,0,0,0,.4-0.7,2.77,2.77,0,0,0,.1-0.9v-4.1h1.2v7.2h-1.1Z"/><path class="gs35-9" d="M240.2,277.4v1.1h0a2.43,2.43,0,0,1,2.4-1.3,5,5,0,0,1,1.2.2,2.18,2.18,0,0,1,.8.5,2,2,0,0,1,.4.8,4.1,4.1,0,0,1,.1,1.1v4.8h-1.2v-4.9a1.38,1.38,0,0,0-1.5-1.5,2.92,2.92,0,0,0-.9.2,1.79,1.79,0,0,0-.7.5,2.51,2.51,0,0,0-.4.7,2.77,2.77,0,0,0-.1.9v4.1h-1.2v-7.2h1.1Z"/><path class="gs35-9" d="M249.6,277.4v1h-1.4v4.8a0.35,0.35,0,0,0,.1.2,0.37,0.37,0,0,0,.3.1h1v1h-0.9a2.2,2.2,0,0,1-.8-0.1,0.76,0.76,0,0,1-.5-0.2,1.68,1.68,0,0,1-.4-1.3v-4.6h-1.2v-1H247v-2.2h1.2v2.2l1.4,0.1h0Z"/><path class="gs35-9" d="M250.6,276.1v-1.5h1.2v1.5h-1.2Zm1.2,1.3v7.2h-1.2v-7.2h1.2Z"/><path class="gs35-9" d="M254.5,277.4v1.1h0a2.84,2.84,0,0,1,3.6-1,1.59,1.59,0,0,1,.8,1,2.19,2.19,0,0,1,1-.9,3.08,3.08,0,0,1,1.3-.3,3.4,3.4,0,0,1,1,.1,3,3,0,0,1,.8.4,2.65,2.65,0,0,1,.5.6,3.55,3.55,0,0,1,.2,1v5.3h-1.2V280a1.27,1.27,0,0,0-.1-0.6,0.76,0.76,0,0,0-.2-0.5,1,1,0,0,0-.4-0.3,1.7,1.7,0,0,0-.7-0.1,1.87,1.87,0,0,0-1.4.5,2.11,2.11,0,0,0-.5,1.3v4.5H258V280a1.27,1.27,0,0,0-.1-0.6,0.76,0.76,0,0,0-.2-0.5,0.62,0.62,0,0,0-.4-0.3,1.48,1.48,0,0,0-.7-0.1,2.92,2.92,0,0,0-.9.2,1.67,1.67,0,0,0-.9,1.1,0.9,0.9,0,0,0-.1.5v4.5h-1.2v-7.2l1-.2h0Z"/><path class="gs35-9" d="M270.1,284.2a3.61,3.61,0,0,1-2,.6,4,4,0,0,1-1.5-.3,2.84,2.84,0,0,1-1.1-.8,3.38,3.38,0,0,1-.6-1.2,3.89,3.89,0,0,1-.2-1.5,7.72,7.72,0,0,1,.2-1.5,7.46,7.46,0,0,1,.7-1.2,4.44,4.44,0,0,1,1.1-.8,3.19,3.19,0,0,1,1.4-.3,2.93,2.93,0,0,1,1.6.4,4.74,4.74,0,0,1,1,1,3.49,3.49,0,0,1,.5,1.3,6.6,6.6,0,0,1,.1,1.4h-5.4a2.77,2.77,0,0,0,.1.9,3,3,0,0,0,.4.8,1.79,1.79,0,0,0,.7.5,3.55,3.55,0,0,0,1,.2,1.75,1.75,0,0,0,1.2-.4,1.52,1.52,0,0,0,.6-1.1h1.2A3.2,3.2,0,0,1,270.1,284.2Zm-0.3-4.7a1.83,1.83,0,0,0-1.9-1.2,1.88,1.88,0,0,0-.8.2,3.11,3.11,0,0,0-.6.4,2.09,2.09,0,0,0-.4.6,2.35,2.35,0,0,0-.2.8h4.2a1.91,1.91,0,0,1-.3-0.8h0Z"/><rect class="gs35-7" x="169.5" y="267.5" width="11.9" height="2.1"/><path class="gs35-9" d="M179,73.4v0.8h-0.8V73.4H179Z"/><path class="gs35-9" d="M180.9,73.4v0.8h-0.8V73.4h0.8Z"/><path class="gs35-9" d="M182.8,73.4v0.8H182V73.4h0.8Z"/><line class="gs35-12" x1="176.8" y1="60.6" x2="183.9" y2="60.6"/><line class="gs35-12" x1="177.4" y1="261.6" x2="184.3" y2="261.6"/><path class="gs35-13" d="M272.9,90.2"/><path class="gs35-14" d="M141.3,0V424.6h307V0h-307Zm197,401.5H243.8V330h94.5v71.5Z"/><path class="gs35-12" d="M364,261.6h-0.3c0.2,0.7.5,0.1,0.8,0.1,3,0,5.4-45.7,5.4-103.3s-2.4-104.2-5.4-104.2a1,1,0,0,0-.5.4"/><path class="gs35-12" d="M364,54.6V53.2H176.6v0.1c-2.5,8.9-4.4,54-4.4,105.1s1.9,97.5,4.4,102.5a1.69,1.69,0,0,0,1.7.7H363.7c-2.6-7.1-4.6-50.6-4.6-103.2C359.1,104.1,361.3,59.4,364,54.6Z"/><path class="gs35-15" d="M273,65.8V241.2a2.9,2.9,0,0,1-2.9,2.9H209.3a2.9,2.9,0,0,1-2.9-2.9V65.8a2.9,2.9,0,0,1,2.9-2.9h60.8A2.9,2.9,0,0,1,273,65.8Z"/><path class="gs35-9" d="M229.8,82.4a2.79,2.79,0,0,1,1.8.6,2.71,2.71,0,0,1,0,3.4,2.33,2.33,0,0,1-1.8.6h-2.4v3.2h-1V82.4h3.4Zm-0.3,3.8a2,2,0,0,0,1.3-.4,1.71,1.71,0,0,0,0-2.2,2,2,0,0,0-1.3-.4h-2v2.9h2v0.1Z"/><path class="gs35-9" d="M232.9,86.3a2.62,2.62,0,0,1,.5-0.9,1.46,1.46,0,0,1,.9-0.6,3.31,3.31,0,0,1,2.4,0,4.7,4.7,0,0,1,.9.6,4.05,4.05,0,0,1,.5.9,3.7,3.7,0,0,1,0,2.4,2.62,2.62,0,0,1-.5.9,1.46,1.46,0,0,1-.9.6,3.31,3.31,0,0,1-2.4,0,4.7,4.7,0,0,1-.9-0.6,4.05,4.05,0,0,1-.5-0.9A3.7,3.7,0,0,1,232.9,86.3Zm1,2.1a2.51,2.51,0,0,0,.4.7,2.09,2.09,0,0,0,.6.4,1.7,1.7,0,0,0,1.4,0,2.09,2.09,0,0,0,.6-0.4,1.61,1.61,0,0,0,.4-0.7,2.78,2.78,0,0,0,0-1.8,2.51,2.51,0,0,0-.4-0.7,2.09,2.09,0,0,0-.6-0.4,1.7,1.7,0,0,0-1.4,0,2.09,2.09,0,0,0-.6.4,1.61,1.61,0,0,0-.4.7,2.77,2.77,0,0,0,0,1.8h0Z"/><path class="gs35-9" d="M240.1,82.4v7.8h-0.9V82.4h0.9Z"/><path class="gs35-9" d="M241.3,83.6V82.5h0.9v1.1h-0.9Zm1,1v5.7h-0.9V84.6h0.9Z"/><path class="gs35-9" d="M246.8,85.6a1.69,1.69,0,0,0-1-.3,2.92,2.92,0,0,0-.9.2,1.21,1.21,0,0,0-.5.5c-0.1.2-.2,0.5-0.3,0.7a2.49,2.49,0,0,0-.1.8,2.2,2.2,0,0,0,.1.8c0.1,0.2.2,0.5,0.3,0.7a1.21,1.21,0,0,0,.5.5,1.68,1.68,0,0,0,1.8-.2,1.91,1.91,0,0,0,.5-1h1a2.47,2.47,0,0,1-.8,1.6,2.72,2.72,0,0,1-1.7.6,3.6,3.6,0,0,1-1.1-.2,1.56,1.56,0,0,1-.8-0.6,4.05,4.05,0,0,1-.5-0.9,5,5,0,0,1-.2-1.2,2.54,2.54,0,0,1,.2-1.2,3.13,3.13,0,0,1,.5-1,2.7,2.7,0,0,1,.8-0.7,2.54,2.54,0,0,1,1.2-.2,2.77,2.77,0,0,1,.9.1,3,3,0,0,1,.8.4,2.65,2.65,0,0,1,.5.6l0.3,0.9h-1A1.35,1.35,0,0,0,246.8,85.6Z"/><path class="gs35-9" d="M251.3,91.1c-0.1.2-.2,0.5-0.3,0.7a1.76,1.76,0,0,1-.4.5c-0.1.1-.3,0.2-0.4,0.3a1.09,1.09,0,0,1-.5.1h-0.3a0.37,0.37,0,0,1-.3-0.1V91.7l0.3,0.1h0.3a0.9,0.9,0,0,0,.5-0.1,1.38,1.38,0,0,0,.3-0.4l0.4-1-2.2-5.7h1.1l1.7,4.7h0l1.6-4.7h1Z"/><path class="gs35-7" d="M263.4,114.8V215.1a2.9,2.9,0,0,1-2.9,2.9H218.9a2.9,2.9,0,0,1-2.9-2.9V114.8a2.9,2.9,0,0,1,2.9-2.9h41.6A2.9,2.9,0,0,1,263.4,114.8Z"/><path class="gs35-11" d="M224.1,157.7h4.1a4.15,4.15,0,0,1,1.6.3,3.59,3.59,0,0,1,1,.7,4.05,4.05,0,0,1,.5.9,4.1,4.1,0,0,1,0,1.8,1.62,1.62,0,0,1-.5.9,2.29,2.29,0,0,1-1,.7,4.53,4.53,0,0,1-1.6.3h-2.5v3.6h-1.6v-9.2h0Zm1.6,4.4h2.4a1.27,1.27,0,0,0,.6-0.1,0.76,0.76,0,0,0,.5-0.2,1,1,0,0,0,.4-0.5,0.88,0.88,0,0,0,.1-0.7,2.2,2.2,0,0,0-.1-0.8,1.76,1.76,0,0,0-.4-0.5,0.76,0.76,0,0,0-.5-0.2c-0.2,0-.4-0.1-0.6-0.1h-2.4v3.1h0Z"/><path class="gs35-11" d="M232.2,160.2h1.4v1.3h0a0.76,0.76,0,0,1,.2-0.5,2.36,2.36,0,0,1,.5-0.5,1.69,1.69,0,0,1,.6-0.3,1.48,1.48,0,0,1,.7-0.1h0.6v1.4h-0.6a1.7,1.7,0,0,0-.7.1c-0.2.1-.4,0.3-0.6,0.4a2.51,2.51,0,0,0-.4.7,3.4,3.4,0,0,0-.1,1v3.2h-1.5l-0.1-6.7h0Z"/><path class="gs35-11" d="M239.3,167.1a3.19,3.19,0,0,1-1.4-.3,3,3,0,0,1-1.8-1.8,4.78,4.78,0,0,1,0-2.9,3,3,0,0,1,1.8-1.8,3.65,3.65,0,0,1,2.9,0,3,3,0,0,1,1.8,1.8,4.78,4.78,0,0,1,0,2.9,3,3,0,0,1-1.8,1.8A2.7,2.7,0,0,1,239.3,167.1Zm0-1.1a2.92,2.92,0,0,0,.9-0.2,1.7,1.7,0,0,0,.6-0.6,1.14,1.14,0,0,0,.3-0.8,4.84,4.84,0,0,0,0-1.7c-0.1-.3-0.2-0.5-0.3-0.8a2.65,2.65,0,0,0-.6-0.5,1.72,1.72,0,0,0-1.7,0,2.65,2.65,0,0,0-.6.5,1.14,1.14,0,0,0-.3.8,4.84,4.84,0,0,0,0,1.7c0.1,0.3.2,0.5,0.3,0.8l0.6,0.6A1.88,1.88,0,0,0,239.3,166Z"/><path class="gs35-11" d="M245.5,163.4l-2.3-3.2H245l1.4,2.1,1.5-2.1h1.7l-2.3,3.1,2.6,3.6H248l-1.7-2.5-1.6,2.5H243Z"/><path class="gs35-11" d="M249.6,160.2h1.6l1.8,5h0l1.7-5h1.5l-2.6,7.1-0.4.9a4.35,4.35,0,0,1-.4.7,2.65,2.65,0,0,1-.6.5,3.55,3.55,0,0,1-1,.2,3.4,3.4,0,0,1-1-.1v-1.2l0.4,0.1H251a0.6,0.6,0,0,0,.4-0.1,0.53,0.53,0,0,0,.3-0.2c0.1-.1.1-0.2,0.2-0.3a0.6,0.6,0,0,0,.1-0.4l0.2-.5Z"/><path class="gs35-15" d="M346.3,65.8V241.2a2.9,2.9,0,0,1-2.9,2.9H282.6a2.9,2.9,0,0,1-2.9-2.9V65.8a2.9,2.9,0,0,1,2.9-2.9h60.8A2.9,2.9,0,0,1,346.3,65.8Z"/><path class="gs35-9" d="M303.1,82.4a2.79,2.79,0,0,1,1.8.6,2.71,2.71,0,0,1,0,3.4,2.33,2.33,0,0,1-1.8.6h-2.4v3.2h-1V82.4h3.4Zm-0.3,3.8a2,2,0,0,0,1.3-.4,1.71,1.71,0,0,0,0-2.2,2,2,0,0,0-1.3-.4h-2v2.9h2v0.1Z"/><path class="gs35-9" d="M306.3,86.3a2.62,2.62,0,0,1,.5-0.9,1.46,1.46,0,0,1,.9-0.6,3.31,3.31,0,0,1,2.4,0,4.7,4.7,0,0,1,.9.6,4.05,4.05,0,0,1,.5.9,3.7,3.7,0,0,1,0,2.4,2.62,2.62,0,0,1-.5.9,1.46,1.46,0,0,1-.9.6,3.31,3.31,0,0,1-2.4,0,4.7,4.7,0,0,1-.9-0.6,4.05,4.05,0,0,1-.5-0.9,5,5,0,0,1-.2-1.2A2.54,2.54,0,0,1,306.3,86.3Zm1,2.1a2.51,2.51,0,0,0,.4.7,2.09,2.09,0,0,0,.6.4,1.7,1.7,0,0,0,1.4,0,2.09,2.09,0,0,0,.6-0.4,1.61,1.61,0,0,0,.4-0.7,2.77,2.77,0,0,0,0-1.8,2.51,2.51,0,0,0-.4-0.7,2.09,2.09,0,0,0-.6-0.4,1.7,1.7,0,0,0-1.4,0,2.09,2.09,0,0,0-.6.4,1.61,1.61,0,0,0-.4.7,2.77,2.77,0,0,0,0,1.8h0Z"/><path class="gs35-9" d="M313.4,82.4v7.8h-0.9V82.4h0.9Z"/><path class="gs35-9" d="M314.7,83.6V82.5h0.9v1.1h-0.9Zm0.9,1v5.7h-0.9V84.6h0.9Z"/><path class="gs35-9" d="M320.2,85.6a1.69,1.69,0,0,0-1-.3,2.92,2.92,0,0,0-.9.2,1.21,1.21,0,0,0-.5.5c-0.1.2-.2,0.5-0.3,0.7a2.49,2.49,0,0,0-.1.8,2.2,2.2,0,0,0,.1.8c0.1,0.2.2,0.5,0.3,0.7a1.21,1.21,0,0,0,.5.5,1.68,1.68,0,0,0,1.8-.2,1.91,1.91,0,0,0,.5-1h1a2.47,2.47,0,0,1-.8,1.6,2.72,2.72,0,0,1-1.7.6,2.66,2.66,0,0,1-1.2-.3,1.56,1.56,0,0,1-.8-0.6,4.05,4.05,0,0,1-.5-0.9,5,5,0,0,1-.2-1.2,2.54,2.54,0,0,1,.2-1.2,3.13,3.13,0,0,1,.5-1,2.7,2.7,0,0,1,.8-0.7,2.54,2.54,0,0,1,1.2-.2,2.77,2.77,0,0,1,.9.1,3,3,0,0,1,.8.4,2.65,2.65,0,0,1,.5.6l0.3,0.9h-1A2,2,0,0,0,320.2,85.6Z"/><path class="gs35-9" d="M324.6,91.1c-0.1.2-.2,0.5-0.3,0.7a1.76,1.76,0,0,1-.4.5c-0.1.1-.3,0.2-0.4,0.3a1.09,1.09,0,0,1-.5.1h-0.3a0.37,0.37,0,0,1-.3-0.1V91.7l0.2,0.1h0.3a0.9,0.9,0,0,0,.5-0.1,1.38,1.38,0,0,0,.3-0.4l0.4-1-2.2-5.7H323l1.7,4.7h0l1.6-4.7h1Z"/><path class="gs35-7" d="M336.7,114.8V215.1a2.9,2.9,0,0,1-2.9,2.9H292.2a2.9,2.9,0,0,1-2.9-2.9V114.8a2.9,2.9,0,0,1,2.9-2.9h41.6A2.9,2.9,0,0,1,336.7,114.8Z"/><path class="gs35-11" d="M302.9,152.8h1.6V157l4.1-4.2h2l-3.7,3.7,4,5.6h-2l-3-4.4-1.3,1.3v3.1H303v-9.3h-0.1Z"/><path class="gs35-11" d="M312.4,159.1a2.2,2.2,0,0,0,.1.8,3.33,3.33,0,0,0,.3.6,1.27,1.27,0,0,0,.6.4,2.35,2.35,0,0,0,.8.2,1.69,1.69,0,0,0,1-.3,1.56,1.56,0,0,0,.6-0.8h1.4a2.45,2.45,0,0,1-1.1,1.7,3.55,3.55,0,0,1-.9.4,3.4,3.4,0,0,1-1,.1,3.19,3.19,0,0,1-1.4-.3,3.59,3.59,0,0,1-1-.7,2.38,2.38,0,0,1-.6-1.1,5,5,0,0,1,0-2.8,3.88,3.88,0,0,1,.6-1.1,3.25,3.25,0,0,1,3.8-.8,2.84,2.84,0,0,1,1,.9,3.38,3.38,0,0,1,.6,1.2,3.81,3.81,0,0,1,.1,1.5l-4.9.1h0Zm3.5-1c0-.2-0.1-0.5-0.1-0.7l-0.3-.6a1,1,0,0,0-.5-0.4,0.82,0.82,0,0,0-.7-0.1,1.7,1.7,0,0,0-.7.1,1,1,0,0,0-.5.4,2.09,2.09,0,0,0-.4.6,1.7,1.7,0,0,0-.1.7h3.3Z"/><path class="gs35-11" d="M317.4,155.4H319l1.8,5h0l1.7-5H324l-2.6,7.1-0.4.9a4.35,4.35,0,0,1-.4.7,2.65,2.65,0,0,1-.6.5,3.55,3.55,0,0,1-1,.2,3.4,3.4,0,0,1-1-.1v-1.2l0.4,0.1h0.4a0.6,0.6,0,0,0,.4-0.1,0.53,0.53,0,0,0,.3-0.2c0.1-.1.1-0.2,0.2-0.3a0.6,0.6,0,0,0,.1-0.4l0.2-.5Z"/><path class="gs35-11" d="M303,166h1.7l3.6,9.3h-1.8l-0.9-2.5H302l-0.9,2.5h-1.7Zm-0.5,5.6h2.8l-1.4-4h0Z"/><path class="gs35-11" d="M314.6,175.3h-1.5v-0.9h0a3,3,0,0,1-.8.8,2,2,0,0,1-1.1.3,2.28,2.28,0,0,1-1.9-.7,3,3,0,0,1-.6-2v-4.3h1.5v4.1a2.38,2.38,0,0,0,.3,1.2,1.16,1.16,0,0,0,1,.4,2.2,2.2,0,0,0,.8-0.1,1,1,0,0,0,.5-0.4l0.3-.6a1.7,1.7,0,0,0,.1-0.7v-3.9h1.5v6.8h-0.1Z"/><path class="gs35-11" d="M315.1,168.6h1.1v-2h1.5v2H319v1.1h-1.3v4a0.37,0.37,0,0,0,.1.3,0.38,0.38,0,0,0,.2.2c0.1,0,.3.1,0.4,0.1H319v1.1l-0.5.1H318a2.77,2.77,0,0,1-.9-0.1l-0.6-.3c-0.1-.2-0.2-0.3-0.3-0.5s-0.1-.5-0.1-0.7v-4H315l0.1-1.3h0Z"/><path class="gs35-11" d="M319.8,166h1.5v3.4h0a3,3,0,0,1,.8-0.8,2.66,2.66,0,0,1,1.2-.3,2.52,2.52,0,0,1,1.7.6,1.92,1.92,0,0,1,.6,1.7v4.6h-1.5V171a2,2,0,0,0-.3-1.1,1.28,1.28,0,0,0-1-.4,1.7,1.7,0,0,0-.7.1,1,1,0,0,0-.5.4,2.15,2.15,0,0,0-.4,1.3v4h-1.5l0.1-9.3h0Z"/><path class="gs35-10" d="M182.2,53.2h8.4A74.24,74.24,0,0,0,182.2,53.2Z"/><path class="gs35-10" d="M190.7,53.3l175.1-.1H190.6a0.1,0.1,0,0,1,.1.1h0Z"/><path class="gs35-10" d="M176.6,53.2v0.1s2.6-.1,5.6-0.1h-5.6Z"/><path class="gs35-10" d="M223.9,261.6h0Z"/><path class="gs35-10" d="M365.9,261.2l-3.2-19.4H241.4c-13.7,0-31.5-1.7-43.6-19.4-11.3-16.5-15.9-48-15.9-71.9,0-33.2-2-87.3,34.8-97.4h-40c-2.5,8.9-4.5,46.1-4.5,97.2s1.9,105.4,4.5,110.4a1.62,1.62,0,0,0,1.8.7h44.1a20.24,20.24,0,0,1-2.6-.4l145.9,0.2h0Z"/><path class="gs35-7" d="M189.7,247a2.7,2.7,0,0,1,2.1.7,3.3,3.3,0,0,1,0,4,2.83,2.83,0,0,1-2.1.7h-2.8v3.8h-1.2v-9.3l4,0.1h0Zm-0.4,4.4a2,2,0,0,0,1.5-.4,1.9,1.9,0,0,0,.5-1.3,1.66,1.66,0,0,0-.5-1.3,2,2,0,0,0-1.5-.4h-2.4v3.4h2.4Z"/><path class="gs35-7" d="M193.6,248.3V247h1.1v1.4h-1.1v-0.1Zm1.1,1.2v6.7h-1.1v-6.7h1.1Z"/><path class="gs35-7" d="M197.2,249.5v0.9h0a1.42,1.42,0,0,1,.9-0.8,1.91,1.91,0,0,1,1.3-.2,3.53,3.53,0,0,1,1.4.3,2.54,2.54,0,0,1,1,.8,2.38,2.38,0,0,1,.6,1.1,5.9,5.9,0,0,1,.2,1.4,6.75,6.75,0,0,1-.2,1.4,2.38,2.38,0,0,1-.6,1.1,2.29,2.29,0,0,1-1,.7,3.19,3.19,0,0,1-1.4.3,0.75,0.75,0,0,1-.5-0.1,1.42,1.42,0,0,1-.6-0.2l-0.6-.3a2.36,2.36,0,0,1-.5-0.5h0v3.5h-1.1v-9.3l1.1-.1h0Zm4,2.4a2,2,0,0,0-.4-0.8l-0.6-.6a2.92,2.92,0,0,0-.9-0.2,2.09,2.09,0,0,0-1.6.8,2,2,0,0,0-.4.8,3.08,3.08,0,0,0,0,1.9,2,2,0,0,0,.4.8,4.35,4.35,0,0,0,.7.6,1.8,1.8,0,0,0,1,.2,3.55,3.55,0,0,0,1-.2,0.9,0.9,0,0,0,.6-0.6,1.33,1.33,0,0,0,.3-0.8,3.4,3.4,0,0,0,.1-1,2.92,2.92,0,0,0-.2-0.9h0Z"/><path class="gs35-7" d="M208.2,255.8a3.29,3.29,0,0,1-1.9.6,3.19,3.19,0,0,1-1.4-.3,3.59,3.59,0,0,1-1-.7,2.38,2.38,0,0,1-.6-1.1,6.75,6.75,0,0,1-.2-1.4,5.9,5.9,0,0,1,.2-1.4,2.59,2.59,0,0,1,.7-1.1,2.29,2.29,0,0,1,1-.7,2.77,2.77,0,0,1,1.3-.3,2.82,2.82,0,0,1,1.5.4,2.58,2.58,0,0,1,.9.9,6.12,6.12,0,0,1,.5,1.2,5.7,5.7,0,0,1,.1,1.3h-5a2,2,0,0,0,.1.8,1.61,1.61,0,0,0,.4.7,1.79,1.79,0,0,0,.7.5,3,3,0,0,0,1,.2,2,2,0,0,0,1.1-.3,1.7,1.7,0,0,0,.6-1h1.1A2.83,2.83,0,0,1,208.2,255.8Zm-0.2-4.3a2,2,0,0,0-1.8-1.2,2.2,2.2,0,0,0-.8.1,1.84,1.84,0,0,0-1,1,1.85,1.85,0,0,0-.2.7h3.9a1.49,1.49,0,0,0-.1-0.6h0Z"/><path class="gs35-7" d="M211.3,247v9.3h-1.1V247h1.1Z"/><path class="gs35-7" d="M212.8,248.3V247h1.1v1.4h-1.1v-0.1Zm1.1,1.2v6.7h-1.1v-6.7h1.1Z"/><path class="gs35-7" d="M216.3,249.5v1.1h0a2.23,2.23,0,0,1,2.2-1.2,2.15,2.15,0,0,1,1.1.2,1.79,1.79,0,0,1,.7.5,2,2,0,0,1,.4.8,3.4,3.4,0,0,1,.1,1v4.4h-1.1v-4.5a1.37,1.37,0,0,0-1.4-1.4,1.49,1.49,0,0,0-.9.2,1.28,1.28,0,0,0-.6.4,1.61,1.61,0,0,0-.4.7,2.49,2.49,0,0,0-.1.8v3.8h-1.1v-6.7l1.1-.1h0Z"/><path class="gs35-7" d="M226.9,255.8a3.29,3.29,0,0,1-1.9.6,3.19,3.19,0,0,1-1.4-.3,3.59,3.59,0,0,1-1-.7,2.38,2.38,0,0,1-.6-1.1,6.75,6.75,0,0,1-.2-1.4,5.9,5.9,0,0,1,.2-1.4,2.59,2.59,0,0,1,.7-1.1,2.29,2.29,0,0,1,1-.7,2.77,2.77,0,0,1,1.3-.3,2.82,2.82,0,0,1,1.5.4,4.3,4.3,0,0,1,1,.9,6.12,6.12,0,0,1,.5,1.2,5.7,5.7,0,0,1,.1,1.3h-5a2,2,0,0,0,.1.8,1.61,1.61,0,0,0,.4.7,1.79,1.79,0,0,0,.7.5,3,3,0,0,0,1,.2,2,2,0,0,0,1.1-.3,1.7,1.7,0,0,0,.6-1h1.1A3.53,3.53,0,0,1,226.9,255.8Zm-0.2-4.3a2,2,0,0,0-1.8-1.2,2.2,2.2,0,0,0-.8.1,1.84,1.84,0,0,0-1,1,1.85,1.85,0,0,0-.2.7h3.9A1.49,1.49,0,0,0,226.7,251.5Z"/><path class="gs35-7" d="M231.9,250.7c0-.4.1-0.7,0.1-1.1s0.2-.7.3-1a2.18,2.18,0,0,1,.5-0.8,3.49,3.49,0,0,1,.9-0.6,3.58,3.58,0,0,1,2.5,0,2.36,2.36,0,0,1,.9.6,2.18,2.18,0,0,1,.5.8c0.1,0.3.2,0.7,0.3,1a4.1,4.1,0,0,1,.1,1.1v2.2c0,0.4-.1.7-0.1,1.1s-0.2.7-.3,1a2.18,2.18,0,0,1-.5.8,5.55,5.55,0,0,1-.8.6,3.58,3.58,0,0,1-2.5,0,2.36,2.36,0,0,1-.9-0.6,2.18,2.18,0,0,1-.5-0.8c-0.1-.3-0.2-0.7-0.3-1a4.1,4.1,0,0,1-.1-1.1v-1.1A4.48,4.48,0,0,1,231.9,250.7Zm1.1,2.2a5,5,0,0,0,.2,1.2,2.08,2.08,0,0,0,.6,1,1.8,1.8,0,0,0,2.2,0,2.07,2.07,0,0,0,.6-1,5,5,0,0,0,.2-1.2v-2a2.2,2.2,0,0,0-.1-0.8,2.35,2.35,0,0,0-.2-0.8c-0.1-.2-0.2-0.5-0.3-0.7a1.21,1.21,0,0,0-.5-0.5,2.21,2.21,0,0,0-1.6,0,1.21,1.21,0,0,0-.5.5,1.49,1.49,0,0,0-.3.7c-0.1.3-.1,0.5-0.2,0.8s-0.1.5-.1,0.8v2h0Z"/><path class="gs35-7" d="M241.1,251h0.4a1.7,1.7,0,0,0,.7-0.1l0.6-.3a1,1,0,0,0,.4-0.5,1.57,1.57,0,0,0-.4-1.7,1.59,1.59,0,0,0-1.2-.4,1.2,1.2,0,0,0-.8.2,2.18,2.18,0,0,0-.5.4,1.69,1.69,0,0,0-.3.6,2.2,2.2,0,0,0-.1.8h-1.1a5,5,0,0,1,.2-1.2,2.62,2.62,0,0,1,.5-0.9,1.46,1.46,0,0,1,.9-0.6,2.54,2.54,0,0,1,1.2-.2,4.1,4.1,0,0,1,1.1.1,3.55,3.55,0,0,1,.9.4,1.56,1.56,0,0,1,.6.8,3.59,3.59,0,0,1,.2,1.1,1.5,1.5,0,0,1-.4,1.1,1.6,1.6,0,0,1-.9.7h0a1.74,1.74,0,0,1,1.2.8,2.3,2.3,0,0,1,.4,1.4,5,5,0,0,1-.2,1.2,5.49,5.49,0,0,1-.7.9,3.13,3.13,0,0,1-1,.5,5,5,0,0,1-1.2.2,5.85,5.85,0,0,1-1.3-.2,2.07,2.07,0,0,1-1-.6,2.36,2.36,0,0,1-.6-0.9,5.07,5.07,0,0,1-.2-1.3h1.1a2.69,2.69,0,0,0,.5,1.5,2,2,0,0,0,1.4.6,2.2,2.2,0,0,0,.8-0.1,2.09,2.09,0,0,0,.6-0.4,1.61,1.61,0,0,0,.6-1.3,2.35,2.35,0,0,0-.2-0.8,1.76,1.76,0,0,0-1-.9,2,2,0,0,0-.8-0.1h-0.7l0.3-.8h0Z"/><rect class="gs35-7" x="243.3" y="366.2" width="98.1" height="35"/><path class="gs35-16" d="M446.1,155.7L446,412.8c-1.6,10.3-8.8,18.2-17.5,18.2h-268c-8.8,0-15.9-8-15.9-17.7V39.8c0-9.7,7.2-17.7,15.9-17.7L430.2,22c8.8,0,15.9,8,15.9,17.7v116h0Z"/><path class="gs35-10" d="M225.6,408.3h9.2v1.9h-7v3.4h6.5v1.8h-6.5v3.8h7.1v1.9h-9.4V408.3h0.1Z"/><path class="gs35-10" d="M238.9,416.2l-3.2-4.4h2.5l1.9,2.9,2-2.9h2.4l-3.2,4.3,3.6,5h-2.5l-2.4-3.4-2.3,3.4h-2.4Z"/><path class="gs35-10" d="M246,411.8h1.9v1.3h0a3.45,3.45,0,0,1,1.2-1.2,4.71,4.71,0,0,1,1.7-.4,4.06,4.06,0,0,1,1.9.4,3.6,3.6,0,0,1,1.4,1.1,4.81,4.81,0,0,1,.8,1.6,6.28,6.28,0,0,1,.3,1.9,11,11,0,0,1-.2,1.8,4.59,4.59,0,0,1-.7,1.6,3.56,3.56,0,0,1-3,1.5,2.77,2.77,0,0,1-.9-0.1,3.18,3.18,0,0,1-.9-0.3,3.51,3.51,0,0,1-.8-0.5,4.35,4.35,0,0,1-.6-0.7h0v4.6h-2L246,411.8h0Zm7.1,4.7a5,5,0,0,0-.2-1.2,3.13,3.13,0,0,0-.5-1,1.78,1.78,0,0,0-.8-0.7,2,2,0,0,0-1.1-.3,2.25,2.25,0,0,0-2,.9,4,4,0,0,0-.7,2.4,5.85,5.85,0,0,0,.2,1.3,3.13,3.13,0,0,0,.5,1,2.7,2.7,0,0,0,.8.7,1.39,1.39,0,0,0,1.1.2,2.66,2.66,0,0,0,1.2-.3,2,2,0,0,0,.8-0.8,3.13,3.13,0,0,0,.5-1,2.54,2.54,0,0,0,.2-1.2h0Z"/><path class="gs35-10" d="M256.7,411.8h1.9v1.8h0a1.61,1.61,0,0,1,.4-0.7c0.2-.2.4-0.5,0.6-0.7a2.18,2.18,0,0,1,.8-0.5,2.92,2.92,0,0,1,.9-0.2h0.8v2l-0.4-.1h-0.4a3.55,3.55,0,0,0-1,.2,1.56,1.56,0,0,0-.8.6,3.13,3.13,0,0,0-.5,1,5.9,5.9,0,0,0-.2,1.4V421h-2l-0.1-9.2h0Z"/><path class="gs35-10" d="M264.1,417c0,0.3.1,0.7,0.1,1a4.05,4.05,0,0,0,.5.9,1.56,1.56,0,0,0,.8.6,2.15,2.15,0,0,0,1.1.2,2.82,2.82,0,0,0,1.5-.4,2,2,0,0,0,.8-1.2h1.9a4.12,4.12,0,0,1-1.5,2.4,3.38,3.38,0,0,1-1.2.6,7.72,7.72,0,0,1-1.5.2,4.06,4.06,0,0,1-1.9-.4,4.51,4.51,0,0,1-1.4-1,4.62,4.62,0,0,1-.9-1.5,6.45,6.45,0,0,1-.3-2,6.28,6.28,0,0,1,.3-1.9,5.07,5.07,0,0,1,.9-1.6,4.13,4.13,0,0,1,3.3-1.5,3.51,3.51,0,0,1,2,.5,4.43,4.43,0,0,1,1.5,1.2,3.8,3.8,0,0,1,.8,1.7,4.52,4.52,0,0,1,.1,2h-6.8Zm4.8-1.4a2.92,2.92,0,0,0-.2-0.9,2.18,2.18,0,0,0-.5-0.8,1.79,1.79,0,0,0-.7-0.5,3,3,0,0,0-1-.2,3.55,3.55,0,0,0-1,.2,3.51,3.51,0,0,0-.8.5,2.18,2.18,0,0,0-.5.8,3.55,3.55,0,0,0-.2,1l4.9-.1h0Z"/><path class="gs35-10" d="M273.9,418.1a1.71,1.71,0,0,0,.7,1.3,3.25,3.25,0,0,0,1.4.4h0.7a1.85,1.85,0,0,0,.7-0.2,1,1,0,0,0,.5-0.4,1.42,1.42,0,0,0,.2-0.6,0.71,0.71,0,0,0-.3-0.6,1.61,1.61,0,0,0-.7-0.4c-0.3-.1-0.7-0.2-1-0.3L275,417l-1.1-.3a3.13,3.13,0,0,1-1-.5,2.7,2.7,0,0,1-.7-0.8,1.72,1.72,0,0,1-.2-1.2,2,2,0,0,1,.4-1.3,3.45,3.45,0,0,1,.9-0.8,2.84,2.84,0,0,1,1.3-.4,5.7,5.7,0,0,1,1.3-.1,6.6,6.6,0,0,1,1.4.1,6.12,6.12,0,0,1,1.2.5,2,2,0,0,1,.9.9,3.26,3.26,0,0,1,.4,1.3h-2.1a1.2,1.2,0,0,0-.7-1,1.72,1.72,0,0,0-1.2-.2h-0.5c-0.2,0-.4.1-0.6,0.1a1.38,1.38,0,0,0-.4.3,0.76,0.76,0,0,0-.2.5,0.71,0.71,0,0,0,.3.6,1.61,1.61,0,0,0,.7.4c0.3,0.1.7,0.2,1,.3l1.1,0.2,1.1,0.3a3.13,3.13,0,0,1,1,.5,2.7,2.7,0,0,1,.7.8,2.61,2.61,0,0,1,.3,1.1,2.3,2.3,0,0,1-.4,1.4,2.84,2.84,0,0,1-1,.9,6.94,6.94,0,0,1-1.3.5,7.72,7.72,0,0,1-1.5.2,8.75,8.75,0,0,1-1.6-.2,3.1,3.1,0,0,1-1.3-.6,2.84,2.84,0,0,1-.9-1,3.19,3.19,0,0,1-.3-1.4h1.9Z"/><path class="gs35-10" d="M283.1,418.1a1.71,1.71,0,0,0,.7,1.3,3.25,3.25,0,0,0,1.4.4h0.7a1.85,1.85,0,0,0,.7-0.2,1,1,0,0,0,.5-0.4,1.42,1.42,0,0,0,.2-0.6,0.71,0.71,0,0,0-.3-0.6,1.61,1.61,0,0,0-.7-0.4c-0.3-.1-0.7-0.2-1-0.3l-1.1-.2-1.1-.3a3.13,3.13,0,0,1-1-.5,2.7,2.7,0,0,1-.7-0.8,1.72,1.72,0,0,1-.2-1.2,2,2,0,0,1,.4-1.3,3.45,3.45,0,0,1,.9-0.8,2.84,2.84,0,0,1,1.3-.4,5.7,5.7,0,0,1,1.3-.1,6.6,6.6,0,0,1,1.4.1,6.12,6.12,0,0,1,1.2.5,2,2,0,0,1,.9.9,3.26,3.26,0,0,1,.4,1.3h-2.1a1.2,1.2,0,0,0-.7-1,1.72,1.72,0,0,0-1.2-.2h-0.5c-0.2,0-.4.1-0.6,0.1a1.38,1.38,0,0,0-.4.3,0.76,0.76,0,0,0-.2.5,0.71,0.71,0,0,0,.3.6,1.61,1.61,0,0,0,.7.4c0.3,0.1.7,0.2,1,.3l1.1,0.2,1.1,0.3a3.13,3.13,0,0,1,1,.5,2.7,2.7,0,0,1,.7.8,2.61,2.61,0,0,1,.3,1.1,2.3,2.3,0,0,1-.4,1.4,2.84,2.84,0,0,1-1,.9,3.36,3.36,0,0,1-1.4.5,7.72,7.72,0,0,1-1.5.2,3.89,3.89,0,0,1-1.5-.2,3.1,3.1,0,0,1-1.3-.6,2.84,2.84,0,0,1-.9-1,3.19,3.19,0,0,1-.3-1.4l1.9-.1h0Z"/><path class="gs35-10" d="M307,421.1h-1.5l-0.3-1.5a4.89,4.89,0,0,1-1.8,1.4,5.22,5.22,0,0,1-2.1.4,7.51,7.51,0,0,1-2.6-.5,4.54,4.54,0,0,1-1.9-1.5,8.78,8.78,0,0,1-1.2-2.1,7.74,7.74,0,0,1,0-5.2,7.19,7.19,0,0,1,1.2-2.1,7,7,0,0,1,1.9-1.5,4.68,4.68,0,0,1,2.6-.5,6.45,6.45,0,0,1,2,.3,8.87,8.87,0,0,1,1.7.8,4.07,4.07,0,0,1,1.2,1.4,6,6,0,0,1,.6,1.9h-2.2a3.58,3.58,0,0,0-.4-1.1,2,2,0,0,0-.8-0.8,3.13,3.13,0,0,0-1-.5,5,5,0,0,0-1.2-.2,3.92,3.92,0,0,0-1.8.4,3.18,3.18,0,0,0-1.2,1.1,4.59,4.59,0,0,0-.7,1.6,7.31,7.31,0,0,0,0,3.6,4.59,4.59,0,0,0,.7,1.6,2.54,2.54,0,0,0,1.2,1.1,3.66,3.66,0,0,0,1.8.4,7.72,7.72,0,0,0,1.5-.2,2.59,2.59,0,0,0,1.1-.7,4.13,4.13,0,0,0,.7-1.1,3.89,3.89,0,0,0,.2-1.5h-3.4v-1.7h5.5l0.2,6.7h0Z"/><path class="gs35-10" d="M316.8,419a0.75,0.75,0,0,0,.1.5,0.52,0.52,0,0,0,.4.2h0.5v1.4l-0.3.1-0.4.1h-0.7a3.55,3.55,0,0,1-1-.2,1.05,1.05,0,0,1-.5-0.9,3.77,3.77,0,0,1-1.5.9,5.08,5.08,0,0,1-1.7.3,5,5,0,0,1-1.2-.2,3.13,3.13,0,0,1-1-.5,2.18,2.18,0,0,1-.7-0.9,2.66,2.66,0,0,1-.3-1.2,3.19,3.19,0,0,1,.3-1.4,3.45,3.45,0,0,1,.8-0.9,2.46,2.46,0,0,1,1.1-.4,5.85,5.85,0,0,1,1.3-.2,4.1,4.1,0,0,1,1.1-.1c0.3,0,.6-0.1.9-0.1l0.6-.3a0.84,0.84,0,0,0,.2-0.7,1.07,1.07,0,0,0-.2-0.6,1,1,0,0,0-.5-0.4,1.85,1.85,0,0,0-.7-0.2h-0.6a2.3,2.3,0,0,0-1.4.4,1.25,1.25,0,0,0-.6,1.1h-2a4.19,4.19,0,0,1,.4-1.5,2.41,2.41,0,0,1,1-1,6.94,6.94,0,0,1,1.3-.5,7.57,7.57,0,0,1,1.5-.1,6.6,6.6,0,0,1,1.4.1,3.08,3.08,0,0,1,1.2.5,6.47,6.47,0,0,1,.9.8,2.66,2.66,0,0,1,.3,1.2V419h0Zm-2-2.5a3.58,3.58,0,0,1-1.1.4,6.75,6.75,0,0,0-1.4.2c-0.2,0-.4.1-0.6,0.1a2.19,2.19,0,0,0-.5.3,1,1,0,0,0-.4.5,1.48,1.48,0,0,0-.1.7,1.42,1.42,0,0,0,.2.6,1,1,0,0,0,.5.4,1.42,1.42,0,0,0,.6.2h0.6a1.7,1.7,0,0,0,.7-0.1c0.3-.1.5-0.2,0.8-0.3a2.65,2.65,0,0,0,.6-0.5,1.08,1.08,0,0,0,.2-0.8v-1.7h-0.1Z"/><path class="gs35-10" d="M317.9,411.8h1.5V409h2v2.8h1.9v1.5h-1.9v5.6c0,0.1.1,0.3,0.1,0.4a0.53,0.53,0,0,0,.3.2,1.09,1.09,0,0,0,.5.1h0.4a0.6,0.6,0,0,0,.4-0.1v1.6l-0.7.1h-0.7a5.7,5.7,0,0,1-1.3-.1,1.37,1.37,0,0,1-.8-0.5,2,2,0,0,1-.4-0.8,3.4,3.4,0,0,1-.1-1v-5.5h-1.5l0.3-1.5h0Z"/><path class="gs35-10" d="M326.2,417c0,0.3.1,0.7,0.1,1a4.05,4.05,0,0,0,.5.9,1.56,1.56,0,0,0,.8.6,2.15,2.15,0,0,0,1.1.2,2.82,2.82,0,0,0,1.5-.4,2,2,0,0,0,.8-1.2h1.9a4.12,4.12,0,0,1-1.5,2.4,3.38,3.38,0,0,1-1.2.6,7.72,7.72,0,0,1-1.5.2,4.06,4.06,0,0,1-1.9-.4,4.51,4.51,0,0,1-1.4-1,4.62,4.62,0,0,1-.9-1.5,6.45,6.45,0,0,1-.3-2,6.28,6.28,0,0,1,.3-1.9,5.07,5.07,0,0,1,.9-1.6,4.13,4.13,0,0,1,3.3-1.5,3.51,3.51,0,0,1,2,.5,4.43,4.43,0,0,1,1.5,1.2,3.8,3.8,0,0,1,.8,1.7,4.52,4.52,0,0,1,.1,2h-6.8Zm4.8-1.4a2.92,2.92,0,0,0-.2-0.9,2.18,2.18,0,0,0-.5-0.8,1.79,1.79,0,0,0-.7-0.5,3,3,0,0,0-1-.2,3.55,3.55,0,0,0-1,.2,3.51,3.51,0,0,0-.8.5,2.18,2.18,0,0,0-.5.8,3.55,3.55,0,0,0-.2,1l4.9-.1h0Z"/><path class="gs35-10" d="M333.6,411.8h2.2l1.8,7h0l1.8-7h2.1l1.7,7h0l1.9-7h2.1l-2.9,9.3h-2.1l-1.7-6.9h0l-1.7,6.9h-2.2Z"/><path class="gs35-10" d="M356.1,419a0.75,0.75,0,0,0,.1.5,0.52,0.52,0,0,0,.4.2h0.5v1.4l-0.3.1-0.4.1h-0.7a3.55,3.55,0,0,1-1-.2,1.05,1.05,0,0,1-.5-0.9,3.77,3.77,0,0,1-1.5.9,5.08,5.08,0,0,1-1.7.3,5,5,0,0,1-1.2-.2,3.13,3.13,0,0,1-1-.5,2.18,2.18,0,0,1-.7-0.9,2.66,2.66,0,0,1-.3-1.2,3.19,3.19,0,0,1,.3-1.4,3.45,3.45,0,0,1,.8-0.9,2.46,2.46,0,0,1,1.1-.4,5.85,5.85,0,0,1,1.3-.2,4.1,4.1,0,0,1,1.1-.1c0.3,0,.6-0.1.9-0.1l0.6-.3a0.84,0.84,0,0,0,.2-0.7,1.07,1.07,0,0,0-.2-0.6,1,1,0,0,0-.5-0.4,1.42,1.42,0,0,0-.6-0.2h-0.6a2.3,2.3,0,0,0-1.4.4,1.25,1.25,0,0,0-.6,1.1h-2a2.6,2.6,0,0,1,.4-1.5,2.41,2.41,0,0,1,1-1,6.94,6.94,0,0,1,1.3-.5,7.57,7.57,0,0,1,1.5-.1,6.6,6.6,0,0,1,1.4.1,3.08,3.08,0,0,1,1.2.5,6.47,6.47,0,0,1,.9.8,2.66,2.66,0,0,1,.3,1.2l-0.1,4.7h0Zm-2-2.5a3.58,3.58,0,0,1-1.1.4,6.75,6.75,0,0,0-1.4.2c-0.2,0-.4.1-0.6,0.1a2.19,2.19,0,0,0-.5.3,1,1,0,0,0-.4.5,1.48,1.48,0,0,0-.1.7,1.42,1.42,0,0,0,.2.6,1,1,0,0,0,.5.4,1.42,1.42,0,0,0,.6.2h0.6a1.7,1.7,0,0,0,.7-0.1c0.3-.1.5-0.2,0.8-0.3a2.65,2.65,0,0,0,.6-0.5,1.08,1.08,0,0,0,.2-0.8v-1.7h-0.1Z"/><path class="gs35-10" d="M357.1,411.8h2.2l2.4,7h0l2.4-7h2.1l-3.6,9.8c-0.2.4-.3,0.8-0.5,1.2a3.33,3.33,0,0,1-.6,1,2.18,2.18,0,0,1-.9.7,3.08,3.08,0,0,1-1.3.3,6.15,6.15,0,0,1-1.4-.1V423l0.5,0.1h0.5a1.27,1.27,0,0,0,.6-0.1,1,1,0,0,0,.4-0.3c0.1-.1.2-0.3,0.3-0.4a2.57,2.57,0,0,1,.2-0.5l0.2-.7Z"/><path class="gs35-10" d="M253.5,335h75.2a3.12,3.12,0,0,1,3.1,3.1v56.7a3.12,3.12,0,0,1-3.1,3.1H253.5a3.12,3.12,0,0,1-3.1-3.1V338.1A3,3,0,0,1,253.5,335Z"/><path class="gs35-11" d="M272.6,342.5a2.3,2.3,0,0,0-1.4-.4,2.66,2.66,0,0,0-1.2.3,2.7,2.7,0,0,0-.8.7,3.13,3.13,0,0,0-.5,1,4.25,4.25,0,0,0-.2,1.1,4.87,4.87,0,0,0,.1,1.2,1.91,1.91,0,0,0,.5,1,2.7,2.7,0,0,0,.8.7,2.66,2.66,0,0,0,1.2.3,1.49,1.49,0,0,0,.9-0.2,1.79,1.79,0,0,0,.7-0.5,1.61,1.61,0,0,0,.4-0.7,2.92,2.92,0,0,0,.2-0.9h1a3.21,3.21,0,0,1-1,2.2,3.24,3.24,0,0,1-2.3.8,3.65,3.65,0,0,1-1.5-.3,4.44,4.44,0,0,1-1.1-.8,5.39,5.39,0,0,1-.7-1.3,7.77,7.77,0,0,1-.2-1.6,8.75,8.75,0,0,1,.2-1.6,3.29,3.29,0,0,1,.7-1.3,3.13,3.13,0,0,1,1.1-.9,4,4,0,0,1,1.5-.3,3.59,3.59,0,0,1,1.1.2,4.67,4.67,0,0,1,1,.5,2.7,2.7,0,0,1,.7.8,3.58,3.58,0,0,1,.4,1.1h-1A2,2,0,0,0,272.6,342.5Z"/><path class="gs35-11" d="M275.1,345.2a2.62,2.62,0,0,1,.5-0.9,1.56,1.56,0,0,1,.8-0.6,3.05,3.05,0,0,1,2.3,0,1.56,1.56,0,0,1,.8.6,4.05,4.05,0,0,1,.5.9,4.48,4.48,0,0,1,0,2.3,4.05,4.05,0,0,1-.5.9,1.56,1.56,0,0,1-.8.6,3.05,3.05,0,0,1-2.3,0,1.56,1.56,0,0,1-.8-0.6,4.05,4.05,0,0,1-.5-0.9A4.48,4.48,0,0,1,275.1,345.2Zm0.9,2a1.28,1.28,0,0,0,.4.6,1.76,1.76,0,0,0,.5.4,1.48,1.48,0,0,0,1.3,0,1,1,0,0,0,.5-0.4,2.09,2.09,0,0,0,.4-0.6,2.77,2.77,0,0,0,0-1.8,1.28,1.28,0,0,0-.4-0.6,1.76,1.76,0,0,0-.5-0.4,1.48,1.48,0,0,0-1.3,0,1,1,0,0,0-.5.4,2.09,2.09,0,0,0-.4.6,2.77,2.77,0,0,0,0,1.8h0Z"/><path class="gs35-11" d="M281.9,343.5v0.9h0a1.9,1.9,0,0,1,1.8-1,2.77,2.77,0,0,1,.9.1,2.09,2.09,0,0,1,.6.4,0.86,0.86,0,0,1,.3.6,2.2,2.2,0,0,1,.1.8v3.6h-0.9v-3.7a1,1,0,0,0-1.1-1.1,1.7,1.7,0,0,0-.7.1,1,1,0,0,0-.5.4c-0.1.2-.2,0.3-0.3,0.5a1.7,1.7,0,0,0-.1.7v3.1h-1v-5.5l0.9,0.1h0Z"/><path class="gs35-11" d="M287.4,347.8l0.3,0.3a2.57,2.57,0,0,0,.5.2,0.83,0.83,0,0,0,.5,0h0.5c0.1,0,.3-0.1.4-0.1s0.2-.1.3-0.2a0.6,0.6,0,0,0,.1-0.4,0.55,0.55,0,0,0-.3-0.5,4.87,4.87,0,0,0-.7-0.3c-0.3-.1-0.6-0.1-0.9-0.2a3.18,3.18,0,0,1-.9-0.3,1.79,1.79,0,0,1-.7-0.5,1.14,1.14,0,0,1-.3-0.8,1.85,1.85,0,0,1,.2-0.7,1.2,1.2,0,0,1,.5-0.5,4.87,4.87,0,0,1,.7-0.3,1.7,1.7,0,0,1,.7-0.1,2.77,2.77,0,0,1,.9.1,1.08,1.08,0,0,1,.7.3,1.2,1.2,0,0,1,.5.5,2.35,2.35,0,0,1,.2.8h-0.9a2.27,2.27,0,0,0-.1-0.4l-0.3-.3a0.6,0.6,0,0,0-.4-0.1h-0.8c-0.1,0-.3.1-0.4,0.1a0.53,0.53,0,0,0-.3.2,0.48,0.48,0,0,0-.1.4,0.76,0.76,0,0,0,.2.4c0.1,0.1.3,0.2,0.4,0.3s0.4,0.1.6,0.2l0.6,0.1a1.85,1.85,0,0,1,.7.2l0.6,0.3a1.51,1.51,0,0,1,.4.4,1.45,1.45,0,0,1,.2.7,1.88,1.88,0,0,1-.2.8,1.2,1.2,0,0,1-.5.5,6.89,6.89,0,0,1-.8.3,2.48,2.48,0,0,1-.8.1,2.77,2.77,0,0,1-.9-0.1,4.88,4.88,0,0,1-.7-0.3,2.65,2.65,0,0,1-.5-0.6,2.92,2.92,0,0,1-.2-0.9h0.9A0.6,0.6,0,0,0,287.4,347.8Z"/><path class="gs35-11" d="M295.5,349.1v-0.9h0a2.7,2.7,0,0,1-.7.8,1.8,1.8,0,0,1-1,.2,2.77,2.77,0,0,1-.9-0.1,2.09,2.09,0,0,1-.6-0.4,0.86,0.86,0,0,1-.3-0.6,2.2,2.2,0,0,1-.1-0.8v-3.6h0.9v3.7a1,1,0,0,0,1.1,1.1,1.7,1.7,0,0,0,.7-0.1,1,1,0,0,0,.5-0.4c0.1-.2.2-0.3,0.3-0.5a1.7,1.7,0,0,0,.1-0.7v-3.1h0.9v5.5l-0.9-.1h0Z"/><path class="gs35-11" d="M298.3,343.5v0.8h0a2.08,2.08,0,0,1,2.7-.7,1.34,1.34,0,0,1,.6.7,2.34,2.34,0,0,1,.7-0.7,1.8,1.8,0,0,1,1-.2,2.2,2.2,0,0,1,.8.1,1.69,1.69,0,0,1,.6.3,1,1,0,0,1,.4.5,1.7,1.7,0,0,1,.1.7v4h-0.9v-4.1a0.76,0.76,0,0,0-.2-0.4l-0.3-.3a1.09,1.09,0,0,0-.5-0.1,1.16,1.16,0,0,0-1,.4,1.28,1.28,0,0,0-.4,1v3.4H301v-4.1a0.76,0.76,0,0,0-.2-0.4l-0.3-.3a0.9,0.9,0,0,0-.5-0.1,1,1,0,0,0-.7.2,1.6,1.6,0,0,0-.7.9c0,0.1-.1.3-0.1,0.4v3.4h-0.9v-5.5l0.7,0.1h0Z"/><path class="gs35-11" d="M310.2,348.7a3,3,0,0,1-1.6.5,3.59,3.59,0,0,1-1.1-.2,1.56,1.56,0,0,1-.8-0.6,4.05,4.05,0,0,1-.5-0.9,5,5,0,0,1-.2-1.2,3.59,3.59,0,0,1,.2-1.1,4.05,4.05,0,0,1,.5-0.9,1.56,1.56,0,0,1,.8-0.6,3.55,3.55,0,0,1,1-.2,2.38,2.38,0,0,1,1.2.3,3,3,0,0,1,.8.8,3,3,0,0,1,.4,1,3.75,3.75,0,0,1,.1,1.1h-4.1a1.7,1.7,0,0,0,.1.7l0.3,0.6a1,1,0,0,0,.5.4,1.06,1.06,0,0,0,.8.1,1.4,1.4,0,0,0,.9-0.3,1.37,1.37,0,0,0,.5-0.8h0.9A2.79,2.79,0,0,1,310.2,348.7Zm-0.2-3.5a2.19,2.19,0,0,0-.3-0.5,0.85,0.85,0,0,0-.5-0.3,1.85,1.85,0,0,0-1.2,0c-0.2.1-.3,0.2-0.5,0.3a2.18,2.18,0,0,0-.3.5,1.27,1.27,0,0,0-.1.6h3.2A0.86,0.86,0,0,1,310,345.2Z"/><path class="gs35-11" d="M312.6,343.5v1.2h0a3.92,3.92,0,0,1,.8-1,2.66,2.66,0,0,1,1.2-.3v1a2.77,2.77,0,0,0-.9.1,1.28,1.28,0,0,0-.6.4,0.91,0.91,0,0,0-.3.7,2.77,2.77,0,0,0-.1.9V349h-0.9v-5.5h0.8Z"/><path class="gs35-11" d="M263,352.5l2.4,6.4,2.4-6.4h1.4v7.6h-1v-6.3h0l-2.4,6.3H265l-2.4-6.3h0v6.3h-1v-7.6H263Z"/><path class="gs35-11" d="M275.3,360a0.66,0.66,0,0,1-.6.1,1.42,1.42,0,0,1-.6-0.2,0.73,0.73,0,0,1-.2-0.6,1.46,1.46,0,0,1-.9.6,2.79,2.79,0,0,1-1.8.1,1.69,1.69,0,0,1-.6-0.3,1,1,0,0,1-.4-0.5,1.7,1.7,0,0,1-.1-0.7,1.2,1.2,0,0,1,.2-0.8,1,1,0,0,1,.4-0.5l0.6-.3c0.2-.1.5-0.1,0.7-0.2a1.7,1.7,0,0,1,.7-0.1c0.2,0,.4-0.1.6-0.1a0.52,0.52,0,0,0,.4-0.2,0.3,0.3,0,0,0,.1-0.4,0.9,0.9,0,0,0-.1-0.5l-0.3-.3a0.6,0.6,0,0,0-.4-0.1h-0.4a3.55,3.55,0,0,0-1,.2,0.91,0.91,0,0,0-.4.8h-0.9a2.92,2.92,0,0,1,.2-0.9,2.65,2.65,0,0,1,.5-0.6,2.12,2.12,0,0,1,.7-0.3,2.77,2.77,0,0,1,.9-0.1h0.7a1.85,1.85,0,0,1,.7.2,1.2,1.2,0,0,1,.5.5,1.88,1.88,0,0,1,.2.8v3.3c0,0.1.1,0.2,0.2,0.1h0.3l0.1,1h0Zm-1.4-2.8a0.76,0.76,0,0,1-.5.2l-0.6.1-0.6.1a4.33,4.33,0,0,0-.5.1,1.38,1.38,0,0,0-.4.3,1.06,1.06,0,0,0-.2.5,0.6,0.6,0,0,0,.1.4,0.38,0.38,0,0,0,.2.2,0.37,0.37,0,0,0,.3.1h0.4a1.68,1.68,0,0,0,1.3-.4,1.38,1.38,0,0,0,.3-0.4,0.6,0.6,0,0,0,.1-0.4l0.1-.8h0Z"/><path class="gs35-11" d="M276.8,354.6v0.9h0a1.9,1.9,0,0,1,1.8-1,2.77,2.77,0,0,1,.9.1,2.09,2.09,0,0,1,.6.4,0.86,0.86,0,0,1,.3.6,2.2,2.2,0,0,1,.1.8V360h-0.9v-3.7a1,1,0,0,0-1.1-1.1,1.7,1.7,0,0,0-.7.1,1,1,0,0,0-.5.4c-0.1.2-.2,0.3-0.3,0.5a1.7,1.7,0,0,0-.1.7V360H276v-5.5l0.8,0.1h0Z"/><path class="gs35-11" d="M286.5,360a0.66,0.66,0,0,1-.6.1,1.42,1.42,0,0,1-.6-0.2,0.73,0.73,0,0,1-.2-0.6,1.46,1.46,0,0,1-.9.6,2.79,2.79,0,0,1-1.8.1,1.69,1.69,0,0,1-.6-0.3,1,1,0,0,1-.4-0.5,1.7,1.7,0,0,1-.1-0.7,1.2,1.2,0,0,1,.2-0.8,1,1,0,0,1,.4-0.5l0.6-.3c0.2-.1.5-0.1,0.7-0.2a1.7,1.7,0,0,1,.7-0.1c0.2,0,.4-0.1.6-0.1a0.52,0.52,0,0,0,.4-0.2,0.3,0.3,0,0,0,.1-0.4,0.9,0.9,0,0,0-.1-0.5l-0.3-.3a0.6,0.6,0,0,0-.4-0.1h-0.4a3.55,3.55,0,0,0-1,.2,0.91,0.91,0,0,0-.4.8h-0.9a2.92,2.92,0,0,1,.2-0.9,2.65,2.65,0,0,1,.5-0.6,2.12,2.12,0,0,1,.7-0.3,2.77,2.77,0,0,1,.9-0.1h0.7a1.85,1.85,0,0,1,.7.2,1.2,1.2,0,0,1,.5.5,1.88,1.88,0,0,1,.2.8v3.3c0,0.1.1,0.2,0.2,0.1h0.3l0.1,1h0Zm-1.5-2.8a0.76,0.76,0,0,1-.5.2l-0.6.1-0.6.1a4.33,4.33,0,0,0-.5.1,1.38,1.38,0,0,0-.4.3,1.06,1.06,0,0,0-.2.5,0.6,0.6,0,0,0,.1.4,0.38,0.38,0,0,0,.2.2,0.37,0.37,0,0,0,.3.1h0.4a1.68,1.68,0,0,0,1.3-.4,1.38,1.38,0,0,0,.3-0.4,0.6,0.6,0,0,0,.1-0.4l0.1-.8h0Z"/><path class="gs35-11" d="M291.2,361.6a2.64,2.64,0,0,1-1.9.7,2.2,2.2,0,0,1-.8-0.1,1.49,1.49,0,0,1-.7-0.3,1.2,1.2,0,0,1-.5-0.5,1.88,1.88,0,0,1-.2-0.8H288a2.27,2.27,0,0,0,.1.4,1.38,1.38,0,0,0,.4.3,0.75,0.75,0,0,0,.5.1h0.5a2.2,2.2,0,0,0,.8-0.1,1,1,0,0,0,.5-0.4,4.87,4.87,0,0,0,.3-0.7,2.48,2.48,0,0,0,.1-0.8V359h0a1.78,1.78,0,0,1-.7.8,1.8,1.8,0,0,1-1,.2,4.25,4.25,0,0,1-1.1-.2,1.56,1.56,0,0,1-.8-0.6,4.05,4.05,0,0,1-.5-0.9,2,2,0,0,1-.1-1.1,3.4,3.4,0,0,1,.1-1,2.47,2.47,0,0,1,.4-0.9,2.7,2.7,0,0,1,.8-0.7,2.66,2.66,0,0,1,1.2-.3,3.55,3.55,0,0,1,1,.2,2.34,2.34,0,0,1,.7.7h0v-0.8h0.9v5A4.44,4.44,0,0,1,291.2,361.6Zm-1.2-2.4a1.2,1.2,0,0,0,.5-0.5,4.87,4.87,0,0,0,.3-0.7,2.2,2.2,0,0,0,.1-0.8,2.15,2.15,0,0,0-.4-1.3,2.36,2.36,0,0,0-.5-0.5,1.85,1.85,0,0,0-.7-0.2,1.2,1.2,0,0,0-.8.2,2.18,2.18,0,0,0-.5.4l-0.3.6a2,2,0,0,0-.1.8,2.2,2.2,0,0,0,.1.8,1.08,1.08,0,0,0,.3.7,1.2,1.2,0,0,0,.5.5,1.88,1.88,0,0,0,.8.2A1.85,1.85,0,0,0,290,359.2Z"/><path class="gs35-11" d="M296.8,359.7a3,3,0,0,1-1.6.5,3.59,3.59,0,0,1-1.1-.2,1.56,1.56,0,0,1-.8-0.6,4.05,4.05,0,0,1-.5-0.9,5,5,0,0,1-.2-1.2,3.59,3.59,0,0,1,.2-1.1,4.05,4.05,0,0,1,.5-0.9,1.56,1.56,0,0,1,.8-0.6,3.55,3.55,0,0,1,1-.2,2.38,2.38,0,0,1,1.2.3,3,3,0,0,1,.8.8,3,3,0,0,1,.4,1,3.4,3.4,0,0,1,.1,1h-4a1.7,1.7,0,0,0,.1.7l0.3,0.6a1,1,0,0,0,.5.4,1.06,1.06,0,0,0,.8.1,1.4,1.4,0,0,0,.9-0.3,1.37,1.37,0,0,0,.5-0.8h0.9A2.19,2.19,0,0,1,296.8,359.7Zm-0.2-3.5a1.5,1.5,0,0,0-1.4-1,1.27,1.27,0,0,0-.6.1c-0.2.1-.3,0.2-0.5,0.3a2.18,2.18,0,0,0-.3.5,1.27,1.27,0,0,0-.1.6h3.2A0.85,0.85,0,0,1,296.6,356.2Z"/><path class="gs35-11" d="M299.2,354.6v0.8h0a2.08,2.08,0,0,1,2.7-.7,1.06,1.06,0,0,1,.6.7,2.34,2.34,0,0,1,.7-0.7,1.23,1.23,0,0,1,1-.2,2.2,2.2,0,0,1,.8.1,1.69,1.69,0,0,1,.6.3,1,1,0,0,1,.4.5,1.7,1.7,0,0,1,.1.7v4h-0.9V356a0.76,0.76,0,0,0-.2-0.4l-0.3-.3a1.09,1.09,0,0,0-.5-0.1,1.16,1.16,0,0,0-1,.4,1.28,1.28,0,0,0-.4,1V360h-0.9v-4.1a0.76,0.76,0,0,0-.2-0.4l-0.3-.3a0.9,0.9,0,0,0-.5-0.1,1,1,0,0,0-.7.2,1.76,1.76,0,0,0-.5.4,2.18,2.18,0,0,0-.3.5c0,0.1-.1.3-0.1,0.4V360h-0.9v-5.5h0.9Z"/><path class="gs35-11" d="M311.1,359.7a3,3,0,0,1-1.6.5,3.59,3.59,0,0,1-1.1-.2,1.56,1.56,0,0,1-.8-0.6,4.05,4.05,0,0,1-.5-0.9,5,5,0,0,1-.2-1.2,3.59,3.59,0,0,1,.2-1.1,3.13,3.13,0,0,1,.5-1,1.56,1.56,0,0,1,.8-0.6,3.55,3.55,0,0,1,1-.2,2.38,2.38,0,0,1,1.2.3,3,3,0,0,1,.8.8,3,3,0,0,1,.4,1,3.4,3.4,0,0,1,.1,1h-4.1a1.7,1.7,0,0,0,.1.7l0.3,0.6a1,1,0,0,0,.5.4,1.06,1.06,0,0,0,.8.1,1.4,1.4,0,0,0,.9-0.3,1.37,1.37,0,0,0,.5-0.8h0.9A2.13,2.13,0,0,1,311.1,359.7Zm-0.3-3.5a1.5,1.5,0,0,0-1.4-1,1.27,1.27,0,0,0-.6.1c-0.2.1-.3,0.2-0.5,0.3a2.18,2.18,0,0,0-.3.5,1.27,1.27,0,0,0-.1.6h3.2A2.19,2.19,0,0,1,310.8,356.2Z"/><path class="gs35-11" d="M313.5,354.6v0.9h0a1.9,1.9,0,0,1,1.8-1,2.77,2.77,0,0,1,.9.1,2.09,2.09,0,0,1,.6.4,0.86,0.86,0,0,1,.3.6,2.2,2.2,0,0,1,.1.8V360h-0.9v-3.7a1,1,0,0,0-1.1-1.1,1.7,1.7,0,0,0-.7.1,1,1,0,0,0-.5.4c-0.1.2-.2,0.3-0.3,0.5a1.7,1.7,0,0,0-.1.7V360h-0.9v-5.5l0.8,0.1h0Z"/><path class="gs35-11" d="M320.6,354.6v0.8h-1.1v3.7c0,0.1,0,.1.1,0.1s0.1,0.1.2,0.1h0.8v0.8h-1.2a0.71,0.71,0,0,1-.6-0.6,1.27,1.27,0,0,1-.1-0.6v-3.5h-0.9v-0.8h0.9V353h0.9v1.6h1Z"/><path class="gs35-7" d="M277.9,373.6c0,5.6-3.2,10.1-7.1,10.1s-6.3-5-6.3-10.6c0-2.5-.6-4.4,1.1-5.1s3.5-2.3,3.5-3c-0.1-.9.7-0.2,1.7-0.2C274.8,364.7,277.9,368,277.9,373.6Z"/><path class="gs35-17" d="M277.1,377c0.1-.5.8-0.3,1.1-1.5,0.4-1.8-.4-2.1-1-1.7"/><path class="gs35-17" d="M264.9,377c0.6,3.8,3.1,6.7,6.1,6.7s5.5-2.9,6.1-6.7"/><line class="gs35-17" x1="268.3" y1="376.4" x2="269.7" y2="376.4"/><line class="gs35-17" x1="272.8" y1="376.4" x2="274.2" y2="376.4"/><path class="gs35-17" d="M269.4,380.6a2.43,2.43,0,0,0,3.2,0"/><path class="gs35-17" d="M269.6,364.7a3.26,3.26,0,0,1-.4,1.4c-0.6.9-1.5,0.8-2.6,1.4a5.22,5.22,0,0,0-2.2,3.2,5.37,5.37,0,0,0,1,3.9,6.25,6.25,0,0,1,1.3-3.5,9.73,9.73,0,0,0,7.4,3l-0.6-1.2c-0.2-.4-0.3-0.9-0.5-1.2l1.6,1.3c0.8,0.6,1.6,1.2,2.3,1.7a5.91,5.91,0,0,0,.8-4.3C277.1,367.2,273.8,364.8,269.6,364.7Z"/><path class="gs35-9" d="M304.7,386.2h1.1V390l2-2h1.3l-1.9,1.8,2,3.1H308l-1.5-2.4-0.6.6v1.8h-1.1l-0.1-6.7h0Z"/><path class="gs35-9" d="M310.4,390.8a0.75,0.75,0,0,0,.1.5,1.06,1.06,0,0,0,.2.5c0.1,0.1.3,0.2,0.4,0.3a1.27,1.27,0,0,0,.6.1,2.35,2.35,0,0,0,.8-0.2,1.06,1.06,0,0,0,.4-0.6h1a2,2,0,0,1-.8,1.2,1.49,1.49,0,0,1-.7.3,2,2,0,0,1-.8.1,3.55,3.55,0,0,1-1-.2,3.51,3.51,0,0,1-.8-0.5,2.18,2.18,0,0,1-.5-0.8,2.6,2.6,0,0,1,0-2,2.18,2.18,0,0,1,.5-0.8,2.29,2.29,0,0,1,1.7-.8,3.55,3.55,0,0,1,1,.2,5.55,5.55,0,0,1,.8.6,1.8,1.8,0,0,1,.4.9,3.75,3.75,0,0,1,.1,1.1l-3.4.1h0Zm2.5-.7a0.9,0.9,0,0,0-.1-0.5,1.47,1.47,0,0,0-.2-0.4,1.38,1.38,0,0,0-.4-0.3,0.9,0.9,0,0,0-.5-0.1,0.75,0.75,0,0,0-.5.1,1.38,1.38,0,0,0-.4.3c-0.1.1-.2,0.3-0.3,0.4a0.9,0.9,0,0,0-.1.5h2.5Z"/><path class="gs35-9" d="M314.1,388.1h1.2l1.3,3.7h0l1.2-3.7h1.1l-1.9,5.2-0.3.6a2.19,2.19,0,0,1-.3.5,1,1,0,0,1-.5.4,1.7,1.7,0,0,1-.7.1,2.2,2.2,0,0,1-.8-0.1V394h0.9c0.1,0,.1-0.1.2-0.1a0.2,0.2,0,0,0,.1-0.2c0-.1.1-0.2,0.1-0.3l0.1-.4Z"/><path class="gs35-9" d="M291.8,373.7H293v2.5h2.4v1.2H293v2.4h-1.2v-2.4h-2.4v-1.2h2.4v-2.5h0Z"/><path class="gs35-7" d="M321.2,366.6a5.49,5.49,0,0,0-7.7,0,5.34,5.34,0,0,0-1.3,5.5h0l-6.8,6.8,0.5,3,3,0.5,0.5-2.3,1.6,0.1,1.1-1.1-0.4-1.5,1.5,0.4,0.9-.9,1.5-1.5a5.57,5.57,0,0,0,6.9-3.4A5.26,5.26,0,0,0,321.2,366.6Zm-2,4.3a1.63,1.63,0,0,1-2.3-2.3,1.6,1.6,0,0,1,2.3,0h0a1.69,1.69,0,0,1,0,2.3h0Z"/><circle class="gs35-17" cx="318.12" cy="369.79" r="1.7" transform="translate(-168.3 333.25) rotate(-45)"/><polyline class="gs35-17" points="312.3 372.1 305.4 378.9 305.9 381.9 308.9 382.4 309.5 380.1 311.1 380.2 312.3 379.1 311.9 377.5 313.4 378 314.2 377.1"/><path class="gs35-17" d="M315.8,375.6a5.47,5.47,0,1,0-3.5-6.9,5,5,0,0,0,0,3.4"/><path class="gs35-13" d="M474,238.4h3.8a2.62,2.62,0,0,1,1.7.5,1.72,1.72,0,0,1,.6,1.5,1.69,1.69,0,0,1-.3,1,1.56,1.56,0,0,1-.8.6h0a1.9,1.9,0,0,1,1.1.7,2.2,2.2,0,0,1,.4,1.3,2.92,2.92,0,0,1-.2.9,1.79,1.79,0,0,1-.5.7,4.05,4.05,0,0,1-.9.5,5.85,5.85,0,0,1-1.3.2H474v-7.9h0Zm1.3,3.3h2.2a1.14,1.14,0,0,0,.8-0.3,0.83,0.83,0,0,0,.3-0.8,1.14,1.14,0,0,0-.3-0.8,1,1,0,0,0-.9-0.2h-2.2l0.1,2.1h0Zm0,3.4h2.4a1.69,1.69,0,0,0,1-.3,1,1,0,0,0,.3-0.9,1.4,1.4,0,0,0-.3-0.9,1.69,1.69,0,0,0-1-.3h-2.4v2.4Z"/><path class="gs35-13" d="M483.9,246.4a5,5,0,0,1-1.2-.2,2.76,2.76,0,0,1-1.5-1.5,3.7,3.7,0,0,1,0-2.4,1.46,1.46,0,0,1,.6-0.9,2.36,2.36,0,0,1,.9-0.6,3.31,3.31,0,0,1,2.4,0,2.76,2.76,0,0,1,1.5,1.5,3.7,3.7,0,0,1,0,2.4,1.46,1.46,0,0,1-.6.9,2.36,2.36,0,0,1-.9.6A5,5,0,0,1,483.9,246.4Zm0-1a1.85,1.85,0,0,0,.7-0.2,1.21,1.21,0,0,0,.5-0.5l0.3-.6a3.79,3.79,0,0,0,0-1.5l-0.3-.6a2.36,2.36,0,0,0-.5-0.5,2,2,0,0,0-1.5,0,1.21,1.21,0,0,0-.5.5l-0.3.6a3.79,3.79,0,0,0,0,1.5l0.3,0.6a2.36,2.36,0,0,0,.5.5,1.88,1.88,0,0,0,.8.2h0Z"/><path class="gs35-13" d="M487.6,238.4h1.2v2.9h0c0.1-.1.2-0.3,0.3-0.4s0.3-.2.4-0.3a2.57,2.57,0,0,1,.5-0.2c0.2,0,.3-0.1.5-0.1a5,5,0,0,1,1.2.2,5.55,5.55,0,0,1,.8.6,3.13,3.13,0,0,1,.5,1,5,5,0,0,1,.2,1.2,4.25,4.25,0,0,1-.2,1.1,1.91,1.91,0,0,1-.5,1,2.14,2.14,0,0,1-1.8.9h-0.6l-0.6-.3c-0.2-.1-0.3-0.2-0.5-0.3a1,1,0,0,1-.4-0.5h0V246h-1.2v-7.6h0.2Zm4.4,5a2.2,2.2,0,0,0-.1-0.8l-0.3-.6a1,1,0,0,0-.5-0.4,1.45,1.45,0,0,0-.7-0.2,1.43,1.43,0,0,0-1.2.6,2.41,2.41,0,0,0-.4,1.5,2.2,2.2,0,0,0,.1.8l0.3,0.6a1,1,0,0,0,.5.4,0.82,0.82,0,0,0,.7.1,1.45,1.45,0,0,0,.7-0.2,1.21,1.21,0,0,0,.5-0.5l0.3-.6a1.7,1.7,0,0,1,.1-0.7h0Z"/><path class="gs35-7" d="M493.1,217.8c0,8-4.5,14.5-10.1,14.5s-9-7.2-9-15.2c0-3.6-.8-6.3,1.6-7.3,2.6-1.1,5.1-3.3,5-4.4-0.1-1.3,1-.3,2.4-0.3C488.6,205,493.1,209.8,493.1,217.8Z"/><path class="gs35-18" d="M492,222.7c0.2-.8,1.1-0.5,1.5-2.2,0.6-2.6-.6-3-1.4-2.5"/><path class="gs35-18" d="M474.4,222.7c0.8,5.4,4.4,9.6,8.8,9.6s7.9-4.1,8.8-9.6"/><line class="gs35-18" x1="479.3" y1="221.8" x2="481.3" y2="221.8"/><line class="gs35-18" x1="485.7" y1="221.8" x2="487.7" y2="221.8"/><path class="gs35-18" d="M480.9,227.9a3.62,3.62,0,0,0,4.6,0"/><path class="gs35-18" d="M481.1,205.1a3.61,3.61,0,0,1-.6,2c-0.9,1.3-2.2,1.1-3.7,2.1a6.74,6.74,0,0,0-1.7,10,11.18,11.18,0,0,1,1.8-5,14.11,14.11,0,0,0,10.6,4.3,7.5,7.5,0,0,1-.8-1.8c-0.2-.7-0.5-1.2-0.7-1.8,0.7,0.6,1.5,1.2,2.3,1.9q1.8,1.35,3.3,2.4a9.68,9.68,0,0,0,1.2-6.2C491.9,208.7,487.2,205.2,481.1,205.1Z"/><path class="gs35-13" d="M519.1,237.5h1.2V242l2.3-2.3h1.5l-2.2,2.1,2.4,3.6h-1.5l-1.7-2.8-0.8.7v2h-1.2v-7.8h0Z"/><path class="gs35-13" d="M525.6,242.8a1.27,1.27,0,0,0,.1.6,2.19,2.19,0,0,0,.3.5,1,1,0,0,0,.5.4,1.48,1.48,0,0,0,.7.1,2.92,2.92,0,0,0,.9-0.2,1.79,1.79,0,0,0,.5-0.7h1.2a1.94,1.94,0,0,1-.9,1.4,2,2,0,0,1-.8.4,2.77,2.77,0,0,1-.9.1,5,5,0,0,1-1.2-.2,4.7,4.7,0,0,1-.9-0.6,4.05,4.05,0,0,1-.5-0.9,5,5,0,0,1-.2-1.2,3.59,3.59,0,0,1,.2-1.1,3.13,3.13,0,0,1,.5-1,2.52,2.52,0,0,1,2-.9,2.66,2.66,0,0,1,1.2.3,5.5,5.5,0,0,1,.9.7,3.7,3.7,0,0,1,.5,1.1,4.87,4.87,0,0,1,.1,1.2h-4.2Zm3-.8c0-.2-0.1-0.4-0.1-0.6s-0.2-.3-0.3-0.5-0.3-.2-0.4-0.3a1.85,1.85,0,0,0-1.2,0c-0.2.1-.3,0.2-0.5,0.3a2.19,2.19,0,0,0-.3.5,1.27,1.27,0,0,0-.1.6h2.9Z"/><path class="gs35-13" d="M529.9,239.6h1.4l1.5,4.2h0l1.4-4.2h1.3l-2.2,6-0.3.7a2.09,2.09,0,0,1-.4.6,1,1,0,0,1-.5.4,2.35,2.35,0,0,1-.8.2,2.77,2.77,0,0,1-.9-0.1v-1.1H531a0.76,0.76,0,0,0,.4-0.1,0.22,0.22,0,0,0,.2-0.2,0.38,0.38,0,0,1,.2-0.2c0-.1.1-0.2,0.1-0.3l0.1-.4Z"/><path class="gs35-13" d="M504.6,215.4h1.7v3.3h3.3v1.7h-3.3v3.3h-1.7v-3.3h-3.3v-1.7h3.3v-3.3Z"/><path class="gs35-7" d="M540.2,210.7a7.43,7.43,0,0,0-12.3,7.6h0l-9.3,9.3,0.6,4.1,4.1,0.6,0.8-3.1,2.2,0.2,1.6-1.6-0.5-2.1,2.1,0.6,1.2-1.2,2.1-2.1a7.33,7.33,0,0,0,9.3-4.8A7.85,7.85,0,0,0,540.2,210.7Zm-2.8,6a2.26,2.26,0,1,1,0-3.2,2.43,2.43,0,0,1,0,3.2h0Z"/><circle class="gs35-18" cx="535.88" cy="215.01" r="2.3" transform="translate(4.92 441.9) rotate(-45)"/><polyline class="gs35-18" points="528 218.2 518.6 227.5 519.3 231.6 523.4 232.3 524.2 229.1 526.4 229.3 528 227.7 527.4 225.6 529.5 226.2 530.6 225"/><path class="gs35-18" d="M532.7,222.9a7.4,7.4,0,1,0-4.8-9.3,7.24,7.24,0,0,0,0,4.6"/><path class="gs35-2" d="M595.1,199.8H597l4,10.3h-2l-1-2.7h-4l-1,2.7h-1.9Zm-0.6,6.2h3.1l-1.5-4.4h0Z"/><path class="gs35-2" d="M601.6,199.8h4.5a5.66,5.66,0,0,1,1.8.3,2.84,2.84,0,0,1,1.1.8,3.13,3.13,0,0,1,.5,1,3.4,3.4,0,0,1,.1,1c0,0.3-.1.7-0.1,1a3.13,3.13,0,0,1-.5,1,4.44,4.44,0,0,1-1.1.8,5.66,5.66,0,0,1-1.8.3h-2.7v4h-1.8V199.8h0Zm1.8,4.9H606a1.27,1.27,0,0,0,.6-0.1l0.6-.3a1,1,0,0,0,.4-0.5,2.35,2.35,0,0,0,.2-0.8,2,2,0,0,0-.1-0.8,1,1,0,0,0-.4-0.5l-0.6-.3c-0.2,0-.5-0.1-0.7-0.1h-2.7v3.4h0.1Z"/><path class="gs35-2" d="M610.9,199.8h1.8v10.3h-1.8V199.8Z"/><path class="gs35-2" d="M574.8,215.8h7.4v1.6h-5.6v2.7h5.2v1.5h-5.2v3h5.7v1.6h-7.5V215.8h0Z"/><path class="gs35-2" d="M583.3,218.7h1.6v1.1h0a2.41,2.41,0,0,1,1-1,3.26,3.26,0,0,1,1.3-.4,3.08,3.08,0,0,1,1.9.6,2.28,2.28,0,0,1,.7,1.9V226h-1.6v-4.7a2,2,0,0,0-.4-1.3,1.5,1.5,0,0,0-1.1-.4,2.2,2.2,0,0,0-.8.1,1.84,1.84,0,0,0-1,1,2,2,0,0,0-.1.8v4.4h-1.6l0.1-7.2h0Z"/><path class="gs35-2" d="M598.3,226.1h-1.6v-1h0a2.19,2.19,0,0,1-1,.9,3.08,3.08,0,0,1-1.3.3,3.65,3.65,0,0,1-1.5-.3,4.44,4.44,0,0,1-1.1-.8,5.39,5.39,0,0,1-.7-1.3,7.77,7.77,0,0,1-.2-1.6,5.66,5.66,0,0,1,.3-1.8,4.73,4.73,0,0,1,.7-1.2,3.59,3.59,0,0,1,1-.7,5,5,0,0,1,1.2-.2,1.7,1.7,0,0,1,.7.1,1.85,1.85,0,0,1,.7.2,2.09,2.09,0,0,1,.6.4,2.36,2.36,0,0,1,.5.5h0v-3.8h1.6l0.1,10.3h0Zm-5.7-3.6a2.77,2.77,0,0,0,.1.9,2,2,0,0,0,.4.8l0.6,0.6a1.49,1.49,0,0,0,.9.2,2.39,2.39,0,0,0,.9-0.2,4.35,4.35,0,0,0,.7-0.6,3,3,0,0,0,.4-0.8,3.4,3.4,0,0,0,.1-1,3.08,3.08,0,0,0-.6-1.9,1.8,1.8,0,0,0-1.5-.7,3.55,3.55,0,0,0-1,.2,4.35,4.35,0,0,0-.7.6,3.55,3.55,0,0,0-.4.9A3.08,3.08,0,0,1,592.6,222.5Z"/><path class="gs35-2" d="M599.7,218.7h1.6v1h0a2.19,2.19,0,0,1,1-.9,3.08,3.08,0,0,1,1.3-.3,3.65,3.65,0,0,1,1.5.3,3.13,3.13,0,0,1,1.1.9,5.39,5.39,0,0,1,.7,1.3,5.72,5.72,0,0,1,0,3,2.73,2.73,0,0,1-.6,1.2,3,3,0,0,1-2.4,1.2,1.7,1.7,0,0,1-.7-0.1,1.85,1.85,0,0,1-.7-0.2,2.09,2.09,0,0,1-.6-0.4,2.36,2.36,0,0,1-.5-0.5h0v3.7h-1.6l-0.1-10.2h0Zm5.8,3.7a3.4,3.4,0,0,0-.1-1,2,2,0,0,0-.4-0.8,4.35,4.35,0,0,0-.7-0.6,1.49,1.49,0,0,0-.9-0.2,2,2,0,0,0-1.6.7,2.62,2.62,0,0,0-.5,1.9,3.4,3.4,0,0,0,.1,1,2,2,0,0,0,.4.8,4.35,4.35,0,0,0,.7.6,2.92,2.92,0,0,0,.9.2,3.55,3.55,0,0,0,1-.2,1.7,1.7,0,0,0,.6-0.6,3,3,0,0,0,.4-0.8,3.75,3.75,0,0,0,.1-1h0Z"/><path class="gs35-2" d="M611.6,226.3a4.53,4.53,0,0,1-1.6-.3,8.34,8.34,0,0,1-1.2-.8,3.75,3.75,0,0,1-.7-1.2,5.8,5.8,0,0,1,0-3.2,3.46,3.46,0,0,1,.7-1.2,2.55,2.55,0,0,1,1.2-.8,4.42,4.42,0,0,1,3.2,0,8.34,8.34,0,0,1,1.2.8,3.75,3.75,0,0,1,.7,1.2,5.8,5.8,0,0,1,0,3.2,3.46,3.46,0,0,1-.7,1.2,2.55,2.55,0,0,1-1.2.8A4.53,4.53,0,0,1,611.6,226.3Zm0-1.3a3.55,3.55,0,0,0,1-.2,4.35,4.35,0,0,0,.7-0.6,3,3,0,0,0,.4-0.8,3.08,3.08,0,0,0,0-1.9,2,2,0,0,0-.4-0.8,2,2,0,0,0-.7-0.6,2.12,2.12,0,0,0-1.9,0,2,2,0,0,0-.7.6,3,3,0,0,0-.4.8,3.08,3.08,0,0,0,0,1.9,2,2,0,0,0,.4.8,1.34,1.34,0,0,0,.7.6,2.39,2.39,0,0,0,.9.2h0Z"/><path class="gs35-2" d="M616.4,215.8H618v1.6h-1.6v-1.6Zm0,2.8H618v7.5h-1.6v-7.5Z"/><path class="gs35-2" d="M619.5,218.7h1.6v1.1h0a2.41,2.41,0,0,1,1-1,3.26,3.26,0,0,1,1.3-.4,3.08,3.08,0,0,1,1.9.6,2.28,2.28,0,0,1,.7,1.9V226h-1.6v-4.7a2,2,0,0,0-.4-1.3,1.5,1.5,0,0,0-1.1-.4,2.2,2.2,0,0,0-.8.1,1.84,1.84,0,0,0-1,1,2,2,0,0,0-.1.8v4.4h-1.6l0.1-7.2h0Z"/><path class="gs35-2" d="M626.6,218.7h1.2v-2.2h1.6v2.2h1.5v1.2h-1.5v4.4a0.37,0.37,0,0,0,.1.3,0.38,0.38,0,0,0,.2.2c0.1,0,.3.1,0.4,0.1h0.3a0.37,0.37,0,0,0,.3-0.1v1.3l-0.5.1h-0.5a3.4,3.4,0,0,1-1-.1,2.09,2.09,0,0,1-.6-0.4,0.86,0.86,0,0,1-.3-0.6,2.2,2.2,0,0,1-.1-0.8v-4.4h-1.2l0.1-1.2h0Z"/><path class="gs35-2" d="M581.7,244.9a10,10,0,0,1-.8-1.4,7.74,7.74,0,0,1-.7-1.6,10.46,10.46,0,0,1-.4-1.7,12.26,12.26,0,0,1-.2-1.9,12.7,12.7,0,0,1,.5-3.4,18.67,18.67,0,0,1,1.5-3.2h1.3a12.66,12.66,0,0,0-1.3,3.2,13.32,13.32,0,0,0-.5,3.4,13.93,13.93,0,0,0,.4,3.5,12.66,12.66,0,0,0,1.3,3.2l-1.1-.1h0Z"/><path class="gs35-2" d="M583.7,231.8h4.5a5.66,5.66,0,0,1,1.8.3,2.84,2.84,0,0,1,1.1.8,3.13,3.13,0,0,1,.5,1,3.4,3.4,0,0,1,.1,1c0,0.3-.1.7-0.1,1a3.13,3.13,0,0,1-.5,1,4.44,4.44,0,0,1-1.1.8,5.66,5.66,0,0,1-1.8.3h-2.7v4h-1.8V231.8h0Zm1.8,4.9h2.6a1.27,1.27,0,0,0,.6-0.1l0.6-.3a1,1,0,0,0,.4-0.5,2.35,2.35,0,0,0,.2-0.8,2,2,0,0,0-.1-0.8,1,1,0,0,0-.4-0.5l-0.6-.3c-0.2,0-.5-0.1-0.7-0.1h-2.7v3.4h0.1Z"/><path class="gs35-2" d="M599.3,242.1h-1.6v-1h0a2,2,0,0,1-.9.9,2.66,2.66,0,0,1-1.2.3,2.58,2.58,0,0,1-2.1-.7,3.41,3.41,0,0,1-.7-2.2v-4.7h1.6v4.6a2.3,2.3,0,0,0,.4,1.4,1.43,1.43,0,0,0,1,.4,1.49,1.49,0,0,0,.9-0.2,2.09,2.09,0,0,0,.6-0.4,1.69,1.69,0,0,0,.3-0.6,2.2,2.2,0,0,0,.1-0.8v-4.3h1.6v7.3h0Z"/><path class="gs35-2" d="M600.7,231.8h1.6v3.8h0c0.1-.2.3-0.3,0.4-0.5s0.3-.3.5-0.4a1.42,1.42,0,0,1,.6-0.2,1.27,1.27,0,0,1,.6-0.1,3.65,3.65,0,0,1,1.5.3,3.13,3.13,0,0,1,1.1.9,5.39,5.39,0,0,1,.7,1.3,5.72,5.72,0,0,1,0,3,2.73,2.73,0,0,1-.6,1.2,3,3,0,0,1-2.4,1.2,2.2,2.2,0,0,1-.8-0.1,1.45,1.45,0,0,1-.7-0.2,2.09,2.09,0,0,1-.6-0.4,2.65,2.65,0,0,1-.5-0.6h0v1h-1.5V231.8h0.1Zm5.7,6.6a3.4,3.4,0,0,0-.1-1,2,2,0,0,0-.4-0.8,4.35,4.35,0,0,0-.7-0.6,1.49,1.49,0,0,0-.9-0.2,2,2,0,0,0-1.6.7,2.62,2.62,0,0,0-.5,1.9,3.4,3.4,0,0,0,.1,1,2,2,0,0,0,.4.8,4.35,4.35,0,0,0,.7.6,2.92,2.92,0,0,0,.9.2,3.55,3.55,0,0,0,1-.2,1.7,1.7,0,0,0,.6-0.6,3,3,0,0,0,.4-0.8,3.75,3.75,0,0,0,.1-1h0Z"/><path class="gs35-2" d="M609.1,231.8h1.6v10.3h-1.6V231.8Z"/><path class="gs35-2" d="M612.2,231.8h1.6v1.6h-1.6v-1.6Zm0,2.9h1.6v7.5h-1.6v-7.5Z"/><path class="gs35-2" d="M620.4,237.2a1.39,1.39,0,0,0-.5-1,2.14,2.14,0,0,0-1.2-.4,1.7,1.7,0,0,0-.7.1,2.51,2.51,0,0,0-.7.4,2.18,2.18,0,0,0-.5.8,5.9,5.9,0,0,0-.2,1.4,2.77,2.77,0,0,0,.1.9,6.89,6.89,0,0,0,.3.8l0.6,0.6a1.49,1.49,0,0,0,.9.2,1.75,1.75,0,0,0,1.2-.4,2.73,2.73,0,0,0,.6-1.2h1.6a3.58,3.58,0,0,1-1.1,2.2,3.78,3.78,0,0,1-2.3.8,3.65,3.65,0,0,1-1.5-.3,4.44,4.44,0,0,1-1.1-.8,3.75,3.75,0,0,1-.7-1.2,3.89,3.89,0,0,1-.2-1.5,8.75,8.75,0,0,1,.2-1.6,3.29,3.29,0,0,1,.7-1.3,2.73,2.73,0,0,1,1.2-.9,4.53,4.53,0,0,1,1.6-.3,5,5,0,0,1,1.2.2,3.13,3.13,0,0,1,1,.5,1.78,1.78,0,0,1,.7.8,2.66,2.66,0,0,1,.3,1.2h-1.5Z"/><path class="gs35-2" d="M623.3,231.6a10,10,0,0,1,.8,1.4,7.74,7.74,0,0,1,.7,1.6c0.2,0.6.3,1.1,0.5,1.7a12.26,12.26,0,0,1,.2,1.9,12.7,12.7,0,0,1-.5,3.4,18.67,18.67,0,0,1-1.5,3.2H622a12.66,12.66,0,0,0,1.3-3.2,13.32,13.32,0,0,0,.5-3.4,13.93,13.93,0,0,0-.4-3.5,17.88,17.88,0,0,0-1.3-3.2l1.2,0.1h0Z"/><path class="gs35-3" d="M613.3,153.5h17.5a4.48,4.48,0,0,1,4.5,4.5v6.6a4.48,4.48,0,0,1-4.5,4.5H613.3a4.48,4.48,0,0,1-4.5-4.5V158A4.42,4.42,0,0,1,613.3,153.5Z"/><path class="gs35-19" d="M606.2,150.1h27.6a1.45,1.45,0,0,1,1.5,1.4V168a1.39,1.39,0,0,1-1.5,1.4H606.2a1.45,1.45,0,0,1-1.5-1.4V151.5A1.52,1.52,0,0,1,606.2,150.1Z"/><path class="gs35-2" d="M610.6,157.2l0.8,3.1c0.2,0.7.3,1.3,0.5,2h0a19.44,19.44,0,0,1,.5-2l1-3.2h1l1,3.1a19.44,19.44,0,0,1,.5,2h0a14.61,14.61,0,0,1,.5-2l0.9-3.1h1.1l-2,6.2h-1l-1-3a14.61,14.61,0,0,1-.5-2h0a7.62,7.62,0,0,1-.6,2l-1,2.9h-1l-1.9-6.1h1.2v0.1Z"/><path class="gs35-2" d="M620.1,157.2l0.8,3.1c0.2,0.7.3,1.3,0.5,2h0a19.44,19.44,0,0,1,.5-2l1-3.2h1l1,3.1a19.44,19.44,0,0,1,.5,2h0a14.61,14.61,0,0,1,.5-2l0.9-3.1h1.1l-2,6.2h-1l-1-3a14.61,14.61,0,0,1-.5-2h0a7.62,7.62,0,0,1-.6,2l-1,2.9h-1l-1.9-6.1h1.2v0.1Z"/><path class="gs35-2" d="M629.7,157.2l0.8,3.1c0.2,0.7.3,1.3,0.5,2h0a19.44,19.44,0,0,1,.5-2l1-3.2h1l1,3.1a19.44,19.44,0,0,1,.5,2h0a14.61,14.61,0,0,1,.5-2l0.9-3.1h1.2l-2,6.2h-1l-1-3a14.61,14.61,0,0,1-.5-2h0a7.62,7.62,0,0,1-.6,2l-1,2.9h-1l-1.9-6.1h1.1v0.1Z"/><path class="gs35-3" d="M576.9,148.5h17.5a4.48,4.48,0,0,1,4.5,4.5v6.6a4.48,4.48,0,0,1-4.5,4.5H576.9a4.48,4.48,0,0,1-4.5-4.5V153A4.36,4.36,0,0,1,576.9,148.5Z"/><path class="gs35-19" d="M569.8,145h27.6a1.45,1.45,0,0,1,1.5,1.4v16.5a1.39,1.39,0,0,1-1.5,1.4H569.8a1.45,1.45,0,0,1-1.5-1.4V146.4A1.52,1.52,0,0,1,569.8,145Z"/><path class="gs35-2" d="M574.1,152.2l0.8,3.1c0.2,0.7.3,1.3,0.5,2h0a19.44,19.44,0,0,1,.5-2l1-3.2h1l1,3.1a19.44,19.44,0,0,1,.5,2h0a14.61,14.61,0,0,1,.5-2l0.9-3.1h1.1l-2,6.2h-1l-1-3a14.61,14.61,0,0,1-.5-2h0a7.62,7.62,0,0,1-.6,2l-1,2.9h-1l-1.9-6.1h1.2v0.1Z"/><path class="gs35-2" d="M583.7,152.2l0.9,3.1c0.2,0.7.3,1.3,0.5,2h0a19.44,19.44,0,0,1,.5-2l1-3.2h1l1,3.1a19.44,19.44,0,0,1,.5,2h0a14.61,14.61,0,0,1,.5-2l0.9-3.1h1.1l-2,6.2h-1l-1-3a14.61,14.61,0,0,1-.5-2h0a7.62,7.62,0,0,1-.6,2l-1,2.9h-1l-1.9-6.1h1.1v0.1Z"/><path class="gs35-2" d="M593.3,152.2l0.8,3.1c0.2,0.7.3,1.3,0.5,2h0a19.44,19.44,0,0,1,.5-2l1-3.2h1l1,3.1a19.44,19.44,0,0,1,.5,2h0a14.61,14.61,0,0,1,.5-2l0.9-3.1h1.1l-2,6.2h-1l-1-3a14.61,14.61,0,0,1-.5-2h0a7.62,7.62,0,0,1-.6,2l-1,2.9h-1l-1.9-6.1h1.2v0.1Z"/><path class="gs35-7" d="M589.1,159.4H614a8,8,0,0,1,8,8.1V180a8.11,8.11,0,0,1-8,8.1H589.2a8,8,0,0,1-8-8.1V167.4A7.88,7.88,0,0,1,589.1,159.4Z"/><path class="gs35-1" d="M589.1,159.4H614a8,8,0,0,1,8,8.1V180a8.11,8.11,0,0,1-8,8.1H589.2a8,8,0,0,1-8-8.1V167.4A7.88,7.88,0,0,1,589.1,159.4Z"/><path class="gs35-3" d="M594.3,167.4h17.5a4.48,4.48,0,0,1,4.5,4.5v6.6a4.48,4.48,0,0,1-4.5,4.5H594.3a4.48,4.48,0,0,1-4.5-4.5V172A4.57,4.57,0,0,1,594.3,167.4Z"/><path class="gs35-19" d="M587.3,164h27.6a1.45,1.45,0,0,1,1.5,1.4v16.5a1.39,1.39,0,0,1-1.5,1.4H587.3a1.45,1.45,0,0,1-1.5-1.4V165.4A1.45,1.45,0,0,1,587.3,164Z"/><path class="gs35-2" d="M591.6,171.1l0.8,3.1c0.2,0.7.3,1.3,0.5,2h0a19.44,19.44,0,0,1,.5-2l1-3.2h1l1,3.1a19.44,19.44,0,0,1,.5,2h0a14.61,14.61,0,0,1,.5-2l0.9-3.1h1.1l-2,6.2h-1l-1-3a14.61,14.61,0,0,1-.5-2h0a7.62,7.62,0,0,1-.6,2l-1,2.9h-1l-1.9-6.2,1.2,0.2h0Z"/><path class="gs35-2" d="M601.2,171.1l0.8,3.1c0.2,0.7.3,1.3,0.5,2h0a19.44,19.44,0,0,1,.5-2l1-3.2h1l1,3.1a19.44,19.44,0,0,1,.5,2h0a14.61,14.61,0,0,1,.5-2l0.9-3.1H609l-2,6.2h-1l-1-3a14.61,14.61,0,0,1-.5-2h0a7.62,7.62,0,0,1-.6,2l-1,2.9h-1L600,171l1.2,0.1h0Z"/><path class="gs35-2" d="M610.7,171.1l0.8,3.1c0.2,0.7.3,1.3,0.5,2h0a19.44,19.44,0,0,1,.5-2l1-3.2h1l1,3.1a19.44,19.44,0,0,1,.5,2h0a14.61,14.61,0,0,1,.5-2l0.9-3.1h1.1l-2,6.2h-1l-1-3a14.61,14.61,0,0,1-.5-2h0a7.62,7.62,0,0,1-.6,2l-1,2.9h-1l-1.9-6.1h1.2v0.1Z"/><line class="gs35-20" x1="443.8" y1="191.2" x2="439.8" y2="191.2"/><line class="gs35-21" x1="431.7" y1="191.2" x2="160.9" y2="191.2"/><line class="gs35-20" x1="156.9" y1="191.2" x2="152.9" y2="191.2"/><path class="gs35-13" d="M466.4,186.4h1.8V188h0c0.1-.2.2-0.5,0.3-0.7l0.6-.6a2,2,0,0,1,.8-0.4,3.09,3.09,0,0,1,.8-0.2h0.8v1.8l-0.4-.1h-0.4a2.92,2.92,0,0,0-.9.2,1.34,1.34,0,0,0-.7.6,4.05,4.05,0,0,0-.5.9,5,5,0,0,0-.2,1.2v4.1h-1.9l-0.1-8.4h0Z"/><path class="gs35-13" d="M473.4,191.2a3.4,3.4,0,0,0,.1,1,2,2,0,0,0,.4.8,4.35,4.35,0,0,0,.7.6,3.55,3.55,0,0,0,1,.2,2,2,0,0,0,1.3-.4,2.26,2.26,0,0,0,.8-1.1h1.8a3.45,3.45,0,0,1-1.4,2.1,3.37,3.37,0,0,1-1.2.6,5.85,5.85,0,0,1-1.3.2,5.66,5.66,0,0,1-1.8-.3,3.81,3.81,0,0,1-1.3-.9,3.92,3.92,0,0,1-.8-1.4,5.66,5.66,0,0,1-.3-1.8,4.67,4.67,0,0,1,.3-1.7,6.38,6.38,0,0,1,.8-1.4,4.16,4.16,0,0,1,4.8-.9,3.48,3.48,0,0,1,1.3,1.1,4.81,4.81,0,0,1,.8,1.6,4,4,0,0,1,.1,1.9l-6.1-.2h0Zm4.4-1.3a2.92,2.92,0,0,0-.2-0.9,1.61,1.61,0,0,0-.4-0.7,1.79,1.79,0,0,0-.7-0.5,2.13,2.13,0,0,0-1.8,0,1.79,1.79,0,0,0-.7.5,3,3,0,0,0-.5.7,2.92,2.92,0,0,0-.2.9h4.5Z"/><path class="gs35-13" d="M489.2,198.1h-1.9v-4.3h0a2.65,2.65,0,0,1-.5.6,1.61,1.61,0,0,1-.7.4,2.35,2.35,0,0,1-.8.2c-0.3,0-.6.1-0.8,0.1a3.5,3.5,0,0,1-2.8-1.4,6.11,6.11,0,0,1-.7-1.4,8.81,8.81,0,0,1-.2-1.7,11,11,0,0,1,.2-1.8,6.11,6.11,0,0,1,.7-1.4,3.77,3.77,0,0,1,1.2-1,5.84,5.84,0,0,1,1.8-.4,3.65,3.65,0,0,1,1.5.3,2,2,0,0,1,1.1,1.1h0v-1.1h1.8l0.1,11.8h0Zm-6.6-7.4a4.1,4.1,0,0,0,.1,1.1,3,3,0,0,0,.4,1,2.34,2.34,0,0,0,.7.7,2,2,0,0,0,1.1.3,2.06,2.06,0,0,0,1.8-.8,4.33,4.33,0,0,0,0-4.4,1.84,1.84,0,0,0-1.8-.8,1.69,1.69,0,0,0-1,.3,2.34,2.34,0,0,0-.7.7,3.13,3.13,0,0,0-.5,1A2.22,2.22,0,0,0,482.6,190.7Z"/><path class="gs35-13" d="M498.7,194.9h-1.8v-1.2h0a2.41,2.41,0,0,1-1,1,3.26,3.26,0,0,1-1.4.4,3,3,0,0,1-2.4-.8,3.75,3.75,0,0,1-.8-2.5v-5.4h1.9v5.2a2.28,2.28,0,0,0,.4,1.6,1.84,1.84,0,0,0,1.2.5,1.8,1.8,0,0,0,1-.2,1.47,1.47,0,0,0,.6-0.5,2.51,2.51,0,0,0,.4-0.7,2.77,2.77,0,0,0,.1-0.9v-5h1.9l-0.1,8.5h0Z"/><path class="gs35-13" d="M502.2,191.2a3.4,3.4,0,0,0,.1,1,2,2,0,0,0,.4.8,4.35,4.35,0,0,0,.7.6,3.55,3.55,0,0,0,1,.2,2,2,0,0,0,1.3-.4,2.26,2.26,0,0,0,.8-1.1h1.8a3.45,3.45,0,0,1-1.4,2.1,3.37,3.37,0,0,1-1.2.6,5.85,5.85,0,0,1-1.3.2,5.66,5.66,0,0,1-1.8-.3,3.81,3.81,0,0,1-1.3-.9,3.92,3.92,0,0,1-.8-1.4,5.66,5.66,0,0,1-.3-1.8,4.67,4.67,0,0,1,.3-1.7,6.38,6.38,0,0,1,.8-1.4,4.16,4.16,0,0,1,4.8-.9,3.48,3.48,0,0,1,1.3,1.1,4.81,4.81,0,0,1,.8,1.6,4,4,0,0,1,.1,1.9l-6.1-.2h0Zm4.3-1.3a2.92,2.92,0,0,0-.2-0.9,1.61,1.61,0,0,0-.4-0.7,1.79,1.79,0,0,0-.7-0.5,2.13,2.13,0,0,0-1.8,0,1.79,1.79,0,0,0-.7.5,3,3,0,0,0-.5.7,2.92,2.92,0,0,0-.2.9h4.5Z"/><path class="gs35-13" d="M511.3,192.2a1.43,1.43,0,0,0,.6,1.2,2.77,2.77,0,0,0,1.3.3h0.6a1.42,1.42,0,0,0,.6-0.2,2.19,2.19,0,0,0,.5-0.3,1.42,1.42,0,0,0,.2-0.6,0.86,0.86,0,0,0-.3-0.6,2.09,2.09,0,0,0-.6-0.4,2.92,2.92,0,0,0-.9-0.2l-1-.2c-0.3-.1-0.7-0.2-1-0.3s-0.6-.3-0.9-0.4a1.34,1.34,0,0,1-.6-0.7,2,2,0,0,1-.2-1.1,2.66,2.66,0,0,1,.3-1.2,2.36,2.36,0,0,1,.9-0.8,5.64,5.64,0,0,1,1.2-.4,4.87,4.87,0,0,1,1.2-.1,6.15,6.15,0,0,1,1.3.1,3.58,3.58,0,0,1,1.1.4,3,3,0,0,1,.8.8,2.84,2.84,0,0,1,.4,1.2h-2a1.15,1.15,0,0,0-.6-0.9,2,2,0,0,0-1.1-.2h-0.5c-0.2,0-.3.1-0.5,0.1a0.62,0.62,0,0,0-.4.3,0.76,0.76,0,0,0-.2.4,1.42,1.42,0,0,0,.2.6,2.09,2.09,0,0,0,.6.4,2.92,2.92,0,0,0,.9.2l1,0.2c0.3,0.1.7,0.2,1,.3s0.6,0.3.9,0.4a1.34,1.34,0,0,1,.6.7,1.39,1.39,0,0,1,.2,1.1,2.77,2.77,0,0,1-.3,1.3,2.58,2.58,0,0,1-.9.9,6.12,6.12,0,0,1-1.2.5,5.7,5.7,0,0,1-1.3.1,7.72,7.72,0,0,1-1.5-.2,3.38,3.38,0,0,1-1.2-.6,3.45,3.45,0,0,1-.8-0.9,3.08,3.08,0,0,1-.3-1.3l1.9,0.1h0Z"/><path class="gs35-13" d="M517.6,186.4H519v-2.6h1.9v2.6h1.7v1.4h-1.7v5.1c0,0.1.1,0.3,0.1,0.4a0.53,0.53,0,0,0,.3.2,0.9,0.9,0,0,0,.5.1h0.4a0.6,0.6,0,0,0,.4-0.1v1.4l-0.6.1h-0.6a4.87,4.87,0,0,1-1.2-.1,1.61,1.61,0,0,1-.7-0.4,0.91,0.91,0,0,1-.3-0.7,2.77,2.77,0,0,1-.1-0.9v-5h-1.4v-1.5h-0.1Z"/><path class="gs35-13" d="M528.6,183.2h1.9v4.4h0a2.65,2.65,0,0,1,.5-0.6,2.09,2.09,0,0,1,.6-0.4c0.2-.1.5-0.2,0.7-0.3a1.7,1.7,0,0,1,.7-0.1,3.92,3.92,0,0,1,1.8.4,2.94,2.94,0,0,1,1.2,1,4.81,4.81,0,0,1,.9,3.2,9.85,9.85,0,0,1-.2,1.7,3.69,3.69,0,0,1-.7,1.4,3.37,3.37,0,0,1-2.8,1.4,2.77,2.77,0,0,1-.9-0.1,1.88,1.88,0,0,1-.8-0.2,4.35,4.35,0,0,1-.7-0.4,1.79,1.79,0,0,1-.5-0.7h0v1.2h-1.8V183.2h0.1Zm6.5,7.5a3.59,3.59,0,0,0-.2-1.1,1.91,1.91,0,0,0-.5-1,2.34,2.34,0,0,0-.7-0.7,1.69,1.69,0,0,0-1-.3,2.34,2.34,0,0,0-1.8.8,4,4,0,0,0-.6,2.2,5,5,0,0,0,.2,1.2,2.62,2.62,0,0,0,.5.9,1.56,1.56,0,0,0,.8.6,1.8,1.8,0,0,0,1,.2,2,2,0,0,0,1.1-.3,2.34,2.34,0,0,0,.7-0.7,3,3,0,0,0,.4-1,1.72,1.72,0,0,0,.1-0.8h0Z"/><path class="gs35-13" d="M537.6,186.4h2.1l2.2,6.4h0l2.2-6.4h2l-3.3,9-0.5,1.1a4.05,4.05,0,0,1-.5.9,1.56,1.56,0,0,1-.8.6,1.72,1.72,0,0,1-1.2.2,5.7,5.7,0,0,1-1.3-.1v-1.6l0.5,0.1h0.5a0.75,0.75,0,0,0,.5-0.1,0.77,0.77,0,0,0,.3-0.2,0.52,0.52,0,0,0,.2-0.4c0.1-.2.1-0.3,0.2-0.5l0.2-.7Z"/><polyline class="gs35-22" points="463.8 175 449.2 189.7 463.8 204.3"/><polyline class="gs35-20" points="147.9 175 133.3 189.6 147.9 204.2"/><path class="gs35-9" d="M262.7,386.4H266a2.82,2.82,0,0,1,1.5.4,1.3,1.3,0,0,1,.5,1.3,2.92,2.92,0,0,1-.2.9,2,2,0,0,1-.7.6h0a2.07,2.07,0,0,1,1,.6,2,2,0,0,1,.3,1.1,1.48,1.48,0,0,1-.1.7,2.65,2.65,0,0,1-.5.6,2,2,0,0,1-.8.4,2.08,2.08,0,0,1-1.1.1h-3.1v-6.7h-0.1Zm1.2,2.8h1.9a1.45,1.45,0,0,0,.7-0.2,1,1,0,0,0,0-1.4,1,1,0,0,0-.7-0.2h-1.9v1.8h0Zm0,3H266a1.1,1.1,0,1,0,0-2.2h-2.1v2.2h0Z"/><path class="gs35-9" d="M271.2,393.3a3.55,3.55,0,0,1-1-.2,2.1,2.1,0,0,1-1.3-1.3,3.75,3.75,0,0,1,0-2.1,2.1,2.1,0,0,1,1.3-1.3,2.56,2.56,0,0,1,2.1,0,2.1,2.1,0,0,1,1.3,1.3,3.75,3.75,0,0,1,0,2.1,2.1,2.1,0,0,1-1.3,1.3A3.59,3.59,0,0,1,271.2,393.3Zm0-.9a1.27,1.27,0,0,0,.6-0.1,0.78,0.78,0,0,0,.4-0.4,1.69,1.69,0,0,0,.2-0.5,1.85,1.85,0,0,0,0-1.2,0.76,0.76,0,0,0-.2-0.5,1.51,1.51,0,0,0-.4-0.4,1.27,1.27,0,0,0-1.2,0,0.78,0.78,0,0,0-.4.4,1.69,1.69,0,0,0-.2.5,2.44,2.44,0,0,0,0,1.2,2.57,2.57,0,0,0,.2.5,1.51,1.51,0,0,0,.4.4,1.27,1.27,0,0,0,.6.1h0Z"/><path class="gs35-9" d="M274.4,386.4h1.1v2.5h0l0.3-.3a0.52,0.52,0,0,1,.4-0.2,0.75,0.75,0,0,1,.5-0.1h0.4a3.55,3.55,0,0,1,1,.2,1.34,1.34,0,0,1,.7.6,2,2,0,0,1,.4.8,5,5,0,0,1,0,2,2,2,0,0,1-.4.8,2.09,2.09,0,0,1-1.6.8h-0.5c-0.2,0-.3-0.1-0.5-0.1s-0.3-.1-0.4-0.2a1.38,1.38,0,0,1-.3-0.4h0v0.6h-1l-0.1-7h0Zm3.8,4.3a1.27,1.27,0,0,0-.1-0.6,0.85,0.85,0,0,0-.3-0.5,1.51,1.51,0,0,0-.4-0.4,0.66,0.66,0,0,0-.6-0.1,1.23,1.23,0,0,0-1,.5,2.84,2.84,0,0,0-.4,1.3,1.7,1.7,0,0,0,.1.7,0.85,0.85,0,0,0,.3.5l0.4,0.4a1.85,1.85,0,0,0,1.2,0,0.78,0.78,0,0,0,.4-0.4,1.69,1.69,0,0,0,.2-0.5,2,2,0,0,0,.2-0.9h0Z"/></svg>
