<svg id="gs-3-3" xmlns="http://www.w3.org/2000/svg" viewBox="0 0 679.23 432.67"><defs><style>.gs33-1,.gs33-15{fill:#74cfe8;}.gs33-1{opacity:0.15;}.gs33-1,.gs33-14,.gs33-3{isolation:isolate;}.gs33-2,.gs33-3{fill:#35a9c5;}.gs33-3{opacity:0.2;}.gs33-13,.gs33-16,.gs33-17,.gs33-18,.gs33-4,.gs33-6,.gs33-8{fill:none;stroke-linecap:round;}.gs33-4{stroke:#35a9c5;}.gs33-13,.gs33-17,.gs33-4,.gs33-6,.gs33-8{stroke-linejoin:round;}.gs33-13,.gs33-4{stroke-width:2px;}.gs33-14,.gs33-19,.gs33-5{fill:#fff;}.gs33-17,.gs33-6,.gs33-8{stroke:#136d7c;}.gs33-6{stroke-width:1.5px;}.gs33-7{opacity:0.4;}.gs33-8{stroke-width:2.5px;}.gs33-9{opacity:0.63;}.gs33-10{fill:#136d7c;}.gs33-11{fill:#ffc60a;}.gs33-12{fill:#37403f;}.gs33-13,.gs33-16{stroke:#ffc60a;}.gs33-14{opacity:0.8;}.gs33-16,.gs33-18{stroke-miterlimit:10;}.gs33-16{stroke-width:3px;}.gs33-18{stroke:#37403f;}.gs33-19{opacity:0;}</style></defs><title>sized</title><rect class="gs33-1" x="422.52" y="68.93" width="187.41" height="250.88" rx="15" ry="15"/><path class="gs33-2" d="M532.43,194.7h2.39l5,12.86h-2.45l-1.21-3.4H531l-1.21,3.4H527.5Zm-0.79,7.74h3.92l-1.93-5.53h0Z"/><path class="gs33-2" d="M540.55,194.7h5.67c3.67,0,4.38,2.38,4.38,4s-0.7,4-4.37,3.94h-3.42v4.94h-2.25V194.7Zm2.25,6.08h3.29a2,2,0,0,0,2.25-2.12,1.9,1.9,0,0,0-2.21-2.12H542.8v4.24Z"/><path class="gs33-2" d="M552.1,194.7h2.27v12.88h-2.25Z"/><path class="gs33-2" d="M507.12,214.7h9.25v1.94h-7V220h6.48v1.84h-6.48v3.73h7.13v2h-9.38V214.7Z"/><path class="gs33-2" d="M517.72,218.25h2v1.33h0a3.33,3.33,0,0,1,2.9-1.66,3,3,0,0,1,3.29,3.17v6.49h-2v-5.85c0-1.46-.61-2.09-1.82-2.09a2.27,2.27,0,0,0-2.26,2.28q0,0.08,0,.17v5.49h-2Z"/><path class="gs33-2" d="M536.37,227.58h-1.94v-1.26h0a3.09,3.09,0,0,1-2.88,1.51c-2.93,0-4.36-2.18-4.36-5,0-3.37,2-4.84,4-4.84a3.59,3.59,0,0,1,3.1,1.46h0V214.7h2.08v12.88Zm-4.59-1.37c1.84,0,2.61-1.67,2.61-3.29,0-2.05-1-3.28-2.57-3.28-1.93,0-2.61,1.71-2.61,3.38s0.79,3.17,2.57,3.17v0Z"/><path class="gs33-2" d="M538.21,218.25h1.94v1.26h0A3.11,3.11,0,0,1,543,218c2.93,0,4.36,2.23,4.36,5,0,2.5-1.26,4.86-4,4.86a3.62,3.62,0,0,1-3.12-1.46h0V231h-2v-12.8Zm4.59,1.37c-1.73,0-2.61,1.31-2.61,3.29s1,3.28,2.61,3.28c1.87,0,2.58-1.66,2.58-3.28s-0.89-3.33-2.58-3.33v0Z"/><path class="gs33-2" d="M548.27,222.89c0-2.84,1.71-4.9,4.7-4.9s4.7,2.05,4.7,4.9-1.71,4.92-4.7,4.92S548.27,225.75,548.27,222.89Zm7.35,0c0-1.6-.81-3.28-2.65-3.28s-2.65,1.67-2.65,3.28,0.81,3.29,2.65,3.29S555.62,224.51,555.62,222.89Z"/><path class="gs33-2" d="M559,214.7h2v1.94h-2V214.7Zm0,3.55h2v9.33h-2v-9.33Z"/><path class="gs33-2" d="M562.81,218.25h2v1.33h0a3.33,3.33,0,0,1,2.9-1.66,3,3,0,0,1,3.29,3.17v6.49h-2v-5.85c0-1.46-.61-2.09-1.82-2.09a2.27,2.27,0,0,0-2.26,2.28q0,0.08,0,.17v5.49h-2Z"/><path class="gs33-2" d="M571.76,218.25h1.55v-2.79h2.06v2.79h1.85v1.53h-1.85v5c0,0.85.07,1.28,1,1.28a3.49,3.49,0,0,0,.86-0.07v1.59c-0.45,0-.88.11-1.33,0.11-2.14,0-2.54-.83-2.58-2.38v-5.53h-1.55v-1.53Z"/><path class="gs33-2" d="M515.72,251a15,15,0,0,1-2.59-8.3,15.35,15.35,0,0,1,2.59-8.3h1.65a16.65,16.65,0,0,0-2.21,8.3,15.89,15.89,0,0,0,2.21,8.3h-1.65Z"/><path class="gs33-2" d="M518.16,234.7h5.67c3.67,0,4.38,2.38,4.38,4s-0.7,4-4.37,3.94h-3.47v4.94h-2.25Zm2.21,6.08h3.29a2,2,0,0,0,2.25-2.12,1.9,1.9,0,0,0-2.21-2.12h-3.33v4.24Z"/><path class="gs33-2" d="M537.61,247.58h-2v-1.3h0a3.13,3.13,0,0,1-2.65,1.55c-2.43,0-3.48-1.22-3.48-3.66v-5.91h2V244c0,1.64.67,2.23,1.78,2.23,1.71,0,2.29-1.1,2.29-2.54v-5.4h2Z"/><path class="gs33-2" d="M539.37,234.7h2v4.75h0a3.39,3.39,0,0,1,2.77-1.46c2.93,0,4.36,2.23,4.36,5,0,2.5-1.26,4.86-4,4.86a3.32,3.32,0,0,1-3.13-1.57h0v1.3h-2V234.7Zm4.59,4.92c-1.73,0-2.61,1.31-2.61,3.29s1,3.28,2.61,3.28c1.87,0,2.58-1.66,2.58-3.28s-0.89-3.33-2.58-3.33v0Z"/><path class="gs33-2" d="M549.92,234.7h2v12.88h-2V234.7Z"/><path class="gs33-2" d="M553.8,234.7h2v1.94h-2V234.7Zm0,3.55h2v9.33h-2v-9.33Z"/><path class="gs33-2" d="M563.92,241.36a2,2,0,0,0-2.12-1.75c-1.06,0-2.56.56-2.56,3.38,0,1.55.68,3.19,2.47,3.19a2.21,2.21,0,0,0,2.21-2.12h2a4,4,0,0,1-4.23,3.75h0c-2.92,0-4.52-2.07-4.52-4.81s1.53-5,4.59-5c2.16,0,4,1.08,4.2,3.37h-2Z"/><path class="gs33-2" d="M567.64,234.39a15.05,15.05,0,0,1,2.59,8.32,15.24,15.24,0,0,1-2.59,8.28H566a16.55,16.55,0,0,0,2.21-8.28,16,16,0,0,0-2.21-8.32h1.67Z"/><rect class="gs33-3" x="549.43" y="136.97" width="33.16" height="19.58" rx="4.53" ry="4.53"/><rect class="gs33-4" x="544.51" y="132.64" width="38.08" height="24.18" rx="1.81" ry="1.81"/><path class="gs33-2" d="M550.92,149.25a0.62,0.62,0,0,1-.35-0.61,3.22,3.22,0,0,0,0-.43V147.3h0V147a0.33,0.33,0,0,1,0-.18v-1.66a17.74,17.74,0,0,1,0-1.8,1.48,1.48,0,0,1,0-.38,3.17,3.17,0,0,1,0-.4v-0.32a0.86,0.86,0,0,1,0-.35,1.49,1.49,0,0,1,.1-0.29,0.84,0.84,0,0,1,1-.3,0.68,0.68,0,0,1,.32.72v1.13a5.39,5.39,0,0,1,0,.72,1.31,1.31,0,0,0,0,.32v0.08a1.78,1.78,0,0,1,0,.42v0.46a1.32,1.32,0,0,0,0,.25v0.11c0.08,0.48.38,1.07,0.67,0.75a0.16,0.16,0,0,1,.1-0.13l0.41-.48,0.16-.16h0a4.52,4.52,0,0,1,.3-0.35l0.11-.11a1,1,0,0,1,1.28.11h0a2.07,2.07,0,0,0,.46.45c0.24,0.22.14,0.16,0.17,0.21a1.92,1.92,0,0,0,.27.33c0.42,0.33.85-.33,0.89-0.8v-2.85a1.7,1.7,0,0,1,0-.75,0.87,0.87,0,0,1,1.07-.45,0.66,0.66,0,0,1,.33.53v2.56a2.74,2.74,0,0,1,0,1v0.3a0.73,0.73,0,0,0,0,.18v1.36a0.92,0.92,0,0,1,0,.35v1a1,1,0,0,1-.22.66,0.88,0.88,0,0,1-1.23-.19l-0.06-.1a3.08,3.08,0,0,1-.32-0.48l-0.08-.14a3.57,3.57,0,0,0-.54-0.48,1.94,1.94,0,0,0-1.34-.62,1.7,1.7,0,0,0-1.29.67,4.31,4.31,0,0,1-.46.46,3.52,3.52,0,0,0-.61.64h0a0.9,0.9,0,0,1-1.18.37Z"/><path class="gs33-2" d="M560.57,149.25a0.62,0.62,0,0,1-.35-0.61,3.22,3.22,0,0,0,0-.43V147.3h0V147a0.33,0.33,0,0,1,0-.18v-1.66a17.74,17.74,0,0,1,0-1.8,1.48,1.48,0,0,1,0-.38,3.17,3.17,0,0,1,0-.4v-0.32a0.86,0.86,0,0,1,0-.35,1.49,1.49,0,0,1,.1-0.29,0.84,0.84,0,0,1,1-.3,0.68,0.68,0,0,1,.32.72v1.13a5.39,5.39,0,0,1,0,.72,1.31,1.31,0,0,0,0,.32v0.08a1.78,1.78,0,0,1,0,.42v0.46a1.32,1.32,0,0,0,0,.25v0.11c0.08,0.48.38,1.07,0.67,0.75a0.17,0.17,0,0,1,.1-0.13l0.42-.48,0.16-.16h0a4.52,4.52,0,0,1,.3-0.35l0.11-.11a1,1,0,0,1,1.28.11h0a2.07,2.07,0,0,0,.46.45c0.24,0.22.14,0.16,0.17,0.21a1.92,1.92,0,0,0,.27.33c0.42,0.33.85-.33,0.89-0.8v-2.85a1.7,1.7,0,0,1,0-.75,0.87,0.87,0,0,1,1.07-.45,0.66,0.66,0,0,1,.33.53v2.56a2.74,2.74,0,0,1,0,1v0.3a0.73,0.73,0,0,0,0,.18v1.36a0.92,0.92,0,0,1,0,.35v1a1,1,0,0,1-.22.66,0.88,0.88,0,0,1-1.23-.19l-0.06-.1a3.08,3.08,0,0,1-.32-0.48l-0.08-.14a3.57,3.57,0,0,0-.54-0.48,1.94,1.94,0,0,0-1.34-.62,1.7,1.7,0,0,0-1.29.67,4.31,4.31,0,0,1-.46.46,3.52,3.52,0,0,0-.61.64h0a0.9,0.9,0,0,1-1.18.37Z"/><path class="gs33-2" d="M570.23,149.25a0.62,0.62,0,0,1-.35-0.61,3.22,3.22,0,0,0,0-.43V147.3h0V147a0.33,0.33,0,0,1,0-.18v-1.66a17.74,17.74,0,0,1,0-1.8,1.48,1.48,0,0,1,0-.38,3.17,3.17,0,0,1,0-.4v-0.32a0.86,0.86,0,0,1,0-.35,1.49,1.49,0,0,1,.1-0.29,0.84,0.84,0,0,1,1-.3,0.68,0.68,0,0,1,.32.72v1.13a5.39,5.39,0,0,1,0,.72,1.31,1.31,0,0,0,0,.32v0.08a1.78,1.78,0,0,1,0,.42v0.46a1.32,1.32,0,0,0,0,.25v0.11c0.08,0.48.38,1.07,0.67,0.75a0.16,0.16,0,0,1,.1-0.13l0.41-.48,0.16-.16h0a4.52,4.52,0,0,1,.3-0.35l0.11-.11a1,1,0,0,1,1.28.11h0a2.07,2.07,0,0,0,.46.45c0.24,0.22.14,0.16,0.17,0.21a1.92,1.92,0,0,0,.27.33c0.42,0.33.85-.33,0.89-0.8v-2.85a1.7,1.7,0,0,1,0-.75,0.87,0.87,0,0,1,1.07-.45,0.66,0.66,0,0,1,.33.53v2.56a2.74,2.74,0,0,1,0,1v0.3a0.73,0.73,0,0,0,0,.18v1.36a0.92,0.92,0,0,1,0,.35v1a1,1,0,0,1-.22.66,0.88,0.88,0,0,1-1.23-.19l-0.06-.1a3.08,3.08,0,0,1-.32-0.48l-0.08-.14a3.57,3.57,0,0,0-.54-0.48,1.94,1.94,0,0,0-1.34-.62,1.7,1.7,0,0,0-1.29.67,4.31,4.31,0,0,1-.46.46,3.52,3.52,0,0,0-.61.64h0a0.9,0.9,0,0,1-1.18.37Z"/><rect class="gs33-3" x="503.99" y="130.68" width="33.16" height="19.58" rx="4.53" ry="4.53"/><rect class="gs33-4" x="499.07" y="126.34" width="38.08" height="24.18" rx="1.81" ry="1.81"/><path class="gs33-2" d="M505.48,142.95a0.62,0.62,0,0,1-.35-0.61,3.22,3.22,0,0,0,0-.43V141h0v-0.29a0.33,0.33,0,0,1,0-.18v-1.66a17.74,17.74,0,0,1,0-1.8,1.48,1.48,0,0,1,0-.38,3.17,3.17,0,0,1,0-.4V136a0.86,0.86,0,0,1,0-.35,1.5,1.5,0,0,1,.1-0.29,0.84,0.84,0,0,1,1-.3,0.68,0.68,0,0,1,.32.72v1.13a5.38,5.38,0,0,1,0,.72,1.31,1.31,0,0,0,0,.32V138a1.78,1.78,0,0,1,0,.42v0.46a1.32,1.32,0,0,0,0,.25v0.11c0.08,0.48.38,1.07,0.67,0.75a0.17,0.17,0,0,1,.1-0.13l0.42-.48,0.16-.16h0a4.53,4.53,0,0,1,.3-0.35l0.11-.11a1,1,0,0,1,1.28.11h0a2.07,2.07,0,0,0,.46.45c0.24,0.22.14,0.16,0.17,0.21a1.92,1.92,0,0,0,.27.33c0.42,0.33.85-.33,0.89-0.8v-2.85a1.7,1.7,0,0,1,0-.75,0.87,0.87,0,0,1,1.07-.45,0.66,0.66,0,0,1,.33.53v2.56a2.74,2.74,0,0,1,0,1v0.3a0.73,0.73,0,0,0,0,.18v1.36a0.93,0.93,0,0,1,0,.35v1a1,1,0,0,1-.22.66,0.88,0.88,0,0,1-1.23-.19l-0.06-.1a3.08,3.08,0,0,1-.32-0.48l-0.08-.14a3.57,3.57,0,0,0-.54-0.48,1.94,1.94,0,0,0-1.34-.62,1.7,1.7,0,0,0-1.29.67,4.31,4.31,0,0,1-.46.46,3.52,3.52,0,0,0-.61.64h0a0.9,0.9,0,0,1-1.18.37Z"/><path class="gs33-2" d="M515.13,142.95a0.62,0.62,0,0,1-.35-0.61,3.22,3.22,0,0,0,0-.43V141h0v-0.29a0.33,0.33,0,0,1,0-.18v-1.66a17.74,17.74,0,0,1,0-1.8,1.48,1.48,0,0,1,0-.38,3.17,3.17,0,0,1,0-.4V136a0.86,0.86,0,0,1,0-.35,1.5,1.5,0,0,1,.1-0.29,0.84,0.84,0,0,1,1-.3,0.68,0.68,0,0,1,.32.72v1.13a5.39,5.39,0,0,1,0,.72,1.31,1.31,0,0,0,0,.32V138a1.78,1.78,0,0,1,0,.42v0.46a1.32,1.32,0,0,0,0,.25v0.11c0.08,0.48.38,1.07,0.67,0.75a0.16,0.16,0,0,1,.1-0.13l0.41-.48,0.16-.16h0a4.52,4.52,0,0,1,.3-0.35l0.11-.11a1,1,0,0,1,1.28.11h0a2.07,2.07,0,0,0,.46.45c0.24,0.22.14,0.16,0.17,0.21a1.92,1.92,0,0,0,.27.33c0.42,0.33.85-.33,0.89-0.8v-2.85a1.7,1.7,0,0,1,0-.75,0.87,0.87,0,0,1,1.07-.45,0.66,0.66,0,0,1,.33.53v2.56a2.74,2.74,0,0,1,0,1v0.3a0.73,0.73,0,0,0,0,.18v1.36a0.93,0.93,0,0,1,0,.35v1a1,1,0,0,1-.22.66,0.88,0.88,0,0,1-1.23-.19l-0.06-.1a3.08,3.08,0,0,1-.32-0.48l-0.08-.14a3.57,3.57,0,0,0-.54-0.48,1.94,1.94,0,0,0-1.34-.62,1.7,1.7,0,0,0-1.29.67,4.31,4.31,0,0,1-.46.46,3.52,3.52,0,0,0-.61.64h0a0.9,0.9,0,0,1-1.18.37Z"/><path class="gs33-2" d="M524.78,142.95a0.62,0.62,0,0,1-.35-0.61,3.22,3.22,0,0,0,0-.43V141h0v-0.29a0.33,0.33,0,0,1,0-.18v-1.66a17.74,17.74,0,0,1,0-1.8,1.48,1.48,0,0,1,0-.38,3.17,3.17,0,0,1,0-.4V136a0.86,0.86,0,0,1,0-.35,1.5,1.5,0,0,1,.1-0.29,0.84,0.84,0,0,1,1-.3,0.68,0.68,0,0,1,.32.72v1.13a5.39,5.39,0,0,1,0,.72,1.31,1.31,0,0,0,0,.32V138a1.78,1.78,0,0,1,0,.42v0.46a1.32,1.32,0,0,0,0,.25v0.11c0.08,0.48.38,1.07,0.67,0.75a0.17,0.17,0,0,1,.1-0.13l0.42-.48,0.16-.16h0a4.52,4.52,0,0,1,.3-0.35l0.11-.11a1,1,0,0,1,1.28.11h0a2.07,2.07,0,0,0,.46.45c0.24,0.22.14,0.16,0.17,0.21a1.92,1.92,0,0,0,.27.33c0.42,0.33.85-.33,0.89-0.8v-2.85a1.7,1.7,0,0,1,0-.75,0.87,0.87,0,0,1,1.07-.45,0.66,0.66,0,0,1,.33.53v2.56a2.74,2.74,0,0,1,0,1v0.3a0.73,0.73,0,0,0,0,.18v1.36a0.93,0.93,0,0,1,0,.35v1a1,1,0,0,1-.22.66,0.88,0.88,0,0,1-1.23-.19l-0.06-.1a3.08,3.08,0,0,1-.32-0.48l-0.08-.14a3.57,3.57,0,0,0-.54-0.48,1.94,1.94,0,0,0-1.34-.62,1.7,1.7,0,0,0-1.29.67,4.31,4.31,0,0,1-.46.46,3.52,3.52,0,0,0-.61.64h0a0.9,0.9,0,0,1-1.18.37Z"/><rect class="gs33-5" x="514.92" y="144.32" width="51.08" height="35.76" rx="8.05" ry="8.05"/><rect class="gs33-1" x="514.92" y="144.32" width="51.08" height="35.76" rx="8.05" ry="8.05"/><rect class="gs33-3" x="525.75" y="154.36" width="33.16" height="19.58" rx="4.53" ry="4.53"/><rect class="gs33-4" x="520.83" y="150.02" width="38.08" height="24.18" rx="1.81" ry="1.81"/><path class="gs33-2" d="M527.24,166.63a0.62,0.62,0,0,1-.35-0.61,3.22,3.22,0,0,0,0-.43v-0.91h0v-0.29a0.33,0.33,0,0,1,0-.18v-1.66a17.74,17.74,0,0,1,0-1.8,1.48,1.48,0,0,1,0-.38,3.17,3.17,0,0,1,0-.4v-0.32a0.86,0.86,0,0,1,0-.35A1.5,1.5,0,0,1,527,159a0.84,0.84,0,0,1,1-.3,0.68,0.68,0,0,1,.32.72v1.13a5.39,5.39,0,0,1,0,.72,1.31,1.31,0,0,0,0,.32v0.08a1.78,1.78,0,0,1,0,.42v0.46a1.32,1.32,0,0,0,0,.25v0.11c0.08,0.48.38,1.07,0.67,0.75a0.17,0.17,0,0,1,.1-0.13l0.42-.48,0.16-.16h0a4.52,4.52,0,0,1,.3-0.35l0.11-.11a1,1,0,0,1,1.28.11h0a2.07,2.07,0,0,0,.46.45c0.24,0.22.14,0.16,0.17,0.21a1.92,1.92,0,0,0,.27.33c0.42,0.33.85-.33,0.89-0.8v-2.85a1.7,1.7,0,0,1,0-.75,0.87,0.87,0,0,1,1.07-.45,0.66,0.66,0,0,1,.33.53v2.56a2.74,2.74,0,0,1,0,1v0.3a0.73,0.73,0,0,0,0,.18v1.31a0.93,0.93,0,0,1,0,.35v1a1,1,0,0,1-.22.66,0.88,0.88,0,0,1-1.23-.19l-0.06-.1a3.08,3.08,0,0,1-.32-0.48l-0.08-.14a3.57,3.57,0,0,0-.54-0.48,1.94,1.94,0,0,0-1.34-.62,1.7,1.7,0,0,0-1.29.67,4.31,4.31,0,0,1-.46.46,3.52,3.52,0,0,0-.61.64h0a0.9,0.9,0,0,1-1.18.37Z"/><path class="gs33-2" d="M536.89,166.63a0.62,0.62,0,0,1-.35-0.61,3.22,3.22,0,0,0,0-.43v-0.91h0v-0.29a0.33,0.33,0,0,1,0-.18v-1.66a17.74,17.74,0,0,1,0-1.8,1.48,1.48,0,0,1,0-.38,3.17,3.17,0,0,1,0-.4v-0.32a0.86,0.86,0,0,1,0-.35,1.5,1.5,0,0,1,.1-0.29,0.84,0.84,0,0,1,1-.3,0.68,0.68,0,0,1,.32.72v1.13a5.39,5.39,0,0,1,0,.72,1.31,1.31,0,0,0,0,.32v0.08a1.78,1.78,0,0,1,0,.42v0.46a1.32,1.32,0,0,0,0,.25v0.11c0.08,0.48.38,1.07,0.67,0.75a0.16,0.16,0,0,1,.1-0.13l0.41-.48,0.16-.16h0a4.52,4.52,0,0,1,.3-0.35l0.11-.11a1,1,0,0,1,1.28.11h0a2.07,2.07,0,0,0,.46.45c0.24,0.22.14,0.16,0.17,0.21a1.92,1.92,0,0,0,.27.33c0.42,0.33.85-.33,0.89-0.8v-2.85a1.7,1.7,0,0,1,0-.75,0.87,0.87,0,0,1,1.07-.45,0.66,0.66,0,0,1,.33.53v2.56a2.74,2.74,0,0,1,0,1v0.3a0.73,0.73,0,0,0,0,.18v1.31a0.93,0.93,0,0,1,0,.35v1a1,1,0,0,1-.22.66,0.88,0.88,0,0,1-1.23-.19l-0.06-.1a3.08,3.08,0,0,1-.32-0.48l-0.08-.14a3.57,3.57,0,0,0-.54-0.48,1.94,1.94,0,0,0-1.34-.62,1.7,1.7,0,0,0-1.29.67,4.31,4.31,0,0,1-.46.46,3.52,3.52,0,0,0-.61.64h0a0.9,0.9,0,0,1-1.18.37Z"/><path class="gs33-2" d="M546.54,166.63a0.62,0.62,0,0,1-.35-0.61,3.22,3.22,0,0,0,0-.43v-0.91h0v-0.29a0.33,0.33,0,0,1,0-.18v-1.66a17.74,17.74,0,0,1,0-1.8,1.48,1.48,0,0,1,0-.38,3.17,3.17,0,0,1,0-.4v-0.32a0.86,0.86,0,0,1,0-.35,1.5,1.5,0,0,1,.1-0.29,0.84,0.84,0,0,1,1-.3,0.68,0.68,0,0,1,.32.72v1.13a5.39,5.39,0,0,1,0,.72,1.31,1.31,0,0,0,0,.32v0.08a1.78,1.78,0,0,1,0,.42v0.46a1.32,1.32,0,0,0,0,.25v0.11c0.08,0.48.38,1.07,0.67,0.75a0.17,0.17,0,0,1,.1-0.13l0.42-.48,0.16-.16h0a4.52,4.52,0,0,1,.3-0.35l0.11-.11a1,1,0,0,1,1.28.11h0a2.07,2.07,0,0,0,.46.45c0.24,0.22.14,0.16,0.17,0.21a1.92,1.92,0,0,0,.27.33c0.42,0.33.85-.33,0.89-0.8v-2.85a1.7,1.7,0,0,1,0-.75,0.87,0.87,0,0,1,1.07-.45,0.66,0.66,0,0,1,.33.53v2.56a2.74,2.74,0,0,1,0,1v0.3a0.73,0.73,0,0,0,0,.18v1.31a0.93,0.93,0,0,1,0,.35v1a1,1,0,0,1-.22.66,0.88,0.88,0,0,1-1.23-.19l-0.06-.1a3.08,3.08,0,0,1-.32-0.48l-0.08-.14a3.57,3.57,0,0,0-.54-0.48,1.94,1.94,0,0,0-1.34-.62,1.7,1.7,0,0,0-1.29.67,4.31,4.31,0,0,1-.46.46,3.52,3.52,0,0,0-.61.64h0a0.9,0.9,0,0,1-1.18.37Z"/><rect class="gs33-1" x="34.47" y="69.29" width="172.12" height="250.17" rx="15" ry="15"/><path class="gs33-2" d="M70.58,196.39c0,2,1.46,2.75,3.26,2.75,2,0,2.72-1,2.72-1.94a1.53,1.53,0,0,0-1.07-1.62c-0.9-.34-2.07-0.58-3.83-1.06-2.2-.59-2.84-1.93-2.84-3.26,0-2.57,2.38-3.78,4.7-3.78,2.68,0,4.93,1.42,4.93,4.11H76.19c-0.11-1.66-1.22-2.27-2.77-2.27-1,0-2.36.38-2.36,1.67a1.74,1.74,0,0,0,1.53,1.66c0.2,0.05,3,.79,3.71,1a3.4,3.4,0,0,1,2.5,3.28c0,2.88-2.56,4-5.11,4-2.93,0-5.31-1.4-5.37-4.59Z"/><path class="gs33-2" d="M81.63,196.58a2.48,2.48,0,0,0,2.19,2.74h0.31a2.16,2.16,0,0,0,2.24-1.58h2a4.08,4.08,0,0,1-4.21,3.17c-2.92,0-4.55-2-4.55-4.9,0-2.65,1.73-4.92,4.5-4.92,2.93,0,4.74,2.65,4.39,5.44Zm4.74-1.38a2.4,2.4,0,1,0-4.79,0h4.79Z"/><path class="gs33-2" d="M89.58,191.36h1.93v1.8h0a3,3,0,0,1,2.72-2.05,5,5,0,0,1,.77.05v2a7.31,7.31,0,0,0-.88-0.09c-1.41,0-2.52,1.13-2.52,3.19v4.43h-2v-9.33Z"/><path class="gs33-2" d="M94.55,191.36h2.23l2.36,7.15h0l2.27-7.15h2.13l-3.33,9.31h-2.3Z"/><path class="gs33-2" d="M104.37,187.82h2.05v1.94h-2.05v-1.94Zm0,3.55h2.05v9.31h-2.05v-9.31Z"/><path class="gs33-2" d="M114.53,194.48a2,2,0,0,0-2.12-1.75c-1.06,0-2.56.56-2.56,3.38,0,1.55.69,3.19,2.47,3.19a2.21,2.21,0,0,0,2.21-2.12h2.05a4,4,0,0,1-4.23,3.75h0c-2.92,0-4.52-2.07-4.52-4.81s1.53-5,4.59-5c2.16,0,4,1.08,4.2,3.37h-2.05Z"/><path class="gs33-2" d="M119.37,196.58a2.48,2.48,0,0,0,2.19,2.74h0.31a2.16,2.16,0,0,0,2.27-1.55h1.94a4.08,4.08,0,0,1-4.21,3.17c-2.92,0-4.55-2-4.55-4.9,0-2.65,1.73-4.92,4.5-4.92,2.93,0,4.74,2.65,4.39,5.44h-6.84Zm4.79-1.35a2.4,2.4,0,1,0-4.79,0h4.79Z"/><path class="gs33-2" d="M128.91,197.68A1.81,1.81,0,0,0,131,199.3c0.77,0,2.12-.16,2.07-1.22s-1.55-1.21-3-1.55-3-.86-3-2.75,2.2-2.66,3.89-2.66c1.91,0,3.64.79,3.89,2.86h-2.14a1.62,1.62,0,0,0-1.89-1.24c-0.59,0-1.69.14-1.69,1s1.51,1.15,3,1.5,3,0.88,3,2.72c0,2.21-2.23,3-4.16,3-2.34,0-4.09-1-4.12-3.24Z"/><path class="gs33-2" d="M67.12,207.82h9.25v1.94h-7v3.37h6.48V215H69.37v3.76H76.5v1.94H67.12V207.82Z"/><path class="gs33-2" d="M77.72,211.36h2v1.37h0a3.33,3.33,0,0,1,2.9-1.66,3,3,0,0,1,3.29,3.17v6.39h-2v-5.85c0-1.46-.61-2.09-1.82-2.09A2.27,2.27,0,0,0,79.77,215q0,0.08,0,.17v5.49H77.72v-9.27Z"/><path class="gs33-2" d="M96.37,220.67H94.43v-1.26h0a3.09,3.09,0,0,1-2.88,1.51c-2.93,0-4.36-2.18-4.36-5,0-3.37,2-4.84,4-4.84a3.59,3.59,0,0,1,3.1,1.46h0v-4.75h2.08v12.88Zm-4.59-1.37c1.84,0,2.61-1.67,2.61-3.29,0-2.05-1-3.28-2.57-3.28-1.93,0-2.61,1.71-2.61,3.38S90,219.3,91.78,219.3Z"/><path class="gs33-2" d="M98.21,211.36h1.94v1.22h0a3.11,3.11,0,0,1,2.88-1.51c2.93,0,4.36,2.23,4.36,5,0,2.5-1.26,4.86-4,4.86a3.62,3.62,0,0,1-3.12-1.46h0v4.65H98.22V211.36Zm4.59,1.37c-1.73,0-2.61,1.31-2.61,3.29s1,3.28,2.61,3.28c1.87,0,2.58-1.66,2.58-3.28S104.49,212.73,102.8,212.73Z"/><path class="gs33-2" d="M108.27,216c0-2.84,1.71-4.9,4.7-4.9s4.7,2.05,4.7,4.9-1.71,4.92-4.7,4.92S108.27,218.87,108.27,216Zm7.35,0c0-1.6-.81-3.28-2.65-3.28s-2.65,1.67-2.65,3.28,0.81,3.29,2.65,3.29,2.64-1.72,2.64-3.29h0Z"/><path class="gs33-2" d="M119,207.82H121v1.94H119v-1.94Zm0,3.55H121v9.31H119v-9.31Z"/><path class="gs33-2" d="M122.81,211.36h1.94v1.37h0a3.33,3.33,0,0,1,2.9-1.66,3,3,0,0,1,3.29,3.17v6.39h-2.05v-5.85c0-1.46-.61-2.09-1.82-2.09a2.27,2.27,0,0,0-2.26,2.28q0,0.08,0,.17v5.49h-2.05Z"/><path class="gs33-2" d="M131.76,211.36h1.55v-2.78h2.06v2.79h1.85v1.53h-1.85v5c0,0.85.07,1.28,1,1.28a3.49,3.49,0,0,0,.86-0.07v1.58c-0.45,0-.88.11-1.33,0.11-2.14,0-2.54-.83-2.57-2.38v-5.49h-1.55Z"/><path class="gs33-2" d="M72.93,244.11a14.94,14.94,0,0,1-2.59-8.3,15.34,15.34,0,0,1,2.59-8.3H74.6a16.65,16.65,0,0,0-2.21,8.3,15.9,15.9,0,0,0,2.21,8.3H72.93Z"/><path class="gs33-2" d="M75.37,227.82H81c3.67,0,4.38,2.38,4.38,4s-0.7,4-4.38,3.94H77.63v4.93H75.37V227.82Zm2.25,6.09h3.29a2,2,0,0,0,2.25-2.12A1.9,1.9,0,0,0,81,229.67H77.63v4.24Z"/><path class="gs33-2" d="M86.65,231.36h1.93v1.8h0a3,3,0,0,1,2.79-2.05,4.94,4.94,0,0,1,.77.05v2a7.27,7.27,0,0,0-.88-0.09c-1.4,0-2.52,1.13-2.52,3.19v4.43H86.65v-9.33Z"/><path class="gs33-2" d="M92.59,227.82h2.05v1.94H92.59v-1.94Zm0,3.55h2.05v9.31H92.59v-9.31Z"/><path class="gs33-2" d="M95.5,231.36h2.23l2.36,7.15h0l2.27-7.15h2.12l-3.33,9.31h-2.3Z"/><path class="gs33-2" d="M113.11,238.58c0,0.5.11,0.7,0.49,0.7a2.83,2.83,0,0,0,.5,0v1.42a5.13,5.13,0,0,1-1.3.23,1.37,1.37,0,0,1-1.58-1.13,4.78,4.78,0,0,1-3.22,1.13c-1.67,0-3.19-.9-3.19-2.72,0-2.32,1.85-2.7,3.58-2.9,1.48-.27,2.79-0.11,2.79-1.31s-1.1-1.26-1.93-1.26c-1.15,0-2,.47-2.05,1.48h-2.05c0.14-2.39,2.18-3.1,4.23-3.1,1.82,0,3.73.74,3.73,2.7v4.76ZM111.06,236a7.33,7.33,0,0,1-2.52.56c-0.88.14-1.67,0.47-1.67,1.55,0,0.92,1.17,1.19,1.89,1.19,0.9,0,2.3-.47,2.3-1.76V236Z"/><path class="gs33-2" d="M113.94,231.36h1.55v-2.78h2.05v2.79h1.83v1.53h-1.85v5c0,0.85.07,1.28,1,1.28a3.49,3.49,0,0,0,.86-0.07v1.58c-0.45,0-.88.11-1.33,0.11-2.14,0-2.54-.83-2.58-2.38v-5.49h-1.55Z"/><path class="gs33-2" d="M122,236.58a2.48,2.48,0,0,0,2.19,2.74h0.31a2.16,2.16,0,0,0,2.27-1.55h1.95a4.08,4.08,0,0,1-4.21,3.17c-2.92,0-4.56-2-4.56-4.9,0-2.65,1.73-4.92,4.5-4.92,2.93,0,4.74,2.65,4.39,5.44H122Zm4.79-1.35a2.4,2.4,0,1,0-4.79,0h4.79Z"/><path class="gs33-2" d="M130.42,227.51a15,15,0,0,1,2.59,8.32,15.24,15.24,0,0,1-2.59,8.28h-1.67a16.53,16.53,0,0,0,2.21-8.28,16,16,0,0,0-2.21-8.32h1.67Z"/><path class="gs33-2" d="M107.24,151.23H86.37a0.52,0.52,0,1,0,0,1H107.2a0.52,0.52,0,1,0,0-1h0Z"/><path class="gs33-2" d="M119.37,136.13h-8a5.17,5.17,0,0,0-.66-2.9c-1.2-2-3.84-3.1-7.85-3.12s-6.61,1-7.81,3a5.19,5.19,0,0,0-.67,3h-8a6,6,0,0,0-5.95,5.95v21.32a6,6,0,0,0,5.95,6h33a6,6,0,0,0,5.95-5.95V142.08A6,6,0,0,0,119.37,136.13Zm-22.18-1.76c0.71-1.19,2.66-1.81,5.66-1.79s5,0.68,5.72,1.89a2.82,2.82,0,0,1,.33,1.65h-12a2.89,2.89,0,0,1,.3-1.75h0Zm17,26.37a7.76,7.76,0,0,1-7.26-5h-6.88l-3.16-2.25L93.27,156l-2.82-1.61L87,155.51l-3.29-3.05,1.1-2.72h22.31a7.77,7.77,0,1,1,7,11h0.05Z"/><circle class="gs33-2" cx="117.18" cy="152.97" r="1.79"/><path class="gs33-3" d="M112.37,163.47a7.76,7.76,0,0,1-7.26-5H98.27l-3.16-2.25-3.62,2.52-2.82-1.61-3.43,1.11L82,155.19l1.1-2.72h22.32A7.77,7.77,0,1,1,112.37,163.47Z"/><rect class="gs33-6" x="193.7" y="37.56" width="271.21" height="256.21" rx="3.14" ry="3.14"/><g class="gs33-7"><path class="gs33-8" d="M434,110.58H420.91c-1.1,0-2-1.59-2-3.53h0c0-1.94.9-3.53,2-3.53h26.67c1.1,0,2-1.59,2-3.53h0c0-1.94-.9-3.53-2-3.53H422"/><path class="gs33-8" d="M434,124.71H420.91c-1.1,0-2-1.59-2-3.53h0c0-1.94.9-3.53,2-3.53h26.67c1.1,0,2-1.59,2-3.53h0c0-1.94-.9-3.53-2-3.53H433.86"/><path class="gs33-8" d="M434,138.85H420.91c-1.1,0-2-1.59-2-3.53h0c0-1.94.9-3.53,2-3.53h26.67c1.1,0,2-1.59,2-3.53h0c0-1.94-.9-3.53-2-3.53H433.86"/><path class="gs33-8" d="M434,153H420.91c-1.1,0-2-1.59-2-3.53h0c0-1.94.9-3.53,2-3.53h26.67c1.1,0,2-1.59,2-3.53h0c0-1.94-.9-3.53-2-3.53H433.86"/><path class="gs33-8" d="M434,167.14H420.91c-1.1,0-2-1.59-2-3.53h0c0-1.94.9-3.53,2-3.53h26.67c1.1,0,2-1.59,2-3.53h0c0-1.94-.9-3.53-2-3.53H433.86"/><path class="gs33-8" d="M434,181.29H420.91c-1.1,0-2-1.59-2-3.53h0c0-1.94.9-3.53,2-3.53h26.67c1.1,0,2-1.59,2-3.53h0c0-1.94-.9-3.53-2-3.53H433.86"/><path class="gs33-8" d="M434,195.28H420.91c-1.1,0-2-1.59-2-3.53h0c0-1.94.9-3.53,2-3.53h26.67c1.1,0,2-1.59,2-3.53h0c0-1.94-.9-3.53-2-3.53H433.86"/><path class="gs33-8" d="M434,209.42H420.91c-1.1,0-2-1.59-2-3.53h0c0-1.94.9-3.53,2-3.53h26.67c1.1,0,2-1.59,2-3.53h0c0-1.94-.9-3.53-2-3.53H433.86"/><path class="gs33-8" d="M434,223.58H420.91c-1.1,0-2-1.59-2-3.53h0c0-1.94.9-3.53,2-3.53h26.67c1.1,0,2-1.59,2-3.53h0c0-1.94-.9-3.53-2-3.53H433.86"/><path class="gs33-8" d="M434,237.71H420.91c-1.1,0-2-1.59-2-3.53h0c0-1.94.9-3.53,2-3.53h26.67c1.1,0,2-1.59,2-3.53h0c0-1.94-.9-3.53-2-3.53H433.86"/><path class="gs33-8" d="M434,82.25H420.91c-1.1,0-2-1.59-2-3.53h0c0-1.94.9-3.53,2-3.53h26.67c1.1,0,2-1.59,2-3.53h0c0-1.94-.9-3.53-2-3.53H433.86"/><path class="gs33-8" d="M434.07,68.11H421c-1.1,0-2-1.59-2-3.53h0c0-1.94.9-3.53,2-3.53h26.67c1.1,0,2-1.59,2-3.53h0c0-1.94-.9-3.53-2-3.53H433.94"/><path class="gs33-8" d="M434,96.4H420.91c-1.1,0-2-1.59-2-3.53h0c0-1.94.9-3.53,2-3.53h26.67c1.1,0,2-1.59,2-3.53h0c0-1.94-.9-3.53-2-3.53H433.86"/><path class="gs33-8" d="M434,251.78H420.91c-1.1,0-2-1.59-2-3.53h0c0-1.94.9-3.53,2-3.53h26.67c1.1,0,2-1.59,2-3.53h0c0-1.94-.9-3.53-2-3.53H433.86"/><path class="gs33-8" d="M420.91,258.86h26.67c1.1,0,2-1.59,2-3.53h0c0-1.94-.9-3.53-2-3.53H433.86"/></g><rect class="gs33-5" x="414.99" y="253.93" width="38.91" height="14.5"/><g class="gs33-9"><path class="gs33-10" d="M418.46,260.35h3.75c1.72,0,2.6.79,2.6,2.12a1.91,1.91,0,0,1-1.3,2h0a1.44,1.44,0,0,1,1.17,1.66,3.57,3.57,0,0,0,.43,2.07h-1.47a2.2,2.2,0,0,1-.21-1.16c0-1.44-.3-2.08-1.56-2.08h-2v3.23H418.5Zm1.38,3.58h2.26a1.16,1.16,0,0,0,1.34-1.26,1.13,1.13,0,0,0-1.36-1.2h-2.23v2.46Z"/><path class="gs33-10" d="M425.76,265.35a2.87,2.87,0,1,1,2.87,3A2.75,2.75,0,0,1,425.76,265.35Zm4.49,0a1.66,1.66,0,1,0-1.62,2A1.75,1.75,0,0,0,430.25,265.35Z"/><path class="gs33-10" d="M437.55,268.2h-1.23v-0.79h0a1.91,1.91,0,0,1-1.62,1c-1.49,0-2.12-.75-2.12-2.23v-3.61h1.25V266c0,1,.41,1.37,1.09,1.37a1.34,1.34,0,0,0,1.4-1.55v-3.3h1.25Z"/><path class="gs33-10" d="M438.29,262.51h1V260.8h1.25v1.71h1.13v0.93h-1.13v3c0,0.52,0,.78.61,0.78a2.11,2.11,0,0,0,.53,0v1c-0.28,0-.54.07-0.81,0.07-1.31,0-1.55-.51-1.57-1.45v-3.36h-1v-1Z"/><path class="gs33-10" d="M443.51,265.68a1.51,1.51,0,0,0,1.33,1.67H445a1.32,1.32,0,0,0,1.39-1h1.19a2.49,2.49,0,0,1-2.58,1.94,2.7,2.7,0,0,1-2.78-3,2.75,2.75,0,1,1,5.44.32h-4.19Zm2.93-.83a1.46,1.46,0,0,0-2.93,0h2.93Z"/><path class="gs33-10" d="M448.64,262.51h1.18v1.07h0a1.83,1.83,0,0,1,1.66-1.25,2.87,2.87,0,0,1,.47,0v1.25a4.55,4.55,0,0,0-.54,0c-0.86,0-1.54.69-1.54,2v2.71h-1.25Z"/></g><rect class="gs33-11" x="193.78" y="335.3" width="81.49" height="32.75" rx="3.14" ry="3.14"/><rect class="gs33-11" x="375.83" y="335.3" width="81.49" height="32.75" rx="3.14" ry="3.14"/><path class="gs33-12" d="M210.26,341.78h2.61c2.35,0,3.66,1.17,3.66,3.63s-1.12,4-3.66,4h-2.61v-7.63Zm1,6.76H213c0.69,0,2.56-.19,2.56-3,0-1.81-.67-2.91-2.54-2.91h-1.7v5.91Z"/><path class="gs33-12" d="M218.3,342.89h-0.93v-1.11h0.91Zm-0.91,1h0.91v5.51h-0.93Z"/><path class="gs33-12" d="M220,347.65a1.22,1.22,0,0,0,1.48,1.07c0.57,0,1.33-.13,1.33-0.82s-0.9-.82-1.8-1-1.8-.5-1.8-1.56a1.84,1.84,0,0,1,2.06-1.57c1.22,0,2.19.38,2.26,1.73h-0.91a1.11,1.11,0,0,0-1.28-.93c-0.6,0-1.17.15-1.17,0.7s1,0.76,1.8,1,1.8,0.5,1.8,1.57c0,1.31-1.23,1.74-2.35,1.74s-2.28-.5-2.33-1.87Z"/><path class="gs33-12" d="M225.77,343.88h1.1v0.8h-1.1v3.42c0,0.42.12,0.49,0.68,0.49h0.42v0.8h-0.69c-0.94,0-1.31-.19-1.31-1.21v-3.5h-0.94v-0.8h0.94v-1.65h0.91v1.65Z"/><path class="gs33-12" d="M227.57,343.88h0.8V345h0a2,2,0,0,1,2-1.29v1c-1.46,0-2,.83-2,2.23v2.45h-0.91Z"/><path class="gs33-12" d="M231.84,342.89h-0.91v-1.11h0.91v1.11Zm-0.91,1h0.91v5.51h-0.91v-5.51Z"/><path class="gs33-12" d="M233,341.78h0.91v2.8h0a1.86,1.86,0,0,1,1.76-.87c1.7,0,2.54,1.34,2.54,2.9s-0.83,2.87-2.52,2.87a2.11,2.11,0,0,1-1.78-.86h0v0.74H233v-7.58Zm2.56,2.8c-1.22,0-1.69,1-1.69,2.08s0.49,2.09,1.74,2.09,1.65-1.06,1.65-2.13A1.77,1.77,0,0,0,235.57,344.58Z"/><path class="gs33-12" d="M243.6,349.39h-0.85v-0.87h0a1.92,1.92,0,0,1-1.79,1,1.71,1.71,0,0,1-1.9-2v-3.64H240v3.7a1,1,0,0,0,1.12,1.11,1.55,1.55,0,0,0,1.63-1.73v-3.08h0.91Z"/><path class="gs33-12" d="M246,343.88h1.1v0.8H246v3.42c0,0.42.12,0.49,0.68,0.49h0.42v0.8h-0.69c-0.94,0-1.31-.19-1.31-1.21v-3.5h-0.94v-0.8h0.94v-1.65H246v1.65Z"/><path class="gs33-12" d="M252.49,347.64a2.22,2.22,0,0,1-2.36,1.88c-1.76,0-2.59-1.22-2.65-2.9a2.65,2.65,0,0,1,2.42-2.86h0.17c2,0,2.55,1.82,2.5,3.16h-4.13a1.62,1.62,0,0,0,1.41,1.8h0.31a1.33,1.33,0,0,0,1.43-1.08h0.9Zm-0.88-1.54a1.58,1.58,0,0,0-3.17,0h3.17Z"/><path class="gs33-12" d="M258.17,349.39h-0.91v-0.75h0a1.86,1.86,0,0,1-1.76.88c-1.7,0-2.54-1.34-2.54-2.9s0.83-2.87,2.52-2.87a2.11,2.11,0,0,1,1.78.86h0v-2.83h0.91v7.61Zm-2.56-.67c1.22,0,1.68-1,1.68-2.08s-0.49-2.09-1.74-2.09-1.65,1.06-1.65,2.13a1.79,1.79,0,0,0,1.71,2h0Z"/><path class="gs33-12" d="M210.81,352.79h2.61c2.35,0,3.66,1.17,3.66,3.63s-1.12,4-3.66,4h-2.61v-7.63Zm1,6.76h1.69c0.69,0,2.56-.19,2.56-3,0-1.81-.67-2.91-2.54-2.91h-1.71v5.91Z"/><path class="gs33-12" d="M222.79,360.38a1.22,1.22,0,0,1-.65.15,0.73,0.73,0,0,1-.77-0.85,2.45,2.45,0,0,1-1.94.85,1.56,1.56,0,0,1-1.82-1.55c0-1.1.93-1.51,1.87-1.7s1.86-.13,1.86-0.81a1,1,0,0,0-1.23-.92,1.13,1.13,0,0,0-1.38,1h-0.91c0.05-1.37,1.11-1.85,2.34-1.85,1,0,2.07.22,2.07,1.51V359c0,0.43,0,.62.29,0.62a0.77,0.77,0,0,0,.28,0v0.76Zm-1.47-2.8a4.66,4.66,0,0,1-1.64.37,1.06,1.06,0,0,0-1.11,1,0.85,0.85,0,0,0,1.07.81,1.48,1.48,0,0,0,1.69-1.25v-0.93Z"/><path class="gs33-12" d="M224.62,354.89h1.1v0.8h-1.1v3.42c0,0.42.12,0.49,0.68,0.49h0.42v0.8H225c-0.94,0-1.31-.19-1.31-1.21v-3.51h-0.94v-0.8h0.94v-1.65h0.91v1.66Z"/><path class="gs33-12" d="M231.37,360.38a1.22,1.22,0,0,1-.65.15,0.73,0.73,0,0,1-.77-0.85,2.45,2.45,0,0,1-1.94.85,1.56,1.56,0,0,1-1.82-1.55c0-1.1.93-1.51,1.87-1.7s1.86-.13,1.86-0.81a1,1,0,0,0-1.23-.92,1.13,1.13,0,0,0-1.38,1h-0.94c0.05-1.37,1.11-1.85,2.34-1.85,1,0,2.07.22,2.07,1.51V359c0,0.43,0,.62.29,0.62a0.77,0.77,0,0,0,.28,0Zm-1.5-2.8a4.66,4.66,0,0,1-1.64.37,1.06,1.06,0,0,0-1.11,1,0.85,0.85,0,0,0,1.07.81,1.48,1.48,0,0,0,1.69-1.25v-0.93Z"/><path class="gs33-12" d="M239.16,355a1.66,1.66,0,0,0-1.74-1.57h-0.15c-0.85,0-1.71.31-1.71,1.3s1.22,1.08,2.44,1.35,2.43,0.7,2.43,2.2-1.59,2.27-3,2.27c-1.71,0-3.15-.83-3.15-2.69h1c0,1.28,1.07,1.83,2.22,1.83,0.92,0,1.93-.29,1.93-1.39s-1.22-1.23-2.43-1.49-2.44-.62-2.44-2,1.38-2.23,2.76-2.23c1.56,0,2.74.74,2.81,2.41h-1Z"/><path class="gs33-12" d="M242.51,354.89h1.1v0.8h-1.1v3.42c0,0.42.12,0.49,0.68,0.49h0.42v0.8h-0.69c-0.94,0-1.31-.19-1.31-1.21v-3.51h-0.94v-0.8h0.94v-1.65h0.91v1.66Z"/><path class="gs33-12" d="M246.72,354.76a2.89,2.89,0,1,1-2.67,3.09q0-.1,0-0.2a2.62,2.62,0,0,1,2.33-2.88h0.35Zm0,5a2.12,2.12,0,1,0-1.72-2.08,1.79,1.79,0,0,0,1.72,2v0Z"/><path class="gs33-12" d="M250.16,354.89H251V356h0a2,2,0,0,1,2-1.29v1c-1.46,0-2,.83-2,2.23v2.45H250.1Z"/><path class="gs33-12" d="M258,358.66a2.22,2.22,0,0,1-2.36,1.88c-1.76,0-2.59-1.22-2.65-2.9a2.65,2.65,0,0,1,2.42-2.86h0.17c2,0,2.55,1.82,2.5,3.16h-4.13a1.62,1.62,0,0,0,1.41,1.8h0.31a1.33,1.33,0,0,0,1.43-1.08H258Zm-0.87-1.54a1.59,1.59,0,1,0-3.17,0h3.17Z"/><path class="gs33-12" d="M400.55,347.16h3.34a2.25,2.25,0,0,1,0,4.5h-2.33v3.11h-1v-7.61Zm1,3.65h2c1.14,0,1.66-.49,1.66-1.4s-0.52-1.4-1.66-1.4h-2v2.8Z"/><path class="gs33-12" d="M407.1,347.16H408v7.62H407.1v-7.62Z"/><path class="gs33-12" d="M413.71,354.78h-0.85v-0.87h0a1.92,1.92,0,0,1-1.79,1,1.71,1.71,0,0,1-1.9-2v-3.63h0.91V353a1,1,0,0,0,1.12,1.11,1.55,1.55,0,0,0,1.63-1.73v-3.12h0.91Z"/><path class="gs33-12" d="M419.56,354.31c0,1.79-.82,2.71-2.56,2.71-1,0-2.23-.42-2.28-1.62h0.91c0,0.66.83,0.9,1.43,0.9,1.18,0,1.65-.85,1.65-2.09v-0.36h0a1.84,1.84,0,0,1-1.72,1,2.5,2.5,0,0,1-2.46-2.79c0-1.3.64-2.91,2.55-2.91a1.8,1.8,0,0,1,1.64.92h0v-0.79h0.85v5Zm-0.9-2.4c0-1-.43-2-1.57-2a1.75,1.75,0,0,0-1.63,2c0,1,.36,2.1,1.56,2.1s1.64-1.07,1.64-2.1h0Z"/><path class="gs33-12" d="M421.62,348.27h-0.91v-1.11h0.91v1.11Zm-0.91,1h0.91v5.51h-0.91v-5.51Z"/><path class="gs33-12" d="M422.76,349.26h0.85v0.88h0a1.92,1.92,0,0,1,1.79-1,1.71,1.71,0,0,1,1.9,2v3.63h-0.93V351a1,1,0,0,0-1.12-1.11,1.55,1.55,0,0,0-1.63,1.73v3.11h-0.91Z"/><path class="gs33-12" d="M429,353a1.22,1.22,0,0,0,1.48,1.07c0.57,0,1.33-.13,1.33-0.82s-0.9-.82-1.8-1-1.8-.5-1.8-1.56a1.84,1.84,0,0,1,2.06-1.57c1.22,0,2.19.38,2.26,1.73h-0.91a1.11,1.11,0,0,0-1.28-.93c-0.6,0-1.17.15-1.17,0.7s1,0.76,1.8,1,1.8,0.5,1.8,1.57c0,1.31-1.23,1.74-2.35,1.74s-2.28-.5-2.33-1.87Z"/><rect class="gs33-11" x="193.17" y="302.04" width="264.87" height="25.49" rx="3.14" ry="3.14"/><path class="gs33-12" d="M255.54,312.91a2.63,2.63,0,0,0-2.8-2.13c-2.38,0-3.39,2-3.39,4,0,2.28,1,4.19,3.4,4.19a2.83,2.83,0,0,0,2.89-2.77s0-.07,0-0.11H257a4.07,4.07,0,0,1-4.13,4h-0.2c-3.11,0-4.62-2.3-4.62-5.21s1.65-5.27,4.73-5.27a3.83,3.83,0,0,1,4.12,3.25Z"/><path class="gs33-12" d="M264.46,317.58a2.92,2.92,0,0,1-3.1,2.46c-2.31,0-3.4-1.6-3.47-3.81a3.49,3.49,0,0,1,3.2-3.76h0.2c2.56,0,3.35,2.39,3.28,4.15h-5.42a2.13,2.13,0,0,0,2.26,2.38,1.75,1.75,0,0,0,1.88-1.41h1.17Zm-1.15-2a2.08,2.08,0,1,0-4.16,0h4.16Z"/><path class="gs33-12" d="M265.66,312.66h1.12v1.15h0a2.52,2.52,0,0,1,2.35-1.32c1.91,0,2.49,1.09,2.49,2.65v4.76h-1.15V315a1.36,1.36,0,0,0-1.25-1.46H269a2,2,0,0,0-2.14,2.27v4.09h-1.19v-7.24Z"/><path class="gs33-12" d="M275,312.66h1.41v1h-1.44v4.5c0,0.55.15,0.64,0.9,0.64h0.54v1h-0.91c-1.23,0-1.72-.25-1.72-1.58v-4.61h-1.23v-1h1.23v-2.17h1.19Z"/><path class="gs33-12" d="M277.54,312.66h1.12v1.53h0a2.63,2.63,0,0,1,2.66-1.7v1.26c-1.92,0-2.62,1.09-2.62,2.93v3.22h-1.19Z"/><path class="gs33-12" d="M288.51,319.87a1.6,1.6,0,0,1-.85.2,1,1,0,0,1-1-1.12,3.21,3.21,0,0,1-2.55,1.12c-1.32,0-2.4-.59-2.4-2,0-1.64,1.22-2,2.45-2.23s2.44-.17,2.44-1.06a1.38,1.38,0,0,0-1.61-1.21c-1,0-1.75.31-1.81,1.37H282c0.07-1.79,1.46-2.42,3.07-2.42,1.3,0,2.72.29,2.72,2v3.73c0,0.56,0,.81.38,0.81a1,1,0,0,0,.36-0.07v0.88Zm-1.93-3.71a6.15,6.15,0,0,1-2.16.49c-0.78.14-1.46,0.42-1.46,1.3s0.67,1.06,1.4,1.06c1.57,0,2.21-1,2.21-1.64v-1.21Z"/><path class="gs33-12" d="M289.55,309.9h1.19v10h-1.19v-10Z"/><path class="gs33-12" d="M293.7,311.36h-1.19V309.9h1.19v1.46Zm-1.19,1.3h1.19v7.24h-1.19v-7.24Z"/><path class="gs33-12" d="M294.82,319l4.37-5.28H295.1v-1h5.63v0.81l-4.43,5.38h4.62v1h-6.11V319Z"/><path class="gs33-12" d="M308.17,317.58a2.92,2.92,0,0,1-3.1,2.46c-2.31,0-3.4-1.6-3.47-3.81a3.49,3.49,0,0,1,3.2-3.76H305c2.56,0,3.35,2.39,3.28,4.15h-5.42a2.13,2.13,0,0,0,2.26,2.38,1.75,1.75,0,0,0,1.88-1.41h1.17Zm-1.15-2a2.08,2.08,0,1,0-4.16,0H307Z"/><path class="gs33-12" d="M315.84,319.9h-1.19v-1h0a2.44,2.44,0,0,1-2.31,1.15c-2.23,0-3.33-1.77-3.33-3.81s1.09-3.77,3.31-3.77a2.77,2.77,0,0,1,2.34,1.13h0v-3.73h1.19v10Zm-3.36-.88c1.6,0,2.21-1.37,2.21-2.73s-0.64-2.71-2.32-2.71-2.17,1.39-2.17,2.8,0.74,2.64,2.28,2.64h0Z"/><path class="gs33-12" d="M328.51,312.91a2.63,2.63,0,0,0-2.8-2.13c-2.38,0-3.39,2-3.39,4,0,2.28,1,4.19,3.4,4.19a2.83,2.83,0,0,0,2.89-2.77s0-.07,0-0.11h1.33a4.07,4.07,0,0,1-4.13,4h-0.2c-3.11,0-4.62-2.3-4.62-5.21s1.65-5.27,4.73-5.27a3.83,3.83,0,0,1,4.12,3.25Z"/><path class="gs33-12" d="M334.37,312.49c2.3,0,3.52,1.67,3.52,3.79s-1.22,3.78-3.52,3.78-3.52-1.67-3.52-3.78S332.08,312.49,334.37,312.49Zm0,6.53c1.25,0,2.25-1,2.25-2.73s-1-2.74-2.25-2.74-2.26,1-2.26,2.74S333.13,319,334.37,319Z"/><path class="gs33-12" d="M339.15,312.66h1.12v1.15h0a2.52,2.52,0,0,1,2.35-1.32c1.91,0,2.49,1.09,2.49,2.65v4.76h-1.19V315a1.36,1.36,0,0,0-1.25-1.46h-0.22a2,2,0,0,0-2.14,2.27v4.09h-1.19Z"/><path class="gs33-12" d="M347.28,313.71h-1.22v-1h1.22v-1.08c0-1.18.7-1.79,2-1.79a2.91,2.91,0,0,1,.77.11v1a2.22,2.22,0,0,0-.67-0.1,0.74,0.74,0,0,0-.91.81v1h1.4v1h-1.4v6.19h-1.19v-6.14Z"/><path class="gs33-12" d="M352.05,311.36h-1.19V309.9h1.19v1.46Zm-1.19,1.3h1.19v7.24h-1.19v-7.24Z"/><path class="gs33-12" d="M360,319.29c0,2.35-1.08,3.56-3.36,3.56-1.36,0-2.93-.55-3-2.13h1.19c0.06,0.87,1.09,1.18,1.88,1.18,1.55,0,2.17-1.12,2.17-2.75v-0.47h0a2.42,2.42,0,0,1-2.25,1.32c-2.16,0-3.24-1.7-3.24-3.67,0-1.71.84-3.82,3.35-3.82a2.36,2.36,0,0,1,2.16,1.21h0v-1H360Zm-1.18-3.15c0-1.28-.56-2.59-2.06-2.59s-2.14,1.25-2.14,2.63,0.48,2.76,2,2.76,2.2-1.45,2.2-2.8h0Z"/><path class="gs33-12" d="M367.65,319.9h-1.12v-1.15h0a2.52,2.52,0,0,1-2.35,1.32c-1.91,0-2.49-1.09-2.49-2.65v-4.76h1.19v4.92a1.36,1.36,0,0,0,1.25,1.46h0.22a2,2,0,0,0,2.14-2.27v-4.09h1.19Z"/><path class="gs33-12" d="M369.26,312.66h1.11v1.53h0a2.63,2.63,0,0,1,2.66-1.7v1.26c-1.92,0-2.62,1.09-2.62,2.93v3.22h-1.19Z"/><path class="gs33-12" d="M380.24,319.87a1.6,1.6,0,0,1-.85.2,1,1,0,0,1-1-1.12,3.21,3.21,0,0,1-2.55,1.12c-1.32,0-2.4-.59-2.4-2,0-1.64,1.22-2,2.45-2.23s2.44-.17,2.44-1.06a1.38,1.38,0,0,0-1.61-1.21c-1,0-1.75.31-1.81,1.37h-1.19c0.07-1.79,1.46-2.42,3.07-2.42,1.3,0,2.72.29,2.72,2v3.73c0,0.56,0,.81.38,0.81a1,1,0,0,0,.36-0.07v0.88Zm-1.93-3.71a6.15,6.15,0,0,1-2.16.49c-0.78.14-1.46,0.42-1.46,1.3s0.67,1.06,1.4,1.06c1.57,0,2.21-1,2.21-1.64v-1.21Z"/><path class="gs33-12" d="M382.85,312.66h1.44v1h-1.44v4.5c0,0.55.15,0.64,0.9,0.64h0.55v1h-0.93c-1.23,0-1.72-.25-1.72-1.58v-4.61h-1.23v-1h1.23v-2.17h1.19v2.17Z"/><path class="gs33-12" d="M386.73,311.36h-1.19V309.9h1.19v1.46Zm-1.19,1.3h1.19v7.24h-1.19v-7.24Z"/><path class="gs33-12" d="M391.56,312.49c2.3,0,3.52,1.67,3.52,3.79s-1.22,3.78-3.52,3.78-3.52-1.67-3.52-3.78S389.26,312.49,391.56,312.49Zm0,6.53c1.25,0,2.25-1,2.25-2.73s-1-2.74-2.25-2.74-2.26,1-2.26,2.74S390.32,319,391.56,319Z"/><path class="gs33-12" d="M396.37,312.66h1.12v1.15h0a2.52,2.52,0,0,1,2.35-1.32c1.91,0,2.49,1.09,2.49,2.65v4.76h-1.19V315a1.36,1.36,0,0,0-1.29-1.42h-0.18a2,2,0,0,0-2.14,2.27v4.09h-1.16v-7.28Z"/><path class="gs33-10" d="M206,274.74h6.91v1.12h-5.58V279h5.2v1.12h-5.2v3.42h5.62v1.12H206v-10Z"/><path class="gs33-10" d="M215.91,280.93l-2.54-3.43h1.53l1.74,2.54,1.81-2.54h1.43l-2.51,3.33,2.8,3.91h-1.5l-2-3-2,3h-1.44Z"/><path class="gs33-10" d="M220.91,277.5h1.19v1h0a2.44,2.44,0,0,1,2.31-1.15c2.23,0,3.33,1.76,3.33,3.81s-1.09,3.77-3.31,3.77a2.77,2.77,0,0,1-2.34-1.13h0v3.74H220.9v-10Zm3.36,0.88c-1.6,0-2.21,1.37-2.21,2.73s0.64,2.75,2.28,2.75,2.17-1.39,2.17-2.8-0.7-2.68-2.24-2.68h0Z"/><path class="gs33-10" d="M228.78,277.5h1.12V279h0a2.63,2.63,0,0,1,2.66-1.7v1.25c-1.92,0-2.62,1.09-2.62,2.93v3.22h-1.19Z"/><path class="gs33-10" d="M239.06,282.44a2.92,2.92,0,0,1-3.1,2.46c-2.31,0-3.4-1.6-3.47-3.81a3.49,3.49,0,0,1,3.2-3.76h0.2c2.56,0,3.35,2.4,3.28,4.15h-5.42a2.13,2.13,0,0,0,2.25,2.38,1.74,1.74,0,0,0,1.88-1.41h1.18Zm-1.15-2a2.08,2.08,0,1,0-4.16,0h4.16Z"/><path class="gs33-10" d="M240.78,282.45c0,1.06,1,1.4,1.95,1.4,0.74,0,1.75-.17,1.75-1.08s-1.18-1.08-2.37-1.34-2.37-.66-2.37-2,1.44-2.06,2.7-2.06c1.6,0,2.87.5,3,2.27h-1.19a1.46,1.46,0,0,0-1.68-1.22c-0.78,0-1.54.2-1.54,0.92s1.26,1,2.37,1.26,2.37,0.66,2.37,2.06c0,1.72-1.61,2.28-3.08,2.28s-3-.66-3.07-2.45Z"/><path class="gs33-10" d="M247.43,282.45c0,1.06,1,1.4,1.95,1.4,0.74,0,1.75-.17,1.75-1.08s-1.18-1.08-2.37-1.34-2.37-.66-2.37-2,1.44-2.06,2.7-2.06c1.6,0,2.87.5,3,2.27h-1.22a1.46,1.46,0,0,0-1.68-1.22c-0.78,0-1.54.2-1.54,0.92s1.26,1,2.37,1.26,2.37,0.66,2.37,2.06c0,1.72-1.61,2.28-3.08,2.28s-3-.66-3.07-2.45Z"/><path class="gs33-10" d="M257.09,274.74h4.71c1.88,0,3,1,3,2.62a2.4,2.4,0,0,1-1.74,2.54h0c1.16,0.22,1.4,1.08,1.5,2.06a5.13,5.13,0,0,0,.59,2.76h-1.48c-0.38-.41-0.17-1.48-0.36-2.47s-0.38-1.81-1.67-1.81h-3.27v4.27H257Zm4.1,4.61c1.25,0,2.31-.32,2.31-1.78a1.58,1.58,0,0,0-1.78-1.71h-3.35v3.49h2.82Z"/><path class="gs33-10" d="M272.12,284.74H271v-1.16h0a2.52,2.52,0,0,1-2.35,1.32c-1.9,0-2.49-1.09-2.49-2.65v-4.76h1.19v4.9a1.36,1.36,0,0,0,1.25,1.46h0.22a2,2,0,0,0,2.14-2.27v-4.09h1.19Z"/><path class="gs33-10" d="M273.56,277.5h1.12v1.15h0a2.52,2.52,0,0,1,2.35-1.32c1.9,0,2.49,1.09,2.49,2.65v4.76h-1.15v-4.9a1.36,1.36,0,0,0-1.25-1.46H276.9a2,2,0,0,0-2.14,2.27v4.09h-1.19V277.5Z"/><path class="gs33-10" d="M282.65,277.5h1.44v1.08h-1.44v4.5c0,0.55.15,0.64,0.9,0.64h0.55v1h-0.91c-1.23,0-1.72-.25-1.72-1.58v-4.61h-1.23v-1h1.23v-2.17h1.19v2.14Z"/><path class="gs33-10" d="M286.32,276.19h-1.19v-1.46h1.19v1.46Zm-1.19,1.3h1.19v7.24h-1.19v-7.24Z"/><path class="gs33-10" d="M287.82,277.5h1.12v1.08h0a2.67,2.67,0,0,1,2.34-1.23,1.92,1.92,0,0,1,2,1.23,2.68,2.68,0,0,1,2.27-1.23c1.44,0,2.41.6,2.41,2.1v5.31h-1.19V280c0-.9-0.24-1.61-1.4-1.61a1.75,1.75,0,0,0-1.89,1.85v4.51h-1.19V280c0-.94-0.29-1.61-1.36-1.61a2,2,0,0,0-1.93,1.85v4.51h-1.19V277.5Z"/><path class="gs33-10" d="M305.58,282.44a2.92,2.92,0,0,1-3.1,2.46c-2.31,0-3.4-1.6-3.47-3.81a3.49,3.49,0,0,1,3.2-3.76h0.2c2.56,0,3.35,2.4,3.28,4.15h-5.42a2.13,2.13,0,0,0,2.25,2.38,1.74,1.74,0,0,0,1.88-1.41h1.18Zm-1.15-2a2.08,2.08,0,1,0-4.16,0h4.16Z"/><rect class="gs33-5" x="203.99" y="267.51" width="11.87" height="2.09"/><path class="gs33-10" d="M212.67,73.5h0.83v0.83h-0.83V73.5Z"/><path class="gs33-10" d="M214.56,73.5h0.81v0.83h-0.83Z"/><path class="gs33-10" d="M216.44,73.5h0.83v0.83h-0.83V73.5Z"/><line class="gs33-13" x1="211.24" y1="60.66" x2="218.4" y2="60.66"/><line class="gs33-13" x1="211.89" y1="261.67" x2="218.8" y2="261.67"/><path class="gs33-14" d="M175.82,0.07V424.7H482.76V0.07H175.82Zm197,401.51h-94.5v-71.5h94.5v71.5Z"/><path class="gs33-13" d="M398.48,261.66h-0.27c0.25,0.68.5,0.08,0.76,0.08,3,0,5.4-45.71,5.4-103.26S402,54.26,399,54.26a0.67,0.67,0,0,0-.49.43"/><path class="gs33-13" d="M398.48,54.69V53.22H211v0.13c-2.51,8.91-4.42,54-4.42,105.13S208.49,256,211,261a1.65,1.65,0,0,0,1.74.69H398.21c-2.62-7.14-4.64-50.61-4.64-103.18C393.57,104.11,395.73,59.48,398.48,54.69Z"/><rect class="gs33-15" x="240.88" y="62.98" width="66.55" height="181.17" rx="2.9" ry="2.9"/><path class="gs33-10" d="M260.84,82.51h3.44a2.32,2.32,0,0,1,0,4.64h-2.4v3.21h-1Zm1,3.76h2c1.18,0,1.72-.51,1.72-1.44s-0.54-1.44-1.72-1.44h-2v2.88Z"/><path class="gs33-10" d="M270,84.58a3,3,0,1,1-2.75,3.23q0-.11,0-0.23a2.7,2.7,0,0,1,2.38-3Zm0,5.13a1.86,1.86,0,0,0,1.77-2.15,1.81,1.81,0,1,0-3.54,0A1.83,1.83,0,0,0,270,89.67v0Z"/><path class="gs33-10" d="M273.63,82.51h0.94v7.86h-0.94V82.51Z"/><path class="gs33-10" d="M276.73,83.65h-0.94V82.51h0.94v1.14Zm-0.94,1h0.94v5.69h-0.94V84.65Z"/><path class="gs33-10" d="M281.77,86.5a1.32,1.32,0,0,0-1.4-1.13c-1.35,0-1.77,1.07-1.77,2.22s0.47,2.08,1.66,2.08a1.47,1.47,0,0,0,1.56-1.38h1a2.36,2.36,0,0,1-2.5,2.21h0a2.59,2.59,0,0,1-2.66-2.9c0-1.71.88-3,2.68-3a2.18,2.18,0,0,1,2.44,1.89v0.11Z"/><path class="gs33-10" d="M285.77,91.12c-0.43,1.11-.81,1.52-1.65,1.52a1.88,1.88,0,0,1-.65-0.1V91.68a1.93,1.93,0,0,0,.55.13,0.81,0.81,0,0,0,.77-0.52l0.39-1-2.26-5.65H284l1.66,4.65h0l1.6-4.65h1Z"/><rect class="gs33-5" x="250.44" y="111.93" width="47.44" height="106.13" rx="2.9" ry="2.9"/><path class="gs33-12" d="M258.57,157.74h4.09c2.65,0,3.16,1.72,3.16,2.87s-0.51,2.86-3.16,2.85h-2.47V167h-1.62v-9.28Zm1.63,4.39h2.38a1.48,1.48,0,0,0,1.63-1.53,1.38,1.38,0,0,0-1.6-1.53H260.2v3.06Z"/><path class="gs33-12" d="M266.71,160.3h1.39v1.28h0a2.17,2.17,0,0,1,2-1.48,3.56,3.56,0,0,1,.56,0v1.48a5.41,5.41,0,0,0-.64-0.06c-1,0-1.82.82-1.82,2.3V167h-1.48V160.3Z"/><path class="gs33-12" d="M270.37,163.65a3.4,3.4,0,1,1,3.39,3.55A3.25,3.25,0,0,1,270.37,163.65Zm5.3,0c0-1.16-.58-2.37-1.91-2.37s-1.91,1.21-1.91,2.37,0.58,2.38,1.91,2.38a2.12,2.12,0,0,0,2-2.38h-0.05Z"/><path class="gs33-12" d="M279.92,163.49l-2.33-3.19h1.78l1.4,2.07,1.47-2.07H284l-2.29,3.11,2.57,3.61h-1.78l-1.7-2.48L279.11,167h-1.74Z"/><path class="gs33-12" d="M284,160.3h1.63l1.75,5h0l1.7-5h1.55l-2.61,7.09c-0.48,1.21-.83,2.3-2.38,2.3a6.74,6.74,0,0,1-1-.08v-1.25a4.32,4.32,0,0,0,.7.09,0.94,0.94,0,0,0,1-.94l0.17-.52Z"/><rect class="gs33-15" x="314.21" y="62.98" width="66.55" height="181.17" rx="2.9" ry="2.9"/><path class="gs33-10" d="M334.17,82.51h3.44a2.32,2.32,0,0,1,0,4.64h-2.4v3.21h-1Zm1,3.76h2c1.18,0,1.72-.51,1.72-1.44s-0.54-1.44-1.72-1.44h-2v2.88Z"/><path class="gs33-10" d="M343.37,84.58a3,3,0,1,1-2.75,3.23q0-.11,0-0.23a2.7,2.7,0,0,1,2.38-3Zm0,5.13a1.86,1.86,0,0,0,1.77-2.15,1.81,1.81,0,1,0-3.54,0,1.82,1.82,0,0,0,1.77,2.11v0Z"/><path class="gs33-10" d="M347,82.51h0.94v7.86H347V82.51Z"/><path class="gs33-10" d="M350.07,83.65h-0.94V82.51h0.94v1.14Zm-0.94,1h0.94v5.69h-0.94V84.65Z"/><path class="gs33-10" d="M355.1,86.5a1.32,1.32,0,0,0-1.41-1.13c-1.35,0-1.77,1.07-1.77,2.22s0.47,2.08,1.66,2.08a1.47,1.47,0,0,0,1.56-1.38h1a2.36,2.36,0,0,1-2.5,2.21h0a2.59,2.59,0,0,1-2.66-2.9c0-1.71.88-3,2.68-3a2.18,2.18,0,0,1,2.45,1.88s0,0.08,0,.12Z"/><path class="gs33-10" d="M359.11,91.12c-0.43,1.11-.81,1.52-1.65,1.52a1.89,1.89,0,0,1-.65-0.1V91.68a1.94,1.94,0,0,0,.55.13,0.81,0.81,0,0,0,.77-0.52l0.39-1-2.26-5.65h1.06L359,89.29h0l1.6-4.65h1Z"/><rect class="gs33-5" x="323.77" y="111.94" width="47.44" height="106.13" rx="2.9" ry="2.9"/><path class="gs33-12" d="M337.37,152.86H339v4.22l4.13-4.22h2l-3.71,3.72,4,5.58h-2l-3-4.43L339.09,159v3.12h-1.72v-9.3Z"/><path class="gs33-12" d="M346.89,159.16a1.79,1.79,0,0,0,1.57,2h0.24a1.56,1.56,0,0,0,1.64-1.12h1.4a2.94,2.94,0,0,1-3,2.29c-2.11,0-3.29-1.47-3.29-3.54a3.25,3.25,0,1,1,6.42.38h-5Zm3.46-1a1.73,1.73,0,0,0-3.46,0h3.46Z"/><path class="gs33-12" d="M351.9,155.42h1.63l1.75,5h0l1.7-5h1.55l-2.61,7.09c-0.48,1.21-.83,2.3-2.38,2.3a6.73,6.73,0,0,1-1-.08v-1.25a4.33,4.33,0,0,0,.7.09,0.94,0.94,0,0,0,1-.94l0.17-.52Z"/><path class="gs33-12" d="M337.49,166.1h1.73l3.58,9.28h-1.74l-0.87-2.46h-3.72l-0.87,2.46h-1.68Zm-0.57,5.59h2.83l-1.39-4h0Z"/><path class="gs33-12" d="M349.05,175.39h-1.46v-0.94h0a2.26,2.26,0,0,1-1.91,1.12c-1.75,0-2.51-.88-2.51-2.64v-4.26h1.48v4.12c0,1.18.48,1.61,1.29,1.61a1.55,1.55,0,0,0,1.65-1.83v-3.9h1.48Z"/><path class="gs33-12" d="M349.6,168.66h1.12v-2h1.48v2h1.34v1.11H352.2v3.59c0,0.61,0,.92.71,0.92a2.54,2.54,0,0,0,.62-0.05v1.14c-0.33,0-.64.08-1,0.08-1.55,0-1.83-.6-1.86-1.72v-4h-1.12Z"/><path class="gs33-12" d="M354.29,166.1h1.48v3.48h0a2.35,2.35,0,0,1,2-1.07,2.13,2.13,0,0,1,2.38,2.29v4.62h-1.48v-4.23a1.24,1.24,0,0,0-1.31-1.51,1.64,1.64,0,0,0-1.63,1.65s0,0.08,0,.12v4h-1.48Z"/><path class="gs33-11" d="M216.65,53.22h8.41C224.2,53.11,220.17,53.15,216.65,53.22Z"/><path class="gs33-11" d="M225.2,53.34l175.12-.12H225.05c0.11,0,.17,0,0.17,0Z"/><path class="gs33-11" d="M211.05,53.22v0.13l5.59-.13h-5.59Z"/><path class="gs33-11" d="M258.37,261.66H257A10.67,10.67,0,0,0,258.37,261.66Z"/><path class="gs33-11" d="M400.37,261.31l-3.18-19.36H275.86c-13.69,0-31.53-1.73-43.63-19.36-11.3-16.47-15.92-48-15.92-71.85,0-33.21-2-87.31,34.76-97.4h-40c-2.54,8.91-4.46,46.14-4.46,97.22s1.92,105.39,4.46,110.4a1.67,1.67,0,0,0,1.76.69h44.11a18.57,18.57,0,0,1-2.63-.35H400.37Z"/><path class="gs33-5" d="M220.1,247h4.07a2.75,2.75,0,0,1,.33,5.49h-3.13v3.8h-1.23Zm1.27,4.45h2.42c1.39,0,2-.6,2-1.7s-0.64-1.7-2-1.7h-2.42v3.4Z"/><path class="gs33-5" d="M229.19,248.39h-1.11V247h1.11v1.35Zm-1.11,1.19h1.11v6.72h-1.11v-6.72Z"/><path class="gs33-5" d="M230.62,249.58h1.11v0.91h0a2.27,2.27,0,0,1,2.15-1.07c2.07,0,3.09,1.64,3.09,3.54s-1,3.5-3.07,3.5a2.58,2.58,0,0,1-2.17-1.05h0v3.47h-1.11v-9.3Zm3.12,0.82c-1.48,0-2.05,1.27-2.05,2.54s0.6,2.55,2.12,2.55,2-1.29,2-2.6-0.64-2.48-2.07-2.48h0Z"/><path class="gs33-5" d="M243.69,254.18a2.71,2.71,0,0,1-2.87,2.29c-2.14,0-3.16-1.48-3.22-3.54a3.24,3.24,0,0,1,3-3.49h0.19c2.38,0,3.11,2.22,3,3.85h-5a2,2,0,0,0,1.78,2.2h0.31a1.62,1.62,0,0,0,1.74-1.31h1.1Zm-1.07-1.87a1.93,1.93,0,1,0-3.86,0h3.86Z"/><path class="gs33-5" d="M244.68,247h1.11v9.28h-1.11V247Z"/><path class="gs33-5" d="M248.37,248.39h-1.11V247h1.11v1.35Zm-1.13,1.19h1.13v6.72h-1.11Z"/><path class="gs33-5" d="M249.74,249.58h1v1.07h0a2.34,2.34,0,0,1,2.18-1.22c1.77,0,2.31,1,2.31,2.46v4.42h-1.11v-4.55a1.27,1.27,0,0,0-1.18-1.35h-0.19a1.89,1.89,0,0,0-2,2.11v3.8h-1.1Z"/><path class="gs33-5" d="M262.37,254.18a2.71,2.71,0,0,1-2.87,2.29c-2.15,0-3.16-1.48-3.22-3.54a3.24,3.24,0,0,1,3-3.49h0.19c2.38,0,3.11,2.22,3,3.85h-5a2,2,0,0,0,1.78,2.2h0.31a1.62,1.62,0,0,0,1.74-1.31h1.1Zm-1.07-1.87a1.93,1.93,0,0,0-1.94-1.9,1.91,1.91,0,0,0-1.92,1.9h3.86Z"/><path class="gs33-5" d="M269.37,247.1c2.89,0,3.07,2.65,3.07,4.69s-0.18,4.68-3.07,4.68-3.07-2.65-3.07-4.68S266.48,247.1,269.37,247.1Zm0,8.4c1.88,0,1.9-2.34,1.9-3.72s0-3.71-1.9-3.71-1.9,2.34-1.9,3.71S267.48,255.5,269.37,255.5Z"/><path class="gs33-5" d="M275.49,251H276a1.56,1.56,0,0,0,1.74-1.36q0-.08,0-0.15A1.46,1.46,0,0,0,276.3,248h-0.21a1.75,1.75,0,0,0-1.74,2h-1.1c0.06-1.75,1-3,2.85-3,1.6,0,2.81.77,2.81,2.47a2.11,2.11,0,0,1-1.27,1.83h0a2.1,2.1,0,0,1,1.66,2.24c0,1.85-1.44,2.81-3.17,2.81a2.79,2.79,0,0,1-3.07-3h1.11a1.87,1.87,0,0,0,1.73,2h0.27a1.83,1.83,0,0,0,2-1.65s0-.09,0-0.13a1.76,1.76,0,0,0-1.73-1.79l-0.27,0a5.47,5.47,0,0,0-.66,0V251Z"/><rect class="gs33-5" x="277.74" y="366.29" width="98.06" height="34.95"/><path class="gs33-12" d="M506.65,361.77H616.11a12.75,12.75,0,0,1,12.75,12.75h0a12.75,12.75,0,0,1-12.75,12.75H506.65a12.75,12.75,0,0,1-12.75-12.75h0A12.75,12.75,0,0,1,506.65,361.77Z"/><path class="gs33-5" d="M506.47,370.13h1.46l3,7.86h-1.47l-0.74-2.08h-3.14L504.84,378h-1.42ZM506,374.86h2.38l-1.18-3.38h0Z"/><path class="gs33-5" d="M511.43,370.13h3.47c2.24,0,2.67,1.45,2.67,2.43S517.14,375,514.9,375h-2.09v3h-1.37v-7.84Zm1.38,3.72h2a1.25,1.25,0,0,0,1.38-1.3,1.19,1.19,0,0,0-1.35-1.3h-2Z"/><path class="gs33-5" d="M518.49,370.13h1.38V378H518.5v-7.86Z"/><path class="gs33-5" d="M523.91,370.13h1.25v4.45l2.27-2.3H529l-2.18,2.09,2.39,3.6h-1.53l-1.74-2.76-0.75.73v2h-1.25v-7.81Z"/><path class="gs33-5" d="M530.49,375.46a1.51,1.51,0,0,0,1.33,1.67H532a1.32,1.32,0,0,0,1.39-1h1.19a2.49,2.49,0,0,1-2.57,1.94,2.7,2.7,0,0,1-2.78-3,2.75,2.75,0,1,1,5.44.32h-4.2Zm2.93-.83a1.46,1.46,0,0,0-2.93,0h2.93Z"/><path class="gs33-5" d="M534.73,372.3h1.38l1.49,4.25h0L539,372.3h1.33l-2.21,6c-0.41,1-.7,2-2,2a5.68,5.68,0,0,1-.87-0.07v-1.06a3.64,3.64,0,0,0,.59.08,0.84,0.84,0,0,0,.88-0.79l0.14-.44Z"/><path class="gs33-5" d="M548.37,376.72c0,0.31.07,0.43,0.3,0.43H549V378a3.14,3.14,0,0,1-.79.14,0.89,0.89,0,0,1-1-.69,2.92,2.92,0,0,1-2,.69,1.73,1.73,0,0,1-1.94-1.49q0-.08,0-0.17c0-1.42,1.13-1.65,2.19-1.77,0.9-.17,1.71-0.07,1.71-0.8s-0.67-.77-1.18-0.77a1.06,1.06,0,0,0-1.25.9h-1.24c0.09-1.46,1.33-1.89,2.58-1.89s2.28,0.45,2.28,1.65Zm-1.25-1.58a4.48,4.48,0,0,1-1.54.34,1,1,0,0,0-1,1,0.93,0.93,0,0,0,1.16.73,1.33,1.33,0,0,0,1.41-1.08Z"/><path class="gs33-5" d="M550.37,376.16a1.12,1.12,0,0,0,1.29,1c0.47,0,1.3-.1,1.26-0.75s-1-.74-1.86-1-1.83-.53-1.83-1.68,1.34-1.63,2.38-1.63A2.17,2.17,0,0,1,554,373.9h-1.32a1,1,0,0,0-1.16-.76c-0.36,0-1,.09-1,0.58s0.92,0.7,1.85.91,1.84,0.54,1.84,1.66c0,1.35-1.36,1.85-2.54,1.85-1.43,0-2.5-.64-2.52-2Z"/><path class="gs33-5" d="M555.79,376.16a1.12,1.12,0,0,0,1.29,1c0.47,0,1.3-.1,1.26-0.75s-1-.74-1.86-1-1.83-.53-1.83-1.68,1.34-1.63,2.38-1.63a2.17,2.17,0,0,1,2.38,1.75H558.1a1,1,0,0,0-1.16-.76c-0.36,0-1,.09-1,0.58s0.92,0.7,1.85.91,1.84,0.54,1.84,1.66c0,1.35-1.36,1.85-2.54,1.85-1.43,0-2.5-.64-2.52-2Z"/><path class="gs33-5" d="M560.31,370.13h1.25v1.19h-1.25v-1.19Zm0,2.17h1.25V378h-1.25V372.3Z"/><path class="gs33-5" d="M567.91,377.69c0,1.71-1,2.55-2.79,2.55-1.14,0-2.43-.44-2.54-1.77h1.25a1.16,1.16,0,0,0,1.36.84,1.29,1.29,0,0,0,1.46-1.45V377h0a2,2,0,0,1-1.71,1c-1.8,0-2.55-1.36-2.55-3a2.63,2.63,0,0,1,2.4-2.84H565a1.79,1.79,0,0,1,1.68.94h0V372.3h1.25ZM566.66,375a1.6,1.6,0,0,0-1.53-1.88c-1.09,0-1.5,1-1.5,2a1.6,1.6,0,0,0,1.5,1.88,1.76,1.76,0,0,0,1.53-2h0Z"/><path class="gs33-5" d="M568.9,372.3h1.19v0.84h0a2,2,0,0,1,1.77-1,1.8,1.8,0,0,1,2,1.94V378h-1.25v-3.58a1,1,0,0,0-1.11-1.28,1.39,1.39,0,0,0-1.37,1.41s0,0.06,0,.09V378h-1.25Z"/><path class="gs33-5" d="M575.92,375.46a1.51,1.51,0,0,0,1.33,1.67h0.2a1.32,1.32,0,0,0,1.39-1H580a2.49,2.49,0,0,1-2.57,1.94,2.7,2.7,0,0,1-2.78-3,2.75,2.75,0,1,1,5.44.32h-4.2Zm2.93-.83a1.46,1.46,0,0,0-2.93,0h2.93Z"/><path class="gs33-5" d="M586.14,378H585v-0.77h0a1.89,1.89,0,0,1-1.76.92c-1.79,0-2.66-1.33-2.66-3,0-2.06,1.22-3,2.46-3a2.19,2.19,0,0,1,1.89.89h0v-2.9h1.25V378Zm-2.8-.84a1.73,1.73,0,0,0,1.59-2c0-1.25-.61-2-1.57-2-1.18,0-1.59,1-1.59,2.07s0.48,1.94,1.6,1.94h0Z"/><path class="gs33-5" d="M589.44,372.3h0.93v-1.72h1.25v1.71h1.13v0.93h-1.13v3c0,0.52,0,.78.61,0.78a2.15,2.15,0,0,0,.53,0v1c-0.28,0-.54.07-0.81,0.07-1.31,0-1.55-.51-1.57-1.45v-3.36h-1v-1Z"/><path class="gs33-5" d="M593.14,375.13a2.87,2.87,0,1,1,2.87,3A2.75,2.75,0,0,1,593.14,375.13Zm4.49,0a1.66,1.66,0,1,0-1.62,2,1.75,1.75,0,0,0,1.62-2h0Z"/><path class="gs33-5" d="M602.61,370.13h3.82c1.41,0,2.33.64,2.33,2a1.73,1.73,0,0,1-1.12,1.67h0a1.87,1.87,0,0,1,1.47,2c0,1.23-.86,2.19-2.89,2.19h-3.61v-7.81Zm1.38,3.29h2.25a1,1,0,0,0,1.15-1.09,1,1,0,0,0-1.15-1.08H604v2.17Zm0,3.44h2.38a1.24,1.24,0,0,0,.22-2.46h-2.65Z"/><path class="gs33-5" d="M609.63,375.13a2.87,2.87,0,1,1,2.87,3A2.75,2.75,0,0,1,609.63,375.13Zm4.49,0a1.66,1.66,0,1,0-1.62,2A1.75,1.75,0,0,0,614.12,375.13Z"/><path class="gs33-5" d="M616.18,370.13h1.25V373h0a2.07,2.07,0,0,1,1.69-.89c1.79,0,2.66,1.36,2.66,3s-0.77,3-2.45,3a2,2,0,0,1-2-.94h0V378h-1.19Zm2.8,3c-1.06,0-1.59.8-1.59,2s0.58,2,1.59,2a1.79,1.79,0,0,0,1.57-2A1.77,1.77,0,0,0,619,373.13Z"/><path class="gs33-16" d="M480.56,155.74l-0.1,257.11c-1.59,10.29-8.77,18.24-17.54,18.24h-268c-8.77,0-15.94-8-15.94-17.66V39.89c0-9.71,7.17-17.66,15.94-17.66l269.73-.11c8.77,0,15.94,8,15.94,17.66Z"/><path class="gs33-11" d="M260,408.33h9.26v1.94h-7v3.37h6.48v1.84h-6.48v3.76h7.1v1.94H260Z"/><path class="gs33-11" d="M273.37,416.29l-3.22-4.41h2.48l2,2.86,2-2.86H279l-3.17,4.3,3.56,5h-2.47l-2.36-3.44-2.29,3.44h-2.41Z"/><path class="gs33-11" d="M280.43,411.88h1.94v1.26h0a3.11,3.11,0,0,1,2.88-1.51c2.94,0,4.36,2.23,4.36,5,0,2.5-1.26,4.86-4,4.86a3.62,3.62,0,0,1-3.12-1.46h0v4.55h-2v-12.7Zm4.59,1.37c-1.73,0-2.61,1.31-2.61,3.29s1,3.28,2.61,3.28c1.87,0,2.57-1.66,2.57-3.28s-0.88-3.29-2.57-3.29h0Z"/><path class="gs33-11" d="M291.19,411.88h1.93v1.8h0a3,3,0,0,1,2.75-2.1,5,5,0,0,1,.78,0v2a7.35,7.35,0,0,0-.88-0.09c-1.4,0-2.52,1.13-2.52,3.19v4.43h-2v-9.28Z"/><path class="gs33-11" d="M298.63,417.07a2.48,2.48,0,0,0,2.19,2.74h0.31a2.16,2.16,0,0,0,2.27-1.55h2a4.08,4.08,0,0,1-4.21,3.17c-2.92,0-4.56-2-4.56-4.9,0-2.65,1.73-4.92,4.5-4.92,2.94,0,4.74,2.65,4.39,5.44h-6.86Zm4.79-1.35a2.4,2.4,0,1,0-4.79,0h4.79Z"/><path class="gs33-11" d="M308.37,418.2a1.81,1.81,0,0,0,2.11,1.62c0.77,0,2.13-.16,2.07-1.22s-1.55-1.21-3-1.55-3-.86-3-2.75,2.2-2.66,3.89-2.66c1.91,0,3.64.79,3.89,2.86h-2.14a1.62,1.62,0,0,0-1.89-1.24c-0.59,0-1.69.14-1.69,1s1.51,1.15,3,1.5,3,0.88,3,2.72c0,2.21-2.23,3-4.16,3-2.34,0-4.09-1-4.12-3.24Z"/><path class="gs33-11" d="M317.56,418.2a1.81,1.81,0,0,0,2.11,1.62c0.77,0,2.13-.16,2.07-1.22s-1.55-1.21-3-1.55-3-.86-3-2.75,2.2-2.66,3.89-2.66c1.91,0,3.64.79,3.89,2.86h-2.15a1.62,1.62,0,0,0-1.89-1.24c-0.59,0-1.69.14-1.69,1s1.51,1.15,3,1.5,3,0.88,3,2.72c0,2.21-2.23,3-4.16,3-2.34,0-4.09-1-4.12-3.24Z"/><path class="gs33-11" d="M341.51,421.19h-1.44l-0.34-1.51a4.63,4.63,0,0,1-3.87,1.82c-3.85,0-6.16-3.06-6.16-6.73S332,408,335.86,408c2.81,0,5.17,1.5,5.51,4.39h-2.2a3.07,3.07,0,0,0-3.31-2.56c-2.76,0-3.91,2.43-3.91,4.9s1.15,4.9,3.91,4.9a3.27,3.27,0,0,0,3.6-3.53H336v-1.71h5.47v6.76Z"/><path class="gs33-11" d="M351.28,419.12c0,0.5.11,0.7,0.48,0.7a2.84,2.84,0,0,0,.51,0v1.42a5.15,5.15,0,0,1-1.3.23,1.37,1.37,0,0,1-1.58-1.13,4.78,4.78,0,0,1-3.22,1.13c-1.67,0-3.19-.9-3.19-2.72,0-2.32,1.85-2.7,3.58-2.9,1.48-.27,2.79-0.11,2.79-1.31s-1.1-1.26-1.93-1.26c-1.15,0-2,.47-2,1.48h-2c0.14-2.39,2.18-3.1,4.23-3.1,1.82,0,3.73.74,3.73,2.7Zm-2-2.59a7.34,7.34,0,0,1-2.52.56c-0.88.14-1.67,0.47-1.67,1.55,0,0.92,1.17,1.19,1.89,1.19,0.9,0,2.3-.47,2.3-1.76v-1.54Z"/><path class="gs33-11" d="M352.37,411.88h1.55v-2.79h2v2.79h1.86v1.53H356v5c0,0.85.07,1.28,1,1.28a3.5,3.5,0,0,0,.87-0.07v1.58c-0.45,0-.88.11-1.33,0.11-2.14,0-2.54-.83-2.58-2.38v-5.49h-1.56v-1.56Z"/><path class="gs33-11" d="M360.73,417.07a2.48,2.48,0,0,0,2.19,2.74h0.31a2.16,2.16,0,0,0,2.27-1.55h1.94a4.07,4.07,0,0,1-4.21,3.17c-2.92,0-4.55-2-4.55-4.9,0-2.65,1.73-4.92,4.5-4.92,2.93,0,4.73,2.65,4.39,5.44h-6.84Zm4.79-1.35a2.4,2.4,0,1,0-4.79,0h4.79Z"/><path class="gs33-11" d="M368.11,411.88h2.18l1.82,7h0l1.75-7h2.07l1.68,7h0l1.89-7h2.09l-2.92,9.31h-2.11l-1.73-6.91h0l-1.71,6.91H371Z"/><path class="gs33-11" d="M390.57,419.12c0,0.5.11,0.7,0.49,0.7a2.82,2.82,0,0,0,.5,0v1.42a5.13,5.13,0,0,1-1.3.23,1.37,1.37,0,0,1-1.58-1.13,4.78,4.78,0,0,1-3.22,1.13c-1.67,0-3.19-.9-3.19-2.72,0-2.32,1.86-2.7,3.58-2.9,1.48-.27,2.79-0.11,2.79-1.31s-1.1-1.26-1.93-1.26c-1.15,0-2,.47-2,1.48h-2c0.14-2.39,2.18-3.1,4.23-3.1,1.82,0,3.73.74,3.73,2.7v4.76Zm-2-2.59a7.34,7.34,0,0,1-2.52.56c-0.88.14-1.68,0.47-1.68,1.55,0,0.92,1.17,1.19,1.89,1.19,0.9,0,2.3-.47,2.3-1.76v-1.54Z"/><path class="gs33-11" d="M391.58,411.88h2.25l2.43,7h0l2.36-7h2.14l-3.62,9.81c-0.67,1.67-1.15,3.19-3.29,3.19a9.23,9.23,0,0,1-1.42-.11V423a6,6,0,0,0,1,.13c1,0,1.19-.5,1.44-1.3l0.23-.72Z"/><rect class="gs33-11" x="284.81" y="335.04" width="81.49" height="62.96" rx="3.14" ry="3.14"/><path class="gs33-12" d="M307.76,343.8a2,2,0,0,0-2.13-1.62c-1.81,0-2.58,1.49-2.58,3.08s0.77,3.19,2.59,3.19a2.15,2.15,0,0,0,2.2-2.1s0-.07,0-0.1h1a3.1,3.1,0,0,1-3.14,3.06h-0.16c-2.37,0-3.52-1.75-3.52-4s1.26-4,3.6-4a2.91,2.91,0,0,1,3.14,2.47Z"/><path class="gs33-12" d="M312.06,343.48a2.89,2.89,0,1,1-2.67,3.09q0-.1,0-0.2a2.62,2.62,0,0,1,2.33-2.88h0.35Zm0,5a2.12,2.12,0,1,0-1.72-2.08,1.79,1.79,0,0,0,1.72,2v0Z"/><path class="gs33-12" d="M315.54,343.58h0.83v0.88h0a1.92,1.92,0,0,1,1.79-1,1.71,1.71,0,0,1,1.9,2v3.63h-0.91v-3.73a1,1,0,0,0-1.12-1.11A1.55,1.55,0,0,0,316.4,346v3.11h-0.91Z"/><path class="gs33-12" d="M321.75,347.39a1.22,1.22,0,0,0,1.48,1.07c0.57,0,1.33-.13,1.33-0.82s-0.9-.82-1.8-1-1.8-.5-1.8-1.56a1.84,1.84,0,0,1,2.06-1.57c1.22,0,2.19.38,2.26,1.73h-0.91a1.11,1.11,0,0,0-1.28-.93c-0.6,0-1.17.15-1.17,0.7s1,0.76,1.8,1,1.8,0.5,1.8,1.57c0,1.31-1.23,1.74-2.35,1.74s-2.28-.5-2.33-1.87Z"/><path class="gs33-12" d="M330.83,349.13H330v-0.87h0a1.92,1.92,0,0,1-1.79,1,1.71,1.71,0,0,1-1.9-2v-3.68h0.91v3.73a1,1,0,0,0,1.12,1.11,1.55,1.55,0,0,0,1.63-1.73v-3.11h0.91Z"/><path class="gs33-12" d="M331.92,343.58h0.85v0.81h0a2,2,0,0,1,1.78-.94,1.46,1.46,0,0,1,1.51.94,2,2,0,0,1,1.73-.94,1.54,1.54,0,0,1,1.83,1.6v4h-0.91v-3.62a1,1,0,0,0-1.07-1.23,1.34,1.34,0,0,0-1.44,1.41V349h-0.83v-3.62a1,1,0,0,0-1-1.23,1.49,1.49,0,0,0-1.47,1.41V349H332Z"/><path class="gs33-12" d="M345.45,347.38a2.22,2.22,0,0,1-2.36,1.88c-1.76,0-2.59-1.22-2.65-2.9a2.65,2.65,0,0,1,2.42-2.86H343c2,0,2.55,1.82,2.5,3.16h-4.16a1.62,1.62,0,0,0,1.41,1.8h0.31a1.33,1.33,0,0,0,1.43-1.08h0.93Zm-0.87-1.54a1.59,1.59,0,0,0-3.17,0h3.17Z"/><path class="gs33-12" d="M346.17,343.58H347v1.16h0a2,2,0,0,1,2-1.29v1c-1.46,0-2,.83-2,2.23v2.45h-0.91Z"/><path class="gs33-12" d="M296.07,352.52h1.39l2.4,6.4,2.41-6.4h1.39v7.62h-1V353.8h0l-2.38,6.34h-0.86L297,353.8h0v6.34h-1Z"/><path class="gs33-12" d="M309.81,360.12a1.22,1.22,0,0,1-.65.15,0.73,0.73,0,0,1-.77-0.85,2.45,2.45,0,0,1-1.94.85,1.56,1.56,0,0,1-1.82-1.55c0-1.1.93-1.51,1.87-1.7s1.86-.13,1.86-0.81a1,1,0,0,0-1.23-.92,1.13,1.13,0,0,0-1.38,1h-0.91c0-1.37,1.11-1.85,2.34-1.85,1,0,2.07.22,2.07,1.51v2.84c0,0.43,0,.62.29,0.62a0.77,0.77,0,0,0,.28,0v0.76Zm-1.44-2.83a4.66,4.66,0,0,1-1.64.37,1.06,1.06,0,0,0-1.11,1,0.85,0.85,0,0,0,1.07.81,1.48,1.48,0,0,0,1.69-1.25v-0.93Z"/><path class="gs33-12" d="M310.37,354.58h0.85v0.88h0a1.92,1.92,0,0,1,1.79-1,1.71,1.71,0,0,1,1.9,2v3.63H314v-3.73a1,1,0,0,0-1.12-1.11,1.55,1.55,0,0,0-1.63,1.73v3.11h-0.88v-5.51Z"/><path class="gs33-12" d="M320.92,360.12a1.22,1.22,0,0,1-.65.15,0.73,0.73,0,0,1-.77-0.85,2.45,2.45,0,0,1-1.94.85,1.56,1.56,0,0,1-1.82-1.55c0-1.1.93-1.51,1.87-1.7s1.86-.13,1.86-0.81a1,1,0,0,0-1.23-.92,1.13,1.13,0,0,0-1.38,1H316c0-1.37,1.11-1.85,2.34-1.85,1,0,2.07.22,2.07,1.51v2.84c0,0.43,0,.62.29,0.62a0.77,0.77,0,0,0,.28,0v0.76Zm-1.47-2.83a4.66,4.66,0,0,1-1.64.37,1.06,1.06,0,0,0-1.11,1,0.85,0.85,0,0,0,1.07.81,1.48,1.48,0,0,0,1.69-1.25v-0.93Z"/><path class="gs33-12" d="M326.25,359.67c0,1.79-.82,2.71-2.56,2.71-1,0-2.23-.42-2.28-1.62h0.91c0,0.66.83,0.9,1.43,0.9,1.18,0,1.65-.85,1.65-2.09v-0.36h0a1.84,1.84,0,0,1-1.72,1,2.5,2.5,0,0,1-2.46-2.79c0-1.3.64-2.91,2.55-2.91a1.8,1.8,0,0,1,1.64.92h0v-0.85h0.85v5.09Zm-0.9-2.4c0-1-.43-2-1.57-2a1.75,1.75,0,0,0-1.63,2c0,1,.36,2.1,1.56,2.1s1.66-1.07,1.66-2.1h0Z"/><path class="gs33-12" d="M332.05,358.39a2.22,2.22,0,0,1-2.36,1.88c-1.76,0-2.59-1.22-2.65-2.9a2.65,2.65,0,0,1,2.42-2.86h0.17c2,0,2.55,1.82,2.5,3.16H328a1.62,1.62,0,0,0,1.41,1.8h0.31a1.33,1.33,0,0,0,1.43-1.08h0.9Zm-0.87-1.54a1.59,1.59,0,0,0-3.17,0h3.17Z"/><path class="gs33-12" d="M332.81,354.58h0.85v0.81h0a2,2,0,0,1,1.78-.94,1.46,1.46,0,0,1,1.51.94,2,2,0,0,1,1.73-.94,1.54,1.54,0,0,1,1.83,1.6v4H339.6v-3.62a1,1,0,0,0-1.07-1.23,1.34,1.34,0,0,0-1.44,1.41V360h-0.91v-3.62a1,1,0,0,0-1-1.23,1.49,1.49,0,0,0-1.47,1.41V360H332.8v-5.45Z"/><path class="gs33-12" d="M346.37,358.39a2.22,2.22,0,0,1-2.36,1.88c-1.76,0-2.59-1.22-2.65-2.9a2.65,2.65,0,0,1,2.42-2.86H344c2,0,2.55,1.82,2.5,3.16h-4.13a1.62,1.62,0,0,0,1.41,1.8H344a1.33,1.33,0,0,0,1.43-1.08h0.9Zm-0.87-1.54a1.59,1.59,0,0,0-3.17,0h3.17Z"/><path class="gs33-12" d="M347.09,354.58h0.85v0.88h0a1.92,1.92,0,0,1,1.79-1,1.71,1.71,0,0,1,1.9,2v3.63h-0.91v-3.73a1,1,0,0,0-1.12-1.11A1.55,1.55,0,0,0,348,357v3.11h-0.91Z"/><path class="gs33-12" d="M354,354.58h1.1v0.8H354v3.42c0,0.42.12,0.49,0.68,0.49h0.42v0.8h-0.74c-0.94,0-1.31-.19-1.31-1.21v-3.51h-0.94v-0.79h0.94v-1.65H354Z"/><path class="gs33-10" d="M296.87,386.49h3.2c1.18,0,2,.54,2,1.63a1.45,1.45,0,0,1-.94,1.4h0a1.57,1.57,0,0,1,1.24,1.7c0,1-.72,1.84-2.43,1.84h-3Zm1.15,2.76h1.88a0.88,0.88,0,0,0,1-.91,0.82,0.82,0,0,0-1-.9H298v1.81Zm0,2.89h2a1,1,0,1,0,.12-2H298v2Z"/><path class="gs33-10" d="M302.77,390.69a2.41,2.41,0,1,1,2.41,2.52A2.31,2.31,0,0,1,302.77,390.69Zm3.77,0a1.39,1.39,0,1,0-1.36,1.69,1.48,1.48,0,0,0,1.36-1.69h0Z"/><path class="gs33-10" d="M308.27,386.49h1v2.44h0a1.74,1.74,0,0,1,1.42-.75,2.24,2.24,0,0,1,2.23,2.54c0,1.28-.65,2.49-2.06,2.49a1.71,1.71,0,0,1-1.65-.78h0v0.66h-1v-6.6Zm2.35,2.52c-0.89,0-1.34.67-1.34,1.69a1.42,1.42,0,0,0,1.34,1.68A1.74,1.74,0,0,0,310.62,389Z"/><path class="gs33-5" d="M312.37,373.63c0,5.58-3.17,10.1-7.07,10.1S299,378.67,299,373.09c0-2.48-.56-4.39,1.13-5.08s3.55-2.3,3.5-3c-0.06-.94.72-0.23,1.69-0.23C309.27,364.75,312.37,368,312.37,373.63Z"/><path class="gs33-17" d="M311.62,377.06c0.1-.52.78-0.32,1.07-1.55,0.43-1.8-.44-2.07-1-1.71"/><path class="gs33-17" d="M299.37,377.06c0.57,3.81,3.09,6.67,6.11,6.67s5.54-2.87,6.11-6.67"/><line class="gs33-17" x1="302.78" y1="376.43" x2="304.2" y2="376.43"/><line class="gs33-17" x1="307.25" y1="376.43" x2="308.67" y2="376.43"/><path class="gs33-17" d="M303.91,380.71a2.47,2.47,0,0,0,3.21,0"/><path class="gs33-17" d="M304,364.81a2.62,2.62,0,0,1-.43,1.39c-0.63.9-1.54,0.79-2.61,1.43a4.91,4.91,0,0,0-2.17,3.17,5.11,5.11,0,0,0,1,3.85,7.19,7.19,0,0,1,1.27-3.5,9.89,9.89,0,0,0,7.38,3,13.16,13.16,0,0,1-.59-1.24c-0.19-.46-0.33-0.85-0.46-1.24q0.77,0.65,1.63,1.3c0.8,0.61,1.58,1.16,2.34,1.66a6.36,6.36,0,0,0,.83-4.33C311.59,367.32,308.27,364.9,304,364.81Z"/><path class="gs33-10" d="M339.21,386.28h1.08v3.85l2-2h1.33l-1.88,1.8,2.06,3.1h-1.32l-1.5-2.38-0.64.63V393h-1.08Z"/><path class="gs33-10" d="M344.87,390.87a1.3,1.3,0,0,0,1.14,1.44h0.18a1.14,1.14,0,0,0,1.19-.82h1a2.15,2.15,0,0,1-2.22,1.67,2.32,2.32,0,0,1-2.4-2.58,2.37,2.37,0,1,1,4.68.27h-3.57Zm2.52-.71a1.26,1.26,0,0,0-2.52,0h2.52Z"/><path class="gs33-10" d="M348.52,388.14h1.18L351,391.8h0l1.24-3.66h1.15l-1.9,5.17c-0.35.88-.61,1.68-1.73,1.68a4.85,4.85,0,0,1-.75-0.06V394a3,3,0,0,0,.51.07,0.72,0.72,0,0,0,.76-0.68l0.12-.38Z"/><path class="gs33-10" d="M326.3,373.81h1.22v2.42h2.41v1.22h-2.41v2.42H326.3v-2.42h-2.41v-1.22h2.41v-2.42Z"/><path class="gs33-5" d="M355.68,366.58a5.43,5.43,0,0,0-9,5.52h0l-6.84,6.84,0.47,3,3,0.47,0.55-2.31,1.64,0.12,1.14-1.14-0.41-1.55,1.52,0.44,0.86-.86,1.53-1.53a5.43,5.43,0,0,0,5.52-9h0Zm-2,4.37a1.66,1.66,0,1,1,0-2.35h0a1.66,1.66,0,0,1,0,2.35l0,0Z"/><circle class="gs33-17" cx="352.56" cy="369.83" r="1.66" transform="translate(-158.24 357.62) rotate(-45)"/><polyline class="gs33-17" points="346.75 372.15 339.91 378.99 340.38 382 343.39 382.48 343.94 380.16 345.59 380.28 346.73 379.14 346.33 377.59 347.85 378.02 348.7 377.17"/><path class="gs33-17" d="M350.24,375.63a5.44,5.44,0,1,0-3.49-3.49"/><line class="gs33-18" x1="486.87" y1="374.39" x2="361.56" y2="374.39"/><rect class="gs33-19" width="679.23" height="432.67"/></svg>
