<svg id="gs-3-4" xmlns="http://www.w3.org/2000/svg" viewBox="0 0 679.23 432.67"><defs><style>.gs34-1,.gs34-15{fill:#74cfe8}.gs34-1{opacity:.15}.gs34-1,.gs34-14,.gs34-3{isolation:isolate}.gs34-2,.gs34-3{fill:#35a9c5}.gs34-3{opacity:.2}.gs34-13,.gs34-16,.gs34-17,.gs34-19,.gs34-20,.gs34-21,.gs34-23,.gs34-4,.gs34-6,.gs34-8{fill:none}.gs34-4{stroke:#35a9c5}.gs34-13,.gs34-16,.gs34-17,.gs34-19,.gs34-4,.gs34-6,.gs34-8{stroke-linecap:round}.gs34-13,.gs34-17,.gs34-19,.gs34-4,.gs34-6,.gs34-8{stroke-linejoin:round}.gs34-13,.gs34-4{stroke-width:2px}.gs34-14,.gs34-24,.gs34-5{fill:#fff}.gs34-17,.gs34-6,.gs34-8{stroke:#136d7c}.gs34-6{stroke-width:1.5px}.gs34-7{opacity:.4}.gs34-8{stroke-width:2.5px}.gs34-9{opacity:.63}.gs34-10{fill:#136d7c}.gs34-11{fill:#ffc60a}.gs34-12{fill:#37403f}.gs34-13,.gs34-16{stroke:#ffc60a}.gs34-14{opacity:.8}.gs34-16,.gs34-20,.gs34-21,.gs34-22,.gs34-23{stroke-miterlimit:10}.gs34-16{stroke-width:3px}.gs34-18{fill:#73645a}.gs34-19,.gs34-20,.gs34-21,.gs34-22{stroke:#73645a}.gs34-20,.gs34-21,.gs34-22{stroke-width:4px}.gs34-21{stroke-dasharray:7.73 7.73}.gs34-22{fill:#eef8f8}.gs34-23{stroke:#fff;stroke-width:6px}.gs34-24{opacity:0}</style></defs><title>sized</title><rect class="gs34-1" x="440.5" y="68.61" width="238.69" height="266.35" rx="15" ry="15"/><path class="gs34-2" d="M629.56 199.78h1.92l4 10.3h-1.93l-1-2.73h-4.11l-1 2.73h-1.86zm-.63 6.2h3.14l-1.54-4.47zM636.07 199.78h4.54c2.94 0 3.5 1.9 3.5 3.19s-.56 3.17-3.5 3.16h-2.74v4h-1.8v-10.35zm1.8 4.87h2.64a1.64 1.64 0 0 0 1.8-1.7 1.53 1.53 0 0 0-1.77-1.7h-2.67v3.4zM645.35 199.78h1.8v10.3h-1.8v-10.3zM609.28 215.81h7.41v1.56h-5.61v2.7h5.19v1.44h-5.19v3h5.71v1.56h-7.51v-10.26zM617.78 218.65h1.57v1.1a2.67 2.67 0 0 1 2.32-1.33 2.36 2.36 0 0 1 2.64 2.54v5.12h-1.64v-4.69c0-1.17-.49-1.67-1.46-1.67a1.82 1.82 0 0 0-1.81 1.83v4.57h-1.64v-7.47zM632.72 226.1h-1.56v-1a2.48 2.48 0 0 1-2.31 1.21c-2.35 0-3.49-1.75-3.49-4 0-2.7 1.6-3.88 3.23-3.88a2.88 2.88 0 0 1 2.48 1.17v-3.79h1.64v10.29zM629 225c1.47 0 2.09-1.34 2.09-2.64 0-1.64-.79-2.62-2.06-2.62-1.54 0-2.09 1.37-2.09 2.71s.68 2.55 2.06 2.55zM634.19 218.65h1.56v1a2.49 2.49 0 0 1 2.31-1.21c2.35 0 3.49 1.79 3.49 4 0 2-1 3.89-3.22 3.89a2.9 2.9 0 0 1-2.49-1.17v3.72h-1.64v-10.23zm3.68 1.1c-1.38 0-2.09 1.05-2.09 2.64s.76 2.63 2.09 2.63c1.5 0 2.06-1.33 2.06-2.62s-.7-2.65-2.06-2.65zM642.26 222.37a3.77 3.77 0 1 1 3.76 3.94 3.6 3.6 0 0 1-3.76-3.94zm5.88 0c0-1.28-.65-2.62-2.12-2.62s-2.12 1.34-2.12 2.63.65 2.62 2.1 2.62 2.14-1.33 2.14-2.63zM650.84 215.81h1.64v1.56h-1.64v-1.56zm0 2.84h1.64v7.46h-1.64v-7.46zM653.91 218.65h1.56v1.1a2.67 2.67 0 0 1 2.32-1.33 2.36 2.36 0 0 1 2.64 2.54v5.12h-1.64v-4.69c0-1.17-.49-1.67-1.46-1.67a1.82 1.82 0 0 0-1.81 1.83v4.57h-1.64zM661.08 218.65h1.27v-2.23H664v2.23h1.49v1.23H664v4c0 .68.06 1 .79 1a2.81 2.81 0 0 0 .69-.06v1.27c-.36 0-.71.09-1.07.09-1.72 0-2-.66-2.06-1.9v-4.4h-1.25zM616.17 244.88a12 12 0 0 1-2.08-6.65 12.29 12.29 0 0 1 2.08-6.65h1.34a13.34 13.34 0 0 0-1.77 6.65 12.73 12.73 0 0 0 1.77 6.65h-1.34zM618.13 231.84h4.54c2.94 0 3.5 1.9 3.5 3.19s-.56 3.17-3.5 3.16h-2.74v4h-1.8v-10.35zm1.8 4.87h2.64a1.64 1.64 0 0 0 1.8-1.7 1.53 1.53 0 0 0-1.77-1.7h-2.67v3.4zM633.71 242.13h-1.62v-1a2.5 2.5 0 0 1-2.12 1.24c-2 0-2.78-1-2.78-2.93v-4.73h1.64v4.57c0 1.31.53 1.79 1.43 1.79a1.72 1.72 0 0 0 1.83-2v-4.33h1.64zM635.12 231.84h1.64v3.81a2.72 2.72 0 0 1 2.22-1.17c2.35 0 3.49 1.79 3.49 4 0 2-1 3.89-3.22 3.89a2.66 2.66 0 0 1-2.58-1.23v1h-1.56v-10.3zm3.68 3.94c-1.38 0-2.09 1.05-2.09 2.64s.76 2.63 2.09 2.63c1.5 0 2.06-1.33 2.06-2.62s-.7-2.66-2.06-2.66zM643.58 231.84h1.64v10.3h-1.64v-10.3zM646.69 231.84h1.66v1.56h-1.64zm0 2.84h1.66v7.46h-1.64zM654.8 237.17a1.58 1.58 0 0 0-1.7-1.4c-.85 0-2 .45-2 2.71 0 1.24.55 2.55 2 2.55a1.77 1.77 0 0 0 1.77-1.7h1.64a3.21 3.21 0 0 1-3.41 3c-2.34 0-3.62-1.66-3.62-3.85s1.23-4 3.68-4c1.73 0 3.2.87 3.36 2.7h-1.72z"/><path class="gs34-2" d="M657.78 231.59a12.06 12.06 0 0 1 2.08 6.66 12.2 12.2 0 0 1-2.08 6.63h-1.34a13.24 13.24 0 0 0 1.77-6.63 12.82 12.82 0 0 0-1.77-6.66h1.34z"/><rect class="gs34-3" x="643.19" y="153.52" width="26.57" height="15.69" rx="4.53" ry="4.53"/><rect class="gs34-4" x="639.25" y="150.04" width="30.51" height="19.38" rx="1.45" ry="1.45"/><path class="gs34-2" d="M644.35 163.35a.5.5 0 0 1-.28-.49 2.7 2.7 0 0 0 0-.34v-1.01a.27.27 0 0 1 0-.14V160a14 14 0 0 1 0-1.45 1.24 1.24 0 0 1 0-.31 2.52 2.52 0 0 1 0-.32v-.25a.7.7 0 0 1 0-.28 1.22 1.22 0 0 1 .08-.23.67.67 0 0 1 .85-.16.54.54 0 0 1 .26.58v.91a4.26 4.26 0 0 1 0 .58 1.07 1.07 0 0 0 0 .26v.06a1.41 1.41 0 0 1 0 .33v.38a1.1 1.1 0 0 0 0 .2v.09c.06.38.31.86.54.6a.13.13 0 0 1 .08-.1l.33-.38.13-.13.24-.28.09-.09a.8.8 0 0 1 1 .09 1.67 1.67 0 0 0 .37.36c.19.18.12.13.14.17a1.51 1.51 0 0 0 .22.27c.33.27.68-.27.72-.64v-2.31a1.37 1.37 0 0 1 0-.6.7.7 0 0 1 .86-.36.53.53 0 0 1 .27.42v2a2.23 2.23 0 0 1 0 .77v.24a.54.54 0 0 0 0 .14v.29a3.84 3.84 0 0 0 0 .4v.4a.74.74 0 0 1 0 .28v.78a.79.79 0 0 1-.18.52.71.71 0 0 1-1-.2 2.5 2.5 0 0 1-.25-.38l-.06-.12a2.89 2.89 0 0 0-.43-.38 1.56 1.56 0 0 0-1.07-.5 1.36 1.36 0 0 0-1 .54 3.31 3.31 0 0 1-.37.37 2.84 2.84 0 0 0-.49.51.72.72 0 0 1-1 .29zM652.12 163.35a.5.5 0 0 1-.28-.49 2.7 2.7 0 0 0 0-.34v-1.01a.27.27 0 0 1 0-.14V160a14 14 0 0 1 0-1.45 1.24 1.24 0 0 1 0-.31 2.52 2.52 0 0 1 0-.32v-.25a.7.7 0 0 1 0-.28 1.22 1.22 0 0 1 .08-.23.67.67 0 0 1 .82-.24.54.54 0 0 1 .26.58v.91a4.26 4.26 0 0 1 0 .58 1.07 1.07 0 0 0 0 .26v.06a1.41 1.41 0 0 1 0 .33v.38a1.1 1.1 0 0 0 0 .2v.09c.06.38.31.86.54.6a.14.14 0 0 1 .08-.1l.33-.38.13-.13.24-.28.09-.09a.8.8 0 0 1 1 .09 1.67 1.67 0 0 0 .37.36c.19.18.12.13.14.17a1.51 1.51 0 0 0 .22.27c.33.27.68-.27.72-.64v-2.31a1.37 1.37 0 0 1 0-.6.7.7 0 0 1 .86-.36.53.53 0 0 1 .27.42v2a2.23 2.23 0 0 1 0 .77v.24a.54.54 0 0 0 0 .14v.29a3.84 3.84 0 0 0 0 .4v.4a.74.74 0 0 1 0 .28v.78a.79.79 0 0 1-.18.52.71.71 0 0 1-1-.2 2.5 2.5 0 0 1-.25-.38l-.06-.12a2.89 2.89 0 0 0-.43-.38 1.56 1.56 0 0 0-1.07-.5 1.36 1.36 0 0 0-1 .54 3.31 3.31 0 0 1-.37.37 2.84 2.84 0 0 0-.49.51.72.72 0 0 1-1 .29zM659.85 163.35a.5.5 0 0 1-.28-.49 2.7 2.7 0 0 0 0-.34v-1.01a.27.27 0 0 1 0-.14V160a14 14 0 0 1 0-1.45 1.24 1.24 0 0 1 0-.31 2.52 2.52 0 0 1 0-.32v-.25a.7.7 0 0 1 0-.28 1.22 1.22 0 0 1 .08-.23.67.67 0 0 1 .82-.24.54.54 0 0 1 .26.58v.91a4.26 4.26 0 0 1 0 .58 1.07 1.07 0 0 0 0 .26v.06a1.41 1.41 0 0 1 0 .33v.38a1.1 1.1 0 0 0 0 .2v.09c.06.38.31.86.54.6a.14.14 0 0 1 .08-.1l.33-.38.13-.13.24-.28.09-.09a.8.8 0 0 1 1 .09 1.67 1.67 0 0 0 .37.36c.19.18.12.13.14.17a1.51 1.51 0 0 0 .22.27c.33.27.68-.27.72-.64v-2.31a1.37 1.37 0 0 1 0-.6.7.7 0 0 1 .86-.36.53.53 0 0 1 .27.42v2a2.23 2.23 0 0 1 0 .77v.24a.54.54 0 0 0 0 .14v.29a3.84 3.84 0 0 0 0 .4v.4a.74.74 0 0 1 0 .28v.78a.79.79 0 0 1-.18.52.71.71 0 0 1-1-.2 2.5 2.5 0 0 1-.25-.38l-.06-.12a2.89 2.89 0 0 0-.43-.38 1.56 1.56 0 0 0-1.07-.5 1.36 1.36 0 0 0-1 .54 3.31 3.31 0 0 1-.37.37 2.84 2.84 0 0 0-.49.51.72.72 0 0 1-1 .29z"/><rect class="gs34-3" x="606.78" y="148.47" width="26.57" height="15.69" rx="4.53" ry="4.53"/><rect class="gs34-4" x="602.83" y="145" width="30.51" height="19.38" rx="1.45" ry="1.45"/><path class="gs34-2" d="M608 158.31a.5.5 0 0 1-.28-.49 2.7 2.7 0 0 0 0-.34v-.97a.27.27 0 0 1 0-.14V155a14 14 0 0 1 0-1.45 1.24 1.24 0 0 1 0-.31 2.52 2.52 0 0 1 0-.32v-.25a.69.69 0 0 1 0-.28 1.2 1.2 0 0 1 .08-.23.67.67 0 0 1 .82-.24.54.54 0 0 1 .26.58v.91a4.26 4.26 0 0 1 0 .58 1.07 1.07 0 0 0 0 .26v.06a1.41 1.41 0 0 1 0 .33v.36a1.1 1.1 0 0 0 0 .2v.09c.06.38.31.86.54.6a.13.13 0 0 1 .08-.1l.33-.38.13-.13.24-.28.09-.09a.8.8 0 0 1 1 .09 1.67 1.67 0 0 0 .37.36c.19.18.12.13.14.17a1.51 1.51 0 0 0 .22.27c.33.27.68-.27.72-.64v-2.31a1.37 1.37 0 0 1 0-.6.7.7 0 0 1 .86-.36.53.53 0 0 1 .27.42v2a2.23 2.23 0 0 1 0 .77v.24a.54.54 0 0 0 0 .14v.29a3.83 3.83 0 0 0 0 .4v.4a.73.73 0 0 1 0 .28v.78a.79.79 0 0 1-.18.52.71.71 0 0 1-1-.2 2.5 2.5 0 0 1-.25-.38l-.06-.12a2.89 2.89 0 0 0-.43-.38 1.56 1.56 0 0 0-1.07-.5 1.36 1.36 0 0 0-1 .54 3.31 3.31 0 0 1-.37.37 2.84 2.84 0 0 0-.49.51.72.72 0 0 1-1 .29H608zM615.7 158.31a.5.5 0 0 1-.28-.49 2.7 2.7 0 0 0 0-.34v-.97a.27.27 0 0 1 0-.14V155a14 14 0 0 1 0-1.45 1.24 1.24 0 0 1 0-.31 2.52 2.52 0 0 1 0-.32v-.25a.69.69 0 0 1 0-.28 1.2 1.2 0 0 1 .08-.23.67.67 0 0 1 .82-.24.54.54 0 0 1 .26.58v.91a4.26 4.26 0 0 1 0 .58 1.07 1.07 0 0 0 0 .26v.06a1.41 1.41 0 0 1 0 .33v.36a1.1 1.1 0 0 0 0 .2v.09c.06.38.31.86.54.6a.14.14 0 0 1 .08-.1l.33-.38.13-.13.24-.28.09-.09a.8.8 0 0 1 1 .09 1.67 1.67 0 0 0 .37.36c.19.18.12.13.14.17a1.51 1.51 0 0 0 .22.27c.33.27.68-.27.72-.64v-2.31a1.37 1.37 0 0 1 0-.6.7.7 0 0 1 .86-.36.53.53 0 0 1 .27.42v2a2.23 2.23 0 0 1 0 .77v.24a.54.54 0 0 0 0 .14v.29a3.84 3.84 0 0 0 0 .4v.4a.73.73 0 0 1 0 .28v.78a.79.79 0 0 1-.18.52.71.71 0 0 1-1-.2 2.5 2.5 0 0 1-.25-.38l-.06-.12a2.89 2.89 0 0 0-.43-.38 1.56 1.56 0 0 0-1.07-.5 1.36 1.36 0 0 0-1 .54 3.31 3.31 0 0 1-.37.37 2.84 2.84 0 0 0-.49.51.72.72 0 0 1-1 .29h-.02zM623.44 158.31a.5.5 0 0 1-.28-.49 2.7 2.7 0 0 0 0-.34v-.97a.27.27 0 0 1 0-.14V155a14 14 0 0 1 0-1.45 1.24 1.24 0 0 1 0-.31 2.52 2.52 0 0 1 0-.32v-.25a.69.69 0 0 1 0-.28 1.2 1.2 0 0 1 .08-.23.67.67 0 0 1 .82-.24.54.54 0 0 1 .26.58v.91a4.26 4.26 0 0 1 0 .58 1.07 1.07 0 0 0 0 .26v.06a1.41 1.41 0 0 1 0 .33v.36a1.1 1.1 0 0 0 0 .2v.09c.06.38.31.86.54.6a.14.14 0 0 1 .08-.1l.33-.38.13-.13.24-.28.09-.09a.8.8 0 0 1 1 .09 1.67 1.67 0 0 0 .37.36c.19.18.12.13.14.17a1.51 1.51 0 0 0 .22.27c.33.27.68-.27.72-.64v-2.31a1.37 1.37 0 0 1 0-.6.7.7 0 0 1 .86-.36.53.53 0 0 1 .27.42v2a2.23 2.23 0 0 1 0 .77v.24a.54.54 0 0 0 0 .14v.29a3.84 3.84 0 0 0 0 .4v.4a.73.73 0 0 1 0 .28v.78a.79.79 0 0 1-.18.52.71.71 0 0 1-1-.2 2.5 2.5 0 0 1-.25-.38l-.06-.12a2.89 2.89 0 0 0-.43-.38 1.56 1.56 0 0 0-1.07-.5 1.36 1.36 0 0 0-1 .54 3.31 3.31 0 0 1-.37.37 2.84 2.84 0 0 0-.49.51.72.72 0 0 1-1 .29h-.07z"/><rect class="gs34-5" x="615.54" y="159.41" width="40.93" height="28.66" rx="8.05" ry="8.05"/><rect class="gs34-1" x="615.54" y="159.41" width="40.93" height="28.66" rx="8.05" ry="8.05"/><rect class="gs34-3" x="624.22" y="167.45" width="26.57" height="15.69" rx="4.53" ry="4.53"/><rect class="gs34-4" x="620.27" y="163.98" width="30.51" height="19.38" rx="1.45" ry="1.45"/><path class="gs34-2" d="M625.41 177.28a.5.5 0 0 1-.28-.49 2.7 2.7 0 0 0 0-.34v-.96a.27.27 0 0 1 0-.14V174a14 14 0 0 1 0-1.45 1.24 1.24 0 0 1 0-.31 2.52 2.52 0 0 1 0-.32v-.25a.7.7 0 0 1 0-.28 1.22 1.22 0 0 1 .08-.23.67.67 0 0 1 .82-.24.54.54 0 0 1 .26.58v.91a4.26 4.26 0 0 1 0 .58 1.07 1.07 0 0 0 0 .26v.06a1.41 1.41 0 0 1 0 .33v.36a1.1 1.1 0 0 0 0 .2v.09c.06.38.31.86.54.6a.14.14 0 0 1 .08-.1l.33-.38.13-.13.24-.28.09-.09a.8.8 0 0 1 1 .09 1.67 1.67 0 0 0 .37.36c.19.18.12.13.14.17a1.51 1.51 0 0 0 .22.27c.33.27.68-.27.72-.64v-2.31a1.37 1.37 0 0 1 0-.6.7.7 0 0 1 .86-.36.53.53 0 0 1 .27.42v2a2.23 2.23 0 0 1 0 .77v.24a.54.54 0 0 0 0 .14v.29a3.84 3.84 0 0 0 0 .4v.4a.74.74 0 0 1 0 .28v.78a.79.79 0 0 1-.18.52.71.71 0 0 1-1-.2 2.5 2.5 0 0 1-.25-.38l-.06-.12a2.89 2.89 0 0 0-.43-.38 1.56 1.56 0 0 0-1.07-.5 1.36 1.36 0 0 0-1 .54 3.31 3.31 0 0 1-.37.37 2.84 2.84 0 0 0-.49.51.72.72 0 0 1-1 .29zM633.14 177.28a.5.5 0 0 1-.28-.49 2.7 2.7 0 0 0 0-.34v-.96a.27.27 0 0 1 0-.14V174a14 14 0 0 1 0-1.45 1.24 1.24 0 0 1 0-.31 2.52 2.52 0 0 1 0-.32v-.25a.7.7 0 0 1 0-.28 1.22 1.22 0 0 1 .08-.23.67.67 0 0 1 .82-.24.54.54 0 0 1 .26.58v.91a4.26 4.26 0 0 1 0 .58 1.07 1.07 0 0 0 0 .26v.06a1.41 1.41 0 0 1 0 .33v.36a1.1 1.1 0 0 0 0 .2v.09c.06.38.31.86.54.6a.13.13 0 0 1 .08-.1l.33-.38.13-.13.24-.28.09-.09a.8.8 0 0 1 1 .09 1.67 1.67 0 0 0 .37.36c.19.18.12.13.14.17a1.51 1.51 0 0 0 .22.27c.33.27.68-.27.72-.64v-2.31a1.37 1.37 0 0 1 0-.6.7.7 0 0 1 .86-.36.53.53 0 0 1 .27.42v2a2.23 2.23 0 0 1 0 .77v.24a.54.54 0 0 0 0 .14v.29a3.84 3.84 0 0 0 0 .4v.4a.74.74 0 0 1 0 .28v.78a.79.79 0 0 1-.18.52.71.71 0 0 1-1-.2 2.5 2.5 0 0 1-.25-.38l-.06-.12a2.89 2.89 0 0 0-.43-.38 1.56 1.56 0 0 0-1.07-.5 1.36 1.36 0 0 0-1 .54 3.31 3.31 0 0 1-.37.37 2.84 2.84 0 0 0-.49.51.72.72 0 0 1-1 .29zM640.88 177.28a.5.5 0 0 1-.28-.49 2.7 2.7 0 0 0 0-.34v-.96a.27.27 0 0 1 0-.14V174a14 14 0 0 1 0-1.45 1.24 1.24 0 0 1 0-.31 2.52 2.52 0 0 1 0-.32v-.25a.7.7 0 0 1 0-.28 1.22 1.22 0 0 1 .08-.23.67.67 0 0 1 .82-.24.54.54 0 0 1 .26.58v.91a4.26 4.26 0 0 1 0 .58 1.07 1.07 0 0 0 0 .26v.06a1.41 1.41 0 0 1 0 .33v.36a1.1 1.1 0 0 0 0 .2v.09c.06.38.31.86.54.6a.13.13 0 0 1 .08-.1l.33-.38.13-.13.24-.28.09-.09a.8.8 0 0 1 1 .09 1.67 1.67 0 0 0 .37.36c.19.18.12.13.14.17a1.51 1.51 0 0 0 .22.27c.33.27.68-.27.72-.64v-2.31a1.37 1.37 0 0 1 0-.6.7.7 0 0 1 .86-.36.53.53 0 0 1 .27.42v2a2.23 2.23 0 0 1 0 .77v.24a.54.54 0 0 0 0 .14v.29a3.84 3.84 0 0 0 0 .4v.4a.74.74 0 0 1 0 .28v.78a.79.79 0 0 1-.18.52.71.71 0 0 1-1-.2 2.5 2.5 0 0 1-.25-.38l-.06-.12a2.89 2.89 0 0 0-.43-.38 1.56 1.56 0 0 0-1.07-.5 1.36 1.36 0 0 0-1 .54 3.31 3.31 0 0 1-.37.37 2.84 2.84 0 0 0-.49.51.72.72 0 0 1-1 .29z"/><rect class="gs34-1" x="34.45" y="69.22" width="172.12" height="250.17" rx="15" ry="15"/><path class="gs34-2" d="M70.56 196.32c0 2 1.46 2.75 3.26 2.75 2 0 2.72-1 2.72-1.94a1.53 1.53 0 0 0-1.07-1.62c-.9-.34-2.07-.58-3.83-1.06-2.2-.59-2.84-1.93-2.84-3.26 0-2.57 2.38-3.78 4.7-3.78 2.68 0 4.93 1.42 4.93 4.11h-2.26c-.11-1.66-1.22-2.27-2.77-2.27-1 0-2.36.38-2.36 1.67a1.74 1.74 0 0 0 1.53 1.66c.2.05 3 .79 3.71 1a3.4 3.4 0 0 1 2.5 3.28c0 2.88-2.56 4-5.11 4-2.93 0-5.31-1.4-5.37-4.59zM81.61 196.51a2.48 2.48 0 0 0 2.19 2.74h.31a2.16 2.16 0 0 0 2.24-1.58h2a4.08 4.08 0 0 1-4.21 3.17c-2.92 0-4.55-2-4.55-4.9 0-2.65 1.73-4.92 4.5-4.92 2.93 0 4.74 2.65 4.39 5.44zm4.74-1.38a2.4 2.4 0 1 0-4.79 0h4.79zM89.56 191.29h1.93v1.8a3 3 0 0 1 2.72-2.09 5 5 0 0 1 .77.05v2a7.31 7.31 0 0 0-.88-.05c-1.4 0-2.52 1.13-2.52 3.19v4.43h-2v-9.33z"/><path class="gs34-2" d="M94.53 191.29h2.23l2.36 7.15 2.27-7.15h2.13l-3.33 9.31h-2.3zM104.35 187.75h2.05v1.94h-2.05v-1.94zm0 3.55h2.05v9.31h-2.05v-9.31zM114.51 194.41a2 2 0 0 0-2.12-1.75c-1.06 0-2.56.56-2.56 3.38 0 1.55.68 3.19 2.47 3.19a2.21 2.21 0 0 0 2.21-2.12h2.05a4 4 0 0 1-4.23 3.75c-2.92 0-4.52-2.07-4.52-4.81s1.53-5 4.59-5c2.16 0 4 1.08 4.2 3.37h-2.05zM119.35 196.51a2.48 2.48 0 0 0 2.19 2.74h.31a2.16 2.16 0 0 0 2.27-1.55h2a4.08 4.08 0 0 1-4.21 3.17c-2.92 0-4.55-2-4.55-4.9 0-2.65 1.73-4.92 4.5-4.92 2.93 0 4.74 2.65 4.39 5.44h-6.85zm4.79-1.35a2.4 2.4 0 1 0-4.79 0h4.79zM128.89 197.61a1.81 1.81 0 0 0 2.11 1.62c.77 0 2.12-.16 2.07-1.22s-1.55-1.21-3-1.55-3-.86-3-2.75 2.2-2.71 3.93-2.71c1.91 0 3.64.79 3.89 2.86h-2.14a1.62 1.62 0 0 0-1.89-1.24c-.59 0-1.69.14-1.69 1s1.51 1.15 3 1.5 3 .88 3 2.72c0 2.21-2.23 3-4.16 3-2.34 0-4.09-1-4.12-3.24zM67.1 207.75h9.25v1.94h-7v3.37h6.48v1.84h-6.48v3.76h7.13v1.94H67.1v-12.85zM77.7 211.29h2v1.37a3.33 3.33 0 0 1 2.9-1.66 3 3 0 0 1 3.29 3.17v6.39h-2v-5.85c0-1.46-.61-2.09-1.82-2.09a2.27 2.27 0 0 0-2.26 2.28v5.66H77.7v-9.27zM96.35 220.6h-1.94v-1.26a3.09 3.09 0 0 1-2.88 1.51c-2.93 0-4.36-2.18-4.36-5 0-3.37 2-4.84 4-4.84a3.59 3.59 0 0 1 3.1 1.46v-4.75h2.08v12.88zm-4.59-1.37c1.84 0 2.61-1.67 2.61-3.29 0-2.05-1-3.28-2.58-3.28-1.93 0-2.61 1.71-2.61 3.38s.82 3.19 2.58 3.19zM98.18 211.29h1.95v1.22A3.11 3.11 0 0 1 103 211c2.94 0 4.36 2.23 4.36 5 0 2.5-1.26 4.86-4 4.86a3.62 3.62 0 0 1-3.12-1.46v4.6H98.2zm4.59 1.37c-1.73 0-2.61 1.31-2.61 3.29s1 3.28 2.61 3.28c1.87 0 2.57-1.66 2.57-3.28s-.87-3.29-2.56-3.29zM108.25 215.94c0-2.84 1.71-4.9 4.7-4.9s4.7 2.05 4.7 4.9-1.71 4.92-4.7 4.92-4.7-2.06-4.7-4.92zm7.35 0c0-1.6-.81-3.28-2.65-3.28s-2.65 1.67-2.65 3.28.81 3.29 2.65 3.29 2.64-1.72 2.64-3.29zM119 207.75h2v1.94h-2v-1.94zm0 3.55h2v9.31h-2v-9.31zM122.79 211.29h1.94v1.37a3.33 3.33 0 0 1 2.9-1.66 3 3 0 0 1 3.29 3.17v6.39h-2.05v-5.85c0-1.46-.61-2.09-1.82-2.09a2.27 2.27 0 0 0-2.26 2.28v5.66h-2.05zM131.74 211.29h1.55v-2.78h2.06v2.79h1.85v1.53h-1.85v5c0 .85.07 1.28 1 1.28a3.49 3.49 0 0 0 .86-.07v1.58c-.45 0-.88.11-1.33.11-2.14 0-2.54-.83-2.57-2.38v-5.49h-1.55zM72.91 244a15 15 0 0 1-2.59-8.3 15.34 15.34 0 0 1 2.59-8.3h1.67a16.65 16.65 0 0 0-2.21 8.3 15.89 15.89 0 0 0 2.21 8.3h-1.67zM75.35 227.75H81c3.67 0 4.38 2.38 4.38 4s-.7 4-4.37 3.94h-3.4v4.93h-2.26v-12.87zm2.25 6.09h3.29a2 2 0 0 0 2.25-2.12 1.9 1.9 0 0 0-2.21-2.12h-3.32v4.24zM86.63 231.29h1.93v1.8a3 3 0 0 1 2.79-2.09 5 5 0 0 1 .77.05v2a7.29 7.29 0 0 0-.88-.09c-1.4 0-2.52 1.13-2.52 3.19v4.43h-2.09v-9.33zM92.57 227.75h2.05v1.94h-2.05v-1.94zm0 3.55h2.05v9.31h-2.05v-9.31zM95.48 231.29h2.23l2.36 7.15 2.27-7.15h2.13l-3.33 9.31h-2.3zM113.09 238.51c0 .5.11.7.49.7a2.84 2.84 0 0 0 .5 0v1.42a5.15 5.15 0 0 1-1.3.23 1.37 1.37 0 0 1-1.58-1.13 4.78 4.78 0 0 1-3.22 1.13c-1.67 0-3.19-.9-3.19-2.72 0-2.32 1.85-2.7 3.58-2.9 1.48-.27 2.79-.11 2.79-1.31s-1.1-1.26-1.93-1.26c-1.15 0-2 .47-2.05 1.48h-2.05c.14-2.39 2.18-3.1 4.23-3.1 1.82 0 3.73.74 3.73 2.7v4.76zm-2.09-2.59a7.34 7.34 0 0 1-2.52.56c-.88.14-1.67.47-1.67 1.55 0 .92 1.17 1.19 1.89 1.19.9 0 2.3-.47 2.3-1.76v-1.54zM113.92 231.29h1.55v-2.78h2.05v2.79h1.83v1.53h-1.85v5c0 .85.07 1.28 1 1.28a3.49 3.49 0 0 0 .86-.07v1.58c-.45 0-.88.11-1.33.11-2.14 0-2.54-.83-2.57-2.38v-5.49h-1.55v-1.57zM122 236.51a2.48 2.48 0 0 0 2.19 2.74h.31a2.16 2.16 0 0 0 2.27-1.55h1.94a4.08 4.08 0 0 1-4.21 3.17c-2.92 0-4.56-2-4.56-4.9 0-2.65 1.73-4.92 4.5-4.92 2.94 0 4.74 2.65 4.39 5.44H122zm4.79-1.35a2.4 2.4 0 1 0-4.79 0h4.79z"/><path class="gs34-2" d="M130.4 227.44a15 15 0 0 1 2.59 8.32 15.24 15.24 0 0 1-2.59 8.24h-1.67a16.54 16.54 0 0 0 2.21-8.28 16 16 0 0 0-2.21-8.32h1.67zM107.22 151.16H86.35a.52.52 0 1 0 0 1h20.83a.52.52 0 1 0 0-1z"/><path class="gs34-2" d="M119.35 136.06h-8a5.17 5.17 0 0 0-.66-2.9c-1.2-2-3.84-3.1-7.85-3.12s-6.61 1-7.81 3a5.19 5.19 0 0 0-.67 3h-8A6 6 0 0 0 80.4 142v21.32a6 6 0 0 0 5.95 6h33a6 6 0 0 0 5.95-5.95V142a6 6 0 0 0-5.95-5.94zm-22.18-1.76c.71-1.19 2.66-1.81 5.66-1.79s5 .68 5.72 1.89a2.82 2.82 0 0 1 .33 1.65h-12a2.89 2.89 0 0 1 .3-1.75zm17 26.37a7.76 7.76 0 0 1-7.26-5H100l-3.16-2.25-3.62 2.52-2.82-1.61-3.4 1.11-3.29-3.05 1.1-2.72h22.31a7.77 7.77 0 1 1 7 11h.05z"/><circle class="gs34-2" cx="117.16" cy="152.9" r="1.79"/><path class="gs34-3" d="M112.35 163.4a7.76 7.76 0 0 1-7.26-5h-6.84l-3.16-2.25-3.62 2.52-2.82-1.61-3.43 1.11-3.29-3.05L83 152.4h22.32a7.77 7.77 0 1 1 7.03 11z"/><rect class="gs34-6" x="193.68" y="37.49" width="271.21" height="256.21" rx="3.14" ry="3.14"/><g class="gs34-7"><path class="gs34-8" d="M434 110.51h-13.11c-1.1 0-2-1.59-2-3.53 0-1.94.9-3.53 2-3.53h26.67c1.1 0 2-1.59 2-3.53 0-1.94-.9-3.53-2-3.53H422M434 124.64h-13.11c-1.1 0-2-1.59-2-3.53 0-1.94.9-3.53 2-3.53h26.67c1.1 0 2-1.59 2-3.53 0-1.94-.9-3.53-2-3.53h-13.72M434 138.78h-13.11c-1.1 0-2-1.59-2-3.53 0-1.94.9-3.53 2-3.53h26.67c1.1 0 2-1.59 2-3.53 0-1.94-.9-3.53-2-3.53h-13.72M434 152.93h-13.11c-1.1 0-2-1.59-2-3.53 0-1.94.9-3.53 2-3.53h26.67c1.1 0 2-1.59 2-3.53 0-1.94-.9-3.53-2-3.53h-13.72M434 167.07h-13.11c-1.1 0-2-1.59-2-3.53 0-1.94.9-3.53 2-3.53h26.67c1.1 0 2-1.59 2-3.53 0-1.94-.9-3.53-2-3.53h-13.72M434 181.22h-13.11c-1.1 0-2-1.59-2-3.53 0-1.94.9-3.53 2-3.53h26.67c1.1 0 2-1.59 2-3.53 0-1.94-.9-3.53-2-3.53h-13.72"/><path class="gs34-8" d="M434 195.21h-13.11c-1.1 0-2-1.59-2-3.53 0-1.94.9-3.53 2-3.53h26.67c1.1 0 2-1.59 2-3.53 0-1.94-.9-3.53-2-3.53h-13.72M434 209.35h-13.11c-1.1 0-2-1.59-2-3.53 0-1.94.9-3.53 2-3.53h26.67c1.1 0 2-1.59 2-3.53 0-1.94-.9-3.53-2-3.53h-13.72M434 223.51h-13.11c-1.1 0-2-1.59-2-3.53 0-1.94.9-3.53 2-3.53h26.67c1.1 0 2-1.59 2-3.53 0-1.94-.9-3.53-2-3.53h-13.72M434 237.64h-13.11c-1.1 0-2-1.59-2-3.53 0-1.94.9-3.53 2-3.53h26.67c1.1 0 2-1.59 2-3.53 0-1.94-.9-3.53-2-3.53h-13.72M434 82.18h-13.11c-1.1 0-2-1.59-2-3.53 0-1.94.9-3.53 2-3.53h26.67c1.1 0 2-1.59 2-3.53 0-1.94-.9-3.53-2-3.53h-13.72M434.05 68H421c-1.1 0-2-1.59-2-3.53 0-1.94.9-3.53 2-3.53h26.67c1.1 0 2-1.59 2-3.53 0-1.94-.9-3.53-2-3.53h-13.75M434 96.33h-13.11c-1.1 0-2-1.59-2-3.53 0-1.94.9-3.53 2-3.53h26.67c1.1 0 2-1.59 2-3.53 0-1.94-.9-3.53-2-3.53h-13.72"/><path class="gs34-8" d="M434 251.71h-13.11c-1.1 0-2-1.59-2-3.53 0-1.94.9-3.53 2-3.53h26.67c1.1 0 2-1.59 2-3.53 0-1.94-.9-3.53-2-3.53h-13.72M420.89 258.79h26.67c1.1 0 2-1.59 2-3.53 0-1.94-.9-3.53-2-3.53h-13.72"/></g><path class="gs34-5" d="M414.97 253.86h38.91v14.5h-38.91z"/><g class="gs34-9"><path class="gs34-10" d="M418.44 260.28h3.75c1.71 0 2.6.79 2.6 2.12a1.91 1.91 0 0 1-1.3 2 1.44 1.44 0 0 1 1.17 1.66 3.57 3.57 0 0 0 .43 2.07h-1.47a2.19 2.19 0 0 1-.21-1.16c0-1.44-.3-2.08-1.56-2.08h-2v3.23h-1.37zm1.38 3.58h2.26a1.16 1.16 0 0 0 1.34-1.25 1.13 1.13 0 0 0-1.37-1.2h-2.23v2.45zM425.74 265.28a2.87 2.87 0 1 1 2.87 3 2.75 2.75 0 0 1-2.87-3zm4.49 0a1.66 1.66 0 1 0-1.62 2 1.75 1.75 0 0 0 1.62-2zM437.53 268.13h-1.23v-.79a1.91 1.91 0 0 1-1.62 1c-1.48 0-2.12-.75-2.12-2.23v-3.61h1.25v3.49c0 1 .41 1.36 1.09 1.36a1.34 1.34 0 0 0 1.4-1.55v-3.3h1.26zM438.27 262.44h1v-1.71h1.25v1.71h1.13v.93h-1.13v3c0 .52 0 .78.61.78a2.16 2.16 0 0 0 .53 0v1c-.28 0-.54.07-.81.07-1.31 0-1.55-.51-1.57-1.45v-3.36h-1v-1zM443.49 265.61a1.51 1.51 0 0 0 1.33 1.67h.18a1.32 1.32 0 0 0 1.39-1h1.19a2.49 2.49 0 0 1-2.58 1.94 2.7 2.7 0 0 1-2.78-3 2.75 2.75 0 1 1 5.44.32h-4.19zm2.93-.83a1.46 1.46 0 1 0-2.93 0h2.93zM448.62 262.44h1.18v1.07a1.84 1.84 0 0 1 1.66-1.25 2.86 2.86 0 0 1 .47 0v1.25a4.34 4.34 0 0 0-.54 0c-.86 0-1.54.69-1.54 2v2.71h-1.25z"/></g><rect class="gs34-11" x="193.76" y="335.23" width="81.49" height="32.75" rx="3.14" ry="3.14"/><rect class="gs34-11" x="375.81" y="335.23" width="81.49" height="32.75" rx="3.14" ry="3.14"/><path class="gs34-12" d="M210.23 341.71h2.61c2.35 0 3.66 1.17 3.66 3.63s-1.12 4-3.66 4h-2.61v-7.63zm1 6.76h1.69c.69 0 2.56-.19 2.56-3 0-1.81-.67-2.91-2.54-2.91h-1.69zM218.28 342.82h-.93v-1.11h.91zm-.91 1h.91v5.51h-.93zM220 347.58a1.22 1.22 0 0 0 1.48 1.07c.56 0 1.33-.13 1.33-.82s-.89-.82-1.8-1-1.8-.5-1.8-1.56a1.84 1.84 0 0 1 2.06-1.57c1.21 0 2.19.38 2.26 1.73h-.93a1.11 1.11 0 0 0-1.28-.93c-.6 0-1.17.15-1.17.7s1 .76 1.8 1 1.8.5 1.8 1.57c0 1.31-1.23 1.74-2.35 1.74s-2.28-.5-2.33-1.87zM225.75 343.81h1.1v.8h-1.1V348c0 .42.12.49.68.49h.42v.8h-.69c-.94 0-1.31-.19-1.31-1.21v-3.5h-.94v-.8h.94v-1.65h.91v1.65zM227.55 343.81h.8V345a2 2 0 0 1 2-1.29v1c-1.46 0-2 .83-2 2.23v2.45h-.91zM231.82 342.82h-.91v-1.11h.91v1.11zm-.91 1h.91v5.51h-.91v-5.51zM233 341.71h.91v2.8a1.85 1.85 0 0 1 1.76-.87c1.7 0 2.54 1.34 2.54 2.9s-.83 2.87-2.52 2.87a2.11 2.11 0 0 1-1.78-.86v.74H233v-7.58zm2.56 2.8c-1.21 0-1.69 1-1.69 2.08s.49 2.09 1.74 2.09 1.65-1.06 1.65-2.13a1.77 1.77 0 0 0-1.71-2.04zM243.58 349.32h-.85v-.87a1.92 1.92 0 0 1-1.79 1 1.71 1.71 0 0 1-1.9-2v-3.64h.96v3.7a1 1 0 0 0 1.12 1.11 1.55 1.55 0 0 0 1.63-1.73v-3.08h.91zM245.94 343.81H247v.8h-1.1V348c0 .42.12.49.68.49h.42v.8h-.69c-.94 0-1.31-.19-1.31-1.21v-3.5h-.9v-.8h.9v-1.65h1v1.65zM252.47 347.57a2.22 2.22 0 0 1-2.36 1.88c-1.76 0-2.59-1.22-2.64-2.9a2.65 2.65 0 0 1 2.42-2.86h.17c2 0 2.55 1.82 2.5 3.16h-4.13a1.63 1.63 0 0 0 1.44 1.8h.28a1.33 1.33 0 0 0 1.43-1.08h.89zm-.87-1.57a1.58 1.58 0 0 0-3.17 0h3.17zM258.15 349.32h-.91v-.75a1.85 1.85 0 0 1-1.76.88c-1.7 0-2.54-1.34-2.54-2.9s.83-2.87 2.52-2.87a2.11 2.11 0 0 1 1.78.86v-2.83h.91v7.61zm-2.56-.67c1.21 0 1.68-1 1.68-2.08s-.49-2.09-1.74-2.09-1.65 1.06-1.65 2.13a1.79 1.79 0 0 0 1.71 2zM210.79 352.72h2.61c2.35 0 3.66 1.17 3.66 3.63s-1.12 4-3.66 4h-2.61v-7.63zm1 6.76h1.69c.69 0 2.56-.19 2.56-3 0-1.81-.67-2.91-2.54-2.91h-1.71v5.91zM222.77 360.31a1.23 1.23 0 0 1-.65.15.73.73 0 0 1-.77-.85 2.45 2.45 0 0 1-1.94.85 1.56 1.56 0 0 1-1.82-1.55c0-1.1.93-1.51 1.87-1.7s1.86-.13 1.86-.81a1 1 0 0 0-1.23-.92 1.13 1.13 0 0 0-1.38 1h-.91c.05-1.37 1.11-1.85 2.34-1.85 1 0 2.07.22 2.07 1.51V359c0 .43 0 .62.29.62a.77.77 0 0 0 .28 0v.76zm-1.47-2.8a4.66 4.66 0 0 1-1.64.37 1.06 1.06 0 0 0-1.11 1 .85.85 0 0 0 1.07.81 1.48 1.48 0 0 0 1.69-1.25v-.93zM224.6 354.82h1.1v.8h-1.1V359c0 .42.12.49.68.49h.42v.8h-.7c-.94 0-1.31-.19-1.31-1.21v-3.51h-.94v-.8h.94v-1.65h.91v1.66zM231.35 360.31a1.23 1.23 0 0 1-.65.15.73.73 0 0 1-.77-.85 2.45 2.45 0 0 1-1.94.85 1.56 1.56 0 0 1-1.82-1.55c0-1.1.93-1.51 1.87-1.7s1.86-.13 1.86-.81a1 1 0 0 0-1.23-.92 1.13 1.13 0 0 0-1.38 1h-.94c.05-1.37 1.11-1.85 2.34-1.85 1 0 2.07.22 2.07 1.51V359c0 .43 0 .62.29.62a.77.77 0 0 0 .28 0zm-1.51-2.8a4.66 4.66 0 0 1-1.64.37 1.06 1.06 0 0 0-1.11 1 .85.85 0 0 0 1.07.81 1.48 1.48 0 0 0 1.69-1.25v-.93zM239.14 355a1.66 1.66 0 0 0-1.74-1.57h-.15c-.85 0-1.71.31-1.71 1.3s1.21 1.08 2.44 1.35 2.43.7 2.43 2.2-1.59 2.27-3 2.27c-1.71 0-3.15-.83-3.15-2.69h1c0 1.28 1.07 1.83 2.22 1.83.92 0 1.93-.29 1.93-1.39s-1.22-1.23-2.43-1.49-2.44-.62-2.44-2 1.38-2.23 2.76-2.23c1.56 0 2.74.74 2.81 2.41h-1zM242.49 354.82h1.1v.8h-1.1V359c0 .42.12.49.68.49h.42v.8h-.69c-.94 0-1.31-.19-1.31-1.21v-3.51h-.94v-.8h.94v-1.65h.91v1.66zM246.7 354.69a2.89 2.89 0 1 1-2.67 3.09v-.2a2.62 2.62 0 0 1 2.33-2.88h.35zm0 5a2.12 2.12 0 1 0-1.72-2.08 1.79 1.79 0 0 0 1.72 2zM250.14 354.82h.86V356a2 2 0 0 1 2-1.29v1c-1.46 0-2 .83-2 2.23v2.45h-.91zM258 358.59a2.22 2.22 0 0 1-2.36 1.88c-1.76 0-2.59-1.22-2.64-2.9a2.65 2.65 0 0 1 2.42-2.86h.17c2 0 2.55 1.82 2.5 3.16h-4.13a1.63 1.63 0 0 0 1.44 1.8h.28a1.33 1.33 0 0 0 1.43-1.08h.89zm-.9-1.59a1.59 1.59 0 1 0-3.17 0h3.17zM400.53 347.09h3.34a2.25 2.25 0 1 1 0 4.5h-2.33v3.11h-1v-7.61zm1 3.65h2c1.14 0 1.66-.49 1.66-1.4s-.52-1.4-1.66-1.4h-2v2.8zM407.08 347.09h.92v7.62h-.91v-7.62zM413.69 354.7h-.85v-.87a1.92 1.92 0 0 1-1.79 1 1.71 1.71 0 0 1-1.9-2v-3.63h.91v3.73a1 1 0 0 0 1.12 1.11 1.55 1.55 0 0 0 1.63-1.73v-3.12h.91zM419.54 354.23c0 1.79-.82 2.71-2.56 2.71-1 0-2.23-.42-2.28-1.62h.91c0 .66.83.9 1.43.9 1.18 0 1.65-.85 1.65-2.09v-.36a1.84 1.84 0 0 1-1.72 1 2.49 2.49 0 0 1-2.46-2.79c0-1.3.64-2.91 2.55-2.91a1.8 1.8 0 0 1 1.64.92v-.79h.85v5zm-.89-2.4c0-1-.43-2-1.57-2a1.75 1.75 0 0 0-1.63 2c0 1 .36 2.1 1.56 2.1s1.63-1.06 1.63-2.09zM421.6 348.2h-.91v-1.11h.91v1.11zm-.91 1h.91v5.51h-.91v-5.51zM422.73 349.19h.85v.88a1.92 1.92 0 0 1 1.79-1 1.71 1.71 0 0 1 1.9 2v3.63h-.92V351a1 1 0 0 0-1.12-1.11 1.55 1.55 0 0 0-1.63 1.73v3.11h-.91zM429 353a1.22 1.22 0 0 0 1.48 1.07c.56 0 1.33-.13 1.33-.82s-.89-.82-1.8-1-1.8-.5-1.8-1.56a1.84 1.84 0 0 1 2.06-1.57c1.21 0 2.19.38 2.26 1.73h-.91a1.11 1.11 0 0 0-1.28-.93c-.6 0-1.17.15-1.17.7s1 .76 1.8 1 1.8.5 1.8 1.57c0 1.31-1.23 1.74-2.35 1.74s-2.28-.5-2.33-1.87z"/><rect class="gs34-11" x="193.15" y="301.97" width="264.87" height="25.49" rx="3.14" ry="3.14"/><path class="gs34-12" d="M255.52 312.84a2.63 2.63 0 0 0-2.8-2.13c-2.38 0-3.39 2-3.39 4 0 2.28 1 4.19 3.4 4.19a2.83 2.83 0 0 0 2.89-2.77v-.11H257a4.07 4.07 0 0 1-4.13 4h-.2c-3.11 0-4.62-2.3-4.62-5.21s1.65-5.27 4.73-5.27a3.83 3.83 0 0 1 4.12 3.25zM264.44 317.51a2.92 2.92 0 0 1-3.1 2.46c-2.31 0-3.4-1.6-3.47-3.81a3.49 3.49 0 0 1 3.2-3.76h.2c2.56 0 3.35 2.4 3.28 4.15h-5.42a2.13 2.13 0 0 0 2.26 2.38 1.75 1.75 0 0 0 1.88-1.41h1.17zm-1.15-2a2.08 2.08 0 0 0-4.16 0h4.16zM265.64 312.59h1.12v1.15a2.52 2.52 0 0 1 2.35-1.32c1.91 0 2.49 1.09 2.49 2.65v4.76h-1.15v-4.9a1.36 1.36 0 0 0-1.25-1.46h-.2a2 2 0 0 0-2.14 2.27v4.09h-1.19v-7.24zM274.94 312.59h1.41v1h-1.44v4.5c0 .55.15.64.9.64h.54v1h-.91c-1.23 0-1.72-.25-1.72-1.58v-4.61h-1.23v-1h1.23v-2.17h1.19zM277.51 312.59h1.12v1.53a2.63 2.63 0 0 1 2.66-1.7v1.26c-1.92 0-2.62 1.09-2.62 2.93v3.22h-1.19zM288.49 319.8a1.6 1.6 0 0 1-.85.2 1 1 0 0 1-1-1.12 3.21 3.21 0 0 1-2.55 1.12c-1.32 0-2.39-.59-2.39-2 0-1.64 1.22-2 2.45-2.23s2.44-.17 2.44-1.06a1.38 1.38 0 0 0-1.59-1.21c-1 0-1.75.31-1.81 1.37H282c.07-1.79 1.46-2.42 3.07-2.42 1.3 0 2.72.29 2.72 2v3.73c0 .56 0 .81.38.81a1 1 0 0 0 .36-.07zm-1.93-3.71a6.14 6.14 0 0 1-2.16.49c-.78.14-1.46.42-1.46 1.3s.67 1.06 1.4 1.06c1.57 0 2.21-1 2.21-1.64v-1.21zM289.53 309.83h1.19v10h-1.19v-10zM293.68 311.29h-1.19v-1.46h1.19v1.46zm-1.19 1.3h1.19v7.24h-1.19v-7.24zM294.8 318.92l4.37-5.28h-4.09v-1h5.63v.81l-4.43 5.38h4.62v1h-6.11v-.91zM308.15 317.51a2.92 2.92 0 0 1-3.1 2.46c-2.31 0-3.4-1.6-3.47-3.81a3.49 3.49 0 0 1 3.2-3.76h.22c2.56 0 3.35 2.4 3.28 4.15h-5.42a2.13 2.13 0 0 0 2.26 2.38 1.74 1.74 0 0 0 1.88-1.41h1.17zm-1.15-2a2.08 2.08 0 1 0-4.16 0H307zM315.82 319.83h-1.19v-1a2.44 2.44 0 0 1-2.31 1.15c-2.23 0-3.33-1.76-3.33-3.81s1.09-3.77 3.3-3.77a2.77 2.77 0 0 1 2.34 1.13v-3.73h1.19v10zm-3.36-.88c1.6 0 2.21-1.37 2.21-2.73s-.64-2.71-2.32-2.71-2.17 1.39-2.17 2.8.74 2.64 2.28 2.64zM328.49 312.84a2.63 2.63 0 0 0-2.8-2.13c-2.38 0-3.39 2-3.39 4 0 2.28 1 4.19 3.4 4.19a2.83 2.83 0 0 0 2.89-2.77v-.11h1.33a4.07 4.07 0 0 1-4.13 4h-.2c-3.11 0-4.62-2.3-4.62-5.21s1.65-5.27 4.73-5.27a3.83 3.83 0 0 1 4.12 3.25zM334.35 312.42c2.3 0 3.52 1.67 3.52 3.8s-1.22 3.78-3.52 3.78-3.52-1.67-3.52-3.78 1.23-3.8 3.52-3.8zm0 6.53c1.25 0 2.26-1 2.26-2.73s-1-2.75-2.26-2.75-2.26 1-2.26 2.75 1.02 2.78 2.26 2.78zM339.13 312.59h1.12v1.15a2.52 2.52 0 0 1 2.35-1.32c1.9 0 2.49 1.09 2.49 2.65v4.76h-1.19v-4.9a1.36 1.36 0 0 0-1.25-1.46h-.22a2 2 0 0 0-2.14 2.27v4.09h-1.19zM347.26 313.64H346v-1h1.22v-1.08c0-1.18.7-1.79 2-1.79a2.92 2.92 0 0 1 .77.11v1a2.23 2.23 0 0 0-.67-.1.74.74 0 0 0-.91.81v1h1.4v1h-1.4v6.19h-1.19v-6.14zM352 311.29h-1.19v-1.46H352v1.46zm-1.19 1.3H352v7.24h-1.19v-7.24zM360 319.22c0 2.35-1.08 3.56-3.36 3.56-1.36 0-2.93-.55-3-2.13h1.19c.06.87 1.09 1.18 1.88 1.18 1.55 0 2.17-1.12 2.17-2.75v-.48a2.41 2.41 0 0 1-2.25 1.32c-2.16 0-3.24-1.7-3.24-3.67 0-1.71.84-3.82 3.35-3.82a2.36 2.36 0 0 1 2.16 1.21v-1h1.1zm-1.18-3.15c0-1.28-.56-2.59-2.06-2.59s-2.14 1.25-2.14 2.63.48 2.76 2 2.76 2.2-1.45 2.2-2.8zM367.63 319.83h-1.12v-1.15a2.52 2.52 0 0 1-2.35 1.32c-1.9 0-2.49-1.09-2.49-2.65v-4.76h1.19v4.92a1.36 1.36 0 0 0 1.25 1.46h.22a2 2 0 0 0 2.14-2.27v-4.09h1.19zM369.24 312.59h1.11v1.53a2.63 2.63 0 0 1 2.66-1.7v1.26c-1.92 0-2.62 1.09-2.62 2.93v3.22h-1.19zM380.22 319.8a1.6 1.6 0 0 1-.85.2 1 1 0 0 1-1-1.12 3.21 3.21 0 0 1-2.55 1.12c-1.32 0-2.39-.59-2.39-2 0-1.64 1.22-2 2.45-2.23s2.44-.17 2.44-1.06a1.38 1.38 0 0 0-1.61-1.21c-1 0-1.75.31-1.81 1.37h-1.19c.07-1.79 1.46-2.42 3.07-2.42 1.3 0 2.72.29 2.72 2v3.73c0 .56 0 .81.38.81a1 1 0 0 0 .36-.07zm-1.93-3.71a6.14 6.14 0 0 1-2.16.49c-.78.14-1.46.42-1.46 1.3s.67 1.06 1.4 1.06c1.57 0 2.21-1 2.21-1.64v-1.21zM382.83 312.59h1.44v1h-1.44v4.5c0 .55.15.64.9.64h.55v1h-.93c-1.23 0-1.72-.25-1.72-1.58v-4.61h-1.23v-1h1.23v-2.17h1.19v2.17zM386.71 311.29h-1.19v-1.46h1.19v1.46zm-1.19 1.3h1.19v7.24h-1.19v-7.24zM391.54 312.42c2.3 0 3.52 1.67 3.52 3.8s-1.22 3.78-3.52 3.78-3.52-1.67-3.52-3.78 1.22-3.8 3.52-3.8zm0 6.53c1.25 0 2.26-1 2.26-2.73s-1-2.75-2.26-2.75-2.26 1-2.26 2.75 1.02 2.78 2.26 2.78zM396.35 312.59h1.12v1.15a2.52 2.52 0 0 1 2.35-1.32c1.91 0 2.49 1.09 2.49 2.65v4.76h-1.19v-4.9a1.36 1.36 0 0 0-1.29-1.42h-.18a2 2 0 0 0-2.14 2.27v4.09h-1.16v-7.28z"/><path class="gs34-10" d="M205.94 274.67h6.91v1.12h-5.58V279h5.2v1.12h-5.2v3.42h5.62v1.12h-6.95v-10zM215.89 280.86l-2.54-3.43h1.53l1.74 2.54 1.81-2.54h1.43l-2.51 3.33 2.8 3.91h-1.5l-2-3-2 3h-1.44zM220.89 277.43h1.19v1a2.44 2.44 0 0 1 2.31-1.15c2.23 0 3.33 1.76 3.33 3.81s-1.09 3.77-3.31 3.77a2.77 2.77 0 0 1-2.34-1.13v3.74h-1.19v-10zm3.36.88c-1.6 0-2.21 1.37-2.21 2.73s.64 2.75 2.28 2.75 2.17-1.39 2.17-2.8-.7-2.68-2.24-2.68zM228.75 277.43h1.12V279a2.63 2.63 0 0 1 2.66-1.7v1.25c-1.92 0-2.62 1.09-2.62 2.93v3.22h-1.16v-7.23zM239 282.37a2.92 2.92 0 0 1-3.1 2.46c-2.31 0-3.4-1.6-3.47-3.81a3.49 3.49 0 0 1 3.2-3.76h.2c2.56 0 3.35 2.4 3.28 4.15h-5.42a2.13 2.13 0 0 0 2.25 2.38 1.74 1.74 0 0 0 1.88-1.41H239zm-1.15-2a2.08 2.08 0 0 0-4.16 0h4.16zM240.76 282.39c0 1.06 1 1.4 1.95 1.4.74 0 1.75-.17 1.75-1.08s-1.18-1.08-2.37-1.34-2.37-.66-2.37-2 1.44-2.06 2.7-2.06c1.6 0 2.87.5 3 2.27h-1.19a1.46 1.46 0 0 0-1.68-1.22c-.78 0-1.54.2-1.54.92s1.26 1 2.37 1.26 2.37.66 2.37 2.06c0 1.72-1.61 2.28-3.08 2.28s-3-.66-3.07-2.45zM247.4 282.39c0 1.06 1 1.4 1.95 1.4.74 0 1.75-.17 1.75-1.08s-1.18-1.08-2.37-1.34-2.37-.66-2.37-2 1.44-2.06 2.7-2.06c1.6 0 2.87.5 3 2.27h-1.21a1.46 1.46 0 0 0-1.68-1.22c-.78 0-1.54.2-1.54.92s1.26 1 2.37 1.26 2.37.66 2.37 2.06c0 1.72-1.61 2.28-3.08 2.28s-3-.66-3.07-2.45zM257.06 274.67h4.71c1.88 0 3 1 3 2.62a2.4 2.4 0 0 1-1.74 2.54c1.16.22 1.4 1.08 1.5 2.06a5.13 5.13 0 0 0 .59 2.76h-1.49c-.38-.41-.17-1.48-.36-2.47s-.38-1.81-1.67-1.81h-3.25v4.27H257zm4.1 4.61c1.25 0 2.31-.32 2.31-1.78a1.58 1.58 0 0 0-1.78-1.71h-3.34v3.49h2.81zM272.1 284.67H271v-1.16a2.52 2.52 0 0 1-2.35 1.32c-1.9 0-2.49-1.09-2.49-2.65v-4.76h1.19v4.9a1.36 1.36 0 0 0 1.25 1.46h.22a2 2 0 0 0 2.14-2.27v-4.09h1.19zM273.54 277.43h1.12v1.15a2.52 2.52 0 0 1 2.35-1.32c1.9 0 2.49 1.09 2.49 2.65v4.76h-1.15v-4.9a1.36 1.36 0 0 0-1.25-1.46h-.22a2 2 0 0 0-2.14 2.27v4.09h-1.19v-7.24zM282.63 277.43h1.44v1.08h-1.44V283c0 .55.15.64.9.64h.55v1h-.91c-1.23 0-1.72-.25-1.72-1.58v-4.61h-1.23v-1h1.23v-2.17h1.19v2.14zM286.3 276.12h-1.19v-1.46h1.19v1.46zm-1.19 1.3h1.19v7.24h-1.19v-7.24zM287.8 277.43h1.12v1.08a2.67 2.67 0 0 1 2.34-1.23 1.92 1.92 0 0 1 2 1.23 2.68 2.68 0 0 1 2.27-1.23c1.44 0 2.41.6 2.41 2.1v5.31h-1.19v-4.75c0-.9-.24-1.61-1.4-1.61a1.75 1.75 0 0 0-1.89 1.85v4.51h-1.19v-4.75c0-.94-.29-1.61-1.36-1.61a2 2 0 0 0-1.93 1.85v4.51h-1.19v-7.26zM305.56 282.37a2.92 2.92 0 0 1-3.1 2.46c-2.31 0-3.4-1.6-3.47-3.81a3.49 3.49 0 0 1 3.2-3.76h.2c2.56 0 3.35 2.4 3.28 4.15h-5.42a2.13 2.13 0 0 0 2.25 2.38 1.74 1.74 0 0 0 1.88-1.41h1.18zm-1.15-2a2.08 2.08 0 0 0-4.16 0h4.16z"/><path class="gs34-5" d="M203.97 267.44h11.87v2.09h-11.87z"/><path class="gs34-10" d="M212.65 73.43h.83v.83h-.83v-.83zM214.54 73.43h.81v.83h-.83zM216.42 73.43h.83v.83h-.83v-.83z"/><path class="gs34-13" d="M211.22 60.59h7.16M211.87 261.6h6.91"/><path class="gs34-14" d="M175.8 0v424.63h306.94V0H175.8zm197 401.51h-94.5V330h94.5v71.5z"/><path class="gs34-13" d="M398.46 261.59h-.27c.25.68.5.08.76.08 3 0 5.4-45.71 5.4-103.26S401.93 54.19 399 54.19a.67.67 0 0 0-.49.43M398.46 54.62v-1.47H211v.13c-2.51 8.91-4.42 54-4.42 105.13s1.9 97.49 4.42 102.49a1.65 1.65 0 0 0 1.74.69h185.45c-2.62-7.14-4.64-50.61-4.64-103.18 0-54.41 2.16-99 4.91-103.79z"/><rect class="gs34-15" x="240.86" y="62.91" width="66.55" height="181.17" rx="2.9" ry="2.9"/><path class="gs34-10" d="M260.82 82.44h3.44a2.32 2.32 0 0 1 0 4.64h-2.4v3.21h-1zm1 3.76h2c1.18 0 1.72-.51 1.72-1.44s-.54-1.44-1.72-1.44h-2v2.88zM270 84.51a3 3 0 1 1-2.75 3.23v-.23a2.7 2.7 0 0 1 2.38-3zm0 5.13a1.86 1.86 0 0 0 1.77-2.15 1.81 1.81 0 1 0-3.54 0A1.83 1.83 0 0 0 270 89.6zM273.61 82.44h.94v7.86h-.94v-7.86zM276.71 83.58h-.94v-1.14h.94v1.14zm-.94 1h.94v5.69h-.94v-5.69zM281.75 86.43a1.32 1.32 0 0 0-1.4-1.13c-1.35 0-1.77 1.07-1.77 2.22s.47 2.08 1.66 2.08a1.47 1.47 0 0 0 1.56-1.38h1a2.36 2.36 0 0 1-2.5 2.21 2.59 2.59 0 0 1-2.66-2.9c0-1.71.88-3 2.68-3a2.18 2.18 0 0 1 2.44 1.89v.11zM285.75 91.05c-.43 1.11-.81 1.52-1.65 1.52a1.88 1.88 0 0 1-.65-.1v-.86a1.93 1.93 0 0 0 .55.13.81.81 0 0 0 .77-.52l.39-1-2.26-5.65h1.1l1.66 4.65 1.6-4.65h1z"/><rect class="gs34-5" x="250.42" y="111.86" width="47.44" height="106.13" rx="2.9" ry="2.9"/><path class="gs34-12" d="M258.55 157.67h4.09c2.65 0 3.16 1.72 3.16 2.87s-.51 2.86-3.16 2.85h-2.47V167h-1.62v-9.28zm1.63 4.39h2.38a1.48 1.48 0 0 0 1.63-1.53 1.38 1.38 0 0 0-1.6-1.53h-2.41v3.06zM266.69 160.23h1.39v1.28a2.17 2.17 0 0 1 2-1.48 3.56 3.56 0 0 1 .56 0v1.48a5.41 5.41 0 0 0-.64-.06c-1 0-1.82.82-1.82 2.3V167h-1.48v-6.72zM270.35 163.59a3.4 3.4 0 1 1 3.39 3.55 3.25 3.25 0 0 1-3.39-3.55zm5.3 0c0-1.16-.58-2.37-1.91-2.37s-1.91 1.21-1.91 2.37.58 2.38 1.91 2.38a2.12 2.12 0 0 0 2-2.38h-.05z"/><path class="gs34-12" d="M279.9 163.42l-2.33-3.19h1.78l1.4 2.07 1.47-2.07h1.72l-2.29 3.11 2.57 3.61h-1.78l-1.7-2.48-1.65 2.53h-1.74zM284 160.23h1.63l1.75 5 1.7-5h1.55l-2.63 7.09c-.48 1.21-.83 2.3-2.38 2.3a6.74 6.74 0 0 1-1-.08v-1.25a4.32 4.32 0 0 0 .7.09.94.94 0 0 0 1-.94l.17-.52z"/><rect class="gs34-15" x="314.19" y="62.91" width="66.55" height="181.17" rx="2.9" ry="2.9"/><path class="gs34-10" d="M334.15 82.44h3.44a2.32 2.32 0 0 1 0 4.64h-2.4v3.21h-1zm1 3.76h2c1.18 0 1.72-.51 1.72-1.44s-.54-1.44-1.72-1.44h-2v2.88zM343.35 84.51a3 3 0 1 1-2.75 3.23v-.23a2.7 2.7 0 0 1 2.38-3zm0 5.13a1.86 1.86 0 0 0 1.77-2.15 1.81 1.81 0 1 0-3.54 0 1.82 1.82 0 0 0 1.77 2.11zM346.94 82.44h.94v7.86h-.94v-7.86zM350.05 83.58h-.94v-1.14h.94v1.14zm-.94 1h.94v5.69h-.94v-5.69zM355.08 86.43a1.32 1.32 0 0 0-1.41-1.13c-1.35 0-1.77 1.07-1.77 2.22s.47 2.08 1.66 2.08a1.47 1.47 0 0 0 1.56-1.38h1a2.36 2.36 0 0 1-2.5 2.21 2.59 2.59 0 0 1-2.66-2.9c0-1.71.88-3 2.68-3a2.18 2.18 0 0 1 2.44 1.89v.11zM359.09 91.05c-.43 1.11-.81 1.52-1.65 1.52a1.88 1.88 0 0 1-.65-.1v-.86a1.93 1.93 0 0 0 .55.13.81.81 0 0 0 .77-.52l.39-1-2.26-5.65h1.06l1.7 4.65 1.6-4.65h1z"/><rect class="gs34-5" x="323.75" y="111.87" width="47.44" height="106.13" rx="2.9" ry="2.9"/><path class="gs34-12" d="M337.35 152.79H339V157l4.13-4.22h2l-3.71 3.72 4 5.58h-2l-3-4.43-1.35 1.35v3.12h-1.72v-9.3zM346.87 159.09a1.79 1.79 0 0 0 1.57 2h.24a1.56 1.56 0 0 0 1.64-1.12h1.4a2.94 2.94 0 0 1-3 2.29c-2.11 0-3.29-1.47-3.29-3.54a3.25 3.25 0 1 1 6.42.38h-5zm3.46-1a1.73 1.73 0 0 0-3.46 0h3.46zM351.88 155.35h1.63l1.75 5 1.7-5h1.55l-2.61 7.09c-.48 1.21-.83 2.3-2.38 2.3a6.73 6.73 0 0 1-1-.08v-1.25a4.33 4.33 0 0 0 .7.09.94.94 0 0 0 1-.94l.17-.52zM337.47 166h1.73l3.58 9.28H341l-.87-2.46h-3.72l-.87 2.46h-1.64zm-.57 5.59h2.83l-1.39-4zM349 175.32h-1.46v-.94a2.26 2.26 0 0 1-1.91 1.12c-1.75 0-2.51-.88-2.51-2.64v-4.26h1.48v4.12c0 1.18.48 1.61 1.29 1.61a1.55 1.55 0 0 0 1.65-1.83v-3.9h1.48zM349.58 168.59h1.12v-2h1.48v2h1.34v1.11h-1.34v3.59c0 .61 0 .92.71.92a2.54 2.54 0 0 0 .62-.05v1.14c-.33 0-.64.08-1 .08-1.55 0-1.83-.6-1.86-1.72v-4h-1.12zM354.27 166h1.48v3.48a2.35 2.35 0 0 1 2-1.07 2.13 2.13 0 0 1 2.38 2.29v4.62h-1.48v-4.23a1.24 1.24 0 0 0-1.31-1.51 1.64 1.64 0 0 0-1.63 1.65v4.12h-1.48z"/><path class="gs34-11" d="M216.63 53.15H225c-.82-.15-4.85-.07-8.37 0zM225.18 53.27l175.12-.12H225h.17zM211 53.15v.13l5.59-.13H211zM258.35 261.59h-1.42a10.67 10.67 0 0 0 1.42 0z"/><path class="gs34-11" d="M400.35 261.24l-3.18-19.36H275.84c-13.69 0-31.53-1.73-43.63-19.36-11.3-16.47-15.92-48-15.92-71.85 0-33.21-2-87.31 34.76-97.4h-40c-2.54 8.91-4.46 46.14-4.46 97.22s1.92 105.39 4.46 110.4a1.67 1.67 0 0 0 1.76.69h44.11a18.57 18.57 0 0 1-2.63-.35h146.06z"/><path class="gs34-5" d="M220.08 247h4.07a2.75 2.75 0 0 1 .33 5.49h-3.13v3.8h-1.24zm1.27 4.45h2.42c1.39 0 2-.6 2-1.7s-.64-1.7-2-1.7h-2.42v3.4zM229.17 248.32h-1.11V247h1.11v1.35zm-1.11 1.19h1.11v6.72h-1.11v-6.72zM230.6 249.51h1.11v.91a2.26 2.26 0 0 1 2.15-1.07c2.07 0 3.09 1.64 3.09 3.54s-1 3.5-3.07 3.5a2.58 2.58 0 0 1-2.17-1.05v3.47h-1.11v-9.3zm3.12.82c-1.48 0-2.05 1.27-2.05 2.54s.6 2.55 2.12 2.55 2-1.29 2-2.6-.64-2.48-2.07-2.48zM243.67 254.12a2.71 2.71 0 0 1-2.87 2.29c-2.15 0-3.16-1.48-3.22-3.54a3.24 3.24 0 0 1 3-3.49h.19c2.38 0 3.11 2.22 3 3.85h-5a2 2 0 0 0 1.78 2.2h.31a1.62 1.62 0 0 0 1.74-1.31h1.1zm-1.07-1.87a1.93 1.93 0 0 0-1.94-1.9 1.91 1.91 0 0 0-1.92 1.9h3.86zM244.66 247h1.1v9.28h-1.1V247zM248.35 248.32h-1.1V247h1.1v1.35zm-1.1 1.21h1.1v6.72h-1.1v-6.72zM249.72 249.51h1v1.07a2.34 2.34 0 0 1 2.18-1.22c1.77 0 2.31 1 2.31 2.46v4.42h-1.11v-4.55a1.27 1.27 0 0 0-1.18-1.35h-.18a1.89 1.89 0 0 0-2 2.11v3.8h-1.11zM262.35 254.12a2.71 2.71 0 0 1-2.87 2.29c-2.15 0-3.16-1.48-3.22-3.54a3.24 3.24 0 0 1 3-3.49h.19c2.38 0 3.11 2.22 3 3.85h-5a2 2 0 0 0 1.78 2.2h.31a1.62 1.62 0 0 0 1.74-1.31h1.1zm-1.07-1.87a1.93 1.93 0 0 0-1.94-1.9 1.91 1.91 0 0 0-1.92 1.9h3.86zM269.35 247c2.89 0 3.07 2.65 3.07 4.69s-.18 4.68-3.07 4.68-3.07-2.65-3.07-4.68.18-4.69 3.07-4.69zm0 8.4c1.88 0 1.9-2.34 1.9-3.72s0-3.71-1.9-3.71-1.9 2.34-1.9 3.71.01 3.75 1.9 3.75zM275.47 251h.53a1.56 1.56 0 0 0 1.74-1.36v-.15a1.46 1.46 0 0 0-1.43-1.49h-.21a1.75 1.75 0 0 0-1.74 2h-1.11c.07-1.75 1-3 2.85-3 1.6 0 2.81.77 2.81 2.47a2.11 2.11 0 0 1-1.27 1.83 2.1 2.1 0 0 1 1.66 2.24c0 1.85-1.44 2.81-3.17 2.81a2.79 2.79 0 0 1-3.07-3h1.1a1.87 1.87 0 0 0 1.73 2h.27a1.83 1.83 0 0 0 2-1.65v-.13a1.76 1.76 0 0 0-1.73-1.79h-.27a5.44 5.44 0 0 0-.66 0V251zM277.72 366.22h98.06v34.95h-98.06z"/><path class="gs34-16" d="M480.54 155.67l-.1 257.11c-1.59 10.29-8.77 18.22-17.54 18.22h-268c-8.77 0-15.94-8-15.94-17.66V39.82c0-9.71 7.17-17.66 15.94-17.66l269.73-.11c8.77 0 15.94 8 15.94 17.66z"/><path class="gs34-11" d="M260 408.26h9.25v1.94h-7v3.37h6.48v1.84h-6.47v3.76h7.1v1.94H260zM273.35 416.22l-3.22-4.41h2.48l1.94 2.86 2-2.86h2.38l-3.17 4.3 3.56 5h-2.47l-2.36-3.44-2.29 3.44h-2.41zM280.41 411.81h1.94v1.26a3.11 3.11 0 0 1 2.88-1.51c2.93 0 4.36 2.23 4.36 5 0 2.5-1.26 4.86-4 4.86a3.62 3.62 0 0 1-3.12-1.46v4.55h-2v-12.7zm4.59 1.37c-1.73 0-2.61 1.31-2.61 3.29s1 3.28 2.61 3.28c1.87 0 2.58-1.66 2.58-3.28s-.89-3.29-2.58-3.29zM291.17 411.81h1.93v1.8a3 3 0 0 1 2.75-2.1 5 5 0 0 1 .77 0v2a7.31 7.31 0 0 0-.88-.09c-1.4 0-2.52 1.13-2.52 3.19v4.43h-2v-9.28zM298.61 417a2.48 2.48 0 0 0 2.19 2.74h.31a2.16 2.16 0 0 0 2.27-1.55h2a4.08 4.08 0 0 1-4.21 3.17c-2.92 0-4.56-2-4.56-4.9 0-2.65 1.73-4.92 4.5-4.92 2.93 0 4.74 2.65 4.39 5.44h-6.86zm4.79-1.35a2.4 2.4 0 1 0-4.79 0h4.79zM308.35 418.13a1.81 1.81 0 0 0 2.11 1.62c.77 0 2.13-.16 2.07-1.22s-1.55-1.21-3-1.55-3-.86-3-2.75 2.2-2.66 3.89-2.66c1.91 0 3.64.79 3.89 2.86h-2.14a1.62 1.62 0 0 0-1.89-1.24c-.59 0-1.69.14-1.69 1s1.51 1.15 3 1.5 3 .88 3 2.72c0 2.21-2.23 3-4.16 3-2.34 0-4.09-1-4.12-3.24zM317.54 418.13a1.81 1.81 0 0 0 2.11 1.62c.77 0 2.13-.16 2.07-1.22s-1.55-1.21-3-1.55-3-.86-3-2.75 2.2-2.66 3.89-2.66c1.91 0 3.64.79 3.89 2.86h-2.15a1.62 1.62 0 0 0-1.89-1.24c-.59 0-1.69.14-1.69 1s1.51 1.15 3 1.5 3 .88 3 2.72c0 2.21-2.23 3-4.16 3-2.34 0-4.09-1-4.12-3.24zM341.49 421.12h-1.44l-.34-1.51a4.63 4.63 0 0 1-3.87 1.82c-3.85 0-6.16-3.06-6.16-6.73s2.32-6.7 6.16-6.7c2.81 0 5.17 1.5 5.51 4.39h-2.2a3.07 3.07 0 0 0-3.31-2.56c-2.75 0-3.91 2.43-3.91 4.9s1.15 4.9 3.91 4.9a3.27 3.27 0 0 0 3.6-3.53H336v-1.71h5.47v6.76zM351.26 419.05c0 .5.11.7.49.7a2.83 2.83 0 0 0 .5 0v1.42a5.14 5.14 0 0 1-1.3.23 1.37 1.37 0 0 1-1.58-1.13 4.78 4.78 0 0 1-3.22 1.13c-1.67 0-3.19-.9-3.19-2.72 0-2.32 1.85-2.7 3.58-2.9 1.48-.27 2.79-.11 2.79-1.31s-1.1-1.26-1.93-1.26c-1.15 0-2 .47-2 1.48h-2c.14-2.39 2.18-3.1 4.23-3.1 1.82 0 3.73.74 3.73 2.7zm-2-2.59a7.33 7.33 0 0 1-2.52.56c-.88.14-1.67.47-1.67 1.55 0 .92 1.17 1.19 1.89 1.19.9 0 2.3-.47 2.3-1.76v-1.54zM352.35 411.81h1.55V409h2v2.79h1.85v1.53H356v5c0 .85.07 1.28 1 1.28a3.49 3.49 0 0 0 .86-.07v1.58c-.45 0-.88.11-1.33.11-2.14 0-2.54-.83-2.58-2.38v-5.49h-1.55v-1.56zM360.71 417a2.48 2.48 0 0 0 2.19 2.74h.31a2.16 2.16 0 0 0 2.27-1.55h1.94a4.08 4.08 0 0 1-4.21 3.17c-2.92 0-4.56-2-4.56-4.9 0-2.65 1.73-4.92 4.5-4.92 2.93 0 4.74 2.65 4.39 5.44h-6.83zm4.79-1.35a2.4 2.4 0 1 0-4.79 0h4.79zM368.09 411.81h2.18l1.82 7 1.75-7h2.07l1.67 7 1.89-7h2.09l-2.92 9.31h-2.11l-1.73-6.91-1.71 6.91h-2.16zM390.55 419.05c0 .5.11.7.49.7a2.83 2.83 0 0 0 .5 0v1.42a5.14 5.14 0 0 1-1.3.23 1.37 1.37 0 0 1-1.58-1.13 4.78 4.78 0 0 1-3.22 1.13c-1.67 0-3.19-.9-3.19-2.72 0-2.32 1.85-2.7 3.58-2.9 1.48-.27 2.79-.11 2.79-1.31s-1.1-1.26-1.93-1.26c-1.15 0-2 .47-2 1.48h-2c.14-2.39 2.18-3.1 4.23-3.1 1.82 0 3.73.74 3.73 2.7v4.76zm-2-2.59a7.34 7.34 0 0 1-2.55.54c-.88.14-1.67.47-1.67 1.55 0 .92 1.17 1.19 1.89 1.19.9 0 2.3-.47 2.3-1.76v-1.54zM391.56 411.81h2.25l2.43 7 2.36-7h2.14l-3.62 9.81c-.67 1.67-1.15 3.19-3.29 3.19a9.25 9.25 0 0 1-1.42-.11V423a6 6 0 0 0 1 .13c1 0 1.19-.5 1.44-1.3l.23-.72z"/><rect class="gs34-11" x="284.79" y="334.97" width="81.49" height="62.96" rx="3.14" ry="3.14"/><path class="gs34-12" d="M307.74 343.73a2 2 0 0 0-2.13-1.62c-1.81 0-2.58 1.49-2.58 3.08s.77 3.19 2.59 3.19a2.16 2.16 0 0 0 2.2-2.12v-.08h1a3.1 3.1 0 0 1-3.14 3.06h-.16c-2.37 0-3.52-1.75-3.52-4s1.26-4 3.61-4a2.91 2.91 0 0 1 3.13 2.47zM312 343.41a2.89 2.89 0 1 1-2.67 3.09v-.2a2.62 2.62 0 0 1 2.33-2.88h.34zm0 5a2.12 2.12 0 1 0-1.72-2.08 1.79 1.79 0 0 0 1.72 2zM315.52 343.51h.83v.88a1.92 1.92 0 0 1 1.79-1 1.71 1.71 0 0 1 1.9 2V349h-.91v-3.73a1 1 0 0 0-1.12-1.11 1.55 1.55 0 0 0-1.63 1.73V349h-.91zM321.73 347.32a1.22 1.22 0 0 0 1.48 1.07c.57 0 1.33-.13 1.33-.82s-.9-.82-1.8-1-1.8-.5-1.8-1.56a1.84 1.84 0 0 1 2.06-1.57c1.22 0 2.19.38 2.26 1.73h-.91a1.11 1.11 0 0 0-1.28-.93c-.6 0-1.17.15-1.17.7s1 .76 1.8 1 1.8.5 1.8 1.57c0 1.31-1.23 1.74-2.35 1.74a2.05 2.05 0 0 1-2.34-1.87zM330.81 349.06H330v-.87a1.92 1.92 0 0 1-1.79 1 1.71 1.71 0 0 1-1.9-2v-3.68h.91v3.73a1 1 0 0 0 1.12 1.11 1.55 1.55 0 0 0 1.63-1.73v-3.11h.91zM331.9 343.51h.85v.81a2 2 0 0 1 1.78-.94 1.46 1.46 0 0 1 1.51.94 2 2 0 0 1 1.73-.94 1.54 1.54 0 0 1 1.83 1.6v4h-.91v-3.62a1 1 0 0 0-1.07-1.23 1.34 1.34 0 0 0-1.44 1.41V349h-.83v-3.62a1 1 0 0 0-1-1.23 1.49 1.49 0 0 0-1.47 1.41V349H332zM345.43 347.31a2.22 2.22 0 0 1-2.36 1.88c-1.76 0-2.59-1.22-2.65-2.9a2.65 2.65 0 0 1 2.42-2.86h.16c2 0 2.55 1.82 2.5 3.16h-4.16a1.62 1.62 0 0 0 1.41 1.8h.31a1.33 1.33 0 0 0 1.43-1.08h.93zm-.87-1.54a1.59 1.59 0 0 0-1.59-1.56 1.57 1.57 0 0 0-1.58 1.56h3.17zM346.15 343.51h.85v1.16a2 2 0 0 1 2-1.29v1c-1.46 0-2 .83-2 2.23v2.45h-.91zM296.05 352.45h1.39l2.4 6.4 2.41-6.4h1.39v7.62h-1v-6.34l-2.38 6.34h-.86l-2.4-6.34v6.34h-1zM309.79 360.05a1.23 1.23 0 0 1-.65.15.73.73 0 0 1-.77-.85 2.45 2.45 0 0 1-1.94.85 1.56 1.56 0 0 1-1.82-1.55c0-1.1.93-1.51 1.87-1.7s1.86-.13 1.86-.81a1 1 0 0 0-1.23-.92 1.13 1.13 0 0 0-1.38 1h-.91c0-1.37 1.11-1.85 2.34-1.85 1 0 2.07.22 2.07 1.51v2.84c0 .43 0 .62.29.62a.77.77 0 0 0 .28 0v.76zm-1.44-2.83a4.66 4.66 0 0 1-1.64.37 1.06 1.06 0 0 0-1.11 1 .85.85 0 0 0 1.07.81 1.48 1.48 0 0 0 1.69-1.25v-.93zM310.35 354.51h.85v.88a1.92 1.92 0 0 1 1.79-1 1.71 1.71 0 0 1 1.9 2V360H314v-3.73a1 1 0 0 0-1.12-1.11 1.55 1.55 0 0 0-1.63 1.73V360h-.88v-5.51zM320.9 360.05a1.22 1.22 0 0 1-.65.15.73.73 0 0 1-.77-.85 2.45 2.45 0 0 1-1.94.85 1.56 1.56 0 0 1-1.82-1.55c0-1.1.93-1.51 1.87-1.7s1.86-.13 1.86-.81a1 1 0 0 0-1.23-.92 1.11 1.11 0 0 0-1.37 1h-.91c0-1.37 1.11-1.85 2.34-1.85 1 0 2.07.22 2.07 1.51v2.84c0 .43 0 .62.29.62a.77.77 0 0 0 .28 0zm-1.47-2.83a4.67 4.67 0 0 1-1.64.37 1.06 1.06 0 0 0-1.11 1 .85.85 0 0 0 1.07.81 1.48 1.48 0 0 0 1.69-1.25v-.93zM326.23 359.6c0 1.79-.82 2.71-2.56 2.71-1 0-2.23-.42-2.28-1.62h.91c0 .66.83.9 1.43.9 1.18 0 1.65-.85 1.65-2.09v-.36a1.84 1.84 0 0 1-1.72 1 2.49 2.49 0 0 1-2.46-2.79c0-1.3.64-2.91 2.55-2.91a1.8 1.8 0 0 1 1.64.92v-.85h.85v5.09zm-.89-2.4c0-1-.43-2-1.57-2a1.75 1.75 0 0 0-1.63 2c0 1 .36 2.1 1.56 2.1s1.65-1.07 1.65-2.1zM332 358.32a2.22 2.22 0 0 1-2.36 1.88c-1.76 0-2.59-1.22-2.65-2.9a2.65 2.65 0 0 1 2.42-2.86h.17c2 0 2.55 1.82 2.5 3.16H328a1.62 1.62 0 0 0 1.41 1.8h.31a1.33 1.33 0 0 0 1.43-1.08h.85zm-.87-1.54a1.59 1.59 0 0 0-1.59-1.56 1.57 1.57 0 0 0-1.58 1.56h3.17zM332.79 354.51h.85v.81a2 2 0 0 1 1.78-.94 1.46 1.46 0 0 1 1.51.94 2 2 0 0 1 1.73-.94 1.54 1.54 0 0 1 1.83 1.6v4h-.91v-3.62a1 1 0 0 0-1.07-1.23 1.34 1.34 0 0 0-1.44 1.41V360h-.91v-3.62a1 1 0 0 0-1-1.23 1.49 1.49 0 0 0-1.47 1.41V360h-.91v-5.45zM346.35 358.32a2.22 2.22 0 0 1-2.35 1.88c-1.76 0-2.59-1.22-2.65-2.9a2.65 2.65 0 0 1 2.42-2.86h.17c2 0 2.55 1.82 2.5 3.16h-4.14a1.62 1.62 0 0 0 1.41 1.8h.29a1.33 1.33 0 0 0 1.43-1.08h.9zm-.87-1.54a1.59 1.59 0 0 0-1.59-1.56 1.57 1.57 0 0 0-1.58 1.56h3.17zM347.07 354.51h.85v.88a1.92 1.92 0 0 1 1.79-1 1.71 1.71 0 0 1 1.9 2V360h-.91v-3.73a1 1 0 0 0-1.12-1.11 1.55 1.55 0 0 0-1.63 1.73V360H347zM354 354.51h1.1v.8H354v3.42c0 .42.12.49.68.49h.42v.78h-.74c-.94 0-1.31-.19-1.31-1.21v-3.49h-.95v-.79h.9v-1.65h1z"/><path class="gs34-5" d="M312.35 373.56c0 5.58-3.17 10.1-7.07 10.1S299 378.6 299 373c0-2.48-.56-4.39 1.13-5.08s3.55-2.3 3.5-3c-.06-.94.72-.23 1.69-.23 3.93-.01 7.03 3.31 7.03 8.87z"/><path class="gs34-17" d="M311.6 377c.1-.52.78-.32 1.07-1.55.43-1.8-.44-2.07-1-1.71M299.35 377c.57 3.81 3.09 6.67 6.11 6.67s5.54-2.87 6.11-6.67M302.76 376.36h1.42M307.23 376.36h1.42M303.89 380.64a2.47 2.47 0 0 0 3.21 0"/><path class="gs34-17" d="M304 364.74a2.62 2.62 0 0 1-.43 1.39c-.63.9-1.54.79-2.61 1.43a4.91 4.91 0 0 0-2.17 3.17 5.11 5.11 0 0 0 1 3.85 7.19 7.19 0 0 1 1.27-3.5 9.89 9.89 0 0 0 7.38 3 13.16 13.16 0 0 1-.59-1.24c-.19-.46-.33-.85-.46-1.24q.77.65 1.63 1.3c.8.61 1.58 1.16 2.34 1.66a6.36 6.36 0 0 0 .83-4.33c-.62-2.98-3.94-5.4-8.19-5.49z"/><path class="gs34-18" d="M508.41 238.37h3.82c1.41 0 2.33.64 2.33 1.95a1.73 1.73 0 0 1-1.12 1.67 1.87 1.87 0 0 1 1.47 2c0 1.23-.86 2.19-2.89 2.19h-3.61v-7.81zm1.38 3.29H512a1 1 0 0 0 1.15-1.09 1 1 0 0 0-1.15-1.08h-2.25v2.17zm0 3.44h2.43a1.24 1.24 0 0 0 .22-2.46h-2.65v2.45zM515.44 243.38a2.87 2.87 0 1 1 2.87 3 2.75 2.75 0 0 1-2.87-3zm4.49 0a1.66 1.66 0 1 0-1.62 2 1.75 1.75 0 0 0 1.62-2zM522 238.37h1.25v2.9a2.07 2.07 0 0 1 1.69-.89c1.79 0 2.66 1.36 2.66 3s-.77 3-2.45 3a2 2 0 0 1-2-.94v.78h-1.19zm2.8 3c-1.06 0-1.59.8-1.59 2s.58 2 1.59 2a1.79 1.79 0 0 0 1.57-2 1.77 1.77 0 0 0-1.56-2z"/><path class="gs34-5" d="M527.51 217.74c0 8-4.54 14.47-10.13 14.47s-9-7.25-9-15.24c0-3.55-.8-6.29 1.62-7.28 2.61-1.07 5.08-3.29 5-4.37-.09-1.34 1-.32 2.43-.32 5.57 0 10.08 4.75 10.08 12.74z"/><path class="gs34-19" d="M526.4 222.66c.15-.75 1.12-.46 1.54-2.22.62-2.57-.64-3-1.36-2.46M508.9 222.66c.82 5.45 4.43 9.56 8.75 9.56s7.93-4.11 8.75-9.56M513.74 221.75h2.03M520.14 221.75h2.03M515.35 227.88a3.54 3.54 0 0 0 4.6 0"/><path class="gs34-19" d="M515.53 205.1a3.75 3.75 0 0 1-.62 2c-.9 1.29-2.21 1.13-3.73 2.05a7 7 0 0 0-3.11 4.54 7.32 7.32 0 0 0 1.39 5.52 10.31 10.31 0 0 1 1.82-5 14.17 14.17 0 0 0 10.57 4.3 21.132 21.132 0 0 1-1.49-3.54q1.1.92 2.33 1.87c1.15.87 2.27 1.66 3.35 2.37a9.12 9.12 0 0 0 1.19-6.2c-.88-4.3-5.62-7.78-11.7-7.91z"/><path class="gs34-20" d="M478.23 191.18h-4"/><path class="gs34-21" d="M466.51 191.18H393.1"/><path class="gs34-20" d="M389.23 191.18h-4"/><path class="gs34-18" d="M500.89 186.4h1.77v1.6a2.75 2.75 0 0 1 2.49-1.88 4.45 4.45 0 0 1 .71 0V188a6.66 6.66 0 0 0-.81-.08c-1.29 0-2.31 1-2.31 2.92v4.06h-1.88zM507.88 191.15a2.27 2.27 0 0 0 2 2.51h.28a2 2 0 0 0 2.08-1.42H514a3.73 3.73 0 0 1-3.86 2.9c-2.67 0-4.17-1.86-4.17-4.49a4.13 4.13 0 1 1 8.15.48h-6.27zm4.39-1.24a2.2 2.2 0 1 0-4.39 0h4.39zM523.61 198.08h-1.88v-4.26a3.32 3.32 0 0 1-2.85 1.34c-2.52 0-3.68-2.16-3.68-4.45 0-2.49 1.3-4.54 4-4.54a2.85 2.85 0 0 1 2.64 1.39v-1.15h1.78v11.67zm-4.21-4.4c1.63 0 2.39-1.22 2.39-3s-.82-3-2.39-3-2.36 1.47-2.36 3 .65 3 2.37 3zM533.15 194.93h-1.8v-1.19a2.86 2.86 0 0 1-2.42 1.42c-2.23 0-3.18-1.12-3.18-3.35v-5.41h1.88v5.23c0 1.5.61 2 1.63 2 1.57 0 2.09-1 2.09-2.33v-4.95h1.88zM536.6 191.15a2.27 2.27 0 0 0 2 2.51h.28a2 2 0 0 0 2.08-1.42h1.78a3.73 3.73 0 0 1-3.86 2.9c-2.67 0-4.17-1.86-4.17-4.49a4.13 4.13 0 1 1 8.15.48h-6.26zm4.39-1.24a2.2 2.2 0 0 0-4.39 0h4.4zM545.73 192.19a1.66 1.66 0 0 0 1.93 1.48c.71 0 2-.15 1.9-1.12s-1.42-1.11-2.79-1.42-2.74-.79-2.74-2.52 2-2.44 3.56-2.44c1.75 0 3.33.73 3.56 2.62h-2a1.51 1.51 0 0 0-1.73-1.14c-.54 0-1.55.13-1.55.87 0 .92 1.39 1.06 2.77 1.37s2.75.81 2.75 2.49c0 2-2 2.77-3.81 2.77-2.14 0-3.74-1-3.78-3zM552 186.4h1.42v-2.56h1.92v2.56h1.7v1.4h-1.7v4.55c0 .78.07 1.17.91 1.17a3.24 3.24 0 0 0 .79-.07v1.45c-.41 0-.81.1-1.22.1-2 0-2.33-.76-2.36-2.18v-5h-1.42zM563 183.15h1.88v4.36a3.11 3.11 0 0 1 2.54-1.34c2.69 0 4 2 4 4.54 0 2.29-1.15 4.45-3.68 4.45a3 3 0 0 1-3-1.4v1.17H563zm4.21 4.5c-1.58 0-2.39 1.2-2.39 3s.87 3 2.39 3c1.72 0 2.36-1.52 2.36-3s-.81-3-2.36-3zM572.09 186.4h2.06l2.23 6.37 2.16-6.37h2l-3.32 9c-.61 1.53-1.06 2.92-3 2.92a8.46 8.46 0 0 1-1.3-.1v-1.58a5.56 5.56 0 0 0 .89.12 1.26 1.26 0 0 0 1.32-1.19l.21-.66z"/><path class="gs34-22" d="M498.26 175.03l-14.62 14.63 14.62 14.62"/><path class="gs34-12" d="M400.75 176.85h-11.72l-8.29 8.29v11.73l8.29 8.29h11.72l8.29-8.29v-11.73l-8.29-8.29z"/><path class="gs34-23" d="M402.63 183.27l-15.48 15.48M387.15 183.27l15.48 15.48"/><path class="gs34-10" d="M297.17 386.4h3.29c1.21 0 2 .55 2 1.68a1.49 1.49 0 0 1-1 1.44 1.61 1.61 0 0 1 1.27 1.74c0 1.06-.74 1.89-2.49 1.89h-3.11zm1.18 2.83h1.93a.91.91 0 0 0 1-.94.84.84 0 0 0-1-.93h-1.93v1.87zm0 3h2.09a1 1 0 1 0 .15-2.08h-2.24v2.07zM303.22 390.71a2.48 2.48 0 1 1 2.47 2.59 2.37 2.37 0 0 1-2.47-2.59zm3.87 0a1.42 1.42 0 1 0-1.39 1.73 1.52 1.52 0 0 0 1.39-1.73zM308.86 386.4h1.08v2.5a1.78 1.78 0 0 1 1.46-.77c1.54 0 2.29 1.17 2.29 2.61s-.66 2.56-2.11 2.56a1.75 1.75 0 0 1-1.7-.81v.67h-1zm2.42 2.59c-.91 0-1.37.69-1.37 1.73a1.46 1.46 0 0 0 1.37 1.72 1.78 1.78 0 0 0 0-3.46z"/><path class="gs34-24" d="M0 0h679.23v432.67H0z"/></svg>