<svg id="gs-3-5" xmlns="http://www.w3.org/2000/svg" viewBox="0 0 679.23 432.67"><defs><style>.gs35-1,.gs35-14{fill:#74cfe8;}.gs35-1{opacity:0.15;}.gs35-1,.gs35-13,.gs35-3{isolation:isolate;}.gs35-2,.gs35-3{fill:#35a9c5;}.gs35-3{opacity:0.2;}.gs35-12,.gs35-15,.gs35-16,.gs35-18,.gs35-19,.gs35-20,.gs35-21,.gs35-4,.gs35-6{fill:none;}.gs35-16,.gs35-4,.gs35-6{stroke:#136d7c;}.gs35-12,.gs35-15,.gs35-16,.gs35-18,.gs35-19,.gs35-4,.gs35-6{stroke-linecap:round;}.gs35-12,.gs35-16,.gs35-18,.gs35-19,.gs35-4,.gs35-6{stroke-linejoin:round;}.gs35-4{stroke-width:1.5px;}.gs35-5{opacity:0.4;}.gs35-6{stroke-width:2.5px;}.gs35-13,.gs35-23,.gs35-7{fill:#fff;}.gs35-8{opacity:0.63;}.gs35-9{fill:#136d7c;}.gs35-10{fill:#ffc60a;}.gs35-11{fill:#37403f;}.gs35-12,.gs35-15{stroke:#ffc60a;}.gs35-12,.gs35-19{stroke-width:2px;}.gs35-13{opacity:0.8;}.gs35-15,.gs35-20,.gs35-21,.gs35-22{stroke-miterlimit:10;}.gs35-15{stroke-width:3px;}.gs35-17{fill:#73645a;}.gs35-18,.gs35-20,.gs35-21,.gs35-22{stroke:#73645a;}.gs35-19{stroke:#35a9c5;}.gs35-20,.gs35-21,.gs35-22{stroke-width:4px;}.gs35-21{stroke-dasharray:8.08 8.08;}.gs35-22{fill:#eef8f8;}.gs35-23{opacity:0;}</style></defs><title>sized</title><rect class="gs35-1" x="34.49" y="69.37" width="172.12" height="250.17" rx="15" ry="15"/><path class="gs35-2" d="M70.6,196.47c0,2,1.46,2.75,3.26,2.75,2,0,2.72-1,2.72-1.94a1.53,1.53,0,0,0-1.07-1.62c-0.9-.34-2.07-0.58-3.83-1.06-2.2-.59-2.84-1.93-2.84-3.26,0-2.57,2.38-3.78,4.7-3.78,2.68,0,4.93,1.42,4.93,4.11H76.21C76.1,190,75,189.4,73.44,189.4c-1,0-2.36.38-2.36,1.67a1.74,1.74,0,0,0,1.53,1.66c0.2,0.05,3,.79,3.71,1a3.4,3.4,0,0,1,2.5,3.28c0,2.88-2.56,4-5.11,4-2.93,0-5.31-1.4-5.37-4.59Z"/><path class="gs35-2" d="M81.65,196.66a2.48,2.48,0,0,0,2.19,2.74h0.31a2.16,2.16,0,0,0,2.24-1.58h2A4.08,4.08,0,0,1,84.18,201c-2.92,0-4.55-2-4.55-4.9,0-2.65,1.73-4.92,4.5-4.92,2.93,0,4.74,2.65,4.39,5.44Zm4.74-1.38a2.4,2.4,0,1,0-4.79,0h4.79Z"/><path class="gs35-2" d="M89.6,191.44h1.93v1.8h0a3,3,0,0,1,2.72-2.05,5,5,0,0,1,.77.05v2a7.31,7.31,0,0,0-.88-0.09c-1.41,0-2.52,1.13-2.52,3.19v4.43h-2v-9.33Z"/><path class="gs35-2" d="M94.57,191.44H96.8l2.36,7.15h0l2.27-7.15h2.13l-3.33,9.31h-2.3Z"/><path class="gs35-2" d="M104.39,187.9h2.05v1.94h-2.05V187.9Zm0,3.55h2.05v9.31h-2.05v-9.31Z"/><path class="gs35-2" d="M114.55,194.56a2,2,0,0,0-2.12-1.75c-1.06,0-2.56.56-2.56,3.38,0,1.55.69,3.19,2.47,3.19a2.21,2.21,0,0,0,2.21-2.12h2.05a4,4,0,0,1-4.23,3.75h0c-2.92,0-4.52-2.07-4.52-4.81s1.53-5,4.59-5c2.16,0,4,1.08,4.2,3.37h-2.05Z"/><path class="gs35-2" d="M119.39,196.66a2.48,2.48,0,0,0,2.19,2.74h0.31a2.16,2.16,0,0,0,2.27-1.55h1.94a4.08,4.08,0,0,1-4.21,3.17c-2.92,0-4.55-2-4.55-4.9,0-2.65,1.73-4.92,4.5-4.92,2.93,0,4.74,2.65,4.39,5.44h-6.84Zm4.79-1.35a2.4,2.4,0,1,0-4.79,0h4.79Z"/><path class="gs35-2" d="M128.93,197.76a1.81,1.81,0,0,0,2.11,1.62c0.77,0,2.12-.16,2.07-1.22s-1.55-1.21-3-1.55-3-.86-3-2.75,2.2-2.66,3.89-2.66c1.91,0,3.64.79,3.89,2.86h-2.14a1.62,1.62,0,0,0-1.89-1.24c-0.59,0-1.69.14-1.69,1s1.51,1.15,3,1.5,3,0.88,3,2.72c0,2.21-2.23,3-4.16,3-2.34,0-4.09-1-4.12-3.24Z"/><path class="gs35-2" d="M67.14,207.9h9.25v1.94h-7v3.37h6.48v1.84H69.39v3.76h7.13v1.94H67.14V207.9Z"/><path class="gs35-2" d="M77.74,211.44h2v1.37h0a3.33,3.33,0,0,1,2.9-1.66,3,3,0,0,1,3.29,3.17v6.39h-2v-5.85c0-1.46-.61-2.09-1.82-2.09a2.27,2.27,0,0,0-2.26,2.28q0,0.08,0,.17v5.49H77.74v-9.27Z"/><path class="gs35-2" d="M96.39,220.75H94.45v-1.26h0A3.09,3.09,0,0,1,91.57,221c-2.93,0-4.36-2.18-4.36-5,0-3.37,2-4.84,4-4.84a3.59,3.59,0,0,1,3.1,1.46h0v-4.75h2.08v12.88Zm-4.59-1.37c1.84,0,2.61-1.67,2.61-3.29,0-2.05-1-3.28-2.57-3.28-1.93,0-2.61,1.71-2.61,3.38S90,219.38,91.8,219.38Z"/><path class="gs35-2" d="M98.23,211.44h1.94v1.22h0a3.11,3.11,0,0,1,2.88-1.51c2.93,0,4.36,2.23,4.36,5,0,2.5-1.26,4.86-4,4.86a3.62,3.62,0,0,1-3.12-1.46h0v4.65H98.24V211.44Zm4.59,1.37c-1.73,0-2.61,1.31-2.61,3.29s1,3.28,2.61,3.28c1.87,0,2.58-1.66,2.58-3.28S104.51,212.81,102.82,212.81Z"/><path class="gs35-2" d="M108.29,216.09c0-2.84,1.71-4.9,4.7-4.9s4.7,2.05,4.7,4.9S116,221,113,221,108.29,219,108.29,216.09Zm7.35,0c0-1.6-.81-3.28-2.65-3.28s-2.65,1.67-2.65,3.28,0.81,3.29,2.65,3.29,2.64-1.72,2.64-3.29h0Z"/><path class="gs35-2" d="M119,207.9H121v1.94H119V207.9Zm0,3.55H121v9.31H119v-9.31Z"/><path class="gs35-2" d="M122.83,211.44h1.94v1.37h0a3.33,3.33,0,0,1,2.9-1.66,3,3,0,0,1,3.29,3.17v6.39h-2.05v-5.85c0-1.46-.61-2.09-1.82-2.09a2.27,2.27,0,0,0-2.26,2.28q0,0.08,0,.17v5.49h-2.05Z"/><path class="gs35-2" d="M131.78,211.44h1.55v-2.78h2.06v2.79h1.85V213h-1.85v5c0,0.85.07,1.28,1,1.28a3.49,3.49,0,0,0,.86-0.07v1.58c-0.45,0-.88.11-1.33,0.11-2.14,0-2.54-.83-2.57-2.38V213H131.8Z"/><path class="gs35-2" d="M72.95,244.19a14.94,14.94,0,0,1-2.59-8.3,15.34,15.34,0,0,1,2.59-8.3h1.67a16.65,16.65,0,0,0-2.21,8.3,15.9,15.9,0,0,0,2.21,8.3H72.95Z"/><path class="gs35-2" d="M75.39,227.9h5.67c3.67,0,4.38,2.38,4.38,4s-0.7,4-4.38,3.94H77.65v4.93H75.39V227.9ZM77.64,234h3.29a2,2,0,0,0,2.25-2.12A1.9,1.9,0,0,0,81,229.75H77.65V234Z"/><path class="gs35-2" d="M86.67,231.44H88.6v1.8h0a3,3,0,0,1,2.79-2.05,4.94,4.94,0,0,1,.77.05v2a7.27,7.27,0,0,0-.88-0.09c-1.4,0-2.52,1.13-2.52,3.19v4.43H86.67v-9.33Z"/><path class="gs35-2" d="M92.61,227.9h2.05v1.94H92.61V227.9Zm0,3.55h2.05v9.31H92.61v-9.31Z"/><path class="gs35-2" d="M95.52,231.44h2.23l2.36,7.15h0l2.27-7.15h2.12l-3.33,9.31h-2.3Z"/><path class="gs35-2" d="M113.13,238.66c0,0.5.11,0.7,0.49,0.7a2.83,2.83,0,0,0,.5,0v1.42a5.13,5.13,0,0,1-1.3.23,1.37,1.37,0,0,1-1.58-1.13A4.78,4.78,0,0,1,108,241c-1.67,0-3.19-.9-3.19-2.72,0-2.32,1.85-2.7,3.58-2.9,1.48-.27,2.79-0.11,2.79-1.31s-1.1-1.26-1.93-1.26c-1.15,0-2,.47-2.05,1.48h-2.05c0.14-2.39,2.18-3.1,4.23-3.1,1.82,0,3.73.74,3.73,2.7v4.76Zm-2.05-2.59a7.33,7.33,0,0,1-2.52.56c-0.88.14-1.67,0.47-1.67,1.55,0,0.92,1.17,1.19,1.89,1.19,0.9,0,2.3-.47,2.3-1.76v-1.54Z"/><path class="gs35-2" d="M114,231.44h1.55v-2.78h2.05v2.79h1.83V233h-1.85v5c0,0.85.07,1.28,1,1.28a3.49,3.49,0,0,0,.86-0.07v1.58c-0.45,0-.88.11-1.33,0.11-2.14,0-2.54-.83-2.58-2.38V233h-1.55Z"/><path class="gs35-2" d="M122,236.66a2.48,2.48,0,0,0,2.19,2.74h0.31a2.16,2.16,0,0,0,2.27-1.55h1.95a4.08,4.08,0,0,1-4.21,3.17c-2.92,0-4.56-2-4.56-4.9,0-2.65,1.73-4.92,4.5-4.92,2.93,0,4.74,2.65,4.39,5.44H122Zm4.79-1.35a2.4,2.4,0,1,0-4.79,0h4.79Z"/><path class="gs35-2" d="M130.44,227.59a15,15,0,0,1,2.59,8.32,15.24,15.24,0,0,1-2.59,8.28h-1.67a16.53,16.53,0,0,0,2.21-8.28,16,16,0,0,0-2.21-8.32h1.67Z"/><path class="gs35-2" d="M107.26,151.31H86.39a0.52,0.52,0,1,0,0,1h20.83a0.52,0.52,0,1,0,0-1h0Z"/><path class="gs35-2" d="M119.39,136.21h-8a5.17,5.17,0,0,0-.66-2.9c-1.2-2-3.84-3.1-7.85-3.12s-6.61,1-7.81,3a5.19,5.19,0,0,0-.67,3h-8a6,6,0,0,0-5.95,5.95v21.32a6,6,0,0,0,5.95,6h33a6,6,0,0,0,5.95-5.95V142.16A6,6,0,0,0,119.39,136.21Zm-22.18-1.76c0.71-1.19,2.66-1.81,5.66-1.79s5,0.68,5.72,1.89a2.82,2.82,0,0,1,.33,1.65h-12a2.89,2.89,0,0,1,.3-1.75h0Zm17,26.37a7.76,7.76,0,0,1-7.26-5h-6.88l-3.16-2.25-3.62,2.52-2.82-1.61L87,155.59l-3.29-3.05,1.1-2.72h22.31a7.77,7.77,0,1,1,7,11h0.05Z"/><circle class="gs35-2" cx="117.2" cy="153.05" r="1.79"/><path class="gs35-3" d="M112.39,163.55a7.76,7.76,0,0,1-7.26-5H98.29l-3.16-2.25-3.62,2.52-2.82-1.61-3.43,1.11L82,155.27l1.1-2.72h22.32A7.77,7.77,0,1,1,112.39,163.55Z"/><rect class="gs35-1" x="440.54" y="68.76" width="238.69" height="266.35" rx="15" ry="15"/><rect class="gs35-4" x="193.72" y="37.64" width="271.21" height="256.21" rx="3.14" ry="3.14"/><g class="gs35-5"><path class="gs35-6" d="M434,110.66H420.93c-1.1,0-2-1.59-2-3.53h0c0-1.94.9-3.53,2-3.53H447.6c1.1,0,2-1.59,2-3.53h0c0-1.94-.9-3.53-2-3.53H422"/><path class="gs35-6" d="M434,124.79H420.93c-1.1,0-2-1.59-2-3.53h0c0-1.94.9-3.53,2-3.53H447.6c1.1,0,2-1.59,2-3.53h0c0-1.94-.9-3.53-2-3.53H433.88"/><path class="gs35-6" d="M434,138.93H420.93c-1.1,0-2-1.59-2-3.53h0c0-1.94.9-3.53,2-3.53H447.6c1.1,0,2-1.59,2-3.53h0c0-1.94-.9-3.53-2-3.53H433.88"/><path class="gs35-6" d="M434,153.08H420.93c-1.1,0-2-1.59-2-3.53h0c0-1.94.9-3.53,2-3.53H447.6c1.1,0,2-1.59,2-3.53h0c0-1.94-.9-3.53-2-3.53H433.88"/><path class="gs35-6" d="M434,167.22H420.93c-1.1,0-2-1.59-2-3.53h0c0-1.94.9-3.53,2-3.53H447.6c1.1,0,2-1.59,2-3.53h0c0-1.94-.9-3.53-2-3.53H433.88"/><path class="gs35-6" d="M434,181.37H420.93c-1.1,0-2-1.59-2-3.53h0c0-1.94.9-3.53,2-3.53H447.6c1.1,0,2-1.59,2-3.53h0c0-1.94-.9-3.53-2-3.53H433.88"/><path class="gs35-6" d="M434,195.36H420.93c-1.1,0-2-1.59-2-3.53h0c0-1.94.9-3.53,2-3.53H447.6c1.1,0,2-1.59,2-3.53h0c0-1.94-.9-3.53-2-3.53H433.88"/><path class="gs35-6" d="M434,209.5H420.93c-1.1,0-2-1.59-2-3.53h0c0-1.94.9-3.53,2-3.53H447.6c1.1,0,2-1.59,2-3.53h0c0-1.94-.9-3.53-2-3.53H433.88"/><path class="gs35-6" d="M434,223.66H420.93c-1.1,0-2-1.59-2-3.53h0c0-1.94.9-3.53,2-3.53H447.6c1.1,0,2-1.59,2-3.53h0c0-1.94-.9-3.53-2-3.53H433.88"/><path class="gs35-6" d="M434,237.79H420.93c-1.1,0-2-1.59-2-3.53h0c0-1.94.9-3.53,2-3.53H447.6c1.1,0,2-1.59,2-3.53h0c0-1.94-.9-3.53-2-3.53H433.88"/><path class="gs35-6" d="M434,82.33H420.93c-1.1,0-2-1.59-2-3.53h0c0-1.94.9-3.53,2-3.53H447.6c1.1,0,2-1.59,2-3.53h0c0-1.94-.9-3.53-2-3.53H433.88"/><path class="gs35-6" d="M434.09,68.19H421c-1.1,0-2-1.59-2-3.53h0c0-1.94.9-3.53,2-3.53h26.67c1.1,0,2-1.59,2-3.53h0c0-1.94-.9-3.53-2-3.53H434"/><path class="gs35-6" d="M434,96.48H420.93c-1.1,0-2-1.59-2-3.53h0c0-1.94.9-3.53,2-3.53H447.6c1.1,0,2-1.59,2-3.53h0c0-1.94-.9-3.53-2-3.53H433.88"/><path class="gs35-6" d="M434,251.86H420.93c-1.1,0-2-1.59-2-3.53h0c0-1.94.9-3.53,2-3.53H447.6c1.1,0,2-1.59,2-3.53h0c0-1.94-.9-3.53-2-3.53H433.88"/><path class="gs35-6" d="M420.93,258.94H447.6c1.1,0,2-1.59,2-3.53h0c0-1.94-.9-3.53-2-3.53H433.88"/></g><rect class="gs35-7" x="415.01" y="254.01" width="38.91" height="14.5"/><g class="gs35-8"><path class="gs35-9" d="M418.48,260.43h3.75c1.72,0,2.6.79,2.6,2.12a1.91,1.91,0,0,1-1.3,2h0a1.44,1.44,0,0,1,1.17,1.66,3.57,3.57,0,0,0,.43,2.07h-1.47a2.19,2.19,0,0,1-.21-1.16c0-1.44-.3-2.08-1.56-2.08h-2v3.23h-1.37Zm1.38,3.58h2.26a1.16,1.16,0,0,0,1.34-1.25,1.13,1.13,0,0,0-1.36-1.2h-2.23V264Z"/><path class="gs35-9" d="M425.78,265.43a2.87,2.87,0,1,1,2.87,3A2.75,2.75,0,0,1,425.78,265.43Zm4.49,0a1.66,1.66,0,1,0-1.62,2A1.75,1.75,0,0,0,430.27,265.43Z"/><path class="gs35-9" d="M437.57,268.28h-1.23v-0.79h0a1.91,1.91,0,0,1-1.62,1c-1.49,0-2.12-.75-2.12-2.23V262.6h1.25v3.49c0,1,.41,1.36,1.09,1.36a1.34,1.34,0,0,0,1.4-1.55v-3.3h1.25Z"/><path class="gs35-9" d="M438.31,262.59h1v-1.71h1.25v1.71h1.13v0.93h-1.13v3c0,0.52,0,.78.61,0.78a2.15,2.15,0,0,0,.53,0v1c-0.28,0-.54.07-0.81,0.07-1.31,0-1.55-.51-1.57-1.45v-3.36h-1v-1Z"/><path class="gs35-9" d="M443.53,265.76a1.51,1.51,0,0,0,1.33,1.67h0.2a1.32,1.32,0,0,0,1.39-1h1.19a2.49,2.49,0,0,1-2.58,1.94,2.7,2.7,0,0,1-2.78-3,2.75,2.75,0,1,1,5.44.32h-4.19Zm2.93-.83a1.46,1.46,0,0,0-2.93,0h2.93Z"/><path class="gs35-9" d="M448.66,262.59h1.18v1.07h0a1.84,1.84,0,0,1,1.66-1.25,2.87,2.87,0,0,1,.47,0v1.25a4.36,4.36,0,0,0-.54,0c-0.86,0-1.54.69-1.54,2v2.71h-1.25Z"/></g><rect class="gs35-10" x="193.8" y="335.38" width="81.49" height="32.75" rx="3.14" ry="3.14"/><rect class="gs35-10" x="375.85" y="335.38" width="81.49" height="32.75" rx="3.14" ry="3.14"/><path class="gs35-11" d="M210.28,341.86h2.61c2.35,0,3.66,1.17,3.66,3.63s-1.12,4-3.66,4h-2.61v-7.63Zm1,6.76H213c0.69,0,2.56-.19,2.56-3,0-1.81-.67-2.91-2.54-2.91h-1.7v5.91Z"/><path class="gs35-11" d="M218.32,343h-0.93v-1.11h0.91Zm-0.91,1h0.91v5.51h-0.93Z"/><path class="gs35-11" d="M220,347.73a1.22,1.22,0,0,0,1.48,1.07c0.57,0,1.33-.13,1.33-0.82s-0.9-.82-1.8-1-1.8-.5-1.8-1.56a1.84,1.84,0,0,1,2.06-1.57c1.22,0,2.19.38,2.26,1.73h-0.91a1.11,1.11,0,0,0-1.28-.93c-0.6,0-1.17.15-1.17,0.7s1,0.76,1.8,1,1.8,0.5,1.8,1.57c0,1.31-1.23,1.74-2.35,1.74s-2.28-.5-2.33-1.87Z"/><path class="gs35-11" d="M225.79,344h1.1v0.8h-1.1v3.42c0,0.42.12,0.49,0.68,0.49h0.42v0.8H226.2c-0.94,0-1.31-.19-1.31-1.21v-3.5h-0.94V344h0.94v-1.65h0.91V344Z"/><path class="gs35-11" d="M227.59,344h0.8v1.16h0a2,2,0,0,1,2-1.29v1c-1.46,0-2,.83-2,2.23v2.45h-0.91Z"/><path class="gs35-11" d="M231.86,343h-0.91v-1.11h0.91V343Zm-0.91,1h0.91v5.51h-0.91V344Z"/><path class="gs35-11" d="M233,341.86h0.91v2.8h0a1.86,1.86,0,0,1,1.76-.87c1.7,0,2.54,1.34,2.54,2.9s-0.83,2.87-2.52,2.87a2.11,2.11,0,0,1-1.78-.86h0v0.74H233v-7.58Zm2.56,2.8c-1.22,0-1.69,1-1.69,2.08s0.49,2.09,1.74,2.09,1.65-1.06,1.65-2.13A1.77,1.77,0,0,0,235.59,344.66Z"/><path class="gs35-11" d="M243.62,349.47h-0.85V348.6h0a1.92,1.92,0,0,1-1.79,1,1.71,1.71,0,0,1-1.9-2V344H240v3.7a1,1,0,0,0,1.12,1.11,1.55,1.55,0,0,0,1.63-1.73V344h0.91Z"/><path class="gs35-11" d="M246,344h1.1v0.8H246v3.42c0,0.42.12,0.49,0.68,0.49h0.42v0.8h-0.69c-0.94,0-1.31-.19-1.31-1.21v-3.5h-0.94V344h0.94v-1.65H246V344Z"/><path class="gs35-11" d="M252.51,347.72a2.22,2.22,0,0,1-2.36,1.88c-1.76,0-2.59-1.22-2.65-2.9a2.65,2.65,0,0,1,2.42-2.86h0.17c2,0,2.55,1.82,2.5,3.16h-4.13a1.62,1.62,0,0,0,1.41,1.8h0.31a1.33,1.33,0,0,0,1.43-1.08h0.9Zm-0.88-1.54a1.58,1.58,0,0,0-3.17,0h3.17Z"/><path class="gs35-11" d="M258.19,349.47h-0.91v-0.75h0a1.86,1.86,0,0,1-1.76.88c-1.7,0-2.54-1.34-2.54-2.9s0.83-2.87,2.52-2.87a2.11,2.11,0,0,1,1.78.86h0v-2.83h0.91v7.61Zm-2.56-.67c1.22,0,1.68-1,1.68-2.08s-0.49-2.09-1.74-2.09-1.65,1.06-1.65,2.13a1.79,1.79,0,0,0,1.71,2h0Z"/><path class="gs35-11" d="M210.83,352.87h2.61c2.35,0,3.66,1.17,3.66,3.63s-1.12,4-3.66,4h-2.61v-7.63Zm1,6.76h1.69c0.69,0,2.56-.19,2.56-3,0-1.81-.67-2.91-2.54-2.91h-1.71v5.91Z"/><path class="gs35-11" d="M222.81,360.46a1.22,1.22,0,0,1-.65.15,0.73,0.73,0,0,1-.77-0.85,2.45,2.45,0,0,1-1.94.85,1.56,1.56,0,0,1-1.82-1.55c0-1.1.93-1.51,1.87-1.7s1.86-.13,1.86-0.81a1,1,0,0,0-1.23-.92,1.13,1.13,0,0,0-1.38,1h-0.91c0.05-1.37,1.11-1.85,2.34-1.85,1,0,2.07.22,2.07,1.51v2.84c0,0.43,0,.62.29,0.62a0.77,0.77,0,0,0,.28,0v0.76Zm-1.47-2.8a4.66,4.66,0,0,1-1.64.37,1.06,1.06,0,0,0-1.11,1,0.85,0.85,0,0,0,1.07.81,1.48,1.48,0,0,0,1.69-1.25v-0.93Z"/><path class="gs35-11" d="M224.64,355h1.1v0.8h-1.1v3.42c0,0.42.12,0.49,0.68,0.49h0.42v0.8H225c-0.94,0-1.31-.19-1.31-1.21v-3.51H222.8V355h0.94v-1.65h0.91V355Z"/><path class="gs35-11" d="M231.39,360.46a1.22,1.22,0,0,1-.65.15,0.73,0.73,0,0,1-.77-0.85,2.45,2.45,0,0,1-1.94.85,1.56,1.56,0,0,1-1.82-1.55c0-1.1.93-1.51,1.87-1.7s1.86-.13,1.86-0.81a1,1,0,0,0-1.23-.92,1.13,1.13,0,0,0-1.38,1h-0.94c0.05-1.37,1.11-1.85,2.34-1.85,1,0,2.07.22,2.07,1.51v2.84c0,0.43,0,.62.29,0.62a0.77,0.77,0,0,0,.28,0Zm-1.5-2.8a4.66,4.66,0,0,1-1.64.37,1.06,1.06,0,0,0-1.11,1,0.85,0.85,0,0,0,1.07.81,1.48,1.48,0,0,0,1.69-1.25v-0.93Z"/><path class="gs35-11" d="M239.18,355.1a1.66,1.66,0,0,0-1.74-1.57h-0.15c-0.85,0-1.71.31-1.71,1.3s1.22,1.08,2.44,1.35,2.43,0.7,2.43,2.2-1.59,2.27-3,2.27c-1.71,0-3.15-.83-3.15-2.69h1c0,1.28,1.07,1.83,2.22,1.83,0.92,0,1.93-.29,1.93-1.39s-1.22-1.23-2.43-1.49-2.44-.62-2.44-2,1.38-2.23,2.76-2.23c1.56,0,2.74.74,2.81,2.41h-1Z"/><path class="gs35-11" d="M242.53,355h1.1v0.8h-1.1v3.42c0,0.42.12,0.49,0.68,0.49h0.42v0.8h-0.69c-0.94,0-1.31-.19-1.31-1.21v-3.51h-0.94V355h0.94v-1.65h0.91V355Z"/><path class="gs35-11" d="M246.74,354.84a2.89,2.89,0,1,1-2.67,3.09q0-.1,0-0.2a2.62,2.62,0,0,1,2.33-2.88h0.35Zm0,5a2.12,2.12,0,1,0-1.72-2.08,1.79,1.79,0,0,0,1.72,2v0Z"/><path class="gs35-11" d="M250.18,355H251v1.16h0a2,2,0,0,1,2-1.29v1c-1.46,0-2,.83-2,2.23v2.45h-0.91Z"/><path class="gs35-11" d="M258,358.74a2.22,2.22,0,0,1-2.36,1.88c-1.76,0-2.59-1.22-2.65-2.9a2.65,2.65,0,0,1,2.42-2.86h0.17c2,0,2.55,1.82,2.5,3.16H254a1.62,1.62,0,0,0,1.41,1.8h0.31a1.33,1.33,0,0,0,1.43-1.08H258Zm-0.87-1.54a1.59,1.59,0,1,0-3.17,0h3.17Z"/><path class="gs35-11" d="M400.57,347.24h3.34a2.25,2.25,0,0,1,0,4.5h-2.33v3.11h-1v-7.61Zm1,3.65h2c1.14,0,1.66-.49,1.66-1.4s-0.52-1.4-1.66-1.4h-2v2.8Z"/><path class="gs35-11" d="M407.12,347.24H408v7.62h-0.91v-7.62Z"/><path class="gs35-11" d="M413.73,354.85h-0.85V354h0a1.92,1.92,0,0,1-1.79,1,1.71,1.71,0,0,1-1.9-2v-3.63h0.91v3.73a1,1,0,0,0,1.12,1.11,1.55,1.55,0,0,0,1.63-1.73v-3.12h0.91Z"/><path class="gs35-11" d="M419.58,354.38c0,1.79-.82,2.71-2.56,2.71-1,0-2.23-.42-2.28-1.62h0.91c0,0.66.83,0.9,1.43,0.9,1.18,0,1.65-.85,1.65-2.09v-0.36h0a1.84,1.84,0,0,1-1.72,1,2.5,2.5,0,0,1-2.46-2.79c0-1.3.64-2.91,2.55-2.91a1.8,1.8,0,0,1,1.64.92h0v-0.79h0.85v5Zm-0.9-2.4c0-1-.43-2-1.57-2a1.75,1.75,0,0,0-1.63,2c0,1,.36,2.1,1.56,2.1s1.64-1.06,1.64-2.09h0Z"/><path class="gs35-11" d="M421.64,348.35h-0.91v-1.11h0.91v1.11Zm-0.91,1h0.91v5.51h-0.91v-5.51Z"/><path class="gs35-11" d="M422.78,349.34h0.85v0.88h0a1.92,1.92,0,0,1,1.79-1,1.71,1.71,0,0,1,1.9,2v3.63h-0.93v-3.73a1,1,0,0,0-1.12-1.11,1.55,1.55,0,0,0-1.63,1.73v3.11h-0.91Z"/><path class="gs35-11" d="M429,353.12a1.22,1.22,0,0,0,1.48,1.07c0.57,0,1.33-.13,1.33-0.82s-0.9-.82-1.8-1-1.8-.5-1.8-1.56a1.84,1.84,0,0,1,2.06-1.57c1.22,0,2.19.38,2.26,1.73h-0.91a1.11,1.11,0,0,0-1.28-.93c-0.6,0-1.17.15-1.17,0.7s1,0.76,1.8,1,1.8,0.5,1.8,1.57c0,1.31-1.23,1.74-2.35,1.74s-2.28-.5-2.33-1.87Z"/><rect class="gs35-10" x="193.19" y="302.12" width="264.87" height="25.49" rx="3.14" ry="3.14"/><path class="gs35-11" d="M255.56,313a2.63,2.63,0,0,0-2.8-2.13c-2.38,0-3.39,2-3.39,4,0,2.28,1,4.19,3.4,4.19a2.83,2.83,0,0,0,2.89-2.77s0-.07,0-0.11H257a4.07,4.07,0,0,1-4.13,4h-0.2c-3.11,0-4.62-2.3-4.62-5.21s1.65-5.27,4.73-5.27a3.83,3.83,0,0,1,4.12,3.25Z"/><path class="gs35-11" d="M264.48,317.66a2.92,2.92,0,0,1-3.1,2.46c-2.31,0-3.4-1.6-3.47-3.81a3.49,3.49,0,0,1,3.2-3.76h0.2c2.56,0,3.35,2.4,3.28,4.15h-5.42a2.13,2.13,0,0,0,2.26,2.38,1.74,1.74,0,0,0,1.88-1.41h1.17Zm-1.15-2a2.08,2.08,0,1,0-4.16,0h4.16Z"/><path class="gs35-11" d="M265.68,312.74h1.12v1.15h0a2.52,2.52,0,0,1,2.35-1.32c1.91,0,2.49,1.09,2.49,2.65V320h-1.15v-4.9a1.36,1.36,0,0,0-1.25-1.46H269a2,2,0,0,0-2.14,2.27V320h-1.19v-7.24Z"/><path class="gs35-11" d="M275,312.74h1.41v1h-1.44v4.5c0,0.55.15,0.64,0.9,0.64h0.54v1h-0.91c-1.23,0-1.72-.25-1.72-1.58v-4.61h-1.23v-1h1.23v-2.17h1.19Z"/><path class="gs35-11" d="M277.56,312.74h1.12v1.53h0a2.64,2.64,0,0,1,2.66-1.7v1.26c-1.92,0-2.62,1.09-2.62,2.93V320h-1.19Z"/><path class="gs35-11" d="M288.53,320a1.61,1.61,0,0,1-.85.2,1,1,0,0,1-1-1.12,3.22,3.22,0,0,1-2.55,1.12c-1.32,0-2.4-.59-2.4-2,0-1.64,1.22-2,2.45-2.23s2.44-.17,2.44-1.06a1.38,1.38,0,0,0-1.61-1.21c-1,0-1.75.31-1.81,1.37H282c0.07-1.79,1.46-2.42,3.07-2.42,1.3,0,2.72.29,2.72,2v3.72c0,0.56,0,.81.38,0.81a1,1,0,0,0,.36-0.07V320Zm-1.93-3.71a6.1,6.1,0,0,1-2.16.49c-0.78.14-1.46,0.42-1.46,1.3s0.67,1.06,1.4,1.06c1.57,0,2.21-1,2.21-1.64v-1.21Z"/><path class="gs35-11" d="M289.57,310h1.19v10h-1.19V310Z"/><path class="gs35-11" d="M293.72,311.44h-1.19V310h1.19v1.46Zm-1.19,1.3h1.19V320h-1.19v-7.24Z"/><path class="gs35-11" d="M294.84,319.07l4.37-5.28h-4.09v-1h5.63v0.81l-4.43,5.38h4.62v1h-6.11v-0.91Z"/><path class="gs35-11" d="M308.19,317.66a2.92,2.92,0,0,1-3.1,2.46c-2.31,0-3.4-1.6-3.47-3.81a3.49,3.49,0,0,1,3.2-3.76H305c2.56,0,3.35,2.4,3.28,4.15h-5.42a2.13,2.13,0,0,0,2.26,2.38,1.74,1.74,0,0,0,1.88-1.41h1.17Zm-1.15-2a2.08,2.08,0,1,0-4.16,0H307Z"/><path class="gs35-11" d="M315.86,320h-1.19v-1h0a2.44,2.44,0,0,1-2.31,1.15c-2.23,0-3.33-1.76-3.33-3.81s1.09-3.77,3.31-3.77a2.78,2.78,0,0,1,2.34,1.13h0V310h1.19v10Zm-3.36-.88c1.6,0,2.21-1.37,2.21-2.73s-0.64-2.71-2.32-2.71-2.17,1.39-2.17,2.8,0.74,2.64,2.28,2.64h0Z"/><path class="gs35-11" d="M328.53,313a2.63,2.63,0,0,0-2.8-2.13c-2.38,0-3.39,2-3.39,4,0,2.28,1,4.19,3.4,4.19a2.83,2.83,0,0,0,2.89-2.77s0-.07,0-0.11H330a4.07,4.07,0,0,1-4.13,4h-0.2c-3.11,0-4.62-2.3-4.62-5.21s1.65-5.27,4.73-5.27a3.83,3.83,0,0,1,4.12,3.25Z"/><path class="gs35-11" d="M334.39,312.57c2.3,0,3.52,1.67,3.52,3.8s-1.22,3.78-3.52,3.78-3.52-1.67-3.52-3.78S332.1,312.57,334.39,312.57Zm0,6.53c1.25,0,2.25-1,2.25-2.73s-1-2.75-2.25-2.75-2.26,1-2.26,2.75S333.15,319.1,334.39,319.1Z"/><path class="gs35-11" d="M339.17,312.74h1.12v1.15h0a2.52,2.52,0,0,1,2.35-1.32c1.91,0,2.49,1.09,2.49,2.65V320h-1.19v-4.9a1.36,1.36,0,0,0-1.25-1.46h-0.22a2,2,0,0,0-2.14,2.27V320h-1.19Z"/><path class="gs35-11" d="M347.3,313.79h-1.22v-1h1.22v-1.08c0-1.18.7-1.79,2-1.79a2.91,2.91,0,0,1,.77.11v1a2.22,2.22,0,0,0-.67-0.1,0.74,0.74,0,0,0-.91.81v1h1.4v1h-1.4v6.19H347.3v-6.14Z"/><path class="gs35-11" d="M352.07,311.44h-1.19V310h1.19v1.46Zm-1.19,1.3h1.19V320h-1.19v-7.24Z"/><path class="gs35-11" d="M360,319.37c0,2.35-1.08,3.56-3.36,3.56-1.36,0-2.93-.54-3-2.13h1.19c0.06,0.87,1.09,1.18,1.88,1.18,1.55,0,2.17-1.12,2.17-2.75v-0.48h0a2.41,2.41,0,0,1-2.25,1.32c-2.16,0-3.24-1.7-3.24-3.67,0-1.71.84-3.82,3.35-3.82a2.36,2.36,0,0,1,2.16,1.21h0v-1H360Zm-1.18-3.15c0-1.28-.56-2.59-2.06-2.59s-2.14,1.25-2.14,2.63,0.48,2.76,2,2.76,2.2-1.45,2.2-2.8h0Z"/><path class="gs35-11" d="M367.67,320h-1.12v-1.15h0a2.52,2.52,0,0,1-2.35,1.32c-1.91,0-2.49-1.09-2.49-2.65v-4.76h1.19v4.92a1.36,1.36,0,0,0,1.25,1.46h0.22a2,2,0,0,0,2.14-2.27v-4.09h1.19Z"/><path class="gs35-11" d="M369.28,312.74h1.11v1.53h0a2.64,2.64,0,0,1,2.66-1.7v1.26c-1.92,0-2.62,1.09-2.62,2.93V320h-1.19Z"/><path class="gs35-11" d="M380.26,320a1.61,1.61,0,0,1-.85.2,1,1,0,0,1-1-1.12,3.22,3.22,0,0,1-2.55,1.12c-1.32,0-2.4-.59-2.4-2,0-1.64,1.22-2,2.45-2.23s2.44-.17,2.44-1.06a1.38,1.38,0,0,0-1.61-1.21c-1,0-1.75.31-1.81,1.37h-1.19c0.07-1.79,1.46-2.42,3.07-2.42,1.3,0,2.72.29,2.72,2v3.72c0,0.56,0,.81.38,0.81a1,1,0,0,0,.36-0.07V320Zm-1.93-3.71a6.1,6.1,0,0,1-2.16.49c-0.78.14-1.46,0.42-1.46,1.3s0.67,1.06,1.4,1.06c1.57,0,2.21-1,2.21-1.64v-1.21Z"/><path class="gs35-11" d="M382.87,312.74h1.44v1h-1.44v4.5c0,0.55.15,0.64,0.9,0.64h0.55v1h-0.93c-1.23,0-1.72-.25-1.72-1.58v-4.61h-1.23v-1h1.23v-2.17h1.19v2.17Z"/><path class="gs35-11" d="M386.75,311.44h-1.19V310h1.19v1.46Zm-1.19,1.3h1.19V320h-1.19v-7.24Z"/><path class="gs35-11" d="M391.58,312.57c2.3,0,3.52,1.67,3.52,3.8s-1.22,3.78-3.52,3.78-3.52-1.67-3.52-3.78S389.28,312.57,391.58,312.57Zm0,6.53c1.25,0,2.25-1,2.25-2.73s-1-2.75-2.25-2.75-2.26,1-2.26,2.75S390.34,319.1,391.58,319.1Z"/><path class="gs35-11" d="M396.39,312.74h1.12v1.15h0a2.52,2.52,0,0,1,2.35-1.32c1.91,0,2.49,1.09,2.49,2.65V320h-1.19v-4.9a1.36,1.36,0,0,0-1.29-1.42h-0.18a2,2,0,0,0-2.14,2.27V320h-1.16v-7.28Z"/><path class="gs35-9" d="M206,274.82h6.91v1.12h-5.58v3.18h5.2v1.12h-5.2v3.42h5.62v1.12H206v-10Z"/><path class="gs35-9" d="M215.93,281l-2.54-3.43h1.53l1.74,2.54,1.81-2.54h1.43l-2.51,3.33,2.8,3.91h-1.5l-2-3-2,3h-1.44Z"/><path class="gs35-9" d="M220.93,277.58h1.19v1h0a2.44,2.44,0,0,1,2.31-1.15c2.23,0,3.33,1.76,3.33,3.81s-1.09,3.77-3.31,3.77a2.78,2.78,0,0,1-2.34-1.13h0v3.74h-1.19v-10Zm3.36,0.88c-1.6,0-2.21,1.37-2.21,2.73s0.64,2.75,2.28,2.75,2.17-1.39,2.17-2.8-0.7-2.68-2.24-2.68h0Z"/><path class="gs35-9" d="M228.8,277.58h1.12v1.53h0a2.63,2.63,0,0,1,2.66-1.7v1.25c-1.92,0-2.62,1.09-2.62,2.93v3.22h-1.19Z"/><path class="gs35-9" d="M239.08,282.52A2.92,2.92,0,0,1,236,285c-2.31,0-3.4-1.6-3.47-3.81a3.49,3.49,0,0,1,3.2-3.76h0.2c2.56,0,3.35,2.39,3.28,4.15h-5.42a2.13,2.13,0,0,0,2.25,2.38,1.75,1.75,0,0,0,1.88-1.41h1.18Zm-1.15-2a2.08,2.08,0,0,0-4.16,0h4.16Z"/><path class="gs35-9" d="M240.8,282.54c0,1.06,1,1.4,1.95,1.4,0.74,0,1.75-.17,1.75-1.08s-1.18-1.08-2.37-1.35-2.37-.66-2.37-2,1.44-2.06,2.7-2.06c1.6,0,2.87.5,3,2.27h-1.19a1.45,1.45,0,0,0-1.68-1.22c-0.78,0-1.54.2-1.54,0.92s1.26,1,2.37,1.26,2.37,0.66,2.37,2.06c0,1.72-1.61,2.28-3.08,2.28s-3-.66-3.07-2.45Z"/><path class="gs35-9" d="M247.45,282.54c0,1.06,1,1.4,1.95,1.4,0.74,0,1.75-.17,1.75-1.08s-1.18-1.08-2.37-1.35-2.37-.66-2.37-2,1.44-2.06,2.7-2.06c1.6,0,2.87.5,3,2.27h-1.22a1.45,1.45,0,0,0-1.68-1.22c-0.78,0-1.54.2-1.54,0.92s1.26,1,2.37,1.26,2.37,0.66,2.37,2.06c0,1.72-1.61,2.28-3.08,2.28s-3-.66-3.07-2.45Z"/><path class="gs35-9" d="M257.11,274.82h4.71c1.88,0,3,1,3,2.62a2.4,2.4,0,0,1-1.74,2.54h0c1.16,0.22,1.4,1.08,1.5,2.06a5.13,5.13,0,0,0,.59,2.76h-1.48c-0.38-.41-0.17-1.48-0.36-2.47s-0.38-1.81-1.67-1.81h-3.27v4.27h-1.33Zm4.1,4.61c1.25,0,2.31-.32,2.31-1.78a1.58,1.58,0,0,0-1.78-1.71h-3.35v3.49h2.82Z"/><path class="gs35-9" d="M272.14,284.82H271v-1.16h0a2.52,2.52,0,0,1-2.35,1.32c-1.9,0-2.49-1.09-2.49-2.65v-4.76h1.19v4.9a1.36,1.36,0,0,0,1.25,1.46h0.22a2,2,0,0,0,2.14-2.27v-4.09h1.19Z"/><path class="gs35-9" d="M273.58,277.58h1.12v1.15h0a2.52,2.52,0,0,1,2.35-1.32c1.9,0,2.49,1.09,2.49,2.65v4.76h-1.15v-4.9a1.36,1.36,0,0,0-1.25-1.46h-0.22a2,2,0,0,0-2.14,2.27v4.09h-1.19v-7.24Z"/><path class="gs35-9" d="M282.67,277.58h1.44v1.08h-1.44v4.5c0,0.55.15,0.64,0.9,0.64h0.55v1h-0.91c-1.23,0-1.72-.25-1.72-1.58v-4.61h-1.23v-1h1.23v-2.17h1.19v2.14Z"/><path class="gs35-9" d="M286.34,276.27h-1.19v-1.46h1.19v1.46Zm-1.19,1.3h1.19v7.24h-1.19v-7.24Z"/><path class="gs35-9" d="M287.84,277.58H289v1.08h0a2.67,2.67,0,0,1,2.34-1.23,1.92,1.92,0,0,1,2,1.23,2.68,2.68,0,0,1,2.27-1.23c1.44,0,2.41.6,2.41,2.1v5.31h-1.19v-4.75c0-.9-0.24-1.61-1.4-1.61a1.75,1.75,0,0,0-1.89,1.85v4.51h-1.19v-4.75c0-.94-0.29-1.61-1.36-1.61a2,2,0,0,0-1.93,1.85v4.51h-1.19v-7.26Z"/><path class="gs35-9" d="M305.6,282.52a2.92,2.92,0,0,1-3.1,2.46c-2.31,0-3.4-1.6-3.47-3.81a3.49,3.49,0,0,1,3.2-3.76h0.2c2.56,0,3.35,2.39,3.28,4.15h-5.42a2.13,2.13,0,0,0,2.25,2.38,1.75,1.75,0,0,0,1.88-1.41h1.18Zm-1.15-2a2.08,2.08,0,0,0-4.16,0h4.16Z"/><rect class="gs35-7" x="204.01" y="267.59" width="11.87" height="2.09"/><path class="gs35-9" d="M212.69,73.58h0.83v0.83h-0.83V73.58Z"/><path class="gs35-9" d="M214.58,73.58h0.81v0.83h-0.83Z"/><path class="gs35-9" d="M216.46,73.58h0.83v0.83h-0.83V73.58Z"/><line class="gs35-12" x1="211.26" y1="60.74" x2="218.42" y2="60.74"/><line class="gs35-12" x1="211.91" y1="261.75" x2="218.82" y2="261.75"/><path class="gs35-13" d="M175.84,0.15V424.78H482.78V0.15H175.84Zm197,401.51h-94.5v-71.5h94.5v71.5Z"/><path class="gs35-12" d="M398.5,261.74h-0.27c0.25,0.68.5,0.08,0.76,0.08,3,0,5.4-45.71,5.4-103.26S402,54.34,399,54.34a0.67,0.67,0,0,0-.49.43"/><path class="gs35-12" d="M398.5,54.77V53.3H211v0.13c-2.51,8.91-4.42,54-4.42,105.13s1.9,97.49,4.42,102.49a1.65,1.65,0,0,0,1.74.69H398.23c-2.62-7.14-4.64-50.61-4.64-103.18C393.59,104.19,395.75,59.56,398.5,54.77Z"/><rect class="gs35-14" x="240.9" y="63.06" width="66.55" height="181.17" rx="2.9" ry="2.9"/><path class="gs35-9" d="M260.86,82.59h3.44a2.32,2.32,0,0,1,0,4.64h-2.4v3.21h-1Zm1,3.76h2c1.18,0,1.72-.51,1.72-1.44s-0.54-1.44-1.72-1.44h-2v2.88Z"/><path class="gs35-9" d="M270,84.66a3,3,0,1,1-2.75,3.23q0-.11,0-0.23a2.7,2.7,0,0,1,2.38-3Zm0,5.13a1.86,1.86,0,0,0,1.77-2.15,1.81,1.81,0,1,0-3.54,0A1.83,1.83,0,0,0,270,89.75v0Z"/><path class="gs35-9" d="M273.65,82.59h0.94v7.86h-0.94V82.59Z"/><path class="gs35-9" d="M276.75,83.73h-0.94V82.59h0.94v1.14Zm-0.94,1h0.94v5.69h-0.94V84.73Z"/><path class="gs35-9" d="M281.79,86.58a1.32,1.32,0,0,0-1.4-1.13c-1.35,0-1.77,1.07-1.77,2.22s0.47,2.08,1.66,2.08a1.47,1.47,0,0,0,1.56-1.38h1a2.36,2.36,0,0,1-2.5,2.21h0a2.59,2.59,0,0,1-2.66-2.9c0-1.71.88-3,2.68-3a2.18,2.18,0,0,1,2.44,1.89v0.11Z"/><path class="gs35-9" d="M285.79,91.2c-0.43,1.11-.81,1.52-1.65,1.52a1.88,1.88,0,0,1-.65-0.1V91.76a1.93,1.93,0,0,0,.55.13,0.81,0.81,0,0,0,.77-0.52l0.39-1-2.26-5.65H284l1.66,4.65h0l1.6-4.65h1Z"/><rect class="gs35-7" x="250.46" y="112.01" width="47.44" height="106.13" rx="2.9" ry="2.9"/><path class="gs35-11" d="M258.59,157.82h4.09c2.65,0,3.16,1.72,3.16,2.87s-0.51,2.86-3.16,2.85h-2.47v3.56h-1.62v-9.28Zm1.63,4.39h2.38a1.48,1.48,0,0,0,1.63-1.53,1.38,1.38,0,0,0-1.6-1.53h-2.41v3.06Z"/><path class="gs35-11" d="M266.73,160.38h1.39v1.28h0a2.17,2.17,0,0,1,2-1.48,3.56,3.56,0,0,1,.56,0v1.48a5.41,5.41,0,0,0-.64-0.06c-1,0-1.82.82-1.82,2.3v3.2h-1.48v-6.72Z"/><path class="gs35-11" d="M270.39,163.73a3.4,3.4,0,1,1,3.39,3.55A3.25,3.25,0,0,1,270.39,163.73Zm5.3,0c0-1.16-.58-2.37-1.91-2.37s-1.91,1.21-1.91,2.37,0.58,2.38,1.91,2.38a2.12,2.12,0,0,0,2-2.38h-0.05Z"/><path class="gs35-11" d="M279.94,163.57l-2.33-3.19h1.78l1.4,2.07,1.47-2.07H284l-2.29,3.11,2.57,3.61h-1.78l-1.7-2.48-1.65,2.48h-1.74Z"/><path class="gs35-11" d="M284,160.38h1.63l1.75,5h0l1.7-5h1.55l-2.61,7.09c-0.48,1.21-.83,2.3-2.38,2.3a6.74,6.74,0,0,1-1-.08v-1.25a4.32,4.32,0,0,0,.7.09,0.94,0.94,0,0,0,1-.94l0.17-.52Z"/><rect class="gs35-14" x="314.23" y="63.06" width="66.55" height="181.17" rx="2.9" ry="2.9"/><path class="gs35-9" d="M334.19,82.59h3.44a2.32,2.32,0,0,1,0,4.64h-2.4v3.21h-1Zm1,3.76h2c1.18,0,1.72-.51,1.72-1.44s-0.54-1.44-1.72-1.44h-2v2.88Z"/><path class="gs35-9" d="M343.39,84.66a3,3,0,1,1-2.75,3.23q0-.11,0-0.23a2.7,2.7,0,0,1,2.38-3Zm0,5.13a1.86,1.86,0,0,0,1.77-2.15,1.81,1.81,0,1,0-3.54,0,1.82,1.82,0,0,0,1.77,2.11v0Z"/><path class="gs35-9" d="M347,82.59h0.94v7.86H347V82.59Z"/><path class="gs35-9" d="M350.09,83.73h-0.94V82.59h0.94v1.14Zm-0.94,1h0.94v5.69h-0.94V84.73Z"/><path class="gs35-9" d="M355.12,86.58a1.32,1.32,0,0,0-1.41-1.13c-1.35,0-1.77,1.07-1.77,2.22s0.47,2.08,1.66,2.08a1.47,1.47,0,0,0,1.56-1.38h1a2.36,2.36,0,0,1-2.5,2.21h0a2.59,2.59,0,0,1-2.66-2.9c0-1.71.88-3,2.68-3a2.18,2.18,0,0,1,2.45,1.88s0,0.08,0,.12Z"/><path class="gs35-9" d="M359.13,91.2c-0.43,1.11-.81,1.52-1.65,1.52a1.89,1.89,0,0,1-.65-0.1V91.76a1.94,1.94,0,0,0,.55.13,0.81,0.81,0,0,0,.77-0.52l0.39-1-2.26-5.65h1.06L359,89.37h0l1.6-4.65h1Z"/><rect class="gs35-7" x="323.79" y="112.02" width="47.44" height="106.13" rx="2.9" ry="2.9"/><path class="gs35-11" d="M337.39,152.94H339v4.22l4.13-4.22h2l-3.71,3.72,4,5.58h-2l-3-4.43-1.33,1.31v3.12h-1.72v-9.3Z"/><path class="gs35-11" d="M346.91,159.24a1.79,1.79,0,0,0,1.57,2h0.24a1.56,1.56,0,0,0,1.64-1.12h1.4a2.94,2.94,0,0,1-3,2.29c-2.11,0-3.29-1.47-3.29-3.54a3.25,3.25,0,1,1,6.42.38h-5Zm3.46-1a1.73,1.73,0,1,0-3.46,0h3.46Z"/><path class="gs35-11" d="M351.92,155.5h1.63l1.75,5h0l1.7-5h1.55l-2.61,7.09c-0.48,1.21-.83,2.3-2.38,2.3a6.73,6.73,0,0,1-1-.08v-1.25a4.33,4.33,0,0,0,.7.09,0.94,0.94,0,0,0,1-.94l0.17-.52Z"/><path class="gs35-11" d="M337.51,166.18h1.73l3.58,9.28h-1.74L340.21,173h-3.72l-0.87,2.46h-1.68Zm-0.57,5.59h2.83l-1.39-4h0Z"/><path class="gs35-11" d="M349.07,175.47h-1.46v-0.94h0a2.26,2.26,0,0,1-1.91,1.12c-1.75,0-2.51-.88-2.51-2.64v-4.26h1.48v4.12c0,1.18.48,1.61,1.29,1.61a1.55,1.55,0,0,0,1.65-1.83v-3.9h1.48Z"/><path class="gs35-11" d="M349.62,168.74h1.12v-2h1.48v2h1.34v1.11h-1.34v3.59c0,0.61,0,.92.71,0.92a2.54,2.54,0,0,0,.62-0.05v1.14c-0.33,0-.64.08-1,0.08-1.55,0-1.83-.6-1.86-1.72v-4h-1.12Z"/><path class="gs35-11" d="M354.31,166.18h1.48v3.48h0a2.35,2.35,0,0,1,2-1.07,2.13,2.13,0,0,1,2.38,2.29v4.62h-1.48v-4.23a1.24,1.24,0,0,0-1.31-1.51,1.64,1.64,0,0,0-1.63,1.65s0,0.08,0,.12v4h-1.48Z"/><path class="gs35-10" d="M216.67,53.3h8.41C224.22,53.19,220.19,53.23,216.67,53.3Z"/><path class="gs35-10" d="M225.22,53.42l175.12-.12H225.07c0.11,0,.17,0,0.17,0Z"/><path class="gs35-10" d="M211.07,53.3v0.13l5.59-.13h-5.59Z"/><path class="gs35-10" d="M258.39,261.74H257A10.67,10.67,0,0,0,258.39,261.74Z"/><path class="gs35-10" d="M400.39,261.39L397.21,242H275.88c-13.69,0-31.53-1.73-43.63-19.36-11.3-16.47-15.92-48-15.92-71.85,0-33.21-2-87.31,34.76-97.4h-40c-2.54,8.91-4.46,46.14-4.46,97.22S208.55,256,211.09,261a1.67,1.67,0,0,0,1.76.69H257a18.57,18.57,0,0,1-2.63-.35H400.39Z"/><path class="gs35-7" d="M220.12,247.11h4.07a2.75,2.75,0,0,1,.33,5.49h-3.13v3.8h-1.23Zm1.27,4.45h2.42c1.39,0,2-.6,2-1.7s-0.64-1.7-2-1.7h-2.42v3.4Z"/><path class="gs35-7" d="M229.21,248.47H228.1v-1.35h1.11v1.35Zm-1.11,1.19h1.11v6.72H228.1v-6.72Z"/><path class="gs35-7" d="M230.64,249.66h1.11v0.91h0a2.26,2.26,0,0,1,2.15-1.06c2.07,0,3.09,1.64,3.09,3.54s-1,3.5-3.07,3.5a2.58,2.58,0,0,1-2.17-1.05h0V259h-1.11v-9.31Zm3.12,0.82c-1.48,0-2.05,1.27-2.05,2.54s0.6,2.55,2.12,2.55,2-1.29,2-2.6-0.64-2.48-2.07-2.48h0Z"/><path class="gs35-7" d="M243.71,254.26a2.71,2.71,0,0,1-2.87,2.29c-2.14,0-3.16-1.48-3.22-3.54a3.23,3.23,0,0,1,2.95-3.49h0.21c2.38,0,3.11,2.22,3,3.85h-5a2,2,0,0,0,1.78,2.2h0.31a1.62,1.62,0,0,0,1.74-1.31h1.1Zm-1.07-1.87a1.93,1.93,0,1,0-3.86,0h3.86Z"/><path class="gs35-7" d="M244.7,247.11h1.11v9.28H244.7v-9.28Z"/><path class="gs35-7" d="M248.39,248.47h-1.11v-1.35h1.11v1.35Zm-1.13,1.19h1.13v6.72h-1.11Z"/><path class="gs35-7" d="M249.76,249.66h1v1.07h0a2.34,2.34,0,0,1,2.18-1.22c1.77,0,2.31,1,2.31,2.46v4.42h-1.11v-4.55a1.27,1.27,0,0,0-1.18-1.35h-0.19a1.89,1.89,0,0,0-2,2.11v3.8h-1.1Z"/><path class="gs35-7" d="M262.39,254.26a2.71,2.71,0,0,1-2.87,2.29c-2.15,0-3.16-1.48-3.22-3.54a3.23,3.23,0,0,1,2.95-3.49h0.21c2.38,0,3.11,2.22,3,3.85h-5a2,2,0,0,0,1.78,2.2h0.31a1.62,1.62,0,0,0,1.74-1.31h1.1Zm-1.07-1.87a1.93,1.93,0,0,0-1.94-1.9,1.91,1.91,0,0,0-1.92,1.9h3.86Z"/><path class="gs35-7" d="M269.39,247.18c2.89,0,3.07,2.65,3.07,4.69s-0.18,4.68-3.07,4.68-3.07-2.65-3.07-4.68S266.5,247.18,269.39,247.18Zm0,8.4c1.88,0,1.9-2.34,1.9-3.72s0-3.71-1.9-3.71-1.9,2.34-1.9,3.71S267.5,255.58,269.39,255.58Z"/><path class="gs35-7" d="M275.51,251.13H276a1.56,1.56,0,0,0,1.74-1.36q0-.08,0-0.15a1.46,1.46,0,0,0-1.43-1.49H276.1a1.75,1.75,0,0,0-1.74,2h-1.1c0.06-1.76,1-3,2.85-3,1.6,0,2.81.77,2.81,2.47a2.11,2.11,0,0,1-1.27,1.83h0a2.1,2.1,0,0,1,1.66,2.24c0,1.85-1.44,2.81-3.17,2.81a2.79,2.79,0,0,1-3.07-3h1.11a1.87,1.87,0,0,0,1.73,2h0.27a1.83,1.83,0,0,0,2-1.65s0-.09,0-0.13a1.76,1.76,0,0,0-1.73-1.79l-0.27,0a5.67,5.67,0,0,0-.66,0v-0.81Z"/><rect class="gs35-7" x="277.76" y="366.37" width="98.06" height="34.95"/><path class="gs35-15" d="M480.58,155.82l-0.1,257.11c-1.59,10.29-8.77,18.24-17.54,18.24h-268c-8.77,0-15.94-8-15.94-17.66V40c0-9.71,7.17-17.66,15.94-17.66l269.73-.11c8.77,0,15.94,8,15.94,17.66Z"/><path class="gs35-10" d="M260,408.41h9.26v2h-7v3.37h6.48v1.84h-6.48v3.76h7.1v1.94H260Z"/><path class="gs35-10" d="M273.39,416.37L270.17,412h2.48l2,2.86,2-2.86H279l-3.17,4.3,3.56,5H276.9l-2.36-3.44-2.29,3.44h-2.41Z"/><path class="gs35-10" d="M280.45,412h1.94v1.26h0a3.11,3.11,0,0,1,2.88-1.51c2.94,0,4.36,2.23,4.36,5,0,2.5-1.26,4.86-4,4.86a3.62,3.62,0,0,1-3.12-1.46h0v4.55h-2V412Zm4.59,1.37c-1.73,0-2.61,1.31-2.61,3.29s1,3.28,2.61,3.28c1.87,0,2.57-1.66,2.57-3.28s-0.88-3.29-2.57-3.29h0Z"/><path class="gs35-10" d="M291.21,412h1.93v1.8h0a3,3,0,0,1,2.75-2.1,4.94,4.94,0,0,1,.78,0v2a7.15,7.15,0,0,0-.88-0.09c-1.4,0-2.52,1.13-2.52,3.19v4.43h-2V412Z"/><path class="gs35-10" d="M298.65,417.14a2.48,2.48,0,0,0,2.18,2.74l0.32,0a2.16,2.16,0,0,0,2.27-1.55h2a4.08,4.08,0,0,1-4.21,3.17c-2.92,0-4.56-2-4.56-4.9,0-2.65,1.73-4.92,4.5-4.92,2.94,0,4.74,2.65,4.39,5.44h-6.86Zm4.79-1.35a2.4,2.4,0,1,0-4.79,0h4.79Z"/><path class="gs35-10" d="M308.39,418.28a1.81,1.81,0,0,0,2.11,1.62c0.77,0,2.13-.16,2.07-1.22s-1.55-1.21-3-1.55-3-.87-3-2.76,2.2-2.66,3.89-2.66c1.91,0,3.64.79,3.89,2.86h-2.14a1.62,1.62,0,0,0-1.89-1.24c-0.59,0-1.69.14-1.69,1s1.51,1.15,3,1.5,3,0.88,3,2.72c0,2.21-2.23,3-4.16,3-2.34,0-4.09-1-4.12-3.24Z"/><path class="gs35-10" d="M317.58,418.28a1.81,1.81,0,0,0,2.11,1.62c0.77,0,2.13-.16,2.07-1.22s-1.55-1.21-3-1.55-3-.87-3-2.76,2.2-2.66,3.89-2.66c1.91,0,3.64.79,3.89,2.86h-2.15a1.62,1.62,0,0,0-1.89-1.24c-0.59,0-1.69.14-1.69,1s1.51,1.15,3,1.5,3,0.88,3,2.72c0,2.21-2.23,3-4.16,3-2.34,0-4.09-1-4.12-3.24Z"/><path class="gs35-10" d="M341.53,421.27h-1.44l-0.34-1.51a4.63,4.63,0,0,1-3.87,1.82c-3.85,0-6.16-3.06-6.16-6.73s2.3-6.73,6.16-6.73c2.81,0,5.17,1.5,5.51,4.39h-2.2a3.07,3.07,0,0,0-3.31-2.56c-2.76,0-3.91,2.43-3.91,4.9s1.15,4.9,3.91,4.9a3.27,3.27,0,0,0,3.6-3.53h-3.42v-1.71h5.47v6.76Z"/><path class="gs35-10" d="M351.3,419.2c0,0.5.11,0.7,0.48,0.7a2.77,2.77,0,0,0,.51,0v1.42a5.1,5.1,0,0,1-1.3.23,1.37,1.37,0,0,1-1.58-1.13,4.78,4.78,0,0,1-3.22,1.13c-1.67,0-3.19-.9-3.19-2.72,0-2.32,1.85-2.7,3.58-2.9,1.48-.27,2.79-0.11,2.79-1.31s-1.1-1.26-1.93-1.26c-1.15,0-2,.47-2,1.48h-2c0.14-2.39,2.18-3.1,4.23-3.1,1.82,0,3.73.74,3.73,2.7Zm-2-2.59a7.34,7.34,0,0,1-2.52.56c-0.88.14-1.67,0.47-1.67,1.55,0,0.92,1.17,1.19,1.89,1.19,0.9,0,2.3-.47,2.3-1.77v-1.53Z"/><path class="gs35-10" d="M352.39,412h1.55v-2.79h2V412h1.86v1.53H356v5c0,0.85.07,1.28,1,1.28a3.5,3.5,0,0,0,.87-0.07v1.58c-0.45,0-.88.11-1.33,0.11-2.14,0-2.54-.83-2.58-2.38v-5.49h-1.56V412Z"/><path class="gs35-10" d="M360.75,417.14a2.48,2.48,0,0,0,2.18,2.74l0.32,0a2.16,2.16,0,0,0,2.27-1.55h1.94a4.07,4.07,0,0,1-4.21,3.17c-2.92,0-4.55-2-4.55-4.9,0-2.65,1.73-4.92,4.5-4.92,2.93,0,4.73,2.65,4.39,5.44h-6.84Zm4.79-1.35a2.4,2.4,0,1,0-4.79,0h4.79Z"/><path class="gs35-10" d="M368.13,412h2.18l1.82,7h0l1.75-7h2.07l1.68,7h0l1.89-7h2.09l-2.92,9.31h-2.11l-1.73-6.91h0l-1.71,6.91H371Z"/><path class="gs35-10" d="M390.59,419.2c0,0.5.11,0.7,0.49,0.7a2.75,2.75,0,0,0,.5,0v1.42a5.09,5.09,0,0,1-1.3.23,1.37,1.37,0,0,1-1.58-1.13,4.78,4.78,0,0,1-3.22,1.13c-1.67,0-3.19-.9-3.19-2.72,0-2.32,1.86-2.7,3.58-2.9,1.48-.27,2.79-0.11,2.79-1.31s-1.1-1.26-1.93-1.26c-1.15,0-2,.47-2,1.48h-2c0.14-2.39,2.18-3.1,4.23-3.1,1.82,0,3.73.74,3.73,2.7v4.76Zm-2-2.59a7.34,7.34,0,0,1-2.52.56c-0.88.14-1.68,0.47-1.68,1.55,0,0.92,1.17,1.19,1.89,1.19,0.9,0,2.3-.47,2.3-1.77v-1.53Z"/><path class="gs35-10" d="M391.6,412h2.25l2.43,7h0l2.36-7h2.14l-3.62,9.81c-0.67,1.68-1.15,3.19-3.29,3.19a9.23,9.23,0,0,1-1.42-.11v-1.73a6.11,6.11,0,0,0,1,.13c1,0,1.19-.5,1.44-1.29l0.23-.72Z"/><rect class="gs35-10" x="284.83" y="335.12" width="81.49" height="62.96" rx="3.14" ry="3.14"/><path class="gs35-11" d="M307.78,343.88a2,2,0,0,0-2.13-1.62c-1.81,0-2.58,1.49-2.58,3.08s0.77,3.19,2.59,3.19a2.15,2.15,0,0,0,2.2-2.1s0-.07,0-0.1h1a3.1,3.1,0,0,1-3.14,3.06h-0.16c-2.37,0-3.52-1.75-3.52-4s1.26-4,3.6-4a2.91,2.91,0,0,1,3.14,2.47Z"/><path class="gs35-11" d="M312.08,343.56a2.89,2.89,0,1,1-2.67,3.09q0-.1,0-0.2a2.62,2.62,0,0,1,2.33-2.88h0.35Zm0,5a2.12,2.12,0,1,0-1.72-2.08,1.79,1.79,0,0,0,1.72,2v0Z"/><path class="gs35-11" d="M315.56,343.66h0.83v0.88h0a1.92,1.92,0,0,1,1.79-1,1.71,1.71,0,0,1,1.9,2v3.63h-0.91v-3.73a1,1,0,0,0-1.12-1.11,1.55,1.55,0,0,0-1.63,1.73v3.11h-0.91Z"/><path class="gs35-11" d="M321.77,347.47a1.22,1.22,0,0,0,1.48,1.07c0.57,0,1.33-.13,1.33-0.82s-0.9-.82-1.8-1-1.8-.5-1.8-1.56a1.84,1.84,0,0,1,2.06-1.57c1.22,0,2.19.38,2.26,1.73h-0.91a1.11,1.11,0,0,0-1.28-.93c-0.6,0-1.17.15-1.17,0.7s1,0.76,1.8,1,1.8,0.5,1.8,1.57c0,1.31-1.23,1.74-2.35,1.74s-2.28-.5-2.33-1.87Z"/><path class="gs35-11" d="M330.85,349.21H330v-0.87h0a1.92,1.92,0,0,1-1.79,1,1.71,1.71,0,0,1-1.9-2v-3.68h0.91v3.73a1,1,0,0,0,1.12,1.11,1.55,1.55,0,0,0,1.63-1.73v-3.11h0.91Z"/><path class="gs35-11" d="M331.94,343.66h0.85v0.81h0a2,2,0,0,1,1.78-.94,1.46,1.46,0,0,1,1.51.94,2,2,0,0,1,1.73-.94,1.54,1.54,0,0,1,1.83,1.6v4h-0.91v-3.62a1,1,0,0,0-1.07-1.23,1.34,1.34,0,0,0-1.44,1.41v3.43h-0.83V345.5a1,1,0,0,0-1-1.23,1.49,1.49,0,0,0-1.47,1.41v3.43H332Z"/><path class="gs35-11" d="M345.47,347.46a2.22,2.22,0,0,1-2.36,1.88c-1.76,0-2.59-1.22-2.65-2.9a2.65,2.65,0,0,1,2.42-2.86H343c2,0,2.55,1.82,2.5,3.16h-4.16a1.62,1.62,0,0,0,1.41,1.8h0.31a1.33,1.33,0,0,0,1.43-1.08h0.93Zm-0.87-1.54a1.59,1.59,0,0,0-3.17,0h3.17Z"/><path class="gs35-11" d="M346.19,343.66H347v1.16h0a2,2,0,0,1,2-1.29v1c-1.46,0-2,.83-2,2.23v2.45h-0.91Z"/><path class="gs35-11" d="M296.09,352.6h1.39l2.4,6.4,2.41-6.4h1.39v7.62h-1v-6.34h0l-2.38,6.34h-0.86l-2.38-6.34h0v6.34h-1Z"/><path class="gs35-11" d="M309.83,360.2a1.22,1.22,0,0,1-.65.15,0.73,0.73,0,0,1-.77-0.85,2.45,2.45,0,0,1-1.94.85,1.56,1.56,0,0,1-1.82-1.55c0-1.1.93-1.51,1.87-1.7s1.86-.13,1.86-0.81a1,1,0,0,0-1.23-.92,1.13,1.13,0,0,0-1.38,1h-0.91c0-1.37,1.11-1.85,2.34-1.85,1,0,2.07.22,2.07,1.51v2.84c0,0.43,0,.62.29,0.62a0.77,0.77,0,0,0,.28,0v0.76Zm-1.44-2.83a4.66,4.66,0,0,1-1.64.37,1.06,1.06,0,0,0-1.11,1,0.85,0.85,0,0,0,1.07.81,1.48,1.48,0,0,0,1.69-1.25v-0.93Z"/><path class="gs35-11" d="M310.39,354.66h0.85v0.88h0a1.92,1.92,0,0,1,1.79-1,1.71,1.71,0,0,1,1.9,2v3.63H314v-3.73a1,1,0,0,0-1.12-1.11,1.55,1.55,0,0,0-1.63,1.73v3.11h-0.88v-5.51Z"/><path class="gs35-11" d="M320.94,360.2a1.22,1.22,0,0,1-.65.15,0.73,0.73,0,0,1-.77-0.85,2.45,2.45,0,0,1-1.94.85,1.56,1.56,0,0,1-1.82-1.55c0-1.1.93-1.51,1.87-1.7s1.86-.13,1.86-0.81a1,1,0,0,0-1.23-.92,1.13,1.13,0,0,0-1.38,1H316c0-1.37,1.11-1.85,2.34-1.85,1,0,2.07.22,2.07,1.51v2.84c0,0.43,0,.62.29,0.62a0.77,0.77,0,0,0,.28,0v0.76Zm-1.47-2.83a4.66,4.66,0,0,1-1.64.37,1.06,1.06,0,0,0-1.11,1,0.85,0.85,0,0,0,1.07.81,1.48,1.48,0,0,0,1.69-1.25v-0.93Z"/><path class="gs35-11" d="M326.27,359.75c0,1.79-.82,2.71-2.56,2.71-1,0-2.23-.42-2.28-1.62h0.91c0,0.66.83,0.9,1.43,0.9,1.18,0,1.65-.85,1.65-2.09v-0.36h0a1.84,1.84,0,0,1-1.72,1,2.5,2.5,0,0,1-2.46-2.79c0-1.3.64-2.91,2.55-2.91a1.8,1.8,0,0,1,1.64.92h0v-0.85h0.85v5.09Zm-0.9-2.4c0-1-.43-2-1.57-2a1.75,1.75,0,0,0-1.63,2c0,1,.36,2.1,1.56,2.1s1.66-1.07,1.66-2.1h0Z"/><path class="gs35-11" d="M332.07,358.47a2.22,2.22,0,0,1-2.36,1.88c-1.76,0-2.59-1.22-2.65-2.9a2.65,2.65,0,0,1,2.42-2.86h0.17c2,0,2.55,1.82,2.5,3.16H328a1.62,1.62,0,0,0,1.41,1.8h0.31a1.33,1.33,0,0,0,1.43-1.08h0.9Zm-0.87-1.54a1.59,1.59,0,0,0-3.17,0h3.17Z"/><path class="gs35-11" d="M332.83,354.66h0.85v0.81h0a2,2,0,0,1,1.78-.94,1.46,1.46,0,0,1,1.51.94,2,2,0,0,1,1.73-.94,1.54,1.54,0,0,1,1.83,1.6v4h-0.91v-3.62a1,1,0,0,0-1.07-1.23,1.34,1.34,0,0,0-1.44,1.41v3.43H336.2V356.5a1,1,0,0,0-1-1.23,1.49,1.49,0,0,0-1.47,1.41v3.43h-0.91v-5.45Z"/><path class="gs35-11" d="M346.39,358.47a2.22,2.22,0,0,1-2.36,1.88c-1.76,0-2.59-1.22-2.65-2.9a2.65,2.65,0,0,1,2.42-2.86H344c2,0,2.55,1.82,2.5,3.16h-4.13a1.62,1.62,0,0,0,1.41,1.8h0.31a1.33,1.33,0,0,0,1.43-1.08h0.9Zm-0.87-1.54a1.59,1.59,0,0,0-3.17,0h3.17Z"/><path class="gs35-11" d="M347.11,354.66H348v0.88h0a1.92,1.92,0,0,1,1.79-1,1.71,1.71,0,0,1,1.9,2v3.63h-0.91v-3.73a1,1,0,0,0-1.12-1.11,1.55,1.55,0,0,0-1.63,1.73v3.11h-0.91Z"/><path class="gs35-11" d="M354,354.66h1.1v0.8H354v3.42c0,0.42.12,0.49,0.68,0.49h0.42v0.8h-0.74c-0.94,0-1.31-.19-1.31-1.21v-3.51h-0.94v-0.79h0.94V353H354Z"/><path class="gs35-7" d="M312.39,373.71c0,5.58-3.17,10.1-7.07,10.1S299,378.75,299,373.17c0-2.48-.56-4.39,1.13-5.08s3.55-2.3,3.5-3c-0.06-.94.72-0.23,1.69-0.23C309.29,364.83,312.39,368.13,312.39,373.71Z"/><path class="gs35-16" d="M311.64,377.14c0.1-.52.78-0.32,1.07-1.55,0.43-1.8-.44-2.07-1-1.71"/><path class="gs35-16" d="M299.39,377.14c0.57,3.81,3.09,6.67,6.11,6.67s5.54-2.87,6.11-6.67"/><line class="gs35-16" x1="302.8" y1="376.51" x2="304.22" y2="376.51"/><line class="gs35-16" x1="307.27" y1="376.51" x2="308.69" y2="376.51"/><path class="gs35-16" d="M303.93,380.79a2.47,2.47,0,0,0,3.21,0"/><path class="gs35-16" d="M304,364.89a2.62,2.62,0,0,1-.43,1.39c-0.63.9-1.54,0.79-2.61,1.43a4.91,4.91,0,0,0-2.17,3.17,5.11,5.11,0,0,0,1,3.85,7.19,7.19,0,0,1,1.27-3.5,9.89,9.89,0,0,0,7.38,3,13.16,13.16,0,0,1-.59-1.24c-0.19-.46-0.33-0.85-0.46-1.24q0.77,0.65,1.63,1.3c0.8,0.61,1.58,1.16,2.34,1.66a6.36,6.36,0,0,0,.83-4.33C311.61,367.4,308.29,365,304,364.89Z"/><path class="gs35-9" d="M339.23,386.36h1.08v3.85l2-2h1.33l-1.88,1.8,2.06,3.1H342.5l-1.5-2.38-0.64.63v1.75h-1.08Z"/><path class="gs35-9" d="M344.89,391a1.3,1.3,0,0,0,1.14,1.44h0.18a1.14,1.14,0,0,0,1.19-.82h1a2.15,2.15,0,0,1-2.22,1.67,2.32,2.32,0,0,1-2.4-2.58,2.37,2.37,0,1,1,4.68.27h-3.57Zm2.52-.71a1.26,1.26,0,0,0-2.52,0h2.52Z"/><path class="gs35-9" d="M348.54,388.22h1.18l1.28,3.66h0l1.24-3.66h1.15l-1.9,5.17c-0.35.88-.61,1.68-1.73,1.68A4.85,4.85,0,0,1,349,395V394.1a3,3,0,0,0,.51.07,0.72,0.72,0,0,0,.76-0.68l0.12-.38Z"/><path class="gs35-9" d="M326.32,373.89h1.22v2.42h2.41v1.22h-2.41V380h-1.22v-2.42h-2.41v-1.22h2.41v-2.42Z"/><path class="gs35-7" d="M355.7,366.66a5.43,5.43,0,0,0-9,5.52h0L339.86,379l0.47,3,3,0.47,0.55-2.31,1.64,0.12,1.14-1.14-0.41-1.55,1.52,0.44,0.86-.86,1.53-1.53a5.43,5.43,0,0,0,5.52-9h0Zm-2,4.37a1.66,1.66,0,1,1,0-2.35h0a1.66,1.66,0,0,1,0,2.35l0,0Z"/><circle class="gs35-16" cx="352.57" cy="369.91" r="1.66" transform="translate(-158.3 357.65) rotate(-45)"/><polyline class="gs35-16" points="346.77 372.23 339.93 379.07 340.4 382.08 343.41 382.56 343.96 380.24 345.61 380.36 346.75 379.22 346.35 377.67 347.87 378.1 348.72 377.25"/><path class="gs35-16" d="M350.26,375.71a5.44,5.44,0,1,0-3.49-3.49"/><path class="gs35-17" d="M508.45,238.52h3.82c1.41,0,2.33.64,2.33,1.95a1.73,1.73,0,0,1-1.12,1.67h0a1.87,1.87,0,0,1,1.47,2c0,1.23-.86,2.19-2.89,2.19h-3.61v-7.81Zm1.38,3.29h2.25a1,1,0,0,0,1.15-1.09,1,1,0,0,0-1.15-1.08h-2.25v2.17Zm0,3.44h2.43a1.24,1.24,0,0,0,.22-2.46h-2.65v2.45Z"/><path class="gs35-17" d="M515.48,243.52a2.87,2.87,0,1,1,2.87,3A2.75,2.75,0,0,1,515.48,243.52Zm4.49,0a1.66,1.66,0,1,0-1.62,2A1.75,1.75,0,0,0,520,243.52Z"/><path class="gs35-17" d="M522,238.52h1.25v2.9h0a2.07,2.07,0,0,1,1.69-.89c1.79,0,2.66,1.36,2.66,3s-0.77,3-2.45,3a2,2,0,0,1-2-.94h0v0.78H522Zm2.8,3c-1.06,0-1.59.8-1.59,2s0.58,2,1.59,2a1.79,1.79,0,0,0,1.57-2,1.77,1.77,0,0,0-1.56-2h0Z"/><path class="gs35-7" d="M527.55,217.89c0,8-4.54,14.47-10.13,14.47s-9-7.25-9-15.24c0-3.55-.8-6.29,1.62-7.28,2.61-1.07,5.08-3.29,5-4.37-0.09-1.34,1-.32,2.43-0.32C523.07,205.16,527.55,209.9,527.55,217.89Z"/><path class="gs35-18" d="M526.44,222.81c0.15-.75,1.12-0.46,1.54-2.22,0.62-2.57-.64-3-1.36-2.46"/><path class="gs35-18" d="M508.94,222.81c0.82,5.45,4.43,9.56,8.75,9.56s7.93-4.11,8.75-9.56"/><line class="gs35-18" x1="513.78" y1="221.9" x2="515.81" y2="221.9"/><line class="gs35-18" x1="520.18" y1="221.9" x2="522.21" y2="221.9"/><path class="gs35-18" d="M515.39,228a3.54,3.54,0,0,0,4.6,0"/><path class="gs35-18" d="M515.57,205.25a3.75,3.75,0,0,1-.62,2c-0.9,1.29-2.21,1.13-3.73,2.05a7,7,0,0,0-3.11,4.54,7.32,7.32,0,0,0,1.39,5.52,10.31,10.31,0,0,1,1.82-5,14.17,14.17,0,0,0,10.57,4.3c-0.28-.53-0.57-1.12-0.84-1.77s-0.48-1.22-.65-1.77q1.1,0.92,2.33,1.87c1.15,0.87,2.27,1.66,3.35,2.37a9.12,9.12,0,0,0,1.19-6.2C526.39,208.86,521.65,205.38,515.57,205.25Z"/><path class="gs35-17" d="M553.56,237.66h1.25v4.47l2.27-2.3h1.54l-2.18,2.09,2.39,3.6H557.3l-1.74-2.76-0.75.73v2h-1.25v-7.83Z"/><path class="gs35-17" d="M560.14,243a1.51,1.51,0,0,0,1.33,1.67h0.2a1.32,1.32,0,0,0,1.39-.95h1.19a2.49,2.49,0,0,1-2.58,1.94,2.7,2.7,0,0,1-2.78-3,2.75,2.75,0,1,1,5.44.32h-4.19Zm2.93-.83a1.46,1.46,0,1,0-2.93,0h2.93Z"/><path class="gs35-17" d="M564.39,239.78h1.38l1.49,4.25h0l1.44-4.25H570l-2.21,6c-0.41,1-.7,1.95-2,1.95a5.68,5.68,0,0,1-.87-0.07V246.6a3.64,3.64,0,0,0,.59.08,0.84,0.84,0,0,0,.88-0.79l0.14-.44Z"/><path class="gs35-17" d="M539.07,215.6h1.67v3.31H544v1.67h-3.29v3.31h-1.67v-3.31h-3.29v-1.67h3.29V215.6Z"/><path class="gs35-7" d="M574.64,210.8a7.41,7.41,0,0,0-12.25,7.54h0L553,227.66l0.64,4.11,4.11,0.64,0.75-3.15,2.24,0.16,1.56-1.56-0.55-2.11,2.07,0.6,1.17-1.17,2.09-2.09a7.41,7.41,0,0,0,7.54-12.29h0Zm-2.77,6a2.26,2.26,0,1,1,0-3.2,2.26,2.26,0,0,1,0,3.2v0Z"/><circle class="gs35-18" cx="570.39" cy="215.17" r="2.26" transform="translate(14.92 466.35) rotate(-45)"/><polyline class="gs35-18" points="562.46 218.34 553.13 227.67 553.78 231.78 557.89 232.42 558.64 229.27 560.88 229.43 562.44 227.87 561.89 225.76 563.96 226.35 565.13 225.18"/><path class="gs35-18" d="M567.22,223.09a7.42,7.42,0,1,0-4.76-4.76"/><path class="gs35-2" d="M629.6,199.93h1.92l4,10.3h-1.93l-1-2.73h-4.11l-1,2.73h-1.86Zm-0.63,6.2h3.14l-1.54-4.47h0Z"/><path class="gs35-2" d="M636.11,199.93h4.54c2.94,0,3.5,1.9,3.5,3.19s-0.56,3.17-3.5,3.16h-2.74v4h-1.8V199.93Zm1.8,4.87h2.64a1.64,1.64,0,0,0,1.8-1.7,1.53,1.53,0,0,0-1.77-1.7h-2.67v3.4Z"/><path class="gs35-2" d="M645.39,199.93h1.8v10.3h-1.8v-10.3Z"/><path class="gs35-2" d="M609.32,216h7.41v1.56h-5.61v2.7h5.19v1.44h-5.19v3h5.71v1.56h-7.51V216Z"/><path class="gs35-2" d="M617.82,218.8h1.57v1.1h0a2.67,2.67,0,0,1,2.32-1.33,2.36,2.36,0,0,1,2.64,2.54v5.12h-1.64v-4.69c0-1.17-.49-1.67-1.46-1.67a1.82,1.82,0,0,0-1.81,1.83q0,0.08,0,.17v4.4h-1.64V218.8Z"/><path class="gs35-2" d="M632.76,226.25H631.2v-1h0a2.48,2.48,0,0,1-2.31,1.21c-2.35,0-3.49-1.75-3.49-4,0-2.7,1.6-3.88,3.23-3.88a2.88,2.88,0,0,1,2.48,1.17h0V216h1.64v10.29Zm-3.68-1.1c1.47,0,2.09-1.34,2.09-2.64,0-1.64-.79-2.62-2.06-2.62-1.54,0-2.09,1.37-2.09,2.71s0.64,2.56,2.06,2.56h0Z"/><path class="gs35-2" d="M634.23,218.8h1.56v1h0a2.49,2.49,0,0,1,2.31-1.21c2.35,0,3.49,1.79,3.49,4,0,2-1,3.89-3.22,3.89a2.9,2.9,0,0,1-2.49-1.17h0V229h-1.64V218.8Zm3.68,1.1c-1.38,0-2.09,1.05-2.09,2.64s0.76,2.63,2.09,2.63c1.5,0,2.06-1.33,2.06-2.62s-0.7-2.66-2.06-2.66h0Z"/><path class="gs35-2" d="M642.3,222.52a3.77,3.77,0,1,1,3.76,3.94A3.6,3.6,0,0,1,642.3,222.52Zm5.88,0c0-1.28-.65-2.62-2.12-2.62s-2.12,1.34-2.12,2.63,0.65,2.64,2.12,2.64S648.18,223.82,648.18,222.52Z"/><path class="gs35-2" d="M650.88,216h1.64v1.56h-1.64V216Zm0,2.84h1.64v7.46h-1.64V218.8Z"/><path class="gs35-2" d="M653.95,218.8h1.56v1.1h0a2.67,2.67,0,0,1,2.32-1.33,2.36,2.36,0,0,1,2.64,2.54v5.12h-1.64v-4.69c0-1.17-.49-1.67-1.46-1.67a1.82,1.82,0,0,0-1.81,1.83q0,0.08,0,.17v4.4h-1.64Z"/><path class="gs35-2" d="M661.12,218.8h1.27v-2.24H664v2.23h1.49V220H664v4c0,0.68.06,1,.79,1a2.81,2.81,0,0,0,.69-0.06v1.27c-0.36,0-.71.09-1.07,0.09-1.72,0-2-.66-2.06-1.9V220h-1.24Z"/><path class="gs35-2" d="M616.21,245a12,12,0,0,1-2.08-6.65,12.29,12.29,0,0,1,2.08-6.65h1.34a13.34,13.34,0,0,0-1.77,6.65,12.73,12.73,0,0,0,1.77,6.65h-1.34Z"/><path class="gs35-2" d="M618.17,232h4.54c2.94,0,3.5,1.9,3.5,3.19s-0.56,3.17-3.5,3.16H620v4h-1.8V232Zm1.8,4.87h2.64a1.64,1.64,0,0,0,1.8-1.7,1.53,1.53,0,0,0-1.77-1.7H620v3.4Z"/><path class="gs35-2" d="M633.75,242.28h-1.62v-1h0a2.5,2.5,0,0,1-2.12,1.24c-2,0-2.78-1-2.78-2.93v-4.73h1.64v4.57c0,1.31.53,1.79,1.43,1.79a1.72,1.72,0,0,0,1.83-2v-4.33h1.64Z"/><path class="gs35-2" d="M635.16,232h1.64v3.81h0a2.72,2.72,0,0,1,2.22-1.17c2.35,0,3.49,1.79,3.49,4,0,2-1,3.89-3.22,3.89a2.66,2.66,0,0,1-2.58-1.23h0v1h-1.56V232Zm3.68,3.94c-1.38,0-2.09,1.05-2.09,2.64s0.76,2.63,2.09,2.63c1.5,0,2.06-1.33,2.06-2.62s-0.7-2.65-2.06-2.65h0Z"/><path class="gs35-2" d="M643.62,232h1.64v10.3h-1.64V232Z"/><path class="gs35-2" d="M646.73,232h1.66v1.56h-1.64Zm0,2.84h1.66v7.46h-1.64Z"/><path class="gs35-2" d="M654.84,237.32a1.58,1.58,0,0,0-1.7-1.4c-0.85,0-2,.45-2,2.71,0,1.24.55,2.55,2,2.55a1.77,1.77,0,0,0,1.77-1.7h1.64a3.21,3.21,0,0,1-3.41,3h0c-2.34,0-3.62-1.66-3.62-3.85s1.23-4,3.68-4c1.73,0,3.2.87,3.36,2.7h-1.71Z"/><path class="gs35-2" d="M657.82,231.74a12.06,12.06,0,0,1,2.08,6.66,12.2,12.2,0,0,1-2.08,6.63h-1.34a13.24,13.24,0,0,0,1.77-6.63,12.82,12.82,0,0,0-1.77-6.66h1.34Z"/><rect class="gs35-3" x="643.23" y="153.67" width="26.57" height="15.69" rx="4.53" ry="4.53"/><rect class="gs35-19" x="639.29" y="150.19" width="30.51" height="19.38" rx="1.45" ry="1.45"/><path class="gs35-2" d="M644.39,163.5a0.5,0.5,0,0,1-.28-0.49,2.7,2.7,0,0,0,0-.34v-0.73h0v-0.28a0.27,0.27,0,0,1,0-.14v-1.33a14,14,0,0,1,0-1.45,1.24,1.24,0,0,1,0-.31,2.52,2.52,0,0,1,0-.32v-0.25a0.7,0.7,0,0,1,0-.28,1.22,1.22,0,0,1,.08-0.23,0.67,0.67,0,0,1,.82-0.24,0.54,0.54,0,0,1,.26.58v0.91a4.26,4.26,0,0,1,0,.58,1.07,1.07,0,0,0,0,.26v0.06a1.41,1.41,0,0,1,0,.33v0.38a1.1,1.1,0,0,0,0,.2v0.09c0.06,0.38.31,0.86,0.54,0.6a0.13,0.13,0,0,1,.08-0.1l0.33-.38,0.13-.13h0l0.24-.28,0.09-.09a0.8,0.8,0,0,1,1,.09h0a1.67,1.67,0,0,0,.37.36c0.19,0.18.12,0.13,0.14,0.17a1.51,1.51,0,0,0,.22.27c0.33,0.27.68-.27,0.72-0.64v-2.31a1.37,1.37,0,0,1,0-.6,0.7,0.7,0,0,1,.86-0.36,0.53,0.53,0,0,1,.27.42v2a2.23,2.23,0,0,1,0,.77v0.24a0.54,0.54,0,0,0,0,.14V161a3.84,3.84,0,0,0,0,.4v0.4a0.74,0.74,0,0,1,0,.28v0.78a0.79,0.79,0,0,1-.18.52,0.71,0.71,0,0,1-1-.2l0,0a2.5,2.5,0,0,1-.25-0.38l-0.06-.12a2.89,2.89,0,0,0-.43-0.38,1.56,1.56,0,0,0-1.07-.5,1.36,1.36,0,0,0-1,.54,3.31,3.31,0,0,1-.37.37,2.84,2.84,0,0,0-.49.51h0a0.72,0.72,0,0,1-1,.29Z"/><path class="gs35-2" d="M652.16,163.5a0.5,0.5,0,0,1-.28-0.49,2.7,2.7,0,0,0,0-.34v-0.73h0v-0.28a0.27,0.27,0,0,1,0-.14v-1.33a14,14,0,0,1,0-1.45,1.24,1.24,0,0,1,0-.31,2.52,2.52,0,0,1,0-.32v-0.25a0.7,0.7,0,0,1,0-.28,1.22,1.22,0,0,1,.08-0.23,0.67,0.67,0,0,1,.82-0.24,0.54,0.54,0,0,1,.26.58v0.91a4.26,4.26,0,0,1,0,.58,1.07,1.07,0,0,0,0,.26v0.06a1.41,1.41,0,0,1,0,.33v0.38a1.1,1.1,0,0,0,0,.2v0.09c0.06,0.38.31,0.86,0.54,0.6a0.14,0.14,0,0,1,.08-0.1l0.33-.38,0.13-.13h0l0.24-.28,0.09-.09a0.8,0.8,0,0,1,1,.09h0a1.67,1.67,0,0,0,.37.36c0.19,0.18.12,0.13,0.14,0.17a1.51,1.51,0,0,0,.22.27c0.33,0.27.68-.27,0.72-0.64v-2.31a1.37,1.37,0,0,1,0-.6,0.7,0.7,0,0,1,.86-0.36,0.53,0.53,0,0,1,.27.42v2a2.23,2.23,0,0,1,0,.77v0.24a0.54,0.54,0,0,0,0,.14V161a3.84,3.84,0,0,0,0,.4v0.4a0.74,0.74,0,0,1,0,.28v0.78a0.79,0.79,0,0,1-.18.52,0.71,0.71,0,0,1-1-.2l0,0a2.5,2.5,0,0,1-.25-0.38l-0.06-.12a2.89,2.89,0,0,0-.43-0.38,1.56,1.56,0,0,0-1.07-.5,1.36,1.36,0,0,0-1,.54,3.31,3.31,0,0,1-.37.37,2.84,2.84,0,0,0-.49.51h0a0.72,0.72,0,0,1-1,.29Z"/><path class="gs35-2" d="M659.89,163.5a0.5,0.5,0,0,1-.28-0.49,2.7,2.7,0,0,0,0-.34v-0.73h0v-0.28a0.27,0.27,0,0,1,0-.14v-1.33a14,14,0,0,1,0-1.45,1.24,1.24,0,0,1,0-.31,2.52,2.52,0,0,1,0-.32v-0.25a0.7,0.7,0,0,1,0-.28,1.22,1.22,0,0,1,.08-0.23,0.67,0.67,0,0,1,.82-0.24,0.54,0.54,0,0,1,.26.58v0.91a4.26,4.26,0,0,1,0,.58,1.07,1.07,0,0,0,0,.26v0.06a1.41,1.41,0,0,1,0,.33v0.38a1.1,1.1,0,0,0,0,.2v0.09c0.06,0.38.31,0.86,0.54,0.6a0.14,0.14,0,0,1,.08-0.1l0.33-.38,0.13-.13h0l0.24-.28,0.09-.09a0.8,0.8,0,0,1,1,.09h0a1.67,1.67,0,0,0,.37.36c0.19,0.18.12,0.13,0.14,0.17a1.51,1.51,0,0,0,.22.27c0.33,0.27.68-.27,0.72-0.64v-2.31a1.37,1.37,0,0,1,0-.6,0.7,0.7,0,0,1,.86-0.36,0.53,0.53,0,0,1,.27.42v2a2.23,2.23,0,0,1,0,.77v0.24a0.54,0.54,0,0,0,0,.14V161a3.84,3.84,0,0,0,0,.4v0.4a0.74,0.74,0,0,1,0,.28v0.78a0.79,0.79,0,0,1-.18.52,0.71,0.71,0,0,1-1-.2l0,0a2.5,2.5,0,0,1-.25-0.38l-0.06-.12a2.89,2.89,0,0,0-.43-0.38,1.56,1.56,0,0,0-1.07-.5,1.36,1.36,0,0,0-1,.54,3.31,3.31,0,0,1-.37.37,2.84,2.84,0,0,0-.49.51h0a0.72,0.72,0,0,1-1,.29Z"/><rect class="gs35-3" x="606.82" y="148.62" width="26.57" height="15.69" rx="4.53" ry="4.53"/><rect class="gs35-19" x="602.87" y="145.15" width="30.51" height="19.38" rx="1.45" ry="1.45"/><path class="gs35-2" d="M608,158.46a0.5,0.5,0,0,1-.28-0.49,2.7,2.7,0,0,0,0-.34V156.9h0v-0.24a0.27,0.27,0,0,1,0-.14v-1.36a14,14,0,0,1,0-1.45,1.24,1.24,0,0,1,0-.31,2.52,2.52,0,0,1,0-.32v-0.25a0.69,0.69,0,0,1,0-.28,1.2,1.2,0,0,1,.08-0.23,0.67,0.67,0,0,1,.82-0.24,0.54,0.54,0,0,1,.26.58v0.91a4.26,4.26,0,0,1,0,.58,1.07,1.07,0,0,0,0,.26v0.06a1.41,1.41,0,0,1,0,.33v0.38a1.1,1.1,0,0,0,0,.2v0.09c0.06,0.38.31,0.86,0.54,0.6a0.13,0.13,0,0,1,.08-0.1l0.33-.38,0.13-.13h0l0.24-.28,0.09-.09a0.8,0.8,0,0,1,1,.09h0a1.67,1.67,0,0,0,.37.36c0.19,0.18.12,0.13,0.14,0.17a1.51,1.51,0,0,0,.22.27c0.33,0.27.68-.27,0.72-0.64V153a1.37,1.37,0,0,1,0-.6,0.7,0.7,0,0,1,.86-0.36,0.53,0.53,0,0,1,.27.42v2a2.23,2.23,0,0,1,0,.77v0.24a0.54,0.54,0,0,0,0,.14V156a3.84,3.84,0,0,0,0,.4v0.4a0.73,0.73,0,0,1,0,.28v0.78a0.79,0.79,0,0,1-.18.52,0.71,0.71,0,0,1-1-.2l0,0a2.5,2.5,0,0,1-.25-0.38l-0.06-.12a2.89,2.89,0,0,0-.43-0.38,1.56,1.56,0,0,0-1.07-.5,1.36,1.36,0,0,0-1,.54,3.31,3.31,0,0,1-.37.37,2.84,2.84,0,0,0-.49.51h0a0.72,0.72,0,0,1-1,.29H608Z"/><path class="gs35-2" d="M615.74,158.46a0.5,0.5,0,0,1-.28-0.49,2.7,2.7,0,0,0,0-.34V156.9h0v-0.24a0.27,0.27,0,0,1,0-.14v-1.36a14,14,0,0,1,0-1.45,1.24,1.24,0,0,1,0-.31,2.52,2.52,0,0,1,0-.32v-0.25a0.69,0.69,0,0,1,0-.28,1.2,1.2,0,0,1,.08-0.23,0.67,0.67,0,0,1,.82-0.24,0.54,0.54,0,0,1,.26.58v0.91a4.26,4.26,0,0,1,0,.58,1.07,1.07,0,0,0,0,.26v0.06a1.41,1.41,0,0,1,0,.33v0.38a1.1,1.1,0,0,0,0,.2v0.09c0.06,0.38.31,0.86,0.54,0.6a0.14,0.14,0,0,1,.08-0.1l0.33-.38,0.13-.13h0l0.24-.28,0.09-.09a0.8,0.8,0,0,1,1,.09h0a1.67,1.67,0,0,0,.37.36c0.19,0.18.12,0.13,0.14,0.17a1.51,1.51,0,0,0,.22.27c0.33,0.27.68-.27,0.72-0.64V153a1.37,1.37,0,0,1,0-.6,0.7,0.7,0,0,1,.86-0.36,0.53,0.53,0,0,1,.27.42v2a2.23,2.23,0,0,1,0,.77v0.24a0.54,0.54,0,0,0,0,.14V156a3.84,3.84,0,0,0,0,.4v0.4a0.73,0.73,0,0,1,0,.28v0.78a0.79,0.79,0,0,1-.18.52,0.71,0.71,0,0,1-1-.2l0,0a2.5,2.5,0,0,1-.25-0.38l-0.06-.12a2.89,2.89,0,0,0-.43-0.38,1.56,1.56,0,0,0-1.07-.5,1.36,1.36,0,0,0-1,.54,3.31,3.31,0,0,1-.37.37,2.84,2.84,0,0,0-.49.51h0a0.72,0.72,0,0,1-1,.29h-0.07Z"/><path class="gs35-2" d="M623.48,158.46a0.5,0.5,0,0,1-.28-0.49,2.7,2.7,0,0,0,0-.34V156.9h0v-0.24a0.27,0.27,0,0,1,0-.14v-1.36a14,14,0,0,1,0-1.45,1.24,1.24,0,0,1,0-.31,2.52,2.52,0,0,1,0-.32v-0.25a0.69,0.69,0,0,1,0-.28,1.2,1.2,0,0,1,.08-0.23,0.67,0.67,0,0,1,.82-0.24,0.54,0.54,0,0,1,.26.58v0.91a4.26,4.26,0,0,1,0,.58,1.07,1.07,0,0,0,0,.26v0.06a1.41,1.41,0,0,1,0,.33v0.38a1.1,1.1,0,0,0,0,.2v0.09c0.06,0.38.31,0.86,0.54,0.6A0.14,0.14,0,0,1,625,156l0.33-.38,0.13-.13h0l0.24-.28,0.09-.09a0.8,0.8,0,0,1,1,.09h0a1.67,1.67,0,0,0,.37.36c0.19,0.18.12,0.13,0.14,0.17a1.51,1.51,0,0,0,.22.27c0.33,0.27.68-.27,0.72-0.64V153a1.37,1.37,0,0,1,0-.6,0.7,0.7,0,0,1,.86-0.36,0.53,0.53,0,0,1,.27.42v2a2.23,2.23,0,0,1,0,.77v0.24a0.54,0.54,0,0,0,0,.14V156a3.84,3.84,0,0,0,0,.4v0.4a0.73,0.73,0,0,1,0,.28v0.78a0.79,0.79,0,0,1-.18.52,0.71,0.71,0,0,1-1-.2l0,0a2.5,2.5,0,0,1-.25-0.38l-0.06-.12a2.89,2.89,0,0,0-.43-0.38,1.56,1.56,0,0,0-1.07-.5,1.36,1.36,0,0,0-1,.54,3.31,3.31,0,0,1-.37.37,2.84,2.84,0,0,0-.49.51h0a0.72,0.72,0,0,1-1,.29h-0.07Z"/><rect class="gs35-7" x="615.58" y="159.56" width="40.93" height="28.66" rx="8.05" ry="8.05"/><rect class="gs35-1" x="615.58" y="159.56" width="40.93" height="28.66" rx="8.05" ry="8.05"/><rect class="gs35-3" x="624.26" y="167.6" width="26.57" height="15.69" rx="4.53" ry="4.53"/><rect class="gs35-19" x="620.31" y="164.13" width="30.51" height="19.38" rx="1.45" ry="1.45"/><path class="gs35-2" d="M625.45,177.43a0.5,0.5,0,0,1-.28-0.49,2.7,2.7,0,0,0,0-.34v-0.73h0v-0.23a0.27,0.27,0,0,1,0-.14v-1.33a14,14,0,0,1,0-1.45,1.24,1.24,0,0,1,0-.31,2.52,2.52,0,0,1,0-.32v-0.25a0.7,0.7,0,0,1,0-.28,1.22,1.22,0,0,1,.08-0.23,0.67,0.67,0,0,1,.82-0.24,0.54,0.54,0,0,1,.26.58v0.91a4.26,4.26,0,0,1,0,.58,1.07,1.07,0,0,0,0,.26v0.06a1.41,1.41,0,0,1,0,.33v0.38a1.1,1.1,0,0,0,0,.2v0.09c0.06,0.38.31,0.86,0.54,0.6a0.14,0.14,0,0,1,.08-0.1l0.33-.38,0.13-.13h0l0.24-.28,0.09-.09a0.8,0.8,0,0,1,1,.09h0a1.67,1.67,0,0,0,.37.36c0.19,0.18.12,0.13,0.14,0.17a1.51,1.51,0,0,0,.22.27c0.33,0.27.68-.27,0.72-0.64V172a1.37,1.37,0,0,1,0-.6,0.7,0.7,0,0,1,.86-0.36,0.53,0.53,0,0,1,.27.42v2a2.23,2.23,0,0,1,0,.77v0.24a0.54,0.54,0,0,0,0,.14V175a3.84,3.84,0,0,0,0,.4v0.4a0.74,0.74,0,0,1,0,.28v0.78a0.79,0.79,0,0,1-.18.52,0.71,0.71,0,0,1-1-.2l0,0a2.5,2.5,0,0,1-.25-0.38l-0.06-.12a2.89,2.89,0,0,0-.43-0.38,1.56,1.56,0,0,0-1.07-.5,1.36,1.36,0,0,0-1,.54,3.31,3.31,0,0,1-.37.37,2.84,2.84,0,0,0-.49.51h0a0.72,0.72,0,0,1-1,.29Z"/><path class="gs35-2" d="M633.18,177.43a0.5,0.5,0,0,1-.28-0.49,2.7,2.7,0,0,0,0-.34v-0.73h0v-0.23a0.27,0.27,0,0,1,0-.14v-1.33a14,14,0,0,1,0-1.45,1.24,1.24,0,0,1,0-.31,2.52,2.52,0,0,1,0-.32v-0.25a0.7,0.7,0,0,1,0-.28,1.22,1.22,0,0,1,.08-0.23,0.67,0.67,0,0,1,.82-0.24,0.54,0.54,0,0,1,.26.58v0.91a4.26,4.26,0,0,1,0,.58,1.07,1.07,0,0,0,0,.26v0.06a1.41,1.41,0,0,1,0,.33v0.38a1.1,1.1,0,0,0,0,.2v0.09c0.06,0.38.31,0.86,0.54,0.6a0.13,0.13,0,0,1,.08-0.1l0.33-.38,0.13-.13h0l0.24-.28,0.09-.09a0.8,0.8,0,0,1,1,.09h0a1.67,1.67,0,0,0,.37.36c0.19,0.18.12,0.13,0.14,0.17a1.51,1.51,0,0,0,.22.27c0.33,0.27.68-.27,0.72-0.64V172a1.37,1.37,0,0,1,0-.6,0.7,0.7,0,0,1,.86-0.36,0.53,0.53,0,0,1,.27.42v2a2.23,2.23,0,0,1,0,.77v0.24a0.54,0.54,0,0,0,0,.14V175a3.84,3.84,0,0,0,0,.4v0.4a0.74,0.74,0,0,1,0,.28v0.78a0.79,0.79,0,0,1-.18.52,0.71,0.71,0,0,1-1-.2l0,0a2.5,2.5,0,0,1-.25-0.38l-0.06-.12a2.89,2.89,0,0,0-.43-0.38,1.56,1.56,0,0,0-1.07-.5,1.36,1.36,0,0,0-1,.54,3.31,3.31,0,0,1-.37.37,2.84,2.84,0,0,0-.49.51h0a0.72,0.72,0,0,1-1,.29Z"/><path class="gs35-2" d="M640.92,177.43a0.5,0.5,0,0,1-.28-0.49,2.7,2.7,0,0,0,0-.34v-0.73h0v-0.23a0.27,0.27,0,0,1,0-.14v-1.33a14,14,0,0,1,0-1.45,1.24,1.24,0,0,1,0-.31,2.52,2.52,0,0,1,0-.32v-0.25a0.7,0.7,0,0,1,0-.28,1.22,1.22,0,0,1,.08-0.23,0.67,0.67,0,0,1,.82-0.24,0.54,0.54,0,0,1,.26.58v0.91a4.26,4.26,0,0,1,0,.58,1.07,1.07,0,0,0,0,.26v0.06a1.41,1.41,0,0,1,0,.33v0.38a1.1,1.1,0,0,0,0,.2v0.09c0.06,0.38.31,0.86,0.54,0.6a0.13,0.13,0,0,1,.08-0.1l0.33-.38,0.13-.13h0l0.24-.28,0.09-.09a0.8,0.8,0,0,1,1,.09h0a1.67,1.67,0,0,0,.37.36c0.19,0.18.12,0.13,0.14,0.17a1.51,1.51,0,0,0,.22.27c0.33,0.27.68-.27,0.72-0.64V172a1.37,1.37,0,0,1,0-.6,0.7,0.7,0,0,1,.86-0.36,0.53,0.53,0,0,1,.27.42v2a2.23,2.23,0,0,1,0,.77v0.24a0.54,0.54,0,0,0,0,.14V175a3.84,3.84,0,0,0,0,.4v0.4a0.74,0.74,0,0,1,0,.28v0.78a0.79,0.79,0,0,1-.18.52,0.71,0.71,0,0,1-1-.2l0,0a2.5,2.5,0,0,1-.25-0.38l-0.06-.12a2.89,2.89,0,0,0-.43-0.38,1.56,1.56,0,0,0-1.07-.5,1.36,1.36,0,0,0-1,.54,3.31,3.31,0,0,1-.37.37,2.84,2.84,0,0,0-.49.51h0a0.72,0.72,0,0,1-1,.29Z"/><line class="gs35-20" x1="478.27" y1="191.33" x2="474.27" y2="191.33"/><line class="gs35-21" x1="466.19" y1="191.33" x2="195.43" y2="191.33"/><line class="gs35-20" x1="191.39" y1="191.33" x2="187.39" y2="191.33"/><path class="gs35-17" d="M500.93,186.55h1.77v1.65h0a2.75,2.75,0,0,1,2.49-1.88,4.31,4.31,0,0,1,.71.05v1.81a6.68,6.68,0,0,0-.81-0.08c-1.29,0-2.31,1-2.31,2.92v4.06H500.9Z"/><path class="gs35-17" d="M507.92,191.3a2.27,2.27,0,0,0,2,2.51h0.28a2,2,0,0,0,2.08-1.42h1.78a3.74,3.74,0,0,1-3.86,2.9c-2.67,0-4.17-1.86-4.17-4.49a4.13,4.13,0,1,1,8.15.48h-6.27Zm4.39-1.24a2.2,2.2,0,1,0-4.39,0h4.39Z"/><path class="gs35-17" d="M523.66,198.23h-1.88V194h0a3.32,3.32,0,0,1-2.85,1.34c-2.52,0-3.68-2.16-3.68-4.45,0-2.49,1.3-4.54,4-4.54a2.85,2.85,0,0,1,2.64,1.39h0v-1.15h1.78v11.67Zm-4.21-4.4c1.63,0,2.39-1.22,2.39-3s-0.82-3-2.39-3-2.36,1.47-2.36,3,0.64,3,2.36,3h0Z"/><path class="gs35-17" d="M533.19,195.08h-1.8v-1.19h0a2.86,2.86,0,0,1-2.43,1.42c-2.23,0-3.18-1.12-3.18-3.35v-5.41h1.88v5.23c0,1.5.61,2,1.63,2,1.57,0,2.1-1,2.1-2.33V186.5h1.88Z"/><path class="gs35-17" d="M536.64,191.3a2.27,2.27,0,0,0,2,2.51h0.28A2,2,0,0,0,541,192.4h1.78a3.73,3.73,0,0,1-3.86,2.9c-2.67,0-4.17-1.86-4.17-4.49a4.13,4.13,0,1,1,8.15.48h-6.27Zm4.39-1.24a2.2,2.2,0,1,0-4.39,0H541Z"/><path class="gs35-17" d="M545.77,192.34a1.66,1.66,0,0,0,1.93,1.48c0.71,0,2-.15,1.9-1.12s-1.42-1.11-2.79-1.42-2.74-.79-2.74-2.52,2-2.44,3.56-2.44c1.75,0,3.33.73,3.56,2.62h-2a1.5,1.5,0,0,0-1.73-1.14c-0.54,0-1.55.13-1.55,0.88,0,0.92,1.38,1.05,2.77,1.37s2.76,0.81,2.76,2.49c0,2-2,2.77-3.81,2.77-2.14,0-3.74-1-3.78-3Z"/><path class="gs35-17" d="M552,186.55h1.42V184h1.92v2.56h1.7V188h-1.7v4.55c0,0.78.07,1.17,0.91,1.17a3.2,3.2,0,0,0,.79-0.07v1.45c-0.41,0-.81.1-1.22,0.1-2,0-2.33-.76-2.36-2.18v-5h-1.42Z"/><path class="gs35-17" d="M563,183.3h1.88v4.36h0a3.11,3.11,0,0,1,2.54-1.34c2.69,0,4,2,4,4.54,0,2.29-1.15,4.45-3.68,4.45a3,3,0,0,1-3-1.4h0v1.17H563Zm4.21,4.5c-1.58,0-2.39,1.21-2.39,3s0.87,3,2.39,3c1.72,0,2.36-1.52,2.36-3s-0.81-3-2.36-3h0Z"/><path class="gs35-17" d="M572.13,186.55h2.06l2.23,6.37h0l2.16-6.37h2l-3.32,9c-0.61,1.54-1,2.92-3,2.92a8.48,8.48,0,0,1-1.3-.1v-1.58a5.56,5.56,0,0,0,.89.12,1.26,1.26,0,0,0,1.32-1.19l0.21-.66Z"/><polyline class="gs35-22" points="498.3 175.18 483.68 189.81 498.3 204.43"/><polyline class="gs35-20" points="182.38 175.14 167.76 189.76 182.38 204.39"/><path class="gs35-9" d="M297.21,386.55h3.29c1.21,0,2,.55,2,1.68a1.49,1.49,0,0,1-1,1.44h0a1.61,1.61,0,0,1,1.27,1.74c0,1.06-.74,1.89-2.49,1.89h-3.11Zm1.18,2.83h1.93a0.91,0.91,0,0,0,1-.94,0.84,0.84,0,0,0-1-.93h-1.93v1.87Zm0,3h2.09a1,1,0,1,0,.15-2.08h-2.24v2.07Z"/><path class="gs35-9" d="M303.26,390.86a2.48,2.48,0,1,1,2.47,2.59A2.37,2.37,0,0,1,303.26,390.86Zm3.87,0a1.42,1.42,0,1,0-1.39,1.73A1.52,1.52,0,0,0,307.13,390.86Z"/><path class="gs35-9" d="M308.9,386.55H310v2.5h0a1.78,1.78,0,0,1,1.46-.77c1.54,0,2.29,1.17,2.29,2.61s-0.66,2.56-2.11,2.56a1.75,1.75,0,0,1-1.7-.81h0v0.67h-1Zm2.42,2.59c-0.91,0-1.37.69-1.37,1.73a1.46,1.46,0,0,0,1.37,1.72,1.78,1.78,0,0,0,0-3.46h0Z"/><rect class="gs35-23" width="679.23" height="432.67"/></svg>
