<svg id="Layer_1" data-name="Layer 1" xmlns="http://www.w3.org/2000/svg" xmlns:xlink="http://www.w3.org/1999/xlink" viewBox="0 0 2015.73 303.77"><defs><style>.cls-1{fill:none;stroke:#fec40d;stroke-miterlimit:10;stroke-width:3px;}.cls-2{fill:url(#linear-gradient);}</style><linearGradient id="linear-gradient" y1="93.72" x2="2015.07" y2="93.72" gradientUnits="userSpaceOnUse"><stop offset="0.23" stop-color="#ade0eb" stop-opacity="0.5"/><stop offset="0.37" stop-color="#97d6e4" stop-opacity="0.5"/><stop offset="0.62" stop-color="#5cbbd1" stop-opacity="0.5"/><stop offset="0.76" stop-color="#35a9c5" stop-opacity="0.5"/></linearGradient></defs><title>Untitled-2</title><path class="cls-1" d="M0,223.49c38.51,6.88,91.1,12.85,159.75,13.76,186,2.47,479.87-70.23,755.63-58.59,290.3,12.26,470,122.15,743,123.59,186,1,306-25.18,356.69-39.15" transform="translate(0.26 0)"/><path class="cls-2" d="M0,82.54c109.79-20.87,217.69-23,328.46-8.17,113.14,15.13,223.23,48.71,336.49,62.94,301.55,37.88,602.3-62.87,905.83-78.2,156.55-7.91,328.09,13.22,439.37,123.61,2.15,2.13,2.53,2.65,4.92,4.72,0-21.55,0-56.7,0-68.76-36.69-35.47-83.81-60.31-132.45-76.92C1769,2.95,1645,4.84,1526.36,23.46s-237.94,42.73-355.21,68.62C939,143.31,695.2,145.29,467.58,76.84c-62.89-18.91-119.07-32.93-182.49-50C192.41,2,95.33-6,0,4.58" transform="translate(0.26 0)"/></svg>